<svg xmlns="http://www.w3.org/2000/svg" width="73" height="124" fill="none" viewBox="0 0 73 124"><g clip-path="url(#a)"><path fill="#005bea" d="m67.57 47.019 3.94 2.295a1.54 1.54 0 0 0-1.539.147L46.783 62.953a5.8 5.8 0 0 0-1.747 2.021 5.8 5.8 0 0 0-.655 2.598v21.495a2.28 2.28 0 0 0 .735 1.9l-3.875-2.253a2.14 2.14 0 0 1-.83-1.958V65.262a5.8 5.8 0 0 1 .653-2.6 5.8 5.8 0 0 1 1.745-2.023L65.997 47.15a1.52 1.52 0 0 1 1.572-.132"/><path fill="#fff" d="M65.618 13.652v21.494a5.84 5.84 0 0 1-.655 2.599 5.8 5.8 0 0 1-1.743 2.024L13.754 68.548a1.53 1.53 0 0 1-1.572.126 2.15 2.15 0 0 1-.83-1.955V45.224a5.8 5.8 0 0 1 .656-2.599 5.8 5.8 0 0 1 1.746-2.024L63.22 11.823a1.54 1.54 0 0 1 1.535-.147 2.13 2.13 0 0 1 .863 1.976m-38.65 38.292a9.65 9.65 0 0 0 3.075-3.27 9.7 9.7 0 0 0 1.272-4.32c0-2.791-1.943-3.926-4.346-2.526a9.64 9.64 0 0 0-3.074 3.27 9.7 9.7 0 0 0-1.271 4.317c.001 2.794 1.945 3.925 4.345 2.53"/><path fill="#005bea" d="m60.817 9.381 3.937 2.295a1.53 1.53 0 0 0-1.535.147L13.754 40.602a5.8 5.8 0 0 0-1.747 2.023 5.8 5.8 0 0 0-.655 2.6v21.494a2.15 2.15 0 0 0 .83 1.954l-3.97-2.31a2.17 2.17 0 0 1-.83-1.958v-21.49a5.8 5.8 0 0 1 .653-2.6 5.8 5.8 0 0 1 1.744-2.024L59.245 9.513a1.53 1.53 0 0 1 1.572-.132m1.003 54.803v7.998l-6.873 3.997V68.18z"/><path fill="#fff" d="M32.583 74.447V95.94a5.8 5.8 0 0 1-.653 2.6 5.8 5.8 0 0 1-1.745 2.023L6.996 114.056a1.52 1.52 0 0 1-1.568.126l-.095-.059a2.24 2.24 0 0 1-.734-1.895V90.734a5.8 5.8 0 0 1 .653-2.6 5.8 5.8 0 0 1 1.745-2.023l23.188-13.493a1.55 1.55 0 0 1 1.502-.164l.066.039a2.14 2.14 0 0 1 .83 1.954m-9.926 19.44-4.07-5.152-4.07 9.881zm9.097-21.396-.067-.038a.2.2 0 0 1 .067.038"/><path fill="#005bea" d="m27.784 70.177 3.903 2.274a1.55 1.55 0 0 0-1.5.164L6.997 86.108a5.8 5.8 0 0 0-1.745 2.023 5.8 5.8 0 0 0-.653 2.6v21.494a2.25 2.25 0 0 0 .734 1.895l-3.88-2.253a2.15 2.15 0 0 1-.83-1.954V88.414a5.8 5.8 0 0 1 .655-2.596 5.8 5.8 0 0 1 1.743-2.022L26.21 70.303a1.53 1.53 0 0 1 1.574-.126"/><path fill="#fff" d="M31.315 44.356c-.08 1.52-.516 3-1.271 4.32a9.65 9.65 0 0 1-3.074 3.27c-2.402 1.396-4.345.266-4.345-2.53a9.7 9.7 0 0 1 1.271-4.317 9.64 9.64 0 0 1 3.074-3.27c2.402-1.398 4.345-.264 4.345 2.527M18.592 88.734l4.07 5.151-8.133 4.733z"/><path fill="#005bea" d="M12.8 69.469a1.8 1.8 0 0 1-.933-.252 2.74 2.74 0 0 1-.901-1.096 2.76 2.76 0 0 1-.235-1.403V45.224a6.45 6.45 0 0 1 .738-2.915 6.4 6.4 0 0 1 1.976-2.254l49.467-28.778a2.13 2.13 0 0 1 2.145-.157 2.73 2.73 0 0 1 1.192 2.53v21.496a6.45 6.45 0 0 1-.737 2.913 6.4 6.4 0 0 1-1.974 2.255l-49.467 28.78a2.54 2.54 0 0 1-1.272.375M64.174 12.16a1.4 1.4 0 0 0-.641.207L14.067 41.146a5.2 5.2 0 0 0-1.516 1.794 5.2 5.2 0 0 0-.573 2.284v21.494a1.61 1.61 0 0 0 .515 1.408A1 1 0 0 0 13.44 68l49.465-28.778a5.2 5.2 0 0 0 1.511-1.795 5.2 5.2 0 0 0 .572-2.282V13.65a1.59 1.59 0 0 0-.534-1.42.6.6 0 0 0-.28-.065zM6.047 114.974a1.84 1.84 0 0 1-1.074-.339 2.85 2.85 0 0 1-.998-2.41V90.731a6.4 6.4 0 0 1 .735-2.916 6.4 6.4 0 0 1 1.976-2.254L29.875 72.07a2.17 2.17 0 0 1 2.06-.199.8.8 0 0 1 .165.091 2.768 2.768 0 0 1 1.11 2.48v21.494a6.4 6.4 0 0 1-.734 2.916 6.4 6.4 0 0 1-1.977 2.254L7.31 114.6a2.54 2.54 0 0 1-1.263.374m-.342-1.36.036.019a.99.99 0 0 0 .946-.126l23.188-13.491a5.2 5.2 0 0 0 1.514-1.794 5.2 5.2 0 0 0 .569-2.284V74.443a1.6 1.6 0 0 0-.511-1.405l-.032-.02h-.006a1 1 0 0 0-.91.145L7.311 86.655a5.2 5.2 0 0 0-1.513 1.794 5.2 5.2 0 0 0-.57 2.284v21.494a1.72 1.72 0 0 0 .474 1.38zm40.129-21.79a1.84 1.84 0 0 1-.99-.286 1 1 0 0 1-.095-.055 2.88 2.88 0 0 1-.994-2.41V67.577a6.4 6.4 0 0 1 .737-2.913 6.4 6.4 0 0 1 1.979-2.252L69.653 48.92a2.14 2.14 0 0 1 2.15-.156c.407.272.734.652.944 1.098s.295.941.247 1.432V72.79a6.45 6.45 0 0 1-.738 2.915 6.4 6.4 0 0 1-1.977 2.254L47.092 91.45c-.38.233-.813.362-1.258.374m-.344-1.36.036.019a1 1 0 0 0 .946-.126l23.184-13.491a5.2 5.2 0 0 0 1.516-1.794 5.2 5.2 0 0 0 .574-2.284V51.294a1.59 1.59 0 0 0-.533-1.42 1.02 1.02 0 0 0-.93.138l-23.19 13.492a5.2 5.2 0 0 0-1.517 1.791 5.2 5.2 0 0 0-.573 2.282v21.494a1.74 1.74 0 0 0 .474 1.39z"/><path fill="#005bea" d="M25.028 53.176a2.84 2.84 0 0 1-1.444-.382 3.67 3.67 0 0 1-1.251-1.472 3.7 3.7 0 0 1-.333-1.91 10.3 10.3 0 0 1 1.35-4.637 10.2 10.2 0 0 1 3.309-3.495 3.24 3.24 0 0 1 3.698-.31 3.27 3.27 0 0 1 1.317 1.441c.284.605.377 1.282.269 1.94a10.3 10.3 0 0 1-1.348 4.64 10.2 10.2 0 0 1-3.31 3.498c-.68.424-1.458.66-2.257.687m3.88-11.318a3.3 3.3 0 0 0-1.626.517 8.96 8.96 0 0 0-2.852 3.034 9.04 9.04 0 0 0-1.181 4.006 2.064 2.064 0 0 0 .959 2.289 2.03 2.03 0 0 0 2.448-.305 8.96 8.96 0 0 0 2.852-3.037 9.04 9.04 0 0 0 1.18-4.007 2.51 2.51 0 0 0-.959-2.29 1.6 1.6 0 0 0-.819-.208zm7.309-2.043a.62.62 0 0 1-.604-.467.635.635 0 0 1 .29-.71l13.501-7.85a.62.62 0 0 1 .855.23.635.635 0 0 1-.23.862l-13.5 7.85a.6.6 0 0 1-.312.085m0 4.315a.62.62 0 0 1-.606-.468.636.636 0 0 1 .293-.71l13.5-7.856a.62.62 0 0 1 .854.231.635.635 0 0 1-.229.861l-13.5 7.855a.6.6 0 0 1-.312.086M14.526 99.244a.62.62 0 0 1-.52-.28.64.64 0 0 1-.058-.592l4.07-9.882a.63.63 0 0 1 .49-.382.62.62 0 0 1 .577.232l4.07 5.15a.633.633 0 0 1-.177.94l-8.133 4.732a.6.6 0 0 1-.319.082m4.238-9.283L15.81 97.14l5.907-3.434zm36.182-13.153a.62.62 0 0 1-.442-.185.63.63 0 0 1-.184-.446v-8a.63.63 0 0 1 .313-.546l6.873-3.996a.62.62 0 0 1 .854.23.63.63 0 0 1 .084.316v7.998a.63.63 0 0 1-.314.545l-6.873 3.998a.6.6 0 0 1-.311.086m.626-8.266v6.543l5.621-3.27v-6.542z"/><path fill="#005bea" d="M12.18 69.308a.6.6 0 0 1-.312-.085l-3.97-2.31a2.76 2.76 0 0 1-.904-1.1 2.8 2.8 0 0 1-.238-1.406V42.914a6.44 6.44 0 0 1 .736-2.915 6.4 6.4 0 0 1 1.974-2.254L58.933 8.967a2.12 2.12 0 0 1 2.197-.132l3.938 2.296a.646.646 0 0 1 .254.853.613.613 0 0 1-.814.274l-4.003-2.33a1 1 0 0 0-.947.128L10.09 38.836a5.2 5.2 0 0 0-1.512 1.794 5.2 5.2 0 0 0-.57 2.283v21.494a1.63 1.63 0 0 0 .52 1.414l3.968 2.311a.63.63 0 0 1 .29.71.63.63 0 0 1-.603.466zm-6.75 45.501a.63.63 0 0 1-.325-.096l-3.961-2.304a2.74 2.74 0 0 1-.906-1.095A2.76 2.76 0 0 1 0 109.909V88.414A6.4 6.4 0 0 1 .736 85.5a6.4 6.4 0 0 1 1.975-2.252l23.188-13.492a2.12 2.12 0 0 1 2.2-.125l3.961 2.307a.63.63 0 0 1 .326.628.63.63 0 0 1-.459.536.62.62 0 0 1-.48-.065l-3.975-2.315a1 1 0 0 0-.946.127L3.337 84.34a5.2 5.2 0 0 0-1.512 1.793 5.2 5.2 0 0 0-.57 2.282v21.498a1.61 1.61 0 0 0 .516 1.407l3.988 2.32a.633.633 0 0 1 .052 1.042.6.6 0 0 1-.378.127zm39.787-23.152a.6.6 0 0 1-.324-.095l-3.958-2.306a2.74 2.74 0 0 1-.906-1.096 2.77 2.77 0 0 1-.238-1.407V65.259a6.44 6.44 0 0 1 .736-2.915 6.4 6.4 0 0 1 1.975-2.254L65.69 46.602a2.12 2.12 0 0 1 2.192-.13l3.942 2.295a.646.646 0 0 1 .255.853.61.61 0 0 1-.814.274l-4.008-2.33a.97.97 0 0 0-.94.129L43.129 61.182a5.2 5.2 0 0 0-1.512 1.794 5.2 5.2 0 0 0-.57 2.283v21.494a1.62 1.62 0 0 0 .515 1.411l3.984 2.32a.63.63 0 0 1 .278.709.63.63 0 0 1-.603.46z"/><path fill="#005bea" d="M18.458 77.743a.62.62 0 0 1-.443-.185.63.63 0 0 1-.183-.446V65.81c0-.167.066-.327.183-.446a.623.623 0 0 1 .885 0 .63.63 0 0 1 .183.446v11.302a.63.63 0 0 1-.183.446.62.62 0 0 1-.442.185m38.447-22.095a.62.62 0 0 1-.443-.184.63.63 0 0 1-.183-.446V43.443c0-.167.066-.328.183-.446a.623.623 0 0 1 1.069.446v11.579a.63.63 0 0 1-.185.443.62.62 0 0 1-.441.183"/></g><defs><clipPath id="a"><path fill="#fff" d="M0 0h73v124H0z"/></clipPath></defs></svg>