<svg xmlns="http://www.w3.org/2000/svg" width="78" height="119" fill="none" viewBox="0 0 78 119"><g clip-path="url(#a)"><path fill="#fff" d="M70.664 57.151v55.809a2.5 2.5 0 0 1-.96 2.281 1.77 1.77 0 0 1-1.848-.137L3.828 77.796a5.9 5.9 0 0 1-2.153-2.173 6 6 0 0 1-.786-2.969V16.5z"/><path fill="#005bea" d="M70.665 50.548v6.602L.89 16.496V9.892a2.47 2.47 0 0 1 1.008-2.308 1.79 1.79 0 0 1 1.795.167l64.164 37.382a6.8 6.8 0 0 1 2.042 2.37c.488.94.75 1.984.766 3.045"/><path fill="#005bea" d="M68.97 116.337a3.1 3.1 0 0 1-1.557-.458L3.384 78.574a6.8 6.8 0 0 1-2.476-2.503A6.9 6.9 0 0 1 0 72.655V9.89a3.34 3.34 0 0 1 .31-1.76 3.3 3.3 0 0 1 1.172-1.342 2.65 2.65 0 0 1 2.655.183l64.165 37.384a7.65 7.65 0 0 1 2.37 2.7 7.7 7.7 0 0 1 .884 3.493v62.411a3.4 3.4 0 0 1-.293 1.716 3.36 3.36 0 0 1-1.102 1.34c-.36.215-.772.326-1.19.322M2.585 8.31a.5.5 0 0 0-.26.062c-.267.142-.543.612-.543 1.517v62.763c0 .884.23 1.752.668 2.518a5 5 0 0 0 1.825 1.845l64.03 37.309c.224.13.647.325.943.143l.01-.006c.251-.146.519-.619.519-1.504v-62.41a5.94 5.94 0 0 0-.645-2.596 5.9 5.9 0 0 0-1.714-2.04L3.254 8.528a1.45 1.45 0 0 0-.67-.218"/><path fill="#005bea" d="M70.665 58.048a.9.9 0 0 1-.444-.121L.444 17.275a.9.9 0 0 1-.433-.546.91.91 0 0 1 .32-.961.89.89 0 0 1 1.004-.049L71.11 56.371a.896.896 0 0 1 .416 1.011.9.9 0 0 1-.319.481.9.9 0 0 1-.543.185z"/><path fill="#005bea" d="M69.71 116.143a.89.89 0 0 1-.858-.662.91.91 0 0 1 .405-1.01l6.44-3.845c.251-.15.52-.625.52-1.508V46.699a5.9 5.9 0 0 0-.643-2.593 5.9 5.9 0 0 0-1.715-2.037L9.694 4.685a1 1 0 0 0-.95-.148L2.297 8.383a.885.885 0 0 1-1.22-.325.91.91 0 0 1 .322-1.231l6.44-3.845a2.62 2.62 0 0 1 2.75.142l64.16 37.38a7.6 7.6 0 0 1 2.37 2.696 7.7 7.7 0 0 1 .884 3.492v62.415a3.4 3.4 0 0 1-.294 1.715 3.4 3.4 0 0 1-1.099 1.34l-6.445 3.845a.9.9 0 0 1-.455.136"/><path fill="#fff" d="M12.6 18.31c0 .916-.636 1.282-1.418.825a3.15 3.15 0 0 1-1.001-1.068 3.2 3.2 0 0 1-.415-1.41c0-.915.635-1.28 1.416-.823a3.15 3.15 0 0 1 1.417 2.477"/><path fill="#005bea" d="M17.607 21.229c0 .915-.635 1.281-1.417.824a3.15 3.15 0 0 1-1.002-1.068 3.2 3.2 0 0 1-.415-1.41c0-.915.635-1.281 1.417-.823a3.15 3.15 0 0 1 1.002 1.067c.247.43.389.914.415 1.41M56.99 73.722a.4.4 0 0 1-.204-.055l-42.429-24.72a.41.41 0 0 1-.205-.358V31.033a.42.42 0 0 1 .205-.357.41.41 0 0 1 .409 0l42.425 24.72a.41.41 0 0 1 .204.357v17.554a.4.4 0 0 1-.12.29.4.4 0 0 1-.288.121zm-42.02-25.37 41.612 24.243V55.992L14.971 31.747zm42.021 51.394a.4.4 0 0 1-.204-.056l-9.393-5.473a.41.41 0 0 1-.204-.357V76.307a.42.42 0 0 1 .204-.357.4.4 0 0 1 .409 0l9.393 5.473a.41.41 0 0 1 .204.357v17.553a.42.42 0 0 1-.204.357.4.4 0 0 1-.205.056m-8.98-6.124 8.577 4.997V82.018l-8.582-4.997zm-5.807-2.492a.4.4 0 0 1-.204-.055l-9.39-5.471a.41.41 0 0 1-.206-.357V67.693a.42.42 0 0 1 .205-.356.4.4 0 0 1 .408 0l9.391 5.47a.41.41 0 0 1 .204.358v17.553a.407.407 0 0 1-.408.413m-8.98-6.121 8.575 4.995V73.403l-8.575-4.996zm-5.95-20.134a.4.4 0 0 1-.204-.055l-12.711-7.406a.41.41 0 0 1-.215-.415.41.41 0 0 1 .307-.351.4.4 0 0 1 .316.05l12.712 7.407a.41.41 0 0 1 .19.464.41.41 0 0 1-.395.306m0 4.391a.4.4 0 0 1-.204-.055l-12.711-7.407a.41.41 0 0 1-.215-.414.41.41 0 0 1 .307-.351.4.4 0 0 1 .316.05l12.712 7.407a.41.41 0 0 1 .19.464.41.41 0 0 1-.395.306m0 4.39a.4.4 0 0 1-.204-.056l-12.711-7.406a.41.41 0 0 1-.15-.563.41.41 0 0 1 .558-.151l12.712 7.406a.41.41 0 0 1 .19.464.41.41 0 0 1-.395.306m0 4.383a.4.4 0 0 1-.204-.056l-12.711-7.406a.41.41 0 0 1-.15-.563.41.41 0 0 1 .558-.151l12.712 7.406a.41.41 0 0 1 .19.464.41.41 0 0 1-.395.306m0 4.39a.4.4 0 0 1-.204-.055l-12.711-7.407a.412.412 0 0 1 .098-.755.4.4 0 0 1 .31.041l12.712 7.402a.41.41 0 0 1 .19.464.41.41 0 0 1-.395.306z"/><path fill="#005bea" d="M56.992 56.168a.4.4 0 0 1-.068-.006l-42.43-7.168a.41.41 0 0 1-.344-.313.415.415 0 0 1 .317-.501q.082-.015.163 0l42.429 7.168a.4.4 0 0 1 .279.144.416.416 0 0 1-.048.583.4.4 0 0 1-.298.097z"/><path fill="#005bea" d="M56.992 73.72a.4.4 0 0 1-.288-.118L14.275 31.328a.415.415 0 0 1 .011-.569.407.407 0 0 1 .564-.017l42.432 42.27a.414.414 0 0 1-.287.706z"/></g><defs><clipPath id="a"><path fill="#fff" d="M0 0h78v119H0z"/></clipPath></defs></svg>