<svg xmlns="http://www.w3.org/2000/svg" width="70" height="111" fill="none" viewBox="0 0 70 111"><g clip-path="url(#a)"><path fill="#005bea" d="M69.017 42.73v41.488L35 104.966V63.475z"/><path fill="#fff" d="M69.017 42.729 35 63.471.982 42.729 35 21.981z"/><path fill="#fff" d="M35 63.47v41.492L.982 84.214V42.727z"/><path fill="#005bea" d="M34.998 105.997a.95.95 0 0 1-.491-.139 1.06 1.06 0 0 1-.491-.899V63.467a1.05 1.05 0 0 1 .49-.9l34.018-20.74a.94.94 0 0 1 .983 0 1.05 1.05 0 0 1 .49.898v41.489a1.05 1.05 0 0 1-.49.898L35.489 105.86a.95.95 0 0 1-.491.137m.983-41.93v39.094l32.052-19.547v-39.09z"/><path fill="#005bea" d="M35 105.999a.94.94 0 0 1-.492-.139L.491 85.112a1.05 1.05 0 0 1-.49-.898V42.725a1.05 1.05 0 0 1 .49-.899.94.94 0 0 1 .983 0L35.49 62.568a1.073 1.073 0 0 1 .116 1.72.95.95 0 0 1-1.099.078L1.966 44.523v39.09L35.49 104.06a1.07 1.07 0 0 1 .36 1.418.98.98 0 0 1-.852.521"/><path fill="#005bea" d="M69.017 43.766a.93.93 0 0 1-.492-.14L35 23.181 1.474 43.626a.953.953 0 0 1-1.343-.38 1.07 1.07 0 0 1 .36-1.417l34.017-20.748a.94.94 0 0 1 .983 0l34.017 20.748a1.07 1.07 0 0 1 .36 1.417.97.97 0 0 1-.852.52"/><path fill="#fff" d="M47.838 69.356c2.523-4.617 6.615-7.112 9.138-5.573s2.524 6.53 0 11.146-6.615 7.112-9.14 5.574c-2.523-1.538-2.522-6.53.002-11.147"/><path fill="#005bea" d="M49.519 82.002a4.1 4.1 0 0 1-2.173-.598c-1.538-.94-2.385-2.826-2.385-5.318 0-4.756 3.054-10.343 6.953-12.722 2.043-1.245 4.015-1.414 5.553-.477 1.537.936 2.383 2.825 2.383 5.317 0 4.756-3.055 10.344-6.954 12.723A6.6 6.6 0 0 1 49.52 82m5.769-17.635c-.855.044-1.68.32-2.39.795-3.293 2.008-5.972 6.908-5.972 10.924 0 1.719.498 2.968 1.402 3.52.904.553 2.178.381 3.586-.477 3.293-2.009 5.972-6.91 5.972-10.924 0-1.719-.498-2.969-1.401-3.52a2.26 2.26 0 0 0-1.196-.319z"/><path fill="#fff" d="M34.999 48.634c11.103 0 20.104-9.507 20.104-21.235S46.103 6.164 35 6.164 14.895 15.671 14.895 27.4s9 21.235 20.104 21.235"/><path fill="#fff" d="M34.999 49.67c-11.628 0-21.087-9.989-21.087-22.272S23.371 5.125 35 5.125s21.087 9.99 21.087 22.273c0 12.284-9.46 22.273-21.087 22.273m0-42.47c-10.54 0-19.121 9.06-19.121 20.198s8.578 20.197 19.12 20.197 19.124-9.06 19.124-20.197c0-11.135-8.58-20.197-19.123-20.197"/><path fill="#cee7fd" d="M34.999 6.164c11.103 0 20.103 9.508 20.103 21.235s-8.996 21.235-20.104 21.235S14.895 39.127 14.895 27.4 23.892 6.164 34.999 6.164"/><path fill="#005bea" d="M34.999 49.67c-11.628 0-21.087-9.989-21.087-22.272S23.371 5.125 35 5.125s21.087 9.99 21.087 22.273c0 12.284-9.46 22.273-21.087 22.273m0-42.47c-10.54 0-19.121 9.06-19.121 20.198s8.578 20.197 19.12 20.197 19.124-9.06 19.124-20.197c0-11.135-8.58-20.197-19.123-20.197"/></g><defs><clipPath id="a"><path fill="#fff" d="M0 0h70v111H0z"/></clipPath></defs></svg>