<svg xmlns="http://www.w3.org/2000/svg" width="81" height="108" fill="none" viewBox="0 0 81 108"><g clip-path="url(#a)"><path fill="#fff" d="M71.866 48.192V96.43l-19.54-11.221a4.63 4.63 0 0 0-2.111-3.638c-1.17-.67-2.112-.125-2.112 1.215L3.215 56.999V8.761a2.16 2.16 0 0 1 .9-2.033 1.62 1.62 0 0 1 1.603.15L69.361 43.43a6 6 0 0 1 1.822 2.084c.435.827.669 1.744.683 2.677m-21.44 10.57c0-8.177-5.766-18.118-12.886-22.206s-12.884-.774-12.884 7.403 5.768 18.117 12.884 22.205 12.883.773 12.883-7.404zm16.7 39.483v.82c0 .568-.348.83-.778.58L63.76 98.16a1.85 1.85 0 0 1-.778-1.476v-.816c0-.569.349-.83.778-.581l2.589 1.485a1.85 1.85 0 0 1 .777 1.473"/><path fill="#cee7fd" d="m52.326 85.205 19.54 11.222v6.636a2.19 2.19 0 0 1-.855 2.007 1.6 1.6 0 0 1-1.648-.123L5.72 68.393a6 6 0 0 1-1.822-2.082 5.9 5.9 0 0 1-.683-2.676V57l44.888 25.785c.04.73.252 1.438.618 2.07a4.65 4.65 0 0 0 1.493 1.567c1.164.666 2.112.122 2.112-1.217M67.128 99.06v-.819a1.84 1.84 0 0 0-.778-1.473l-2.588-1.485c-.428-.25-.778.015-.778.581v.816a1.84 1.84 0 0 0 .778 1.476l2.588 1.486c.427.249.775-.013.775-.582zM15.466 69.084c.067-.01.067-.122 0-.21l-1.998-2.59c-.074-.092-.168-.083-.168.009v2.886c0 .097.092.21.168.198zm-5.762-3.416a2.86 2.86 0 0 0-1.307-2.252c-.722-.415-1.307-.083-1.307.748a2.86 2.86 0 0 0 1.307 2.252c.718.415 1.303.08 1.303-.748z"/><path fill="#fff" d="M52.324 85.205c0 1.339-.947 1.884-2.111 1.214a4.65 4.65 0 0 1-1.493-1.567 4.6 4.6 0 0 1-.618-2.07c0-1.339.946-1.884 2.11-1.214a4.65 4.65 0 0 1 1.493 1.567c.367.632.579 1.341.619 2.07"/><path fill="#005bea" d="M37.535 36.554c7.12 4.088 12.887 14.03 12.887 22.206s-5.767 11.49-12.887 7.402S24.65 52.132 24.65 43.956s5.768-11.486 12.885-7.402m6.155 18.821c.31-.046.31-.56 0-.959L34.518 42.53c-.327-.423-.751-.399-.751.048v13.23c0 .444.425.961.751.913z"/><path fill="#fff" d="M43.691 54.415c.31.398.31.913 0 .958l-9.172 1.345c-.327.05-.751-.468-.751-.914V42.578c0-.447.425-.472.751-.049z"/><path fill="#005bea" d="M15.463 68.874c.068.089.068.201 0 .21l-1.997.293c-.074.013-.167-.1-.167-.198v-2.886c0-.095.09-.1.167-.009zm-7.071-5.458a2.88 2.88 0 0 1 1.306 2.252c0 .83-.585 1.163-1.306.747a2.87 2.87 0 0 1-1.306-2.252c0-.826.584-1.161 1.306-.747"/><path fill="#005bea" d="M70.353 105.954a2.74 2.74 0 0 1-1.346-.392L5.361 69.002a6.65 6.65 0 0 1-2.082-2.339 6.6 6.6 0 0 1-.775-3.028V8.763A2.83 2.83 0 0 1 3.78 6.105a2.31 2.31 0 0 1 2.289.16l63.644 36.554a6.66 6.66 0 0 1 2.081 2.341 6.6 6.6 0 0 1 .775 3.029v54.873a2.88 2.88 0 0 1-1.207 2.613 1.97 1.97 0 0 1-1.008.279M4.724 7.283a.6.6 0 0 0-.275.064 1.6 1.6 0 0 0-.53 1.413v54.873a5.28 5.28 0 0 0 2.149 4.148l63.645 36.558a1 1 0 0 0 .93.126l.01-.006a1.62 1.62 0 0 0 .5-1.395v-54.87a5.26 5.26 0 0 0-.588-2.326 5.3 5.3 0 0 0-1.561-1.828L5.36 7.486a1.4 1.4 0 0 0-.636-.203"/><path fill="#005bea" d="M43.293 68.624a12.46 12.46 0 0 1-6.111-1.85c-7.3-4.195-13.239-14.429-13.239-22.816 0-4.217 1.467-7.382 4.129-8.911 2.662-1.53 6.148-1.21 9.817.898 7.3 4.192 13.24 14.427 13.24 22.815 0 4.217-1.465 7.38-4.127 8.91a7.35 7.35 0 0 1-3.709.954m-11.51-33.12a5.95 5.95 0 0 0-3.006.762c-2.205 1.267-3.423 3.999-3.423 7.692 0 7.939 5.62 17.627 12.53 21.6 3.216 1.846 6.203 2.16 8.406.898s3.424-3.999 3.424-7.692c0-7.94-5.622-17.628-12.533-21.6a11.06 11.06 0 0 0-5.397-1.66"/><path fill="#005bea" d="M34.476 57.428a1.23 1.23 0 0 1-.793-.318 1.8 1.8 0 0 1-.623-1.302V42.58a1.004 1.004 0 0 1 .668-1.003 1.24 1.24 0 0 1 1.356.526l9.173 11.887a1.56 1.56 0 0 1 .295 1.486.95.95 0 0 1-.751.597l-9.175 1.346q-.075.01-.15.01m-.001-13.8v12.18a.4.4 0 0 0 .091.195l8.497-1.246zM48.1 83.488a.7.7 0 0 1-.353-.095L2.86 57.607a.704.704 0 0 1 .707-1.218l44.889 25.785a.705.705 0 0 1 .33.792.7.7 0 0 1-.684.522m23.76 13.645a.7.7 0 0 1-.353-.095l-19.54-11.224a.704.704 0 0 1 .707-1.218l19.54 11.223a.705.705 0 0 1 .33.792.704.704 0 0 1-.684.522"/><path fill="#005bea" d="M51.158 87.412a2.63 2.63 0 0 1-1.3-.379 5.36 5.36 0 0 1-1.75-1.826 5.3 5.3 0 0 1-.715-2.421 1.96 1.96 0 0 1 .97-1.974 1.99 1.99 0 0 1 2.204.146 5.36 5.36 0 0 1 1.75 1.826 5.3 5.3 0 0 1 .715 2.422 2.16 2.16 0 0 1-.973 1.97 1.8 1.8 0 0 1-.901.236m-1.886-5.424a.4.4 0 0 0-.198.046.87.87 0 0 0-.266.747c.038.606.216 1.194.52 1.72a3.94 3.94 0 0 0 1.234 1.309.615.615 0 0 0 1.05-.605 3.92 3.92 0 0 0-1.754-3.028 1.26 1.26 0 0 0-.586-.189m17.387 18.457a1.33 1.33 0 0 1-.663-.188l-2.589-1.486a2.56 2.56 0 0 1-1.13-2.086v-.815a1.36 1.36 0 0 1 .623-1.236 1.2 1.2 0 0 1 1.215.042l2.589 1.485a2.55 2.55 0 0 1 1.13 2.083v.82a1.35 1.35 0 0 1-.622 1.234 1.1 1.1 0 0 1-.553.147m-2.965-4.386v.627a1.2 1.2 0 0 0 .425.868l2.3 1.32v-.63a1.18 1.18 0 0 0-.423-.864zM13.455 70.082a.83.83 0 0 1-.531-.198.94.94 0 0 1-.334-.705v-2.883a.76.76 0 0 1 .512-.736.82.82 0 0 1 .912.285l2.005 2.603a.89.89 0 0 1 .137.873.75.75 0 0 1-.603.463l-1.987.292a1 1 0 0 1-.111.006m.552-1.938v.443l.306-.045zm-5.027-.843a1.9 1.9 0 0 1-.94-.27 3.53 3.53 0 0 1-1.66-2.862 1.48 1.48 0 0 1 .735-1.45 1.5 1.5 0 0 1 1.63.09 3.54 3.54 0 0 1 1.66 2.862 1.59 1.59 0 0 1-.735 1.45c-.21.12-.448.182-.69.18m-1.165-3.355q-.018.111-.022.222a2.15 2.15 0 0 0 .953 1.643.55.55 0 0 0 .222.083q.02-.11.022-.223a2.15 2.15 0 0 0-.951-1.642.5.5 0 0 0-.224-.082m11.125 9.118a.71.71 0 0 1-.708-.703v-2.768a.7.7 0 0 1 .437-.65.71.71 0 0 1 .924.381.7.7 0 0 1 .054.27v2.766a.703.703 0 0 1-.707.704m1.627.935a.71.71 0 0 1-.708-.704v-2.768a.7.7 0 0 1 .708-.704.71.71 0 0 1 .708.704v2.768a.7.7 0 0 1-.437.65.7.7 0 0 1-.271.053"/><path fill="#005bea" d="M71.008 105.779a.71.71 0 0 1-.683-.518.7.7 0 0 1 .322-.791l5.745-3.385a1.61 1.61 0 0 0 .508-1.4V44.811a5.3 5.3 0 0 0-.588-2.326 5.3 5.3 0 0 0-1.562-1.827L11.107 4.104a1 1 0 0 0-.936-.128l-5.742 3.38a.71.71 0 0 1-.97-.242.7.7 0 0 1 .242-.966l5.75-3.384a2.29 2.29 0 0 1 2.364.121l63.643 36.554a6.66 6.66 0 0 1 2.08 2.341 6.6 6.6 0 0 1 .776 3.029v54.873a2.88 2.88 0 0 1-1.201 2.612l-5.745 3.385a.7.7 0 0 1-.36.1"/></g><defs><clipPath id="a"><path fill="#fff" d="M0 0h81v108H0z"/></clipPath></defs></svg>