<svg xmlns="http://www.w3.org/2000/svg" width="158" height="78" fill="none" viewBox="0 0 158 78"><g clip-path="url(#a)"><path fill="#00204d" d="M0 54.536h4.823l2.319-5.75h17.113l2.273 5.75h4.823L18.18 23h-5.01zm11.687-17.02.788-2.04c1.345-3.34 2.505-6.122 3.2-8.21.742 2.088 1.9 4.87 3.247 8.21l.834 2.04zM44.243 55c5.983 0 10.713-3.293 12.2-9.229h-4.779c-1.02 3.246-3.664 5.055-7.235 5.055-4.916 0-7.977-3.478-7.977-8.533 0-4.823 2.876-8.534 7.93-8.534 3.618 0 6.169 1.67 7.235 5.427h4.777c-1.066-6.076-5.75-9.6-11.919-9.6-7.188 0-12.753 5.147-12.753 12.707C31.722 49.62 36.545 55 44.243 55m15.769-.464h4.637v-12.66c0-4.36 1.345-7.143 6.215-7.143h.695v-5.147h-.417a7.96 7.96 0 0 0-6.678 3.57l-.186-3.107h-4.266zM85.148 55c7.42 0 12.846-5.38 12.846-12.707a12.39 12.39 0 0 0-12.846-12.707c-7.235 0-12.848 5.194-12.848 12.707C72.3 49.62 77.727 55 85.148 55m16.278-.464h4.638v-14.1c0-3.989 2.55-6.632 6.678-6.632 3.8 0 5.38 2.18 5.38 6.168v14.564h4.637V39.093c0-6.076-3.246-9.507-9.043-9.507a10.3 10.3 0 0 0-7.838 3.014l-.324-2.55h-4.128zm46.562.464c2.969 0 5.287-.556 7.05-1.994a7.13 7.13 0 0 0 2.55-5.7 6.01 6.01 0 0 0-3.014-5.427 14.9 14.9 0 0 0-5.009-1.437 32 32 0 0 1-5.333-.974 2.446 2.446 0 0 1-1.855-2.505c0-2.086 1.809-3.617 4.869-3.617 2.876 0 5.1 1.391 5.38 4.22h4.406c-.278-5.333-4.081-7.976-9.786-7.976-5.24 0-9.321 2.736-9.321 7.93a5.465 5.465 0 0 0 3.107 5.287 19.2 19.2 0 0 0 5.519 1.438c1.559.173 3.096.5 4.591.974a2.48 2.48 0 0 1 1.9 2.643c0 2.272-2.179 3.386-5.055 3.386-3.478 0-5.843-1.3-6.307-4.267h-4.5c.466 5.793 4.826 8.019 10.808 8.019m-20.173-.464h4.591V30.05h-4.591zM85.2 50.826c-4.731 0-8.117-3.478-8.117-8.58 0-4.776 3.015-8.487 8.07-8.487 4.962 0 8.116 3.664 8.116 8.487 0 4.916-3.292 8.58-8.069 8.58M8.718 44.843l1.482-3.617h11.04l1.437 3.617z"/></g><defs><clipPath id="a"><path fill="#fff" d="M0 0h158v78H0z"/></clipPath></defs></svg>