<svg xmlns="http://www.w3.org/2000/svg" width="80" height="88" fill="none" viewBox="0 0 80 88"><path fill="#f1f4fb" fill-rule="evenodd" d="M9.196 29.175a7.108 7.108 0 1 0-.012-14.217 7.108 7.108 0 0 0 .012 14.217" clip-rule="evenodd"/><path fill="#1b69ff" fill-rule="evenodd" d="M9.198 15.58a6.49 6.49 0 1 0-.004 12.98 6.49 6.49 0 0 0 .004-12.98m0 14.22a7.732 7.732 0 1 1 0-15.464 7.732 7.732 0 0 1 0 15.464" clip-rule="evenodd"/><path fill="#fff" fill-rule="evenodd" d="M39.706 79.187A35.242 35.242 0 1 0 4.464 43.945a35.25 35.25 0 0 0 35.242 35.242" clip-rule="evenodd"/><path fill="#1b69ff" fill-rule="evenodd" d="M39.705 9.326a34.623 34.623 0 1 0 34.62 34.62 34.656 34.656 0 0 0-34.62-34.62m0 70.484a35.862 35.862 0 1 1 35.864-35.864A35.9 35.9 0 0 1 39.705 79.81" clip-rule="evenodd"/><path fill="#f1f4fb" fill-rule="evenodd" d="M55.147 28.244c7.167-.864 12.87-.506 16.717.81a9.76 9.76 0 0 1 4.838 3.2 6.02 6.02 0 0 1 1.033 5.044 13 13 0 0 1-2.867 5.476c-.016-.975-.106-1.961-.206-2.946.577-.89.99-1.875 1.222-2.91a4.31 4.31 0 0 0-.685-3.535 8.1 8.1 0 0 0-3.968-2.535c-3.584-1.233-8.986-1.555-15.837-.733-9.712 1.305-19.186 4-28.132 8-8.8 3.895-16.316 8.7-20.475 13.487a12.34 12.34 0 0 0-3.041 5.318 4.25 4.25 0 0 0 .7 3.53 8.07 8.07 0 0 0 3.953 2.536q.99.335 2.013.554a35 35 0 0 0 1.607 2.2 22 22 0 0 1-4.232-.96 9.84 9.84 0 0 1-4.86-3.2 6.16 6.16 0 0 1-1.032-5.043 14.1 14.1 0 0 1 3.462-6.172c4.353-5.007 12.116-9.982 21.139-13.982a104.2 104.2 0 0 1 28.65-8.14" clip-rule="evenodd"/><path fill="#1b69ff" fill-rule="evenodd" d="M55.215 28.86a103 103 0 0 0-28.48 8.096C17.418 41.093 9.986 46 5.823 50.775a13.5 13.5 0 0 0-3.32 5.893 5.5 5.5 0 0 0 .928 4.548 9.17 9.17 0 0 0 4.563 2.988q1.27.428 2.588.68c-.2-.258-.37-.522-.543-.785a18 18 0 0 1-1.84-.521 8.63 8.63 0 0 1-4.248-2.751 4.83 4.83 0 0 1-.8-4.026 13 13 0 0 1 3.162-5.6c4.1-4.7 11.437-9.545 20.686-13.65 9-4.028 18.534-6.737 28.307-8.042 6.746-.817 12.327-.548 16.138.759a8.6 8.6 0 0 1 4.248 2.75 4.83 4.83 0 0 1 .806 4.027 9.7 9.7 0 0 1-1.207 2.93c.052.353.084.706.105 1.059a11.1 11.1 0 0 0 1.75-3.852 5.51 5.51 0 0 0-.933-4.554 9.2 9.2 0 0 0-4.56-2.988c-3.9-1.334-9.58-1.607-16.437-.78zm-43.2 37.51a.3.3 0 0 1-.09-.011 22.5 22.5 0 0 1-4.337-.986 10.5 10.5 0 0 1-5.155-3.42 6.6 6.6 0 0 1-1.138-5.54 14.9 14.9 0 0 1 3.584-6.45c4.284-4.912 11.853-9.934 21.365-14.14a104.3 104.3 0 0 1 28.828-8.2c7.03-.85 12.907-.553 16.981.844a10.5 10.5 0 0 1 5.159 3.42 6.63 6.63 0 0 1 1.133 5.539 13.8 13.8 0 0 1-2.988 5.734.618.618 0 0 1-1.1-.37c-.036-.921-.1-1.9-.21-2.892a.63.63 0 0 1 .089-.39 8.8 8.8 0 0 0 1.154-2.715 3.71 3.71 0 0 0-.6-3.036 7.4 7.4 0 0 0-3.653-2.323c-3.636-1.244-9.023-1.492-15.579-.7A101.5 101.5 0 0 0 27.5 38.682c-9.091 4.032-16.274 8.765-20.264 13.335a11.8 11.8 0 0 0-2.883 5.033 3.62 3.62 0 0 0 .6 3.036 7.3 7.3 0 0 0 3.652 2.319q.946.324 1.923.533a.65.65 0 0 1 .385.258c.505.743 1.033 1.47 1.59 2.166a.64.64 0 0 1 .054.69.62.62 0 0 1-.542.318" clip-rule="evenodd"/><path fill="#f1f4fb" fill-rule="evenodd" d="M38.904 6.777c1.729-2.93 3.447-4.78 5.039-5.607a3.94 3.94 0 0 1 3.81-.106 6.88 6.88 0 0 1 2.778 3.267 25.6 25.6 0 0 1 1.924 6.747 42 42 0 0 0-2.045-.723 22.3 22.3 0 0 0-1.57-5.2 5.2 5.2 0 0 0-1.96-2.414 2.16 2.16 0 0 0-2.066.111c-1.291.67-2.74 2.277-4.3 4.885-3.426 5.756-6.535 15.052-8.8 25.44a155.8 155.8 0 0 0-3.667 31.942c0 8.311.943 14.3 2.535 17.609a5.2 5.2 0 0 0 1.955 2.409 2.16 2.16 0 0 0 2.066-.112c1.29-.663 2.725-2.272 4.3-4.886.174-.304.369-.626.543-.959h.258c.654 0 1.28-.016 1.908-.052q-.524 1.05-1.1 1.977c-1.728 2.935-3.441 4.78-5.048 5.608a3.93 3.93 0 0 1-3.795.11 6.9 6.9 0 0 1-2.783-3.272c-1.713-3.552-2.746-9.835-2.746-18.43a158.2 158.2 0 0 1 3.726-32.344c2.293-10.556 5.49-20.056 9.038-26" clip-rule="evenodd"/><path fill="#1b69ff" fill-rule="evenodd" d="M46.004 1.245a3.8 3.8 0 0 0-1.766.479c-1.539.8-3.168 2.6-4.812 5.37-3.389 5.7-6.572 14.867-8.949 25.819a156.2 156.2 0 0 0-3.7 32.212c0 8.142.943 14.588 2.672 18.161a6.26 6.26 0 0 0 2.519 2.989 3.28 3.28 0 0 0 3.215-.106c1.54-.8 3.168-2.6 4.811-5.376.19-.321.385-.653.575-1-.263.005-.506.011-.754.011-.12.221-.258.443-.385.653-1.586 2.661-3.109 4.385-4.543 5.123a2.7 2.7 0 0 1-2.619.106 5.75 5.75 0 0 1-2.24-2.688c-1.7-3.531-2.588-9.713-2.588-17.877a155.7 155.7 0 0 1 3.668-32.075c2.382-10.9 5.544-20.006 8.885-25.624 1.57-2.651 3.11-4.375 4.544-5.117a2.73 2.73 0 0 1 2.624-.111 5.76 5.76 0 0 1 2.235 2.688 22.6 22.6 0 0 1 1.56 5c.226.079.474.158.7.243a23 23 0 0 0-1.675-5.523 6.23 6.23 0 0 0-2.519-2.988 3.04 3.04 0 0 0-1.449-.369zM33.417 87.887a4.3 4.3 0 0 1-2.024-.511 7.4 7.4 0 0 1-3.062-3.552c-1.834-3.789-2.8-10.256-2.8-18.7a158.3 158.3 0 0 1 3.726-32.476c2.414-11.078 5.645-20.38 9.107-26.188 1.766-2.967 3.553-4.933 5.3-5.839A4.52 4.52 0 0 1 48.038.51a7.46 7.46 0 0 1 3.057 3.552c.98 2.2 1.645 4.528 1.976 6.914a.627.627 0 0 1-.838.68c-.664-.258-1.328-.5-2.007-.712a.61.61 0 0 1-.422-.474 21.4 21.4 0 0 0-1.523-5.043 4.6 4.6 0 0 0-1.7-2.134 1.55 1.55 0 0 0-1.486.11c-1.207.628-2.6 2.235-4.037 4.654-3.283 5.512-6.382 14.477-8.727 25.255a154.7 154.7 0 0 0-3.668 31.811c0 7.864.891 14.025 2.482 17.339a4.65 4.65 0 0 0 1.7 2.13 1.54 1.54 0 0 0 1.487-.111c1.186-.622 2.6-2.235 4.037-4.654.174-.3.37-.617.543-.943a.62.62 0 0 1 .543-.316h.258c.633 0 1.265-.021 1.876-.052a.624.624 0 0 1 .591.906 40 40 0 0 1-1.118 2c-1.765 2.973-3.546 4.938-5.3 5.84a5.1 5.1 0 0 1-2.345.625" clip-rule="evenodd"/><path fill="#1b69ff" fill-rule="evenodd" d="M11.352 72.52a13.6 13.6 0 0 0 5.365 5.276c3.8 2.066 8.721 2.377 14.13.907a35 35 0 0 1-1.276-.36c-4.79 1.1-9.149.713-12.538-1.126a13.2 13.2 0 0 1-5.144-5.064 20.96 20.96 0 0 1-2.46-10.541c0-8.116 3.162-17.577 8.917-26.641S31.734 18.313 39.868 13.62c8.548-4.934 16.87-6.013 22.52-2.952a13.25 13.25 0 0 1 5.138 5.065 19.86 19.86 0 0 1 2.41 8.917c.248.38.473.759.7 1.144a20.94 20.94 0 0 0-2.551-10.383 13.63 13.63 0 0 0-5.385-5.317c-5.84-3.173-14.373-2.1-23.147 2.962l-.053.02c-8.2 4.75-15.911 12.4-21.72 21.545-5.8 9.17-9 18.757-9 26.995a21.54 21.54 0 0 0 2.555 10.865.04.04 0 0 0 .02.042zm13.075 8.338a17.26 17.26 0 0 1-8.305-1.971A14.96 14.96 0 0 1 10.25 73.1c0-.016-.017-.027-.017-.042A22.8 22.8 0 0 1 7.542 61.61c0-8.47 3.267-18.293 9.19-27.658 5.93-9.328 13.8-17.133 22.188-21.977.021-.005.038-.016.038-.021 9.159-5.27 18.113-6.335 24.336-2.956a14.97 14.97 0 0 1 5.876 5.786 22.76 22.76 0 0 1 2.71 11.484q0 .94-.054 1.9a.619.619 0 0 1-1.17.242 34 34 0 0 0-1.855-3.231.6.6 0 0 1-.089-.305 18.9 18.9 0 0 0-2.255-8.528 11.86 11.86 0 0 0-4.664-4.59c-5.25-2.851-13.15-1.771-21.3 2.935-7.975 4.6-15.458 12.038-21.1 20.944-5.634 8.87-8.728 18.094-8.728 25.977a19.67 19.67 0 0 0 2.294 9.923 11.8 11.8 0 0 0 4.668 4.59c3.147 1.713 7.252 2.05 11.816.98a.54.54 0 0 1 .316.01 34 34 0 0 0 3.621.87.614.614 0 0 1 .506.559.64.64 0 0 1-.42.638 27.4 27.4 0 0 1-9.04 1.678z" clip-rule="evenodd"/><path fill="#f1f4fb" fill-rule="evenodd" d="M63.942 18.636a7.265 7.265 0 1 0 .016-14.53 7.265 7.265 0 0 0-.016 14.53" clip-rule="evenodd"/><path fill="#1b69ff" fill-rule="evenodd" d="M63.944 4.722a6.646 6.646 0 1 0 6.64 6.645 6.66 6.66 0 0 0-6.64-6.645m0 14.53a7.884 7.884 0 1 1 7.884-7.885 7.9 7.9 0 0 1-7.884 7.885M48.553 78.707c5.424 1.476 10.335 1.16 14.146-.907a13.64 13.64 0 0 0 5.37-5.28c0-.01.015-.022.015-.038a21.5 21.5 0 0 0 2.551-10.867c0-8.232-3.2-17.825-9-26.995-5.807-9.149-13.518-16.8-21.734-21.544 0-.005-.016-.015-.03-.02-8.766-5.066-17.3-6.14-23.153-2.963a13.66 13.66 0 0 0-5 4.664q.315.11.632.242a12.86 12.86 0 0 1 4.686-4.332c5.644-3.062 13.971-1.982 22.52 2.952 8.125 4.7 15.767 12.28 21.522 21.355s8.918 18.53 8.918 26.641a21 21 0 0 1-2.466 10.541 13.2 13.2 0 0 1-5.139 5.064c-3.394 1.84-7.748 2.23-12.538 1.127-.42.126-.859.25-1.3.36m6.436 2.156a27.4 27.4 0 0 1-9.039-1.676.64.64 0 0 1-.422-.632.626.626 0 0 1 .513-.564 34 34 0 0 0 3.614-.87.6.6 0 0 1 .316-.01c4.564 1.07 8.67.732 11.82-.98a11.8 11.8 0 0 0 4.665-4.59 19.66 19.66 0 0 0 2.293-9.924c0-7.884-3.095-17.107-8.723-25.977-5.65-8.912-13.149-16.348-21.107-20.944-8.143-4.706-16.048-5.787-21.292-2.935a11.8 11.8 0 0 0-4.533 4.364.616.616 0 0 1-.822.227 6.1 6.1 0 0 0-1.639-.61.59.59 0 0 1-.42-.354.56.56 0 0 1 .02-.548 14.9 14.9 0 0 1 5.887-5.834c6.24-3.378 15.178-2.314 24.338 2.956 0 .005.021.016.037.021 8.39 4.85 16.26 12.654 22.188 21.977 5.924 9.371 9.2 19.19 9.2 27.658A22.8 22.8 0 0 1 69.19 73.07c0 .01-.016.021-.016.037a15 15 0 0 1-5.876 5.787 17.25 17.25 0 0 1-8.31 1.97" clip-rule="evenodd"/><path fill="#1b69ff" fill-rule="evenodd" d="M3.273 37.287c-.016.01-.016.026-.037.037a12 12 0 0 0 0 13.244c1.908 3.067 5.054 5.792 9.338 8.095 7.257 3.895 16.892 6.04 27.13 6.04 10.24 0 19.886-2.145 27.138-6.04 4.268-2.3 7.4-5.007 9.3-8.058a.04.04 0 0 0 .022-.042 11.925 11.925 0 0 0 0-13.245 16 16 0 0 0-1.713-2.293c.137.548.258 1.107.38 1.66q.346.461.632.928c0 .016.016.032.016.048a11.8 11.8 0 0 1 1.89 6.282 11.95 11.95 0 0 1-1.906 6.33 23.4 23.4 0 0 1-9.108 7.863c-7.12 3.81-16.58 5.908-26.652 5.908s-19.547-2.1-26.662-5.908c-.016-.011-.016-.016-.032-.021a23.4 23.4 0 0 1-9.06-7.842 11.48 11.48 0 0 1 0-12.654c.2-.316.407-.622.633-.932.105-.554.243-1.112.385-1.666-.63.705-1.2 1.463-1.7 2.266zm36.433 28.655c-10.435 0-20.28-2.2-27.71-6.187-4.49-2.408-7.78-5.275-9.808-8.532a13.18 13.18 0 0 1-.016-14.515c0-.01.016-.026.016-.036a20.6 20.6 0 0 1 3.658-4.284.62.62 0 0 1 .748-.058.64.64 0 0 1 .248.717c-.442 1.316-.8 2.66-1.07 4.022a.6.6 0 0 1-.1.247c-.243.316-.453.638-.665.959a10.255 10.255 0 0 0 0 11.347 22.15 22.15 0 0 0 8.554 7.384l.053.02c6.94 3.727 16.206 5.777 26.1 5.777s19.168-2.05 26.109-5.776a.2.2 0 0 1 .053-.026 22.1 22.1 0 0 0 8.549-7.38 10.255 10.255 0 0 0 0-11.346c-.016-.016-.037-.031-.037-.047q-.286-.46-.627-.917a.6.6 0 0 1-.106-.242 34 34 0 0 0-1.064-4.022.625.625 0 0 1 .242-.712.62.62 0 0 1 .754.058 20 20 0 0 1 3.636 4.279 13.54 13.54 0 0 1 2.2 7.273 13.7 13.7 0 0 1-2.166 7.236c0 .016-.021.026-.021.042-2.03 3.257-5.333 6.124-9.808 8.532-7.437 3.989-17.281 6.187-27.722 6.187" clip-rule="evenodd"/><path fill="#1b69ff" fill-rule="evenodd" d="M47.015 72.008a8.053 8.053 0 1 0-7.446-4.97 8.05 8.05 0 0 0 7.446 4.97" clip-rule="evenodd"/><path fill="#1b69ff" fill-rule="evenodd" d="M47.015 56.52a7.433 7.433 0 1 0 7.43 7.435 7.447 7.447 0 0 0-7.43-7.436m0 16.105a8.672 8.672 0 1 1 .006-17.344 8.672 8.672 0 0 1-.006 17.344" clip-rule="evenodd"/></svg>