<svg xmlns="http://www.w3.org/2000/svg" width="109" height="78" fill="none" viewBox="0 0 109 78"><path fill="#fff" fill-rule="evenodd" d="M.972 17.945 30.96.636a1.04 1.04 0 0 1 1.017.1l26.846 15.5c.425.268.775.64 1.017 1.082l-29.99 17.3a3.2 3.2 0 0 0-.97-1.081l-26.892-15.5a1.01 1.01 0 0 0-1.016-.092" clip-rule="evenodd"/><path fill="#005bea" fill-rule="evenodd" d="M59.052 17.145 30.034 33.904a3.7 3.7 0 0 0-.878-.818L2.495 17.7l28.74-16.593c.092-.041.185-.05.509.116l26.8 15.483q.284.185.508.439m-29.2 18.026a.6.6 0 0 0 .277-.074l29.989-17.3a.57.57 0 0 0 .277-.337.66.66 0 0 0-.092-.416 3.1 3.1 0 0 0-1.2-1.257L32.257.276a1.57 1.57 0 0 0-1.525-.12L.698 17.479a.549.549 0 0 0 .114.979c.13.044.27.038.395-.018.138-.065.23-.074.554.088L28.6 34.016c.342.22.614.532.787.9a.59.59 0 0 0 .46.255z" clip-rule="evenodd"/><path fill="#fff" fill-rule="evenodd" d="M.557 18.88a.98.98 0 0 1 .416-.938 1 1 0 0 1 1.017.1l26.893 15.5c.411.27.745.643.97 1.081.278.427.438.92.463 1.428v9.172a1.01 1.01 0 0 1-.463.938.93.93 0 0 1-.97-.1L1.99 30.561a3.36 3.36 0 0 1-1.017-1.086 2.8 2.8 0 0 1-.416-1.428z" clip-rule="evenodd"/><path fill="#005bea" fill-rule="evenodd" d="M1.34 18.392c.133.006.26.05.37.125l26.891 15.5c.337.219.608.524.786.883a2.4 2.4 0 0 1 .37 1.16v9.172a.65.65 0 0 1-.139.467c-.092.042-.23.042-.508-.1L2.264 30.1a2.75 2.75 0 0 1-.832-.883 2.3 2.3 0 0 1-.323-1.16v-9.174c0-.282.046-.425.138-.467.046-.019.046-.028.093-.028zm28.14 28.422c.227.002.45-.057.647-.17a1.54 1.54 0 0 0 .74-1.41v-9.172a3.5 3.5 0 0 0-.508-1.7 3.67 3.67 0 0 0-1.248-1.284l-26.846-15.5a1.56 1.56 0 0 0-1.57-.1A1.61 1.61 0 0 0 0 18.888v9.172a3.84 3.84 0 0 0 1.71 2.98l26.891 15.5c.262.17.566.264.878.27z" clip-rule="evenodd"/><path fill="#f2f5fc" fill-rule="evenodd" d="m29.849 34.624 29.989-17.3c.273.426.418.922.416 1.428v9.172a.95.95 0 0 1-.416.938l-29.99 17.3a1.08 1.08 0 0 0 .464-.938v-9.172a3.16 3.16 0 0 0-.463-1.428" clip-rule="evenodd"/><path fill="#005bea" fill-rule="evenodd" d="M59.607 18.086q.108.337.139.688v9.15c-.047.332-.093.4-.232.49L30.867 44.985v-8.922a4.3 4.3 0 0 0-.277-1.215l29.018-16.754zM29.85 46.711a.6.6 0 0 0 .277-.074l29.989-17.3a1.49 1.49 0 0 0 .693-1.386v-9.2a3.3 3.3 0 0 0-.462-1.69.59.59 0 0 0-.37-.264.53.53 0 0 0-.415.055l-29.942 17.3a.53.53 0 0 0-.231.726c.222.363.35.776.37 1.2v9.15a.53.53 0 0 1-.185.494.576.576 0 0 0-.185.734.67.67 0 0 0 .46.258z" clip-rule="evenodd"/><path fill="#1b69ff" d="M27.623.27c-1.513-.9-2.562.485-2.378 3.087.2 2.616 1.6 5.5 3.112 6.424.013 0 .014.014.028.013 1.5.88 2.546-.484 2.362-3.1-.2-2.616-1.6-5.5-3.111-6.424 0 .015 0 0-.014 0M28.555 11.318c-2.57-1.525-4.387.63-4.064 4.83a.88.88 0 0 0 .294.586l8.61 5.215c.15.084.252-.031.228-.261l-.033-.432a16.37 16.37 0 0 0-2.235-6.866 9 9 0 0 0-2.757-3.045h-.016c0-.015-.015-.014-.028-.03"/><path fill="#fff" fill-rule="evenodd" d="m48.168 28.406 29.988-17.31a1.04 1.04 0 0 1 1.017.1l26.846 15.5c.425.27.776.642 1.017 1.083l-29.989 17.3a3.2 3.2 0 0 0-.97-1.081l-26.893-15.5a1.01 1.01 0 0 0-1.016-.092" clip-rule="evenodd"/><path fill="#005bea" fill-rule="evenodd" d="M106.248 27.606 77.23 44.364a3.7 3.7 0 0 0-.878-.817L49.692 28.16l28.74-16.593c.091-.041.184-.05.508.116l26.8 15.484q.285.184.508.438m-29.2 18.026a.57.57 0 0 0 .277-.075l29.989-17.3a.57.57 0 0 0 .277-.337.66.66 0 0 0-.092-.416 3.1 3.1 0 0 0-1.2-1.257l-26.846-15.51a1.57 1.57 0 0 0-1.525-.12L47.894 27.938a.549.549 0 0 0 .114.98c.13.044.27.038.395-.018.138-.066.23-.075.554.087l26.841 15.489c.341.22.614.532.786.9a.59.59 0 0 0 .461.255z" clip-rule="evenodd"/><path fill="#fff" fill-rule="evenodd" d="M47.753 29.345a.98.98 0 0 1 .416-.938 1 1 0 0 1 1.017.1l26.893 15.5c.411.27.746.643.97 1.081.278.426.438.92.463 1.428v9.172a1.01 1.01 0 0 1-.463.938.93.93 0 0 1-.97-.1l-26.893-15.5a3.4 3.4 0 0 1-1.017-1.086 2.8 2.8 0 0 1-.416-1.428z" clip-rule="evenodd"/><path fill="#005bea" fill-rule="evenodd" d="M48.537 28.853c.132.006.26.05.369.125l26.892 15.5c.336.219.607.524.786.883a2.4 2.4 0 0 1 .37 1.16v9.172a.65.65 0 0 1-.14.467c-.091.042-.23.042-.507-.1L49.46 40.56a2.75 2.75 0 0 1-.832-.883 2.3 2.3 0 0 1-.323-1.16v-9.174c0-.282.046-.425.138-.467.046-.019.046-.028.093-.028zm28.14 28.422c.227.002.45-.057.647-.17a1.54 1.54 0 0 0 .74-1.41v-9.172a3.5 3.5 0 0 0-.508-1.7 3.67 3.67 0 0 0-1.248-1.284L49.46 28.04a1.56 1.56 0 0 0-1.57-.1 1.61 1.61 0 0 0-.693 1.41v9.172a3.84 3.84 0 0 0 1.709 2.98l26.892 15.5c.261.17.565.264.878.27z" clip-rule="evenodd"/><path fill="#f2f5fc" fill-rule="evenodd" d="m77.045 45.085 29.989-17.3c.274.426.418.922.416 1.428v9.172a.95.95 0 0 1-.416.938l-29.99 17.3a1.08 1.08 0 0 0 .464-.938v-9.172a3.16 3.16 0 0 0-.463-1.428" clip-rule="evenodd"/><path fill="#005bea" fill-rule="evenodd" d="M106.803 28.547q.108.337.139.688v9.15c-.047.332-.093.4-.232.49L78.063 55.446v-8.922a4.3 4.3 0 0 0-.277-1.215l29.018-16.754zM77.046 57.172a.57.57 0 0 0 .277-.074l29.989-17.3a1.49 1.49 0 0 0 .693-1.386v-9.2a3.27 3.27 0 0 0-.462-1.69.6.6 0 0 0-.369-.264.53.53 0 0 0-.416.055l-29.942 17.3a.53.53 0 0 0-.23.726c.222.363.349.775.37 1.2v9.15a.54.54 0 0 1-.186.494.576.576 0 0 0-.185.734.67.67 0 0 0 .461.258z" clip-rule="evenodd"/><path fill="#fff" fill-rule="evenodd" d="m14.584 48.168 29.988-17.31a1.04 1.04 0 0 1 1.017.1l26.846 15.5c.425.269.776.641 1.017 1.083l-29.989 17.3a3.2 3.2 0 0 0-.97-1.081L15.6 48.26a1.01 1.01 0 0 0-1.016-.092" clip-rule="evenodd"/><path fill="#005bea" fill-rule="evenodd" d="m72.664 47.367-29.018 16.76a3.7 3.7 0 0 0-.878-.819l-26.66-15.386 28.74-16.593c.091-.04.184-.05.508.116l26.8 15.484q.285.185.508.438m-29.2 18.026a.57.57 0 0 0 .277-.074l29.99-17.3a.57.57 0 0 0 .276-.337.66.66 0 0 0-.092-.416 3.1 3.1 0 0 0-1.2-1.257L45.87 30.5a1.57 1.57 0 0 0-1.525-.12L14.31 47.7a.549.549 0 0 0 .114.98c.13.044.27.037.395-.019.138-.065.23-.074.554.088l26.841 15.488c.341.22.614.532.786.9a.59.59 0 0 0 .461.255z" clip-rule="evenodd"/><path fill="#fff" fill-rule="evenodd" d="M14.169 49.107a.98.98 0 0 1 .416-.938 1 1 0 0 1 1.017.1l26.893 15.5c.411.27.746.642.97 1.08.278.427.438.92.463 1.429v9.172a1.01 1.01 0 0 1-.463.938.93.93 0 0 1-.97-.1l-26.893-15.5a3.36 3.36 0 0 1-1.017-1.086 2.8 2.8 0 0 1-.416-1.428z" clip-rule="evenodd"/><path fill="#005bea" fill-rule="evenodd" d="M14.953 48.615c.132.005.26.049.369.125l26.892 15.5c.336.219.607.524.786.883a2.4 2.4 0 0 1 .37 1.16v9.172a.65.65 0 0 1-.14.467c-.091.042-.23.042-.508-.1l-26.845-15.5a2.75 2.75 0 0 1-.833-.883 2.3 2.3 0 0 1-.322-1.16v-9.174c0-.282.046-.425.138-.467.046-.019.046-.028.093-.028zm28.14 28.422c.227.002.45-.057.647-.171a1.54 1.54 0 0 0 .74-1.409v-9.172a3.5 3.5 0 0 0-.508-1.7 3.67 3.67 0 0 0-1.248-1.284l-26.846-15.5a1.56 1.56 0 0 0-1.571-.1 1.61 1.61 0 0 0-.693 1.41v9.172a3.84 3.84 0 0 0 1.709 2.98l26.892 15.5c.261.17.565.264.878.27z" clip-rule="evenodd"/><path fill="#f2f5fc" fill-rule="evenodd" d="m43.46 64.847 29.99-17.3c.274.426.418.922.416 1.428v9.172a.95.95 0 0 1-.416.938l-29.99 17.3a1.07 1.07 0 0 0 .464-.938v-9.172a3.16 3.16 0 0 0-.463-1.428" clip-rule="evenodd"/><path fill="#005bea" fill-rule="evenodd" d="M73.22 48.309q.107.336.138.688v9.149c-.047.333-.093.4-.232.49L44.48 75.209v-8.922a4.3 4.3 0 0 0-.277-1.215L73.22 48.318zM43.461 76.934a.57.57 0 0 0 .277-.074l29.99-17.3a1.49 1.49 0 0 0 .692-1.386v-9.2a3.3 3.3 0 0 0-.462-1.691.59.59 0 0 0-.369-.263.53.53 0 0 0-.416.055l-29.942 17.3a.53.53 0 0 0-.23.726c.222.362.349.775.37 1.2v9.149a.53.53 0 0 1-.186.495.576.576 0 0 0-.185.734.67.67 0 0 0 .461.258z" clip-rule="evenodd"/><path fill="#1b69ff" d="M41.194 30.497c-1.512-.9-2.561.484-2.377 3.086.2 2.616 1.6 5.5 3.11 6.424.014 0 .015.014.029.013 1.5.881 2.546-.484 2.362-3.1-.2-2.616-1.6-5.5-3.111-6.424 0 .015 0 .001-.013.001M42.127 41.544c-2.57-1.525-4.387.63-4.064 4.831a.88.88 0 0 0 .294.585l8.609 5.215c.15.084.253-.03.229-.26l-.033-.433a16.37 16.37 0 0 0-2.235-6.866 9 9 0 0 0-2.757-3.045h-.016c0-.015-.015-.014-.028-.029M75.194 10.736c-1.512-.9-2.561.484-2.377 3.086.2 2.616 1.6 5.5 3.11 6.424.014 0 .015.014.029.013 1.5.88 2.546-.484 2.362-3.1-.2-2.616-1.6-5.5-3.111-6.424 0 .015 0 0-.013 0M76.127 21.783c-2.57-1.525-4.387.63-4.064 4.83a.88.88 0 0 0 .294.586l8.609 5.215c.15.084.253-.031.229-.261l-.033-.432a16.37 16.37 0 0 0-2.235-6.866 9 9 0 0 0-2.757-3.045h-.016c0-.015-.015-.014-.028-.03"/></svg>