<svg xmlns="http://www.w3.org/2000/svg" width="75" height="78" fill="none" viewBox="0 0 75 78"><path fill="#fff" fill-rule="evenodd" d="m1.19 42.455 36.765-21.222a1.27 1.27 0 0 1 1.247.125l32.915 19.006c.521.33.95.786 1.246 1.326L36.596 62.905a4 4 0 0 0-1.188-1.325L2.435 42.573a1.24 1.24 0 0 0-1.247-.118" clip-rule="evenodd"/><path fill="#005bea" fill-rule="evenodd" d="M72.403 41.478 36.826 62.025a4.5 4.5 0 0 0-1.076-1L3.063 42.161 38.3 21.817c.113-.05.227-.062.623.142L71.78 40.942q.347.226.623.538zm-35.8 22.1c.119 0 .236-.032.34-.091l36.76-21.216a.7.7 0 0 0 .339-.414.8.8 0 0 0-.113-.51 3.8 3.8 0 0 0-1.473-1.541L39.543 20.793a1.92 1.92 0 0 0-1.87-.148L.85 41.884a.674.674 0 0 0 .14 1.2.66.66 0 0 0 .484-.022c.17-.08.283-.091.679.108l32.914 19c.417.27.751.65.963 1.1a.72.72 0 0 0 .566.307z" clip-rule="evenodd"/><path fill="#fff" fill-rule="evenodd" d="M.68 43.606a1.2 1.2 0 0 1 .51-1.15 1.23 1.23 0 0 1 1.246.118l32.97 19.007a3.5 3.5 0 0 1 1.19 1.325v.006c.341.523.537 1.127.567 1.75v11.245a1.23 1.23 0 0 1-.567 1.15 1.14 1.14 0 0 1-1.19-.119L2.437 57.932c-.51-.345-.935-.8-1.246-1.33a3.4 3.4 0 0 1-.51-1.752z" clip-rule="evenodd"/><path fill="#005bea" fill-rule="evenodd" d="M1.643 43.002c.162.006.32.06.453.153l32.97 19.006c.412.268.744.641.963 1.082.27.427.427.917.454 1.422V75.91a.8.8 0 0 1-.17.572c-.113.05-.283.05-.623-.12L2.775 57.362a3.4 3.4 0 0 1-1.02-1.082 2.85 2.85 0 0 1-.4-1.422v-11.25c0-.345.056-.521.17-.571.056-.023.056-.034.114-.034zm34.5 34.846c.278.002.552-.071.793-.21a1.89 1.89 0 0 0 .907-1.728V64.66a4.3 4.3 0 0 0-.623-2.084 4.5 4.5 0 0 0-1.53-1.574L2.777 41.996a1.91 1.91 0 0 0-1.926-.12A1.97 1.97 0 0 0 0 43.606V54.85a4.71 4.71 0 0 0 2.1 3.654L35.07 77.51c.32.21.691.327 1.073.338" clip-rule="evenodd"/><path fill="#f2f5fc" fill-rule="evenodd" d="m36.596 62.906 36.767-21.215c.335.523.512 1.13.51 1.751v11.245a1.16 1.16 0 0 1-.51 1.151L36.596 77.053a1.32 1.32 0 0 0 .567-1.15v-11.24a3.9 3.9 0 0 0-.567-1.75z" clip-rule="evenodd"/><path fill="#005bea" fill-rule="evenodd" d="M73.08 42.633q.13.413.17.843v11.217c-.058.407-.115.493-.285.6l-35.123 20.31v-10.94a5.3 5.3 0 0 0-.34-1.49zM36.595 77.727a.7.7 0 0 0 .34-.091L73.703 56.42a1.83 1.83 0 0 0 .85-1.7V43.448a4 4 0 0 0-.567-2.073.72.72 0 0 0-.453-.323.65.65 0 0 0-.51.068l-36.71 21.216a.647.647 0 0 0-.283.89 3.1 3.1 0 0 1 .454 1.466V75.91a.66.66 0 0 1-.227.606.706.706 0 0 0-.227.9.83.83 0 0 0 .566.31z" clip-rule="evenodd"/><path fill="#3199f0" fill-rule="evenodd" d="M8.894 57.404a.7.7 0 0 0 .34-.09.75.75 0 0 0 .34-.572v-3.671a.74.74 0 0 0-.34-.572l-3.229-1.835a.59.59 0 0 0-.624 0 .63.63 0 0 0-.339.578v3.665a.63.63 0 0 0 .34.578l3.172 1.83a.7.7 0 0 0 .34.089" clip-rule="evenodd"/><path fill="#1b69ff" fill-rule="evenodd" d="M33.933 69.094a.64.64 0 0 0 .567-.334.7.7 0 0 0-.227-.906L14.445 56.41a.67.67 0 0 0-.906.243.71.71 0 0 0 .227.912l19.828 11.438a.7.7 0 0 0 .339.09" clip-rule="evenodd"/><path fill="#1b69ff" d="M23.695 31.502V15.627l12.866-7.4v15.729c0 .16.012.137-.118.212l-12.642 7.274q-.052.029-.106.06M37.993 7.4 50.86 0v15.877l-.1.06-12.64 7.271c-.128.074-.117.085-.117-.077V7.541c-.009-.048-.009-.095-.009-.141M36.561 41.748l-12.866 7.4V33.269l.106-.06 12.638-7.27c.13-.075.118-.085.118.076v15.59zM50.863 17.645v15.88l-12.866 7.4V25.198c0-.16-.01-.14.118-.213l12.64-7.271z"/></svg>