<svg xmlns="http://www.w3.org/2000/svg" width="72" height="87" fill="none" viewBox="0 0 72 87"><path fill="#fff" fill-rule="evenodd" d="M35.861 78.562A35.241 35.241 0 1 0 .62 43.32a35.25 35.25 0 0 0 35.242 35.242" clip-rule="evenodd"/><path fill="#1b69ff" fill-rule="evenodd" d="M35.86 8.697a34.623 34.623 0 1 0 34.62 34.62 34.656 34.656 0 0 0-34.62-34.62m0 70.484a35.862 35.862 0 1 1 35.864-35.864A35.9 35.9 0 0 1 35.86 79.181" clip-rule="evenodd"/><path fill="#1b69ff" fill-rule="evenodd" d="M35.06 6.152c1.728-2.93 3.446-4.78 5.038-5.607a3.94 3.94 0 0 1 3.81-.106 6.88 6.88 0 0 1 2.778 3.267 25.6 25.6 0 0 1 1.924 6.747c-.679-.263-1.365-.5-2.045-.723a22.3 22.3 0 0 0-1.57-5.2 5.2 5.2 0 0 0-1.96-2.414 2.16 2.16 0 0 0-2.066.111c-1.291.67-2.74 2.277-4.3 4.885-3.426 5.756-6.535 15.052-8.8 25.44a155.8 155.8 0 0 0-3.667 31.942c0 8.311.943 14.3 2.535 17.609a5.2 5.2 0 0 0 1.955 2.409 2.16 2.16 0 0 0 2.066-.112c1.291-.663 2.725-2.272 4.3-4.886.174-.304.37-.626.543-.959h.258c.654 0 1.281-.016 1.908-.052q-.524 1.05-1.1 1.977c-1.728 2.935-3.441 4.78-5.048 5.608a3.93 3.93 0 0 1-3.795.11 6.9 6.9 0 0 1-2.783-3.272c-1.713-3.552-2.746-9.835-2.746-18.43a158.2 158.2 0 0 1 3.726-32.344c2.293-10.556 5.491-20.056 9.038-26" clip-rule="evenodd"/><path fill="#1b69ff" fill-rule="evenodd" d="M24.882 47.241a7.266 7.266 0 1 0 .015-14.531 7.266 7.266 0 0 0-.015 14.531" clip-rule="evenodd"/><path fill="#1b69ff" fill-rule="evenodd" d="M25.352 33.956a6.49 6.49 0 1 0-.004 12.98 6.49 6.49 0 0 0 .004-12.98m0 14.219a7.732 7.732 0 1 1 0-15.465 7.732 7.732 0 0 1 0 15.465" clip-rule="evenodd"/></svg>