<svg xmlns="http://www.w3.org/2000/svg" width="116" height="98" fill="none" viewBox="0 0 116 98"><path fill="#f2f5fc" d="M19.244 31.159a19.3 19.3 0 0 1 6.706-2.46c4.31-10.5 11.982-20.3 20.76-25.367 12.047-6.95 22.031-2.654 24.042 9.416a27 27 0 0 1 6.682-5.673c8.353-4.822 15.123-.92 15.123 8.709s-6.77 21.352-15.119 26.168l-5.745 3.318.542.31c.53.308.693 1.135.4 2.11a4.15 4.15 0 0 1-1.718 2.314l-4.624 2.67v19.374a4.1 4.1 0 0 1-1.86 3.222l-13.967 8.063c-1.029.6-1.86.117-1.86-1.071V62.888l-4.624 2.67c-.747.434-1.432.3-1.718-.334a3.04 3.04 0 0 1 .407-2.571l.542-.943-23.969 13.84C8.615 81.69-.003 76.726-.003 64.468s8.621-27.172 19.247-33.31"/><path fill="#fff" d="M40.745 44.061a19.3 19.3 0 0 1 6.708-2.46c4.308-10.5 11.98-20.3 20.757-25.367 12.05-6.95 22.032-2.654 24.044 9.415a27 27 0 0 1 6.682-5.674c8.353-4.82 15.124-.92 15.124 8.71s-6.77 21.351-15.12 26.168l-58.19 33.6c-10.63 6.14-19.247 1.176-19.247-11.083s8.618-27.174 19.242-33.309"/><path fill="#f2f5fc" d="M54.311 72.01c-.75.433-1.432.3-1.718-.338a3.04 3.04 0 0 1 .4-2.57l13.465-23.308c.726-1.255 1.91-1.935 2.633-1.52l13.465 7.758c.533.307.692 1.138.407 2.1a4.13 4.13 0 0 1-1.72 2.318l-4.62 2.666v8.618L58.936 77.949v-8.615z"/><path fill="#005bea" d="M32.145 92.17a18.56 18.56 0 0 0 9.146-2.785l58.19-33.6c8.633-4.981 15.656-17.138 15.656-27.1 0-5.054-1.761-8.855-4.959-10.7s-7.387-1.473-11.776 1.06a26.4 26.4 0 0 0-5.524 4.353c-1.274-4.88-3.994-8.493-7.8-10.288-4.825-2.28-11.006-1.5-17.406 2.193-8.548 4.936-16.36 14.378-20.985 25.336a20.8 20.8 0 0 0-6.48 2.49c-10.906 6.3-19.78 21.657-19.78 34.238 0 6.325 2.19 11.072 6.168 13.367a10.95 10.95 0 0 0 5.55 1.437m73.549-73.19a6.7 6.7 0 0 1 3.408.867c2.505 1.447 3.885 4.586 3.885 8.84 0 9.278-6.541 20.6-14.582 25.238l-58.19 33.6c-4.8 2.771-9.254 3.252-12.543 1.352-3.29-1.9-5.093-5.98-5.093-11.504 0-11.9 8.392-26.42 18.7-32.378a18.3 18.3 0 0 1 6.33-2.328 1.08 1.08 0 0 0 .835-.654c4.418-10.767 12.008-20.055 20.3-24.844 5.77-3.33 11.245-4.08 15.413-2.112 3.666 1.731 6.163 5.557 7.032 10.774a1.076 1.076 0 0 0 1.872.529 25.8 25.8 0 0 1 6.41-5.45 12.7 12.7 0 0 1 6.221-1.93z"/><path fill="#1b69ff" d="m64.174 75.554 13.464-23.308c.723-1.255 1.907-1.936 2.633-1.516l13.465 7.753c.53.306.692 1.133.4 2.108a4.15 4.15 0 0 1-1.718 2.314l-4.625 2.67V84.95a4.1 4.1 0 0 1-1.86 3.22l-13.969 8.064c-1.029.6-1.86.117-1.86-1.071V75.789l-4.624 2.67c-.749.433-1.432.3-1.718-.335a3.03 3.03 0 0 1 .412-2.57"/><path fill="#005bea" d="M71.13 97.566a2.77 2.77 0 0 0 1.377-.4l13.968-8.063a5.16 5.16 0 0 0 2.4-4.152V66.198l4.087-2.361a5.18 5.18 0 0 0 2.21-2.938c.435-1.466.084-2.78-.894-3.346L80.81 49.798a2.13 2.13 0 0 0-1.65-.181 4.34 4.34 0 0 0-2.452 2.093L63.246 75.016a4.02 4.02 0 0 0-.454 3.556 2.02 2.02 0 0 0 1.223 1.116 2.5 2.5 0 0 0 2.009-.3l3.01-1.74v17.51a2.36 2.36 0 0 0 1.083 2.138c.308.177.657.27 1.013.27m8.65-45.884h.01l13.41 7.733a2.1 2.1 0 0 1-.091.87 3.1 3.1 0 0 1-1.225 1.69l-4.623 2.67a1.07 1.07 0 0 0-.537.93V84.95a3.07 3.07 0 0 1-1.325 2.29l-13.967 8.063a.15.15 0 0 1-.154.12.15.15 0 0 1-.119-.066.15.15 0 0 1 .025-.194V75.79a1.074 1.074 0 0 0-1.613-.93l-4.624 2.67a1 1 0 0 1-.217.1 2.26 2.26 0 0 1 .373-1.527l13.465-23.322a2.07 2.07 0 0 1 1.213-1.1"/></svg>