<svg xmlns="http://www.w3.org/2000/svg" width="58" height="83" fill="none" viewBox="0 0 58 83"><path fill="#fff" d="m49.65.637 6.683 3.859a.94.94 0 0 1 .4.864v33.9c0 15.724-23.217 41.3-24.21 42.385a2.4 2.4 0 0 1-.533.438c-.16.1-.341.159-.53.174-.642.039-10.67.572-17.618-3.375v.005l-6.768-3.908A12.05 12.05 0 0 1 .56 63.969v-33.9a3.08 3.08 0 0 1 1.388-2.3c9.27-5.347 17.911-12.921 22.558-19.767.47-.691 1.125-1.066 1.6-.92 4.64 1.477 13.277-.923 22.62-6.32a.87.87 0 0 1 .933-.118z"/><path fill="#1b69ff" d="M1.938 27.762c9.27-5.348 17.91-12.922 22.558-19.768.47-.69 1.125-1.066 1.6-.92 4.639 1.477 13.277-.923 22.62-6.319a.86.86 0 0 1 .934-.119l6.682 3.86a.87.87 0 0 0-.924.122c-9.348 5.4-17.98 7.8-22.623 6.318-.472-.148-1.13.231-1.6.921-4.646 6.845-13.286 14.42-22.558 19.77a3.06 3.06 0 0 0-1.386 2.3v33.9a12.07 12.07 0 0 0 6.6 11.056h-.01l-6.766-3.907A12.05 12.05 0 0 1 .55 63.967V30.064a3.09 3.09 0 0 1 1.388-2.302"/><path fill="#005bea" d="M29.722 82.848c1.02 0 1.666-.036 1.768-.044a1.7 1.7 0 0 0 .777-.25 2.9 2.9 0 0 0 .657-.536c1-1.091 24.36-26.818 24.359-42.762v-33.9a1.48 1.48 0 0 0-.673-1.342L49.927.155l-.034-.018a1.41 1.41 0 0 0-1.48.157c-9.148 5.281-17.648 7.682-22.148 6.252a2.15 2.15 0 0 0-2.224 1.136c-4.605 6.783-13.181 14.294-22.378 19.6a3.62 3.62 0 0 0-1.665 2.777v33.905A12.54 12.54 0 0 0 6.75 75.428l.038.024 6.767 3.908a1 1 0 0 0 .083.039c5.449 3.064 12.755 3.449 16.083 3.449m19.68-81.717 6.655 3.843c.06.035.122.168.12.384v33.9c0 15.52-23.082 40.939-24.067 42.013q-.177.196-.4.333a.7.7 0 0 1-.286.1c-.425.026-10.472.583-17.313-3.3a1 1 0 0 0-.074-.036l-6.655-3.844-.04-.025a11.51 11.51 0 0 1-6.237-10.53v-33.9a2.55 2.55 0 0 1 1.114-1.824c9.33-5.384 18.044-13.022 22.736-19.934.364-.536.81-.755.977-.7 4.784 1.523 13.62-.917 23.06-6.368.2-.131.33-.15.376-.121z"/><path fill="#1b69ff" d="m31.986 52.227 15.006-26.2-2.03-1.168-12.977 22.7-8-4.61-2.03 3.51z"/></svg>