<svg xmlns="http://www.w3.org/2000/svg" width="61" height="109" fill="none" viewBox="0 0 61 109"><path fill="#1b69ff" fill-rule="evenodd" d="M36.393 1.756 6.67 18.903a11.01 11.01 0 0 0-5.008 8.716l-.041 73.879c.159 1.53.18 1.962 1.294 2.873l1.746 1c-.062-.355-.09-.744-.132-1.183l.021-74a12.71 12.71 0 0 1 5.787-10.073L39.28 3.421l-2.886-1.67zM6.921 108.432a.85.85 0 0 1-.411-.111l-4.521-2.616C.327 104.349.166 103.41 0 101.574l.028-74a12.71 12.71 0 0 1 5.787-10.072L35.976.102a.85.85 0 0 1 .835 0l4.521 2.609a.833.833 0 0 1 0 1.419L11.199 21.513a11 11 0 0 0-5.016 8.709l-.02 73.885c.138 1.531.188 1.961 1.273 2.873a.787.787 0 0 1 .159 1.091.83.83 0 0 1-.674.361" clip-rule="evenodd"/><path fill="#1b69ff" fill-rule="evenodd" d="M40.914 4.372 11.2 21.518a11.22 11.22 0 0 0-5.016 8.675l-.02 73.92a3.07 3.07 0 0 0 1.175 2.8 3.03 3.03 0 0 0 3-.375L54 81.364a11.32 11.32 0 0 0 5.008-8.681l.021-57.832L40.915 4.376zM8.332 108.8a3.6 3.6 0 0 1-1.823-.48c-1.294-.744-1.982-2.24-1.982-4.208l.021-73.92a12.88 12.88 0 0 1 5.835-10.094L40.496 2.715a.85.85 0 0 1 .835 0l18.92 10.95a.82.82 0 0 1 .417.707l-.02 58.3a12.9 12.9 0 0 1-5.843 10.093l-43.635 25.18a5.8 5.8 0 0 1-2.837.855" clip-rule="evenodd"/><path fill="#f2f5fc" fill-rule="evenodd" d="m6.413 25.906-2.369-1.367-2.152-1.242a10.7 10.7 0 0 0-1.056 4.278l-.02 73.92c.16 1.7.23 2.393 1.585 3.505l4.522 2.616c-1.357-1.113-1.426-1.808-1.586-3.506l.021-73.92a10.7 10.7 0 0 1 1.055-4.284" clip-rule="evenodd"/><path fill="#1b69ff" fill-rule="evenodd" d="M2.288 24.462a9.3 9.3 0 0 0-.626 3.15l-.041 73.879c.159 1.53.18 1.961 1.294 2.873l1.746 1c-.062-.355-.09-.744-.132-1.183l.021-74c.046-1.35.326-2.683.828-3.937L2.29 24.456zm4.633 83.964a.86.86 0 0 1-.411-.111l-4.521-2.616C.327 104.343.166 103.403 0 101.567l.028-74a11.1 11.1 0 0 1 1.127-4.632.8.8 0 0 1 .487-.425.78.78 0 0 1 .647.07l4.521 2.615a.82.82 0 0 1 .347 1.055 9.3 9.3 0 0 0-.974 3.967l-.02 73.886c.138 1.53.188 1.961 1.273 2.873a.78.78 0 0 1 .159 1.091.83.83 0 0 1-.674.364z" clip-rule="evenodd"/><path fill="#1b69ff" d="M48.093 58.128a1.9 1.9 0 0 0-.812 1.478v13.755L14.599 92.944V53.862c0-.547-.364-.773-.812-.5a1.9 1.9 0 0 0-.812 1.478v40.073c0 .548.364.774.812.5l34.306-20.557a1.9 1.9 0 0 0 .812-1.478V58.632c0-.542-.364-.769-.812-.504"/><path fill="#1b69ff" d="M56.111 28.996a1.36 1.36 0 0 1-.35-1.105c.068-1.871-.922-2.951-2.369-2.561a.83.83 0 0 1-.917-.263c-.8-1.02-2.291-.717-3.571.512v-9.693c0-.548-.364-.773-.812-.5L22.413 30.773a1.7 1.7 0 0 0-.574.635c-9.218 16.778-8.694 15.78-8.788 16.078-.21.673.024 1.179.5 1.072.178-.042-.292.217 8.863-5.268a1.9 1.9 0 0 0 .812-1.478v-3.95c0-.546-.364-.773-.812-.5a1.9 1.9 0 0 0-.812 1.479v2.958l-5.855 3.508 7-12.747 24.531-14.7v8.716c-1.3.294-2.787 1.777-3.592 3.74a3.9 3.9 0 0 1-.929 1.395 7.67 7.67 0 0 0-2.37 5.4 3.4 3.4 0 0 1-.33 1.47l-.053.127c-.907 1.968-.9 4 .033 4.85a1.38 1.38 0 0 1 .352 1.059c-.114 1.785.84 3.019 2.366 2.61a.82.82 0 0 1 .916.263c.595.756 1.6.819 2.691.166.9-.542 1.141-1.067 1.709-1.407s.8-.1 1.71-.642a6.3 6.3 0 0 0 1.893-1.886v7.789l-3.184.067c-.185-.021-.463.07-.844.51-.1.113-1.925 2.267-3.178 3.739v-4.318c0-.548-.364-.773-.812-.5a1.9 1.9 0 0 0-.812 1.478v5.882c0 .726.62.835 1.158.2 1.963-2.3 3.961-4.66 4.068-4.786l4.068-.086c.537-.011 1.159-.863 1.159-1.591V40.947l.09-.09a7.68 7.68 0 0 0 2.37-5.42 3.3 3.3 0 0 1 .35-1.5c.945-2.008.945-4.078.004-4.941m-8.509 24.758q-.096-.03 0 0m-26.05 28.459-3.1 1.855a1.9 1.9 0 0 0-.812 1.478c0 .548.364.774.812.505l3.1-1.854a7.24 7.24 0 0 0 3.1-5.635c0-2.084-1.39-2.948-3.1-1.925l-.812.487c-.812.486-1.472.076-1.472-.915a3.44 3.44 0 0 1 1.472-2.678l3.1-1.855a1.9 1.9 0 0 0 .812-1.478c0-.547-.364-.773-.812-.5l-3.1 1.855a7.24 7.24 0 0 0-3.1 5.635c0 2.083 1.389 2.947 3.1 1.924l.812-.486c.81-.487 1.472-.076 1.472.915a3.44 3.44 0 0 1-1.472 2.672m9.54-5.713-3.1 1.854a1.9 1.9 0 0 0-.812 1.478c0 .548.364.773.813.5l3.1-1.855a7.24 7.24 0 0 0 3.1-5.634c0-2.084-1.388-2.948-3.1-1.925l-.812.487c-.811.486-1.472.076-1.472-.915a3.44 3.44 0 0 1 1.472-2.678l3.1-1.855a1.9 1.9 0 0 0 .812-1.478c0-.547-.364-.773-.812-.5l-3.1 1.855a7.24 7.24 0 0 0-3.1 5.635c0 2.083 1.389 2.947 3.1 1.924l.812-.487c.81-.486 1.472-.076 1.472.915a3.44 3.44 0 0 1-1.473 2.678m6.751-15.198a1.9 1.9 0 0 0-.812 1.478v11.153c0 .547.364.774.813.5l4.11-2.463a1.9 1.9 0 0 0 .812-1.479c0-.547-.364-.773-.812-.5l-3.3 1.977v-10.16c0-.55-.366-.775-.81-.506"/></svg>