<svg xmlns="http://www.w3.org/2000/svg" width="103" height="125" fill="none" viewBox="0 0 103 125"><path fill="#1b69ff" d="M51.44 105.374a1.014 1.014 0 0 1-1-1v-54.2a1 1 0 0 1 .5-.86l50.54-29.18a1 1 0 0 1 1 0 1 1 0 0 1 .52.87v54.19a1 1 0 0 1-.5.86l-50.56 29.18a1 1 0 0 1-.5.14m1-54.62v51.88l48.54-28v-51.9z"/><path fill="#1b69ff" fill-rule="evenodd" d="M1.58 22.363v52.37l48.96 28.27v-52.37zm49.75 82.8a.9.9 0 0 1-.39-.11L.39 75.873a.79.79 0 0 1-.39-.68v-54.19a.78.78 0 0 1 .78-.78.8.8 0 0 1 .4.1l50.54 29.18a.79.79 0 0 1 .39.68v54.19a.8.8 0 0 1-.39.68.9.9 0 0 1-.39.11" clip-rule="evenodd"/><path fill="#1b69ff" d="M14.43 61.723c.4 1.72-.35 2.2-1.92 1.35s-1.63-.75-1 1.11a2.34 2.34 0 0 1 0 2.24c-.55.76-.39 1.13.75 2.1q3.525 3 7.06 6c1.78 1.5 2.9 1 2.45-1.1a3.8 3.8 0 0 0-.25-.87c-1.45-3.1-2.89-6.21-4.41-9.31a2.79 2.79 0 0 0-2-1.8h-.16a3.09 3.09 0 0 1 .1-2.59c.61-1.08 1.17-2.21 1.84-3.21a18 18 0 0 1 1.78-2.09 2.2 2.2 0 0 1 .67-.51c1.4-.71 2-2.51 1.55-4.84a26 26 0 0 1-.07-5.16c.19-2.85 2.56-3.3 5.56-1.18 3.78 2.66 6.1 7 6 10.85a18.57 18.57 0 0 0 2.83 10A31.3 31.3 0 0 1 39 72.873q.168.766.2 1.55c0 1 0 2-1 2a2 2 0 0 0-.87.51c-1 .59-3.25-.6-3.87-2.86a6.7 6.7 0 0 0-.75-1.2c-.21.19-.56.28-.6.59a6 6 0 0 0 .09 1.94 9.9 9.9 0 0 1 .05 4 .5.5 0 0 0 0 .13 3.68 3.68 0 0 0 .8 3c.89 1.06 2 1.56 2.7 1.21a8.5 8.5 0 0 1 4.44.2c.371.102.757.139 1.14.11.6 0 .59-.47 0-1.26-.32-.39-.66-.77-1-1.12-1.27-1.42-1.77-3.29-1.14-4.2l.07-.09q.117.4.19.81a6.52 6.52 0 0 0 1.66 3.81l.39.47c.93 1.23 1 2 .1 2.15q-.935.052-1.87 0a29 29 0 0 0-4 .31c-1.39.28-3.41-1.14-4.54-3.21a4.2 4.2 0 0 0-1.15-1.39c-2.04-1.33-4.04-2.57-6.11-3.67a3.7 3.7 0 0 0-2.17-.37 4.29 4.29 0 0 1-3.25-1.52c-2.13-1.94-4.29-3.78-6.43-5.66-.24-.21-.49-.41-.72-.64-.9-.88-1.26-1.68-.85-2.3a4.3 4.3 0 0 0 .16-3.3c-.27-1.23.11-1.47 1.19-.88l.3.17c1.09.74 2.06.54 2.27-.44m8.74 13.77c.48-.6-.36-1.74-.72-2.86.33.2.64.3.77.49a8.07 8.07 0 0 0 3.21 2.67c1.63.89 3.1 1.34 4.06.4.1-.1.35 0 .53 0 .11.26.33.6.31.75-.1.72-.27 1.38-.4 2.07-.07.32-.1.65-.16 1l.28.2a10.6 10.6 0 0 0 .48-4.4c-.11-.8-.13-1.55-.23-2.34-.24-1.69 1.26-1.08 1.91-1.59a1.06 1.06 0 0 1 .95 0q.779.404 1.5.9a3.7 3.7 0 0 1-.27-1.12 9.44 9.44 0 0 0-.31-4.48c-.26-.86-.58-1.73-.94-2.6.108.6.272 1.19.49 1.76a9.7 9.7 0 0 1 .66 4.86c-.19.74-.68.88-1.38.36a1.85 1.85 0 0 1-.8-1.82c.34-3.5-1.83-7.72-3-11.65a2 2 0 0 0-.13-.26 3.68 3.68 0 0 1-.56-3.26c.21-.44 0-.92-.58-1.46s-1.1-1.14-1.66-1.7a1.67 1.67 0 0 1-.47-1.86c0-.49.47-.62 1-.28a2.5 2.5 0 0 1 1.09 1.73q.06.69 0 1.38c.46.41.66.35.69-.13a4.22 4.22 0 0 0-1.63-4 2 2 0 0 0-1.23-.25c-.85.11-.64 1.23-.62 2.16-.33-.25-.68-.48-1-.69a1.26 1.26 0 0 1-.78-1.2 6.1 6.1 0 0 0-.39-1.69c-.38-1-1.08-1.39-1.53-1a3 3 0 0 0 .1 3c0 .07.15.12.12.1a7.5 7.5 0 0 1-.3-1.76.58.58 0 0 1 .77-.32c.371.309.651.713.81 1.17.108.482.132.98.07 1.47 0 .12-.17.17-.3.18q-.69-.038-1.38 0c-.13 0-.2.4-.12.53a9.2 9.2 0 0 0 1.53 2.17 7 7 0 0 0 4.63 1.69q.29.003.57.08s.17.36.14.39a.53.53 0 0 1-.42.2 18 18 0 0 1-2.3-.46c-.88-.26-1.79-.66-2.9-1.07.357.429.76.818 1.2 1.16.612.33 1.264.578 1.94.74.56.14 1.05 0 1.6.14.18 0 .44.32.66.49-.1.12-.16.33-.31.33-1 .06-2.06.1-3.11.1-.55.16-1.38-.41-1.85-1.25-.05-.09-.09-.18-.13-.27-.37-.66-.69-1.33-1-1.93-.421.55-.79 1.14-1.1 1.76-.18.62-.3 1.257-.36 1.9a.84.84 0 0 1-.11.47c-1.43.94-2.17 2.77-2.08 5.14-.05.361-.186.704-.4 1-.31-.55-.64-1.1-.95-1.66a.8.8 0 0 1-.08-.34c-.07-.64-.12-1.27-.18-1.9a5.33 5.33 0 0 0 1 4.21c1.38 2 2.75 4 4.11 6.06.66 1 .88 1.82.52 2.2a1.9 1.9 0 0 1-.82.32zM63.55 69.116v-15.88l12.87-7.4v15.73c0 .16 0 .14-.12.21l-12.64 7.28a.6.6 0 0 0-.11.06M77.85 45.006l12.86-7.4v15.88l-.1.06L78 60.816c-.12.08-.11.09-.11-.07v-15.59a1 1 0 0 1-.04-.15M76.42 79.354l-12.87 7.4v-15.87l.11-.07 12.63-7.27c.13-.07.12-.08.12.08v15.59a.6.6 0 0 0 .01.14M90.72 55.254v15.88l-12.87 7.4v-15.73c0-.16 0-.14.12-.21l12.64-7.27z"/></svg>