<svg xmlns="http://www.w3.org/2000/svg" width="91" height="44" fill="none" viewBox="0 0 91 44"><path fill="#000" d="M5.967 1.134.001 15.806l3.905.002 1.107-2.906h6.617l1.215 2.906h3.971L10.24 1.133zM8.16 4.64l2.387 5.702H5.988zm23.082-3.506h3.212v14.673h-3.69V6.642l-3.992 4.603h-.564l-3.992-4.603v9.165h-3.69V1.134h3.212l4.752 5.443zm9.717 11.984h2.408c3.71 0 4.818-2.496 4.818-4.648 0-2.517-1.368-4.646-4.861-4.646h-2.365zM43.8 1.134c5.403 0 8.18 3.334 8.18 7.358 0 4.217-2.69 7.315-8.593 7.315h-6.119V1.134zm23.15 3.48h-7.63L54.668 0h16.934v16.792l-4.652-4.613zm-7.636 7.57V5.539l-4.79 4.748v6.648h6.703l4.789-4.75zM0 28.318h19.242V24.5H0zm0 3.817v11.454h19.242V39.77H3.851v-3.818h15.391v-3.818zm57.704-.064-5.51-7.572h-4.758l8.325 11.453v7.637h3.847V35.95l8.366-11.453h-4.758zm13.8 7.697c0 2.11 1.725 3.82 3.854 3.82h15.411v-3.82H75.63a.28.28 0 0 1-.252-.167.3.3 0 0 1-.02-.104V28.59a.27.27 0 0 1 .272-.27h15.14V24.5H75.357c-2.129 0-3.853 1.71-3.853 3.82zM40.7 24.498H25.297v3.819h15.13a.27.27 0 0 1 .273.27v3.277a.27.27 0 0 1-.273.27h-15.13v11.454h3.85v-7.636H40.7c2.127 0 3.85-1.71 3.85-3.818v-3.818c0-2.109-1.724-3.818-3.85-3.818"/></svg>