<svg xmlns="http://www.w3.org/2000/svg" width="42" height="42" fill="none" viewBox="0 0 42 42"><g clip-path="url(#a)"><path fill="#0052b4" d="M42 21c0 11.598-9.402 21-21 21S0 32.598 0 21C0 21.005 21 .002 21 0c11.598 0 21 9.402 21 21"/><path fill="#f0f0f0" d="M20.945 21.002h.056v-.057zM21 10.957V0h-.003C9.4.002 0 9.403 0 21h10.957v-6.17l6.17 6.17h3.817l.056-.056v-3.818l-6.17-6.17z"/><path fill="#d80027" d="M10.627 2.738a21.1 21.1 0 0 0-7.885 7.886v10.375H8.22V8.217h12.783V2.738z"/><path fill="#d80027" d="m21.004 18.418-7.46-7.46H10.96L21.004 21z"/><path fill="#f0f0f0" d="m12.667 24.652 1.152 2.41 2.603-.601-1.165 2.403 2.093 1.66-2.606.587.007 2.672-2.084-1.672-2.084 1.672.007-2.672-2.606-.587 2.093-1.66-1.165-2.403 2.602.601zM31.443 29.215l.576 1.205 1.301-.301-.582 1.202 1.046.83-1.303.293.004 1.336-1.042-.836-1.042.836.003-1.336-1.302-.293 1.046-.83-.583-1.202 1.301.3zM26.084 16.434l.576 1.205 1.301-.301-.583 1.202 1.047.83-1.303.293.003 1.336-1.041-.836-1.042.836.003-1.336-1.303-.294 1.047-.83-.583-1.201 1.301.3zM31.443 9.129l.576 1.205 1.301-.3-.582 1.201 1.046.83-1.303.294.004 1.335-1.042-.836-1.042.836.003-1.335-1.302-.294 1.046-.83-.583-1.202 1.301.3zM36.123 14.606l.576 1.204 1.301-.3-.583 1.202 1.047.83-1.303.293.003 1.336-1.041-.836-1.042.836.003-1.336-1.303-.294 1.047-.83-.583-1.201 1.301.3zM32.78 21l.453 1.395H34.7l-1.187.862.453 1.395-1.187-.862-1.186.862.453-1.395-1.187-.862h1.467z"/></g><defs><clipPath id="a"><path fill="#fff" d="M0 0h42v42H0z"/></clipPath></defs></svg>