<svg xmlns="http://www.w3.org/2000/svg" width="1440" height="986" fill="none" viewBox="0 0 1440 986"><path fill="#f2f5fc" d="m710.351 294.703-141.247-81.412 141.243-81.408 141.247 81.411z"/><path fill="url(#a)" d="M710.351 978.181V294.702l141.245-81.409v764.888z"/><path fill="url(#b)" d="M710.35 978.181V294.702l-141.246-81.409v764.888z"/><g opacity=".4"><path fill="#f2f5fc" d="m1251.15 275.489-70.62-40.706 70.62-40.705 70.63 40.706z"/><path fill="url(#c)" d="M1251.15 805.89V275.489l70.63-40.704v571.106z"/><path fill="url(#d)" d="M1251.15 805.89V275.489l-70.62-40.704v571.106z"/></g><g opacity=".2"><path fill="#f9fafc" d="m1369.38 96.9-70.63-40.707 70.63-40.705L1440 56.194z"/><path fill="url(#e)" d="M1369.37 627.298V96.9L1440 56.195v571.103z"/><path fill="url(#f)" d="M1369.38 627.298V96.9l-70.63-40.705v571.103z"/></g><g opacity=".4"><path fill="#f2f5fc" d="m188.846 260.001 70.623-40.706-70.622-40.705-70.627 40.706z"/><path fill="url(#g)" d="M188.846 790.402V260.001l-70.626-40.704v571.106z"/><path fill="url(#h)" d="M188.847 790.402V260.001l70.622-40.704v571.106z"/></g><g opacity=".2"><path fill="#f2f5fc" d="m70.621 81.41 70.623-40.706L70.624 0 0 40.706z"/><path fill="url(#i)" d="M70.623 611.809V81.411L0 40.707v571.102z"/><path fill="url(#j)" d="M70.623 611.809V81.411l70.623-40.704v571.102z"/></g><path fill="#f2f5fc" d="m1007.46 417.984-141.251-81.411 141.241-81.409 141.25 81.411z"/><path fill="url(#k)" d="M1007.45 904.608V417.983l141.25-81.409v568.034z"/><path fill="url(#l)" d="M1007.46 904.608V417.983l-141.251-81.409v568.034z"/><path fill="#f2f5fc" d="m413.245 417.984-141.244-81.411 141.244-81.409 141.247 81.411z"/><path fill="url(#m)" d="M413.245 985.998V417.983l141.245-81.409v649.424z"/><path fill="url(#n)" d="M413.245 904.608V417.983l-141.244-81.409v568.034z"/><g opacity=".2"><path fill="#abb2e2" d="m660.232 174.881 3.3-2.605c.078-.047 5.835-4.519 5.907-4.482l6.798-5.002a9.1 9.1 0 0 1 4.351-.98 7.44 7.44 0 0 1 3.582.903l44.983 25.608 5.804 3.303 50.79 28.915a4.13 4.13 0 0 1 2.041 2.608q.067.31.079.629a4.28 4.28 0 0 1-2.43 3.727l-3.739 1.774c-.079.048-6.582 3.027-6.652 2.988l-11.293 4.831a9.1 9.1 0 0 1-4.354.978 7.47 7.47 0 0 1-3.585-.904l-40.493-23.366-7.448-4.298-47.948-27.659a4.118 4.118 0 0 1-2.061-2.697 4 4 0 0 1-.061-.541 4.26 4.26 0 0 1 2.429-3.73" opacity=".048"/><path fill="#a7addf" d="m660.296 174.99 3.274-2.57c.163-.094 5.758-4.349 5.899-4.267l6.76-4.58a9.24 9.24 0 0 1 4.292-.841c1.235.02 2.447.34 3.531.931l44.543 25.364 5.75 3.272 50.297 28.641a4.3 4.3 0 0 1 2.057 2.546q.072.302.095.611c.087 1.415-.762 2.776-2.35 3.695l-3.693 1.784c-.163.092-6.466 2.93-6.607 2.849l-11.172 4.334a9.25 9.25 0 0 1-4.298.837 7.65 7.65 0 0 1-3.537-.935l-40.13-23.148-7.381-4.258-47.514-27.407a4.3 4.3 0 0 1-2.082-2.633 4 4 0 0 1-.079-.529c-.097-1.418.757-2.782 2.345-3.696" opacity=".095"/><path fill="#a3a9dc" d="m660.363 175.103 3.248-2.537c.244-.14 5.681-4.176 5.893-4.055l6.721-4.157c1.074-.619 2.868-.702 4.233-.702a7.84 7.84 0 0 1 3.482.961l44.104 25.119 5.69 3.241 49.803 28.366a4.52 4.52 0 0 1 2.074 2.483q.077.293.112.594c.131 1.387-.686 2.744-2.271 3.658l-3.645 1.79c-.243.141-6.351 2.831-6.563 2.712l-11.05 3.839c-1.074.618-2.877.695-4.241.695a7.9 7.9 0 0 1-3.49-.964l-39.765-22.931-7.314-4.217-47.085-27.15a4.54 4.54 0 0 1-2.104-2.57 5 5 0 0 1-.096-.516c-.147-1.386.676-2.745 2.264-3.659" opacity=".143"/><path fill="#9fa4d8" d="m660.425 175.213 3.221-2.503c.325-.187 5.604-4.005 5.886-3.843l6.683-3.734c1.014-.585 2.883-.563 4.174-.563a8.1 8.1 0 0 1 3.432.99l43.662 24.874 5.634 3.209 49.308 28.091a3.961 3.961 0 0 1 2.221 3c.174 1.358-.612 2.71-2.192 3.621l-3.596 1.798c-.326.188-6.238 2.737-6.52 2.575l-10.931 3.343c-1.014.584-2.896.555-4.184.555a8.1 8.1 0 0 1-3.442-.995l-39.404-22.713-7.245-4.177-46.657-26.893a4.8 4.8 0 0 1-2.126-2.505c-.04-.169-.09-.333-.115-.504-.185-1.359.608-2.714 2.191-3.626" opacity=".19"/><path fill="#9ba0d5" d="m660.488 175.322 3.197-2.468c.407-.236 5.526-3.835 5.878-3.631l6.645-3.311c.954-.551 2.9-.422 4.113-.422a8.3 8.3 0 0 1 3.381 1.016l43.222 24.63 5.576 3.178 48.815 27.816a5.06 5.06 0 0 1 2.108 2.358q.088.277.147.562c.219 1.332-.535 2.678-2.112 3.587l-3.549 1.809c-.407.236-6.123 2.64-6.476 2.437l-10.81 2.847c-.954.551-2.914.415-4.128.415a8.4 8.4 0 0 1-3.395-1.023l-39.038-22.503-7.179-4.137-46.228-26.638a5.1 5.1 0 0 1-2.145-2.438c-.044-.165-.102-.323-.131-.491-.235-1.334.53-2.683 2.109-3.593" opacity=".238"/><path fill="#979bd2" d="m660.552 175.435 3.17-2.437c.488-.281 5.449-3.663 5.871-3.419l6.608-2.889c.893-.515 2.914-.282 4.052-.282a8.7 8.7 0 0 1 3.332 1.046l42.782 24.384 5.52 3.146 48.32 27.541c.92.54 1.66 1.339 2.127 2.297.054.183.125.36.163.545.265 1.305-.458 2.645-2.032 3.553l-3.502 1.812c-.487.282-6.008 2.544-6.43 2.3l-10.69 2.352c-.896.516-2.935.272-4.072.272a8.7 8.7 0 0 1-3.347-1.056l-38.671-22.276-7.112-4.097-45.798-26.382a5.46 5.46 0 0 1-2.167-2.377c-.047-.162-.114-.315-.15-.479-.282-1.301.45-2.646 2.026-3.554" opacity=".286"/><path fill="#9397cf" d="m660.616 175.543 3.145-2.4c.57-.329 5.372-3.492 5.865-3.207l6.568-2.467c.835-.48 2.932-.143 3.994-.143a9 9 0 0 1 3.281 1.075l42.342 24.138 5.463 3.113 47.827 27.267a5.8 5.8 0 0 1 2.141 2.234c.058.18.138.348.182.528.31 1.278-.382 2.612-1.952 3.518l-3.454 1.819c-.569.329-5.895 2.447-6.387 2.163l-10.57 1.856c-.834.482-2.953.131-4.016.131a9.1 9.1 0 0 1-3.3-1.086l-38.309-22.059-7.044-4.052-45.37-26.126a5.9 5.9 0 0 1-2.189-2.314c-.048-.157-.125-.307-.166-.466-.327-1.276.377-2.615 1.949-3.522" opacity=".333"/><path fill="#8f92cc" d="m660.677 175.657 3.119-2.367c.651-.375 5.295-3.321 5.858-2.995l6.53-2.044c.776-.448 2.949-.004 3.934-.004a9.5 9.5 0 0 1 3.229 1.1l41.899 23.896 5.406 3.082 47.334 26.992a6.3 6.3 0 0 1 2.158 2.172c.061.175.15.337.199.512.356 1.25-.307 2.579-1.873 3.482l-3.406 1.828c-.65.375-5.78 2.35-6.343 2.025l-10.449 1.36c-.775.447-2.971-.009-3.958-.009a9.6 9.6 0 0 1-3.252-1.116l-37.946-21.842-6.978-4.016-44.94-25.868a6.4 6.4 0 0 1-2.209-2.25c-.052-.158-.137-.298-.185-.454-.368-1.245.307-2.58 1.873-3.484" opacity=".381"/><path fill="#8b8ec9" d="m660.744 175.765 3.093-2.333c.73-.422 5.217-3.145 5.851-2.783l6.492-1.62c.715-.412 2.964.135 3.874.135a10 10 0 0 1 3.181 1.132l41.461 23.651 5.349 3.05 46.84 26.715a6.85 6.85 0 0 1 2.174 2.108c.064.173.158.327.217.497.401 1.221-.231 2.544-1.793 3.447l-3.359 1.835c-.731.421-5.665 2.252-6.3 1.887l-10.329.865c-.715.412-2.993-.151-3.901-.151a10.2 10.2 0 0 1-3.206-1.146l-37.581-21.622-6.91-3.975-44.512-25.613c-.652-.375-2.127-1.548-2.231-2.186a2.5 2.5 0 0 1-.201-.441c-.421-1.219.224-2.549 1.791-3.452" opacity=".429"/><path fill="#8789c6" d="m660.808 175.873 3.067-2.3c.814-.472 5.141-2.977 5.845-2.57l6.453-1.198c.656-.378 2.981.275 3.815.275 1.099.219 2.155.611 3.131 1.16l41.023 23.406 5.291 3.02 46.345 26.443c.581.335 2.085 1.479 2.192 2.044q.143.227.236.48c.449 1.195-.157 2.516-1.714 3.412l-3.308 1.843c-.814.472-5.551 2.156-6.255 1.75l-10.208.368c-.656.378-3.011-.292-3.844-.292a10.8 10.8 0 0 1-3.158-1.179l-37.222-21.399-6.844-3.936-44.082-25.356c-.598-.345-2.158-1.537-2.253-2.123a2.4 2.4 0 0 1-.218-.429c-.471-1.189.144-2.514 1.708-3.419" opacity=".476"/><path fill="#8385c2" d="m660.872 175.988 3.041-2.265c.894-.517 5.064-2.806 5.838-2.359l6.416-.774c.596-.345 2.992.414 3.754.414 1.079.245 2.117.645 3.08 1.19l40.584 23.16 5.233 2.988 45.853 26.163c.527.305 2.111 1.47 2.205 1.984q.149.22.25.464c.496 1.168-.079 2.479-1.633 3.375l-3.262 1.851c-.894.515-5.435 2.06-6.211 1.613l-10.087-.128c-.596.345-3.03-.432-3.787-.432a11.6 11.6 0 0 1-3.111-1.207l-36.853-21.189-6.773-3.896-43.654-25.1c-.542-.314-2.187-1.527-2.273-2.06a2.4 2.4 0 0 1-.236-.415c-.521-1.157.066-2.478 1.626-3.377" opacity=".524"/><path fill="#7f80bf" d="m660.935 176.098 3.016-2.231c.977-.563 4.986-2.634 5.828-2.147l6.38-.352c.537-.309 3.012.55 3.696.55 1.06.27 2.079.68 3.03 1.22l40.143 22.915 5.177 2.956 45.357 25.893c.472.275 2.138 1.458 2.224 1.922q.158.21.269.446c.544 1.141 0 2.447-1.555 3.342l-3.215 1.859c-.975.562-5.32 1.965-6.166 1.476l-9.966-.624c-.538.31-3.05-.574-3.732-.574a12.6 12.6 0 0 1-3.063-1.237l-36.489-20.971-6.709-3.853-43.226-24.846c-.487-.281-2.217-1.516-2.293-1.996a2.4 2.4 0 0 1-.253-.402c-.566-1.13-.009-2.449 1.547-3.346" opacity=".571"/><path fill="#7b7cbc" d="m661 176.21 2.993-2.198c1.056-.609 4.909-2.462 5.823-1.934l6.338.071c.478-.275 3.029.692 3.637.692 1.04.295 2.04.714 2.98 1.247l39.702 22.672 5.119 2.924 44.864 25.619c.422.243 2.164 1.447 2.242 1.859q.165.2.285.431c.593 1.113.074 2.413-1.475 3.302l-3.167 1.866c-1.057.61-5.207 1.866-6.123 1.337l-9.845-1.118c-.477.274-3.071-.716-3.675-.716a14 14 0 0 1-3.015-1.267l-36.125-20.757-6.642-3.816-42.796-24.586c-.434-.25-2.247-1.506-2.314-1.933a2.3 2.3 0 0 1-.272-.389c-.617-1.098-.088-2.41 1.466-3.306" opacity=".619"/><path fill="#7777b9" d="m661.064 176.32 2.964-2.163c1.138-.656 4.832-2.291 5.817-1.723l6.301.493c.418-.239 3.045.834 3.576.834a15 15 0 0 1 2.93 1.275l39.262 22.426 5.064 2.892 44.37 25.344c.37.213 2.19 1.438 2.259 1.797q.172.192.303.414c.641 1.085.149 2.381-1.397 3.272l-3.118 1.873c-1.139.657-5.092 1.77-6.078 1.201l-9.725-1.614c-.419.24-3.088-.857-3.619-.857a15.4 15.4 0 0 1-2.967-1.297l-35.761-20.537-6.575-3.774-42.369-24.332c-.379-.219-2.275-1.494-2.336-1.867a2.4 2.4 0 0 1-.288-.377c-.665-1.078-.164-2.386 1.387-3.28" opacity=".667"/><path fill="#7373b6" d="m661.127 176.431 2.939-2.13c1.22-.707 4.754-2.122 5.811-1.511l6.261.917c.358-.207 3.062.972 3.517.972.998.345 1.963.782 2.881 1.303l38.82 22.182 5.006 2.861 43.876 25.069c.316.182 2.218 1.425 2.274 1.734q.181.183.321.399c.691 1.055.227 2.347-1.316 3.236l-3.072 1.881c-1.22.703-4.977 1.672-6.034 1.063l-9.605-2.109c-.358.205-3.106-.998-3.562-.998a17.7 17.7 0 0 1-2.92-1.327l-35.397-20.319-6.507-3.736-41.939-24.074c-.325-.188-2.305-1.485-2.356-1.804a2.4 2.4 0 0 1-.307-.364c-.712-1.05-.239-2.354 1.309-3.245" opacity=".714"/><path fill="#6f6eb3" d="m661.191 176.542 2.914-2.096c1.3-.75 4.677-1.949 5.804-1.298l6.222 1.336c.298-.172 3.077 1.112 3.456 1.112q1.467.558 2.83 1.337l38.382 21.936 4.95 2.831 43.381 24.794c.824.47 1.593 1.031 2.292 1.672q.19.174.337.383c.742 1.026.303 2.313-1.236 3.2l-3.024 1.887c-1.3.751-4.862 1.573-5.989.925l-9.483-2.609c-.298.17-3.127-1.139-3.505-1.139a21 21 0 0 1-2.873-1.358l-35.033-20.1-6.44-3.695-41.51-23.816c-.271-.158-2.334-1.475-2.377-1.741a2.4 2.4 0 0 1-.324-.352c-.764-1.019-.318-2.32 1.226-3.209" opacity=".762"/><path fill="#6b6ab0" d="m661.255 176.652 2.887-2.062c1.383-.796 4.6-1.777 5.798-1.086l6.184 1.762c.237-.137 3.095 1.25 3.397 1.25q1.434.593 2.78 1.362l37.942 21.692 4.892 2.797 42.889 24.519a16 16 0 0 1 2.308 1.61q.197.165.355.365c.792.997.378 2.28-1.157 3.166l-2.975 1.896c-1.383.797-4.75 1.479-5.947.786l-9.364-3.101c-.236.137-3.144-1.281-3.448-1.281a25 25 0 0 1-2.824-1.388l-34.67-19.88-6.373-3.655-41.08-23.561a16 16 0 0 1-2.4-1.677 2.4 2.4 0 0 1-.34-.339c-.814-.99-.395-2.287 1.146-3.175" opacity=".81"/><path fill="#6765ac" d="m661.319 176.762 2.862-2.027c1.463-.843 4.522-1.606 5.79-.875l6.148 2.185c.179-.103 3.109 1.39 3.338 1.39.197 0 2.587 1.31 2.73 1.39l37.501 21.449 4.836 2.764 42.394 24.247q1.215.695 2.326 1.546.203.157.371.349c.843.966.455 2.247-1.076 3.131l-2.928 1.904c-1.464.843-4.635 1.381-5.903.651l-9.243-3.597c-.179.103-3.164-1.422-3.393-1.422-.197 0-2.635-1.337-2.777-1.415l-34.305-19.666-6.306-3.617-40.652-23.304a22 22 0 0 1-2.42-1.614 2.6 2.6 0 0 1-.358-.326c-.863-.963-.473-2.256 1.065-3.143" opacity=".857"/><path fill="#6361a9" d="m661.382 176.873 2.835-1.994c1.545-.891 4.446-1.434 5.784-.662l6.109 2.607c.119-.067 3.126 1.53 3.278 1.53.131 0 2.584 1.365 2.677 1.42l37.063 21.202 4.778 2.734 41.899 23.971c.106.06 2.322 1.381 2.341 1.483q.211.147.39.333c.894.936.531 2.215-.998 3.096l-2.88 1.911c-1.546.891-4.52 1.285-5.858.514l-9.123-4.093c-.119.069-3.183-1.562-3.335-1.562-.132 0-2.636-1.394-2.73-1.449l-33.945-19.448-6.238-3.574-40.214-23.05c-.109-.063-2.425-1.442-2.442-1.549a2.6 2.6 0 0 1-.376-.314c-.913-.93-.549-2.218.985-3.106" opacity=".905"/><path fill="#5f5ca6" d="m661.447 176.986 2.811-1.96c1.626-.937 4.368-1.263 5.776-.45l6.07 3.03c.061-.035 3.144 1.668 3.219 1.668.076 0 2.583 1.42 2.629 1.448l36.623 20.958 4.717 2.702 41.407 23.697c.053.029 2.349 1.37 2.359 1.421q.218.138.407.315c.945.903.607 2.181-.919 3.061l-2.835 1.917c-1.626.937-4.406 1.189-5.815.377l-9.002-4.589c-.059.035-3.203-1.703-3.278-1.703-.074 0-2.636-1.451-2.683-1.479l-33.577-19.231-6.171-3.538-39.794-22.791c-.054-.031-2.454-1.432-2.462-1.485a2.6 2.6 0 0 1-.394-.301c-.958-.895-.619-2.185.912-3.067" opacity=".952"/><path fill="#5b58a3" d="m757.001 235.321-47.952-27.45-47.952-27.452c-1.479-.853-1.293-2.342.414-3.326l2.784-1.925a6.43 6.43 0 0 1 5.771-.236l47.952 27.451 47.953 27.452c1.479.852 1.293 2.341-.415 3.326l-2.784 1.924a6.43 6.43 0 0 1-5.771.236"/></g><path fill="url(#o)" d="m759.025 238.008-93.107-58.384c-2.321-1.336-4.202-4.926-4.202-8.02l-3.243 1.278c0-33.125 30.622-45.353 55.508-31.009l5.285 3.071c24.888 14.345 47.165 53.892 47.165 87.016 0 1.761-.61 2.979-1.564 3.454-.72.362-4.843 3.171-5.842 2.594"/><path fill="url(#p)" d="m757.887 237.543-96.311-55.509c-2.321-1.337-4.203-4.927-4.203-8.015 0-33.126 27.379-44.076 52.265-29.732l5.285 3.072c24.888 14.343 47.166 53.889 47.166 87.016 0 3.086-1.88 4.506-4.202 3.168"/><path fill="url(#q)" d="m715.022 147.066-5.287-3.072c-14.264-8.221-29.336-8.118-39.616-.308 10.251-7.239 24.934-7.129 38.841.886l5.287 3.071c24.887 14.344 47.164 53.89 47.164 87.017a4.38 4.38 0 0 1-.878 2.909c1.002-.445 1.654-1.676 1.654-3.486-.001-33.128-22.279-72.675-47.165-87.017" style="mix-blend-mode:color-dodge"/><path fill="#333c5e" d="M665.31 177.97a5.9 5.9 0 0 1-2.695-4.87c1.497-27.457 22.019-38.067 47.117-23.6s45.62 48.732 47.116 77.918c.095 1.847-1.126 2.667-2.694 1.763z"/><path fill="#ced3f4" d="m755.373 228.481-88.844-51.208a5.91 5.91 0 0 1-2.695-4.87c.696-12.78 5.519-21.905 13.003-26.555-8.175 4.393-13.489 13.791-14.222 27.25a5.9 5.9 0 0 0 2.695 4.87l88.844 51.207c1.063.613 1.955.419 2.397-.337a2.4 2.4 0 0 1-1.178-.357" style="mix-blend-mode:multiply"/><path fill="url(#r)" d="m729.694 198.981 13.334-2.996c-7.359-16.237-19.523-31.092-33.296-39.03-20.82-12-37.976-3.972-40.39 17.742l16.46 9.49c2.263-11.463 12.115-15.393 23.927-8.586 8.256 4.757 15.546 13.654 19.965 23.38"/><path fill="#ffe06a" d="M730.429 200.667a49.7 49.7 0 0 1 3.229 11.1l16.46 9.488a79.7 79.7 0 0 0-5.874-22.458z"/><path fill="#afb6e5" d="M719.263 219.715c5.192-3.033 5.135-12.77-.127-21.747-5.263-8.978-13.738-13.797-18.93-10.764-5.191 3.033-5.134 12.769.128 21.747s13.737 13.797 18.929 10.764"/><path fill="url(#s)" d="M718.618 216.98c4.42-2.582 4.371-10.871-.109-18.515-4.48-7.643-11.695-11.746-16.115-9.164s-4.371 10.872.109 18.515 11.695 11.746 16.115 9.164"/><path fill="url(#t)" d="m703.85 194.976 38.679-8.117-26.924 27.489z"/><path fill="url(#u)" d="m703.85 194.976 38.679-8.117-33.477 18.217z"/><path fill="url(#v)" d="M718.08 217.266c4.422-2.58 4.377-10.87-.1-18.516-4.478-7.646-11.692-11.753-16.114-9.172-4.421 2.58-4.376 10.87.101 18.516s11.692 11.753 16.113 9.172"/><path fill="url(#w)" d="M717.846 217.3c4.42-2.582 4.371-10.871-.109-18.514-4.48-7.644-11.695-11.747-16.116-9.164-4.42 2.582-4.371 10.871.109 18.514 4.48 7.644 11.696 11.747 16.116 9.164"/><path fill="url(#x)" d="M709.731 190.42c-2.813-1.622-5.384-1.93-7.371-1.14 1.923-.588 4.323-.223 6.937 1.284 6.292 3.627 11.394 12.411 11.394 19.62 0 3.987-1.565 6.647-4.023 7.626 2.706-.825 4.457-3.554 4.457-7.768 0-7.213-5.101-15.997-11.394-19.622" style="mix-blend-mode:color-dodge"/><defs><linearGradient id="a" x1="780.973" x2="780.973" y1="970.532" y2="503.95" gradientUnits="userSpaceOnUse"><stop stop-color="#fff" stop-opacity="0"/><stop offset="1" stop-color="#fff"/></linearGradient><linearGradient id="b" x1="639.727" x2="639.727" y1="1050.08" y2="188.817" gradientUnits="userSpaceOnUse"><stop stop-color="#fff" stop-opacity="0"/><stop offset="1" stop-color="#e0e7fd"/></linearGradient><linearGradient id="c" x1="1286.46" x2="1286.46" y1="816.742" y2="350.72" gradientUnits="userSpaceOnUse"><stop stop-color="#fff" stop-opacity="0"/><stop offset="1" stop-color="#fff"/></linearGradient><linearGradient id="d" x1="1215.84" x2="1215.84" y1="896.126" y2="34.898" gradientUnits="userSpaceOnUse"><stop stop-color="#fff" stop-opacity="0"/><stop offset="1" stop-color="#e0e7fd"/></linearGradient><linearGradient id="e" x1="1404.68" x2="1404.68" y1="816.333" y2="350.313" gradientUnits="userSpaceOnUse"><stop stop-color="#fff" stop-opacity="0"/><stop offset="1" stop-color="#fff"/></linearGradient><linearGradient id="f" x1="1334.07" x2="1334.07" y1="896.288" y2="35.065" gradientUnits="userSpaceOnUse"><stop stop-color="#fff" stop-opacity="0"/><stop offset="1" stop-color="#e0e7fd"/></linearGradient><linearGradient id="g" x1="153.533" x2="153.533" y1="880.638" y2="19.41" gradientUnits="userSpaceOnUse"><stop stop-color="#fff" stop-opacity="0"/><stop offset="1" stop-color="#e0e7fd"/></linearGradient><linearGradient id="h" x1="224.158" x2="224.158" y1="801.254" y2="335.231" gradientUnits="userSpaceOnUse"><stop stop-color="#fff" stop-opacity="0"/><stop offset="1" stop-color="#fff"/></linearGradient><linearGradient id="i" x1="35.311" x2="35.311" y1="880.798" y2="19.576" gradientUnits="userSpaceOnUse"><stop stop-color="#fff" stop-opacity="0"/><stop offset="1" stop-color="#e0e7fd"/></linearGradient><linearGradient id="j" x1="105.934" x2="105.934" y1="800.844" y2="334.825" gradientUnits="userSpaceOnUse"><stop stop-color="#fff" stop-opacity="0"/><stop offset="1" stop-color="#fff"/></linearGradient><linearGradient id="k" x1="1078.08" x2="1078.08" y1="776.233" y2="310.445" gradientUnits="userSpaceOnUse"><stop stop-color="#fff" stop-opacity="0"/><stop offset="1" stop-color="#fff"/></linearGradient><linearGradient id="l" x1="936.832" x2="936.832" y1="855.757" y2="-5.382" gradientUnits="userSpaceOnUse"><stop stop-color="#fff" stop-opacity="0"/><stop offset="1" stop-color="#e0e7fd"/></linearGradient><linearGradient id="m" x1="483.868" x2="483.868" y1="776.234" y2="309.948" gradientUnits="userSpaceOnUse"><stop stop-color="#fff" stop-opacity="0"/><stop offset="1" stop-color="#fff"/></linearGradient><linearGradient id="n" x1="342.623" x2="342.623" y1="855.757" y2="-5.382" gradientUnits="userSpaceOnUse"><stop stop-color="#fff" stop-opacity="0"/><stop offset="1" stop-color="#e0e7fd"/></linearGradient><linearGradient id="o" x1="692.048" x2="745.399" y1="153.823" y2="258.029" gradientUnits="userSpaceOnUse"><stop stop-color="#fff"/><stop offset="1" stop-color="#c8cede"/></linearGradient><linearGradient id="p" x1="689.102" x2="738.865" y1="219.659" y2="158.997" gradientUnits="userSpaceOnUse"><stop stop-color="#afb6e5"/><stop offset=".145" stop-color="#b5bce8"/><stop offset=".349" stop-color="#c7cdf0"/><stop offset=".581" stop-color="#e5e9ff"/><stop offset=".955" stop-color="#f4f4fb"/><stop offset="1" stop-color="#f7f6fb"/></linearGradient><linearGradient id="r" x1="630.509" x2="684.96" y1="119.295" y2="221.289" gradientUnits="userSpaceOnUse"><stop stop-color="#afb6e5"/><stop offset=".145" stop-color="#b5bce8"/><stop offset=".349" stop-color="#c7cdf0"/><stop offset=".581" stop-color="#e5e9ff"/><stop offset=".855" stop-color="#f4f6ff"/><stop offset="1" stop-color="#fff"/></linearGradient><linearGradient id="s" x1="697.403" x2="724.24" y1="195.413" y2="195.695" gradientUnits="userSpaceOnUse"><stop stop-color="#bcc2eb"/><stop offset=".192" stop-color="#c6ccf0"/><stop offset=".277" stop-color="#d0d4f0"/><stop offset=".283" stop-color="#d1d5f0"/><stop offset=".361" stop-color="#bdc3e9"/><stop offset=".409" stop-color="#afb6e5"/><stop offset=".909" stop-color="#afb6e5"/><stop offset=".988" stop-color="#b9c0ea"/><stop offset="1" stop-color="#bcc2eb"/></linearGradient><linearGradient id="t" x1="-1367.84" x2="-1400.22" y1="6061.75" y2="6126.2" gradientUnits="userSpaceOnUse"><stop stop-color="#afb6e5"/><stop offset=".145" stop-color="#b5bce8"/><stop offset=".349" stop-color="#c7cdf0"/><stop offset=".581" stop-color="#e5e9ff"/><stop offset=".955" stop-color="#f4f4fb"/><stop offset="1" stop-color="#f7f6fb"/></linearGradient><linearGradient id="u" x1="714.757" x2="717.605" y1="175.674" y2="199.284" gradientUnits="userSpaceOnUse"><stop stop-color="#afb6e5"/><stop offset=".145" stop-color="#b5bce8"/><stop offset=".349" stop-color="#c7cdf0"/><stop offset=".581" stop-color="#e5e9ff"/><stop offset=".955" stop-color="#f4f4fb"/><stop offset="1" stop-color="#f7f6fb"/></linearGradient><linearGradient id="v" x1="1456.21" x2="1431.76" y1="2376.97" y2="2405" gradientUnits="userSpaceOnUse"><stop stop-color="#bcc2eb"/><stop offset=".192" stop-color="#c6ccf0"/><stop offset=".277" stop-color="#d0d4f0"/><stop offset=".283" stop-color="#d1d5f0"/><stop offset=".361" stop-color="#bdc3e9"/><stop offset=".409" stop-color="#afb6e5"/><stop offset=".909" stop-color="#afb6e5"/><stop offset=".988" stop-color="#b9c0ea"/><stop offset="1" stop-color="#bcc2eb"/></linearGradient><linearGradient id="w" x1="709.034" x2="725.614" y1="229.248" y2="202.147" gradientUnits="userSpaceOnUse"><stop stop-color="#afb6e5"/><stop offset=".145" stop-color="#b5bce8"/><stop offset=".349" stop-color="#c7cdf0"/><stop offset=".581" stop-color="#e5e9ff"/><stop offset=".955" stop-color="#f4f4fb"/><stop offset="1" stop-color="#f7f6fb"/></linearGradient><radialGradient id="q" cx="0" cy="0" r="1" gradientTransform="matrix(48.0488 0 0 47.9753 777.559 187.698)" gradientUnits="userSpaceOnUse"><stop stop-color="#fff"/><stop offset="1"/></radialGradient><radialGradient id="x" cx="0" cy="0" r="1" gradientTransform="matrix(12.2051 0 0 12.1867 1098.74 203.337)" gradientUnits="userSpaceOnUse"><stop stop-color="#fff"/><stop offset="1"/></radialGradient></defs></svg>