<svg width="1440" height="986" viewBox="0 0 1440 986" fill="none" xmlns="http://www.w3.org/2000/svg">
<path d="M710.351 294.703L569.104 213.291L710.347 131.883L851.594 213.294L710.351 294.703Z" fill="#F2F5FC"/>
<path d="M710.351 978.181V294.702L851.596 213.293V978.181H710.351Z" fill="url(#paint0_linear_9_78233)"/>
<path d="M710.35 978.181V294.702L569.104 213.293V978.181H710.35Z" fill="url(#paint1_linear_9_78233)"/>
<g opacity="0.4">
<path d="M1251.15 275.489L1180.53 234.783L1251.15 194.078L1321.78 234.784L1251.15 275.489Z" fill="#F2F5FC"/>
<path d="M1251.15 805.89V275.489L1321.78 234.785V805.891L1251.15 805.89Z" fill="url(#paint2_linear_9_78233)"/>
<path d="M1251.15 805.89V275.489L1180.53 234.785V805.891L1251.15 805.89Z" fill="url(#paint3_linear_9_78233)"/>
</g>
<g opacity="0.2">
<path d="M1369.38 96.8993L1298.75 56.1934L1369.38 15.4883L1440 56.1942L1369.38 96.8993Z" fill="#F9FAFC"/>
<path d="M1369.37 627.298V96.9004L1440 56.1953V627.298H1369.37Z" fill="url(#paint4_linear_9_78233)"/>
<path d="M1369.38 627.298V96.9004L1298.75 56.1953V627.298H1369.38Z" fill="url(#paint5_linear_9_78233)"/>
</g>
<g opacity="0.4">
<path d="M188.846 260.001L259.469 219.295L188.847 178.59L118.22 219.296L188.846 260.001Z" fill="#F2F5FC"/>
<path d="M188.846 790.402V260.001L118.22 219.297V790.403L188.846 790.402Z" fill="url(#paint6_linear_9_78233)"/>
<path d="M188.847 790.402V260.001L259.469 219.297V790.403L188.847 790.402Z" fill="url(#paint7_linear_9_78233)"/>
</g>
<g opacity="0.2">
<path d="M70.621 81.4102L141.244 40.7043L70.6234 0L0 40.7059L70.621 81.4102Z" fill="#F2F5FC"/>
<path d="M70.6226 611.809V81.4114L0 40.707V611.809H70.6226Z" fill="url(#paint8_linear_9_78233)"/>
<path d="M70.623 611.809V81.4114L141.246 40.707V611.809H70.623Z" fill="url(#paint9_linear_9_78233)"/>
</g>
<path d="M1007.46 417.984L866.209 336.573L1007.45 255.164L1148.7 336.575L1007.46 417.984Z" fill="#F2F5FC"/>
<path d="M1007.45 904.608V417.983L1148.7 336.574V904.608H1007.45Z" fill="url(#paint10_linear_9_78233)"/>
<path d="M1007.46 904.608V417.983L866.209 336.574V904.608H1007.46Z" fill="url(#paint11_linear_9_78233)"/>
<path d="M413.245 417.984L272.001 336.573L413.245 255.164L554.492 336.575L413.245 417.984Z" fill="#F2F5FC"/>
<path d="M413.245 985.998V417.983L554.49 336.574V985.998H413.245Z" fill="url(#paint12_linear_9_78233)"/>
<path d="M413.245 904.608V417.983L272.001 336.574V904.608H413.245Z" fill="url(#paint13_linear_9_78233)"/>
<g opacity="0.2">
<path opacity="0.048" d="M660.232 174.881L663.532 172.276C663.61 172.229 669.367 167.757 669.439 167.794L676.237 162.792C677.583 162.109 679.079 161.772 680.588 161.812C681.839 161.807 683.071 162.118 684.17 162.715L729.153 188.323L734.957 191.626L785.747 220.541C786.249 220.811 786.69 221.183 787.041 221.631C787.392 222.08 787.647 222.597 787.788 223.149C787.832 223.356 787.859 223.566 787.867 223.778C787.843 224.562 787.604 225.325 787.176 225.982C786.747 226.639 786.146 227.166 785.437 227.505L781.698 229.279C781.619 229.327 775.116 232.306 775.046 232.267L763.753 237.098C762.406 237.781 760.91 238.117 759.399 238.076C758.147 238.08 756.914 237.769 755.814 237.172L715.321 213.806L707.873 209.508L659.925 181.849C659.409 181.572 658.958 181.188 658.603 180.722C658.248 180.257 657.996 179.722 657.864 179.152C657.831 178.973 657.81 178.792 657.803 178.611C657.825 177.826 658.063 177.063 658.492 176.404C658.92 175.746 659.523 175.219 660.232 174.881Z" fill="#ABB2E2"/>
<path opacity="0.095" d="M660.296 174.99L663.57 172.42C663.733 172.326 669.328 168.071 669.469 168.153L676.229 163.573C677.571 162.953 679.043 162.665 680.521 162.732C681.756 162.752 682.968 163.072 684.052 163.663L728.595 189.027L734.345 192.299L784.642 220.94C785.636 221.486 786.376 222.4 786.699 223.486C786.747 223.687 786.778 223.891 786.794 224.097C786.881 225.512 786.032 226.873 784.444 227.792L780.751 229.576C780.588 229.668 774.285 232.506 774.144 232.425L762.972 236.759C761.627 237.378 760.153 237.665 758.674 237.596C757.436 237.575 756.223 237.254 755.137 236.661L715.007 213.513L707.626 209.255L660.112 181.848C659.606 181.57 659.161 181.194 658.803 180.742C658.446 180.29 658.182 179.77 658.03 179.215C657.992 179.04 657.965 178.864 657.951 178.686C657.854 177.268 658.708 175.904 660.296 174.99Z" fill="#A7ADDF"/>
<path opacity="0.143" d="M660.363 175.103L663.611 172.566C663.855 172.426 669.292 168.39 669.504 168.511L676.225 164.354C677.299 163.735 679.093 163.652 680.458 163.652C681.677 163.697 682.87 164.026 683.94 164.613L728.044 189.732L733.734 192.973L783.537 221.339C784.511 221.883 785.25 222.767 785.611 223.822C785.662 224.017 785.7 224.216 785.723 224.416C785.854 225.803 785.037 227.16 783.452 228.074L779.807 229.864C779.564 230.005 773.456 232.695 773.244 232.576L762.194 236.415C761.12 237.033 759.317 237.11 757.953 237.11C756.73 237.064 755.535 236.734 754.463 236.146L714.698 213.215L707.384 208.998L660.299 181.848C659.297 181.287 658.546 180.369 658.195 179.278C658.154 179.108 658.121 178.936 658.099 178.762C657.952 177.376 658.775 176.017 660.363 175.103Z" fill="#A3A9DC"/>
<path opacity="0.19" d="M660.425 175.213L663.646 172.71C663.971 172.523 669.25 168.705 669.532 168.867L676.215 165.133C677.229 164.548 679.098 164.57 680.389 164.57C681.593 164.64 682.765 164.978 683.821 165.56L727.483 190.434L733.117 193.643L782.425 221.734C783.013 222.013 783.524 222.433 783.912 222.956C784.299 223.479 784.551 224.09 784.646 224.734C784.82 226.092 784.034 227.444 782.454 228.355L778.858 230.153C778.532 230.341 772.62 232.89 772.338 232.728L761.407 236.071C760.393 236.655 758.511 236.626 757.223 236.626C756.015 236.555 754.839 236.215 753.781 235.631L714.377 212.918L707.132 208.741L660.475 181.848C659.493 181.289 658.74 180.402 658.349 179.343C658.309 179.174 658.259 179.01 658.234 178.839C658.049 177.48 658.842 176.125 660.425 175.213Z" fill="#9FA4D8"/>
<path opacity="0.238" d="M660.488 175.322L663.685 172.854C664.092 172.618 669.211 169.019 669.563 169.223L676.208 165.912C677.162 165.361 679.108 165.49 680.321 165.49C681.508 165.583 682.66 165.93 683.702 166.506L726.924 191.136L732.5 194.314L781.315 222.13C782.252 222.671 782.991 223.497 783.423 224.488C783.482 224.673 783.531 224.86 783.57 225.05C783.789 226.382 783.035 227.728 781.458 228.637L777.909 230.446C777.502 230.682 771.786 233.086 771.433 232.883L760.623 235.73C759.669 236.281 757.709 236.145 756.495 236.145C755.303 236.048 754.146 235.7 753.1 235.122L714.062 212.619L706.883 208.482L660.655 181.844C659.694 181.286 658.94 180.43 658.51 179.406C658.466 179.241 658.408 179.083 658.379 178.915C658.144 177.581 658.909 176.232 660.488 175.322Z" fill="#9BA0D5"/>
<path opacity="0.286" d="M660.552 175.435L663.722 172.998C664.21 172.717 669.171 169.335 669.593 169.579L676.201 166.69C677.094 166.175 679.115 166.408 680.253 166.408C681.424 166.527 682.557 166.883 683.585 167.454L726.367 191.838L731.887 194.984L780.207 222.525C781.127 223.065 781.867 223.864 782.334 224.822C782.388 225.005 782.459 225.182 782.497 225.367C782.762 226.672 782.039 228.012 780.465 228.92L776.963 230.732C776.476 231.014 770.955 233.276 770.533 233.032L759.843 235.384C758.947 235.9 756.908 235.656 755.771 235.656C754.595 235.534 753.456 235.175 752.424 234.6L713.753 212.324L706.641 208.227L660.843 181.845C659.898 181.288 659.143 180.459 658.676 179.468C658.629 179.306 658.562 179.153 658.526 178.989C658.244 177.688 658.976 176.343 660.552 175.435Z" fill="#979BD2"/>
<path opacity="0.333" d="M660.616 175.543L663.761 173.143C664.331 172.814 669.133 169.651 669.626 169.936L676.194 167.469C677.029 166.989 679.126 167.326 680.188 167.326C681.341 167.47 682.455 167.835 683.469 168.401L725.811 192.539L731.274 195.652L779.101 222.919C780.004 223.456 780.744 224.228 781.242 225.153C781.3 225.333 781.38 225.501 781.424 225.681C781.734 226.959 781.042 228.293 779.472 229.199L776.018 231.018C775.449 231.347 770.123 233.465 769.631 233.181L759.061 235.037C758.227 235.519 756.108 235.168 755.045 235.168C753.885 235.02 752.765 234.652 751.745 234.082L713.436 212.023L706.392 207.971L661.022 181.845C660.094 181.289 659.337 180.488 658.833 179.531C658.785 179.374 658.708 179.224 658.667 179.065C658.34 177.789 659.044 176.45 660.616 175.543Z" fill="#9397CF"/>
<path opacity="0.381" d="M660.677 175.657L663.796 173.29C664.447 172.915 669.091 169.969 669.654 170.295L676.184 168.251C676.96 167.803 679.133 168.247 680.118 168.247C681.252 168.415 682.346 168.788 683.347 169.347L725.246 193.243L730.652 196.325L777.986 223.317C778.874 223.852 779.615 224.598 780.144 225.489C780.205 225.664 780.294 225.826 780.343 226.001C780.699 227.251 780.036 228.58 778.47 229.483L775.064 231.311C774.414 231.686 769.284 233.661 768.721 233.336L758.272 234.696C757.497 235.143 755.301 234.687 754.314 234.687C753.171 234.513 752.07 234.135 751.062 233.571L713.116 211.729L706.138 207.713L661.198 181.845C660.285 181.291 659.525 180.517 658.989 179.595C658.937 179.437 658.852 179.297 658.804 179.141C658.436 177.896 659.111 176.561 660.677 175.657Z" fill="#8F92CC"/>
<path opacity="0.429" d="M660.744 175.765L663.837 173.432C664.567 173.01 669.054 170.287 669.688 170.649L676.18 169.029C676.895 168.617 679.144 169.164 680.054 169.164C681.171 169.358 682.247 169.741 683.235 170.296L724.696 193.947L730.045 196.997L776.885 223.712C777.758 224.244 778.501 224.964 779.059 225.82C779.123 225.993 779.217 226.147 779.276 226.317C779.677 227.538 779.045 228.861 777.483 229.764L774.124 231.599C773.393 232.02 768.459 233.851 767.824 233.486L757.495 234.351C756.78 234.763 754.502 234.2 753.594 234.2C752.469 234.001 751.385 233.614 750.388 233.054L712.807 211.432L705.897 207.457L661.385 181.844C660.733 181.469 659.258 180.296 659.154 179.658C659.073 179.518 659.005 179.37 658.953 179.217C658.532 177.998 659.177 176.668 660.744 175.765Z" fill="#8B8EC9"/>
<path opacity="0.476" d="M660.808 175.873L663.875 173.573C664.689 173.101 669.016 170.596 669.72 171.003L676.173 169.805C676.829 169.427 679.154 170.08 679.988 170.08C681.087 170.299 682.143 170.691 683.119 171.24L724.142 194.646L729.433 197.666L775.778 224.109C776.359 224.444 777.863 225.588 777.97 226.153C778.065 226.304 778.144 226.465 778.206 226.633C778.655 227.828 778.049 229.149 776.492 230.045L773.184 231.888C772.37 232.36 767.633 234.044 766.929 233.638L756.721 234.006C756.065 234.384 753.71 233.714 752.877 233.714C751.769 233.489 750.703 233.091 749.719 232.535L712.497 211.136L705.653 207.2L661.571 181.844C660.973 181.499 659.413 180.307 659.318 179.721C659.231 179.585 659.158 179.442 659.1 179.292C658.629 178.103 659.244 176.778 660.808 175.873Z" fill="#8789C6"/>
<path opacity="0.524" d="M660.872 175.988L663.913 173.723C664.807 173.206 668.977 170.917 669.751 171.364L676.167 170.59C676.763 170.245 679.159 171.004 679.921 171.004C681 171.249 682.038 171.649 683.001 172.194L723.585 195.354L728.818 198.342L774.671 224.505C775.198 224.81 776.782 225.975 776.876 226.489C776.975 226.635 777.059 226.79 777.126 226.953C777.622 228.121 777.047 229.432 775.493 230.328L772.231 232.179C771.337 232.694 766.796 234.239 766.02 233.792L755.933 233.664C755.337 234.009 752.903 233.232 752.146 233.232C751.056 232.981 750.008 232.575 749.035 232.025L712.182 210.836L705.409 206.94L661.755 181.84C661.213 181.526 659.568 180.313 659.482 179.78C659.39 179.65 659.311 179.511 659.246 179.365C658.725 178.208 659.312 176.887 660.872 175.988Z" fill="#8385C2"/>
<path opacity="0.571" d="M660.935 176.098L663.951 173.867C664.928 173.304 668.937 171.233 669.779 171.72L676.159 171.368C676.696 171.059 679.171 171.918 679.855 171.918C680.915 172.188 681.934 172.598 682.885 173.138L723.028 196.053L728.205 199.009L773.562 224.902C774.034 225.177 775.7 226.36 775.786 226.824C775.891 226.963 775.981 227.113 776.055 227.27C776.599 228.411 776.055 229.717 774.5 230.612L771.285 232.471C770.31 233.033 765.965 234.436 765.119 233.947L755.153 233.323C754.615 233.633 752.103 232.749 751.421 232.749C750.35 232.473 749.32 232.057 748.358 231.512L711.869 210.541L705.16 206.688L661.934 181.842C661.447 181.561 659.717 180.326 659.641 179.846C659.543 179.721 659.459 179.586 659.388 179.444C658.822 178.314 659.379 176.995 660.935 176.098Z" fill="#7F80BF"/>
<path opacity="0.619" d="M661 176.21L663.993 174.012C665.049 173.403 668.902 171.55 669.816 172.078L676.154 172.149C676.632 171.874 679.183 172.841 679.791 172.841C680.831 173.136 681.831 173.555 682.771 174.088L722.473 196.76L727.592 199.684L772.456 225.303C772.878 225.546 774.62 226.75 774.698 227.162C774.808 227.295 774.903 227.44 774.983 227.593C775.576 228.706 775.057 230.006 773.508 230.895L770.341 232.761C769.284 233.371 765.134 234.627 764.218 234.098L754.373 232.98C753.896 233.254 751.302 232.264 750.698 232.264C749.647 231.962 748.634 231.536 747.683 230.997L711.558 210.24L704.916 206.424L662.12 181.838C661.686 181.588 659.873 180.332 659.806 179.905C659.702 179.785 659.611 179.655 659.534 179.516C658.917 178.418 659.446 177.106 661 176.21Z" fill="#7B7CBC"/>
<path opacity="0.667" d="M661.064 176.32L664.028 174.157C665.166 173.501 668.86 171.866 669.845 172.434L676.146 172.927C676.564 172.688 679.191 173.761 679.722 173.761C680.741 174.08 681.723 174.508 682.652 175.036L721.914 197.462L726.978 200.354L771.348 225.698C771.718 225.911 773.538 227.136 773.607 227.495C773.721 227.623 773.823 227.761 773.91 227.909C774.551 228.994 774.059 230.29 772.513 231.181L769.395 233.054C768.256 233.711 764.303 234.824 763.317 234.255L753.592 232.641C753.173 232.881 750.504 231.784 749.973 231.784C748.941 231.457 747.947 231.022 747.006 230.487L711.245 209.95L704.67 206.176L662.301 181.844C661.922 181.625 660.026 180.35 659.965 179.977C659.857 179.861 659.76 179.735 659.677 179.6C659.012 178.522 659.513 177.214 661.064 176.32Z" fill="#7777B9"/>
<path opacity="0.714" d="M661.127 176.431L664.066 174.301C665.286 173.594 668.82 172.179 669.877 172.79L676.138 173.707C676.496 173.5 679.2 174.679 679.655 174.679C680.653 175.024 681.618 175.461 682.536 175.982L721.356 198.164L726.362 201.025L770.238 226.094C770.554 226.276 772.456 227.519 772.512 227.828C772.633 227.95 772.74 228.083 772.833 228.227C773.524 229.282 773.06 230.574 771.517 231.463L768.445 233.344C767.225 234.047 763.468 235.016 762.411 234.407L752.806 232.298C752.448 232.503 749.7 231.3 749.244 231.3C748.232 230.947 747.255 230.503 746.324 229.973L710.927 209.654L704.42 205.918L662.481 181.844C662.156 181.656 660.176 180.359 660.125 180.04C660.011 179.929 659.908 179.807 659.818 179.676C659.106 178.626 659.579 177.322 661.127 176.431Z" fill="#7373B6"/>
<path opacity="0.762" d="M661.191 176.542L664.105 174.446C665.405 173.696 668.782 172.497 669.909 173.148L676.131 174.484C676.429 174.312 679.208 175.596 679.587 175.596C680.564 175.967 681.51 176.414 682.417 176.933L720.799 198.869L725.749 201.7L769.13 226.494C769.954 226.964 770.723 227.525 771.422 228.166C771.548 228.281 771.661 228.41 771.759 228.549C772.501 229.575 772.062 230.862 770.523 231.749L767.499 233.636C766.199 234.387 762.637 235.209 761.51 234.561L752.027 231.952C751.729 232.122 748.9 230.813 748.522 230.813C747.531 230.434 746.571 229.98 745.649 229.455L710.616 209.355L704.176 205.66L662.666 181.844C662.395 181.686 660.332 180.369 660.289 180.103C660.169 179.997 660.061 179.879 659.965 179.751C659.201 178.732 659.647 177.431 661.191 176.542Z" fill="#6F6EB3"/>
<path opacity="0.81" d="M661.255 176.652L664.142 174.59C665.525 173.794 668.742 172.813 669.94 173.504L676.124 175.266C676.361 175.129 679.219 176.516 679.521 176.516C680.476 176.911 681.404 177.366 682.301 177.878L720.243 199.57L725.135 202.367L768.024 226.886C768.84 227.353 769.612 227.892 770.332 228.496C770.463 228.606 770.582 228.728 770.687 228.861C771.479 229.858 771.065 231.141 769.53 232.027L766.555 233.923C765.172 234.72 761.805 235.402 760.608 234.709L751.244 231.608C751.008 231.745 748.1 230.327 747.796 230.327C746.827 229.924 745.883 229.46 744.972 228.939L710.302 209.059L703.929 205.404L662.849 181.843C662 181.358 661.197 180.796 660.449 180.166C660.325 180.065 660.211 179.951 660.109 179.827C659.295 178.837 659.714 177.54 661.255 176.652Z" fill="#6B6AB0"/>
<path opacity="0.857" d="M661.319 176.762L664.181 174.735C665.644 173.892 668.703 173.129 669.971 173.86L676.119 176.045C676.298 175.942 679.228 177.435 679.457 177.435C679.654 177.435 682.044 178.745 682.187 178.825L719.688 200.274L724.524 203.038L766.918 227.285C767.727 227.748 768.504 228.264 769.244 228.831C769.379 228.935 769.504 229.052 769.615 229.18C770.458 230.146 770.07 231.427 768.539 232.311L765.611 234.215C764.147 235.058 760.976 235.596 759.708 234.866L750.465 231.269C750.286 231.372 747.301 229.847 747.072 229.847C746.875 229.847 744.437 228.51 744.295 228.432L709.99 208.766L703.684 205.149L663.032 181.845C662.19 181.362 661.382 180.823 660.612 180.231C660.483 180.134 660.363 180.025 660.254 179.905C659.391 178.942 659.781 177.649 661.319 176.762Z" fill="#6765AC"/>
<path opacity="0.905" d="M661.382 176.873L664.217 174.879C665.762 173.988 668.663 173.445 670.001 174.217L676.11 176.824C676.229 176.757 679.236 178.354 679.388 178.354C679.519 178.354 681.972 179.719 682.065 179.774L719.128 200.976L723.906 203.71L765.805 227.681C765.911 227.741 768.127 229.062 768.146 229.164C768.287 229.262 768.417 229.373 768.536 229.497C769.43 230.433 769.067 231.712 767.538 232.593L764.658 234.504C763.112 235.395 760.138 235.789 758.8 235.018L749.677 230.925C749.558 230.994 746.494 229.363 746.342 229.363C746.21 229.363 743.706 227.969 743.612 227.914L709.667 208.466L703.429 204.892L663.215 181.842C663.106 181.779 660.79 180.4 660.773 180.293C660.638 180.201 660.512 180.095 660.397 179.979C659.484 179.049 659.848 177.761 661.382 176.873Z" fill="#6361A9"/>
<path opacity="0.952" d="M661.447 176.986L664.258 175.026C665.884 174.089 668.626 173.763 670.034 174.576L676.104 177.606C676.165 177.571 679.248 179.274 679.323 179.274C679.399 179.274 681.906 180.694 681.952 180.722L718.575 201.68L723.292 204.382L764.699 228.079C764.752 228.108 767.048 229.449 767.058 229.5C767.203 229.592 767.34 229.697 767.465 229.815C768.41 230.718 768.072 231.996 766.546 232.876L763.711 234.793C762.085 235.73 759.305 235.982 757.896 235.17L748.894 230.581C748.835 230.616 745.691 228.878 745.616 228.878C745.542 228.878 742.98 227.427 742.933 227.399L709.356 208.168L703.185 204.63L663.391 181.839C663.337 181.808 660.937 180.407 660.929 180.354C660.788 180.266 660.657 180.166 660.535 180.053C659.577 179.158 659.916 177.868 661.447 176.986Z" fill="#5F5CA6"/>
<path d="M757.001 235.321L709.049 207.871L661.097 180.419C659.618 179.566 659.804 178.077 661.511 177.093L664.295 175.168C665.172 174.681 666.15 174.406 667.153 174.365C668.155 174.324 669.153 174.518 670.066 174.932L718.018 202.383L765.971 229.835C767.45 230.687 767.264 232.176 765.556 233.161L762.772 235.085C761.895 235.572 760.917 235.848 759.915 235.889C758.912 235.93 757.914 235.735 757.001 235.321Z" fill="#5B58A3"/>
</g>
<path d="M759.025 238.008L665.918 179.624C663.597 178.288 661.716 174.698 661.716 171.604L658.473 172.882C658.473 139.757 689.095 127.529 713.981 141.873L719.266 144.944C744.154 159.289 766.431 198.836 766.431 231.96C766.431 233.721 765.821 234.939 764.867 235.414C764.147 235.776 760.024 238.585 759.025 238.008Z" fill="url(#paint14_linear_9_78233)"/>
<path d="M757.887 237.543L661.576 182.034C659.255 180.697 657.373 177.107 657.373 174.019C657.373 140.893 684.752 129.943 709.638 144.287L714.923 147.359C739.811 161.702 762.089 201.248 762.089 234.375C762.089 237.461 760.209 238.881 757.887 237.543Z" fill="url(#paint15_linear_9_78233)"/>
<path style="mix-blend-mode:color-dodge" d="M715.022 147.066L709.735 143.994C695.471 135.773 680.399 135.876 670.119 143.686C680.37 136.447 695.053 136.557 708.96 144.572L714.247 147.643C739.134 161.987 761.411 201.533 761.411 234.66C761.475 235.703 761.164 236.735 760.533 237.569C761.535 237.124 762.187 235.893 762.187 234.083C762.186 200.955 739.908 161.408 715.022 147.066Z" fill="url(#paint16_radial_9_78233)"/>
<path d="M665.31 177.97C664.494 177.442 663.822 176.721 663.352 175.872C662.882 175.022 662.629 174.07 662.615 173.1C664.112 145.643 684.634 135.033 709.732 149.5C734.83 163.967 755.352 198.232 756.848 227.418C756.943 229.265 755.722 230.085 754.154 229.181L665.31 177.97Z" fill="#333C5E"/>
<g style="mix-blend-mode:multiply">
<path d="M755.373 228.481L666.529 177.273C665.713 176.744 665.041 176.024 664.571 175.174C664.101 174.325 663.848 173.373 663.834 172.403C664.53 159.623 669.353 150.498 676.837 145.848C668.662 150.241 663.348 159.639 662.615 173.098C662.629 174.069 662.882 175.021 663.352 175.87C663.822 176.719 664.494 177.44 665.31 177.968L754.154 229.175C755.217 229.788 756.109 229.594 756.551 228.838C756.134 228.823 755.728 228.699 755.373 228.481Z" fill="#CED3F4"/>
</g>
<path d="M729.694 198.981L743.028 195.985C735.669 179.748 723.505 164.893 709.732 156.955C688.912 144.955 671.756 152.983 669.342 174.697L685.802 184.187C688.065 172.724 697.917 168.794 709.729 175.601C717.985 180.358 725.275 189.255 729.694 198.981Z" fill="url(#paint17_linear_9_78233)"/>
<path d="M730.429 200.667C731.934 204.229 733.017 207.954 733.658 211.767L750.118 221.255C749.267 213.523 747.288 205.957 744.244 198.797L730.429 200.667Z" fill="#FFE06A"/>
<path d="M719.263 219.715C724.455 216.682 724.398 206.945 719.136 197.968C713.873 188.99 705.398 184.171 700.206 187.204C695.015 190.237 695.072 199.973 700.334 208.951C705.596 217.929 714.071 222.748 719.263 219.715Z" fill="#AFB6E5"/>
<path d="M718.618 216.98C723.038 214.398 722.989 206.109 718.509 198.465C714.029 190.822 706.814 186.719 702.394 189.301C697.974 191.883 698.023 200.173 702.503 207.816C706.983 215.459 714.198 219.562 718.618 216.98Z" fill="url(#paint18_linear_9_78233)"/>
<path d="M703.85 194.976L742.529 186.859L715.605 214.348L703.85 194.976Z" fill="url(#paint19_linear_9_78233)"/>
<path d="M703.85 194.976L742.529 186.859L709.052 205.076L703.85 194.976Z" fill="url(#paint20_linear_9_78233)"/>
<path d="M718.08 217.266C722.502 214.686 722.457 206.396 717.98 198.75C713.502 191.104 706.288 186.997 701.866 189.578C697.445 192.158 697.49 200.448 701.967 208.094C706.445 215.74 713.659 219.847 718.08 217.266Z" fill="url(#paint21_linear_9_78233)"/>
<path d="M717.846 217.3C722.266 214.718 722.217 206.429 717.737 198.786C713.257 191.142 706.042 187.039 701.621 189.622C697.201 192.204 697.25 200.493 701.73 208.136C706.21 215.78 713.426 219.883 717.846 217.3Z" fill="url(#paint22_linear_9_78233)"/>
<path style="mix-blend-mode:color-dodge" d="M709.731 190.42C706.918 188.798 704.347 188.49 702.36 189.28C704.283 188.692 706.683 189.057 709.297 190.564C715.589 194.191 720.691 202.975 720.691 210.184C720.691 214.171 719.126 216.831 716.668 217.81C719.374 216.985 721.125 214.256 721.125 210.042C721.125 202.829 716.024 194.045 709.731 190.42Z" fill="url(#paint23_radial_9_78233)"/>
<defs>
<linearGradient id="paint0_linear_9_78233" x1="780.973" y1="970.532" x2="780.973" y2="503.95" gradientUnits="userSpaceOnUse">
<stop stop-color="white" stop-opacity="0"/>
<stop offset="1" stop-color="white"/>
</linearGradient>
<linearGradient id="paint1_linear_9_78233" x1="639.727" y1="1050.08" x2="639.727" y2="188.817" gradientUnits="userSpaceOnUse">
<stop stop-color="white" stop-opacity="0"/>
<stop offset="1" stop-color="#E0E7FD"/>
</linearGradient>
<linearGradient id="paint2_linear_9_78233" x1="1286.46" y1="816.742" x2="1286.46" y2="350.72" gradientUnits="userSpaceOnUse">
<stop stop-color="white" stop-opacity="0"/>
<stop offset="1" stop-color="white"/>
</linearGradient>
<linearGradient id="paint3_linear_9_78233" x1="1215.84" y1="896.126" x2="1215.84" y2="34.8981" gradientUnits="userSpaceOnUse">
<stop stop-color="white" stop-opacity="0"/>
<stop offset="1" stop-color="#E0E7FD"/>
</linearGradient>
<linearGradient id="paint4_linear_9_78233" x1="1404.68" y1="816.333" x2="1404.68" y2="350.313" gradientUnits="userSpaceOnUse">
<stop stop-color="white" stop-opacity="0"/>
<stop offset="1" stop-color="white"/>
</linearGradient>
<linearGradient id="paint5_linear_9_78233" x1="1334.07" y1="896.288" x2="1334.07" y2="35.0645" gradientUnits="userSpaceOnUse">
<stop stop-color="white" stop-opacity="0"/>
<stop offset="1" stop-color="#E0E7FD"/>
</linearGradient>
<linearGradient id="paint6_linear_9_78233" x1="153.533" y1="880.638" x2="153.533" y2="19.4098" gradientUnits="userSpaceOnUse">
<stop stop-color="white" stop-opacity="0"/>
<stop offset="1" stop-color="#E0E7FD"/>
</linearGradient>
<linearGradient id="paint7_linear_9_78233" x1="224.158" y1="801.254" x2="224.158" y2="335.231" gradientUnits="userSpaceOnUse">
<stop stop-color="white" stop-opacity="0"/>
<stop offset="1" stop-color="white"/>
</linearGradient>
<linearGradient id="paint8_linear_9_78233" x1="35.3113" y1="880.798" x2="35.3113" y2="19.5762" gradientUnits="userSpaceOnUse">
<stop stop-color="white" stop-opacity="0"/>
<stop offset="1" stop-color="#E0E7FD"/>
</linearGradient>
<linearGradient id="paint9_linear_9_78233" x1="105.934" y1="800.844" x2="105.934" y2="334.825" gradientUnits="userSpaceOnUse">
<stop stop-color="white" stop-opacity="0"/>
<stop offset="1" stop-color="white"/>
</linearGradient>
<linearGradient id="paint10_linear_9_78233" x1="1078.08" y1="776.233" x2="1078.08" y2="310.445" gradientUnits="userSpaceOnUse">
<stop stop-color="white" stop-opacity="0"/>
<stop offset="1" stop-color="white"/>
</linearGradient>
<linearGradient id="paint11_linear_9_78233" x1="936.832" y1="855.757" x2="936.832" y2="-5.38238" gradientUnits="userSpaceOnUse">
<stop stop-color="white" stop-opacity="0"/>
<stop offset="1" stop-color="#E0E7FD"/>
</linearGradient>
<linearGradient id="paint12_linear_9_78233" x1="483.868" y1="776.234" x2="483.868" y2="309.948" gradientUnits="userSpaceOnUse">
<stop stop-color="white" stop-opacity="0"/>
<stop offset="1" stop-color="white"/>
</linearGradient>
<linearGradient id="paint13_linear_9_78233" x1="342.623" y1="855.757" x2="342.623" y2="-5.38238" gradientUnits="userSpaceOnUse">
<stop stop-color="white" stop-opacity="0"/>
<stop offset="1" stop-color="#E0E7FD"/>
</linearGradient>
<linearGradient id="paint14_linear_9_78233" x1="692.048" y1="153.823" x2="745.399" y2="258.029" gradientUnits="userSpaceOnUse">
<stop stop-color="white"/>
<stop offset="1" stop-color="#C8CEDE"/>
</linearGradient>
<linearGradient id="paint15_linear_9_78233" x1="689.102" y1="219.659" x2="738.865" y2="158.997" gradientUnits="userSpaceOnUse">
<stop stop-color="#AFB6E5"/>
<stop offset="0.145" stop-color="#B5BCE8"/>
<stop offset="0.349" stop-color="#C7CDF0"/>
<stop offset="0.581" stop-color="#E5E9FF"/>
<stop offset="0.955" stop-color="#F4F4FB"/>
<stop offset="1" stop-color="#F7F6FB"/>
</linearGradient>
<radialGradient id="paint16_radial_9_78233" cx="0" cy="0" r="1" gradientUnits="userSpaceOnUse" gradientTransform="translate(777.559 187.698) scale(48.0488 47.9753)">
<stop stop-color="white"/>
<stop offset="1"/>
</radialGradient>
<linearGradient id="paint17_linear_9_78233" x1="630.509" y1="119.295" x2="684.96" y2="221.289" gradientUnits="userSpaceOnUse">
<stop stop-color="#AFB6E5"/>
<stop offset="0.145" stop-color="#B5BCE8"/>
<stop offset="0.349" stop-color="#C7CDF0"/>
<stop offset="0.581" stop-color="#E5E9FF"/>
<stop offset="0.855" stop-color="#F4F6FF"/>
<stop offset="1" stop-color="white"/>
</linearGradient>
<linearGradient id="paint18_linear_9_78233" x1="697.403" y1="195.413" x2="724.24" y2="195.695" gradientUnits="userSpaceOnUse">
<stop stop-color="#BCC2EB"/>
<stop offset="0.192" stop-color="#C6CCF0"/>
<stop offset="0.277" stop-color="#D0D4F0"/>
<stop offset="0.283" stop-color="#D1D5F0"/>
<stop offset="0.361" stop-color="#BDC3E9"/>
<stop offset="0.409" stop-color="#AFB6E5"/>
<stop offset="0.909" stop-color="#AFB6E5"/>
<stop offset="0.988" stop-color="#B9C0EA"/>
<stop offset="1" stop-color="#BCC2EB"/>
</linearGradient>
<linearGradient id="paint19_linear_9_78233" x1="-1367.84" y1="6061.75" x2="-1400.22" y2="6126.2" gradientUnits="userSpaceOnUse">
<stop stop-color="#AFB6E5"/>
<stop offset="0.145" stop-color="#B5BCE8"/>
<stop offset="0.349" stop-color="#C7CDF0"/>
<stop offset="0.581" stop-color="#E5E9FF"/>
<stop offset="0.955" stop-color="#F4F4FB"/>
<stop offset="1" stop-color="#F7F6FB"/>
</linearGradient>
<linearGradient id="paint20_linear_9_78233" x1="714.757" y1="175.674" x2="717.605" y2="199.284" gradientUnits="userSpaceOnUse">
<stop stop-color="#AFB6E5"/>
<stop offset="0.145" stop-color="#B5BCE8"/>
<stop offset="0.349" stop-color="#C7CDF0"/>
<stop offset="0.581" stop-color="#E5E9FF"/>
<stop offset="0.955" stop-color="#F4F4FB"/>
<stop offset="1" stop-color="#F7F6FB"/>
</linearGradient>
<linearGradient id="paint21_linear_9_78233" x1="1456.21" y1="2376.97" x2="1431.76" y2="2405" gradientUnits="userSpaceOnUse">
<stop stop-color="#BCC2EB"/>
<stop offset="0.192" stop-color="#C6CCF0"/>
<stop offset="0.277" stop-color="#D0D4F0"/>
<stop offset="0.283" stop-color="#D1D5F0"/>
<stop offset="0.361" stop-color="#BDC3E9"/>
<stop offset="0.409" stop-color="#AFB6E5"/>
<stop offset="0.909" stop-color="#AFB6E5"/>
<stop offset="0.988" stop-color="#B9C0EA"/>
<stop offset="1" stop-color="#BCC2EB"/>
</linearGradient>
<linearGradient id="paint22_linear_9_78233" x1="709.034" y1="229.248" x2="725.614" y2="202.147" gradientUnits="userSpaceOnUse">
<stop stop-color="#AFB6E5"/>
<stop offset="0.145" stop-color="#B5BCE8"/>
<stop offset="0.349" stop-color="#C7CDF0"/>
<stop offset="0.581" stop-color="#E5E9FF"/>
<stop offset="0.955" stop-color="#F4F4FB"/>
<stop offset="1" stop-color="#F7F6FB"/>
</linearGradient>
<radialGradient id="paint23_radial_9_78233" cx="0" cy="0" r="1" gradientUnits="userSpaceOnUse" gradientTransform="translate(1098.74 203.337) scale(12.2051 12.1867)">
<stop stop-color="white"/>
<stop offset="1"/>
</radialGradient>
</defs>
</svg>
