<svg width="1440" height="986" viewBox="0 0 1440 986" fill="none" xmlns="http://www.w3.org/2000/svg">
<path d="M710.352 294.703L569.105 213.291L710.348 131.883L851.595 213.294L710.352 294.703Z" fill="#F2F5FC"/>
<path d="M710.352 978.181V294.702L851.597 213.293V978.181H710.352Z" fill="url(#paint0_linear_9_95968)"/>
<path d="M710.351 978.181V294.702L569.105 213.293V978.181H710.351Z" fill="url(#paint1_linear_9_95968)"/>
<g opacity="0.4">
<path d="M1251.15 275.489L1180.53 234.783L1251.15 194.078L1321.78 234.784L1251.15 275.489Z" fill="#F2F5FC"/>
<path d="M1251.15 805.89V275.489L1321.78 234.785V805.891L1251.15 805.89Z" fill="url(#paint2_linear_9_95968)"/>
<path d="M1251.15 805.89V275.489L1180.53 234.785V805.891L1251.15 805.89Z" fill="url(#paint3_linear_9_95968)"/>
</g>
<g opacity="0.2">
<path d="M1369.38 96.8993L1298.75 56.1934L1369.37 15.4883L1440 56.1942L1369.38 96.8993Z" fill="#F9FAFC"/>
<path d="M1369.37 627.298V96.9004L1439.99 56.1953V627.298H1369.37Z" fill="url(#paint4_linear_9_95968)"/>
<path d="M1369.38 627.298V96.9004L1298.75 56.1953V627.298H1369.38Z" fill="url(#paint5_linear_9_95968)"/>
</g>
<g opacity="0.4">
<path d="M188.845 260.001L259.468 219.295L188.846 178.59L118.219 219.296L188.845 260.001Z" fill="#F2F5FC"/>
<path d="M188.845 790.402V260.001L118.219 219.297V790.403L188.845 790.402Z" fill="url(#paint6_linear_9_95968)"/>
<path d="M188.846 790.402V260.001L259.468 219.297V790.403L188.846 790.402Z" fill="url(#paint7_linear_9_95968)"/>
</g>
<g opacity="0.2">
<path d="M70.621 81.4102L141.244 40.7043L70.6234 0L0 40.7059L70.621 81.4102Z" fill="#F2F5FC"/>
<path d="M70.6226 611.809V81.4114L0 40.707V611.809H70.6226Z" fill="url(#paint8_linear_9_95968)"/>
<path d="M70.623 611.809V81.4114L141.246 40.707V611.809H70.623Z" fill="url(#paint9_linear_9_95968)"/>
</g>
<path d="M1007.46 417.984L866.207 336.573L1007.45 255.164L1148.7 336.575L1007.46 417.984Z" fill="#F2F5FC"/>
<path d="M1007.45 904.608V417.983L1148.7 336.574V904.608H1007.45Z" fill="url(#paint10_linear_9_95968)"/>
<path d="M1007.45 904.608V417.983L866.207 336.574V904.608H1007.45Z" fill="url(#paint11_linear_9_95968)"/>
<path d="M413.245 417.984L272 336.573L413.245 255.164L554.491 336.575L413.245 417.984Z" fill="#F2F5FC"/>
<path d="M413.244 986.002V417.987L554.489 336.578V986.002H413.244Z" fill="url(#paint12_linear_9_95968)"/>
<path d="M413.245 904.608V417.983L272 336.574V904.608H413.245Z" fill="url(#paint13_linear_9_95968)"/>
<g opacity="0.2">
<path opacity="0.048" d="M660.232 174.881L663.532 172.276C663.61 172.229 669.367 167.757 669.439 167.794L676.237 162.792C677.583 162.109 679.079 161.772 680.588 161.812C681.839 161.807 683.071 162.118 684.17 162.715L729.153 188.323L734.957 191.626L785.747 220.541C786.249 220.811 786.69 221.183 787.041 221.631C787.392 222.08 787.647 222.597 787.788 223.149C787.832 223.356 787.859 223.566 787.867 223.778C787.843 224.562 787.604 225.325 787.176 225.982C786.747 226.639 786.146 227.166 785.437 227.505L781.698 229.279C781.619 229.327 775.116 232.306 775.046 232.267L763.753 237.098C762.406 237.781 760.91 238.117 759.399 238.076C758.147 238.08 756.914 237.769 755.814 237.172L715.321 213.806L707.873 209.508L659.925 181.849C659.409 181.572 658.958 181.188 658.603 180.722C658.248 180.257 657.996 179.722 657.864 179.152C657.831 178.973 657.81 178.792 657.803 178.611C657.825 177.826 658.063 177.063 658.492 176.404C658.92 175.746 659.523 175.219 660.232 174.881Z" fill="#ABB2E2"/>
<path opacity="0.095" d="M660.296 174.99L663.57 172.42C663.733 172.326 669.328 168.071 669.469 168.153L676.229 163.573C677.571 162.953 679.043 162.665 680.521 162.732C681.756 162.752 682.968 163.072 684.052 163.663L728.595 189.027L734.345 192.299L784.642 220.94C785.636 221.486 786.376 222.4 786.699 223.486C786.747 223.687 786.778 223.891 786.794 224.097C786.881 225.512 786.032 226.873 784.444 227.792L780.751 229.576C780.588 229.668 774.285 232.506 774.144 232.425L762.972 236.759C761.627 237.378 760.153 237.665 758.674 237.596C757.436 237.575 756.223 237.254 755.137 236.661L715.007 213.513L707.626 209.255L660.112 181.848C659.606 181.57 659.161 181.194 658.803 180.742C658.446 180.29 658.182 179.77 658.03 179.215C657.992 179.04 657.965 178.864 657.951 178.686C657.854 177.268 658.708 175.904 660.296 174.99Z" fill="#A7ADDF"/>
<path opacity="0.143" d="M660.363 175.103L663.611 172.566C663.855 172.426 669.292 168.39 669.504 168.511L676.225 164.354C677.299 163.735 679.093 163.652 680.458 163.652C681.677 163.697 682.87 164.026 683.94 164.613L728.044 189.732L733.734 192.973L783.537 221.339C784.511 221.883 785.25 222.767 785.611 223.822C785.662 224.017 785.7 224.216 785.723 224.416C785.854 225.803 785.037 227.16 783.452 228.074L779.807 229.864C779.564 230.005 773.456 232.695 773.244 232.576L762.194 236.415C761.12 237.033 759.317 237.11 757.953 237.11C756.73 237.064 755.535 236.734 754.463 236.146L714.698 213.215L707.384 208.998L660.299 181.848C659.297 181.287 658.546 180.369 658.195 179.278C658.154 179.108 658.121 178.936 658.099 178.762C657.952 177.376 658.775 176.017 660.363 175.103Z" fill="#A3A9DC"/>
<path opacity="0.19" d="M660.424 175.213L663.645 172.71C663.97 172.523 669.249 168.705 669.531 168.867L676.214 165.133C677.228 164.548 679.097 164.57 680.388 164.57C681.592 164.64 682.764 164.978 683.82 165.56L727.483 190.434L733.116 193.643L782.424 221.734C783.012 222.013 783.523 222.433 783.911 222.956C784.298 223.479 784.55 224.09 784.645 224.734C784.819 226.092 784.033 227.444 782.453 228.355L778.857 230.153C778.531 230.341 772.619 232.89 772.337 232.728L761.406 236.071C760.392 236.655 758.51 236.626 757.222 236.626C756.014 236.555 754.838 236.215 753.78 235.631L714.376 212.918L707.131 208.741L660.474 181.848C659.492 181.289 658.739 180.402 658.348 179.343C658.308 179.174 658.258 179.01 658.233 178.839C658.048 177.48 658.841 176.125 660.424 175.213Z" fill="#9FA4D8"/>
<path opacity="0.238" d="M660.487 175.322L663.684 172.854C664.091 172.618 669.21 169.019 669.562 169.223L676.207 165.912C677.161 165.361 679.107 165.49 680.32 165.49C681.507 165.583 682.659 165.93 683.701 166.506L726.923 191.136L732.499 194.314L781.314 222.13C782.251 222.671 782.99 223.497 783.422 224.488C783.481 224.673 783.53 224.86 783.569 225.05C783.788 226.382 783.034 227.728 781.457 228.637L777.908 230.446C777.501 230.682 771.785 233.086 771.432 232.883L760.622 235.73C759.668 236.281 757.708 236.145 756.494 236.145C755.302 236.048 754.145 235.7 753.099 235.122L714.061 212.619L706.882 208.482L660.654 181.844C659.693 181.286 658.939 180.43 658.509 179.406C658.465 179.241 658.407 179.083 658.378 178.915C658.143 177.581 658.908 176.232 660.487 175.322Z" fill="#9BA0D5"/>
<path opacity="0.286" d="M660.552 175.435L663.722 172.998C664.21 172.717 669.171 169.335 669.593 169.579L676.201 166.69C677.094 166.175 679.115 166.408 680.253 166.408C681.424 166.527 682.557 166.883 683.585 167.454L726.367 191.838L731.887 194.984L780.207 222.525C781.127 223.065 781.867 223.864 782.334 224.822C782.388 225.005 782.459 225.182 782.497 225.367C782.762 226.672 782.039 228.012 780.465 228.92L776.963 230.732C776.476 231.014 770.955 233.276 770.533 233.032L759.843 235.384C758.947 235.9 756.908 235.656 755.771 235.656C754.595 235.534 753.456 235.175 752.424 234.6L713.753 212.324L706.641 208.227L660.843 181.845C659.898 181.288 659.143 180.459 658.676 179.468C658.629 179.306 658.562 179.153 658.526 178.989C658.244 177.688 658.976 176.343 660.552 175.435Z" fill="#979BD2"/>
<path opacity="0.333" d="M660.615 175.543L663.76 173.143C664.33 172.814 669.132 169.651 669.625 169.936L676.193 167.469C677.028 166.989 679.125 167.326 680.187 167.326C681.34 167.47 682.454 167.835 683.468 168.401L725.81 192.539L731.273 195.652L779.1 222.919C780.003 223.456 780.743 224.228 781.241 225.153C781.299 225.333 781.379 225.501 781.423 225.681C781.733 226.959 781.041 228.293 779.471 229.199L776.017 231.018C775.448 231.347 770.122 233.465 769.63 233.181L759.06 235.037C758.226 235.519 756.107 235.168 755.044 235.168C753.884 235.02 752.764 234.652 751.744 234.082L713.435 212.023L706.391 207.971L661.021 181.845C660.093 181.289 659.336 180.488 658.833 179.531C658.784 179.374 658.707 179.224 658.666 179.065C658.339 177.789 659.043 176.45 660.615 175.543Z" fill="#9397CF"/>
<path opacity="0.381" d="M660.678 175.657L663.797 173.29C664.447 172.915 669.092 169.969 669.655 170.295L676.185 168.251C676.961 167.803 679.134 168.247 680.119 168.247C681.253 168.415 682.347 168.788 683.348 169.347L725.247 193.243L730.653 196.325L777.987 223.317C778.875 223.852 779.616 224.598 780.145 225.489C780.206 225.664 780.295 225.826 780.344 226.001C780.7 227.251 780.037 228.58 778.471 229.483L775.065 231.311C774.415 231.686 769.285 233.661 768.722 233.336L758.273 234.696C757.498 235.143 755.302 234.687 754.315 234.687C753.172 234.513 752.071 234.135 751.063 233.571L713.117 211.729L706.139 207.713L661.199 181.845C660.286 181.291 659.526 180.517 658.99 179.595C658.938 179.437 658.852 179.297 658.805 179.141C658.437 177.896 659.112 176.561 660.678 175.657Z" fill="#8F92CC"/>
<path opacity="0.429" d="M660.745 175.765L663.838 173.432C664.568 173.01 669.055 170.287 669.689 170.649L676.181 169.029C676.896 168.617 679.145 169.164 680.055 169.164C681.172 169.358 682.248 169.741 683.236 170.296L724.697 193.947L730.046 196.997L776.886 223.712C777.759 224.244 778.502 224.964 779.06 225.82C779.124 225.993 779.218 226.147 779.277 226.317C779.678 227.538 779.046 228.861 777.484 229.764L774.125 231.599C773.394 232.02 768.46 233.851 767.825 233.486L757.496 234.351C756.781 234.763 754.503 234.2 753.595 234.2C752.469 234.001 751.385 233.614 750.389 233.054L712.808 211.432L705.898 207.457L661.386 181.844C660.734 181.469 659.259 180.296 659.155 179.658C659.074 179.518 659.006 179.37 658.954 179.217C658.533 177.998 659.178 176.668 660.745 175.765Z" fill="#8B8EC9"/>
<path opacity="0.476" d="M660.808 175.873L663.875 173.573C664.689 173.101 669.016 170.596 669.72 171.003L676.173 169.805C676.829 169.427 679.154 170.08 679.988 170.08C681.087 170.299 682.143 170.691 683.119 171.24L724.142 194.646L729.433 197.666L775.778 224.109C776.359 224.444 777.863 225.588 777.97 226.153C778.065 226.304 778.144 226.465 778.206 226.633C778.655 227.828 778.049 229.149 776.492 230.045L773.184 231.888C772.37 232.36 767.633 234.044 766.929 233.638L756.721 234.006C756.065 234.384 753.71 233.714 752.877 233.714C751.769 233.489 750.703 233.091 749.719 232.535L712.497 211.136L705.653 207.2L661.571 181.844C660.973 181.499 659.413 180.307 659.318 179.721C659.231 179.585 659.158 179.442 659.1 179.292C658.629 178.103 659.244 176.778 660.808 175.873Z" fill="#8789C6"/>
<path opacity="0.524" d="M660.872 175.988L663.913 173.723C664.807 173.206 668.977 170.917 669.751 171.364L676.167 170.59C676.763 170.245 679.159 171.004 679.921 171.004C681 171.249 682.038 171.649 683.001 172.194L723.585 195.354L728.818 198.342L774.671 224.505C775.198 224.81 776.782 225.975 776.876 226.489C776.975 226.635 777.059 226.79 777.126 226.953C777.622 228.121 777.047 229.432 775.493 230.328L772.231 232.179C771.337 232.694 766.796 234.239 766.02 233.792L755.933 233.664C755.337 234.009 752.903 233.232 752.146 233.232C751.056 232.981 750.008 232.575 749.035 232.025L712.182 210.836L705.409 206.94L661.755 181.84C661.213 181.526 659.568 180.313 659.482 179.78C659.39 179.65 659.311 179.511 659.246 179.365C658.725 178.208 659.312 176.887 660.872 175.988Z" fill="#8385C2"/>
<path opacity="0.571" d="M660.935 176.098L663.951 173.867C664.928 173.304 668.937 171.233 669.779 171.72L676.159 171.368C676.696 171.059 679.171 171.918 679.855 171.918C680.915 172.188 681.934 172.598 682.885 173.138L723.028 196.053L728.205 199.009L773.562 224.902C774.034 225.177 775.7 226.36 775.786 226.824C775.891 226.963 775.981 227.113 776.055 227.27C776.599 228.411 776.055 229.717 774.5 230.612L771.285 232.471C770.31 233.033 765.965 234.436 765.119 233.947L755.153 233.323C754.615 233.633 752.103 232.749 751.421 232.749C750.35 232.473 749.32 232.057 748.358 231.512L711.869 210.541L705.16 206.688L661.934 181.842C661.447 181.561 659.717 180.326 659.641 179.846C659.543 179.721 659.459 179.586 659.388 179.444C658.822 178.314 659.379 176.995 660.935 176.098Z" fill="#7F80BF"/>
<path opacity="0.619" d="M660.999 176.21L663.992 174.012C665.049 173.403 668.901 171.55 669.815 172.078L676.153 172.149C676.631 171.874 679.182 172.841 679.79 172.841C680.83 173.136 681.83 173.555 682.77 174.088L722.472 196.76L727.591 199.684L772.455 225.303C772.877 225.546 774.62 226.75 774.697 227.162C774.807 227.295 774.902 227.44 774.982 227.593C775.575 228.706 775.056 230.006 773.507 230.895L770.34 232.761C769.283 233.371 765.133 234.627 764.217 234.098L754.372 232.98C753.895 233.254 751.301 232.264 750.697 232.264C749.646 231.962 748.633 231.536 747.682 230.997L711.557 210.24L704.915 206.424L662.119 181.838C661.685 181.588 659.872 180.332 659.805 179.905C659.701 179.785 659.61 179.655 659.533 179.516C658.916 178.418 659.445 177.106 660.999 176.21Z" fill="#7B7CBC"/>
<path opacity="0.667" d="M661.063 176.32L664.027 174.157C665.166 173.501 668.859 171.866 669.845 172.434L676.145 172.927C676.563 172.688 679.19 173.761 679.721 173.761C680.74 174.08 681.722 174.508 682.651 175.036L721.913 197.462L726.977 200.354L771.347 225.698C771.717 225.911 773.537 227.136 773.606 227.495C773.72 227.623 773.822 227.761 773.909 227.909C774.55 228.994 774.058 230.29 772.512 231.181L769.394 233.054C768.256 233.711 764.302 234.824 763.316 234.255L753.591 232.641C753.172 232.881 750.503 231.784 749.973 231.784C748.94 231.457 747.946 231.022 747.005 230.487L711.244 209.95L704.669 206.176L662.3 181.844C661.921 181.625 660.025 180.35 659.964 179.977C659.856 179.861 659.759 179.735 659.676 179.6C659.011 178.522 659.512 177.214 661.063 176.32Z" fill="#7777B9"/>
<path opacity="0.714" d="M661.127 176.431L664.066 174.301C665.286 173.594 668.82 172.179 669.877 172.79L676.138 173.707C676.496 173.5 679.2 174.679 679.655 174.679C680.653 175.024 681.618 175.461 682.536 175.982L721.356 198.164L726.362 201.025L770.238 226.094C770.554 226.276 772.456 227.519 772.512 227.828C772.633 227.95 772.74 228.083 772.833 228.227C773.524 229.282 773.06 230.574 771.517 231.463L768.445 233.344C767.225 234.047 763.468 235.016 762.411 234.407L752.806 232.298C752.448 232.503 749.7 231.3 749.244 231.3C748.232 230.947 747.255 230.503 746.324 229.973L710.927 209.654L704.42 205.918L662.481 181.844C662.156 181.656 660.176 180.359 660.125 180.04C660.011 179.929 659.908 179.807 659.818 179.676C659.106 178.626 659.579 177.322 661.127 176.431Z" fill="#7373B6"/>
<path opacity="0.762" d="M661.191 176.542L664.105 174.446C665.405 173.696 668.782 172.497 669.909 173.148L676.131 174.484C676.429 174.312 679.208 175.596 679.587 175.596C680.564 175.967 681.51 176.414 682.417 176.933L720.799 198.869L725.749 201.7L769.13 226.494C769.954 226.964 770.723 227.525 771.422 228.166C771.548 228.281 771.661 228.41 771.759 228.549C772.501 229.575 772.062 230.862 770.523 231.749L767.499 233.636C766.199 234.387 762.637 235.209 761.51 234.561L752.027 231.952C751.729 232.122 748.9 230.813 748.522 230.813C747.531 230.434 746.571 229.98 745.649 229.455L710.616 209.355L704.176 205.66L662.666 181.844C662.395 181.686 660.332 180.369 660.289 180.103C660.169 179.997 660.061 179.879 659.965 179.751C659.201 178.732 659.647 177.431 661.191 176.542Z" fill="#6F6EB3"/>
<path opacity="0.81" d="M661.256 176.652L664.143 174.59C665.526 173.794 668.743 172.813 669.941 173.504L676.125 175.266C676.362 175.129 679.22 176.516 679.522 176.516C680.477 176.911 681.405 177.366 682.302 177.878L720.244 199.57L725.136 202.367L768.025 226.886C768.841 227.353 769.613 227.892 770.333 228.496C770.464 228.606 770.583 228.728 770.688 228.861C771.48 229.858 771.066 231.141 769.531 232.027L766.556 233.923C765.173 234.72 761.806 235.402 760.609 234.709L751.245 231.608C751.009 231.745 748.101 230.327 747.797 230.327C746.828 229.924 745.884 229.46 744.973 228.939L710.303 209.059L703.93 205.404L662.85 181.843C662.001 181.358 661.198 180.796 660.45 180.166C660.326 180.065 660.212 179.951 660.11 179.827C659.296 178.837 659.715 177.54 661.256 176.652Z" fill="#6B6AB0"/>
<path opacity="0.857" d="M661.32 176.762L664.182 174.735C665.645 173.892 668.704 173.129 669.972 173.86L676.12 176.045C676.299 175.942 679.229 177.435 679.458 177.435C679.655 177.435 682.045 178.745 682.188 178.825L719.689 200.274L724.525 203.038L766.919 227.285C767.728 227.748 768.505 228.264 769.245 228.831C769.38 228.935 769.505 229.052 769.616 229.18C770.459 230.146 770.071 231.427 768.54 232.311L765.612 234.215C764.148 235.058 760.977 235.596 759.709 234.866L750.465 231.269C750.287 231.372 747.302 229.847 747.073 229.847C746.876 229.847 744.438 228.51 744.296 228.432L709.991 208.766L703.685 205.149L663.033 181.845C662.191 181.362 661.383 180.823 660.613 180.231C660.484 180.134 660.364 180.025 660.255 179.905C659.392 178.942 659.782 177.649 661.32 176.762Z" fill="#6765AC"/>
<path opacity="0.905" d="M661.382 176.873L664.217 174.879C665.762 173.988 668.663 173.445 670.001 174.217L676.11 176.824C676.229 176.757 679.236 178.354 679.388 178.354C679.519 178.354 681.972 179.719 682.065 179.774L719.128 200.976L723.906 203.71L765.805 227.681C765.911 227.741 768.127 229.062 768.146 229.164C768.287 229.262 768.417 229.373 768.536 229.497C769.43 230.433 769.067 231.712 767.538 232.593L764.658 234.504C763.112 235.395 760.138 235.789 758.8 235.018L749.677 230.925C749.558 230.994 746.494 229.363 746.342 229.363C746.21 229.363 743.706 227.969 743.612 227.914L709.667 208.466L703.429 204.892L663.215 181.842C663.106 181.779 660.79 180.4 660.773 180.293C660.638 180.201 660.512 180.095 660.397 179.979C659.484 179.049 659.848 177.761 661.382 176.873Z" fill="#6361A9"/>
<path opacity="0.952" d="M661.448 176.986L664.258 175.026C665.885 174.089 668.627 173.763 670.035 174.576L676.105 177.606C676.166 177.571 679.249 179.274 679.324 179.274C679.4 179.274 681.907 180.694 681.953 180.722L718.576 201.68L723.293 204.382L764.7 228.079C764.753 228.108 767.049 229.449 767.059 229.5C767.204 229.592 767.341 229.697 767.466 229.815C768.411 230.718 768.073 231.996 766.547 232.876L763.712 234.793C762.086 235.73 759.306 235.982 757.897 235.17L748.895 230.581C748.836 230.616 745.692 228.878 745.617 228.878C745.543 228.878 742.981 227.427 742.934 227.399L709.357 208.168L703.186 204.63L663.392 181.839C663.338 181.808 660.938 180.407 660.93 180.354C660.789 180.266 660.658 180.166 660.536 180.053C659.578 179.158 659.917 177.868 661.448 176.986Z" fill="#5F5CA6"/>
<path d="M757 235.321L709.048 207.871L661.096 180.419C659.617 179.566 659.803 178.077 661.51 177.093L664.294 175.168C665.171 174.681 666.149 174.406 667.152 174.365C668.154 174.324 669.152 174.518 670.065 174.932L718.017 202.383L765.97 229.835C767.449 230.687 767.263 232.176 765.555 233.161L762.771 235.085C761.894 235.572 760.916 235.848 759.914 235.889C758.911 235.93 757.913 235.735 757 235.321Z" fill="#5B58A3"/>
</g>
<path d="M759.025 238.008L665.918 179.624C663.597 178.288 661.716 174.698 661.716 171.604L658.473 172.882C658.473 139.757 689.095 127.529 713.981 141.873L719.266 144.944C744.154 159.289 766.431 198.836 766.431 231.96C766.431 233.721 765.821 234.939 764.867 235.414C764.147 235.776 760.024 238.585 759.025 238.008Z" fill="url(#paint14_linear_9_95968)"/>
<path d="M757.887 237.543L661.576 182.034C659.255 180.697 657.373 177.107 657.373 174.019C657.373 140.893 684.752 129.943 709.638 144.287L714.923 147.359C739.811 161.702 762.089 201.248 762.089 234.375C762.089 237.461 760.209 238.881 757.887 237.543Z" fill="url(#paint15_linear_9_95968)"/>
<path style="mix-blend-mode:color-dodge" d="M715.022 147.066L709.735 143.994C695.471 135.773 680.399 135.876 670.119 143.686C680.37 136.447 695.053 136.557 708.96 144.572L714.247 147.643C739.134 161.987 761.411 201.533 761.411 234.66C761.475 235.703 761.164 236.735 760.533 237.569C761.535 237.124 762.187 235.893 762.187 234.083C762.186 200.955 739.908 161.408 715.022 147.066Z" fill="url(#paint16_radial_9_95968)"/>
<path d="M665.31 177.97C664.494 177.442 663.822 176.721 663.352 175.872C662.882 175.022 662.629 174.07 662.615 173.1C664.112 145.643 684.634 135.033 709.732 149.5C734.83 163.967 755.352 198.232 756.848 227.418C756.943 229.265 755.722 230.085 754.154 229.181L665.31 177.97Z" fill="#333C5E"/>
<g style="mix-blend-mode:multiply">
<path d="M755.373 228.481L666.529 177.273C665.713 176.744 665.041 176.024 664.571 175.174C664.101 174.325 663.848 173.373 663.834 172.403C664.53 159.623 669.353 150.498 676.837 145.848C668.662 150.241 663.348 159.639 662.615 173.098C662.629 174.069 662.882 175.021 663.352 175.87C663.822 176.719 664.494 177.44 665.31 177.968L754.154 229.175C755.217 229.788 756.109 229.594 756.551 228.838C756.134 228.823 755.728 228.699 755.373 228.481Z" fill="#CED3F4"/>
</g>
<path d="M729.694 198.981L743.028 195.985C735.669 179.748 723.505 164.893 709.732 156.955C688.912 144.955 671.756 152.983 669.342 174.697L685.802 184.187C688.065 172.724 697.917 168.794 709.729 175.601C717.985 180.358 725.275 189.255 729.694 198.981Z" fill="url(#paint17_linear_9_95968)"/>
<path d="M730.43 200.667C731.935 204.229 733.018 207.954 733.659 211.767L750.119 221.255C749.268 213.523 747.289 205.957 744.245 198.797L730.43 200.667Z" fill="#FFE06A"/>
<path d="M719.262 219.715C724.454 216.682 724.397 206.945 719.135 197.968C713.872 188.99 705.397 184.171 700.205 187.204C695.014 190.237 695.071 199.973 700.333 208.951C705.595 217.929 714.07 222.748 719.262 219.715Z" fill="#AFB6E5"/>
<path d="M718.618 216.98C723.038 214.398 722.989 206.109 718.509 198.465C714.029 190.822 706.814 186.719 702.394 189.301C697.974 191.883 698.023 200.173 702.503 207.816C706.983 215.459 714.198 219.562 718.618 216.98Z" fill="url(#paint18_linear_9_95968)"/>
<path d="M703.85 194.976L742.529 186.859L715.605 214.348L703.85 194.976Z" fill="url(#paint19_linear_9_95968)"/>
<path d="M703.85 194.976L742.529 186.859L709.052 205.076L703.85 194.976Z" fill="url(#paint20_linear_9_95968)"/>
<path d="M718.079 217.266C722.501 214.686 722.456 206.396 717.979 198.75C713.501 191.104 706.287 186.997 701.866 189.578C697.444 192.158 697.489 200.448 701.966 208.094C706.444 215.74 713.658 219.847 718.079 217.266Z" fill="url(#paint21_linear_9_95968)"/>
<path d="M717.845 217.3C722.265 214.718 722.216 206.429 717.736 198.786C713.256 191.142 706.041 187.039 701.62 189.622C697.2 192.204 697.249 200.493 701.729 208.136C706.209 215.78 713.425 219.883 717.845 217.3Z" fill="url(#paint22_linear_9_95968)"/>
<path style="mix-blend-mode:color-dodge" d="M709.73 190.416C706.917 188.794 704.346 188.486 702.359 189.276C704.282 188.688 706.682 189.053 709.296 190.56C715.588 194.187 720.69 202.971 720.69 210.18C720.69 214.167 719.125 216.828 716.667 217.806C719.373 216.981 721.124 214.253 721.124 210.038C721.124 202.825 716.023 194.041 709.73 190.416Z" fill="url(#paint23_radial_9_95968)"/>
<defs>
<linearGradient id="paint0_linear_9_95968" x1="780.974" y1="970.532" x2="780.974" y2="503.95" gradientUnits="userSpaceOnUse">
<stop stop-color="white" stop-opacity="0"/>
<stop offset="1" stop-color="white"/>
</linearGradient>
<linearGradient id="paint1_linear_9_95968" x1="639.728" y1="1050.08" x2="639.728" y2="188.817" gradientUnits="userSpaceOnUse">
<stop stop-color="white" stop-opacity="0"/>
<stop offset="1" stop-color="#E0E7FD"/>
</linearGradient>
<linearGradient id="paint2_linear_9_95968" x1="1286.46" y1="816.742" x2="1286.46" y2="350.72" gradientUnits="userSpaceOnUse">
<stop stop-color="white" stop-opacity="0"/>
<stop offset="1" stop-color="white"/>
</linearGradient>
<linearGradient id="paint3_linear_9_95968" x1="1215.84" y1="896.126" x2="1215.84" y2="34.8981" gradientUnits="userSpaceOnUse">
<stop stop-color="white" stop-opacity="0"/>
<stop offset="1" stop-color="#E0E7FD"/>
</linearGradient>
<linearGradient id="paint4_linear_9_95968" x1="1404.68" y1="816.333" x2="1404.68" y2="350.313" gradientUnits="userSpaceOnUse">
<stop stop-color="white" stop-opacity="0"/>
<stop offset="1" stop-color="white"/>
</linearGradient>
<linearGradient id="paint5_linear_9_95968" x1="1334.07" y1="896.288" x2="1334.07" y2="35.0645" gradientUnits="userSpaceOnUse">
<stop stop-color="white" stop-opacity="0"/>
<stop offset="1" stop-color="#E0E7FD"/>
</linearGradient>
<linearGradient id="paint6_linear_9_95968" x1="153.532" y1="880.638" x2="153.532" y2="19.4098" gradientUnits="userSpaceOnUse">
<stop stop-color="white" stop-opacity="0"/>
<stop offset="1" stop-color="#E0E7FD"/>
</linearGradient>
<linearGradient id="paint7_linear_9_95968" x1="224.157" y1="801.254" x2="224.157" y2="335.231" gradientUnits="userSpaceOnUse">
<stop stop-color="white" stop-opacity="0"/>
<stop offset="1" stop-color="white"/>
</linearGradient>
<linearGradient id="paint8_linear_9_95968" x1="35.3113" y1="880.798" x2="35.3113" y2="19.5762" gradientUnits="userSpaceOnUse">
<stop stop-color="white" stop-opacity="0"/>
<stop offset="1" stop-color="#E0E7FD"/>
</linearGradient>
<linearGradient id="paint9_linear_9_95968" x1="105.934" y1="800.844" x2="105.934" y2="334.825" gradientUnits="userSpaceOnUse">
<stop stop-color="white" stop-opacity="0"/>
<stop offset="1" stop-color="white"/>
</linearGradient>
<linearGradient id="paint10_linear_9_95968" x1="1078.08" y1="776.233" x2="1078.08" y2="310.445" gradientUnits="userSpaceOnUse">
<stop stop-color="white" stop-opacity="0"/>
<stop offset="1" stop-color="white"/>
</linearGradient>
<linearGradient id="paint11_linear_9_95968" x1="936.83" y1="855.757" x2="936.83" y2="-5.38238" gradientUnits="userSpaceOnUse">
<stop stop-color="white" stop-opacity="0"/>
<stop offset="1" stop-color="#E0E7FD"/>
</linearGradient>
<linearGradient id="paint12_linear_9_95968" x1="483.867" y1="776.238" x2="483.867" y2="309.952" gradientUnits="userSpaceOnUse">
<stop stop-color="white" stop-opacity="0"/>
<stop offset="1" stop-color="white"/>
</linearGradient>
<linearGradient id="paint13_linear_9_95968" x1="342.622" y1="855.757" x2="342.622" y2="-5.38238" gradientUnits="userSpaceOnUse">
<stop stop-color="white" stop-opacity="0"/>
<stop offset="1" stop-color="#E0E7FD"/>
</linearGradient>
<linearGradient id="paint14_linear_9_95968" x1="692.048" y1="153.823" x2="745.399" y2="258.029" gradientUnits="userSpaceOnUse">
<stop stop-color="white"/>
<stop offset="1" stop-color="#C8CEDE"/>
</linearGradient>
<linearGradient id="paint15_linear_9_95968" x1="689.102" y1="219.659" x2="738.865" y2="158.997" gradientUnits="userSpaceOnUse">
<stop stop-color="#AFB6E5"/>
<stop offset="0.145" stop-color="#B5BCE8"/>
<stop offset="0.349" stop-color="#C7CDF0"/>
<stop offset="0.581" stop-color="#E5E9FF"/>
<stop offset="0.955" stop-color="#F4F4FB"/>
<stop offset="1" stop-color="#F7F6FB"/>
</linearGradient>
<radialGradient id="paint16_radial_9_95968" cx="0" cy="0" r="1" gradientUnits="userSpaceOnUse" gradientTransform="translate(777.559 187.698) scale(48.0488 47.9753)">
<stop stop-color="white"/>
<stop offset="1"/>
</radialGradient>
<linearGradient id="paint17_linear_9_95968" x1="630.509" y1="119.295" x2="684.96" y2="221.289" gradientUnits="userSpaceOnUse">
<stop stop-color="#AFB6E5"/>
<stop offset="0.145" stop-color="#B5BCE8"/>
<stop offset="0.349" stop-color="#C7CDF0"/>
<stop offset="0.581" stop-color="#E5E9FF"/>
<stop offset="0.855" stop-color="#F4F6FF"/>
<stop offset="1" stop-color="white"/>
</linearGradient>
<linearGradient id="paint18_linear_9_95968" x1="697.403" y1="195.413" x2="724.24" y2="195.695" gradientUnits="userSpaceOnUse">
<stop stop-color="#BCC2EB"/>
<stop offset="0.192" stop-color="#C6CCF0"/>
<stop offset="0.277" stop-color="#D0D4F0"/>
<stop offset="0.283" stop-color="#D1D5F0"/>
<stop offset="0.361" stop-color="#BDC3E9"/>
<stop offset="0.409" stop-color="#AFB6E5"/>
<stop offset="0.909" stop-color="#AFB6E5"/>
<stop offset="0.988" stop-color="#B9C0EA"/>
<stop offset="1" stop-color="#BCC2EB"/>
</linearGradient>
<linearGradient id="paint19_linear_9_95968" x1="-1367.84" y1="6061.75" x2="-1400.22" y2="6126.2" gradientUnits="userSpaceOnUse">
<stop stop-color="#AFB6E5"/>
<stop offset="0.145" stop-color="#B5BCE8"/>
<stop offset="0.349" stop-color="#C7CDF0"/>
<stop offset="0.581" stop-color="#E5E9FF"/>
<stop offset="0.955" stop-color="#F4F4FB"/>
<stop offset="1" stop-color="#F7F6FB"/>
</linearGradient>
<linearGradient id="paint20_linear_9_95968" x1="714.757" y1="175.674" x2="717.605" y2="199.284" gradientUnits="userSpaceOnUse">
<stop stop-color="#AFB6E5"/>
<stop offset="0.145" stop-color="#B5BCE8"/>
<stop offset="0.349" stop-color="#C7CDF0"/>
<stop offset="0.581" stop-color="#E5E9FF"/>
<stop offset="0.955" stop-color="#F4F4FB"/>
<stop offset="1" stop-color="#F7F6FB"/>
</linearGradient>
<linearGradient id="paint21_linear_9_95968" x1="1456.21" y1="2376.97" x2="1431.76" y2="2405" gradientUnits="userSpaceOnUse">
<stop stop-color="#BCC2EB"/>
<stop offset="0.192" stop-color="#C6CCF0"/>
<stop offset="0.277" stop-color="#D0D4F0"/>
<stop offset="0.283" stop-color="#D1D5F0"/>
<stop offset="0.361" stop-color="#BDC3E9"/>
<stop offset="0.409" stop-color="#AFB6E5"/>
<stop offset="0.909" stop-color="#AFB6E5"/>
<stop offset="0.988" stop-color="#B9C0EA"/>
<stop offset="1" stop-color="#BCC2EB"/>
</linearGradient>
<linearGradient id="paint22_linear_9_95968" x1="709.033" y1="229.248" x2="725.613" y2="202.147" gradientUnits="userSpaceOnUse">
<stop stop-color="#AFB6E5"/>
<stop offset="0.145" stop-color="#B5BCE8"/>
<stop offset="0.349" stop-color="#C7CDF0"/>
<stop offset="0.581" stop-color="#E5E9FF"/>
<stop offset="0.955" stop-color="#F4F4FB"/>
<stop offset="1" stop-color="#F7F6FB"/>
</linearGradient>
<radialGradient id="paint23_radial_9_95968" cx="0" cy="0" r="1" gradientUnits="userSpaceOnUse" gradientTransform="translate(1098.74 203.333) scale(12.2051 12.1867)">
<stop stop-color="white"/>
<stop offset="1"/>
</radialGradient>
</defs>
</svg>
