<svg xmlns="http://www.w3.org/2000/svg" width="128" height="107" fill="none" viewBox="0 0 128 107"><g clip-path="url(#a)" opacity=".71"><path fill="#f2f6fe" d="M37.66 36.862 0 19.706 37.66 0l37.66 19.706z"/><path fill="url(#b)" d="M75.32 19.707v97.312l-37.66 17.09V36.863z"/><path fill="url(#c)" d="m0 19.707 37.66 17.156v97.245L0 112.135"/><path fill="url(#d)" d="m52.68 59.7 37.66 17.155v97.246l-37.66-21.974"/><path fill="#f2f6fe" d="M90.34 76.858 52.68 59.702l37.66-19.706 37.659 19.707z"/><path fill="url(#e)" d="M128 59.7v97.311l-37.66 17.09V76.855z"/><path fill="url(#f)" d="m52.68 59.7 37.66 17.155v97.246l-37.66-21.974"/></g><defs><linearGradient id="b" x1="54.645" x2="85.139" y1="149.782" y2="19.393" gradientUnits="userSpaceOnUse"><stop stop-color="#fff" stop-opacity="0"/><stop offset="1" stop-color="#e0e7fd"/></linearGradient><linearGradient id="c" x1="23.914" x2="-25.854" y1="78.738" y2="74.242" gradientUnits="userSpaceOnUse"><stop stop-color="#fff"/><stop offset="1" stop-color="#e0e7fd"/></linearGradient><linearGradient id="d" x1="76.594" x2="26.825" y1="118.73" y2="114.234" gradientUnits="userSpaceOnUse"><stop stop-color="#fff"/><stop offset="1" stop-color="#e0e7fd"/></linearGradient><linearGradient id="e" x1="107.325" x2="137.819" y1="189.775" y2="59.385" gradientUnits="userSpaceOnUse"><stop stop-color="#fff" stop-opacity="0"/><stop offset="1" stop-color="#e0e7fd"/></linearGradient><linearGradient id="f" x1="76.594" x2="26.825" y1="118.73" y2="114.234" gradientUnits="userSpaceOnUse"><stop stop-color="#fff" stop-opacity="0"/><stop offset="1" stop-color="#e0e7fd"/></linearGradient><clipPath id="a"><path fill="#fff" d="M0 0h128v107H0z"/></clipPath></defs></svg>