<svg xmlns="http://www.w3.org/2000/svg" width="81" height="95" fill="none" viewBox="0 0 81 95"><g clip-path="url(#a)"><path fill="#0c5ae5" d="M36.547 72.447a.9.9 0 0 1-.43-.105.85.85 0 0 1-.41-.817 1.34 1.34 0 0 1 .163-.715q.18-.267.44-.46a.93.93 0 0 1 1.008-.109l.026.015a.86.86 0 0 1 .393.815c.015.254-.046.506-.175.725q-.151.233-.371.4l-.04.034-.033.028a.93.93 0 0 1-.572.189m.24-1.184-.056.108a.36.36 0 0 0 .19.044.5.5 0 0 0-.133-.152m-.265-.089a.5.5 0 0 0 .183.182l.063-.108-.044-.028a.37.37 0 0 0-.202-.045zM15.16 76.353a.64.64 0 0 1-.552-.319.64.64 0 0 1-.085-.318V45.973a.64.64 0 0 1 .318-.551L57.97 20.505a.636.636 0 0 1 .955.552V50.8a.64.64 0 0 1-.318.55L15.478 76.269a.64.64 0 0 1-.318.085m.637-30.012V74.61l41.854-24.18V22.16z"/><path fill="#0c5ae5" d="M15.16 46.61a.64.64 0 0 1-.552-.318.64.64 0 0 1-.085-.319v-4.29a.64.64 0 0 1 .318-.552L57.97 16.214a.637.637 0 0 1 .955.552v4.29a.64.64 0 0 1-.318.551L15.478 46.525a.64.64 0 0 1-.318.085m.637-4.56v2.82l41.854-24.18v-2.82zM4.035 91.914a.63.63 0 0 1-.322-.088L1.519 90.54a.638.638 0 1 1 .644-1.1l2.194 1.286a.638.638 0 0 1-.322 1.188"/><path fill="#0c5ae5" d="M1.844 90.63a.64.64 0 0 1-.4-.142A3.56 3.56 0 0 1 0 87.288a.637.637 0 1 1 1.272-.073c.072 1.26.122 1.585.977 2.28a.637.637 0 0 1-.13 1.075.6.6 0 0 1-.274.06"/><path fill="#0c5ae5" d="M.637 87.891A.637.637 0 0 1 0 87.254V44.512a.637.637 0 0 1 1.274 0v42.74a.637.637 0 0 1-.637.639"/><path fill="#0c5ae5" d="M.63 45.15H.585a.64.64 0 0 1-.59-.682 9.8 9.8 0 0 1 4.516-7.813.636.636 0 0 1 .985.644.64.64 0 0 1-.267.408 8.5 8.5 0 0 0-3.962 6.852.637.637 0 0 1-.635.59"/><path fill="#0c5ae5" d="M4.872 37.817a.636.636 0 0 1-.32-1.189l58.943-34a.637.637 0 0 1 .637 1.104l-58.942 34a.63.63 0 0 1-.318.085"/><path fill="#0c5ae5" d="m64.093 3.758-.28-.573-.25-.586a3.62 3.62 0 0 1 3.425-.29.637.637 0 1 1-.448 1.193c-1.035-.39-1.277-.279-2.448.256"/><path fill="#0c5ae5" d="M69.031 4.82a.64.64 0 0 1-.312-.082l-2.27-1.282a.637.637 0 1 1 .626-1.11l2.27 1.278a.638.638 0 0 1-.314 1.196"/><path fill="#0c5ae5" d="M66.013 5.109a.638.638 0 0 1-.266-1.217 3.77 3.77 0 0 1 3.513-.306.638.638 0 0 1-.444 1.195c-1.076-.4-1.416-.243-2.54.27a.6.6 0 0 1-.263.058"/><path fill="#0c5ae5" d="M7.066 39.105a.637.637 0 0 1-.318-1.189l58.942-34a.635.635 0 0 1 .87.234.637.637 0 0 1-.233.87l-58.942 34a.64.64 0 0 1-.319.085"/><path fill="#0c5ae5" d="M2.825 46.436h-.06a.637.637 0 0 1-.575-.694 10.23 10.23 0 0 1 4.5-7.792.636.636 0 0 1 .888.152.637.637 0 0 1-.15.888 8.91 8.91 0 0 0-3.972 6.871.64.64 0 0 1-.63.575"/><path fill="#0c5ae5" d="M2.824 89.185a.637.637 0 0 1-.636-.637V45.8a.637.637 0 1 1 1.273 0v42.748a.637.637 0 0 1-.637.638"/><path fill="#0c5ae5" d="M4.043 91.917a.64.64 0 0 1-.42-.158A3.9 3.9 0 0 1 2.2 88.62a.636.636 0 1 1 1.265-.145c.14 1.239.184 1.612 1 2.326a.638.638 0 0 1-.422 1.115m3.328-49.582a.637.637 0 0 1-.318-1.189L65.39 7.506a.636.636 0 1 1 .636 1.104L7.69 42.25a.64.64 0 0 1-.319.084"/><path fill="#0c5ae5" d="M67.594 9.8a.637.637 0 0 1-.637-.638.81.81 0 0 0-.234-.687.79.79 0 0 0-.7.135.637.637 0 0 1-.632-1.106 1.94 1.94 0 0 1 1.976-.13 1.95 1.95 0 0 1 .87 1.788.636.636 0 0 1-.643.637"/><path fill="#0c5ae5" d="M67.598 49.402a.637.637 0 0 1-.637-.637v-39.6a.637.637 0 1 1 1.274 0v39.6a.637.637 0 0 1-.637.637"/><path fill="#0c5ae5" d="M65.708 52.694a.637.637 0 0 1-.317-1.19 3.54 3.54 0 0 0 1.571-2.738.637.637 0 1 1 1.274 0 4.82 4.82 0 0 1-2.212 3.844.63.63 0 0 1-.316.084"/><path fill="#0c5ae5" d="M7.371 86.32a.637.637 0 0 1-.318-1.188L65.39 51.5a.639.639 0 0 1 .934.717.64.64 0 0 1-.298.387L7.69 86.236a.64.64 0 0 1-.319.085"/><path fill="#0c5ae5" d="M6.52 86.586a1.6 1.6 0 0 1-.81-.214 1.94 1.94 0 0 1-.867-1.78.637.637 0 1 1 1.274 0c0 .34.087.594.233.678a.79.79 0 0 0 .706-.135.637.637 0 0 1 .632 1.106 2.4 2.4 0 0 1-1.168.345"/><path fill="#0c5ae5" d="M5.477 85.229a.64.64 0 0 1-.633-.635v-39.6a.637.637 0 0 1 1.274 0v39.6a.637.637 0 0 1-.641.635"/><path fill="#0c5ae5" d="M5.473 45.626a.637.637 0 0 1-.637-.637 4.82 4.82 0 0 1 2.213-3.846.637.637 0 1 1 .63 1.107 3.53 3.53 0 0 0-1.57 2.74.637.637 0 0 1-.636.636M70.241 7.56a.637.637 0 0 1-.637-.637 2.38 2.38 0 0 0-.922-2.185 2.39 2.39 0 0 0-2.362.286.637.637 0 0 1-.632-1.106 3.58 3.58 0 0 1 3.634-.282 3.58 3.58 0 0 1 1.557 3.287.636.636 0 0 1-.638.637"/><path fill="#0c5ae5" d="M70.246 50.31a.637.637 0 0 1-.637-.637V6.923a.637.637 0 1 1 1.274 0v42.75a.637.637 0 0 1-.637.637"/><path fill="#0c5ae5" d="M66.004 57.641a.637.637 0 0 1-.324-1.186 8.9 8.9 0 0 0 3.924-6.783.637.637 0 0 1 1.274 0 10.17 10.17 0 0 1-4.55 7.88.63.63 0 0 1-.324.09"/><path fill="#0c5ae5" d="M7.067 91.631a.636.636 0 0 1-.318-1.189L65.69 56.453a.638.638 0 0 1 .637 1.104L7.384 91.545a.63.63 0 0 1-.317.086"/><path fill="#0c5ae5" d="M5.18 92.206a2.8 2.8 0 0 1-1.432-.375 3.57 3.57 0 0 1-1.553-3.28.637.637 0 1 1 1.274 0 2.38 2.38 0 0 0 .918 2.178 2.4 2.4 0 0 0 2.366-.287.636.636 0 1 1 .63 1.106 4.5 4.5 0 0 1-2.202.658M26.667 48.26a.64.64 0 0 1-.57-.352.635.635 0 0 1-.588-.532.64.64 0 0 1 .289-.645.97.97 0 0 1 1.007-.066 1.04 1.04 0 0 1 .5.955.64.64 0 0 1-.638.64"/><path fill="#0c5ae5" d="M26.13 49.29a.64.64 0 0 1-.34-1.179.72.72 0 0 0 .23-.49.637.637 0 0 1 1.274 0 1.95 1.95 0 0 1-.827 1.57.64.64 0 0 1-.337.098"/><path fill="#0c5ae5" d="M25.846 49.37a.93.93 0 0 1-.493-.137 1.02 1.02 0 0 1-.46-.93.637.637 0 0 1 1.206-.287.63.63 0 0 1 .607.351.64.64 0 0 1-.285.855 1.3 1.3 0 0 1-.575.148"/><path fill="#0c5ae5" d="M25.528 48.939a.637.637 0 0 1-.637-.637 1.85 1.85 0 0 1 .958-1.6.638.638 0 0 1 .57 1.139.6.6 0 0 0-.254.46.637.637 0 0 1-.637.638m1.136 5.88a.64.64 0 0 1-.566-.344.638.638 0 0 1-.582-.78.64.64 0 0 1 .282-.397.98.98 0 0 1 1.01-.068 1.04 1.04 0 0 1 .494.95.64.64 0 0 1-.638.639"/><path fill="#0c5ae5" d="M26.13 55.856a.64.64 0 0 1-.54-.3.637.637 0 0 1 .2-.878.74.74 0 0 0 .23-.5.637.637 0 0 1 1.274 0 1.96 1.96 0 0 1-.827 1.577.63.63 0 0 1-.337.101"/><path fill="#0c5ae5" d="M25.847 55.936a.94.94 0 0 1-.5-.137 1.02 1.02 0 0 1-.462-.93.637.637 0 0 1 1.206-.286.63.63 0 0 1 .607.35.64.64 0 0 1-.285.856 1.3 1.3 0 0 1-.566.147"/><path fill="#0c5ae5" d="M25.528 55.507a.637.637 0 0 1-.637-.637 1.84 1.84 0 0 1 .958-1.6.638.638 0 0 1 .57 1.14.58.58 0 0 0-.254.458.637.637 0 0 1-.637.64m1.132 6.287a.64.64 0 0 1-.569-.351.637.637 0 0 1-.283-1.18.98.98 0 0 1 1.006-.053 1.04 1.04 0 0 1 .488.947.636.636 0 0 1-.642.637"/><path fill="#0c5ae5" d="M26.13 62.824a.637.637 0 0 1-.328-1.184c.13-.127.21-.3.218-.482a.637.637 0 1 1 1.274 0 1.93 1.93 0 0 1-.838 1.575.63.63 0 0 1-.326.091"/><path fill="#0c5ae5" d="M25.846 62.905a.94.94 0 0 1-.494-.137 1.02 1.02 0 0 1-.459-.922.637.637 0 0 1 1.202-.295.637.637 0 0 1 .326 1.206 1.3 1.3 0 0 1-.575.148"/><path fill="#0c5ae5" d="M25.528 62.483a.637.637 0 0 1-.637-.637 1.86 1.86 0 0 1 .949-1.6.637.637 0 0 1 .588 1.13.6.6 0 0 0-.264.47.637.637 0 0 1-.636.637m4.688-9.676a.638.638 0 0 1-.32-1.188l16.8-9.745a.637.637 0 0 1 .64 1.102l-16.8 9.745a.63.63 0 0 1-.32.086m0-6.56a.638.638 0 0 1-.32-1.188l16.8-9.745a.637.637 0 1 1 .64 1.102l-16.8 9.745a.64.64 0 0 1-.32.086m0 13.536a.636.636 0 0 1-.32-1.189l13.62-7.877a.637.637 0 1 1 .637 1.103l-13.62 7.877a.64.64 0 0 1-.317.086"/><path fill="#fff" d="M60.097 45.724a14.53 14.53 0 0 0-6.594 11.433 5.93 5.93 0 0 0 .685 2.961c2.717 6.08 12.122 10.755 12.617 11 .459-.779 9.185-15.563 12.216-24.727.609-1.432.936-2.969.964-4.525-.012-4.206-2.987-5.9-6.648-3.788-2.665 1.54-4.947 5.535-5.995 7.586a1.66 1.66 0 0 1-.608.685.53.53 0 0 1-.609.018 5.21 5.21 0 0 0-6.028-.643"/><path fill="#0c5ae5" d="M66.52 71.69c-1.035-.513-10.18-5.188-12.887-11.254a6.55 6.55 0 0 1-.77-3.278 15.27 15.27 0 0 1 6.913-11.987 5.85 5.85 0 0 1 6.645.62c.152-.105.273-.248.35-.416 1.15-2.249 3.49-6.258 6.246-7.848 1.983-1.145 3.881-1.31 5.341-.47s2.257 2.544 2.264 4.808a12.7 12.7 0 0 1-1 4.728c-2.99 9.04-11.33 23.26-12.272 24.852a.64.64 0 0 1-.55.313.6.6 0 0 1-.28-.068m7.136-33.058c-2.472 1.427-4.662 5.2-5.746 7.321a2.27 2.27 0 0 1-.858.95 1.14 1.14 0 0 1-1.326-.034 4.58 4.58 0 0 0-5.31-.59 13.86 13.86 0 0 0-6.277 10.877c-.03.94.188 1.87.63 2.7 2.294 5.135 9.605 9.273 11.788 10.42 1.633-2.8 9.134-15.856 11.871-24.126.577-1.355.888-2.809.916-4.282 0-1.79-.58-3.105-1.623-3.7a2.8 2.8 0 0 0-1.413-.358c-.94.04-1.854.323-2.652.822"/><path fill="#fff" d="M45.947 52.885a6.05 6.05 0 0 0 .69 2.962 15.6 15.6 0 0 0 7.417 7.942l10.062 5.835c-3.128-1.864-8.083-5.362-9.934-9.513a5.9 5.9 0 0 1-.677-2.962 9.4 9.4 0 0 1 .115-1.443c.012-.076.012-.165.026-.242q.123-.731.332-1.443c.038-.1.064-.217.1-.319.141-.46.307-.907.5-1.367a.5.5 0 0 0 .051-.114c.217-.472.447-.945.715-1.4l.191-.345c.243-.408.511-.8.78-1.187l.114-.153q.465-.636 1-1.213c.064-.064.128-.14.192-.2q.515-.535 1.086-1.009.078-.07.166-.127a9.6 9.6 0 0 1 1.226-.856c.217-.115.421-.2.626-.294q.162-.075.332-.128c.127-.05.268-.089.4-.127s.218-.05.32-.064a2 2 0 0 1 .4-.05q.145-.024.293-.027.185-.009.37 0c.1.013.192.013.281.026.127.013.242.04.37.051q.127.036.256.051.175.042.344.1c.077.026.154.051.218.077a.4.4 0 0 1 .127.05l1.7.971v.013l.05.026a.36.36 0 0 0 .345.025.6.6 0 0 0 .141-.038l.076-.038q.19-.114.333-.28a.01.01 0 0 0 .009-.004l.003-.009q.16-.184.268-.4c.153-.294.345-.664.55-1.034.063-.115.126-.23.19-.333.18-.306.371-.638.562-.957.077-.127.153-.242.23-.37.281-.448.574-.895.894-1.329.038-.064.09-.127.127-.179.281-.383.575-.753.87-1.1.19-.217.382-.434.573-.638.04-.039.064-.089.1-.115q.386-.403.817-.754.09-.088.192-.166c.294-.218.587-.434.881-.613.217-.115.434-.23.638-.332a7.4 7.4 0 0 1 1.047-.383c.05-.013.1-.026.166-.039a5 5 0 0 1 .932-.14h.166q.433-.005.856.09.06.003.115.025.417.109.792.32l-7.546-4.266a3.3 3.3 0 0 0-.792-.319l-.115-.038a3.8 3.8 0 0 0-.856-.077h-.166a4.3 4.3 0 0 0-.944.141c-.05.013-.1.026-.166.038q-.533.149-1.034.383c-.013 0-.013 0-.026.013-.2.09-.409.2-.613.32a8 8 0 0 0-.88.611l-.192.154c-.28.23-.549.485-.817.753l-.114.115c-.128.153-.269.294-.409.447l-.154.192c-.306.357-.587.727-.868 1.1a1 1 0 0 1-.14.18c-.32.446-.613.893-.895 1.34-.076.114-.14.241-.217.356-.2.332-.4.651-.562.958l-.192.344c-.2.371-.409.728-.562 1.034a2 2 0 0 1-.268.41 1.4 1.4 0 0 1-.332.28q-.112.046-.23.076c-.026 0-.05.026-.076.026l-.026-.012-1.11-.639c-.154-.089-.307-.179-.473-.256-.05-.025-.115-.038-.166-.064a17 17 0 0 0-.357-.153c-.077-.026-.14-.038-.218-.064a3 3 0 0 0-.357-.1 1.6 1.6 0 0 0-.256-.05c-.114-.027-.229-.04-.357-.065-.089 0-.179-.013-.28-.013-.128 0-.243-.012-.372-.012-.1.012-.2.012-.306.026q-.192.016-.383.051c-.115.026-.217.051-.319.077-.14.038-.268.076-.409.115-.1.038-.217.09-.332.127a1 1 0 0 1-.179.077q-.226.096-.434.23-.64.38-1.225.842c-.064.051-.115.09-.166.127q-.575.477-1.085 1.022-.1.096-.192.2l-.23.23c-.268.318-.523.638-.779.983q-.054.074-.1.153-.418.576-.779 1.187c-.064.115-.14.217-.2.345-.242.447-.485.894-.689 1.354 0 .012-.012.038-.012.051a.5.5 0 0 0-.05.115q-.288.67-.5 1.366-.062.156-.1.32-.212.71-.333 1.442c-.012.077-.026.153-.038.242-.026.218-.064.447-.077.664a5 5 0 0 0-.057.781"/><path fill="#0c5ae5" d="m63.793 70.177-10.06-5.836a16.16 16.16 0 0 1-7.652-8.175 6.66 6.66 0 0 1-.775-3.274v-.007c0-.276.015-.566.04-.82.009-.165.032-.337.056-.507l.066-.458q.12-.75.338-1.48.043-.19.116-.369.21-.701.5-1.376.024-.078.059-.152.012-.04.027-.077c.207-.466.453-.919.7-1.382.047-.092.1-.174.148-.254l.078-.128c.254-.427.52-.84.822-1.252.01-.02.081-.124.1-.144.262-.355.524-.685.84-1.055l.19-.185a4 4 0 0 1 .215-.232q.559-.596 1.19-1.113l.138-.106q.606-.48 1.273-.876.3-.19.63-.316a.7.7 0 0 1 .126-.057l1.136-.34c.15-.03.3-.046.428-.059a3 3 0 0 1 .2-.016l.19-.014.37.012c.069 0 .134 0 .2.01l.354.04c.078.012.153.025.192.034q.141.016.278.056.26.059.51.144c.023.007.154.047.177.056l.4.171c.023.008.128.048.151.06.18.081.346.177.523.28l.873.5a1 1 0 0 0 .107-.1 1.3 1.3 0 0 0 .172-.27c.117-.232.26-.49.41-.763l.355-.634c.17-.317.368-.646.59-1.007l.086-.14a2 2 0 0 1 .125-.2c.287-.458.587-.915.914-1.372.02-.026.127-.17.15-.193.288-.38.578-.76.956-1.207.008-.01.095-.118.1-.129l.14-.15q.131-.134.247-.273c.012-.015.141-.145.155-.158q.412-.422.867-.8l.1-.08.1-.082q.457-.367.963-.667c.218-.123.434-.244.653-.34l.028-.013q.567-.265 1.174-.429l.13-.03a5 5 0 0 1 1.11-.162h.138q.505-.013 1 .087c.016 0 .148.045.163.05a4 4 0 0 1 .938.38l7.485 4.23.069.038a.638.638 0 0 1-.636 1.108l-.055-.032a4 4 0 0 0-.538-.23.6.6 0 0 1-.148-.018 3 3 0 0 0-.707-.072h-.138a4 4 0 0 0-.81.124l-.133.03q-.485.136-.944.341c-.181.091-.374.194-.591.307-.273.165-.543.366-.814.565q-.097.076-.186.162a8 8 0 0 0-.76.7l-.029.028c-.023.027-.056.07-.07.082-.187.2-.375.413-.555.615-.283.334-.567.692-.868 1.1l-.507-.388.408.53c-.309.42-.6.855-.862 1.28l-.724 1.212c0 .005-.069.117-.07.123-.05.078-.1.167-.177.3-.168.307-.33.615-.465.877l-.069.131a2.5 2.5 0 0 1-.387.563c-.166.187-.365.34-.588.453a1.2 1.2 0 0 1-.234.076 1 1 0 0 1-.873-.089.6.6 0 0 1-.122-.082l-1.652-.93-.208-.073-.208-.068a2 2 0 0 1-.293-.055q-.08-.01-.161-.023l-.364-.043h-.139a2 2 0 0 0-.232 0c-.07 0-.14.01-.293.025a1.7 1.7 0 0 0-.315.047 3 3 0 0 0-.286.063c-.09.026-.183.053-.316.1q-.154.047-.3.117c-.179.078-.36.158-.53.248q-.613.362-1.162.815l-.43-.479.29.587q-.589.49-1.114 1.044l-.1.1q-.53.57-.986 1.2l-.075.1c-.26.371-.518.753-.779 1.193l-.166.3c-.256.441-.477.9-.658 1.282l-.07.162a14 14 0 0 0-.475 1.305c0 .013-.047.148-.053.16a11 11 0 0 0-.369 1.585c0 .017-.015.155-.018.172q-.105.668-.107 1.344c-.035.94.18 1.87.621 2.7 1.827 4.1 6.847 7.538 9.677 9.224a.639.639 0 0 1-.326 1.188.63.63 0 0 1-.323-.075m-1.72-25.75q.157-.026.316-.029a3.5 3.5 0 0 1 .618.014c.065 0 .124.008.162.014l.369.051a.6.6 0 0 1 .138.03q.095.024.192.034a4 4 0 0 1 .583.184q.151.033.286.115l1.672.956h.014a.7.7 0 0 0 .162-.145l.024-.024q.1-.117.169-.256l.075-.142c.14-.27.305-.587.512-.962.06-.1.119-.209.23-.393l.74-1.24c.29-.46.593-.92.885-1.31q.075-.122.163-.235.436-.598.906-1.144c.2-.22.391-.442.584-.65q.05-.063.108-.119a9 9 0 0 1 .833-.769 3 3 0 0 1 .28-.239q.483-.365 1-.678c.2-.107.4-.214.612-.317a8 8 0 0 1 1.185-.429l.146-.033.069-.016-4.925-2.782a3.2 3.2 0 0 0-.706-.283 3 3 0 0 0-.735-.065h-.14q-.414.015-.813.121l-.16.037a6 6 0 0 0-.927.343l-.043.022a6 6 0 0 0-.547.285 7 7 0 0 0-.81.564l-.18.144c-.266.217-.517.458-.845.782-.095.113-.2.222-.3.333l-.178.2c0 .006-.085.107-.09.113-.3.347-.57.707-.806 1.012q-.07.122-.167.222c-.312.437-.6.873-.884 1.325l-.089.147a4 4 0 0 1-.114.19c-.2.321-.384.63-.581.994l-.323.58c-.142.255-.276.5-.386.716q-.144.297-.361.545-.227.26-.527.43-.15.07-.312.11l-.022.008a.75.75 0 0 1-.6-.047l-1.126-.648a5 5 0 0 0-.42-.225l-.173-.068-.344-.139c-.011 0-.133-.039-.145-.043a4 4 0 0 0-.358-.1c-.04-.012-.088-.016-.19-.033l-.794-.079-.322.027c-.105.011-.212.021-.305.04l-.75.208q-.092.038-.19.073-.093.047-.19.08a2.4 2.4 0 0 0-.364.2q-.6.352-1.143.785l-.16.122q-.551.458-1.041.981c-.05.05-.1.1-.193.205l-.191.188c-.26.31-.508.62-.774.977l-.08.126a15 15 0 0 0-.736 1.12l-.1.174a18 18 0 0 0-.738 1.417.7.7 0 0 1-.087.215q-.279.658-.486 1.341-.054.134-.087.272-.202.678-.316 1.376l-.06.416c-.018.14-.038.282-.048.44a7 7 0 0 0-.035.714c-.025.94.193 1.87.633 2.7a14.94 14.94 0 0 0 7.155 7.651l1.99 1.154a14.8 14.8 0 0 1-2.733-3.96 6.5 6.5 0 0 1-.764-3.28q.005-.812.129-1.613c0-.019.015-.159.018-.176q.13-.77.35-1.518l.05-.157.054-.17a15 15 0 0 1 .582-1.56c.225-.492.464-.983.738-1.453l.2-.357c.25-.422.528-.83.813-1.239l.108-.144a14 14 0 0 1 1.144-1.378l.108-.115q.515-.536 1.088-1.01a1.5 1.5 0 0 1 .221-.18q.63-.513 1.33-.923c.219-.116.425-.208.638-.3q.184-.087.38-.148c.123-.05.26-.09.387-.128l.168-.044q.135-.034.277-.054.196-.045.4-.058zm-3.434-2.828c.014-.007.076-.026.133-.042a.5.5 0 0 0-.136.042z"/><path fill="#d4e6fc" d="M45.947 52.884a6.06 6.06 0 0 0 .69 2.962 15.6 15.6 0 0 0 7.417 7.942l10.062 5.835c-3.128-1.864-8.083-5.362-9.934-9.513a5.9 5.9 0 0 1-.677-2.962 9.4 9.4 0 0 1 .115-1.443c.012-.076.012-.166.026-.242q.123-.732.332-1.443c.038-.1.064-.217.1-.319.141-.46.307-.907.5-1.367a.5.5 0 0 0 .051-.114c.217-.472.447-.945.715-1.4l.191-.345c.243-.408.511-.8.78-1.187l.114-.153q.465-.636 1-1.213c.064-.064.128-.14.192-.2q.515-.534 1.086-1.009.078-.07.166-.127a9.6 9.6 0 0 1 1.226-.855c.217-.115.421-.2.626-.294q.162-.075.332-.128c.127-.05.268-.089.4-.127s.218-.05.32-.064q.196-.046.4-.05.145-.024.293-.027.185-.009.37 0c.1.013.192.013.281.026.127.013.242.04.37.051q.127.036.256.051.175.042.344.1c.077.026.154.051.218.077a.4.4 0 0 1 .127.05l-5.54-3.2-.027-.012-1.11-.639c-.154-.089-.307-.179-.473-.256-.05-.025-.115-.038-.166-.064a17 17 0 0 0-.357-.153c-.077-.026-.14-.038-.218-.064a3 3 0 0 0-.357-.1 1.6 1.6 0 0 0-.256-.05c-.114-.027-.229-.04-.357-.065-.089 0-.179-.013-.28-.013-.128 0-.243-.012-.372-.012-.1.012-.2.012-.306.026q-.192.016-.383.051c-.115.026-.217.051-.319.077-.14.038-.268.076-.409.115-.1.038-.217.09-.332.127q-.086.046-.179.077-.226.096-.434.23-.64.379-1.225.842c-.064.051-.115.09-.166.127q-.575.477-1.085 1.022-.1.095-.192.2l-.23.23c-.268.318-.523.638-.779.983a2 2 0 0 0-.1.153c-.28.383-.537.78-.779 1.187-.064.115-.14.217-.2.345-.242.447-.485.894-.689 1.354 0 .012-.012.038-.012.051a.5.5 0 0 0-.05.115q-.288.67-.5 1.366-.062.156-.1.32-.212.71-.333 1.442c-.012.077-.026.153-.038.242-.026.218-.064.447-.077.664a4.3 4.3 0 0 0-.059.77"/><path fill="#0c5ae5" d="m63.793 70.177-10.06-5.836a16.16 16.16 0 0 1-7.652-8.175 6.66 6.66 0 0 1-.775-3.274v-.007c0-.276.015-.566.04-.82.009-.166.032-.337.056-.507l.066-.458q.121-.75.338-1.479.043-.19.116-.369.21-.702.5-1.376.024-.078.059-.152.012-.04.027-.077c.207-.466.453-.919.7-1.382.047-.092.1-.174.148-.254l.078-.128c.254-.427.52-.84.822-1.252.01-.02.081-.124.1-.144.262-.355.524-.685.84-1.055l.19-.185a4 4 0 0 1 .215-.232q.559-.596 1.19-1.113l.138-.106q.606-.482 1.273-.877.3-.19.63-.316a.7.7 0 0 1 .126-.057l1.136-.34a4.5 4.5 0 0 1 .627-.075l.19-.014.371.012c.069 0 .134 0 .2.01l.354.04c.078.012.153.025.192.034q.141.016.278.056.26.059.51.144c.023.007.154.047.177.056l.4.171c.023.008.128.048.151.06.18.081.346.177.523.28l6.634 3.832a.64.64 0 1 1-.596 1.13l-.035-.019-.006.01-.207-.073-.209-.068a2 2 0 0 1-.293-.055q-.08-.01-.161-.023l-.364-.043h-.139a2 2 0 0 0-.232 0c-.07 0-.14.01-.293.025a1.7 1.7 0 0 0-.314.047 3 3 0 0 0-.287.063c-.09.026-.183.053-.316.1q-.154.047-.3.117a8 8 0 0 0-.53.248q-.613.363-1.162.815l-.43-.479.29.587q-.588.49-1.115 1.044l-.1.1q-.527.57-.986 1.2l-.074.1c-.26.371-.518.753-.779 1.193l-.166.3c-.256.441-.478.9-.659 1.282l-.07.162c-.183.44-.34.866-.474 1.305 0 .013-.048.148-.053.16a11 11 0 0 0-.369 1.586c0 .017-.015.155-.018.172a9 9 0 0 0-.107 1.343c-.035.94.18 1.87.622 2.7 1.827 4.1 6.846 7.538 9.676 9.224a.639.639 0 0 1-.326 1.188.63.63 0 0 1-.326-.076m-6.383-28.1a5 5 0 0 0-.42-.225l-.174-.068-.343-.139a2 2 0 0 1-.145-.044 4 4 0 0 0-.358-.1c-.04-.012-.089-.016-.191-.033l-.794-.078-.322.027c-.105.011-.212.021-.305.04l-.75.208q-.092.038-.19.073-.093.046-.19.08a2.4 2.4 0 0 0-.364.2q-.6.352-1.143.785l-.16.121q-.551.458-1.041.982c-.05.05-.1.1-.193.205l-.191.188c-.26.31-.508.62-.774.977l-.08.126a15 15 0 0 0-.736 1.12l-.1.174a18 18 0 0 0-.738 1.417.7.7 0 0 1-.087.215q-.279.658-.486 1.341-.054.134-.087.272-.202.678-.316 1.376l-.06.417c-.018.14-.038.282-.048.44a7 7 0 0 0-.035.713c-.025.94.193 1.87.633 2.7a14.94 14.94 0 0 0 7.155 7.651l1.99 1.154a14.8 14.8 0 0 1-2.733-3.96 6.5 6.5 0 0 1-.764-3.282q.005-.81.129-1.612c0-.019.015-.158.018-.176q.13-.77.35-1.518l.05-.157c.021-.072.044-.143.054-.17a15 15 0 0 1 .582-1.56c.225-.492.464-.983.738-1.453l.2-.357c.25-.422.528-.83.813-1.239l.108-.144a14 14 0 0 1 1.144-1.378l.108-.115a13 13 0 0 1 1.088-1.01q.102-.102.221-.18.63-.513 1.33-.923c.219-.116.425-.207.638-.3q.184-.087.38-.148c.123-.05.26-.09.387-.128l.168-.044c.082-.019.16-.036.22-.046z"/></g><defs><clipPath id="a"><path fill="#fff" d="M0 0h81v95H0z"/></clipPath></defs></svg>