<svg xmlns="http://www.w3.org/2000/svg" width="92" height="94" fill="none" viewBox="0 0 92 94"><path stroke="#265597" stroke-linecap="round" stroke-linejoin="round" stroke-width="4" d="M2.852 33h86.291M23.29 19h.04m18.127 0h.04M2.853 47c0-20.897 0-31.35 6.317-37.842s16.486-6.491 36.828-6.491c20.338 0 30.511 0 36.829 6.491 6.317 6.492 6.317 16.94 6.317 37.842 0 20.898 0 31.351-6.317 37.842-6.318 6.492-16.486 6.492-36.829 6.492-20.337 0-30.51 0-36.828-6.492C2.852 78.351 2.852 67.902 2.852 47"/><path stroke="#265597" stroke-linecap="round" stroke-linejoin="round" stroke-width="4" d="M32.906 54a6.8 6.8 0 0 0-3.471-2.135 6.64 6.64 0 0 0-4.038.263 6.85 6.85 0 0 0-3.18 2.57 7.14 7.14 0 0 0-1.201 3.969v4.667c0 1.417.419 2.801 1.201 3.97a6.85 6.85 0 0 0 3.18 2.569 6.64 6.64 0 0 0 4.038.263A6.8 6.8 0 0 0 32.905 68m28.986-16.333 9.083 18.667M48.229 54h.046m-.046 14h.046"/></svg>