<svg xmlns="http://www.w3.org/2000/svg" width="56" height="74" fill="none" viewBox="0 0 56 74"><path fill="#035be8" fill-rule="evenodd" d="M.486 69.682a1.88 1.88 0 0 0 .755 1.662l2.028 1.168a1.82 1.82 0 0 1-.755-1.661V33.908a5.61 5.61 0 0 1 2.573-4.45l47.54-27.45a1.84 1.84 0 0 1 1.819-.176L52.417.662A1.83 1.83 0 0 0 50.6.84L3.06 28.286a5.65 5.65 0 0 0-2.574 4.453z" clip-rule="evenodd"/><path fill="#035be8" fill-rule="evenodd" d="M.992 69.67c.03.636.114.97.531 1.264l.52.3c0-.122-.018-.24-.018-.363V33.907a6.13 6.13 0 0 1 2.8-4.87l47.553-27.46a5 5 0 0 1 .35-.169l-.556-.316c-.439-.2-.772-.11-1.333.186L3.316 28.716A5.12 5.12 0 0 0 .993 32.76zm2.281 3.34a.5.5 0 0 1-.253-.068L.992 71.77a2.33 2.33 0 0 1-.99-2.067V32.74a6.1 6.1 0 0 1 2.8-4.87L50.366.41a2.32 2.32 0 0 1 2.27-.194l2.052 1.185a.5.5 0 0 1 .237.29q.028.093.019.19a.49.49 0 0 1-.342.421.5.5 0 0 1-.372-.02c-.459-.223-.8-.13-1.37.165L5.338 29.888a5.14 5.14 0 0 0-2.323 4.04V70.85c.042.62.122.957.544 1.256a.495.495 0 0 1-.278.9z" clip-rule="evenodd"/><path fill="#fff" fill-rule="evenodd" d="M52.728 44.822a5.4 5.4 0 0 0 1.72-1.853c.46-.767.716-1.64.743-2.534V3.493a1.56 1.56 0 0 0-2.56-1.485l-47.54 27.45a5.2 5.2 0 0 0-1.818 1.914 5.3 5.3 0 0 0-.755 2.53v36.942A1.569 1.569 0 0 0 5.09 72.33z" clip-rule="evenodd"/><path fill="#035be8" fill-rule="evenodd" d="M3.72 31.599c-.013.008-.013.017-.03.029a4.85 4.85 0 0 0-.683 2.28v36.944a1.37 1.37 0 0 0 .514 1.231 1.36 1.36 0 0 0 1.316-.177l47.637-27.509a4.8 4.8 0 0 0 1.54-1.673 4.7 4.7 0 0 0 .687-2.29V3.49a1.086 1.086 0 0 0-1.818-1.054L5.331 29.89a4.8 4.8 0 0 0-1.61 1.708m.223 41.585a1.8 1.8 0 0 1-.924-.24 2.29 2.29 0 0 1-.995-2.091V33.909c.03-.97.305-1.916.8-2.75 0-.014.017-.025.017-.034a5.8 5.8 0 0 1 2-2.1l47.54-27.45a2.059 2.059 0 0 1 3.32 1.914v36.938a5.7 5.7 0 0 1-.828 2.779 5.8 5.8 0 0 1-1.877 2.033s-.012 0-.012.008L5.334 72.755a2.8 2.8 0 0 1-1.39.429" clip-rule="evenodd"/><path fill="#eff3fa" fill-rule="evenodd" d="M48.223 33.312c-1.1-.637-2.619-.544-4.309.426a12.46 12.46 0 0 0-4.268 4.475l-.026.067a12.4 12.4 0 0 0-1.779 5.992 6 6 0 0 0 .072 1.033q.041.373.151.734a3.5 3.5 0 0 0 1.485 2.138 3.79 3.79 0 0 0 3.328.11C46.6 46.946 50 41.53 50 37.246c0-1.936-.67-3.302-1.777-3.934" clip-rule="evenodd"/><path fill="#035be8" fill-rule="evenodd" d="M46.644 33.404a5.06 5.06 0 0 0-2.475.763 11.9 11.9 0 0 0-4.087 4.3 12 12 0 0 0-1.75 5.808q.002.483.072.962.046.341.139.674a2.96 2.96 0 0 0 1.273 1.847 3.33 3.33 0 0 0 2.885.072c3.509-1.264 6.81-6.4 6.81-10.58 0-1.691-.543-2.94-1.539-3.51a2.64 2.64 0 0 0-1.328-.337m-5.386 15.708a3.64 3.64 0 0 1-3.665-2.922 5 5 0 0 1-.181-.817 8 8 0 0 1-.072-1.1 13.92 13.92 0 0 1 6.339-10.966c1.776-1.029 3.483-1.184 4.795-.425 1.3.755 2.033 2.307 2.033 4.365 0 4.534-3.627 10.126-7.46 11.5a4.8 4.8 0 0 1-1.789.365M11.19 51.472a.51.51 0 0 1-.43-.249.5.5 0 0 1 .183-.679l18.31-10.569a.484.484 0 0 1 .676.182.49.49 0 0 1-.182.675l-18.3 10.573a.6.6 0 0 1-.256.067m-.001 5.959a.51.51 0 0 1-.43-.245.5.5 0 0 1 .183-.679l18.31-10.573a.5.5 0 1 1 .507.86L11.445 57.362a.5.5 0 0 1-.254.07" clip-rule="evenodd"/><path fill="#035be8" fill-rule="evenodd" d="M46.687 35.97a2.73 2.73 0 0 0-2.758.275 8 8 0 0 0-2.754 2.88l-.013.042a7.96 7.96 0 0 0-1.151 3.854 3.45 3.45 0 0 0 .409 1.78v.008c.64 1.1 1.915 1.316 3.315.578a7.7 7.7 0 0 0 2.952-3.024 7.87 7.87 0 0 0 1.147-3.86 2.74 2.74 0 0 0-1.147-2.532m-35.497.69a.51.51 0 0 1-.43-.249.5.5 0 0 1 .181-.675l35.34-20.4a.484.484 0 0 1 .671.181.5.5 0 0 1-.18.68l-35.329 20.4a.6.6 0 0 1-.254.063" clip-rule="evenodd"/><path fill="#eff3fa" fill-rule="evenodd" d="M3.455 31.078a5.1 5.1 0 0 1 1.636-1.62l47.54-27.45a1.84 1.84 0 0 1 1.817-.176L52.42.662a1.83 1.83 0 0 0-1.817.178L3.062 28.286a5.2 5.2 0 0 0-1.636 1.624z" clip-rule="evenodd"/><path fill="#035be8" fill-rule="evenodd" d="m2.15 29.753 1.164.671a5.4 5.4 0 0 1 1.51-1.388L52.377 1.578a5 5 0 0 1 .35-.169l-.556-.316c-.44-.2-.772-.11-1.333.186L3.315 28.716a4.3 4.3 0 0 0-1.164 1.037zm1.3 1.817a.56.56 0 0 1-.254-.063L1.185 30.34a.48.48 0 0 1-.24-.325.43.43 0 0 1 .072-.388 5.8 5.8 0 0 1 1.776-1.758L50.359.41a2.32 2.32 0 0 1 2.268-.194l2.055 1.185a.49.49 0 0 1 .2.662.51.51 0 0 1-.658.22c-.46-.224-.8-.13-1.37.164L5.332 29.888A4.8 4.8 0 0 0 3.86 31.36a.5.5 0 0 1-.406.211z" clip-rule="evenodd"/></svg>