<svg width="84" height="65" viewBox="0 0 84 65" fill="none" xmlns="http://www.w3.org/2000/svg">
<g clip-path="url(#clip0_9_113018)">
<path fill-rule="evenodd" clip-rule="evenodd" d="M53.0189 47.0866C52.8994 47.0857 52.7821 47.0541 52.6784 46.9948C52.5747 46.9356 52.4882 46.8506 52.4271 46.7482C52.3825 46.672 52.3535 46.5878 52.3418 46.5004C52.3301 46.413 52.3359 46.3242 52.3589 46.239C52.3818 46.1539 52.4214 46.0741 52.4755 46.0043C52.5296 45.9345 52.5971 45.8761 52.674 45.8325L58.4893 42.4823C58.5664 42.4341 58.6524 42.4018 58.7423 42.3874C58.8322 42.3731 58.9241 42.3769 59.0124 42.3986C59.1008 42.4203 59.184 42.4594 59.2568 42.5137C59.3297 42.5681 59.3909 42.6365 59.4367 42.7149C59.4826 42.7932 59.5121 42.8801 59.5237 42.9701C59.5352 43.0601 59.5284 43.1514 59.5038 43.2388C59.4792 43.3261 59.4372 43.4076 59.3803 43.4785C59.3235 43.5493 59.2529 43.6081 59.1728 43.6512L53.3406 46.996C53.2448 47.0575 53.1328 47.089 53.0189 47.0866Z" fill="#035BE8"/>
<path fill-rule="evenodd" clip-rule="evenodd" d="M2.42159 29.1157L50.1255 1.67735C51.443 1.01372 52.8985 0.667969 54.3748 0.667969C55.851 0.667969 57.3066 1.01372 58.6242 1.67735L81.559 14.8721C83.9038 16.2176 83.9038 18.4168 81.559 19.7632L33.8614 47.2015C32.5427 47.8648 31.0861 48.2103 29.6089 48.2103C28.1317 48.2103 26.6751 47.8648 25.3564 47.2015L2.42159 34.006C0.0990526 32.6604 0.0990526 30.4612 2.42159 29.1157Z" fill="white"/>
<path fill-rule="evenodd" clip-rule="evenodd" d="M2.76507 29.6994C2.35801 29.8136 1.99957 30.0573 1.74427 30.3933C1.48896 30.7293 1.35077 31.1391 1.35077 31.5606C1.35077 31.982 1.48896 32.3919 1.74427 32.7279C1.99957 33.0639 2.35801 33.3075 2.76507 33.4218L25.6999 46.6164C26.9172 47.2182 28.2576 47.5314 29.6164 47.5314C30.9752 47.5314 32.3157 47.2182 33.5329 46.6164L81.2181 19.1781C81.6248 19.0623 81.9826 18.8177 82.2374 18.4811C82.4921 18.1446 82.6299 17.7345 82.6299 17.313C82.6299 16.8914 82.4921 16.4813 82.2374 16.1448C81.9826 15.8083 81.6248 15.5636 81.2181 15.4478L58.2832 2.25225C57.068 1.65049 55.7295 1.3373 54.3725 1.3373C53.0155 1.3373 51.677 1.65049 50.4618 2.25225L2.7642 29.6967L2.76507 29.6994ZM29.608 48.8733C28.0147 48.9063 26.4396 48.5314 25.0333 47.7844L2.09844 34.5897C1.48152 34.3566 0.950383 33.9419 0.575566 33.4007C0.20075 32.8596 0 32.2177 0 31.5602C0 30.9026 0.20075 30.2606 0.575566 29.7195C0.950383 29.1784 1.48152 28.7637 2.09844 28.5306L49.7791 1.09314C51.2032 0.374476 52.7771 0 54.3734 0C55.9697 0 57.5436 0.374476 58.9677 1.09314L81.8883 14.2878C82.5037 14.5224 83.0332 14.9377 83.4068 15.4786C83.7803 16.0196 83.9803 16.6608 83.9803 17.3174C83.9803 17.9741 83.7803 18.6153 83.4068 19.1562C83.0332 19.6971 82.5037 20.1124 81.8883 20.347L34.2022 47.7844C32.7893 48.5325 31.2076 48.9074 29.608 48.8733Z" fill="#035BE8"/>
<path fill-rule="evenodd" clip-rule="evenodd" d="M30.0272 22.7852C29.7973 24.8519 31.2688 27.1319 34.3381 28.8958C37.5943 30.6643 41.2693 31.5236 44.9749 31.3827L30.0272 22.7869V22.7852Z" fill="#EFF3FA"/>
<path fill-rule="evenodd" clip-rule="evenodd" d="M30.7662 23.9947C31.128 25.5188 32.5246 27.0704 34.6796 28.313C37.0298 29.6048 39.6256 30.3914 42.2996 30.6222L30.7662 23.9947ZM44.2308 32.0699C40.6584 32.0956 37.1395 31.2043 34.0129 29.4818C30.7885 27.6264 29.088 25.1573 29.3411 22.7121C29.355 22.5997 29.3971 22.4925 29.4634 22.4005C29.5297 22.3084 29.6182 22.2345 29.7208 22.1855C29.8176 22.1352 29.9258 22.1104 30.035 22.1135C30.1442 22.1167 30.2508 22.1475 30.3446 22.2032L45.2932 30.799C45.4229 30.8695 45.5253 30.9809 45.5845 31.1158C45.6437 31.2507 45.6563 31.4014 45.6203 31.5441C45.5849 31.686 45.504 31.8125 45.39 31.9045C45.276 31.9965 45.135 32.049 44.9884 32.0539C44.7451 32.0646 44.4813 32.0699 44.2344 32.0699H44.2308Z" fill="#035BE8"/>
<path fill-rule="evenodd" clip-rule="evenodd" d="M58.3925 28.6471C59.519 25.4977 57.3061 21.6306 52.1396 18.6596C46.8532 15.7266 40.7949 14.4698 34.7731 15.0572L33.9336 14.5705C40.433 10.8307 46.9345 7.09086 53.4381 3.35106C53.9082 3.12932 54.4237 3.02012 54.9436 3.03215C55.4636 3.04417 55.9735 3.1771 56.4327 3.42034C63.8281 7.68357 71.2253 11.9406 78.6242 16.1913C79.486 16.6843 79.5378 17.4579 78.7561 17.91C72.2395 21.6492 65.7335 25.3887 59.2382 29.1285L58.3925 28.6471Z" fill="#EFF3FA"/>
<path fill-rule="evenodd" clip-rule="evenodd" d="M59.1973 28.3247L59.2383 28.3541L78.4148 17.3239C78.5646 17.235 78.6216 17.1409 78.6216 17.1178C78.6216 17.0716 78.5467 16.9286 78.282 16.7741L56.0905 4.00301C55.7369 3.81799 55.3459 3.71517 54.9467 3.70225C54.5476 3.68933 54.1506 3.76666 53.7857 3.92841L35.783 14.2827C41.5931 13.9337 47.3821 15.2494 52.4659 18.0743C57.5343 20.984 60.052 24.8609 59.1955 28.3256L59.1973 28.3247ZM59.2383 29.8027C59.123 29.805 59.0094 29.7741 58.9112 29.7138L58.0548 29.2324C57.9206 29.1514 57.8188 29.0267 57.7665 28.8794C57.7141 28.732 57.7146 28.5712 57.7678 28.4242C58.7962 25.5208 56.4514 21.9184 51.7965 19.2441C46.6423 16.3699 40.7268 15.1425 34.8498 15.7278C34.7114 15.742 34.5723 15.7107 34.4533 15.639L33.5914 15.1523C33.4909 15.0917 33.4083 15.0057 33.3518 14.9031C33.2953 14.8005 33.267 14.6848 33.2697 14.5678C33.267 14.4515 33.2953 14.3366 33.3518 14.2348C33.4083 14.1331 33.491 14.0482 33.5914 13.9888L53.1093 2.76404C53.6778 2.48417 54.3054 2.34427 54.9393 2.35617C55.5733 2.36807 56.1952 2.53139 56.7527 2.8324L78.9639 15.6088C79.2525 15.7473 79.4987 15.9604 79.6766 16.226C79.8545 16.4916 79.9577 16.7998 79.9754 17.1187C79.9625 17.4066 79.8725 17.6858 79.7149 17.9274C79.5573 18.169 79.3376 18.3642 79.0788 18.4927L59.577 29.7147C59.4755 29.7781 59.357 29.8091 59.2374 29.8035L59.2383 29.8027Z" fill="#035BE8"/>
<path fill-rule="evenodd" clip-rule="evenodd" d="M39.125 17.5501C42.8236 17.4089 46.4915 18.2682 49.7395 20.037C52.8089 21.8018 54.2973 24.0809 54.0664 26.1476L39.125 17.5501Z" fill="#EFF3FA"/>
<path fill-rule="evenodd" clip-rule="evenodd" d="M41.7921 18.3071L53.3085 24.939C52.9467 23.4158 51.5501 21.8642 49.3942 20.6154C47.0496 19.3255 44.46 18.5388 41.7921 18.3061V18.3071ZM54.0678 26.8219C53.9487 26.8252 53.8312 26.7944 53.7291 26.7332L38.7815 18.1312C38.6544 18.0582 38.5541 17.9465 38.4952 17.8126C38.4364 17.6787 38.4221 17.5295 38.4544 17.3869C38.4947 17.2444 38.5792 17.1182 38.696 17.0266C38.8127 16.935 38.9556 16.8826 39.1041 16.8771C42.932 16.72 46.73 17.6108 50.0858 19.4528C53.3103 21.3082 55.0054 23.7764 54.7354 26.2215C54.7236 26.3323 54.6843 26.4385 54.6211 26.5304C54.558 26.6223 54.4729 26.6972 54.3735 26.7482C54.2783 26.7949 54.1739 26.8201 54.0678 26.8219Z" fill="#035BE8"/>
<path fill-rule="evenodd" clip-rule="evenodd" d="M49.3028 33.8783C43.2864 34.4671 37.2331 33.2103 31.9533 30.2759C26.7842 27.3041 24.5748 23.4369 25.6844 20.2875L24.8395 19.8008C18.346 23.5406 11.8466 27.2824 5.34123 31.0264C4.55962 31.4785 4.61663 32.2468 5.45617 32.7388C12.87 37.002 20.2716 41.2593 27.6611 45.5107C28.1166 45.755 28.6235 45.8889 29.1406 45.9019C29.6577 45.9149 30.1705 45.8064 30.6378 45.5853C37.1372 41.8455 43.6388 38.1039 50.1423 34.3606L49.3028 33.8783Z" fill="#EFF3FA"/>
<path fill-rule="evenodd" clip-rule="evenodd" d="M24.8387 20.5802L5.67726 31.6104C5.5106 31.6992 5.45266 31.7881 5.45266 31.8165C5.45266 31.8618 5.54182 32.011 5.79225 32.1549L28.0034 44.9321C28.3538 45.1177 28.7423 45.2204 29.1388 45.2322C29.5354 45.2441 29.9294 45.1648 30.2903 45.0005L48.2931 34.6462C42.4828 34.9987 36.693 33.6831 31.6102 30.8555C26.5587 27.9512 24.025 24.0743 24.8805 20.6042L24.8405 20.5811L24.8387 20.5802ZM29.2636 46.5744C28.5855 46.5834 27.9165 46.4176 27.3216 46.093L5.13003 33.3219C4.83943 33.184 4.59098 32.9715 4.41021 32.7061C4.22944 32.4407 4.12289 32.1321 4.10156 31.812C4.11446 31.5241 4.20442 31.2449 4.36207 31.0033C4.51971 30.7617 4.73935 30.5665 4.99818 30.438L24.5026 19.2133C24.6073 19.1554 24.7252 19.125 24.8449 19.125C24.9647 19.125 25.0824 19.1554 25.1871 19.2133L26.0258 19.7001C26.1618 19.7794 26.2663 19.9029 26.3218 20.0499C26.3773 20.1969 26.3804 20.3584 26.3306 20.5074C25.3021 23.4108 27.6291 27.0133 32.284 29.6875C37.4396 32.5578 43.354 33.7849 49.2307 33.2038C49.3766 33.1862 49.5243 33.2174 49.6505 33.2926L50.4891 33.7794C50.5914 33.8379 50.6766 33.9222 50.736 34.0238C50.7954 34.1255 50.8271 34.2408 50.8278 34.3584C50.827 34.4766 50.7954 34.5926 50.736 34.695C50.6767 34.7973 50.5915 34.8824 50.4891 34.942L30.9846 46.1667C30.4549 46.446 29.8627 46.5863 29.2636 46.5744Z" fill="#035BE8"/>
<path fill-rule="evenodd" clip-rule="evenodd" d="M64.8751 13.9511C66.1906 13.1953 66.212 11.975 64.9153 11.236C64.1841 10.8706 63.3765 10.6827 62.5585 10.6876C61.7405 10.6925 60.9354 10.8902 60.2087 11.2644C58.8719 12.0203 58.8523 13.2344 60.1517 13.9796C60.886 14.3448 61.6962 14.5326 62.5169 14.5276C63.3375 14.5227 64.1454 14.3252 64.8751 13.9511Z" fill="white"/>
<path fill-rule="evenodd" clip-rule="evenodd" d="M62.6127 11.3611C61.8896 11.346 61.1742 11.5115 60.5317 11.8425C60.1129 12.0832 59.8659 12.387 59.8659 12.6419C59.8659 12.8968 60.0959 13.1686 60.4899 13.3924C61.1203 13.6999 61.8138 13.8575 62.5158 13.8526C63.2177 13.8476 63.909 13.6804 64.5351 13.364C64.954 13.1233 65.2018 12.8257 65.2018 12.5646C65.2018 12.3035 64.9718 12.0441 64.5931 11.8203C63.9818 11.5022 63.2994 11.3445 62.6101 11.362L62.6127 11.3611ZM62.4701 15.1989C61.5414 15.217 60.6235 14.9981 59.8036 14.563C59.4381 14.3863 59.1268 14.1151 58.9024 13.7776C58.6779 13.4402 58.5483 13.0489 58.5273 12.6446C58.5536 12.228 58.6914 11.8261 58.9265 11.4807C59.1616 11.1353 59.4855 10.859 59.8642 10.6808C60.6964 10.2487 61.62 10.0207 62.5584 10.0157C63.4968 10.0108 64.4229 10.229 65.2596 10.6523C65.6293 10.8237 65.9452 11.0924 66.1731 11.4293C66.4009 11.7663 66.5322 12.1588 66.5529 12.5646C66.5233 12.9828 66.3827 13.3857 66.1454 13.7318C65.9082 14.078 65.5828 14.3551 65.2026 14.5346C64.3652 14.984 63.4265 15.2127 62.4755 15.1989H62.4701Z" fill="#035BE8"/>
<path fill-rule="evenodd" clip-rule="evenodd" d="M23.7704 37.6018C23.039 37.9743 22.2303 38.1709 21.4089 38.1759C20.5876 38.1808 19.7765 37.9939 19.0407 37.6302C17.7422 36.8859 17.7644 35.6762 19.0977 34.9159C19.8249 34.5408 20.6307 34.3421 21.4495 34.3361C22.2683 34.3301 23.0769 34.5169 23.8096 34.8813C25.1072 35.6265 25.0894 36.8397 23.7704 37.6018Z" fill="white"/>
<path fill-rule="evenodd" clip-rule="evenodd" d="M21.5019 35.008C20.7792 34.9906 20.0643 35.1605 19.4271 35.501C19.0074 35.7355 18.7552 36.0392 18.7552 36.3004C18.7552 36.5615 18.9851 36.827 19.387 37.0508C20.0171 37.3568 20.7095 37.5134 21.4104 37.5085C22.1112 37.5036 22.8014 37.3372 23.427 37.0224C23.8468 36.7817 24.0936 36.4842 24.0936 36.2231C24.0936 35.9619 23.8637 35.7017 23.4698 35.4726C22.864 35.1571 22.1879 34.9993 21.5046 35.0142L21.5019 35.008ZM21.3478 38.8503C20.4248 38.865 19.5131 38.6462 18.6981 38.2143C18.3333 38.0366 18.0228 37.7652 17.7984 37.4279C17.5741 37.0907 17.4441 36.6999 17.4219 36.2959C17.4481 35.8792 17.586 35.4771 17.8211 35.1316C18.0562 34.7861 18.38 34.5097 18.7587 34.3312C19.5905 33.8978 20.5144 33.6691 21.453 33.6641C22.3917 33.6592 23.3179 33.8782 24.1542 34.3028C24.5221 34.4776 24.8364 34.747 25.0648 35.0834C25.2932 35.4197 25.4275 35.8106 25.4536 36.2159C25.4233 36.6339 25.2816 37.0362 25.0431 37.3814C24.8047 37.7266 24.4781 38.0022 24.0972 38.1797C23.2553 38.6384 22.3079 38.8698 21.3486 38.8511L21.3478 38.8503Z" fill="#035BE8"/>
<path fill-rule="evenodd" clip-rule="evenodd" d="M63.3141 30.2547L52.1078 36.7091L20.668 18.6232L31.8796 12.168L63.3141 30.2547Z" fill="white"/>
<path fill-rule="evenodd" clip-rule="evenodd" d="M22.0194 18.6184L52.1028 35.9253L61.958 30.2499L31.8746 12.9429L22.0194 18.6184ZM52.1028 37.3739C51.9821 37.3742 51.8633 37.3437 51.7578 37.2851L20.318 19.1992C20.2178 19.1399 20.1352 19.0551 20.0786 18.9535C20.0221 18.8519 19.9937 18.7372 19.9963 18.621C19.9936 18.504 20.0219 18.3884 20.0784 18.2858C20.1349 18.1832 20.2175 18.0972 20.318 18.0366L31.5475 11.5823C31.6486 11.5233 31.7636 11.4922 31.8808 11.4922C31.998 11.4922 32.113 11.5233 32.2141 11.5823L63.654 29.6672C63.7585 29.7252 63.8455 29.81 63.9062 29.9127C63.9668 30.0155 63.9987 30.1325 63.9987 30.2517C63.9987 30.3709 63.9668 30.4879 63.9062 30.5907C63.8455 30.6934 63.7585 30.7781 63.654 30.8361L52.4423 37.2904C52.3382 37.3449 52.223 37.3747 52.1054 37.3774L52.1028 37.3739Z" fill="#035BE8"/>
<path fill-rule="evenodd" clip-rule="evenodd" d="M83.3106 17.3164V33.4323C83.2628 33.9582 83.0753 34.4619 82.7673 34.8917C82.4594 35.3214 82.0421 35.6617 81.5585 35.8774L33.8778 63.3219C32.7413 63.9214 31.4845 64.2598 30.1997 64.3122L29.9118 64.3238C28.3353 64.3985 26.7675 64.0504 25.3719 63.3158L2.43704 50.1264C1.95657 49.9062 1.54216 49.5648 1.23483 49.1359C0.927504 48.707 0.73792 48.2056 0.684886 47.6812L0.667969 31.56C0.723996 32.0836 0.914846 32.5838 1.22199 33.0122C1.52914 33.4406 1.94215 33.7827 2.421 34.0051L25.3559 47.2007C26.7515 47.9354 28.3192 48.2835 29.8958 48.2088C31.28 48.1987 32.6409 47.8527 33.8608 47.2007L81.562 19.7624C82.0419 19.5417 82.4557 19.1999 82.7624 18.7709C83.0691 18.3419 83.2581 17.8405 83.3106 17.3164Z" fill="#EFF3FA"/>
<path fill-rule="evenodd" clip-rule="evenodd" d="M1.35022 34.075V47.6826C1.43043 48.5353 1.8671 48.9705 2.80467 49.5611L25.6994 62.739C26.9882 63.4188 28.4385 63.7357 29.8944 63.6555L30.1618 63.644C31.3409 63.599 32.4944 63.2877 33.5351 62.7336L81.2203 35.3015C82.1347 34.718 82.5713 34.2935 82.6462 33.3831V19.826C82.3993 20.009 82.1694 20.1759 81.9226 20.3305L34.1991 47.7821C32.8858 48.4863 31.4204 48.8619 29.9292 48.8763C28.2296 48.9472 26.5412 48.572 25.0328 47.7883L2.09795 34.5874C1.83808 34.4315 1.58835 34.2595 1.35022 34.0723V34.075ZM29.7216 65.0002C28.0896 65.0462 26.4737 64.6692 25.0319 63.906L2.09795 50.7131C1.52223 50.4365 1.02712 50.0176 0.659881 49.4963C0.292637 48.975 0.0654819 48.3687 0 47.7351V31.5606C0.000720327 31.3864 0.0685543 31.2191 0.189462 31.0933C0.31037 30.9675 0.47512 30.8928 0.649709 30.8846C0.737402 30.8763 0.825886 30.8861 0.909614 30.9134C0.993342 30.9407 1.07052 30.9848 1.13634 31.0432C1.20216 31.1015 1.25518 31.1728 1.29213 31.2525C1.32908 31.3322 1.34916 31.4186 1.35109 31.5063C1.4313 32.4229 1.85109 32.8466 2.80559 33.4426L25.7003 46.6204C26.9911 47.2946 28.4399 47.6112 29.8953 47.537C31.1657 47.5333 32.4155 47.2166 33.5333 46.615L81.2176 19.183C82.132 18.5985 82.5687 18.1802 82.6435 17.2645C82.6451 17.1777 82.6645 17.092 82.7005 17.0129C82.7366 16.9338 82.7886 16.8629 82.8532 16.8047C82.9179 16.7464 82.9939 16.702 83.0765 16.6741C83.1591 16.6463 83.2465 16.6356 83.3333 16.6428C83.5073 16.651 83.6714 16.7259 83.7914 16.8519C83.9113 16.9778 83.9777 17.1451 83.9768 17.3187L84 33.4346C83.9385 34.0724 83.7153 34.6841 83.3514 35.2123C82.9876 35.7406 82.495 36.1679 81.9198 36.4543L34.1991 63.9033C32.9799 64.5668 31.6223 64.9376 30.234 64.986L29.9292 65.0029L29.7216 65.0002Z" fill="#035BE8"/>
<path fill-rule="evenodd" clip-rule="evenodd" d="M29.8771 64.3269C28.3125 64.3934 26.7581 64.0459 25.372 63.3196L2.4371 50.124C1.9559 49.9034 1.54096 49.5612 1.23358 49.1313C0.926202 48.7014 0.737081 48.1989 0.68494 47.6736L0.667969 31.5586C0.723593 32.0821 0.914064 32.5825 1.22091 33.011C1.52775 33.4396 1.94057 33.7819 2.41926 34.0046L25.3541 47.2002C26.7462 47.9278 28.3066 48.2756 29.8771 48.2082V64.3269Z" fill="#035BE8"/>
<path fill-rule="evenodd" clip-rule="evenodd" d="M1.35109 34.076V47.6775C1.4313 48.5363 1.86797 48.9715 2.80554 49.5613L25.7003 62.7391C26.7808 63.3126 27.9824 63.6228 29.2064 63.6442V48.8748C27.7484 48.8531 26.3172 48.4817 25.0337 47.7921L2.09882 34.5911C1.83897 34.4353 1.58923 34.2632 1.35109 34.076ZM29.6823 65.0057C28.064 65.051 26.4617 64.6761 25.0328 63.9177L2.0979 50.7168C1.52217 50.4402 1.02712 50.0213 0.659881 49.5C0.292637 48.9787 0.0654819 48.3723 0 47.7387V31.5616C0.000720327 31.3874 0.0684999 31.2202 0.189408 31.0944C0.310315 30.9686 0.475065 30.8939 0.649654 30.8857C0.737347 30.8774 0.825831 30.8871 0.909559 30.9144C0.993288 30.9417 1.07046 30.9859 1.13628 31.0443C1.2021 31.1026 1.25518 31.1739 1.29213 31.2536C1.32908 31.3332 1.34916 31.4197 1.35109 31.5074C1.4313 32.4187 1.86797 32.8592 2.80554 33.4436L25.7003 46.6215C26.9852 47.2953 28.4284 47.6116 29.8784 47.5372C30.0539 47.5435 30.2212 47.6126 30.3498 47.7317C30.4159 47.7935 30.4688 47.868 30.5053 47.9507C30.5417 48.0334 30.561 48.1227 30.562 48.2131V64.3352C30.5604 64.5114 30.4898 64.6801 30.3653 64.8054C30.2408 64.9306 30.0722 65.0025 29.8953 65.0057H29.6823Z" fill="#035BE8"/>
<path fill-rule="evenodd" clip-rule="evenodd" d="M63.3137 30.2539V46.3751L51.5156 53.1732V37.0511C58.0153 33.3048 56.814 33.9931 63.3137 30.2539Z" fill="#EFF3FA"/>
<path fill-rule="evenodd" clip-rule="evenodd" d="M52.1846 37.4358V52.0018L62.6494 45.9888V31.4228L52.1846 37.4358ZM51.518 53.8439C51.3969 53.8472 51.2774 53.8163 51.1731 53.755C51.0696 53.6975 50.9832 53.6137 50.9226 53.5122C50.862 53.4106 50.8294 53.2949 50.8281 53.1768V37.0547C50.8292 36.9359 50.8617 36.8194 50.9222 36.717C50.9828 36.6145 51.0693 36.5298 51.1731 36.4712L62.9765 29.6732C63.0802 29.6137 63.1977 29.5823 63.3174 29.582C63.4371 29.5818 63.5547 29.6127 63.6587 29.6718C63.7626 29.7309 63.8493 29.816 63.91 29.9188C63.9708 30.0215 64.0035 30.1383 64.005 30.2576V46.3788C64.0031 46.4976 63.9704 46.614 63.9099 46.7164C63.8495 46.8189 63.7634 46.9039 63.66 46.9632L51.8388 53.756C51.7423 53.8171 51.6295 53.8477 51.5153 53.8439H51.518Z" fill="#035BE8"/>
<path fill-rule="evenodd" clip-rule="evenodd" d="M28.6379 44.0152C28.5204 44.0161 28.4049 43.9852 28.3036 43.9258C28.2024 43.8663 28.1192 43.7806 28.0631 43.6777C27.9735 43.5226 27.9493 43.3386 27.9957 43.1657C28.0422 42.9929 28.1555 42.8455 28.3108 42.7558L34.069 39.4341C34.146 39.3876 34.2315 39.3567 34.3205 39.3434C34.4096 39.3301 34.5004 39.3346 34.5877 39.3565C34.675 39.3785 34.757 39.4175 34.8291 39.4712C34.9012 39.525 34.9617 39.5925 35.0074 39.6699C35.0531 39.7472 35.0829 39.8327 35.0951 39.9216C35.1073 40.0105 35.1017 40.101 35.0786 40.1877C35.0554 40.2744 35.0153 40.3556 34.9604 40.4267C34.9055 40.4979 34.837 40.5574 34.7589 40.602L28.9775 43.9237C28.8742 43.9832 28.7571 44.0148 28.6379 44.0152Z" fill="#035BE8"/>
<path fill-rule="evenodd" clip-rule="evenodd" d="M9.13317 32.7914C9.01704 32.7922 8.90284 32.7618 8.80261 32.7033C8.70237 32.6449 8.61984 32.5605 8.5637 32.4592C8.51776 32.3829 8.48769 32.2982 8.47525 32.21C8.46281 32.1219 8.46827 32.0321 8.4913 31.9461C8.51432 31.8601 8.55443 31.7796 8.60928 31.7094C8.66413 31.6392 8.73256 31.5806 8.81055 31.5373L14.5688 28.2155C14.7254 28.126 14.9111 28.1017 15.0855 28.1479C15.2599 28.1942 15.4089 28.3072 15.5001 28.4624C15.59 28.6173 15.6145 28.8014 15.5682 28.9743C15.5219 29.1472 15.4086 29.2947 15.2532 29.3843L9.47723 32.7061C9.3709 32.7611 9.25298 32.7904 9.13317 32.7914Z" fill="#035BE8"/>
<path fill-rule="evenodd" clip-rule="evenodd" d="M49.5723 9.5268C49.4522 9.52531 49.3344 9.49359 49.2298 9.43459C49.1253 9.37558 49.0374 9.2912 48.9743 9.18929C48.8892 9.03357 48.868 8.85105 48.9152 8.6801C48.9625 8.50914 49.0744 8.36311 49.2274 8.27271L55.0026 4.95182C55.0793 4.90354 55.1649 4.87113 55.2545 4.85652C55.344 4.84191 55.4356 4.84539 55.5237 4.86677C55.6119 4.88815 55.6948 4.92701 55.7676 4.98099C55.8404 5.03496 55.9016 5.10301 55.9474 5.18102C55.9933 5.25903 56.023 5.34544 56.0346 5.4351C56.0463 5.52477 56.0397 5.61581 56.0154 5.7029C55.991 5.78999 55.9493 5.87132 55.8927 5.94202C55.8362 6.01271 55.7659 6.07137 55.6862 6.11446L49.911 9.43535C49.8077 9.49405 49.6912 9.52551 49.5723 9.5268Z" fill="#035BE8"/>
<path fill-rule="evenodd" clip-rule="evenodd" d="M69.0701 20.7526C68.9517 20.7504 68.8358 20.7182 68.7333 20.659C68.6309 20.5998 68.5453 20.5155 68.4845 20.4143C68.3954 20.2592 68.3713 20.0753 68.4175 19.9026C68.4638 19.73 68.5766 19.5825 68.7314 19.4923L74.5065 16.1706C74.5831 16.1258 74.6678 16.0966 74.7558 16.0845C74.8437 16.0724 74.9332 16.0776 75.0191 16.1C75.1051 16.1223 75.1856 16.1613 75.2564 16.2147C75.3272 16.2681 75.3868 16.3349 75.4317 16.4112C75.4766 16.4876 75.5059 16.572 75.5181 16.6596C75.5302 16.7473 75.5249 16.8365 75.5025 16.9221C75.4801 17.0077 75.4409 17.088 75.3873 17.1586C75.3337 17.2291 75.2668 17.2885 75.1902 17.3332L69.415 20.6603C69.3089 20.7176 69.1907 20.7492 69.0701 20.7526Z" fill="#035BE8"/>
</g>
<defs>
<clipPath id="clip0_9_113018">
<rect width="84" height="65" fill="white"/>
</clipPath>
</defs>
</svg>
