<svg xmlns="http://www.w3.org/2000/svg" width="84" height="65" fill="none" viewBox="0 0 84 65"><g fill-rule="evenodd" clip-path="url(#a)" clip-rule="evenodd"><path fill="#035be8" d="M53.019 47.087a.7.7 0 0 1-.592-.339.665.665 0 0 1 .247-.915l5.815-3.35a.68.68 0 0 1 1.015.756.68.68 0 0 1-.331.412l-5.832 3.345a.57.57 0 0 1-.322.09"/><path fill="#fff" d="M2.422 29.116 50.126 1.677a9.45 9.45 0 0 1 8.498 0L81.56 14.872c2.345 1.346 2.345 3.545 0 4.891L33.861 47.202a9.46 9.46 0 0 1-8.505 0L2.422 34.006c-2.323-1.346-2.323-3.545 0-4.89"/><path fill="#035be8" d="M2.765 29.7a1.94 1.94 0 0 0-1.414 1.86 1.93 1.93 0 0 0 1.414 1.862L25.7 46.616a8.84 8.84 0 0 0 7.833 0l47.685-27.438a1.95 1.95 0 0 0 1.412-1.865 1.936 1.936 0 0 0-1.412-1.865L58.283 2.252a8.81 8.81 0 0 0-7.821 0L2.764 29.697zm26.843 19.173a9.34 9.34 0 0 1-4.575-1.089L2.098 34.59A3.25 3.25 0 0 1 .576 33.4a3.232 3.232 0 0 1 1.522-4.87L49.78 1.094a10.2 10.2 0 0 1 9.189 0l22.92 13.195a3.236 3.236 0 0 1 0 6.06L34.202 47.783a9.4 9.4 0 0 1-4.594 1.09"/><path fill="#eff3fa" d="M30.027 22.785c-.23 2.067 1.242 4.347 4.311 6.11a20.65 20.65 0 0 0 10.637 2.488l-14.948-8.596z"/><path fill="#035be8" d="M30.766 23.995c.362 1.524 1.759 3.075 3.914 4.318a19.3 19.3 0 0 0 7.62 2.31zm13.465 8.075a20.87 20.87 0 0 1-10.218-2.588c-3.224-1.856-4.925-4.325-4.672-6.77a.68.68 0 0 1 .38-.526.64.64 0 0 1 .624.017L45.293 30.8a.664.664 0 0 1 .097 1.105.68.68 0 0 1-.402.15c-.243.01-.507.016-.754.016z"/><path fill="#eff3fa" d="M58.393 28.647c1.126-3.15-1.087-7.016-6.253-9.987a29.83 29.83 0 0 0-17.367-3.603l-.84-.487q9.75-5.61 19.505-11.219a3.35 3.35 0 0 1 2.995.07q11.093 6.395 22.191 12.77c.862.493.914 1.267.132 1.719a15172 15172 0 0 0-19.518 11.218z"/><path fill="#035be8" d="m59.197 28.325.041.03 19.177-11.031c.15-.089.207-.183.207-.206 0-.046-.075-.19-.34-.344L56.091 4.003a2.65 2.65 0 0 0-2.305-.075L35.783 14.283c5.81-.35 11.6.966 16.683 3.791 5.068 2.91 7.586 6.787 6.73 10.252zm.041 1.478a.6.6 0 0 1-.327-.09l-.856-.48a.68.68 0 0 1-.287-.809c1.028-2.903-1.317-6.506-5.971-9.18a28.9 28.9 0 0 0-16.947-3.516.64.64 0 0 1-.397-.089l-.862-.487a.67.67 0 0 1-.321-.584.66.66 0 0 1 .321-.58L53.11 2.765a3.98 3.98 0 0 1 3.644.068l22.21 12.777a1.79 1.79 0 0 1 1.012 1.51 1.61 1.61 0 0 1-.896 1.374L59.577 29.715a.6.6 0 0 1-.34.088z"/><path fill="#eff3fa" d="M39.125 17.55a20.56 20.56 0 0 1 10.615 2.487c3.069 1.765 4.557 4.044 4.326 6.11z"/><path fill="#035be8" d="M41.792 18.307 53.31 24.94c-.362-1.523-1.759-3.075-3.915-4.324a19.2 19.2 0 0 0-7.602-2.309zm12.276 8.515a.63.63 0 0 1-.339-.089l-14.947-8.602a.69.69 0 0 1-.328-.744.7.7 0 0 1 .65-.51 21.03 21.03 0 0 1 10.982 2.576c3.224 1.855 4.92 4.323 4.65 6.768a.67.67 0 0 1-.668.6"/><path fill="#eff3fa" d="M49.303 33.878a29.75 29.75 0 0 1-17.35-3.602c-5.169-2.972-7.378-6.84-6.269-9.988l-.844-.487-19.5 11.225c-.781.453-.724 1.22.115 1.713q11.121 6.394 22.205 12.772a3.3 3.3 0 0 0 2.977.074l19.504-11.224z"/><path fill="#035be8" d="M24.839 20.58 5.677 31.61c-.166.09-.224.178-.224.207 0 .045.089.194.34.338l22.21 12.777a2.59 2.59 0 0 0 2.287.069l18.003-10.355a30.5 30.5 0 0 1-16.683-3.79c-5.051-2.905-7.585-6.782-6.73-10.252l-.04-.023zm4.425 25.994a3.95 3.95 0 0 1-1.942-.481L5.13 33.322a1.81 1.81 0 0 1-1.028-1.51 1.61 1.61 0 0 1 .896-1.374l19.505-11.225a.71.71 0 0 1 .684 0l.839.487a.685.685 0 0 1 .305.807c-1.029 2.904 1.298 6.506 5.953 9.18a29 29 0 0 0 16.947 3.517.67.67 0 0 1 .42.089l.838.486a.67.67 0 0 1 .339.58.68.68 0 0 1-.339.583L30.985 46.167a3.54 3.54 0 0 1-1.721.407"/><path fill="#fff" d="M64.875 13.951c1.316-.756 1.337-1.976.04-2.715a5.2 5.2 0 0 0-4.706.028c-1.337.756-1.357 1.97-.057 2.716a5.24 5.24 0 0 0 4.723-.029"/><path fill="#035be8" d="M62.613 11.361a4.35 4.35 0 0 0-2.081.481c-.42.241-.666.545-.666.8s.23.527.624.75a4.55 4.55 0 0 0 4.045-.028c.419-.24.667-.538.667-.8 0-.26-.23-.52-.609-.744a4.1 4.1 0 0 0-1.983-.458zM62.47 15.2a5.46 5.46 0 0 1-2.666-.636 2.27 2.27 0 0 1-1.277-1.918 2.33 2.33 0 0 1 1.337-1.964 5.92 5.92 0 0 1 5.396-.029 2.24 2.24 0 0 1 1.293 1.913 2.36 2.36 0 0 1-1.35 1.97 5.6 5.6 0 0 1-2.728.664z"/><path fill="#fff" d="M23.77 37.602a5.27 5.27 0 0 1-4.73.028c-1.298-.744-1.276-1.954.058-2.714a5.21 5.21 0 0 1 4.712-.035c1.297.745 1.28 1.959-.04 2.72"/><path fill="#035be8" d="M21.502 35.008a4.2 4.2 0 0 0-2.075.493c-.42.235-.672.538-.672.8 0 .26.23.526.632.75a4.56 4.56 0 0 0 4.04-.029c.42-.24.667-.538.667-.799s-.23-.521-.624-.75a4.06 4.06 0 0 0-1.965-.459zm-.154 3.842a5.5 5.5 0 0 1-2.65-.636 2.28 2.28 0 0 1-1.276-1.918 2.33 2.33 0 0 1 1.337-1.965 5.9 5.9 0 0 1 5.395-.028 2.29 2.29 0 0 1 1.3 1.913 2.35 2.35 0 0 1-1.357 1.964 5.5 5.5 0 0 1-2.748.671z"/><path fill="#fff" d="m63.314 30.255-11.206 6.454-31.44-18.086 11.212-6.455z"/><path fill="#035be8" d="m22.02 18.618 30.083 17.307 9.855-5.675-30.083-17.307zm30.083 18.756c-.12 0-.24-.03-.345-.089L20.318 19.2a.66.66 0 0 1-.322-.578.66.66 0 0 1 .322-.584l11.23-6.455a.66.66 0 0 1 .666 0l31.44 18.085a.67.67 0 0 1 .345.585.67.67 0 0 1-.345.584L52.442 37.29a.8.8 0 0 1-.337.087z"/><path fill="#eff3fa" d="M83.31 17.316v16.116a2.97 2.97 0 0 1-1.752 2.445l-47.68 27.445a8.6 8.6 0 0 1-3.678.99l-.288.012a8.85 8.85 0 0 1-4.54-1.008L2.437 50.126a3.03 3.03 0 0 1-1.752-2.445L.668 31.56a3.05 3.05 0 0 0 1.753 2.445l22.935 13.196a8.85 8.85 0 0 0 4.54 1.008A8.54 8.54 0 0 0 33.86 47.2l47.701-27.439a3.03 3.03 0 0 0 1.749-2.446"/><path fill="#035be8" d="M1.35 34.075v13.608c.08.852.517 1.288 1.455 1.878L25.699 62.74c1.29.68 2.74.997 4.195.917l.268-.012a7.8 7.8 0 0 0 3.373-.91L81.22 35.3c.915-.583 1.351-1.008 1.426-1.918V19.826c-.247.183-.477.35-.723.505L34.199 47.782a9.2 9.2 0 0 1-4.27 1.094 9.74 9.74 0 0 1-4.896-1.088l-22.935-13.2a7 7 0 0 1-.748-.516zM29.722 65a9.46 9.46 0 0 1-4.69-1.094L2.098 50.713A3.74 3.74 0 0 1 0 47.735V31.561a.68.68 0 0 1 .65-.676.643.643 0 0 1 .701.621c.08.917.5 1.34 1.455 1.937L25.7 46.62a8.16 8.16 0 0 0 4.195.917 7.7 7.7 0 0 0 3.638-.922l47.685-27.432c.914-.584 1.35-1.003 1.425-1.918a.636.636 0 0 1 .69-.622.677.677 0 0 1 .644.676L84 33.435a3.77 3.77 0 0 1-2.08 3.02L34.2 63.902a8.95 8.95 0 0 1-3.966 1.083l-.305.017z"/><path fill="#035be8" d="M29.877 64.327a8.9 8.9 0 0 1-4.505-1.007L2.437 50.124a3.03 3.03 0 0 1-1.752-2.45L.668 31.559a3.05 3.05 0 0 0 1.751 2.446L25.354 47.2a8.94 8.94 0 0 0 4.523 1.008z"/><path fill="#035be8" d="M1.351 34.076v13.602c.08.858.517 1.294 1.455 1.883L25.7 62.74a7.8 7.8 0 0 0 3.506.905v-14.77a9.1 9.1 0 0 1-4.172-1.082l-22.935-13.2a7 7 0 0 1-.748-.516m28.331 30.93a9.36 9.36 0 0 1-4.65-1.088L2.099 50.717A3.74 3.74 0 0 1 0 47.739V31.562a.68.68 0 0 1 .65-.676.643.643 0 0 1 .701.621c.08.912.517 1.352 1.455 1.937L25.7 46.62a8.1 8.1 0 0 0 4.178.916.73.73 0 0 1 .472.195.67.67 0 0 1 .212.481v16.122a.676.676 0 0 1-.667.67z"/><path fill="#eff3fa" d="M63.314 30.254v16.121l-11.798 6.798V37.051c6.5-3.746 5.298-3.058 11.798-6.797"/><path fill="#035be8" d="M52.185 37.436v14.566l10.464-6.013V31.423zm-.667 16.408a.65.65 0 0 1-.345-.089.67.67 0 0 1-.345-.578V37.055a.68.68 0 0 1 .345-.584l11.804-6.798a.688.688 0 0 1 1.028.585v16.12a.69.69 0 0 1-.345.585l-11.821 6.793a.57.57 0 0 1-.324.088zm-22.88-9.829a.65.65 0 0 1-.575-.337.674.674 0 0 1 .248-.922l5.758-3.322a.682.682 0 0 1 1.026.488.68.68 0 0 1-.336.68l-5.782 3.322a.7.7 0 0 1-.34.091M9.133 32.791a.65.65 0 0 1-.57-.332.66.66 0 0 1 .248-.922l5.758-3.322a.687.687 0 0 1 .931.247.673.673 0 0 1-.247.922l-5.776 3.322a.8.8 0 0 1-.344.085M49.572 9.527a.72.72 0 0 1-.598-.338.683.683 0 0 1 .253-.916l5.776-3.321a.677.677 0 0 1 1.012.75.67.67 0 0 1-.329.412l-5.775 3.321a.7.7 0 0 1-.339.092M69.07 20.753a.7.7 0 0 1-.585-.339.676.676 0 0 1 .246-.922l5.776-3.321a.676.676 0 0 1 .88.988.7.7 0 0 1-.197.174l-5.775 3.327a.8.8 0 0 1-.345.093"/></g><defs><clipPath id="a"><path fill="#fff" d="M0 0h84v65H0z"/></clipPath></defs></svg>