<svg xmlns="http://www.w3.org/2000/svg" width="1096" height="573" fill="none" viewBox="0 0 1096 573"><path fill="#1b69ff" d="M931.998 376.999a1 1 0 1 0 0 2zm90.002-176c0 44.28 2.09 77.497 3.29 102.376.6 12.446.97 22.784.74 31.385-.22 8.607-1.04 15.409-2.8 20.805-1.74 5.37-4.4 9.334-8.33 12.302-3.95 2.984-9.24 5.017-16.349 6.384-14.249 2.743-35.378 2.748-66.553 2.748v2c31.075 0 52.446.004 66.931-2.784 7.261-1.398 12.891-3.513 17.181-6.752 4.3-3.255 7.18-7.588 9.03-13.28 1.84-5.667 2.67-12.693 2.89-21.371.23-8.684-.15-19.088-.74-31.533-1.2-24.902-3.29-58.06-3.29-102.28z"/><path stroke="#1b69ff" stroke-linecap="square" stroke-width="2" d="M932 378.001c-22 44.999 9 129-33.5 129L739 507"/><path fill="#1b69ff" d="M169.299 376.999a1 1 0 0 1 0 2zm-90-176c0 44.28-2.096 77.497-3.29 102.376-.598 12.446-.97 22.784-.745 31.385.225 8.607 1.046 15.409 2.799 20.805 1.744 5.37 4.407 9.334 8.334 12.302 3.947 2.984 9.245 5.017 16.349 6.384 14.249 2.743 35.378 2.748 66.553 2.748v2c-31.075 0-52.446.004-66.931-2.784-7.263-1.398-12.892-3.513-17.177-6.752-4.306-3.255-7.181-7.588-9.03-13.28-1.841-5.667-2.67-12.693-2.896-21.371-.227-8.684.148-19.088.746-31.533 1.196-24.902 3.288-58.06 3.288-102.28z"/><path stroke="#1b69ff" stroke-linecap="square" stroke-width="2" d="M169.297 378.001c22 44.999-10 113 32.5 112.999H349.5"/><mask id="a" width="146" height="221" x="0" y="0" maskUnits="userSpaceOnUse" style="mask-type:luminance"><path fill="#fff" d="M146 .368H0v219.8h146z"/></mask><g mask="url(#a)"><path fill="url(#b)" d="M146.006 161.528c.241 2.086-.882 4.011-3.369 5.535l-60.486 35.136c-5.054 2.968-13.878 2.567-19.734-.802L4.899 167.945C1.771 166.1.086 163.774.086 161.528v-24.547h145.92z"/><path fill="url(#c)" d="M3.453 132.248 63.94 97.032c5.054-2.968 13.878-2.567 19.734.802l57.598 33.532c5.856 3.369 6.498 8.503 1.444 11.471l-60.486 35.216c-5.054 2.968-13.878 2.567-19.734-.802L4.817 143.719c-5.776-3.369-6.418-8.503-1.364-11.471"/><path fill="url(#d)" d="M146.006 127.836c.241 2.086-.882 4.011-3.369 5.535l-60.486 35.136c-5.054 2.968-13.878 2.567-19.734-.802L4.899 134.254c-3.128-1.845-4.813-4.172-4.813-6.418v-24.547h145.92z"/><path fill="url(#e)" d="M3.453 98.235 63.94 63.34c5.054-2.888 13.878-2.567 19.734.802l57.518 33.21c5.856 3.37 6.497 8.424 1.444 11.392l-60.486 34.895c-5.054 2.888-13.878 2.567-19.734-.802L4.817 109.626c-5.776-3.369-6.418-8.503-1.364-11.39"/><path fill="url(#f)" d="M146.006 93.342c.241 2.086-.882 4.01-3.369 5.455l-60.486 35.136c-5.054 2.888-13.878 2.567-19.734-.802L4.899 99.76C1.771 97.914.086 95.588.086 93.342V68.715h145.92z"/><path fill="url(#g)" d="M3.453 63.741 63.94 28.846c5.054-2.888 13.878-2.567 19.734.802l57.518 33.13c5.856 3.37 6.497 8.423 1.444 11.392l-60.486 34.895c-5.054 2.888-13.878 2.567-19.734-.802L4.817 75.052c-5.776-3.37-6.418-8.423-1.364-11.311"/><g opacity=".4"><path fill="url(#h)" d="M145.92 162.812c-.241 2.085-1.685 4.091-4.412 5.615l-28.799 16.525-28.8 16.525c-6.818 3.449-14.84 3.449-21.578 0l-28.8-16.525-28.798-16.525c-2.487-1.444-3.93-3.289-4.332-5.134H0V44.489h146V162.73z"/><path fill="url(#i)" d="M145.92 161.769v.481c0 2.246-1.524 4.492-4.493 6.177l-57.597 33.05c-6.819 3.45-14.841 3.45-21.58 0l-57.517-33.05c-2.808-1.604-4.332-3.69-4.412-5.856H.24L0 17.214h146z"/></g><g opacity=".4"><path fill="url(#j)" d="M.08 68.62c.24-2.085 1.685-4.09 4.412-5.615l28.8-16.525L62.09 29.955c6.819-3.45 14.84-3.45 21.58 0l28.798 16.525 28.799 16.526c2.487 1.444 3.931 3.288 4.332 5.133H146v118.805H0V68.701z"/><path fill="url(#k)" d="M.08 69.664v-.482c0-2.246 1.524-4.492 4.493-6.177l57.597-33.05c6.819-3.45 14.841-3.45 21.58 0l57.517 33.05c2.808 1.605 4.332 3.69 4.412 5.857h.08L146 214.218H0z"/></g></g><mask id="l" width="146" height="221" x="950" y="0" maskUnits="userSpaceOnUse" style="mask-type:luminance"><path fill="#fff" d="M1096 .368H950v219.8h146z"/></mask><g mask="url(#l)"><path fill="url(#m)" d="M1096.01 161.528c.24 2.086-.89 4.011-3.37 5.535l-60.49 35.136c-5.05 2.968-13.88 2.567-19.73-.802l-57.521-33.452c-3.128-1.845-4.813-4.171-4.813-6.417v-24.547h145.924z"/><path fill="url(#n)" d="m953.453 132.248 60.487-35.216c5.05-2.968 13.88-2.567 19.73.802l57.6 33.532c5.86 3.369 6.5 8.503 1.44 11.471l-60.48 35.216c-5.05 2.968-13.88 2.567-19.74-.802l-57.673-33.532c-5.776-3.369-6.418-8.503-1.364-11.471"/><path fill="url(#o)" d="M1096.01 127.836c.24 2.086-.89 4.011-3.37 5.535l-60.49 35.136c-5.05 2.968-13.88 2.567-19.73-.802l-57.521-33.451c-3.128-1.845-4.813-4.172-4.813-6.418v-24.547h145.924z"/><path fill="url(#p)" d="m953.453 98.235 60.487-34.895c5.05-2.888 13.88-2.567 19.73.802l57.52 33.21c5.86 3.37 6.5 8.424 1.44 11.392l-60.48 34.895c-5.05 2.888-13.88 2.567-19.74-.802l-57.593-33.211c-5.776-3.369-6.418-8.503-1.364-11.39"/><path fill="url(#q)" d="M1096.01 93.342c.24 2.086-.89 4.01-3.37 5.455l-60.49 35.136c-5.05 2.888-13.88 2.567-19.73-.802L954.899 99.76c-3.128-1.846-4.813-4.172-4.813-6.418V68.715h145.924z"/><path fill="url(#r)" d="m953.453 63.741 60.487-34.895c5.05-2.888 13.88-2.567 19.73.802l57.52 33.13c5.86 3.37 6.5 8.423 1.44 11.392l-60.48 34.895c-5.05 2.888-13.88 2.567-19.74-.802l-57.593-33.211c-5.776-3.37-6.418-8.423-1.364-11.311"/><g opacity=".4"><path fill="url(#s)" d="M1095.92 162.812c-.24 2.085-1.68 4.091-4.41 5.615l-28.8 16.525-28.8 16.525c-6.82 3.449-14.84 3.449-21.58 0l-28.798-16.525-28.799-16.525c-2.487-1.444-3.931-3.289-4.332-5.134H950V44.489h146V162.73z"/><path fill="url(#t)" d="M1095.92 161.769v.481c0 2.246-1.52 4.492-4.49 6.177l-57.6 33.05c-6.82 3.45-14.84 3.45-21.58 0l-57.517-33.05c-2.808-1.604-4.332-3.69-4.412-5.856h-.08L950 17.214h146z"/></g><g opacity=".4"><path fill="url(#u)" d="M950.08 68.62c.241-2.085 1.685-4.09 4.412-5.615l28.799-16.525 28.799-16.525c6.82-3.45 14.84-3.45 21.58 0l28.8 16.525 28.8 16.526c2.48 1.444 3.93 3.288 4.33 5.133h.4v118.805H950V68.701z"/><path fill="url(#v)" d="M950.08 69.664v-.482c0-2.246 1.524-4.492 4.493-6.177l57.597-33.05c6.82-3.45 14.84-3.45 21.58 0l57.52 33.05c2.8 1.605 4.33 3.69 4.41 5.857h.08l.24 145.356H950z"/></g></g><path stroke="#007bfc" stroke-dasharray="1000 1000" stroke-width="2" d="M385.052 527.267c-67.46-48.071-62.367-118.747 15.19-163.512 77.556-44.765 200.056-47.713 283.509-8.935m39.493 24.125c59.329 47.802 51.734 114.726-22.784 157.704-74.518 42.977-190.496 47.445-273.413 13.313"/><path stroke="#007bfc" stroke-dasharray="34.47 34.47" d="m431.877 562.203-5.361-12.509 16.976-2.681M679.37 342.4l5.272 12.509-16.798 2.681"/><path fill="url(#w)" fill-rule="evenodd" d="M643.561 434.878c.894 13.76-7.773 27.609-26.001 38.153-34.668 20.014-90.959 20.014-125.716.089-17.602-10.186-26.269-23.499-26.001-36.812-.179 9.382.089-21.534.089-21.534h177.54z" clip-rule="evenodd"/><path fill="url(#x)" fill-rule="evenodd" d="M491.845 378.945c34.757-20.104 91.048-20.104 125.716-.09 34.668 20.015 34.668 52.538 0 72.642s-91.048 20.104-125.716.09c-34.668-20.015-34.668-52.539 0-72.642" clip-rule="evenodd"/><path fill="url(#y)" fill-rule="evenodd" d="M643.561 399.852c.894 13.76-7.773 27.788-26.001 38.332-34.757 20.104-91.048 20.104-125.716.089-17.602-10.186-26.269-23.588-26.001-36.991-.179 9.382.089-21.623.089-21.623h177.629z" clip-rule="evenodd"/><path fill="url(#z)" fill-rule="evenodd" d="M491.845 344.098c34.757-20.104 91.048-20.104 125.716-.09 34.668 20.015 34.668 52.538 0 72.642s-91.048 20.104-125.716.09c-34.668-20.015-34.668-52.538 0-72.642" clip-rule="evenodd"/><path fill="url(#A)" fill-rule="evenodd" d="M643.561 366.078c.894 13.76-7.773 27.609-26.001 38.153-34.668 20.014-90.959 20.014-125.716.089-17.602-10.186-26.269-23.499-26.001-36.812-.179 9.381.089-21.534.089-21.534h177.54z" clip-rule="evenodd"/><path fill="url(#B)" fill-rule="evenodd" d="M491.845 310.145c34.757-20.104 91.048-20.104 125.716-.09 34.668 20.015 34.668 52.538 0 72.642s-91.048 20.104-125.716.09c-34.668-20.015-34.668-52.539 0-72.642" clip-rule="evenodd"/><path fill="url(#C)" fill-rule="evenodd" d="M643.56 328.372c.894 13.76-7.773 27.788-26.001 38.331-34.757 20.104-91.048 20.104-125.716.09-17.602-10.186-26.269-23.589-26.001-36.991 0-.358.089-.805.089-1.162v-20.461H643.56z" clip-rule="evenodd"/><path fill="#65719b" fill-rule="evenodd" d="M491.845 274.404c34.757-20.104 91.048-20.104 125.716-.089 34.668 20.014 34.668 52.538 0 72.642s-91.048 20.104-125.716.089c-34.668-20.014-34.668-52.538 0-72.642" clip-rule="evenodd"/><path fill="#d9dbde" fill-rule="evenodd" d="M572.166 309.34c.179 2.77-1.519 5.54-5.272 7.685-6.969 4.02-18.316 4.02-25.286 0-3.753-2.145-5.45-5.004-5.182-7.774v-7.952l35.74 1.787z" clip-rule="evenodd"/><path fill="#fff" fill-rule="evenodd" d="M566.899 309.966c-6.969 4.02-18.317 4.02-25.286 0-6.165-3.574-6.88-9.025-2.144-13.046l-.358-.089 30.38-26.805 2.68 32.166c.179 2.77-1.608 5.629-5.272 7.774" clip-rule="evenodd"/><path stroke="#fff" stroke-linecap="round" stroke-linejoin="round" stroke-width="6" d="m601.656 320.062-24.125 14.297"/><path stroke="#007bfc" stroke-dasharray="140.4 140.4" d="M566.971 526.641c9.739-5.54 25.643-5.54 35.383 0 9.739 5.54 9.739 14.475 0 20.015-9.74 5.539-25.644 5.539-35.383 0-9.739-5.54-9.829-14.475 0-20.015Z"/><path fill="url(#D)" fill-rule="evenodd" d="M597.261 542.277c-6.969 3.932-18.317 3.932-25.286 0-3.574-2.055-5.272-4.646-5.272-7.237v-22.07h35.74v22.07c.179 2.502-1.608 5.182-5.182 7.237" clip-rule="evenodd"/><path fill="url(#E)" fill-rule="evenodd" d="M571.977 506.269c6.969-3.931 18.317-3.931 25.286 0s6.97 10.365 0 14.296c-6.969 3.932-18.317 3.932-25.286 0s-6.969-10.364 0-14.296" clip-rule="evenodd"/><path stroke="#007bfc" stroke-dasharray="140.4 140.4" d="M667.94 399.763c9.739-5.54 25.643-5.54 35.382 0 9.74 5.54 9.74 14.475 0 20.015-9.739 5.539-25.643 5.539-35.382 0-9.74-5.54-9.829-14.475 0-20.015Z"/><path fill="url(#F)" fill-rule="evenodd" d="M698.222 415.4c-6.969 3.931-18.317 3.931-25.286 0-3.574-2.055-5.272-4.646-5.272-7.238v-22.069h35.74v22.069c.179 2.502-1.608 5.183-5.182 7.238" clip-rule="evenodd"/><path fill="url(#G)" fill-rule="evenodd" d="M672.938 379.391c6.969-3.931 18.317-3.931 25.286 0s6.97 10.365 0 14.297c-6.969 3.931-18.317 3.931-25.286 0s-6.969-10.365 0-14.297" clip-rule="evenodd"/><path stroke="#007bfc" stroke-dasharray="140.4 140.4" d="M399.893 398.87c9.739-5.54 25.643-5.54 35.383 0 9.739 5.539 9.739 14.474 0 20.014s-25.644 5.54-35.383 0-9.829-14.475 0-20.014Z"/><path fill="url(#H)" fill-rule="evenodd" d="M430.175 414.506c-6.969 3.932-18.317 3.932-25.286 0-3.574-2.055-5.272-4.646-5.272-7.237v-22.07h35.74v22.07c.179 2.502-1.608 5.182-5.182 7.237" clip-rule="evenodd"/><path fill="url(#I)" fill-rule="evenodd" d="M404.891 378.498c6.969-3.932 18.317-3.932 25.286 0s6.97 10.365 0 14.296-18.317 3.931-25.286 0-6.969-10.365 0-14.296" clip-rule="evenodd"/><path fill="url(#J)" fill-rule="evenodd" d="M338.505 362.861c-.626 31.809 20.014 63.707 62.098 88.011 82.828 47.713 217.122 47.624 299.95-.179 42.085-24.303 62.814-56.291 62.099-88.1v-47.892c.179-31.451-20.461-62.903-62.099-86.938-82.828-47.713-217.122-47.624-299.95.179-41.637 24.035-62.366 55.576-62.188 87.027.09.09.09 47.535.09 47.892m362.138-94.265c-82.828-47.713-217.122-47.624-299.95.179-32.435 18.674-52.092 41.906-59.151 66.209 7.059 24.214 26.806 47.356 59.151 66.03 82.828 47.713 217.122 47.624 299.95-.179 32.434-18.674 52.091-41.905 59.239-66.209-7.237-24.214-26.894-47.355-59.239-66.03" clip-rule="evenodd"/><defs><linearGradient id="b" x1=".025" x2="145.995" y1="170.545" y2="170.545" gradientUnits="userSpaceOnUse"><stop stop-color="#1d53da"/><stop offset="1" stop-color="#3f75fc"/></linearGradient><linearGradient id="c" x1=".008" x2="146.016" y1="137.551" y2="137.551" gradientUnits="userSpaceOnUse"><stop stop-color="#0b3ebf"/><stop offset="1" stop-color="#2e5fdb"/></linearGradient><linearGradient id="d" x1=".025" x2="145.995" y1="170.545" y2="170.545" gradientUnits="userSpaceOnUse"><stop stop-color="#1d53da"/><stop offset="1" stop-color="#3f75fc"/></linearGradient><linearGradient id="e" x1=".008" x2="146.016" y1="137.551" y2="137.551" gradientUnits="userSpaceOnUse"><stop stop-color="#0b3ebf"/><stop offset="1" stop-color="#2e5fdb"/></linearGradient><linearGradient id="f" x1=".025" x2="145.995" y1="170.545" y2="170.545" gradientUnits="userSpaceOnUse"><stop stop-color="#1d53da"/><stop offset="1" stop-color="#3f75fc"/></linearGradient><linearGradient id="g" x1="35.513" x2="110.507" y1="106.444" y2="31.449" gradientUnits="userSpaceOnUse"><stop stop-color="#0397f6"/><stop offset="1" stop-color="#00baff"/></linearGradient><linearGradient id="h" x1="73.004" x2="73.004" y1="204.027" y2="44.523" gradientUnits="userSpaceOnUse"><stop stop-color="#17bdff"/><stop offset=".8" stop-color="#17bdff" stop-opacity="0"/></linearGradient><linearGradient id="i" x1="73" x2="73" y1="204.025" y2="17.214" gradientUnits="userSpaceOnUse"><stop stop-color="#51b9ff"/><stop offset=".7" stop-color="#2389f0" stop-opacity=".7"/><stop offset="1" stop-color="#2389f0" stop-opacity="0"/></linearGradient><linearGradient id="j" x1="72.996" x2="72.996" y1="27.405" y2="186.909" gradientUnits="userSpaceOnUse"><stop stop-color="#17bdff"/><stop offset=".8" stop-color="#17bdff" stop-opacity="0"/></linearGradient><linearGradient id="k" x1="73" x2="73" y1="27.407" y2="214.218" gradientUnits="userSpaceOnUse"><stop stop-color="#51b9ff"/><stop offset=".7" stop-color="#2389f0" stop-opacity=".7"/><stop offset="1" stop-color="#2389f0" stop-opacity="0"/></linearGradient><linearGradient id="m" x1="950.025" x2="1095.99" y1="170.545" y2="170.545" gradientUnits="userSpaceOnUse"><stop stop-color="#1d53da"/><stop offset="1" stop-color="#3f75fc"/></linearGradient><linearGradient id="n" x1="950.008" x2="1096.02" y1="137.551" y2="137.551" gradientUnits="userSpaceOnUse"><stop stop-color="#0b3ebf"/><stop offset="1" stop-color="#2e5fdb"/></linearGradient><linearGradient id="o" x1="950.025" x2="1095.99" y1="170.545" y2="170.545" gradientUnits="userSpaceOnUse"><stop stop-color="#1d53da"/><stop offset="1" stop-color="#3f75fc"/></linearGradient><linearGradient id="p" x1="950.008" x2="1096.02" y1="137.551" y2="137.551" gradientUnits="userSpaceOnUse"><stop stop-color="#0b3ebf"/><stop offset="1" stop-color="#2e5fdb"/></linearGradient><linearGradient id="q" x1="950.025" x2="1095.99" y1="170.545" y2="170.545" gradientUnits="userSpaceOnUse"><stop stop-color="#1d53da"/><stop offset="1" stop-color="#3f75fc"/></linearGradient><linearGradient id="r" x1="985.513" x2="1060.51" y1="106.444" y2="31.449" gradientUnits="userSpaceOnUse"><stop stop-color="#0397f6"/><stop offset="1" stop-color="#00baff"/></linearGradient><linearGradient id="s" x1="1023" x2="1023" y1="204.027" y2="44.523" gradientUnits="userSpaceOnUse"><stop stop-color="#17bdff"/><stop offset=".8" stop-color="#17bdff" stop-opacity="0"/></linearGradient><linearGradient id="t" x1="1023" x2="1023" y1="204.025" y2="17.214" gradientUnits="userSpaceOnUse"><stop stop-color="#51b9ff"/><stop offset=".7" stop-color="#2389f0" stop-opacity=".7"/><stop offset="1" stop-color="#2389f0" stop-opacity="0"/></linearGradient><linearGradient id="u" x1="1023" x2="1023" y1="27.405" y2="186.909" gradientUnits="userSpaceOnUse"><stop stop-color="#17bdff"/><stop offset=".8" stop-color="#17bdff" stop-opacity="0"/></linearGradient><linearGradient id="v" x1="1023" x2="1023" y1="27.407" y2="214.218" gradientUnits="userSpaceOnUse"><stop stop-color="#51b9ff"/><stop offset=".7" stop-color="#2389f0" stop-opacity=".7"/><stop offset="1" stop-color="#2389f0" stop-opacity="0"/></linearGradient><linearGradient id="w" x1="465.834" x2="643.621" y1="451.444" y2="451.444" gradientUnits="userSpaceOnUse"><stop offset=".042" stop-color="#bbc1d4"/><stop offset="1" stop-color="#f6f9ff"/></linearGradient><linearGradient id="x" x1="465.821" x2="643.634" y1="415.25" y2="415.25" gradientUnits="userSpaceOnUse"><stop stop-color="#99a1be"/><stop offset="1" stop-color="#b3bacf"/></linearGradient><linearGradient id="y" x1="465.834" x2="643.621" y1="451.444" y2="451.444" gradientUnits="userSpaceOnUse"><stop offset=".042" stop-color="#bbc1d4"/><stop offset="1" stop-color="#f6f9ff"/></linearGradient><linearGradient id="z" x1="465.821" x2="643.634" y1="415.25" y2="415.25" gradientUnits="userSpaceOnUse"><stop stop-color="#99a1be"/><stop offset="1" stop-color="#b3bacf"/></linearGradient><linearGradient id="A" x1="465.834" x2="643.621" y1="451.444" y2="451.444" gradientUnits="userSpaceOnUse"><stop offset=".042" stop-color="#bbc1d4"/><stop offset="1" stop-color="#f6f9ff"/></linearGradient><linearGradient id="B" x1="465.821" x2="643.634" y1="415.25" y2="415.25" gradientUnits="userSpaceOnUse"><stop stop-color="#99a1be"/><stop offset="1" stop-color="#b3bacf"/></linearGradient><linearGradient id="C" x1="465.821" x2="643.62" y1="344.936" y2="344.936" gradientUnits="userSpaceOnUse"><stop offset=".01" stop-color="#3f4b75"/><stop offset="1" stop-color="#636f99"/></linearGradient><linearGradient id="D" x1="566.76" x2="602.505" y1="529.063" y2="529.063" gradientUnits="userSpaceOnUse"><stop stop-color="#1d53da"/><stop offset="1" stop-color="#3f75fc"/></linearGradient><linearGradient id="E" x1="566.762" x2="602.518" y1="513.396" y2="513.396" gradientUnits="userSpaceOnUse"><stop stop-color="#0397f6"/><stop offset="1" stop-color="#00baff"/></linearGradient><linearGradient id="F" x1="566.754" x2="602.499" y1="529.063" y2="529.063" gradientUnits="userSpaceOnUse"><stop stop-color="#1d53da"/><stop offset="1" stop-color="#3f75fc"/></linearGradient><linearGradient id="G" x1="566.757" x2="602.513" y1="513.396" y2="513.396" gradientUnits="userSpaceOnUse"><stop stop-color="#0397f6"/><stop offset="1" stop-color="#00baff"/></linearGradient><linearGradient id="H" x1="566.759" x2="602.505" y1="529.063" y2="529.063" gradientUnits="userSpaceOnUse"><stop stop-color="#1d53da"/><stop offset="1" stop-color="#3f75fc"/></linearGradient><linearGradient id="I" x1="566.762" x2="602.518" y1="513.396" y2="513.396" gradientUnits="userSpaceOnUse"><stop stop-color="#0397f6"/><stop offset="1" stop-color="#00baff"/></linearGradient><linearGradient id="J" x1="465.82" x2="643.607" y1="451.444" y2="451.444" gradientUnits="userSpaceOnUse"><stop offset=".042" stop-color="#bbc1d4"/><stop offset="1" stop-color="#f6f9ff"/></linearGradient></defs></svg>