<svg xmlns="http://www.w3.org/2000/svg" width="68" height="73" fill="none" viewBox="0 0 68 73"><g clip-path="url(#a)"><path fill="#fff" fill-rule="evenodd" d="M27.874 34.597a5.6 5.6 0 0 1 .333-2.39 6.03 6.03 0 0 1 2.407-3.052l33.028-19.071c.333-.187 1.098-.665 1.481-.815.384-.17.814-.21 1.223-.113l-5.443-3.141a1.8 1.8 0 0 0-.951.019 3.2 3.2 0 0 0-.684.3L26.24 25.396c-.393.23-1.106.604-1.485.89a6.16 6.16 0 0 0-2.323 4.477l-.01 28.273a1.82 1.82 0 0 0 .544 1.33l.042.043 5.438 3.145a1.84 1.84 0 0 1-.585-1.378z" clip-rule="evenodd"/><path fill="#1b69ff" fill-rule="evenodd" d="M60.633 6.498a3 3 0 0 0-.53.075 2.3 2.3 0 0 0-.562.244L26.214 26.049q-.578.31-1.12.68a5.57 5.57 0 0 0-2.103 4.04l-.014 28.27a1.3 1.3 0 0 0 .379.94l3.957 2.283v-.08l.01-27.584h.553l-.553-.117a5.9 5.9 0 0 1 .37-2.465 6.58 6.58 0 0 1 2.647-3.337L63.625 9.466c.328-.2.759-.45 1.087-.61zM28.452 64.106a.5.5 0 0 1-.272-.075l-5.443-3.142a2 2 0 0 1-.15-.122 2.4 2.4 0 0 1-.712-1.729l.01-28.273a6.67 6.67 0 0 1 2.547-4.913q.598-.42 1.242-.764l.3-.168L59 5.856a3.8 3.8 0 0 1 .806-.346 2.3 2.3 0 0 1 1.312 0l5.504 3.178A.55.55 0 0 1 66.22 9.7a1.34 1.34 0 0 0-.885.084c-.258.108-.815.432-1.148.628l-.267.155-33.024 19.064a5.5 5.5 0 0 0-2.169 2.764 4.8 4.8 0 0 0-.3 2.087v.117l-.008 27.58a1.28 1.28 0 0 0 .417.98.545.545 0 0 1 .057.726.54.54 0 0 1-.441.22" clip-rule="evenodd"/><path fill="#fff" fill-rule="evenodd" d="M51.863 51.603c6.577-3.413 9.143-.445 13.331 1.903.038-3.464.123-6.69-.633-9.651l.132-.075a6.08 6.08 0 0 0 2.745-4.753c0-6.8 0-21.163.01-27.965 0-1.743-1.233-2.456-2.737-1.584a70508 70508 0 0 0-34.096 19.677 6.08 6.08 0 0 0-2.74 4.749v.693l-.009 27.58a1.85 1.85 0 0 0 .946 1.64 1.85 1.85 0 0 0 1.888 0z" clip-rule="evenodd"/><path fill="#1b69ff" fill-rule="evenodd" d="M65.925 9.657a1.96 1.96 0 0 0-.941.3l-34.091 19.67a5.55 5.55 0 0 0-2.465 4.275l-.009 28.273a1.29 1.29 0 0 0 .666 1.162 1.3 1.3 0 0 0 1.339 0l21.163-12.216s.014 0 .019-.009c5.841-3.032 8.713-1.25 12.029.812q.497.31 1.017.628a33.4 33.4 0 0 0-.624-8.564.56.56 0 0 1 .257-.614l.131-.075a5.54 5.54 0 0 0 2.469-4.274l.009-27.965a1.45 1.45 0 0 0-.53-1.298.9.9 0 0 0-.44-.107zM29.754 64.63a2.44 2.44 0 0 1-1.219-.333 2.39 2.39 0 0 1-1.223-2.12l.01-28.272a6.6 6.6 0 0 1 3.02-5.227L64.434 9a2.43 2.43 0 0 1 2.483-.192 2.45 2.45 0 0 1 1.081 2.255l-.01 27.965a6.64 6.64 0 0 1-2.794 5.092c.529 2.897.716 5.846.557 8.787l-.009.614a.55.55 0 0 1-.272.468.56.56 0 0 1-.548 0c-.656-.37-1.274-.75-1.869-1.125-3.157-1.96-5.649-3.51-10.927-.778l-21.154 12.21a2.4 2.4 0 0 1-1.219.333" clip-rule="evenodd"/><path fill="#fff" fill-rule="evenodd" d="M6.567 30.27a6.44 6.44 0 0 1 2.905-5.03L44.42 5.072c.96-.553 1.98-1.364 3.077-.899C46.72 3.726 41.634.727 41.273.62c-.998-.286-2.038.511-2.862.984L4.59 21.126c-1.531.886-2.365 1.308-3.274 2.99a5.8 5.8 0 0 0-.754 2.686L.549 56.398a2.17 2.17 0 0 0 .754 1.814l2.038 1.176a56 56 0 0 0-.426 9.595l6.009 3.468c-.186-3.674.04-7.358.674-10.983l-3.04-1.753z" clip-rule="evenodd"/><path fill="#1b69ff" fill-rule="evenodd" d="m3.462 68.656 4.9 2.831a46.8 46.8 0 0 1 .623-9.744L6.29 60.182a.55.55 0 0 1-.277-.473l.01-29.437a6.98 6.98 0 0 1 3.17-5.499L44.551 4.355q.539-.346 1.124-.609c-1.601-.938-4.244-2.475-4.577-2.606-.58-.165-1.344.3-2.014.699l-.399.239L4.67 21.712a5.87 5.87 0 0 0-2.87 2.663 5.3 5.3 0 0 0-.685 2.427L1.1 56.394c0 .3.06 1.06.506 1.355l2.01 1.157a.56.56 0 0 1 .27.567 52.5 52.5 0 0 0-.425 9.098v.085m5.462 4.345a.6.6 0 0 1-.275-.075l-6.01-3.469a.57.57 0 0 1-.277-.473v-.4a55 55 0 0 1 .384-8.91l-1.714-.989a2.63 2.63 0 0 1-1.03-2.287l.01-29.6a6.4 6.4 0 0 1 .824-2.95 6.98 6.98 0 0 1 3.283-3.095L38.511.893a3.73 3.73 0 0 1 2.913-.81c.235.07 1.19.586 5.537 3.13l.81.48a.55.55 0 0 1 .221.72.56.56 0 0 1-.711.259c-.676-.287-1.398.154-2.156.618l-.426.258-34.948 20.17a5.86 5.86 0 0 0-2.628 4.556l-.01 29.108 2.765 1.598a.55.55 0 0 1 .262.582 47 47 0 0 0-.664 10.49v.39a.55.55 0 0 1-.277.478.53.53 0 0 1-.276.08z" clip-rule="evenodd"/><path fill="#1b69ff" fill-rule="evenodd" d="m9.6 61.463-2.07.342-5.204-3.004 1.016.585-.009.089a59 59 0 0 0-.417 9.501l6.01 3.473a54 54 0 0 1 .604-10.612z" clip-rule="evenodd"/><path fill="#1b69ff" fill-rule="evenodd" d="m3.46 68.655 4.9 2.831c-.097-3.129.088-6.26.553-9.356l-1.297.216a.5.5 0 0 1-.365-.071l-3.477-1.997a61 61 0 0 0-.313 8.381zM8.924 73a.6.6 0 0 1-.276-.075l-6.01-3.474a.56.56 0 0 1-.277-.468c-.109-3.109.02-6.22.384-9.31l-.698-.399a.551.551 0 0 1 .555-.95l1.016.586c.01 0 .014 0 .02.01l3.99 2.31 1.879-.31a.54.54 0 0 1 .483.16.55.55 0 0 1 .144.488l-.07.374a53 53 0 0 0-.59 10.505.56.56 0 0 1-.276.483.56.56 0 0 1-.274.07" clip-rule="evenodd"/><path fill="#1b69ff" fill-rule="evenodd" d="m7.537 27.219-6.01-3.469-.964 3.046.164 30.641c.351.905 1.382 1.232 2.614 1.945-.418 3.18-.56 6.39-.427 9.595l6.01 3.468A49.2 49.2 0 0 1 9.6 61.462l-3.04-1.753c0-3.937-.253-29.043.187-30.688z" clip-rule="evenodd"/><path fill="#1b69ff" fill-rule="evenodd" d="m3.461 68.655 4.9 2.83a46.6 46.6 0 0 1 .623-9.744l-2.694-1.56a.55.55 0 0 1-.276-.473c0-.736-.01-2.197-.02-4.102-.093-15.196-.093-25.562.226-26.732l.618-1.425-4.99-2.883-.73 2.316.16 30.44c.225.458.773.744 1.514 1.133.266.141.543.286.828.45a.55.55 0 0 1 .272.563 52 52 0 0 0-.43 9zm5.462 4.344a.6.6 0 0 1-.276-.075l-6.01-3.468a.57.57 0 0 1-.276-.474v-.499c-.109-2.94.02-5.883.384-8.803l-.468-.248a3.76 3.76 0 0 1-2.066-1.79.6.6 0 0 1-.038-.2L.01 26.8a.5.5 0 0 1 .028-.169l.965-3.051a.548.548 0 0 1 .796-.31l6.01 3.47a.55.55 0 0 1 .234.698l-.791 1.797c-.314 1.19-.207 18.825-.16 26.36 0 1.665.014 2.991.02 3.788l2.763 1.598a.55.55 0 0 1 .263.58 46.8 46.8 0 0 0-.666 10.411v.47a.56.56 0 0 1-.549.558M48.56 28.637a.56.56 0 0 1-.476-.272.554.554 0 0 1 .2-.755l12.258-7.082a.551.551 0 1 1 .554.955L48.838 28.56a.54.54 0 0 1-.277.077m-.004 6.992a.553.553 0 0 1-.279-1.032l10.273-5.934a.55.55 0 0 1 .55.954L48.832 35.55a.54.54 0 0 1-.276.078M34.499 51.163a.55.55 0 0 1-.479-.276.555.555 0 0 1 .207-.755L60.543 34.94a.55.55 0 0 1 .55.953L34.768 51.085a.5.5 0 0 1-.27.078" clip-rule="evenodd"/><path fill="#fff" fill-rule="evenodd" d="M48.435 35.98c0-7.288.01-22.587.014-29.88 0-1.847-1.307-2.602-2.9-1.679a63420 63420 0 0 0-36.077 20.82 6.45 6.45 0 0 0-2.905 5.03l-.008 29.59c0 1.847 1.302 2.602 2.9 1.68l.14-.08a50 50 0 0 0-.675 10.983 1298 1298 0 0 0 3.472-5.986c7.317-12.787 21.687-19.213 33.056-25.41a5.6 5.6 0 0 0 2.103-2.165 5.7 5.7 0 0 0 .88-2.902" clip-rule="evenodd"/><path fill="#1b69ff" fill-rule="evenodd" d="M9.599 60.907a.53.53 0 0 1 .318.108.54.54 0 0 1 .22.552 42 42 0 0 0-.683 8.878 950 950 0 0 0 2.464-4.261c6.52-11.4 18.52-17.773 29.107-23.39 1.42-.755 2.815-1.49 4.164-2.231a5.04 5.04 0 0 0 1.896-1.956 5.2 5.2 0 0 0 .798-2.63l.014-29.88a1.54 1.54 0 0 0-.575-1.398 1.56 1.56 0 0 0-1.497.2L9.753 25.72a5.9 5.9 0 0 0-2.629 4.551l-.009 29.591a1.55 1.55 0 0 0 .572 1.398 1.54 1.54 0 0 0 1.497-.2l.14-.08a.6.6 0 0 1 .277-.074zM8.924 73a.55.55 0 0 1-.548-.548l-.009-.61c-.124-3.16.043-6.325.5-9.454a2.22 2.22 0 0 1-1.734-.173 2.55 2.55 0 0 1-1.124-2.354l.009-29.59a6.93 6.93 0 0 1 3.176-5.509L45.27 3.942a2.55 2.55 0 0 1 2.6-.2 2.55 2.55 0 0 1 1.124 2.352l-.009 29.881a6.3 6.3 0 0 1-.956 3.188 6.2 6.2 0 0 1-2.314 2.366 470 470 0 0 1-4.178 2.237c-10.45 5.55-22.301 11.84-28.667 22.965a564 564 0 0 1-3.476 5.991.55.55 0 0 1-.47.278" clip-rule="evenodd"/><path fill="#1b69ff" fill-rule="evenodd" d="M7.297 62.22a.54.54 0 0 1-.276-.076l-5.813-3.356a.553.553 0 0 1 .347-1.025q.108.016.202.07l5.818 3.362a.55.55 0 0 1-.278 1.024" clip-rule="evenodd"/><path fill="#1b69ff" d="M16.148 34.985c.248-.43.652-.663.898-.52l2.014 1.148a3.53 3.53 0 0 0 3.533-.36l.287-.166q-.07-.989-.072-2.063l11.788-6.81q-.001 1.074-.07 2.144l.287-.166a10.2 10.2 0 0 0 3.532-3.72l2.015-3.477c.248-.429.651-.662.898-.52.246.142.25.605 0 1.035l-2.014 3.476a12.8 12.8 0 0 1-4.433 4.67l-.424.245a34 34 0 0 1-.3 2.097l3.852-2.226c.352-.2.638-.04.638.364a1.4 1.4 0 0 1-.638 1.098l-4.182 2.416q-.279 1.24-.642 2.384c2.02-.634 3.734.046 4.482 1.897l.78 1.939a1.23 1.23 0 0 1-.373 1.157 1 1 0 0 1-.224.177c-.258.149-.498.108-.598-.131l-.78-1.939c-.633-1.574-2.142-2.086-3.891-1.398-1.029 2.596-2.359 4.582-3.814 5.422s-2.785.4-3.813-1.016a11.6 11.6 0 0 0-3.892 5.892l-.78 2.84a1.42 1.42 0 0 1-.598.82.7.7 0 0 1-.224.082c-.329.048-.498-.277-.373-.727l.78-2.84a14.74 14.74 0 0 1 4.483-7.078 11 11 0 0 1-.643-1.64l-4.182 2.416c-.352.2-.637.04-.637-.364a1.4 1.4 0 0 1 .637-1.098l3.852-2.226q-.18-.82-.3-1.748l-.424.246c-1.674.967-3.248 1.128-4.433.452l-2.014-1.15c-.234-.142-.234-.604.012-1.034"/><path fill="#1b69ff" d="M33.925 18.19a5.24 5.24 0 0 0-2.45 3.436l-.19.927c1.462.163 2.443 1.428 2.443 3.526l-10.036 5.799a10.88 10.88 0 0 1 2.441-6.349l-.19-.707c-.29-1.086-1.315-1.349-2.45-.605-.355.236-.654.1-.676-.291a1.4 1.4 0 0 1 .6-1.121c1.731-1.133 3.316-.74 3.763.929l.14.52a8 8 0 0 1 1.397-1.036 5.3 5.3 0 0 1 1.396-.576l.14-.681a8.08 8.08 0 0 1 3.764-5.278c.351-.177.618.017.599.433a1.4 1.4 0 0 1-.69 1.074"/></g><defs><clipPath id="a"><path fill="#fff" d="M0 0h68v73H0z"/></clipPath></defs></svg>