<svg xmlns="http://www.w3.org/2000/svg" width="614" height="345" fill="none" viewBox="0 0 614 345"><g clip-path="url(#a)"><g opacity=".71"><path fill="#f0f4fc" d="M104.768 183.661h107.317l119.465-68.793c15.384-8.86 42.26-7.748 60.026 2.481l115.154 66.313h107.264v14.708h-.034c.438 5.996-2.915 11.783-10.308 16.04L387.258 339.019c-15.384 8.859-42.261 7.748-60.027-2.483L119.464 216.897c-9.229-5.315-14.143-12.044-14.618-18.527h-.078z"/><path fill="#fbfdff" d="m387.043 324.544 216.394-124.608c15.384-8.86 13.456-24.336-4.309-34.565L391.361 45.729c-17.766-10.23-44.641-11.342-60.027-2.482L114.939 167.856c-15.384 8.86-13.456 24.336 4.31 34.565L327.016 322.06c17.766 10.232 44.641 11.343 60.027 2.484"/></g><path fill="url(#b)" d="M1.168 172.859s-2.004-4.139 0-12.476 8.015-4.451 8.015-4.451c2.265 13.642 18.362 6.207 31.815 8.074l91.638 53.45 39.987 14.4 127.651-65.702-2.949-1.7c10.908-5.083 17.159-1.643 23.062-12.247l8.592 5.109 5.107 1.435-.375 14.567c0 5.664-3.745 11.328-11.229 15.637l-127.887 73.647c-14.973 8.62-39.339 8.62-54.313 0L12.397 188.957c-7.362-4.239-11.106-9.79-11.223-15.357-.006-.249.005-.499.015-.748z"/><path fill="#333c5e" d="M194.336 249.045 322.221 175.4c14.974-8.628 14.974-22.654 0-31.274L194.336 70.48c-14.968-8.62-39.334-8.62-54.309.005l-127.886 73.64c-14.974 8.628-14.974 22.654-.005 31.274l127.885 73.646c14.976 8.62 39.342 8.62 54.315 0"/><path fill="url(#c)" d="m263.489 217.6.137-.237 210.705 121.995-.273.473-210.706-121.995z"/><path fill="url(#d)" d="m239.446 334.91-.061-.093-.237-.366 72.383-46.637a12.8 12.8 0 0 0 4.37-4.754 12.75 12.75 0 0 0-4.889-17.02l-66.275-38.372.137-.236.138-.237 66.274 38.372a13.33 13.33 0 0 1 4.788 4.736 13.293 13.293 0 0 1-4.246 17.97z"/><path fill="url(#e)" d="m449.9 195.939-.298-.459-79.11 50.973a20.621 20.621 0 0 1-21.492.511l-66.212-38.336-.137.237-.137.236 66.501 38.503a20.61 20.61 0 0 0 21.492-.509z"/><path fill="#6fa6e3" d="M244.957 229.618c1.21 0 2.19-.978 2.19-2.184s-.98-2.184-2.19-2.184a2.187 2.187 0 0 0-2.189 2.184c0 1.206.98 2.184 2.189 2.184M263.514 219.298c1.21 0 2.19-.978 2.19-2.184s-.98-2.184-2.19-2.184-2.19.978-2.19 2.184.981 2.184 2.19 2.184M282.186 209.962c1.209 0 2.19-.978 2.19-2.184a2.187 2.187 0 0 0-2.19-2.184c-1.209 0-2.19.978-2.19 2.184s.981 2.184 2.19 2.184"/><path stroke="#6da4e3" stroke-width="2" d="M167.18 235.671c7.884 0 15.768-1.73 21.775-5.19l99.917-57.535c6.016-3.465 9.332-8.146 9.337-13.184s-3.321-9.72-9.337-13.185l-99.914-57.535c-12.004-6.91-31.539-6.92-43.553 0l-99.914 57.535c-6.022 3.466-9.337 8.147-9.337 13.185s3.316 9.719 9.331 13.189l99.915 57.53c6.006 3.46 13.893 5.19 21.78 5.19Z"/><path fill="#242b43" d="m12.138 175.399 127.885 73.646c14.974 8.62 39.339 8.62 54.313 0l127.886-73.646c6.693-3.857 10.382-8.788 11.096-13.84.876 6.248-2.816 12.668-11.096 17.443l-127.885 73.641c-14.973 8.625-39.339 8.625-54.312 0l-127.887-73.64c-8.28-4.768-11.97-11.189-11.091-17.438.709 5.047 4.402 9.983 11.09 13.834"/><path fill="#ffd73e" d="M174.142 1.827q.23.03.453.081l-4.054-.97c-1.204-.295-2.379-.694-3.762-.47-2.58.424-5.13 2.542-6.831 5.063a13.2 13.2 0 0 0-2.352 7.052l-.049 27.462c0 2.113.766 3.993 2.348 4.864.907.5 2.051.635 3.087.883l3.787.9c-2.213-.53-3.369-2.707-3.364-5.255l.049-27.462a13.6 13.6 0 0 1 3.133-8.104c2.026-2.515 4.986-4.361 7.555-4.032z"/><path fill="#ffe06a" d="M170.723 2.476c4.005-1.883 7.245.214 7.236 4.684l-.048 27.463c0 4.467-3.262 9.615-7.266 11.502-4.004 1.886-7.247-.215-7.239-4.686l.049-27.462c.009-4.473 3.262-9.624 7.268-11.5"/><path fill="#e5ebf9" d="m156.219 173.394.051-28.268-5.858-1.392-.049 28.268c0 1.709.719 3.195 2.151 3.658.939.306 1.963.476 2.939.706l3.154.752c-1.576-.374-2.391-1.918-2.386-3.726zM171.45 64.98a3.8 3.8 0 0 1 1.908-.085l-3.875-.91c-1.154-.273-2.313-.751-3.654-.444-2.354.534-4.521 2.9-5.532 5.331l-32.036 76.691c-.949 2.275-.998 4.839.361 6.181.812.803 2.096.921 3.22 1.183l3.966.942c-2.573-.61-2.893-4.031-1.689-6.914l32.036-76.69c.985-2.358 3.03-4.628 5.31-5.279z"/><path fill="url(#f)" d="M170.61 65.295c1.785-.871 3.559-.562 4.447.775l31.814 46.697c.916 1.345.911 3.532 0 5.734a9.64 9.64 0 0 1-4.457 4.959l-17.726 8.326-.049 28.265c0 3.167-2.315 6.818-5.154 8.151l-18.136 8.519c-2.839 1.33-5.136-.164-5.129-3.324l.05-28.268-17.717 8.32c-1.785.874-3.559.562-4.445-.777-.917-1.342-.913-3.529 0-5.734l32.035-76.69a9.73 9.73 0 0 1 4.467-4.953"/><path fill="#ffd73e" d="M128.282 80.825 110.91 69.58c-1.886-1.217-2.435-3.888-1.93-6.603a14.55 14.55 0 0 1 4.355-7.743q.7-.604 1.439-1.136a9.3 9.3 0 0 1 1.74-.928 5.75 5.75 0 0 1 3.423-.377l-5.867-1.39c-2.029-.485-4.647.568-6.601 2.443a14.6 14.6 0 0 0-4.333 7.659c-.527 2.74.013 5.443 1.916 6.675l17.373 11.244c.967.626 2.257.77 3.412 1.044l3.696.88a4 4 0 0 1-1.251-.532z"/><path fill="#ffe06a" d="M116.062 53.366c1.862-.906 3.75-.92 5.124-.039l17.372 11.244c2.826 1.827 2.817 6.953-.02 11.437a12.8 12.8 0 0 1-5.132 4.776c-1.859.906-3.749.92-5.123.04L110.911 69.58c-2.826-1.827-2.818-6.953.019-11.437a12.8 12.8 0 0 1 5.132-4.777"/><path fill="#ffd73e" d="M118.971 112.956a5.4 5.4 0 0 1 2.852-.172l-5.048-1.196a6 6 0 0 0-4.693.378l-24.607 11.559a11.4 11.4 0 0 0-3.3 2.428 14.1 14.1 0 0 0-3.945 8.504c-.16 2.611.799 4.949 2.93 5.695q1.493.447 3.025.74l3.244.777c-2.193-.521-3.344-2.656-3.361-5.169.007-3.008 1.371-6.28 3.689-8.851a11.7 11.7 0 0 1 3.576-2.73l24.615-11.562a8 8 0 0 1 1.023-.399z"/><path fill="#ffe06a" d="M117.947 113.357c4.006-1.88 7.246.219 7.237 4.684-.009 4.466-3.26 9.615-7.266 11.502l-24.615 11.554c-4.005 1.88-7.245-.215-7.237-4.684.01-4.47 3.258-9.614 7.266-11.502z"/><path fill="#ffd73e" d="M248.826 51.971a5.4 5.4 0 0 1 2.85-.168l-5.858-1.384a6.03 6.03 0 0 0-3.876.572l-24.615 11.55c-5.532 2.598-9.159 11.063-6.256 15.15a4 4 0 0 0 2.361 1.595l5.858 1.391a3.2 3.2 0 0 1-1.438-.658 4.2 4.2 0 0 1-1.122-1.259 7 7 0 0 1-.764-4.171 14.32 14.32 0 0 1 4.621-8.898c.776-.707 1.65-1.299 2.596-1.756l24.617-11.56a8 8 0 0 1 1.023-.4z"/><path fill="#ffe06a" d="M247.805 52.37c4.003-1.882 7.243.218 7.237 4.684-.007 4.465-3.262 9.61-7.266 11.502l-24.618 11.553c-4.005 1.88-7.245-.218-7.236-4.684.009-4.465 3.26-9.614 7.265-11.502z"/><path fill="#ffd73e" d="M202.369 45.624c-2.731-2.2-2.063-7.362.36-11.191l17.43-27.583c2.127-3.363 5.889-6.097 9.005-5.352l-4.145-.986c-1.219-.29-2.392-.687-3.791-.428-2.656.492-5.267 2.74-6.927 5.368l-17.44 27.605c-1.793 2.835-2.607 6.231-1.855 8.831a4.43 4.43 0 0 0 2.326 2.883c.683.26 1.389.453 2.109.58l2.264.518 2.252.535a4 4 0 0 1-1.588-.78"/><path fill="#ffe06a" d="M225.291 2.064c1.858-.905 3.748-.92 5.123-.038 2.828 1.826 2.819 6.951-.02 11.437l-17.44 27.603a12.8 12.8 0 0 1-5.134 4.778c-1.857.905-3.747.919-5.121.038-2.828-1.826-2.819-6.952.02-11.437L220.16 6.847a12.73 12.73 0 0 1 5.131-4.783"/></g><defs><linearGradient id="b" x1="113.772" x2="198.021" y1="225.245" y2="123.149" gradientUnits="userSpaceOnUse"><stop stop-color="#333c5e"/><stop offset="1" stop-color="#4f5982"/></linearGradient><linearGradient id="c" x1="266.727" x2="324" y1="219.935" y2="313.715" gradientUnits="userSpaceOnUse"><stop stop-color="#77abd4"/><stop offset=".955" stop-color="#bac3de" stop-opacity=".01"/><stop offset="1" stop-color="#fff" stop-opacity="0"/></linearGradient><linearGradient id="d" x1="240.409" x2="293.486" y1="229.457" y2="266.357" gradientUnits="userSpaceOnUse"><stop stop-color="#77abd4"/><stop offset=".955" stop-color="#bac3de" stop-opacity=".01"/><stop offset="1" stop-color="#fff" stop-opacity="0"/></linearGradient><linearGradient id="e" x1="285.192" x2="302.988" y1="196.633" y2="248.209" gradientUnits="userSpaceOnUse"><stop stop-color="#77abd4"/><stop offset=".955" stop-color="#bac3de" stop-opacity=".01"/><stop offset="1" stop-color="#fff" stop-opacity="0"/></linearGradient><linearGradient id="f" x1="170.489" x2="170.489" y1="64.805" y2="177.207" gradientUnits="userSpaceOnUse"><stop stop-color="#a0cce0"/><stop offset="1" stop-color="#69a1e3"/></linearGradient><clipPath id="a"><path fill="#fff" d="M0 0h614v345H0z"/></clipPath></defs></svg>