<svg width="1440" height="405" viewBox="0 0 1440 405" fill="none" xmlns="http://www.w3.org/2000/svg">
<g clip-path="url(#clip0_9_92172)">
<mask id="mask0_9_92172" style="mask-type:luminance" maskUnits="userSpaceOnUse" x="-5" y="0" width="1450" height="405">
<path d="M1445 0H-5V405H1445V0Z" fill="white"/>
</mask>
<g mask="url(#mask0_9_92172)">
<g opacity="0.71">
<path d="M-4.73368 197.164H127.735L275.201 112.236C294.192 101.298 327.366 102.67 349.297 115.299L491.442 197.166H623.852V215.325H623.81C624.352 222.727 620.213 229.871 611.086 235.127L343.969 388.965C324.977 399.903 291.802 398.53 269.872 385.901L13.4075 238.196C2.01439 231.634 -4.05127 223.327 -4.637 215.323H-4.73438L-4.73368 197.164Z" fill="#F0F4FC"/>
<path d="M343.703 371.091L610.816 217.253C629.807 206.315 627.428 187.209 605.496 174.579L349.034 26.8733C327.104 14.2426 293.929 12.8733 274.938 23.8097L7.82177 177.648C-11.1693 188.586 -8.79055 207.692 13.1428 220.322L269.608 368.027C291.538 380.658 324.712 382.03 343.703 371.091Z" fill="#FBFDFF"/>
<path d="M190.122 158.491H240.364L296.293 126.277C303.495 122.129 316.077 122.649 324.395 127.439L378.307 158.487H428.523V192.13H428.507C428.712 194.937 427.142 197.646 423.681 199.639L322.373 257.991C315.171 262.14 302.589 261.62 294.27 256.83L197.002 200.809C192.68 198.321 190.38 195.171 190.158 192.136H190.121L190.122 158.491Z" fill="#EFF2FD"/>
<path d="M322.359 225.795L423.659 167.453C430.861 163.305 429.96 156.059 421.641 151.269L324.381 95.2535C316.064 90.4678 303.483 89.9442 296.281 94.0921L194.98 152.434C187.778 156.581 188.679 163.827 196.998 168.617L294.259 224.633C302.575 229.423 315.157 229.943 322.359 225.795Z" fill="#F5F8FD"/>
</g>
<g opacity="0.71">
<path d="M1444.71 197.164H1312.24L1164.78 112.235C1145.79 101.298 1112.61 102.67 1090.68 115.299L948.535 197.164H816.13V215.323H816.172C815.631 222.725 819.769 229.87 828.896 235.125L1096.01 388.965C1115 399.903 1148.18 398.53 1170.11 385.9L1426.57 238.195C1437.96 231.634 1444.03 223.327 1444.62 215.323H1444.71L1444.71 197.164Z" fill="#F0F4FC"/>
<path d="M1096.28 371.091L829.162 217.253C810.17 206.315 812.55 187.209 834.482 174.579L1090.95 26.8733C1112.88 14.2426 1146.05 12.8733 1165.04 23.8097L1432.16 177.648C1451.15 188.586 1448.77 207.693 1426.84 220.322L1170.37 368.028C1148.44 380.658 1115.27 382.03 1096.28 371.091Z" fill="#FBFDFF"/>
<path d="M1249.86 158.491H1199.62L1143.69 126.277C1136.49 122.129 1123.9 122.649 1115.59 127.439L1061.67 158.487H1011.46V192.13H1011.47C1011.27 194.937 1012.84 197.646 1016.3 199.639L1117.61 257.991C1124.81 262.14 1137.39 261.62 1145.71 256.83L1242.98 200.809C1247.3 198.321 1249.6 195.171 1249.82 192.136H1249.86L1249.86 158.491Z" fill="#EFF2FD"/>
</g>
<path d="M826.826 162.505H782.365L732.873 134.005C726.5 130.335 715.365 130.795 708.004 135.037L660.298 162.508H615.86V308.98H615.875C615.692 311.462 617.083 313.86 620.144 315.622L709.795 367.255C716.167 370.925 727.303 370.465 734.664 366.223L820.739 316.652C824.56 314.452 826.597 311.664 826.795 308.977H826.828L826.826 162.505Z" fill="url(#paint0_linear_9_92172)"/>
<path d="M709.791 220.786L620.142 169.154C613.769 165.483 614.569 159.069 621.928 154.832L708.001 105.256C715.361 101.018 726.494 100.558 732.87 104.225L822.519 155.856C828.892 159.527 828.093 165.938 820.733 170.178L734.658 219.75C727.301 223.995 716.168 224.455 709.791 220.786Z" fill="#F2F5FC"/>
<path d="M783.738 162.193L730.189 192.836C728.357 193.905 726.272 194.468 724.149 194.468C722.027 194.468 719.942 193.905 718.109 192.836L660.582 159.931C660.166 159.662 659.861 159.254 659.721 158.779C659.581 158.305 659.616 157.797 659.82 157.346C659.973 156.981 660.24 156.675 660.582 156.475L715.063 125.305C716.613 124.402 718.376 123.926 720.171 123.926C721.967 123.926 723.73 124.402 725.28 125.305L783.743 158.742C784.159 159.012 784.464 159.422 784.603 159.897C784.742 160.372 784.705 160.881 784.501 161.332C784.348 161.695 784.083 161.998 783.743 162.198L783.738 162.193Z" fill="#6AC6FF"/>
<path d="M783.736 162.192L778.272 165.324L725.277 135.014C723.727 134.11 721.964 133.633 720.169 133.633C718.373 133.633 716.61 134.11 715.06 135.014L666.046 163.054L660.577 159.929C660.162 159.659 659.857 159.251 659.717 158.777C659.577 158.303 659.612 157.794 659.815 157.344C659.967 156.978 660.235 156.673 660.577 156.472L715.06 125.302C716.61 124.398 718.373 123.922 720.169 123.922C721.964 123.922 723.727 124.398 725.277 125.302L783.741 158.739C784.156 159.011 784.459 159.422 784.596 159.898C784.733 160.374 784.694 160.884 784.487 161.334C784.335 161.692 784.072 161.993 783.737 162.191L783.736 162.192Z" fill="#E0E3ED"/>
<path d="M787.299 289.336C789.869 289.336 791.953 287.097 791.953 284.336C791.953 281.575 789.869 279.336 787.299 279.336C784.728 279.336 782.645 281.575 782.645 284.336C782.645 287.097 784.728 289.336 787.299 289.336Z" fill="#5284D8"/>
<path d="M782.641 284.286C782.622 283.235 782.942 282.206 783.553 281.351C784.165 280.495 785.036 279.859 786.038 279.535C787.256 279.596 788.402 280.125 789.237 281.01C790.073 281.896 790.532 283.07 790.518 284.286C790.532 285.502 790.073 286.675 789.239 287.561C788.404 288.447 787.258 288.976 786.041 289.037C785.038 288.714 784.166 288.078 783.554 287.222C782.942 286.366 782.622 285.337 782.641 284.286Z" fill="url(#paint1_linear_9_92172)"/>
<path d="M787.297 284.602L845.598 322.994C850.291 326.085 855.768 327.781 861.391 327.884C867.013 327.987 872.549 326.493 877.353 323.577L1076.08 202.91" stroke="#5284D8" stroke-width="3" stroke-linecap="round"/>
<path d="M655.045 289.34C657.615 289.34 659.699 287.101 659.699 284.34C659.699 281.578 657.615 279.34 655.045 279.34C652.474 279.34 650.391 281.578 650.391 284.34C650.391 287.101 652.474 289.34 655.045 289.34Z" fill="#5284D8"/>
<path d="M659.694 284.288C659.714 283.237 659.394 282.209 658.782 281.354C658.17 280.499 657.299 279.863 656.298 279.539C655.08 279.6 653.934 280.128 653.099 281.014C652.264 281.899 651.805 283.072 651.818 284.288C651.804 285.503 652.263 286.677 653.097 287.563C653.932 288.449 655.078 288.978 656.295 289.039C657.298 288.716 658.17 288.079 658.782 287.224C659.394 286.368 659.714 285.339 659.694 284.288Z" fill="url(#paint2_linear_9_92172)"/>
<path d="M655.043 284.602L596.744 322.994C592.051 326.085 586.574 327.781 580.951 327.884C575.329 327.987 569.793 326.493 564.989 323.577L366.262 202.91" stroke="#5284D8" stroke-width="3" stroke-linecap="round"/>
<path d="M773.193 119.258C773.193 108.077 765.18 94.7757 755.229 89.3228C751.467 75.3821 741.312 61.4378 729.34 55.1185C723.714 52.1485 718.5 51.3107 714.15 52.2664V52.2449L705.533 54.1785C705.533 54.1785 700.102 61.0257 699.43 62.8085C697.54 61.5099 694.801 60.1157 692.909 60.4564L683.672 62.2178C683.672 62.2178 689.659 98.5749 699.764 103.909C704.066 106.179 758.732 134.037 758.732 134.037L764.922 132.018L764.9 132.01C769.889 130.989 773.193 126.431 773.193 119.258Z" fill="#019BFB"/>
<path d="M748.116 91.4208C744.137 77.4801 733.393 63.5358 720.726 57.2166C708.059 50.8973 697.316 54.1223 693.335 64.0916C682.809 59.0401 674.328 63.8823 674.328 75.0623C674.328 86.3694 682.992 99.858 693.688 105.192L747.764 132.169C758.455 137.503 767.122 132.661 767.122 121.355C767.122 110.175 758.644 96.8737 748.116 91.4208Z" fill="url(#paint3_linear_9_92172)"/>
<path opacity="0.4" d="M673.41 -74.0739V168.056L673.422 168.062C673.458 168.204 673.526 168.336 673.62 168.449C673.714 168.561 673.832 168.651 673.965 168.712L722.197 195.308C722.709 195.529 723.264 195.632 723.821 195.61C724.378 195.588 724.923 195.441 725.415 195.18L773.185 168.84C773.362 168.76 773.52 168.646 773.65 168.503C773.78 168.361 773.88 168.193 773.942 168.01L773.972 167.995V-74.644L723.692 -101.43L673.41 -74.0739Z" fill="url(#paint4_linear_9_92172)"/>
<path d="M1117.62 225.794L1016.32 167.453C1009.11 163.305 1010.01 156.059 1018.33 151.269L1115.59 95.2535C1123.91 90.4678 1136.49 89.9442 1143.69 94.0921L1244.99 152.433C1252.2 156.581 1251.3 163.826 1242.98 168.616L1145.72 224.632C1137.4 229.422 1124.82 229.941 1117.62 225.794Z" fill="#F5F8FD" stroke="#5284D8" stroke-width="3"/>
<path d="M323.113 225.795L424.413 167.453C431.615 163.305 430.714 156.059 422.395 151.269L325.134 95.2535C316.818 90.4678 304.237 89.9442 297.035 94.0921L195.734 152.434C188.532 156.581 189.433 163.827 197.751 168.617L295.013 224.633C303.329 229.423 315.911 229.943 323.113 225.795Z" fill="#F5F8FD" stroke="#5284D8" stroke-width="3"/>
<path d="M310.073 191.221C306.732 191.286 303.43 190.499 300.478 188.935L249.55 159.602C246.905 158.079 245.449 156.024 245.449 153.817C245.449 151.609 246.905 149.554 249.55 148.031L300.477 118.699C305.767 115.652 314.379 115.652 319.673 118.699L370.601 148.032C373.246 149.554 374.704 151.61 374.704 153.818C374.704 156.026 373.248 158.08 370.603 159.604L319.678 188.935C316.724 190.501 313.418 191.288 310.073 191.221ZM310.073 117.292C306.886 117.229 303.735 117.979 300.92 119.472L249.993 148.802C247.638 150.159 246.341 151.94 246.341 153.817C246.341 155.693 247.639 157.474 249.993 158.832L300.922 188.163C305.969 191.071 314.179 191.071 319.23 188.163L370.16 158.834C372.515 157.477 373.812 155.697 373.812 153.819C373.812 151.941 372.514 150.162 370.16 148.804L319.232 119.472C316.415 117.98 313.264 117.23 310.076 117.293L310.073 117.292Z" fill="url(#paint5_linear_9_92172)"/>
<path opacity="0.5" d="M376.288 142.561V125.166L373.098 123.395C372.196 128.828 365.787 132.407 360.428 133.15L323.935 154.436L308.009 160.172L257.176 134.002L258.35 133.326C254.006 131.302 251.666 126.67 249.315 122.445L245.892 124.481L243.859 125.052V142.744C243.859 144.999 245.35 147.255 248.332 148.972L299.26 178.303C305.223 181.737 314.927 181.737 320.885 178.303L371.813 148.974C374.749 147.284 376.235 145.074 376.284 142.856C376.284 142.756 376.284 142.657 376.278 142.559L376.288 142.561Z" fill="url(#paint6_linear_9_92172)"/>
<path d="M376.288 127.1V115.59L373.098 113.82C372.196 119.249 365.787 122.832 360.428 123.576L323.935 144.862L308.009 150.598L257.176 124.428L258.35 123.752C254.006 121.728 251.666 117.097 249.315 112.871L245.892 114.908L243.859 115.48V127.284C243.859 129.539 245.35 131.795 248.332 133.512L299.26 162.843C305.223 166.278 314.927 166.278 320.885 162.843L371.813 133.512C374.749 131.823 376.235 129.614 376.284 127.394C376.284 127.296 376.284 127.196 376.278 127.098L376.288 127.1Z" fill="url(#paint7_linear_9_92172)"/>
<path opacity="0.3" d="M360.428 123.572L323.935 144.858L310.074 149.852V165.416C313.839 165.489 317.561 164.603 320.887 162.84L371.815 133.509C374.751 131.82 376.237 129.611 376.286 127.391C376.286 127.293 376.286 127.193 376.279 127.095H376.286V115.587L373.369 113.969H373.064C372.071 119.315 365.735 122.834 360.428 123.572Z" fill="#F3F6FC"/>
<path d="M310.072 81.707L304.394 80.207L291.786 87.5999L249.312 112.868C251.663 117.094 254.003 121.726 258.348 123.749L306.609 95.9549C307.675 95.3897 308.868 95.106 310.074 95.1306L310.072 81.707Z" fill="url(#paint8_linear_9_92172)"/>
<path d="M299.26 151.147L248.332 121.815C242.369 118.38 242.369 112.792 248.332 109.358L299.259 80.0288C305.222 76.5946 314.923 76.5946 320.883 80.0288L371.813 109.36C377.775 112.795 377.775 118.383 371.813 121.817L320.885 151.147C314.927 154.582 305.223 154.582 299.26 151.147Z" fill="url(#paint9_linear_9_92172)"/>
<path d="M371.818 121.818L320.89 151.148C314.928 154.582 305.226 154.582 299.265 151.148L248.337 121.816C245.672 120.281 244.201 118.316 243.917 116.305C243.568 118.794 245.039 121.351 248.337 123.25L299.265 152.582C305.229 156.016 314.932 156.016 320.89 152.582L371.818 123.253C375.112 121.353 376.586 118.795 376.236 116.307C375.952 118.317 374.486 120.283 371.818 121.818Z" fill="white"/>
<path d="M1130.66 191.221C1127.32 191.286 1124.02 190.499 1121.06 188.935L1070.14 159.602C1067.49 158.079 1066.04 156.024 1066.04 153.817C1066.04 151.609 1067.49 149.554 1070.14 148.031L1121.06 118.699C1126.35 115.652 1134.96 115.652 1140.26 118.699L1191.19 148.032C1193.83 149.554 1195.29 151.61 1195.29 153.818C1195.29 156.026 1193.83 158.08 1191.19 159.604L1140.26 188.935C1137.31 190.501 1134 191.288 1130.66 191.221ZM1130.66 117.292C1127.47 117.229 1124.32 117.979 1121.51 119.472L1070.58 148.802C1068.22 150.159 1066.93 151.94 1066.93 153.817C1066.93 155.693 1068.22 157.474 1070.58 158.832L1121.51 188.163C1126.55 191.071 1134.77 191.071 1139.82 188.163L1190.75 158.834C1193.1 157.477 1194.4 155.697 1194.4 153.819C1194.4 151.941 1193.1 150.162 1190.75 148.804L1139.82 119.472C1137 117.98 1133.85 117.23 1130.66 117.293L1130.66 117.292Z" fill="url(#paint10_linear_9_92172)"/>
<path opacity="0.5" d="M1196.87 142.561V125.166L1193.68 123.395C1192.78 128.828 1186.37 132.407 1181.01 133.15L1144.52 154.436L1128.59 160.172L1077.76 134.002L1078.94 133.326C1074.59 131.302 1072.25 126.67 1069.9 122.445L1066.48 124.481L1064.45 125.052V142.744C1064.45 144.999 1065.94 147.255 1068.92 148.972L1119.85 178.303C1125.81 181.737 1135.51 181.737 1141.47 178.303L1192.4 148.974C1195.33 147.284 1196.82 145.074 1196.87 142.856C1196.87 142.756 1196.87 142.657 1196.86 142.559L1196.87 142.561Z" fill="url(#paint11_linear_9_92172)"/>
<path d="M1196.87 127.1V115.59L1193.68 113.82C1192.78 119.249 1186.37 122.832 1181.01 123.576L1144.52 144.862L1128.59 150.598L1077.76 124.428L1078.94 123.752C1074.59 121.728 1072.25 117.097 1069.9 112.871L1066.48 114.908L1064.45 115.48V127.284C1064.45 129.539 1065.94 131.795 1068.92 133.512L1119.85 162.843C1125.81 166.278 1135.51 166.278 1141.47 162.843L1192.4 133.512C1195.33 131.823 1196.82 129.614 1196.87 127.394C1196.87 127.296 1196.87 127.196 1196.86 127.098L1196.87 127.1Z" fill="url(#paint12_linear_9_92172)"/>
<path opacity="0.3" d="M1181.01 123.572L1144.52 144.858L1130.66 149.852V165.416C1134.43 165.489 1138.15 164.603 1141.47 162.84L1192.4 133.509C1195.34 131.82 1196.82 129.611 1196.87 127.391C1196.87 127.293 1196.87 127.193 1196.87 127.095H1196.87V115.587L1193.96 113.969H1193.65C1192.66 119.315 1186.32 122.834 1181.01 123.572Z" fill="#F3F6FC"/>
<path d="M1130.66 81.707L1124.98 80.207L1112.37 87.5999L1069.9 112.868C1072.25 117.094 1074.59 121.726 1078.93 123.749L1127.2 95.9549C1128.26 95.3897 1129.45 95.106 1130.66 95.1306L1130.66 81.707Z" fill="url(#paint13_linear_9_92172)"/>
<path d="M1119.85 151.147L1068.92 121.815C1062.95 118.38 1062.95 112.792 1068.92 109.358L1119.84 80.0288C1125.81 76.5946 1135.51 76.5946 1141.47 80.0288L1192.4 109.36C1198.36 112.795 1198.36 118.383 1192.4 121.817L1141.47 151.147C1135.51 154.582 1125.81 154.582 1119.85 151.147Z" fill="url(#paint14_linear_9_92172)"/>
<path d="M1192.4 121.818L1141.48 151.148C1135.51 154.582 1125.81 154.582 1119.85 151.148L1068.92 121.816C1066.26 120.281 1064.79 118.316 1064.5 116.305C1064.15 118.794 1065.62 121.351 1068.92 123.25L1119.85 152.582C1125.81 156.016 1135.52 156.016 1141.48 152.582L1192.4 123.253C1195.7 121.353 1197.17 118.795 1196.82 116.307C1196.54 118.317 1195.07 120.283 1192.4 121.818Z" fill="white"/>
</g>
</g>
<defs>
<linearGradient id="paint0_linear_9_92172" x1="735.478" y1="399.508" x2="746.233" y2="117.8" gradientUnits="userSpaceOnUse">
<stop stop-color="white"/>
<stop offset="1" stop-color="#C8CEDE"/>
</linearGradient>
<linearGradient id="paint1_linear_9_92172" x1="840.739" y1="218.265" x2="775.578" y2="276.788" gradientUnits="userSpaceOnUse">
<stop stop-color="#5E98F7"/>
<stop offset="1" stop-color="#4670BA"/>
</linearGradient>
<linearGradient id="paint2_linear_9_92172" x1="659.695" y1="218.283" x2="648.33" y2="288.474" gradientUnits="userSpaceOnUse">
<stop stop-color="#5E98F7"/>
<stop offset="1" stop-color="#4670BA"/>
</linearGradient>
<linearGradient id="paint3_linear_9_92172" x1="720.725" y1="53.9688" x2="720.725" y2="134.338" gradientUnits="userSpaceOnUse">
<stop stop-color="#6AC6FF"/>
<stop offset="1" stop-color="#003CFF"/>
</linearGradient>
<linearGradient id="paint4_linear_9_92172" x1="723.792" y1="158.483" x2="722.037" y2="-12.598" gradientUnits="userSpaceOnUse">
<stop stop-color="#1B69FF"/>
<stop offset="1" stop-color="white" stop-opacity="0"/>
</linearGradient>
<linearGradient id="paint5_linear_9_92172" x1="310.077" y1="116.414" x2="310.077" y2="191.225" gradientUnits="userSpaceOnUse">
<stop stop-color="#A0CCE0"/>
<stop offset="1" stop-color="#69A1E3"/>
</linearGradient>
<linearGradient id="paint6_linear_9_92172" x1="310.074" y1="122.445" x2="310.074" y2="180.879" gradientUnits="userSpaceOnUse">
<stop stop-color="#A0CCE0"/>
<stop offset="1" stop-color="#69A1E3"/>
</linearGradient>
<linearGradient id="paint7_linear_9_92172" x1="256.97" y1="92.6927" x2="279.691" y2="175.771" gradientUnits="userSpaceOnUse">
<stop stop-color="#F3F6FC"/>
<stop offset="0.436" stop-color="white"/>
<stop offset="1" stop-color="#C8CEDE"/>
</linearGradient>
<linearGradient id="paint8_linear_9_92172" x1="249.312" y1="101.978" x2="310.074" y2="101.978" gradientUnits="userSpaceOnUse">
<stop stop-color="#CAD1E0"/>
<stop offset="0.436" stop-color="white"/>
<stop offset="1" stop-color="#C8CEDE"/>
</linearGradient>
<linearGradient id="paint9_linear_9_92172" x1="243.859" y1="115.588" x2="376.284" y2="115.588" gradientUnits="userSpaceOnUse">
<stop stop-color="white"/>
<stop offset="0.506" stop-color="#F3F6FC"/>
<stop offset="1" stop-color="#F2F4FC"/>
</linearGradient>
<linearGradient id="paint10_linear_9_92172" x1="1130.66" y1="116.414" x2="1130.66" y2="191.225" gradientUnits="userSpaceOnUse">
<stop stop-color="#A0CCE0"/>
<stop offset="1" stop-color="#69A1E3"/>
</linearGradient>
<linearGradient id="paint11_linear_9_92172" x1="1130.66" y1="122.445" x2="1130.66" y2="180.879" gradientUnits="userSpaceOnUse">
<stop stop-color="#A0CCE0"/>
<stop offset="1" stop-color="#69A1E3"/>
</linearGradient>
<linearGradient id="paint12_linear_9_92172" x1="1077.56" y1="92.6927" x2="1100.28" y2="175.771" gradientUnits="userSpaceOnUse">
<stop stop-color="#F3F6FC"/>
<stop offset="0.436" stop-color="white"/>
<stop offset="1" stop-color="#C8CEDE"/>
</linearGradient>
<linearGradient id="paint13_linear_9_92172" x1="1069.9" y1="101.978" x2="1130.66" y2="101.978" gradientUnits="userSpaceOnUse">
<stop stop-color="#CAD1E0"/>
<stop offset="0.436" stop-color="white"/>
<stop offset="1" stop-color="#C8CEDE"/>
</linearGradient>
<linearGradient id="paint14_linear_9_92172" x1="1064.45" y1="115.588" x2="1196.87" y2="115.588" gradientUnits="userSpaceOnUse">
<stop stop-color="white"/>
<stop offset="0.506" stop-color="#F3F6FC"/>
<stop offset="1" stop-color="#F2F4FC"/>
</linearGradient>
<clipPath id="clip0_9_92172">
<rect width="1450" height="405" fill="white" transform="translate(-5)"/>
</clipPath>
</defs>
</svg>
