<svg xmlns="http://www.w3.org/2000/svg" width="81" height="99" fill="none" viewBox="0 0 81 99"><g clip-path="url(#a)"><path fill="#f1f4fb" fill-rule="evenodd" d="M25.791 91.256c-3.295 1.92-6.292 2.1-8.45.84l-.06-.007-12.288-7.17a6.5 6.5 0 0 1-1.799-1.598c-1.918-2.59-1.978-6.507-1.437-9.56a28.28 28.28 0 0 1 9.35-15.92l.539-.416c.12-.671.18-1.297.3-1.962 1.618-9.549 8.211-20.25 16.663-25.168 3.296-1.93 7.55-3.229 11.208-1.605l.421.175 2.517 1.49c2.337-2.059 5.455-4.012 8.631-3.96.782.01 1.555.164 2.282.453l.359.151 5.334 3.126.6-.115a6.85 6.85 0 0 1 3.715.317l.42.181 12.35 7.176c2.337 1.171 3.835 3.947 3.835 7.99 0 7.69-5.335 17.039-11.988 20.878z" clip-rule="evenodd"/><path fill="#1b69ff" fill-rule="evenodd" d="M36.224 28.656c-2.57.116-5.066.893-7.252 2.257-7.911 4.618-14.624 14.764-16.36 24.674-.06.651-.18 1.26-.236 1.913a.75.75 0 0 1-.241.489l-.54.416A27.06 27.06 0 0 0 2.486 73.88c-.3 1.774-.839 6.198 1.319 9.017a5.2 5.2 0 0 0 1.558 1.417l12.287 7.159c2.038 1.188 4.798.893 7.793-.833l42.496-24.698c6.414-3.717 11.629-12.807 11.629-20.26 0-3.585-1.259-6.272-3.417-7.357l-12.707-7.34a6.3 6.3 0 0 0-3.356-.271l-.54.108a.63.63 0 0 1-.48-.08l-5.695-3.246a5.3 5.3 0 0 0-1.977-.387c-3.417-.066-6.534 2.342-8.152 3.779a.644.644 0 0 1-.78.079l-2.936-1.635a8.1 8.1 0 0 0-3.299-.677zM20.46 93.616a6.8 6.8 0 0 1-3.476-.906L4.635 85.53a6.6 6.6 0 0 1-1.977-1.774C.2 80.483.74 75.582 1.1 73.633a28.6 28.6 0 0 1 9.59-16.338l.299-.248c.06-.58.18-1.123.236-1.702 1.798-10.296 8.81-20.846 17.023-25.656 2.457-1.473 7.372-3.634 11.868-1.648l.42.186 2.157 1.262c1.859-1.563 5.096-3.802 8.574-3.802.06 0 .06.006.12.006a7.3 7.3 0 0 1 2.577.501l.36.163 5.155 3.024.36-.06a7.6 7.6 0 0 1 4.135.357l.42.186 12.407 7.213c2.638 1.316 4.197 4.454 4.197 8.606 0 7.907-5.514 17.545-12.35 21.493L26.153 91.873a11.5 11.5 0 0 1-5.691 1.743" clip-rule="evenodd"/><path fill="#fff" fill-rule="evenodd" d="M25.793 91.257c-6.594 3.839-11.988.718-11.988-6.97 0-6.982 4.436-15.33 10.19-19.68 1.079-10.381 8.272-22.085 16.962-27.13 5.694-3.344 10.79-2.987 13.906.296a19.5 19.5 0 0 1 3.417-2.553c5.274-3.053 9.71-1.701 11.327 2.837 5.993-2.752 10.668.441 10.668 7.628 0 7.69-5.335 17.039-11.987 20.878z" clip-rule="evenodd"/><path fill="#1b69ff" fill-rule="evenodd" d="M48.573 35.857c-2.57.088-5.072.858-7.252 2.232-8.391 4.871-15.524 16.302-16.604 26.586a.62.62 0 0 1-.299.494c-5.634 4.261-9.89 12.482-9.89 19.114 0 3.46 1.14 6.013 3.118 7.195 2.097 1.182 4.797.887 7.792-.839l42.496-24.698c6.413-3.717 11.629-12.807 11.629-20.26 0-3.327-1.023-5.83-2.938-7.068-1.738-1.135-4.135-1.109-6.713.084a.8.8 0 0 1-.599.007.65.65 0 0 1-.36-.417 5.7 5.7 0 0 0-1.26-2.22 5.7 5.7 0 0 0-2.096-1.444c-1.919-.712-4.376-.284-6.952 1.208a18.7 18.7 0 0 0-3.298 2.463.67.67 0 0 1-.959-.038 7.9 7.9 0 0 0-2.659-1.81 7.8 7.8 0 0 0-3.155-.592zM20.461 93.615a6.8 6.8 0 0 1-3.475-.906c-2.517-1.448-3.896-4.441-3.896-8.425 0-7.061 4.316-15.444 10.25-20.061 1.198-10.613 8.573-22.334 17.262-27.365 5.574-3.224 10.849-3.235 14.325-.061a19 19 0 0 1 2.998-2.191c2.937-1.708 5.813-2.172 8.152-1.315a6.8 6.8 0 0 1 2.341 1.506c.67.658 1.2 1.448 1.554 2.32 2.817-1.098 5.454-.996 7.433.301C79.742 38.923 81 41.86 81 45.681c0 7.906-5.514 17.545-12.348 21.491L26.155 91.87a11.5 11.5 0 0 1-5.694 1.746" clip-rule="evenodd"/><path fill="#1b69ff" fill-rule="evenodd" d="M23.997 65.31a.74.74 0 0 1-.36-.096L11.29 58.043a.76.76 0 0 1-.24-.972.71.71 0 0 1 .96-.26l12.349 7.178a.71.71 0 0 1 .378.697.7.7 0 0 1-.079.268.86.86 0 0 1-.66.356m31.046-27.123a.8.8 0 0 1-.359-.09l-12.228-7.122a.72.72 0 0 1-.3-.972.695.695 0 0 1 .7-.352q.139.02.26.093l12.227 7.12a.72.72 0 0 1 .3.972.69.69 0 0 1-.6.351m11.33-3.278a.44.44 0 0 1-.299-.09l-7.013-4.074a.7.7 0 0 1-.354-.414.7.7 0 0 1 .476-.884.7.7 0 0 1 .538.072l7.012 4.068a.71.71 0 0 1 .38.698.7.7 0 0 1-.079.268.86.86 0 0 1-.66.356" clip-rule="evenodd"/><path fill="#fff" d="m69.627 5.177 4.397 2.557a.62.62 0 0 1 .261.573v22.462c0 10.42-15.28 27.367-15.932 28.086q-.154.17-.351.29a.8.8 0 0 1-.348.116c-.423.026-7.023.378-11.594-2.237l-4.454-2.59a7.95 7.95 0 0 1-3.184-3.027 8.03 8.03 0 0 1-1.103-4.268V24.674a2.05 2.05 0 0 1 .914-1.525c6.1-3.544 11.786-8.563 14.845-13.099.31-.459.741-.706 1.053-.61 3.053.978 8.737-.611 14.886-4.187a.57.57 0 0 1 .614-.08z"/><path fill="#1b69ff" d="M38.23 23.149c6.1-3.544 11.786-8.563 14.845-13.1.309-.458.74-.706 1.051-.609 3.054.978 8.738-.611 14.887-4.187a.57.57 0 0 1 .613-.08l4.398 2.557a.57.57 0 0 0-.608.08c-6.152 3.575-11.832 5.166-14.888 4.186-.315-.098-.744.153-1.053.61-3.057 4.536-8.743 9.554-14.844 13.1a2.02 2.02 0 0 0-.913 1.524v22.464c-.036 1.51.353 3 1.122 4.296a7.97 7.97 0 0 0 3.224 3.031h-.006l-4.454-2.589a7.95 7.95 0 0 1-3.184-3.027 8.03 8.03 0 0 1-1.103-4.268V24.674a2.05 2.05 0 0 1 .912-1.525"/><path fill="#005bea" d="M56.513 59.65c.672 0 1.096-.024 1.163-.03.181-.013.357-.07.512-.165a2 2 0 0 0 .432-.356c.658-.723 16.032-17.77 16.03-28.336V8.303a.98.98 0 0 0-.443-.89L69.81 4.855l-.022-.012a.92.92 0 0 0-.974.104c-6.02 3.5-11.614 5.09-14.576 4.143a1.41 1.41 0 0 0-1.462.753c-3.031 4.495-8.675 9.471-14.727 12.988a2.39 2.39 0 0 0-1.096 1.84V47.14a8.36 8.36 0 0 0 1.14 4.44 8.3 8.3 0 0 0 3.304 3.156l.025.016 4.453 2.59q.027.014.055.026c3.586 2.03 8.394 2.283 10.584 2.283M69.464 5.5l4.38 2.546c.04.024.079.111.079.255v22.463c0 10.284-15.191 27.128-15.84 27.84q-.115.13-.264.22a.44.44 0 0 1-.188.068c-.28.017-6.892.386-11.394-2.188l-.048-.024-4.38-2.547-.026-.017a7.6 7.6 0 0 1-3.05-2.894 7.67 7.67 0 0 1-1.055-4.083V24.673a1.7 1.7 0 0 1 .733-1.209c6.14-3.564 11.877-8.633 14.962-13.21.236-.354.533-.5.644-.466 3.146 1.009 8.966-.608 15.176-4.22.13-.086.216-.099.247-.08z"/><path fill="#1b69ff" d="m58.004 39.36 9.875-17.364-1.337-.773-8.54 15.038-5.27-3.055-1.337 2.326z"/></g><defs><clipPath id="a"><path fill="#fff" d="M0 0h81v99H0z"/></clipPath></defs></svg>