<svg xmlns="http://www.w3.org/2000/svg" width="1440" height="405" fill="none" viewBox="0 0 1440 405"><g clip-path="url(#a)"><mask id="b" width="1450" height="405" x="-5" y="0" maskUnits="userSpaceOnUse" style="mask-type:luminance"><path fill="#fff" d="M1445 0H-5v405h1450z"/></mask><g mask="url(#b)"><g opacity=".71"><path fill="#f0f4fc" d="M-4.734 197.164h132.469l147.466-84.928c18.991-10.938 52.165-9.566 74.096 3.063l142.145 81.867h132.41v18.159h-.042c.542 7.402-3.597 14.546-12.724 19.802L343.969 388.965c-18.992 10.938-52.167 9.565-74.097-3.064L13.408 238.196c-11.394-6.562-17.46-14.869-18.045-22.873h-.097z"/><path fill="#fbfdff" d="m343.703 371.091 267.113-153.838c18.991-10.938 16.612-30.044-5.32-42.674L349.034 26.873c-21.93-12.63-55.105-14-74.096-3.063L7.822 177.648c-18.991 10.938-16.613 30.044 5.32 42.674l256.466 147.705c21.93 12.631 55.104 14.003 74.095 3.064"/><path fill="#eff2fd" d="M190.122 158.491h50.242l55.929-32.214c7.202-4.148 19.784-3.628 28.102 1.162l53.912 31.048h50.216v33.643h-.016c.205 2.807-1.365 5.516-4.826 7.509l-101.308 58.352c-7.202 4.149-19.784 3.629-28.103-1.161l-97.268-56.021c-4.322-2.488-6.622-5.638-6.844-8.673h-.037z"/><path fill="#f5f8fd" d="m322.359 225.795 101.3-58.342c7.202-4.148 6.301-11.394-2.018-16.184l-97.26-56.015c-8.317-4.786-20.898-5.31-28.1-1.162L194.98 152.434c-7.202 4.147-6.301 11.393 2.018 16.183l97.261 56.016c8.316 4.79 20.898 5.31 28.1 1.162"/></g><g opacity=".71"><path fill="#f0f4fc" d="M1444.71 197.164h-132.47l-147.46-84.929c-18.99-10.937-52.17-9.565-74.1 3.064l-142.145 81.865H816.13v18.159h.042c-.541 7.402 3.597 14.547 12.724 19.802l267.114 153.84c18.99 10.938 52.17 9.565 74.1-3.065l256.46-147.705c11.39-6.561 17.46-14.868 18.05-22.872h.09z"/><path fill="#fbfdff" d="M1096.28 371.091 829.162 217.253c-18.992-10.938-16.612-30.044 5.32-42.674L1090.95 26.873c21.93-12.63 55.1-14 74.09-3.063l267.12 153.838c18.99 10.938 16.61 30.045-5.32 42.674l-256.47 147.706c-21.93 12.63-55.1 14.002-74.09 3.063"/><path fill="#eff2fd" d="M1249.86 158.491h-50.24l-55.93-32.214c-7.2-4.148-19.79-3.628-28.1 1.162l-53.92 31.048h-50.21v33.643h.01c-.2 2.807 1.37 5.516 4.83 7.509l101.31 58.352c7.2 4.149 19.78 3.629 28.1-1.161l97.27-56.021c4.32-2.488 6.62-5.638 6.84-8.673h.04z"/></g><path fill="url(#c)" d="M826.826 162.505h-44.461l-49.492-28.5c-6.373-3.67-17.508-3.21-24.869 1.032l-47.706 27.471H615.86V308.98h.015c-.183 2.482 1.208 4.88 4.269 6.642l89.651 51.633c6.372 3.67 17.508 3.21 24.869-1.032l86.075-49.571c3.821-2.2 5.858-4.988 6.056-7.675h.033z"/><path fill="#f2f5fc" d="m709.791 220.786-89.649-51.632c-6.373-3.671-5.573-10.085 1.786-14.322l86.073-49.576c7.36-4.238 18.493-4.698 24.869-1.031l89.649 51.631c6.373 3.671 5.574 10.082-1.786 14.322l-86.075 49.572c-7.357 4.245-18.49 4.705-24.867 1.036"/><path fill="#6ac6ff" d="m783.738 162.193-53.549 30.643a11.99 11.99 0 0 1-12.08 0l-57.527-32.905a2.07 2.07 0 0 1-.762-2.585c.153-.365.42-.671.762-.871l54.481-31.17a10.15 10.15 0 0 1 10.217 0l58.463 33.437a2.07 2.07 0 0 1 .758 2.59 1.83 1.83 0 0 1-.758.866z"/><path fill="#e0e3ed" d="m783.736 162.192-5.464 3.132-52.995-30.31a10.14 10.14 0 0 0-10.217 0l-49.014 28.04-5.469-3.125a2.065 2.065 0 0 1-.762-2.585c.152-.366.42-.671.762-.872l54.483-31.17a10.14 10.14 0 0 1 10.217 0l58.464 33.437a2.07 2.07 0 0 1 .746 2.595 1.82 1.82 0 0 1-.75.857z"/><path fill="#5284d8" d="M787.299 289.336c2.57 0 4.654-2.239 4.654-5s-2.084-5-4.654-5c-2.571 0-4.654 2.239-4.654 5s2.083 5 4.654 5"/><path fill="url(#d)" d="M782.641 284.286a4.9 4.9 0 0 1 3.397-4.751 4.72 4.72 0 0 1 3.199 1.475 4.7 4.7 0 0 1 1.281 3.276 4.7 4.7 0 0 1-1.279 3.275 4.72 4.72 0 0 1-3.198 1.476 4.9 4.9 0 0 1-3.4-4.751"/><path stroke="#5284d8" stroke-linecap="round" stroke-width="3" d="m787.297 284.602 58.301 38.392a29.72 29.72 0 0 0 31.755.583L1076.08 202.91"/><path fill="#5284d8" d="M655.045 289.34c2.57 0 4.654-2.239 4.654-5s-2.084-5-4.654-5c-2.571 0-4.654 2.238-4.654 5s2.083 5 4.654 5"/><path fill="url(#e)" d="M659.694 284.288a4.88 4.88 0 0 0-.912-2.934 4.9 4.9 0 0 0-2.484-1.815 4.72 4.72 0 0 0-3.199 1.475 4.7 4.7 0 0 0-1.281 3.274 4.7 4.7 0 0 0 1.279 3.275 4.72 4.72 0 0 0 3.198 1.476 4.9 4.9 0 0 0 2.487-1.815 4.9 4.9 0 0 0 .912-2.936"/><path stroke="#5284d8" stroke-linecap="round" stroke-width="3" d="m655.043 284.602-58.299 38.392a29.72 29.72 0 0 1-31.755.583L366.262 202.91"/><path fill="#019bfb" d="M773.193 119.258c0-11.181-8.013-24.482-17.964-29.935-3.762-13.94-13.917-27.885-25.889-34.204-5.626-2.97-10.84-3.808-15.19-2.853v-.021l-8.617 1.934s-5.431 6.847-6.103 8.63c-1.89-1.3-4.629-2.693-6.521-2.353l-9.237 1.762s5.987 36.357 16.092 41.691c4.302 2.27 58.968 30.128 58.968 30.128l6.19-2.019-.022-.008c4.989-1.021 8.293-5.579 8.293-12.752"/><path fill="url(#f)" d="M748.116 91.42c-3.979-13.94-14.723-27.884-27.39-34.203s-23.41-3.095-27.391 6.875c-10.526-5.052-19.007-.21-19.007 10.97 0 11.307 8.664 24.796 19.36 30.13l54.076 26.977c10.691 5.334 19.358.492 19.358-10.814 0-11.18-8.478-24.481-19.006-29.934"/><path fill="url(#g)" d="M673.41-74.074v242.13l.012.006a.98.98 0 0 0 .543.65l48.232 26.596a3.73 3.73 0 0 0 3.218-.128l47.77-26.34a1.4 1.4 0 0 0 .757-.83l.03-.015V-74.644l-50.28-26.786z" opacity=".4"/><path fill="#f5f8fd" stroke="#5284d8" stroke-width="3" d="m1117.62 225.794-101.3-58.341c-7.21-4.148-6.31-11.394 2.01-16.184l97.26-56.015c8.32-4.786 20.9-5.31 28.1-1.162l101.3 58.341c7.21 4.148 6.31 11.393-2.01 16.183l-97.26 56.016c-8.32 4.79-20.9 5.309-28.1 1.162Zm-794.507.001 101.3-58.342c7.202-4.148 6.301-11.394-2.018-16.184l-97.261-56.015c-8.316-4.786-20.897-5.31-28.099-1.162l-101.301 58.342c-7.202 4.147-6.301 11.393 2.017 16.183l97.262 56.016c8.316 4.79 20.898 5.31 28.1 1.162Z"/><path fill="url(#h)" d="M310.073 191.221a19.7 19.7 0 0 1-9.595-2.286l-50.928-29.333c-2.645-1.523-4.101-3.578-4.101-5.785s1.456-4.263 4.101-5.786l50.927-29.332c5.29-3.047 13.902-3.047 19.196 0l50.928 29.333c2.645 1.522 4.103 3.578 4.103 5.786s-1.456 4.262-4.101 5.786l-50.925 29.331a19.7 19.7 0 0 1-9.605 2.286m0-73.929a18.75 18.75 0 0 0-9.153 2.18l-50.927 29.33c-2.355 1.357-3.652 3.138-3.652 5.015s1.298 3.657 3.652 5.015l50.929 29.331c5.047 2.908 13.257 2.908 18.308 0l50.93-29.329c2.355-1.357 3.652-3.137 3.652-5.015s-1.298-3.657-3.652-5.015l-50.928-29.332a18.8 18.8 0 0 0-9.156-2.179z"/><path fill="url(#i)" d="M376.288 142.561v-17.395l-3.19-1.771c-.902 5.433-7.311 9.012-12.67 9.755l-36.493 21.286-15.926 5.736-50.833-26.17 1.174-.676c-4.344-2.024-6.684-6.656-9.035-10.881l-3.423 2.036-2.033.571v17.692c0 2.255 1.491 4.511 4.473 6.228l50.928 29.331c5.963 3.434 15.667 3.434 21.625 0l50.928-29.329c2.936-1.69 4.422-3.9 4.471-6.118q.001-.15-.006-.297z" opacity=".5"/><path fill="url(#j)" d="M376.288 127.1v-11.51l-3.19-1.77c-.902 5.429-7.311 9.012-12.67 9.756l-36.493 21.286-15.926 5.736-50.833-26.17 1.174-.676c-4.344-2.024-6.684-6.655-9.035-10.881l-3.423 2.037-2.033.572v11.804c0 2.255 1.491 4.511 4.473 6.228l50.928 29.331c5.963 3.435 15.667 3.435 21.625 0l50.928-29.331c2.936-1.689 4.422-3.898 4.471-6.118q.001-.148-.006-.296z"/><path fill="#f3f6fc" d="m360.428 123.572-36.493 21.286-13.861 4.994v15.564a22.2 22.2 0 0 0 10.813-2.576l50.928-29.331c2.936-1.689 4.422-3.898 4.471-6.118q.002-.148-.007-.296h.007v-11.508l-2.917-1.618h-.305c-.993 5.346-7.329 8.865-12.636 9.603" opacity=".3"/><path fill="url(#k)" d="m310.072 81.707-5.678-1.5-12.608 7.393-42.474 25.268c2.351 4.226 4.691 8.858 9.036 10.881l48.261-27.794a7.1 7.1 0 0 1 3.465-.824z"/><path fill="url(#l)" d="m299.26 151.147-50.928-29.332c-5.963-3.435-5.963-9.023 0-12.457l50.927-29.33c5.963-3.433 15.664-3.433 21.624 0l50.93 29.332c5.962 3.435 5.962 9.023 0 12.457l-50.928 29.33c-5.958 3.435-15.662 3.435-21.625 0"/><path fill="#fff" d="m371.818 121.818-50.928 29.33c-5.962 3.434-15.664 3.434-21.625 0l-50.928-29.332c-2.665-1.535-4.136-3.5-4.42-5.511-.349 2.489 1.122 5.046 4.42 6.945l50.928 29.332c5.964 3.434 15.667 3.434 21.625 0l50.928-29.329c3.294-1.9 4.768-4.458 4.418-6.946-.284 2.01-1.75 3.976-4.418 5.511"/><path fill="url(#m)" d="M1130.66 191.221a19.7 19.7 0 0 1-9.6-2.286l-50.92-29.333c-2.65-1.523-4.1-3.578-4.1-5.785s1.45-4.263 4.1-5.786l50.92-29.332c5.29-3.047 13.9-3.047 19.2 0l50.93 29.333c2.64 1.522 4.1 3.578 4.1 5.786s-1.46 4.262-4.1 5.786l-50.93 29.331a19.65 19.65 0 0 1-9.6 2.286m0-73.929c-3.19-.063-6.34.687-9.15 2.18l-50.93 29.33c-2.36 1.357-3.65 3.138-3.65 5.015s1.29 3.657 3.65 5.015l50.93 29.331c5.04 2.908 13.26 2.908 18.31 0l50.93-29.329c2.35-1.357 3.65-3.137 3.65-5.015s-1.3-3.657-3.65-5.015l-50.93-29.332a18.8 18.8 0 0 0-9.16-2.179z"/><path fill="url(#n)" d="M1196.87 142.561v-17.395l-3.19-1.771c-.9 5.433-7.31 9.012-12.67 9.755l-36.49 21.286-15.93 5.736-50.83-26.17 1.18-.676c-4.35-2.024-6.69-6.656-9.04-10.881l-3.42 2.036-2.03.571v17.692c0 2.255 1.49 4.511 4.47 6.228l50.93 29.331c5.96 3.434 15.66 3.434 21.62 0l50.93-29.329c2.93-1.69 4.42-3.9 4.47-6.118 0-.1 0-.199-.01-.297z" opacity=".5"/><path fill="url(#o)" d="M1196.87 127.1v-11.51l-3.19-1.77c-.9 5.429-7.31 9.012-12.67 9.756l-36.49 21.286-15.93 5.736-50.83-26.17 1.18-.676c-4.35-2.024-6.69-6.655-9.04-10.881l-3.42 2.037-2.03.572v11.804c0 2.255 1.49 4.511 4.47 6.228l50.93 29.331c5.96 3.435 15.66 3.435 21.62 0l50.93-29.331c2.93-1.689 4.42-3.898 4.47-6.118 0-.098 0-.198-.01-.296z"/><path fill="#f3f6fc" d="m1181.01 123.572-36.49 21.286-13.86 4.994v15.564a22.1 22.1 0 0 0 10.81-2.576l50.93-29.331c2.94-1.689 4.42-3.898 4.47-6.118v-11.804l-2.91-1.618h-.31c-.99 5.346-7.33 8.865-12.64 9.603" opacity=".3"/><path fill="url(#p)" d="m1130.66 81.707-5.68-1.5-12.61 7.393-42.47 25.268c2.35 4.226 4.69 8.858 9.03 10.881l48.27-27.794a7.04 7.04 0 0 1 3.46-.824z"/><path fill="url(#q)" d="m1119.85 151.147-50.93-29.332c-5.97-3.435-5.97-9.023 0-12.457l50.92-29.33c5.97-3.433 15.67-3.433 21.63 0l50.93 29.332c5.96 3.435 5.96 9.023 0 12.457l-50.93 29.33c-5.96 3.435-15.66 3.435-21.62 0"/><path fill="#fff" d="m1192.4 121.818-50.92 29.33c-5.97 3.434-15.67 3.434-21.63 0l-50.93-29.332c-2.66-1.535-4.13-3.5-4.42-5.511-.35 2.489 1.12 5.046 4.42 6.945l50.93 29.332c5.96 3.434 15.67 3.434 21.63 0l50.92-29.329c3.3-1.9 4.77-4.458 4.42-6.946-.28 2.01-1.75 3.976-4.42 5.511"/></g></g><defs><linearGradient id="c" x1="735.478" x2="746.233" y1="399.508" y2="117.8" gradientUnits="userSpaceOnUse"><stop stop-color="#fff"/><stop offset="1" stop-color="#c8cede"/></linearGradient><linearGradient id="d" x1="840.739" x2="775.578" y1="218.265" y2="276.788" gradientUnits="userSpaceOnUse"><stop stop-color="#5e98f7"/><stop offset="1" stop-color="#4670ba"/></linearGradient><linearGradient id="e" x1="659.695" x2="648.33" y1="218.283" y2="288.474" gradientUnits="userSpaceOnUse"><stop stop-color="#5e98f7"/><stop offset="1" stop-color="#4670ba"/></linearGradient><linearGradient id="f" x1="720.725" x2="720.725" y1="53.969" y2="134.338" gradientUnits="userSpaceOnUse"><stop stop-color="#6ac6ff"/><stop offset="1" stop-color="#003cff"/></linearGradient><linearGradient id="g" x1="723.792" x2="722.037" y1="158.483" y2="-12.598" gradientUnits="userSpaceOnUse"><stop stop-color="#1b69ff"/><stop offset="1" stop-color="#fff" stop-opacity="0"/></linearGradient><linearGradient id="h" x1="310.077" x2="310.077" y1="116.414" y2="191.225" gradientUnits="userSpaceOnUse"><stop stop-color="#a0cce0"/><stop offset="1" stop-color="#69a1e3"/></linearGradient><linearGradient id="i" x1="310.074" x2="310.074" y1="122.445" y2="180.879" gradientUnits="userSpaceOnUse"><stop stop-color="#a0cce0"/><stop offset="1" stop-color="#69a1e3"/></linearGradient><linearGradient id="j" x1="256.97" x2="279.691" y1="92.693" y2="175.771" gradientUnits="userSpaceOnUse"><stop stop-color="#f3f6fc"/><stop offset=".436" stop-color="#fff"/><stop offset="1" stop-color="#c8cede"/></linearGradient><linearGradient id="k" x1="249.312" x2="310.074" y1="101.978" y2="101.978" gradientUnits="userSpaceOnUse"><stop stop-color="#cad1e0"/><stop offset=".436" stop-color="#fff"/><stop offset="1" stop-color="#c8cede"/></linearGradient><linearGradient id="l" x1="243.859" x2="376.284" y1="115.588" y2="115.588" gradientUnits="userSpaceOnUse"><stop stop-color="#fff"/><stop offset=".506" stop-color="#f3f6fc"/><stop offset="1" stop-color="#f2f4fc"/></linearGradient><linearGradient id="m" x1="1130.66" x2="1130.66" y1="116.414" y2="191.225" gradientUnits="userSpaceOnUse"><stop stop-color="#a0cce0"/><stop offset="1" stop-color="#69a1e3"/></linearGradient><linearGradient id="n" x1="1130.66" x2="1130.66" y1="122.445" y2="180.879" gradientUnits="userSpaceOnUse"><stop stop-color="#a0cce0"/><stop offset="1" stop-color="#69a1e3"/></linearGradient><linearGradient id="o" x1="1077.56" x2="1100.28" y1="92.693" y2="175.771" gradientUnits="userSpaceOnUse"><stop stop-color="#f3f6fc"/><stop offset=".436" stop-color="#fff"/><stop offset="1" stop-color="#c8cede"/></linearGradient><linearGradient id="p" x1="1069.9" x2="1130.66" y1="101.978" y2="101.978" gradientUnits="userSpaceOnUse"><stop stop-color="#cad1e0"/><stop offset=".436" stop-color="#fff"/><stop offset="1" stop-color="#c8cede"/></linearGradient><linearGradient id="q" x1="1064.45" x2="1196.87" y1="115.588" y2="115.588" gradientUnits="userSpaceOnUse"><stop stop-color="#fff"/><stop offset=".506" stop-color="#f3f6fc"/><stop offset="1" stop-color="#f2f4fc"/></linearGradient><clipPath id="a"><path fill="#fff" d="M-5 0h1450v405H-5z"/></clipPath></defs></svg>