<svg xmlns="http://www.w3.org/2000/svg" width="145" height="146" fill="none" viewBox="0 0 145 146"><g clip-path="url(#a)"><path fill="#265597" d="M56.475 2.865c1.927-.507 3.766-.974 5.596-1.476C65.734.384 69.473-.026 73.256 0c8.506.062 16.508 2.143 23.822 6.547 12.543 7.552 20.229 18.632 23.128 33.103.416 2.081.046 4.122-.29 6.152-1.661 10.013-6.103 18.574-13.239 25.71-.287.287-.583.564-.878.843-.031.03-.075.045-.199.115.289-1.003.564-1.937.827-2.876 1.121-4.013 1.734-8.105 1.892-12.275.276-7.335-.855-14.44-3.572-21.241a23.8 23.8 0 0 0-2.939-5.256c-2.801-3.802-5.563-7.67-8.728-11.152-7.84-8.626-17.627-13.827-29.024-15.88-2.456-.442-4.96-.613-7.58-.926m39.353 46.853C87.514 34.084 74.995 24.241 57.696 21.05c-17.291-3.19-32.402 1.586-45.603 13.198.616-1.118 1.19-2.262 1.856-3.35 7.35-11.996 17.814-19.676 31.511-22.405 13.778-2.745 26.596.017 38.197 8.096 1.13.787 2.023 1.988 2.874 3.114 4.81 6.373 7.836 13.532 8.877 21.486.343 2.622.338 5.291.486 7.939.01.17-.037.343-.066.59M71.58 40.059c-16.45-5.044-32.14-3.322-46.447 6.69C10.84 56.754 3.67 70.946 2.593 88.512c-.138-.422-.251-.762-.36-1.104-.116-.366-.238-.733-.34-1.104C.579 81.552-.155 76.705.038 71.777c.487-12.48 4.9-23.342 13.49-32.375 6.27-6.59 13.824-11.008 22.588-13.282 1.41-.367 2.843-.747 4.285-.863 1.281-.104 2.602.071 3.886.259 9.183 1.343 17.267 5.114 24.2 11.353 1.117 1.005 2.101 2.16 3.093 3.189zm39.312-27.083c5.267 2.597 9.847 6.06 13.81 10.352 6.524 7.064 10.66 15.367 12.193 24.899 2.112 13.127-.55 25.241-8.145 36.138-.99 1.419-2.529 2.5-3.95 3.547-6.449 4.754-13.673 7.577-21.598 8.489-2.394.276-4.817.289-7.225.342 15.256-8.344 25.171-20.802 28.278-38.136 3.106-17.321-1.81-32.484-13.363-45.63M48.674 49.932c-15.21 8.26-25.117 20.686-28.22 38.005-3.096 17.278 1.768 32.427 13.226 45.504l-.114.167c-2.051-1.284-4.179-2.46-6.14-3.871-9.847-7.079-16.335-16.552-19.017-28.464-3.2-14.215-.595-27.39 7.69-39.369.278-.403.647-.756 1.022-1.074 7.01-5.962 15.066-9.535 24.157-10.641 2.444-.297 4.921-.31 7.385-.453zm38.573 93.224c-1.348.38-2.689.791-4.047 1.136-4.342 1.105-8.769 1.603-13.226 1.331-16.508-1.011-29.36-8.528-38.47-22.477-3.535-5.412-5.75-11.397-6.742-17.797-.23-1.486.007-3.08.222-4.596 1.177-8.272 4.334-15.706 9.502-22.23 1.386-1.75 2.993-3.32 4.502-4.971.101-.111.232-.195.377-.314-5.033 16.772-3.317 32.633 6.595 47.094 9.914 14.461 23.96 21.713 41.287 22.824M49.075 96.481c8.22 15.461 20.526 25.44 37.624 28.574 17.104 3.135 32.093-1.807 45.106-13.379-.601 1.099-1.162 2.222-1.81 3.292-6.894 11.386-16.686 18.943-29.525 22.1-14.094 3.466-27.22.928-39.204-7.389a7.7 7.7 0 0 1-1.52-1.429c-5.408-6.543-8.803-14.02-10.154-22.445a47.7 47.7 0 0 1-.563-8.886c.003-.112.023-.224.046-.437m93.556-39.226c.573 2.535 1.234 5.054 1.699 7.61.756 4.154.824 8.36.416 12.555-.655 6.724-2.6 13.062-5.92 18.94-5.444 9.636-13.225 16.633-23.328 20.979-3.381 1.455-6.887 2.535-10.524 3.022-1.437.193-2.958-.023-4.415-.234-7.118-1.031-13.647-3.623-19.567-7.758a46 46 0 0 1-7.343-6.388c-.116-.125-.218-.265-.326-.399 16.56 5.079 32.248 3.364 46.556-6.644 14.295-9.996 21.474-24.182 22.544-41.618zM53.079 94.384a56.7 56.7 0 0 0 9.962 7.312c.22.128.403.359.547.579 4.388 6.761 10.018 12.203 16.913 16.306a.9.9 0 0 1 .32.288c-12.494-4.396-21.734-12.573-27.742-24.485m38.757-43.17c-.99-.841-1.93-1.752-2.98-2.509-2.173-1.566-4.407-3.045-6.609-4.57-.289-.2-.597-.424-.784-.71-4.353-6.7-9.923-12.109-16.734-16.21-.15-.091-.295-.191-.393-.347q18.582 6.57 27.5 24.346m26.701 12.435c-4.408 12.59-12.432 21.897-24.191 27.939.111-.147.212-.302.334-.438a53.6 53.6 0 0 0 6.638-9.243c.173-.303.422-.602.707-.79 6.706-4.455 12.103-10.166 16.176-17.156.057-.096.123-.187.188-.279.008-.011.034-.008.148-.033m-67.905-9.605c-1.403 1.815-2.856 3.603-4.203 5.468-.95 1.316-1.743 2.748-2.64 4.106-.265.401-.593.805-.984 1.068C36.286 69.07 31 74.639 26.99 81.44c-.11.187-.235.365-.425.66 3.462-11.32 12.502-22.465 24.067-28.057m-16.904-7.086c11.836-5.82 24.008-6.623 36.502-2.545-3.611.199-7.183.686-10.676 1.624-1.19.319-2.298.315-3.492.09-7.367-1.384-14.689-1.138-21.95.763-.124.033-.256.046-.384.068m9.864 27.78c.277 2.317.51 4.682.863 7.028.228 1.521.598 3.024.97 4.518.165.658.188 1.27.053 1.932-.951 4.676-1.325 9.405-.851 14.154.314 3.15.907 6.272 1.312 8.982-1.397-2.293-4.233-9.858-4.724-17.815-.398-6.444.37-12.723 2.377-18.8m55.321-40.963c5.719 12.189 6.52 24.528 2.551 37.175-.331-2.568-.636-5.147-1.006-7.717-.154-1.073-.361-2.155-.695-3.183-.366-1.128-.297-2.2-.079-3.333 1.031-5.368 1.204-10.77.419-16.184-.318-2.193-.765-4.368-1.19-6.758m-24.192 67.469c4.12-.153 8.146-.889 12.136-1.913.522-.135 1.144.06 1.708.17 7.551 1.472 15.045 1.201 22.486-.736a.73.73 0 0 1 .388-.021c-11.9 5.801-24.14 6.608-36.718 2.501z"/></g><defs><clipPath id="a"><path fill="#fff" d="M0 0h145v146H0z"/></clipPath></defs></svg>