<svg xmlns="http://www.w3.org/2000/svg" width="110" height="112" fill="none" viewBox="0 0 110 112"><g clip-path="url(#a)"><path fill="#265597" d="M88.381 46.854c-1.525-7.944-5.688-15.098-11.776-20.238-6.088-5.141-13.725-7.95-21.605-7.949-13.125 0-24.525 7.653-30.202 18.853-6.675.741-12.848 3.991-17.333 9.125S.499 58.435.5 65.334c0 15.446 12.217 28 27.25 28h59.042C99.327 93.334 109.5 82.88 109.5 70c0-12.32-9.31-22.306-21.119-23.146M86.791 84H27.75C17.713 84 9.583 75.647 9.583 65.334c0-9.567 6.95-17.547 16.169-18.527l4.86-.513 2.27-4.434c2.09-4.177 5.26-7.681 9.162-10.127A24.35 24.35 0 0 1 55 28c11.9 0 22.163 8.68 24.48 20.674l1.362 7 6.949.513c3.414.236 6.614 1.792 8.957 4.355s3.653 5.942 3.669 9.458c0 7.7-6.132 14-13.625 14M36.834 60.667h11.582v14h13.17v-14h11.582L55 42z"/></g><defs><clipPath id="a"><path fill="#fff" d="M.5 0h109v112H.5z"/></clipPath></defs></svg>