<svg xmlns="http://www.w3.org/2000/svg" width="1277" height="562" fill="none" viewBox="0 0 1277 562"><g opacity=".7"><path fill="url(#a)" d="M2.155 561.394a2.155 2.155 0 0 0 2.155-2.155v-72.141a29.3 29.3 0 0 1 29.263-29.263H533.78a33.607 33.607 0 0 0 33.573-33.569v-95.024h-4.31v95.021a29.295 29.295 0 0 1-29.262 29.26H33.573A33.61 33.61 0 0 0 0 487.1v72.141a2.157 2.157 0 0 0 2.155 2.153"/><path fill="url(#b)" d="M217.784 561.394a2.157 2.157 0 0 0 2.155-2.155v-72.141a29.3 29.3 0 0 1 29.263-29.263h238.633a33.614 33.614 0 0 0 33.575-33.569v-95.024h-4.31v95.021a29.3 29.3 0 0 1-29.265 29.26H249.202a33.61 33.61 0 0 0-33.573 33.577v72.141a2.155 2.155 0 0 0 2.155 2.153"/><path fill="url(#c)" d="M430.755 561.399a2.154 2.154 0 0 0 2.155-2.155v-46.287a29.3 29.3 0 0 1 29.263-29.263h97.482a54.62 54.62 0 0 0 54.56-54.56v-70.439h-4.306v70.439a50.297 50.297 0 0 1-50.25 50.25h-97.486a33.61 33.61 0 0 0-33.573 33.573v46.287a2.155 2.155 0 0 0 2.155 2.155"/><path fill="url(#d)" d="M1274.06 561.395c-.57 0-1.12-.227-1.52-.631a2.14 2.14 0 0 1-.64-1.524v-72.142a29.28 29.28 0 0 0-8.58-20.681 29.28 29.28 0 0 0-20.68-8.582H742.434a33.606 33.606 0 0 1-33.573-33.569v-95.024h4.31v95.021a29.295 29.295 0 0 0 29.262 29.26h500.207c8.9.01 17.44 3.55 23.73 9.844a33.62 33.62 0 0 1 9.84 23.729v72.146c0 .571-.22 1.119-.63 1.523-.4.403-.95.63-1.52.63"/><path fill="url(#e)" d="M1058.43 561.395c-.57 0-1.12-.227-1.52-.631a2.13 2.13 0 0 1-.63-1.524v-72.142a29.3 29.3 0 0 0-8.59-20.683 29.27 29.27 0 0 0-20.68-8.58H788.383a33.61 33.61 0 0 1-33.574-33.569v-95.024h4.31v95.021a29.297 29.297 0 0 0 29.264 29.26h238.627c8.91.01 17.44 3.551 23.73 9.845a33.6 33.6 0 0 1 9.85 23.728v72.146a2.17 2.17 0 0 1-.63 1.523c-.41.403-.96.63-1.53.63"/><path fill="url(#f)" d="M845.46 561.399a2.155 2.155 0 0 1-2.155-2.155v-46.287a29.3 29.3 0 0 0-29.263-29.263H716.56a54.62 54.62 0 0 1-54.56-54.56v-70.439h4.31v70.439a50.3 50.3 0 0 0 50.25 50.25h97.482a33.61 33.61 0 0 1 33.573 33.573v46.287a2.155 2.155 0 0 1-2.155 2.155"/><path fill="url(#g)" d="M941.776 211.87a126.8 126.8 0 0 0-49.505 10.008c.354-3.324.533-6.665.538-10.008a94.52 94.52 0 0 0-47.798-82.297 94.504 94.504 0 0 0-95.165 1.015A146.264 146.264 0 0 0 604.447 0c-78.655 0-142.624 62.133-145.95 139.967a169 169 0 0 0-143.677 8.881 168.986 168.986 0 0 0-48.966 255.838 168.98 168.98 0 0 0 130.243 61.308h545.679a127.06 127.06 0 0 0 89.844-37.216 127.06 127.06 0 0 0 37.22-89.846c0-33.699-13.39-66.018-37.22-89.846a127.06 127.06 0 0 0-89.844-37.216" opacity=".45"/></g><defs><linearGradient id="a" x1="283.677" x2="283.677" y1="329.242" y2="561.394" gradientUnits="userSpaceOnUse"><stop stop-color="#fff"/><stop offset=".543" stop-color="#deeaf6"/><stop offset="1" stop-color="#fff"/></linearGradient><linearGradient id="b" x1="368.519" x2="368.519" y1="329.242" y2="561.394" gradientUnits="userSpaceOnUse"><stop stop-color="#fff"/><stop offset=".543" stop-color="#deeaf6"/><stop offset="1" stop-color="#fff"/></linearGradient><linearGradient id="c" x1="521.407" x2="521.407" y1="358.695" y2="561.399" gradientUnits="userSpaceOnUse"><stop stop-color="#fff"/><stop offset=".543" stop-color="#deeaf6"/><stop offset="1" stop-color="#fff"/></linearGradient><linearGradient id="d" x1="992.538" x2="992.538" y1="329.242" y2="561.395" gradientUnits="userSpaceOnUse"><stop stop-color="#fff"/><stop offset=".543" stop-color="#deeaf6"/><stop offset="1" stop-color="#fff"/></linearGradient><linearGradient id="e" x1="907.698" x2="907.698" y1="329.242" y2="561.395" gradientUnits="userSpaceOnUse"><stop stop-color="#fff"/><stop offset=".543" stop-color="#deeaf6"/><stop offset="1" stop-color="#fff"/></linearGradient><linearGradient id="f" x1="754.807" x2="754.807" y1="358.695" y2="561.399" gradientUnits="userSpaceOnUse"><stop stop-color="#fff"/><stop offset=".543" stop-color="#deeaf6"/><stop offset="1" stop-color="#fff"/></linearGradient><linearGradient id="g" x1="647.972" x2="647.972" y1="0" y2="465.994" gradientUnits="userSpaceOnUse"><stop stop-color="#c5cff2"/><stop offset="1" stop-color="#fff" stop-opacity="0"/></linearGradient></defs></svg>