<svg xmlns="http://www.w3.org/2000/svg" width="110" height="112" fill="none" viewBox="0 0 110 112"><path fill="#265597" d="M42.957 2.198c1.448-.39 2.83-.748 4.206-1.133C49.916.295 52.727-.02 55.57.001c6.393.047 12.407 1.644 17.905 5.022 9.427 5.793 15.204 14.293 17.383 25.395.313 1.596.035 3.161-.218 4.719-1.248 7.68-4.587 14.248-9.95 19.722-.216.22-.44.433-.66.647-.024.023-.057.035-.15.088.217-.77.424-1.486.622-2.206a41.3 41.3 0 0 0 1.421-9.416c.208-5.628-.642-11.077-2.684-16.295a18.4 18.4 0 0 0-2.209-4.032c-2.106-2.916-4.181-5.884-6.56-8.555C64.577 8.473 57.22 4.483 48.655 2.909c-1.846-.34-3.728-.471-5.698-.711M72.535 38.14c-6.249-11.993-15.658-19.544-28.66-21.992C30.878 13.7 19.521 17.365 9.599 26.273c.463-.858.894-1.736 1.395-2.57C16.519 14.5 24.384 8.61 34.678 6.515c10.356-2.106 19.99.013 28.71 6.21.849.605 1.52 1.526 2.16 2.39 3.615 4.888 5.889 10.38 6.672 16.482.258 2.011.254 4.059.365 6.09.007.13-.028.263-.05.453M54.31 30.73c-12.364-3.87-24.157-2.549-34.91 5.132C8.656 43.537 3.268 54.424 2.458 67.899c-.103-.324-.188-.584-.27-.847-.087-.28-.179-.562-.256-.846C.945 62.56.394 58.842.54 55.06c.366-9.574 3.682-17.905 10.139-24.835 4.711-5.055 10.39-8.444 16.977-10.189 1.06-.281 2.137-.573 3.22-.662.964-.08 1.957.055 2.922.199 6.901 1.03 12.977 3.923 18.188 8.709.84.771 1.58 1.657 2.325 2.447M83.858 9.954c3.958 1.991 7.4 4.649 10.379 7.94 4.904 5.42 8.012 11.79 9.165 19.1 1.587 10.071-.414 19.365-6.122 27.723-.744 1.089-1.901 1.918-2.97 2.722-4.847 3.646-10.276 5.812-16.233 6.511-1.799.212-3.62.222-5.43.263 11.466-6.4 18.919-15.958 21.254-29.255 2.335-13.288-1.36-24.92-10.043-35.004m-46.764 28.35c-11.432 6.336-18.879 15.869-21.21 29.154-2.328 13.255 1.328 24.876 9.94 34.907l-.085.129c-1.542-.985-3.142-1.888-4.616-2.97-7.4-5.43-12.277-12.697-14.293-21.835-2.405-10.905-.447-21.012 5.78-30.2.209-.31.486-.58.768-.825 5.269-4.574 11.324-7.315 18.157-8.163 1.837-.228 3.699-.238 5.55-.348zm28.992 71.514c-1.013.292-2.021.607-3.042.872-3.263.848-6.591 1.23-9.941 1.021-12.407-.776-22.068-6.542-28.915-17.243-2.656-4.151-4.321-8.743-5.067-13.653-.173-1.139.005-2.362.167-3.525.884-6.346 3.258-12.048 7.142-17.053 1.041-1.342 2.25-2.548 3.383-3.814.077-.085.175-.149.284-.24-3.783 12.866-2.494 25.033 4.957 36.126 7.451 11.094 18.008 16.657 31.032 17.509m-28.69-35.805c6.177 11.86 15.427 19.515 28.278 21.92 12.856 2.405 24.122-1.387 33.903-10.264-.452.843-.874 1.705-1.36 2.526-5.183 8.734-12.542 14.531-22.192 16.953-10.593 2.659-20.459.712-29.467-5.668-.424-.3-.81-.687-1.142-1.096-4.065-5.02-6.617-10.755-7.632-17.218a37.4 37.4 0 0 1-.423-6.817c.002-.086.017-.172.035-.336m70.317-30.091c.43 1.945.928 3.877 1.277 5.837.568 3.187.619 6.414.312 9.632-.492 5.158-1.953 10.02-4.449 14.529-4.092 7.392-9.94 12.76-17.534 16.094-2.541 1.116-5.176 1.944-7.91 2.318-1.08.148-2.223-.018-3.318-.18-5.35-.79-10.257-2.779-14.707-5.951a34.7 34.7 0 0 1-5.519-4.9c-.087-.097-.163-.204-.245-.307 12.447 3.897 24.238 2.581 34.992-5.096 10.744-7.669 16.14-18.55 16.944-31.927zM40.405 72.404a42.7 42.7 0 0 0 7.487 5.61c.165.098.303.275.41.443 3.3 5.187 7.531 9.362 12.713 12.509a.66.66 0 0 1 .241.221c-9.391-3.372-16.336-9.645-20.851-18.783m29.13-33.117c-.744-.645-1.45-1.344-2.24-1.924-1.633-1.201-3.312-2.336-4.967-3.506-.217-.154-.449-.325-.59-.545-3.27-5.139-7.457-9.289-12.577-12.435a.85.85 0 0 1-.295-.266q13.966 5.04 20.669 18.676m20.07 9.54C86.29 58.484 80.26 65.624 71.42 70.259c.084-.112.16-.231.252-.336a41 41 0 0 0 4.989-7.09c.13-.232.317-.462.532-.607 5.04-3.417 9.096-7.798 12.157-13.16.043-.074.093-.144.142-.214.006-.008.025-.006.111-.025m-51.04-7.369c-1.054 1.392-2.146 2.764-3.158 4.195-.715 1.009-1.31 2.108-1.984 3.15-.2.307-.447.617-.74.818a39.14 39.14 0 0 0-11.886 12.854c-.083.144-.177.28-.32.505 2.602-8.683 9.396-17.232 18.089-21.522M25.86 36.023c8.896-4.465 18.044-5.081 27.435-1.953-2.714.153-5.398.527-8.024 1.246-.894.245-1.727.242-2.624.069-5.537-1.061-11.04-.873-16.498.586-.094.025-.192.035-.289.052m7.414 21.31c.209 1.778.383 3.592.649 5.392.17 1.166.45 2.32.73 3.465.122.505.14.975.039 1.482-.715 3.587-.996 7.215-.64 10.859.236 2.416.682 4.81.986 6.89-1.05-1.76-3.182-7.562-3.55-13.667-.3-4.943.277-9.76 1.786-14.42m41.58-31.423c4.298 9.35 4.9 18.816 1.917 28.518-.248-1.97-.478-3.949-.756-5.92-.116-.824-.271-1.654-.522-2.443-.275-.865-.223-1.687-.06-2.556.775-4.118.905-8.261.316-12.415-.24-1.683-.576-3.351-.895-5.184M56.671 77.667c3.097-.118 6.123-.683 9.122-1.468.392-.103.86.046 1.284.13 5.675 1.13 11.308.922 16.9-.564a.54.54 0 0 1 .292-.016c-8.944 4.45-18.144 5.069-27.598 1.919"/></svg>