<svg xmlns="http://www.w3.org/2000/svg" width="1440" height="627" fill="none" viewBox="0 0 1440 627"><mask id="a" width="1440" height="627" x="0" y="0" maskUnits="userSpaceOnUse" style="mask-type:alpha"><path fill="#092346" d="M1440 0H0v627h1440z"/></mask><g mask="url(#a)"><mask id="b" width="1788" height="824" x="-189" y="86" maskUnits="userSpaceOnUse" style="mask-type:luminance"><path fill="#fff" d="M1599 86H-189v824h1788z"/></mask><g mask="url(#b)"><mask id="c" width="1480" height="824" x="-40" y="86" maskUnits="userSpaceOnUse" style="mask-type:luminance"><path fill="#fff" d="M1440 86H-40v824h1480z"/></mask><g mask="url(#c)"><path fill="url(#d)" d="M199.718 698.356s.801-476.879-.666-483.002c-1.466-6.123-5.876-3.268-5.876-3.268-1.66 10.023-13.459 4.56-23.322 5.932l-67.176 39.269-29.313 10.579-93.577-48.272 2.16-1.249c-7.999-3.735-12.578-1.209-16.906-8.997l-6.298 3.753-3.744 1.054.943 484.54c0 4.162 2.744 8.322 8.232 11.486l89.603 51.715 4.145 2.392c10.977 6.333 28.839 6.333 39.816 0l93.748-54.107c5.397-3.114 8.142-7.194 8.227-11.284.005-.181-.003-.362-.01-.549z"/><path fill="url(#e)" d="m194.598 208.24-92.722-53.599a52.9 52.9 0 0 0-26.678-7.1 52.9 52.9 0 0 0-26.62 7.318l-88.87 52.342a9.56 9.56 0 0 0-3.452 3.504 9.58 9.58 0 0 0 3.485 13.007L54.36 278.93a43.7 43.7 0 0 0 22.027 5.958c7.739 0 15.339-2.056 22.026-5.958l96.214-56.152a8.412 8.412 0 0 0-.029-14.538"/><path fill="url(#f)" d="M373.714 739.616s.726-437.868-.605-443.491c-1.332-5.624-5.327-3.001-5.327-3.001-1.505 9.203-12.201 4.187-21.142 5.447l-60.899 36.057-26.571 9.715-84.832-44.324 1.958-1.146c-7.251-3.429-11.404-1.109-15.326-8.262l-5.709 3.449-3.394.968.855 444.902c0 3.821 2.487 7.641 7.463 10.549l81.23 47.484 3.757 2.195c9.951 5.815 26.144 5.815 36.095 0l84.988-49.681c4.893-2.86 7.381-6.604 7.459-10.36a8 8 0 0 0-.01-.502z"/><path fill="url(#g)" d="m370.093 291.446-84.453-48.24a48.6 48.6 0 0 0-24.298-6.389 48.6 48.6 0 0 0-24.246 6.585l-80.94 47.108a8.64 8.64 0 0 0-3.145 3.154 8.54 8.54 0 0 0 .017 8.565 8.66 8.66 0 0 0 3.158 3.141l86.183 49.695a40.17 40.17 0 0 0 20.063 5.364 40.2 40.2 0 0 0 20.064-5.364l87.624-50.535a7.6 7.6 0 0 0 2.78-2.773 7.5 7.5 0 0 0-.015-7.55 7.6 7.6 0 0 0-2.792-2.761"/><path fill="url(#h)" d="M191.692 781.586s.651-394.096-.543-399.157c-1.194-5.062-4.776-2.701-4.776-2.701-1.349 8.283-10.94 3.769-18.957 4.903l-54.605 32.452-23.825 8.744-76.064-39.893 1.756-1.031c-6.502-3.087-10.226-.998-13.743-7.436l-5.119 3.104-3.043.871.767 400.427c0 3.439 2.23 6.877 6.691 9.494L73.066 834.1l3.37 1.976c8.922 5.233 23.44 5.233 32.364 0l76.204-44.715c4.387-2.574 6.618-5.944 6.688-9.324a8 8 0 0 0-.009-.452z"/><path fill="url(#i)" d="m188.445 377.587-75.724-44.06a42.96 42.96 0 0 0-21.787-5.835 43 43 0 0 0-21.74 6.014L-3.38 376.733a7.8 7.8 0 0 0-2.82 2.88 7.92 7.92 0 0 0 .015 7.823 7.83 7.83 0 0 0 2.831 2.869l77.276 45.39a35.5 35.5 0 0 0 17.99 4.898c6.321 0 12.529-1.69 17.99-4.898l78.568-46.157a6.9 6.9 0 0 0 2.493-2.533 6.96 6.96 0 0 0-.014-6.895 6.87 6.87 0 0 0-2.503-2.523"/><path fill="url(#j)" d="M1216.46 658.008s-.78-467.618.66-473.622c1.43-6.004 5.76-3.205 5.76-3.205 1.62 9.829 13.19 4.472 22.86 5.817l65.85 38.507 28.74 10.373 91.73-47.335-2.12-1.224c7.84-3.662 12.33-1.185 16.58-8.823l6.17 3.681 3.67 1.033-.92 475.13c0 4.081-2.69 8.16-8.07 11.262l-87.84 50.711-4.07 2.346c-10.76 6.21-28.27 6.21-39.03 0l-91.9-53.057c-5.29-3.053-7.98-7.053-8.06-11.064-.01-.178 0-.355.01-.539z"/><path fill="url(#k)" d="m1221.79 177.844 90.77-52.428a51.789 51.789 0 0 1 52.18.212l87.01 51.2a9.3 9.3 0 0 1 3.38 3.427 9.4 9.4 0 0 1 1.23 4.657c0 1.633-.43 3.237-1.25 4.652a9.3 9.3 0 0 1-3.39 3.413l-92.64 54.012a42.8 42.8 0 0 1-21.56 5.828c-7.58 0-15.02-2.011-21.57-5.828l-94.19-54.925a8.1 8.1 0 0 1-2.99-3.013 8.2 8.2 0 0 1-1.09-4.105 8.2 8.2 0 0 1 4.11-7.102"/><path fill="url(#l)" d="M1076.2 749.175s-.73-437.826.61-443.449c1.33-5.623 5.34-3.001 5.34-3.001 1.51 9.202 12.24 4.187 21.21 5.447l61.09 36.053 26.66 9.714 85.1-44.319-1.96-1.146c7.27-3.429 11.44-1.109 15.37-8.261l5.73 3.449 3.4.967-.85 444.861c0 3.82-2.5 7.639-7.49 10.547l-81.49 47.48-3.77 2.195c-9.98 5.814-26.22 5.814-36.21 0l-85.26-49.677c-4.9-2.859-7.4-6.603-7.48-10.359 0-.168 0-.336.01-.502z"/><path fill="url(#m)" d="m1079.83 300.688 84.73-48.293a48.83 48.83 0 0 1 24.37-6.397c8.56.035 16.95 2.31 24.32 6.593l81.2 47.161c1.31.762 2.4 1.85 3.16 3.157a8.5 8.5 0 0 1 1.14 4.289c0 1.504-.4 2.982-1.16 4.285a8.64 8.64 0 0 1-3.17 3.145l-86.46 49.751a40.33 40.33 0 0 1-20.12 5.37 40.37 40.37 0 0 1-20.13-5.37l-87.9-50.592a7.63 7.63 0 0 1-2.79-2.776 7.5 7.5 0 0 1-1.02-3.781 7.6 7.6 0 0 1 1.03-3.777 7.7 7.7 0 0 1 2.8-2.765"/><path fill="url(#n)" d="M1262.39 782.844s-.64-385.608.53-390.561c1.18-4.952 4.7-2.643 4.7-2.643 1.32 8.105 10.75 3.688 18.63 4.797l53.65 31.754 23.41 8.555 74.75-39.033-1.72-1.009c6.38-3.021 10.04-.977 13.5-7.276l5.03 3.037 2.99.852-.75 391.804c0 3.365-2.2 6.729-6.58 9.289l-71.57 41.818-3.31 1.933c-8.77 5.12-23.04 5.12-31.8 0l-74.89-43.752c-4.31-2.518-6.5-5.816-6.57-9.124 0-.148 0-.296.01-.442z"/><path fill="url(#o)" d="m1265.58 387.547 74.41-42.774a42.63 42.63 0 0 1 42.77.174l71.32 41.771a7.64 7.64 0 0 1 3.78 6.595c0 1.333-.36 2.641-1.02 3.796a7.66 7.66 0 0 1-2.79 2.785l-75.93 44.065a35.24 35.24 0 0 1-35.36 0l-77.2-44.81a6.65 6.65 0 0 1-2.45-2.459 6.6 6.6 0 0 1-.89-3.349c0-1.174.31-2.328.9-3.345a6.7 6.7 0 0 1 2.46-2.449"/></g></g></g><defs><linearGradient id="d" x1="-45" x2="361.75" y1="69.425" y2="279.869" gradientUnits="userSpaceOnUse"><stop stop-color="#3f4c7c"/><stop offset="1" stop-color="#353f64" stop-opacity="0"/></linearGradient><linearGradient id="e" x1="-21.596" x2="123.332" y1="136.004" y2="349.184" gradientUnits="userSpaceOnUse"><stop stop-color="#333c5e"/><stop offset="1" stop-color="#4d5a8a"/></linearGradient><linearGradient id="f" x1="151.867" x2="522.578" y1="162.134" y2="351.497" gradientUnits="userSpaceOnUse"><stop stop-color="#3f4c7c"/><stop offset="1" stop-color="#232d55"/></linearGradient><linearGradient id="g" x1="173.183" x2="303.039" y1="226.433" y2="419.735" gradientUnits="userSpaceOnUse"><stop stop-color="#485894"/><stop offset="1" stop-color="#333c5e"/></linearGradient><linearGradient id="h" x1="-7.227" x2="325.688" y1="261.833" y2="431.249" gradientUnits="userSpaceOnUse"><stop stop-color="#3f4c7c"/><stop offset="1" stop-color="#232d55"/></linearGradient><linearGradient id="i" x1="11.887" x2="131.304" y1="318.208" y2="492.72" gradientUnits="userSpaceOnUse"><stop stop-color="#485894"/><stop offset="1" stop-color="#333c5e"/></linearGradient><linearGradient id="j" x1="1456.36" x2="1057.58" y1="41.291" y2="247.552" gradientUnits="userSpaceOnUse"><stop stop-color="#3f4c7c"/><stop offset="1" stop-color="#353f64" stop-opacity="0"/></linearGradient><linearGradient id="k" x1="1433.45" x2="1291.73" y1="107.186" y2="315.827" gradientUnits="userSpaceOnUse"><stop stop-color="#333c5e"/><stop offset="1" stop-color="#4d5a8a"/></linearGradient><linearGradient id="l" x1="1298.75" x2="927.368" y1="171.748" y2="362.076" gradientUnits="userSpaceOnUse"><stop stop-color="#3f4c7c"/><stop offset="1" stop-color="#232d55"/></linearGradient><linearGradient id="m" x1="1277.37" x2="1147.47" y1="235.603" y2="429.369" gradientUnits="userSpaceOnUse"><stop stop-color="#485894"/><stop offset="1" stop-color="#333c5e"/></linearGradient><linearGradient id="n" x1="1457.86" x2="1131.29" y1="274.284" y2="441.182" gradientUnits="userSpaceOnUse"><stop stop-color="#3f4c7c"/><stop offset="1" stop-color="#232d55"/></linearGradient><linearGradient id="o" x1="1439.08" x2="1323.66" y1="329.9" y2="500.625" gradientUnits="userSpaceOnUse"><stop stop-color="#485894"/><stop offset="1" stop-color="#333c5e"/></linearGradient></defs></svg>