<svg xmlns="http://www.w3.org/2000/svg" width="121" height="125" fill="none" viewBox="0 0 121 125"><g clip-path="url(#a)"><g clip-path="url(#b)"><path fill="#fff" d="M24.107 49.152a9.44 9.44 0 0 0-4.279 7.414l-.006 56.555c.006 2.728 1.92 3.833 4.291 2.467l75.507-43.6a9.47 9.47 0 0 0 4.287-7.421V8.022c0-2.735-1.92-3.836-4.284-2.471z"/><path fill="#005bea" d="M22.195 117a3 3 0 0 1-1.525-.4 3.79 3.79 0 0 1-1.671-3.48l.006-56.556a10.2 10.2 0 0 1 4.69-8.13l75.512-43.6a3.415 3.415 0 0 1 5.522 3.187v56.544a10.23 10.23 0 0 1-4.7 8.135l-75.506 43.6a4.7 4.7 0 0 1-2.328.7M101.537 5.794a3.1 3.1 0 0 0-1.5.474l-75.512 43.6a8.66 8.66 0 0 0-3.866 6.7l-.006 56.556a1.818 1.818 0 0 0 3.054 1.752l75.506-43.6a8.7 8.7 0 0 0 3.875-6.707V8.024a2.28 2.28 0 0 0-.839-2.057 1.4 1.4 0 0 0-.712-.174"/><path fill="#005bea" d="m84.962 60.982 2.815-2.13-.914-2.118a46 46 0 0 0-1.9 4.248m-.957-10.888L78.49 37.258l-40.382 17.9L49.295 87.98l21.535-16.3c-1.372-1.877-1.872-4.532-.286-6.513 1.772-2.223 4.444-1.423 6.144.487 1.644-3.938 6.26-13.416 7.317-15.56"/><path fill="#fff" d="M77.232 48.5a5.24 5.24 0 0 0 3.058-4.645c0-1.941-1.372-2.986-3.058-2.354a5.24 5.24 0 0 0-3.058 4.646c0 1.924 1.372 2.985 3.058 2.354m-2.5 2.446 5-1.874v15.856l-5 1.873zm-2.473 5.551c.043 0 .07-.026.07-.078V52.4a.12.12 0 0 0-.07-.113s-.658-.273-2.658.337q-1.203.333-2.33.874c-7.287 3.44-7.558 9.936-7.558 10.214v1.56c0 .19 0 6.724 7.559 4.462.743-.209 2.186-.819 2.329-.872 1.073-.41 2.069-1 2.944-1.744a.2.2 0 0 0 .07-.15v-3.76c0-.051-.028-.058-.056-.014a9 9 0 0 1-2.916 1.907 4.2 4.2 0 0 1-1.243.466c-3.372.57-3.53-2.35-3.53-2.35 0-.053-.013-.134-.013-.169v-1.144a.7.7 0 0 1 .014-.179A6.25 6.25 0 0 1 68.4 56.85l1.243-.466a5.15 5.15 0 0 1 2.616.114m-26.437 21.08c0 .052.03.076.071.06l4.873-1.825a.12.12 0 0 0 .071-.114V71.09a.12.12 0 0 1 .071-.113S58.7 68.734 58.7 62.41c0-5.008-4.887-3.714-6.487-3.028l-6.316 2.367a.12.12 0 0 0-.07.113zm4.93-10.06v-4.143l1.2-.45s1.73-.56 1.872.823a4.3 4.3 0 0 1 0 .85 3.16 3.16 0 0 1-1.729 2.415z"/><path fill="#005bea" d="M77.374 73.46c.461-.148.882-.4 1.23-.738 1.771-1.79 7.758-21.76 14.074-29.586a.8.8 0 0 0 .115-.182q.038-.072.043-.155s0-.364-.929-.016c-5.615 1.914-11.46 18.4-14.532 25.2-.042.087-.243.092-.243.092s-2.057-2.175-3.844-2.632a1 1 0 0 0-.457.085 3.9 3.9 0 0 0-1.357 1.2 2.7 2.7 0 0 0-.443 1.794q.01.2.086.384a20.7 20.7 0 0 0 4.072 4.573c.242.138.628.565 2.185-.019"/></g></g><defs><clipPath id="a"><path fill="#fff" d="M0 0h121v125H0z"/></clipPath><clipPath id="b"><path fill="#fff" d="M19-8h86v125H19z"/></clipPath></defs></svg>