<svg xmlns="http://www.w3.org/2000/svg" width="59" height="85" fill="none" viewBox="0 0 59 85"><g clip-path="url(#a)"><path fill="#fff" d="m50.828.65 6.842 3.949a.96.96 0 0 1 .406.884v34.7c0 16.1-23.77 42.282-24.786 43.392a2.4 2.4 0 0 1-.546.45c-.163.1-.35.162-.542.177-.658.04-10.925.585-18.037-3.455v.005l-6.929-4a12.34 12.34 0 0 1-6.67-11.27V30.776a3.16 3.16 0 0 1 1.422-2.356c9.49-5.475 18.336-13.229 23.094-20.238.481-.708 1.152-1.09 1.637-.942 4.75 1.512 13.593-.945 23.158-6.469a.89.89 0 0 1 .955-.121z"/><path fill="#1b69ff" d="M1.985 28.42c9.49-5.475 18.336-13.229 23.094-20.238.481-.708 1.152-1.09 1.637-.942 4.75 1.512 13.593-.945 23.158-6.469a.89.89 0 0 1 .955-.12L57.67 4.6a.89.89 0 0 0-.946.125c-9.57 5.524-18.408 7.981-23.16 6.468-.485-.152-1.158.237-1.637.943-4.756 7.008-13.6 14.762-23.094 20.24a3.14 3.14 0 0 0-1.42 2.355v34.705a12.35 12.35 0 0 0 6.76 11.32h-.009l-6.928-4a12.34 12.34 0 0 1-6.67-11.27v-34.71a3.16 3.16 0 0 1 1.42-2.357"/><path fill="#005bea" d="M30.428 84.816c1.046 0 1.704-.037 1.81-.045.283-.02.557-.108.8-.256q.377-.225.672-.549c1.022-1.117 24.94-27.455 24.938-43.779v-34.7a1.51 1.51 0 0 0-.688-1.374L51.118.162l-.034-.018a1.44 1.44 0 0 0-1.515.161c-9.365 5.407-18.066 7.865-22.674 6.4a2.2 2.2 0 0 0-2.276 1.163c-4.715 6.945-13.494 14.633-22.91 20.066a3.7 3.7 0 0 0-1.7 2.843v34.711a12.84 12.84 0 0 0 6.913 11.737l.04.025 6.928 4a1 1 0 0 0 .085.04c5.567 3.132 13.047 3.526 16.452 3.526M50.575 1.157l6.813 3.934c.062.036.125.172.124.393V40.19c0 15.889-23.632 41.911-24.64 43.011a1.9 1.9 0 0 1-.413.341.7.7 0 0 1-.293.1c-.434.027-10.72.6-17.724-3.381a1 1 0 0 0-.076-.036L7.552 76.29l-.04-.026a11.79 11.79 0 0 1-6.387-10.78V30.778a2.62 2.62 0 0 1 1.141-1.868C11.82 23.398 20.74 15.578 25.543 8.502c.373-.549.829-.773 1-.721 4.9 1.559 13.944-.939 23.61-6.519.2-.134.337-.153.383-.124z"/><path fill="#fff" d="m32.746 53.473 7.533-13.037-2.078-1.2-5.455 9.445-6.97-4.013a19.36 19.36 0 0 1 6.97-7.678c5.124-2.957 9.276-.565 9.276 5.341S37.87 55.424 32.746 58.38s-9.275.57-9.277-5.34a16 16 0 0 1 .707-4.5z"/><path fill="#1b69ff" d="M32.746 53.47 44.898 30.73l-2.078-1.2-10.075 19.146-8.193-4.72-2.08 3.593z"/></g><defs><clipPath id="a"><path fill="#fff" d="M0 0h58.648v84.817H0z"/></clipPath></defs></svg>