<svg xmlns="http://www.w3.org/2000/svg" width="73" height="99" fill="none" viewBox="0 0 73 99"><g fill-rule="evenodd" clip-path="url(#a)" clip-rule="evenodd"><path fill="#1b69ff" d="M33.062 20.823C17.943 29.846 5.863 49.558 4.366 67.693c-.218 2.585-.664 7.963 1.436 10.012a51 51 0 0 0 4.94 3.027 8.2 8.2 0 0 1-.664-2.799c-1.225-14.995 7.101-32.159 15.886-42.521 7.432-8.768 18.918-17.138 29.29-15.386l-2.148-1.248c-5.443-3.101-12.196-2.413-20.045 2.045M13 83.128a.6.6 0 0 1-.26-.066 65 65 0 0 0-1.194-.687 61 61 0 0 1-6.45-3.924c-2.466-2.396-2.002-7.888-1.759-10.844 1.541-18.448 13.808-38.498 29.2-47.673v-.008c8.191-4.647 15.293-5.335 21.065-2.041l6.798 3.96a.5.5 0 0 1 .254.51.5.5 0 0 1-.067.19.51.51 0 0 1-.691.197c-10.96-6.098-24.711 3.376-33.163 13.34C18.08 46.278 9.888 63.148 11.095 77.85c.174 2.128.838 3.464 2.175 4.327a.515.515 0 0 1 .216.578.52.52 0 0 1-.49.372z"/><path fill="#f1f4fb" d="M39.586 24.33c8.034-4.672 15.306-5.11 20.565-2.04 5.27 3.07 8.525 9.648 8.525 19.008 0 .915-.044 1.9-.105 2.846a18.4 18.4 0 0 1-2.709 8.007 16.9 16.9 0 0 1-5.698 5.925l-9.116 5.307a36 36 0 0 1-4.48 6.959 26.6 26.6 0 0 1-6.997 6.158 12.8 12.8 0 0 1-6.997 1.993 7.2 7.2 0 0 1-4.467-1.757l-9.115 5.306c-2.197 1.275-4.205 1.467-5.716.727s-2.505-2.422-2.691-4.87a43 43 0 0 1-.105-2.733c.018-9.359 3.273-19.73 8.542-28.928 5.259-9.21 12.542-17.234 20.564-21.907"/><path fill="#1b69ff" d="M52.558 20.833c-3.885 0-8.209 1.326-12.717 3.945-7.692 4.477-14.932 12.19-20.392 21.715C14.006 56.014 11 66.197 11 75.163c0 .854.03 1.783.1 2.693.16 2.18 1.006 3.762 2.39 4.445 1.414.688 3.27.438 5.24-.713l9.116-5.306a.51.51 0 0 1 .595.057 6.68 6.68 0 0 0 4.16 1.633c2.373.013 4.7-.656 6.71-1.927a26.1 26.1 0 0 0 6.872-6.04 36 36 0 0 0 4.405-6.857.5.5 0 0 1 .2-.22l9.115-5.306a16.5 16.5 0 0 0 5.53-5.746 17.6 17.6 0 0 0 2.622-7.77c.074-.964.1-1.935.1-2.816 0-8.86-2.921-15.451-8.252-18.565a14.4 14.4 0 0 0-7.345-1.901zM15.22 83.71a4.85 4.85 0 0 1-2.174-.486c-1.727-.85-2.778-2.733-2.969-5.295-.07-.937-.1-1.893-.1-2.769 0-9.14 3.055-19.507 8.599-29.186 5.543-9.678 12.918-17.523 20.765-22.09 7.922-4.616 15.41-5.343 21.065-2.04s8.773 10.217 8.773 19.454c0 .907-.03 1.9-.105 2.882a19 19 0 0 1-2.76 8.237 17.6 17.6 0 0 1-5.908 6.105l-8.968 5.227a36.3 36.3 0 0 1-4.48 6.924 27.3 27.3 0 0 1-7.131 6.272 13.56 13.56 0 0 1-7.284 2.06 7.8 7.8 0 0 1-4.492-1.652l-8.812 5.129a8.1 8.1 0 0 1-4.02 1.228z"/><path fill="#fff" d="M56.525 28.64c-4.337-2.527-10.326-2.167-16.938 1.683s-12.6 10.454-16.932 18.03-7.014 16.11-7.014 23.818c0 .796.012 1.51.073 2.273-.008.38.083.755.264 1.088.182.333.447.612.77.808a2.39 2.39 0 0 0 2.248-.298L29.41 69.98v.013c.834-.485 1.654-.485 2.145.106.425.518.954.94 1.553 1.236a4.7 4.7 0 0 0 1.919.485 8.35 8.35 0 0 0 4.552-1.32 17.2 17.2 0 0 0 4.553-3.976 23.7 23.7 0 0 0 3.375-5.518 5.65 5.65 0 0 1 2.245-2.86l10.426-6.061a6.64 6.64 0 0 0 2.23-2.313 7.1 7.1 0 0 0 1.051-3.114c.06-.828.074-1.568.074-2.365.003-7.709-2.675-13.127-7.007-15.653"/><path fill="#1b69ff" d="M50.276 27.538c-3.183 0-6.742 1.085-10.427 3.232-6.32 3.679-12.27 10.016-16.746 17.843-4.475 7.826-6.958 16.19-6.958 23.558 0 .784.03 1.485.073 2.233a1.68 1.68 0 0 0 .764 1.472 1.9 1.9 0 0 0 1.754-.28l10.413-6.062q.05-.022.1-.04a2.065 2.065 0 0 1 2.708.277c.378.464.85.841 1.383 1.106a4.15 4.15 0 0 0 1.712.431 7.83 7.83 0 0 0 4.263-1.253 16.9 16.9 0 0 0 4.423-3.858 23.3 23.3 0 0 0 3.297-5.395A6.14 6.14 0 0 1 49.5 57.7l10.41-6.062a6.2 6.2 0 0 0 2.06-2.133c.542-.87.872-1.858.965-2.881.056-.815.087-1.547.087-2.33 0-7.267-2.392-12.662-6.75-15.207a11.7 11.7 0 0 0-5.99-1.55zm-32.777 49.48a2.2 2.2 0 0 1-.963-.214 2.6 2.6 0 0 1-.98-.976 2.6 2.6 0 0 1-.344-1.345 29 29 0 0 1-.087-2.313c0-7.546 2.518-16.095 7.084-24.077 4.58-7.98 10.657-14.453 17.137-18.216 6.55-3.815 12.745-4.414 17.436-1.677 4.684 2.733 7.258 8.448 7.258 16.096 0 .81-.026 1.563-.088 2.4a7.75 7.75 0 0 1-1.106 3.346 7.34 7.34 0 0 1-2.418 2.487l-10.426 6.066a5.16 5.16 0 0 0-2.032 2.592 24 24 0 0 1-3.453 5.668 17.8 17.8 0 0 1-4.684 4.094 8.93 8.93 0 0 1-4.835 1.389 5.2 5.2 0 0 1-2.117-.54 5.2 5.2 0 0 1-1.712-1.366c-.434-.529-1.198-.17-1.497.01-.031.013-.06.03-.088.039L19.26 76.49a3.55 3.55 0 0 1-1.76.529"/><path fill="#1b69ff" d="M38.594 64.62c-.55.007-1.082-.2-1.485-.577-.733-.713-.989-1.963-.69-3.434.504-2.506 2.418-4.875 4.35-5.396a2.13 2.13 0 0 1 2.1.521 3.69 3.69 0 0 1 .838 3.386c-.52 2.506-2.433 4.875-4.362 5.396a3 3 0 0 1-.751.104M58.19 48.045a.51.51 0 0 1-.493-.383.52.52 0 0 1 .238-.58l2.778-1.617a.504.504 0 0 1 .68.197.516.516 0 0 1-.176.693l-2.778 1.62a.5.5 0 0 1-.248.07M52.746 35.88a.5.5 0 0 1-.256-.069.505.505 0 0 1-.255-.51.5.5 0 0 1 .064-.19l1.975-3.439a.5.5 0 0 1 .31-.242.5.5 0 0 1 .538.186.515.515 0 0 1 .029.573l-1.971 3.434a.49.49 0 0 1-.434.258m-13.161 1.304a.5.5 0 0 1-.358-.15.5.5 0 0 1-.145-.362v-3.241c0-.136.053-.266.147-.363a.51.51 0 0 1 .877.363v3.24a.52.52 0 0 1-.323.477.5.5 0 0 1-.198.036M26.423 51.196a.6.6 0 0 1-.26-.07l-1.958-1.148a.51.51 0 0 1-.251-.51.5.5 0 0 1 .064-.19.5.5 0 0 1 .503-.255q.1.015.187.067l1.971 1.146a.505.505 0 0 1 .256.511.51.51 0 0 1-.255.378.5.5 0 0 1-.257.071m-8.237 20.12a.48.48 0 0 1-.43-.254.52.52 0 0 1 .186-.705l2.778-1.621a.504.504 0 0 1 .69.193.507.507 0 0 1-.186.7l-2.778 1.62a.6.6 0 0 1-.26.067"/><path fill="#1b69ff" d="M42.769 56.903a.5.5 0 0 1-.314-.114.516.516 0 0 1-.087-.727l14.918-18.63a.51.51 0 0 1 .548-.186.51.51 0 0 1 .369.45.52.52 0 0 1-.123.383L43.161 56.71a.5.5 0 0 1-.392.193"/></g><defs><clipPath id="a"><path fill="#fff" d="M0 0h73v99H0z"/></clipPath></defs></svg>