<svg xmlns="http://www.w3.org/2000/svg" width="206" height="83" fill="none" viewBox="0 0 206 83"><g clip-path="url(#a)"><mask id="b" width="206" height="51" x="0" y="16" maskUnits="userSpaceOnUse" style="mask-type:luminance"><path fill="#fff" d="M205.65 16.367H0V66.95h205.65z"/></mask><g mask="url(#b)"><mask id="c" width="206" height="51" x="0" y="16" maskUnits="userSpaceOnUse" style="mask-type:luminance"><path fill="#fff" d="M205.65 16.367H0V66.95h205.65z"/></mask><g mask="url(#c)"><path fill="#ff6d2d" d="M18.323 36.537a6.93 6.93 0 0 0-3.97 1.08 8.55 8.55 0 0 0-2.615 2.782 11.9 11.9 0 0 0-1.426 3.758 20 20 0 0 0-.421 4.07c.003 1.334.144 2.663.421 3.967.253 1.283.71 2.516 1.357 3.653a7.8 7.8 0 0 0 2.54 2.677 7 7 0 0 0 3.902 1.043 7.26 7.26 0 0 0 5.47-1.987 9.4 9.4 0 0 0 2.404-5.323h9.542q-.979 7.168-5.571 10.925A18.02 18.02 0 0 1 18.18 66.94a19.7 19.7 0 0 1-7.418-1.357 16.5 16.5 0 0 1-5.75-3.791 17.2 17.2 0 0 1-3.692-5.808 20.2 20.2 0 0 1-1.322-7.406 23.9 23.9 0 0 1 1.22-7.759c.754-2.29 1.975-4.4 3.586-6.195a16.4 16.4 0 0 1 5.781-4.072 19.7 19.7 0 0 1 7.805-1.459 22.7 22.7 0 0 1 6.162.834 16.5 16.5 0 0 1 5.298 2.54 13.7 13.7 0 0 1 3.797 4.243 13.56 13.56 0 0 1 1.669 6.02h-9.685q-.978-6.196-7.313-6.196m41.037-20.167c2.71-.072 5.409.389 7.941 1.357a14.8 14.8 0 0 1 5.332 3.582 13.8 13.8 0 0 1 2.996 5.078c.625 1.91.942 3.906.936 5.915 0 1.998-.316 3.983-.936 5.882a13.7 13.7 0 0 1-2.996 5.112 14.8 14.8 0 0 1-5.332 3.584 20.7 20.7 0 0 1-7.941 1.357H47.86v17.811H36.923V16.362zm-2.998 23.38a23 23 0 0 0 3.629-.28 8.4 8.4 0 0 0 3.065-1.078 5.9 5.9 0 0 0 2.126-2.26 7.95 7.95 0 0 0 .802-3.829 7.94 7.94 0 0 0-.802-3.826 5.87 5.87 0 0 0-2.126-2.26 8.4 8.4 0 0 0-3.065-1.078 23 23 0 0 0-3.629-.281h-8.496v14.892zm21.25-4.385c1-1.511 2.335-2.773 3.9-3.687a17.1 17.1 0 0 1 5.33-1.987 30.4 30.4 0 0 1 5.956-.59c1.84.001 3.678.13 5.501.383 1.763.227 3.478.731 5.083 1.494a10 10 0 0 1 3.767 3.098 8.65 8.65 0 0 1 1.459 5.254v18.725a37 37 0 0 0 .282 4.66 8.3 8.3 0 0 0 .974 3.34H99.826a14 14 0 0 1-.452-1.704q-.177-.88-.243-1.774a12.86 12.86 0 0 1-5.574 3.408 22.3 22.3 0 0 1-6.547.975 17.7 17.7 0 0 1-4.807-.625 11 11 0 0 1-3.904-1.949 9.04 9.04 0 0 1-2.61-3.34 11.3 11.3 0 0 1-.936-4.8 10.45 10.45 0 0 1 1.081-5.043 9 9 0 0 1 2.784-3.167 12.5 12.5 0 0 1 3.902-1.774 42 42 0 0 1 4.424-.935 74 74 0 0 1 4.392-.558 27 27 0 0 0 3.828-.625 6.7 6.7 0 0 0 2.648-1.219 2.67 2.67 0 0 0 .905-2.33 5.2 5.2 0 0 0-.524-2.54 3.8 3.8 0 0 0-1.391-1.461 5.5 5.5 0 0 0-2.02-.701q-1.23-.182-2.474-.176a7.5 7.5 0 0 0-4.597 1.254 5.57 5.57 0 0 0-1.951 4.174h-9.894c.055-2.046.657-4.04 1.744-5.776m19.546 13.95q-.996.327-2.023.525-1.08.207-2.262.35a42 42 0 0 0-2.371.351q-1.114.209-2.193.556a6.5 6.5 0 0 0-1.88.936 4.5 4.5 0 0 0-1.288 1.496 4.85 4.85 0 0 0-.484 2.296 4.7 4.7 0 0 0 .484 2.221c.31.583.767 1.074 1.326 1.425.6.362 1.26.61 1.95.732.758.139 1.528.208 2.3.207a8.73 8.73 0 0 0 4.525-.973 6.5 6.5 0 0 0 2.37-2.332c.489-.846.807-1.78.936-2.75q.152-1.105.173-2.22v-3.689a4.4 4.4 0 0 1-1.564.871m25.035-19.244v5.01h.211a11.35 11.35 0 0 1 4.876-4.558 14.1 14.1 0 0 1 6.129-1.427 16.8 16.8 0 0 1 6.514 1.08 9.63 9.63 0 0 1 4.005 2.99 11.6 11.6 0 0 1 2.058 4.66 29.3 29.3 0 0 1 .585 6.091v22.125h-9.894V45.73c.154-2.301-.327-4.6-1.391-6.646q-1.395-2.19-4.944-2.19-4.042 0-5.853 2.398-1.809 2.4-1.809 7.9v18.854h-9.893V30.074zm39.015 27.345a8.83 8.83 0 0 0 6.409 2.155 8.8 8.8 0 0 0 5.15-1.492 6.2 6.2 0 0 0 2.647-3.169h8.71q-2.091 6.471-6.411 9.257a18.9 18.9 0 0 1-10.451 2.782 20.6 20.6 0 0 1-7.66-1.355 15.9 15.9 0 0 1-5.783-3.858 17.3 17.3 0 0 1-3.656-5.985 21.8 21.8 0 0 1-1.287-7.654 21 21 0 0 1 1.322-7.513 17.7 17.7 0 0 1 3.765-6.02 17.8 17.8 0 0 1 5.816-4 18.7 18.7 0 0 1 7.491-1.46 17.15 17.15 0 0 1 8.014 1.774 16 16 0 0 1 5.607 4.765 19.6 19.6 0 0 1 3.172 6.819c.657 2.613.894 5.314.702 8.002h-25.984q.206 4.8 2.436 6.958m11.184-18.926a6.96 6.96 0 0 0-5.4-1.948 8.6 8.6 0 0 0-3.939.8 7.45 7.45 0 0 0-2.505 1.988 7.1 7.1 0 0 0-1.324 2.504c-.237.77-.388 1.563-.452 2.366h16.088a11.44 11.44 0 0 0-2.468-5.707m24.892-22.135h-9.894v49.68h9.894z"/><path fill="#2b2523" d="M199.955 19.359c.151-.348.368-.663.639-.929a2.98 2.98 0 0 1 2.099-.84c.391-.003.779.072 1.141.22a2.93 2.93 0 0 1 1.57 1.548c.163.366.246.76.243 1.16.003.405-.079.807-.243 1.177a3 3 0 0 1-.634.936 2.92 2.92 0 0 1-2.077.84 3 3 0 0 1-2.099-.84 3 3 0 0 1-.639-.936 3 3 0 0 1-.234-1.177 2.9 2.9 0 0 1 .234-1.16m.486 2.162c.113.3.288.572.511.801a2.4 2.4 0 0 0 1.741.724 2.39 2.39 0 0 0 2.235-1.524c.123-.32.185-.66.183-1.004.002-.336-.06-.67-.183-.984a2.4 2.4 0 0 0-2.235-1.514 2.4 2.4 0 0 0-1.741.723 2.3 2.3 0 0 0-.511.791 2.6 2.6 0 0 0-.185.984c-.004.343.059.684.185 1.003m2.428-2.713c.323-.026.645.06.911.244a.9.9 0 0 1 .298.74.82.82 0 0 1-.261.682 1.16 1.16 0 0 1-.648.257l.988 1.52h-.575l-.936-1.481h-.569v1.48h-.536v-3.442zm-.234 1.53q.171.002.342-.014a.9.9 0 0 0 .289-.066.45.45 0 0 0 .2-.17.6.6 0 0 0 .074-.318.47.47 0 0 0-.069-.276.43.43 0 0 0-.17-.159.8.8 0 0 0-.246-.073 2 2 0 0 0-.273-.02h-.71v1.094z"/></g></g></g><defs><clipPath id="a"><path fill="#fff" d="M0 0h206v83H0z"/></clipPath></defs></svg>