<svg xmlns="http://www.w3.org/2000/svg" width="38" height="59" fill="none" viewBox="0 0 38 59"><path fill="#2b1f51" d="M30.488 50.605a12.87 12.87 0 0 0-11.657 0c-.656.382-1.326.714-1.917 1.008-1.527.759-2.63 1.307-2.66 2.227-.024.789.808 1.372 1.535 1.792a27.1 27.1 0 0 0 11.311 3 6.96 6.96 0 0 0 3.424-.706 3.9 3.9 0 0 0-.036-7.325zm-.175-30.778a.5.5 0 0 1-.32-.885c4.526-3.762 6.285-14.493 6.71-17.627l-5.71 2.539a.5.5 0 0 1-.407-.914l6.52-2.9a.5.5 0 0 1 .7.509c-.06.589-1.563 14.5-7.174 19.16a.5.5 0 0 1-.32.118"/><path fill="#fff" d="m34.007 9.16-.628 6.16a32.3 32.3 0 0 1-10.75 20.932l-1.992 1.76A32.3 32.3 0 0 1 7.87 15.32l-.6-6.16z"/><path fill="#2b1f51" d="M20.636 38.51a.5.5 0 0 1-.3-.1A32.88 32.88 0 0 1 7.372 15.367l-.6-6.16a.5.5 0 0 1 .5-.549h26.74a.5.5 0 0 1 .5.551l-.627 6.16a32.7 32.7 0 0 1-10.917 21.256l-1.992 1.76a.5.5 0 0 1-.34.125M7.818 9.66l.55 5.61a31.87 31.87 0 0 0 12.245 22.094l1.684-1.488c6-5.29 9.78-12.65 10.583-20.609l.572-5.608z"/><path fill="#fff" d="M11.161 2.852c5.267-3.042 13.781-3.042 19.015 0s5.2 7.97-.065 11.012c-5.265 3.04-13.779 3.04-19.01 0-5.23-3.04-5.205-7.973.06-11.012"/><path fill="#2b1f51" d="M20.595 16.634a19.84 19.84 0 0 1-9.744-2.336c-2.684-1.56-4.159-3.663-4.156-5.92 0-2.275 1.5-4.39 4.217-5.958 5.4-3.119 14.154-3.116 19.515 0 2.682 1.557 4.157 3.66 4.154 5.918 0 2.274-1.5 4.39-4.219 5.96a20 20 0 0 1-9.767 2.336M11.412 3.285C9.017 4.668 7.698 6.476 7.695 8.378c0 1.887 1.3 3.682 3.658 5.054 5.086 2.957 13.39 2.956 18.51 0 2.4-1.383 3.716-3.193 3.718-5.1 0-1.887-1.3-3.68-3.656-5.052-5.088-2.957-13.392-2.956-18.513 0z"/><path fill="#fff" d="M28.524 51.388c.054 1.214-.722 2.438-2.326 3.364a12.3 12.3 0 0 1-11.152 0 3.9 3.9 0 0 1-2.292-3.23v-1.987h15.773z"/><path fill="#2b1f51" d="M20.617 56.581a11.84 11.84 0 0 1-5.821-1.4 4.38 4.38 0 0 1-2.542-3.665v-1.98a.5.5 0 0 1 .5-.5h15.774a.5.5 0 0 1 .5.5v1.842c.058 1.44-.88 2.827-2.576 3.806a11.9 11.9 0 0 1-5.835 1.397m-7.363-6.546v1.487a3.44 3.44 0 0 0 2.044 2.8 11.75 11.75 0 0 0 10.65 0c1.387-.8 2.125-1.835 2.078-2.909v-1.376z"/><path fill="#fff" d="M15.078 45.305a12.3 12.3 0 0 1 11.155 0c3.07 1.783 3.052 4.677-.038 6.46a12.3 12.3 0 0 1-11.152 0c-3.065-1.784-3.052-4.677.035-6.46"/><path fill="#2b1f51" d="M20.616 53.594a11.84 11.84 0 0 1-5.82-1.4 3.9 3.9 0 0 1 .036-7.325 12.86 12.86 0 0 1 11.656 0 3.9 3.9 0 0 1-.04 7.325 11.9 11.9 0 0 1-5.832 1.4m-5.284-7.856a3.49 3.49 0 0 0-2.078 2.808 3.45 3.45 0 0 0 2.044 2.787 11.75 11.75 0 0 0 10.65 0 3.49 3.49 0 0 0 2.08-2.81 3.44 3.44 0 0 0-2.042-2.785 11.76 11.76 0 0 0-10.654 0"/><path fill="#2b1f51" d="M20.633 37.51a.5.5 0 0 0-.5.5v10.525a.5.5 0 0 0 1 0V38.01a.5.5 0 0 0-.5-.5m-5.379-5.046c-.025 0-1.83-.306-1.855-.31C3.299 30.593.052 19.973.02 19.866a.5.5 0 0 1 .237-.58l10.664-5.9a.5.5 0 0 1 .484.876l-10.3 5.7c.667 1.849 4.033 9.9 12.444 11.206a.5.5 0 0 1 .417.57c-.037.245 1.528.726 1.287.726"/></svg>