<svg xmlns="http://www.w3.org/2000/svg" width="241" height="290" fill="none" viewBox="0 0 241 290"><mask id="a" width="241" height="290" x="0" y="0" maskUnits="userSpaceOnUse" style="mask-type:luminance"><path fill="#fff" d="M241 0H0v290h241z"/></mask><g mask="url(#a)"><path fill="url(#b)" d="M239.999 168.162h-50.23l-55.913-33.866c-7.2-4.361-19.779-3.815-28.095 1.226l-53.9 32.641h-50.2v174.035h.017c-.207 2.95 1.365 5.8 4.823 7.894L107.78 411.44c7.2 4.36 19.78 3.815 28.1-1.226l97.242-58.9c4.317-2.614 6.618-5.926 6.842-9.118h.037z"/><path fill="#d9dde8" d="m236.965 189.845-107.856 62.671a14.62 14.62 0 0 1-14.922 0l-109.5-63.61a6.52 6.52 0 0 1-3.024-5.683v-32.926l111.451-47a17.04 17.04 0 0 1 13.827-.16l113.045 48.1v32.937a6.53 6.53 0 0 1-3.021 5.671"/><path fill="#f2f5fc" d="m238.8 152.959-109.963 63.907a14.54 14.54 0 0 1-14.854 0L2.854 152.3a2.684 2.684 0 0 1-.967-3.338c.192-.469.532-.864.967-1.125L112.847 83.92a14.52 14.52 0 0 1 14.805 0l111.151 64.58a2.69 2.69 0 0 1 .958 3.346 2.35 2.35 0 0 1-.958 1.113z"/><path fill="#3a456e" d="m211.933 154.697-79.23 46.053a17.5 17.5 0 0 1-17.873 0l-85.115-49.456a3.13 3.13 0 0 1-1.125-3.887 2.74 2.74 0 0 1 1.125-1.31l80.607-46.848a14.82 14.82 0 0 1 15.118 0l86.5 50.255a3.14 3.14 0 0 1 1.121 3.893 2.74 2.74 0 0 1-1.121 1.3z"/><path fill="#e0e3ed" d="m211.935 154.696-8.086 4.708-78.405-45.557a14.81 14.81 0 0 0-15.119 0l-72.52 42.145-8.09-4.7a3.13 3.13 0 0 1-1.125-3.886 2.74 2.74 0 0 1 1.125-1.31l80.61-46.85a14.82 14.82 0 0 1 15.12 0l86.5 50.256a3.14 3.14 0 0 1 1.099 3.9 2.73 2.73 0 0 1-1.11 1.286z"/><path fill="#ffe06a" d="M223.043 180.699c0 2.58 1.8 3.623 4.02 2.335a8.93 8.93 0 0 0 4.018-7c0-2.58-1.8-3.622-4.018-2.333a8.93 8.93 0 0 0-4.02 7z"/><path fill="#fcfcfc" d="M226.032 181.832a8.94 8.94 0 0 0 4.021-7 4 4 0 0 0-.261-1.461 2.78 2.78 0 0 1 1.299 2.662 8.93 8.93 0 0 1-4.018 7c-1.732 1.007-3.19.582-3.757-.871a2.85 2.85 0 0 0 2.721-.33z"/><path fill="url(#c)" d="M209.574 188.315c0 2.58 1.8 3.626 4.018 2.336a8.96 8.96 0 0 0 4.018-7c0-2.58-1.8-3.626-4.018-2.337a8.91 8.91 0 0 0-4.018 7.001"/><path fill="#fff" d="M212.565 189.449a8.94 8.94 0 0 0 4.018-7.007 4 4 0 0 0-.26-1.462 2.79 2.79 0 0 1 1.293 2.666 8.95 8.95 0 0 1-4.018 7c-1.729 1-3.191.576-3.758-.875a2.85 2.85 0 0 0 2.725-.322"/><path fill="url(#d)" d="m60.119 154.302 61.606 35.951a6.74 6.74 0 0 0 6.9 0l59.568-34.8a3.02 3.02 0 0 0 1.4-2.636v-25.49l-63.267-28.672a7.84 7.84 0 0 0-6.392-.072l-61.206 27.6v25.488a3.03 3.03 0 0 0 1.39 2.631"/><path fill="url(#e)" d="m60.119 151.869 61.606 35.951a6.75 6.75 0 0 0 6.9 0l59.568-34.8a3.04 3.04 0 0 0 1.048-1.134c.245-.463.366-.98.352-1.503v-25.49l-63.267-28.672a7.86 7.86 0 0 0-6.392-.074l-61.206 27.595v25.488a3.04 3.04 0 0 0 1.39 2.639"/><path fill="url(#f)" d="M184.639 124.704 124.18 88.723l-60.843 36.063-4.61-2.74v5.471l59.68 35.442a10.52 10.52 0 0 0 10.908 0l59.933-35.515v-5.471zm-60.291 28.32-42.91-25.421 42.914-25.149 42.865 25.4z"/><path fill="url(#g)" d="m124.177 83.25-65.454 38.788 59.681 35.441a10.52 10.52 0 0 0 10.908 0l59.933-35.515z"/><path fill="url(#h)" d="m122.083 13.248 32.212 19.827c3.1 1.908 5.6 6.662 5.53 10.55l-1.249 75.8c-.067 3.886-2.664 5.507-5.769 3.601l-32.187-19.817c-3.1-1.91-5.594-6.665-5.529-10.552l1.227-75.811c.068-3.886 2.668-5.51 5.765-3.598" opacity=".23"/><path fill="url(#i)" d="m107.445 25.285 32.212 19.827c3.1 1.91 5.593 6.663 5.528 10.551l-1.248 75.8c-.067 3.886-2.665 5.507-5.77 3.6l-32.19-19.814c-3.1-1.908-5.594-6.665-5.531-10.551l1.249-75.8c.048-3.903 2.639-5.494 5.75-3.613" opacity=".53"/><path fill="url(#j)" d="m91.563 38.138 31.706 19.114c3.1 1.908 5.6 6.663 5.53 10.551l.236 74.2c-.067 3.886-2.664 5.506-5.769 3.6l-31.934-18.316c-3.1-1.908-5.6-6.665-5.53-10.551V41.77c.068-3.882 2.642-5.515 5.761-3.633"/><path fill="#f2f5fc" d="M105.274 76.716c-2.343-1.387-3.967.75-3.683 4.78.309 4.053 2.476 8.519 4.82 9.953.02 0 .022.022.043.02 2.32 1.366 3.944-.748 3.66-4.8-.309-4.051-2.476-8.517-4.82-9.951 0 .024 0 0-.02 0m1.447 17.107c-3.981-2.362-6.8.976-6.3 7.484.029.349.192.674.455.907l13.336 8.078c.234.13.391-.047.355-.4l-.051-.669a8 8 0 0 0-.072-.69 25.4 25.4 0 0 0-3.391-9.945 14 14 0 0 0-4.272-4.716h-.02c0-.024-.023-.022-.044-.045m8.211-7.486c-2.02-1.192-3.451.646-3.19 4.173s2.156 7.412 4.181 8.651c.02 0 .021.022.041.022 2.02 1.191 3.432-.669 3.17-4.175-.262-3.527-2.156-7.41-4.18-8.649 0-.024 0-.024-.022-.022m1.335 14.912a4.2 4.2 0 0 0-2.31-.7c-.249.016-.29.5-.1.965.253.582.466 1.17.68 1.778a22.7 22.7 0 0 1 1.33 7.463 1.16 1.16 0 0 0 .392.886l6.094 3.716c.384.239.66-.089.61-.733-.01-.214-.04-.429-.049-.644a22.2 22.2 0 0 0-2.937-8.63 11.66 11.66 0 0 0-3.708-4.1M96.201 74.813c-2.02-1.192-3.432.67-3.17 4.174.261 3.53 2.136 7.413 4.18 8.628.02 0 .022.022.042.021 2.02 1.192 3.432-.645 3.17-4.174s-2.156-7.41-4.18-8.65c0 .023-.02.024-.042 0m.927 14.676a3.01 3.01 0 0 0-3.366-.2c-1.248.816-1.965 2.852-1.837 5.718l.028.62a2.15 2.15 0 0 0 .8 1.556l6.093 3.716c.214.131.349-.1.292-.449a14.35 14.35 0 0 1 .267-6.51 6 6 0 0 1 .469-1.081 1.2 1.2 0 0 0-.26-1.157 10.4 10.4 0 0 0-2.42-2.2h-.02a.06.06 0 0 0-.041-.021m53.976 100.758 20.867-12.129 5.609 8.6-20.632 12.552"/></g><defs><linearGradient id="b" x1="136.8" x2="150.237" y1="449.762" y2="115.092" gradientUnits="userSpaceOnUse"><stop stop-color="#fff"/><stop offset="1" stop-color="#c8cede"/></linearGradient><linearGradient id="c" x1="-1026.2" x2="-1026.2" y1="499.514" y2="499.566" gradientUnits="userSpaceOnUse"><stop stop-color="#5e98f7"/><stop offset="1" stop-color="#4670ba"/></linearGradient><linearGradient id="d" x1="-570.876" x2="-570.876" y1="454.865" y2="454.865" gradientUnits="userSpaceOnUse"><stop stop-color="#5e98f7"/><stop offset="1" stop-color="#4670ba"/></linearGradient><linearGradient id="e" x1="-570.877" x2="-570.877" y1="454.857" y2="454.857" gradientUnits="userSpaceOnUse"><stop offset=".459" stop-color="#ebf0f5"/><stop offset=".544" stop-color="#d3daeb"/></linearGradient><linearGradient id="f" x1="-563.467" x2="-563.467" y1="432.825" y2="432.825" gradientUnits="userSpaceOnUse"><stop stop-color="#5e98f7"/><stop offset="1" stop-color="#4670ba"/></linearGradient><linearGradient id="g" x1="-561.91" x2="-561.91" y1="433.612" y2="433.612" gradientUnits="userSpaceOnUse"><stop stop-color="#aadff7"/><stop offset="1" stop-color="#69a1e3"/></linearGradient><linearGradient id="h" x1="-562.268" x2="-563.542" y1="454.623" y2="454.696" gradientUnits="userSpaceOnUse"><stop stop-color="#aadff7"/><stop offset="1" stop-color="#69a1e3"/></linearGradient><linearGradient id="i" x1="-563.159" x2="-562.263" y1="454.484" y2="454.687" gradientUnits="userSpaceOnUse"><stop stop-color="#aadff7"/><stop offset="1" stop-color="#69a1e3"/></linearGradient><linearGradient id="j" x1="-563.537" x2="-562.783" y1="454.572" y2="454.624" gradientUnits="userSpaceOnUse"><stop stop-color="#5e98f7"/><stop offset="1" stop-color="#4670ba" stop-opacity=".69"/></linearGradient></defs></svg>