<svg xmlns="http://www.w3.org/2000/svg" width="82" height="82" fill="none" viewBox="0 0 82 82"><g clip-path="url(#a)"><path fill="#0c5ae5" d="M10.607 81.555h-.053a.7.7 0 0 1-.644-.75 48.7 48.7 0 0 1 2.22-11.111 56.115 56.115 0 0 1 11.245-19.455 45.1 45.1 0 0 1 10.023-8.386 29.6 29.6 0 0 1 6.351-2.688c.196-.05.38-.09.563-.13q.158-.034.313-.071.327-.099.665-.133a10 10 0 0 1 1.01-.147l.123-.013c.797-.1 1.602-.127 2.404-.079.133.005.268.014.396.025a56 56 0 0 0-5.38-2.964.7.7 0 0 1-.362-.937.7.7 0 0 1 .677-.406c.093.006.185.03.268.072a72 72 0 0 1 7.166 4.048c1.047.645 2.035 1.254 2.929 1.77a.7.7 0 0 1-.669 1.228 12.9 12.9 0 0 0-4.404-1.382c-.2-.02-.443-.046-.68-.054a12 12 0 0 0-2.176.07l-.136.015a8 8 0 0 0-.906.133 1 1 0 0 1-.096.014 2 2 0 0 0-.441.085l-.044.012-.354.08q-.255.055-.51.117a28 28 0 0 0-6.01 2.548 43.7 43.7 0 0 0-9.683 8.111 54.7 54.7 0 0 0-9.047 14.046 53 53 0 0 0-1.91 4.905 47.3 47.3 0 0 0-2.156 10.782.7.7 0 0 1-.692.645M14.173 36.47a.7.7 0 0 1-.362-.102c-4.594-2.79-5.677-9.235-2.905-17.24C14.32 9.276 22.77-.305 31.013.72c2.28.284 6.721 3.005 10.287 5.19.964.592 1.795 1.102 2.457 1.482a.7.7 0 0 1-.698 1.214c-.68-.39-1.516-.905-2.488-1.5-3.086-1.892-7.75-4.75-9.73-4.997-7.436-.923-15.453 8.356-18.614 17.479-2.541 7.333-1.678 13.162 2.31 15.584a.7.7 0 0 1-.363 1.298"/><path fill="#0c5ae5" d="M10.607 81.553h-.04a.7.7 0 0 1-.658-.737c.535-9.602 5.252-20.805 12.31-29.231 3.142-3.768 9.6-10.395 17.545-12.427 5.465-1.483 10.642-.138 13.839 3.599a.704.704 0 0 1-.076.987.7.7 0 0 1-.985-.076c-2.88-3.367-7.403-4.519-12.423-3.155-7.572 1.938-13.794 8.332-16.83 11.971-6.875 8.211-11.467 19.1-11.986 28.41a.7.7 0 0 1-.696.66"/><path fill="#0c5ae5" d="M27.74 43.156a7.87 7.87 0 0 1-3.99-1.04c-2.809-1.629-4.35-4.99-4.35-9.465a31 31 0 0 1 4.088-13.829 30.9 30.9 0 0 1 9.903-10.466c3.872-2.243 7.553-2.586 10.365-.966s4.34 4.98 4.34 9.464c0 10.034-7.34 20.49-14.14 24.425a12.6 12.6 0 0 1-6.217 1.877m12.105-35.37c-2.04.082-4.025.697-5.756 1.783a29.5 29.5 0 0 0-9.39 9.954 29.6 29.6 0 0 0-3.902 13.129c0 3.953 1.297 6.883 3.651 8.25 3.042 1.76 6.467.516 8.81-.837 6.466-3.74 13.443-13.677 13.443-23.212 0-3.96-1.293-6.89-3.641-8.248a6.35 6.35 0 0 0-3.215-.818z"/><path fill="#0c5ae5" d="M.699 75.815H.646a.697.697 0 0 1-.644-.75c1.03-13.684 8.782-27.96 19.745-36.373a.697.697 0 0 1 1.094.648.7.7 0 0 1-.243.46C9.936 47.986 2.398 61.863 1.397 75.167a.7.7 0 0 1-.698.648"/><path fill="#0c5ae5" d="M10.606 81.553a.7.7 0 0 1-.349-.094L.35 75.72a.7.7 0 0 1 .7-1.212l9.907 5.738a.7.7 0 0 1-.35 1.306zM24.097 42.21a.7.7 0 0 1-.349-.093l-9.924-5.74a.7.7 0 1 1 .699-1.212l9.924 5.739a.7.7 0 0 1-.35 1.306"/><path fill="#0c5ae5" d="M10.607 81.555a.7.7 0 0 1-.675-.519.7.7 0 0 1 .325-.787l25.765-14.91a.697.697 0 0 1 1.022.787.7.7 0 0 1-.324.425l-25.763 14.91a.7.7 0 0 1-.35.094M68.487 61.912l-7.24-4.217.01 4.049 7.24 4.216z"/><path fill="#0c5ae5" d="M68.5 66.413a.453.453 0 0 0 .453-.457l-.011-4.048a.45.45 0 0 0-.227-.392l-7.24-4.216a.45.45 0 0 0-.621.167.46.46 0 0 0-.061.229l.012 4.047a.45.45 0 0 0 .226.391l7.24 4.218q.106.06.228.06m-.465-4.242.009 2.995-6.335-3.686-.008-2.995z"/><path fill="#5f98ed" d="m81.475 33.283-7.24-4.22-13.045 7.551 7.24 4.215z"/><path fill="#0c5ae5" d="M68.43 41.287a.45.45 0 0 0 .227-.06l13.046-7.55a.453.453 0 0 0 0-.786l-7.24-4.216a.45.45 0 0 0-.454 0L60.965 36.22a.454.454 0 0 0 0 .787l7.24 4.217q.105.06.225.062m12.14-8.004-12.139 7.023-6.336-3.69 12.143-7.022z"/><path fill="#5f98ed" d="m68.43 40.832.007 2.825.052 18.254.011 4.049 13.046-7.548-.071-25.127z"/><path fill="#0c5ae5" d="M68.5 66.413q.122 0 .227-.06l13.046-7.549A.45.45 0 0 0 82 58.41l-.07-25.127a.456.456 0 0 0-.455-.454.45.45 0 0 0-.226.061l-13.047 7.548a.46.46 0 0 0-.227.395l.07 25.13a.456.456 0 0 0 .454.453zm12.592-8.264-12.14 7.023-.069-24.079 12.14-7.02z"/><path fill="#0c5ae5" d="M68.43 40.828 61.19 36.61l.006 2.827 7.241 4.216z"/><path fill="#0c5ae5" d="M68.439 44.11a.45.45 0 0 0 .393-.228q.06-.107.061-.228l-.008-2.825a.46.46 0 0 0-.227-.392l-7.235-4.216a.453.453 0 0 0-.68.394l.008 2.825a.46.46 0 0 0 .226.392l7.24 4.217q.104.06.222.06m-.465-3.017.005 1.77-6.331-3.686-.005-1.771zM44.58 32.217l7.241 4.216a.71.71 0 0 0-.734.057l-7.237-4.216a.7.7 0 0 1 .73-.057"/><path fill="#0c5ae5" d="M51.089 36.943q.121 0 .228-.06.188-.11.277-.058a.453.453 0 0 0 .667-.51.46.46 0 0 0-.21-.276l-7.24-4.217a1.14 1.14 0 0 0-1.192.056.454.454 0 0 0 0 .788l7.24 4.216q.107.062.23.061"/><path fill="#fff" d="m67.837 43.18-7.24-4.217c-.797-.463-2.399-.903-4.918.556-1.877 1.086-4.361.734-6.449-.481l7.24 4.216c2.088 1.216 4.573 1.568 6.449.482 2.52-1.462 4.121-1.02 4.918-.556"/><path fill="#0c5ae5" d="M60.348 44.848a5.54 5.54 0 0 0 2.797-.717c2.36-1.364 3.804-.937 4.457-.559h.004a.453.453 0 0 0 .668-.51.46.46 0 0 0-.21-.276h-.005l-7.232-4.215c-.821-.478-2.612-1.042-5.373.555-1.597.925-3.89.743-5.986-.475l-.008-.005a.452.452 0 0 0-.678.332.46.46 0 0 0 .22.454h.008l7.233 4.213a8.25 8.25 0 0 0 4.105 1.203m5.12-2.515a7.5 7.5 0 0 0-2.777 1.015c-1.6.925-3.897.74-5.993-.481l-3.84-2.24a5.6 5.6 0 0 0 3.046-.711c2.364-1.364 3.812-.938 4.463-.556z"/><mask id="b" width="19" height="7" x="49" y="38" maskUnits="userSpaceOnUse" style="mask-type:luminance"><path fill="#fff" d="M62.918 43.74c2.521-1.459 4.122-1.02 4.918-.556l-7.24-4.217c-.796-.463-2.398-.903-4.918.555-1.877 1.087-4.361.735-6.448-.481l7.24 4.216a7.9 7.9 0 0 0 3.893 1.133 5.05 5.05 0 0 0 2.555-.65m-2.553-4.38 5.103 2.972a7.45 7.45 0 0 0-2.777 1.014c-1.599.926-3.897.742-5.993-.481l-3.837-2.236a5.6 5.6 0 0 0 3.046-.712 5.96 5.96 0 0 1 2.953-.938 2.96 2.96 0 0 1 1.508.38z"/></mask><g mask="url(#b)"><path fill="#fff" d="m67.837 43.18-7.24-4.217c-.797-.463-2.399-.903-4.918.556-1.877 1.086-4.361.734-6.449-.481l7.24 4.216c2.088 1.216 4.573 1.568 6.449.482 2.52-1.462 4.121-1.02 4.918-.556"/><path fill="#0c5ae5" d="M60.348 44.848a5.54 5.54 0 0 0 2.797-.717c2.36-1.364 3.804-.937 4.457-.559h.004a.453.453 0 0 0 .668-.51.46.46 0 0 0-.21-.276h-.005l-7.232-4.215c-.821-.478-2.612-1.042-5.373.555-1.597.925-3.89.743-5.986-.475l-.008-.005a.452.452 0 0 0-.678.332.46.46 0 0 0 .22.454h.008l7.233 4.213a8.25 8.25 0 0 0 4.105 1.203m5.12-2.515a7.5 7.5 0 0 0-2.777 1.015c-1.6.925-3.897.74-5.993-.481l-3.84-2.24a5.6 5.6 0 0 0 3.046-.711c2.364-1.364 3.812-.938 4.463-.556z"/></g><path fill="#d4e6fc" d="m36.61 74.589 7.24 4.216a3.4 3.4 0 0 1-1.14-1.642c-.185-.438.318-1.337.163-1.902-.24-.853-1.121-1.455-1.289-2.522-.153-.97.402-2.399.318-3.468-.074-.955-.792-1.543-.805-2.522-.012-.98.688-2.345.747-3.291.038-.65-.578-.896-.5-1.511a21 21 0 0 1 .413-2.346c.425-1.799 2.723-3.543 5.062-4.896a42 42 0 0 1 5.118-2.473l-7.24-4.216a42 42 0 0 0-5.117 2.472c-2.339 1.352-4.637 3.098-5.063 4.896a21 21 0 0 0-.414 2.346c-.077.615.538.86.5 1.511-.059.947-.758 2.315-.745 3.291.012.977.73 1.568.805 2.523.085 1.067-.473 2.496-.319 3.467.17 1.068 1.05 1.665 1.288 2.522.157.564-.347 1.465-.161 1.903a3.4 3.4 0 0 0 1.14 1.642"/><path fill="#0c5ae5" d="M43.85 79.264a.453.453 0 0 0 .426-.632.46.46 0 0 0-.197-.22 2.85 2.85 0 0 1-.95-1.424 2 2 0 0 1 .092-.623c.129-.395.158-.817.085-1.226a3.9 3.9 0 0 0-.641-1.185 3.1 3.1 0 0 1-.637-1.287 5.6 5.6 0 0 1 .147-1.63 7.5 7.5 0 0 0 .177-1.802 3.7 3.7 0 0 0-.447-1.364 2.6 2.6 0 0 1-.358-1.125 6.1 6.1 0 0 1 .367-1.646 7.5 7.5 0 0 0 .379-1.61 1.66 1.66 0 0 0-.33-1.036c-.139-.217-.19-.313-.17-.448q.139-1.16.404-2.296c.325-1.365 2-2.962 4.85-4.605a41.5 41.5 0 0 1 5.059-2.44.454.454 0 0 0 .232-.636.45.45 0 0 0-.173-.18l-7.24-4.217a.46.46 0 0 0-.396-.03 43 43 0 0 0-5.177 2.5c-3.112 1.8-4.888 3.545-5.275 5.184a22 22 0 0 0-.425 2.395c-.033.376.077.75.306 1.049a.8.8 0 0 1 .191.492 7 7 0 0 1-.34 1.396 6.7 6.7 0 0 0-.407 1.927c.03.534.184 1.053.45 1.516.184.319.305.67.356 1.035q.008.797-.165 1.574a6.1 6.1 0 0 0-.149 1.93c.126.613.397 1.185.79 1.67.219.272.392.578.511.906.017.26-.016.52-.097.767-.138.38-.154.795-.046 1.185a3.7 3.7 0 0 0 1.33 1.857l7.24 4.218q.107.06.228.06m7.062-27.094a42 42 0 0 0-4.323 2.144c-3.114 1.8-4.89 3.546-5.276 5.185q-.28 1.186-.425 2.395c-.032.376.078.75.307 1.05.117.137.185.31.19.49a6.7 6.7 0 0 1-.34 1.397c-.23.619-.368 1.269-.407 1.928.03.534.185 1.052.45 1.515.184.32.305.671.356 1.036a6.8 6.8 0 0 1-.17 1.572 6.2 6.2 0 0 0-.148 1.932c.126.612.397 1.184.79 1.668.22.272.392.578.511.906.018.26-.015.52-.096.767-.138.381-.154.796-.046 1.186l.017.041-5.472-3.186a2.87 2.87 0 0 1-.95-1.424c0-.211.03-.422.094-.623.128-.395.157-.816.085-1.226-.143-.43-.36-.83-.641-1.186a3.1 3.1 0 0 1-.63-1.282 5.6 5.6 0 0 1 .146-1.63 7.4 7.4 0 0 0 .177-1.802 3.7 3.7 0 0 0-.446-1.364 2.6 2.6 0 0 1-.357-1.126 6 6 0 0 1 .365-1.645 7.5 7.5 0 0 0 .38-1.611 1.65 1.65 0 0 0-.331-1.035c-.138-.218-.189-.313-.17-.448q.138-1.16.405-2.297c.324-1.364 2-2.961 4.85-4.604a41 41 0 0 1 4.851-2.366z"/><mask id="c" width="19" height="31" x="33" y="48" maskUnits="userSpaceOnUse" style="mask-type:luminance"><path fill="#fff" d="M42.71 77.167c-.184-.438.318-1.338.163-1.902-.24-.853-1.12-1.454-1.29-2.522-.153-.97.402-2.398.319-3.467-.074-.956-.792-1.543-.805-2.522s.686-2.346.746-3.291c.038-.65-.577-.895-.5-1.51q.141-1.186.414-2.347c.426-1.799 2.723-3.544 5.062-4.897a42 42 0 0 1 5.118-2.47l-7.241-4.216a42 42 0 0 0-5.116 2.472c-2.338 1.353-4.636 3.098-5.063 4.896q-.273 1.162-.413 2.346c-.078.616.538.862.5 1.512-.06.946-.759 2.314-.746 3.291s.73 1.568.805 2.523c.085 1.067-.472 2.496-.318 3.466.17 1.069 1.05 1.666 1.288 2.522.155.565-.347 1.465-.162 1.903.207.65.604 1.221 1.14 1.64l7.244 4.215a3.4 3.4 0 0 1-1.145-1.642m8.206-24.997a42 42 0 0 0-4.323 2.144c-3.114 1.801-4.89 3.545-5.275 5.186q-.28 1.186-.425 2.394c-.032.376.077.75.306 1.05.117.137.185.31.191.49a6.7 6.7 0 0 1-.34 1.397 6.7 6.7 0 0 0-.407 1.927c.03.534.184 1.053.451 1.516.184.32.305.671.356 1.036a6.8 6.8 0 0 1-.165 1.57 6.1 6.1 0 0 0-.148 1.931c.125.612.396 1.184.79 1.669.218.271.39.577.51.904.018.261-.015.523-.096.772-.138.38-.154.795-.047 1.185l.017.041-5.47-3.186a2.86 2.86 0 0 1-.951-1.424c-.002-.211.03-.422.093-.623.128-.395.157-.816.085-1.225a3.9 3.9 0 0 0-.641-1.186 3.1 3.1 0 0 1-.636-1.285 5.6 5.6 0 0 1 .145-1.63 7.5 7.5 0 0 0 .177-1.803 3.7 3.7 0 0 0-.446-1.364 2.6 2.6 0 0 1-.358-1.125 6 6 0 0 1 .366-1.646 7.4 7.4 0 0 0 .38-1.612 1.65 1.65 0 0 0-.332-1.034c-.138-.218-.189-.314-.17-.449q.138-1.16.404-2.297c.324-1.364 2-2.96 4.85-4.604a41.5 41.5 0 0 1 4.855-2.358z"/></mask><g mask="url(#c)"><path fill="#d4e6fc" d="m51.935 52.24-7.24-4.217a42 42 0 0 0-5.117 2.473c-2.339 1.352-4.637 3.098-5.063 4.896q-.272 1.16-.413 2.345c-.078.616.537.862.5 1.512-.06.947-.76 2.315-.746 3.291.012.977.73 1.568.804 2.522.086 1.068-.472 2.497-.318 3.468.17 1.068 1.05 1.665 1.288 2.522.157.564-.347 1.465-.161 1.902a3.4 3.4 0 0 0 1.14 1.643l7.24 4.216a3.4 3.4 0 0 1-1.14-1.642c-.186-.438.317-1.337.162-1.903-.24-.852-1.121-1.454-1.289-2.522-.153-.97.402-2.398.318-3.467-.074-.955-.792-1.543-.804-2.522-.013-.98.687-2.345.746-3.292.038-.65-.578-.895-.5-1.51q.14-1.185.413-2.346c.425-1.8 2.723-3.544 5.062-4.897a42 42 0 0 1 5.118-2.472"/><path fill="#0c5ae5" d="M43.85 79.264a.453.453 0 0 0 .426-.632.46.46 0 0 0-.197-.22 2.85 2.85 0 0 1-.95-1.424 2 2 0 0 1 .092-.623c.129-.395.158-.817.085-1.226a3.9 3.9 0 0 0-.641-1.185 3.1 3.1 0 0 1-.637-1.287 5.6 5.6 0 0 1 .147-1.63 7.5 7.5 0 0 0 .177-1.802 3.7 3.7 0 0 0-.447-1.364 2.6 2.6 0 0 1-.358-1.125 6.1 6.1 0 0 1 .367-1.646 7.5 7.5 0 0 0 .379-1.61 1.66 1.66 0 0 0-.33-1.036c-.139-.217-.19-.313-.17-.448q.139-1.16.404-2.296c.325-1.365 2-2.962 4.85-4.605a41.5 41.5 0 0 1 5.059-2.44.454.454 0 0 0 .232-.636.45.45 0 0 0-.173-.18l-7.24-4.217a.46.46 0 0 0-.396-.03 43 43 0 0 0-5.177 2.5c-3.112 1.8-4.888 3.545-5.275 5.184a22 22 0 0 0-.425 2.395c-.033.376.077.75.306 1.049a.8.8 0 0 1 .191.492 7 7 0 0 1-.34 1.396 6.7 6.7 0 0 0-.407 1.927c.03.534.184 1.053.45 1.516.184.319.305.67.356 1.035q.008.797-.165 1.574a6.1 6.1 0 0 0-.149 1.93c.126.613.397 1.185.79 1.67.219.272.392.578.511.906.017.26-.016.52-.097.767-.138.38-.154.795-.046 1.185a3.7 3.7 0 0 0 1.33 1.857l7.24 4.218q.107.06.228.06m7.062-27.094a42 42 0 0 0-4.323 2.144c-3.114 1.8-4.89 3.546-5.276 5.185q-.28 1.186-.425 2.395c-.032.376.078.75.307 1.05.117.137.185.31.19.49a6.7 6.7 0 0 1-.34 1.397c-.23.619-.368 1.269-.407 1.928.03.534.185 1.052.45 1.515.184.32.305.671.356 1.036a6.8 6.8 0 0 1-.17 1.572 6.2 6.2 0 0 0-.148 1.932c.126.612.397 1.184.79 1.668.22.272.392.578.511.906.018.26-.015.52-.096.767-.138.381-.154.796-.046 1.186l.017.041-5.472-3.186a2.87 2.87 0 0 1-.95-1.424c0-.211.03-.422.094-.623.128-.395.157-.816.085-1.226-.143-.43-.36-.83-.641-1.186a3.1 3.1 0 0 1-.63-1.282 5.6 5.6 0 0 1 .146-1.63 7.4 7.4 0 0 0 .177-1.802 3.7 3.7 0 0 0-.446-1.364 2.6 2.6 0 0 1-.357-1.126 6 6 0 0 1 .365-1.645 7.5 7.5 0 0 0 .38-1.611 1.65 1.65 0 0 0-.331-1.035c-.138-.218-.189-.313-.17-.448q.138-1.16.405-2.297c.324-1.364 2-2.961 4.85-4.604a41 41 0 0 1 4.851-2.366z"/></g><path fill="#fff" d="M51.087 36.488c-1.587.917-3.73 6.309-2.012 10.783 1.568 4.087 2.445 4.894 2.86 4.967a42 42 0 0 0-5.117 2.473c-2.337 1.352-4.636 3.097-5.063 4.896q-.273 1.162-.413 2.346c-.078.616.538.861.5 1.51-.059.947-.759 2.316-.746 3.292s.73 1.567.805 2.522c.085 1.07-.472 2.498-.318 3.468.17 1.067 1.049 1.666 1.289 2.522.154.565-.348 1.465-.163 1.902.545 1.315 1.201 2.005 1.916 1.695 4.034-1.757 7.97-3.73 11.792-5.91 5.632-3.258 11.272-7.354 12.07-11.04l-.052-18.257c-.09-.103-1.809-2.066-5.518.08-3.71 2.146-9.803-1.33-10.493-5.988-.191-1.302-.724-1.617-1.337-1.262"/><path fill="#0c5ae5" d="M44.287 79.389c.18-.001.357-.039.52-.112a122 122 0 0 0 11.838-5.933c7.458-4.315 11.592-8.13 12.288-11.34a.5.5 0 0 0 .01-.097l-.052-18.254c0-.11-.04-.217-.113-.3-.211-.24-2.17-2.28-6.085-.013a5.85 5.85 0 0 1-5.408-.17 7.77 7.77 0 0 1-4.41-5.493 2.06 2.06 0 0 0-.895-1.683 1.14 1.14 0 0 0-1.118.094c-1.787 1.036-4 6.666-2.212 11.34 1.056 2.75 1.812 4.064 2.366 4.69a42 42 0 0 0-4.425 2.188c-3.113 1.8-4.889 3.546-5.275 5.185q-.28 1.186-.425 2.395c-.032.376.077.75.307 1.05a.8.8 0 0 1 .19.49 6.7 6.7 0 0 1-.34 1.397 6.7 6.7 0 0 0-.407 1.928c.03.534.184 1.052.45 1.515.184.32.305.671.356 1.036a6.8 6.8 0 0 1-.17 1.572c-.15.632-.2 1.284-.148 1.932.126.612.397 1.184.79 1.668.219.272.391.578.511.906.018.26-.015.52-.096.767-.138.381-.154.796-.046 1.186.236.823.78 1.522 1.52 1.95.151.067.314.102.48.106M68.034 61.86c-.663 2.9-4.757 6.595-11.843 10.695a122 122 0 0 1-11.742 5.883.35.35 0 0 1-.295.009c-.15-.061-.552-.325-1.021-1.46q-.003-.317.092-.623c.128-.395.158-.816.085-1.226a3.9 3.9 0 0 0-.642-1.185 3.1 3.1 0 0 1-.636-1.286 5.6 5.6 0 0 1 .146-1.63 7.5 7.5 0 0 0 .177-1.802 3.7 3.7 0 0 0-.447-1.365 2.6 2.6 0 0 1-.357-1.125 6.1 6.1 0 0 1 .367-1.645 7.4 7.4 0 0 0 .378-1.611 1.66 1.66 0 0 0-.33-1.035c-.139-.218-.189-.313-.17-.449a21 21 0 0 1 .405-2.296c.324-1.364 2-2.962 4.85-4.604a41.4 41.4 0 0 1 5.058-2.441.455.455 0 0 0-.085-.87c-.031-.008-.81-.237-2.515-4.684-1.635-4.26.452-9.439 1.815-10.226.068-.039.193-.1.269-.064.122.06.3.357.394.998a8.572 8.572 0 0 0 4.912 6.177 6.65 6.65 0 0 0 6.257.138c2.903-1.681 4.412-.67 4.837-.286z"/><path fill="#d4e6fc" d="m44.505 47.944 7.24 4.217c-.471-.274-1.31-1.353-2.667-4.892-1.717-4.473.425-9.866 2.011-10.783l-7.24-4.216c-1.587.917-3.729 6.309-2.011 10.782 1.358 3.538 2.197 4.619 2.666 4.892"/><path fill="#0c5ae5" d="M51.744 52.617a.453.453 0 0 0 .23-.848c-.264-.153-1.034-.915-2.468-4.662-1.635-4.26.452-9.439 1.815-10.226a.454.454 0 0 0 0-.787l-7.24-4.216a.45.45 0 0 0-.456 0c-1.787 1.037-4 6.667-2.208 11.34 1.15 2.994 2.086 4.67 2.863 5.122l7.239 4.216q.105.06.225.06m-1.446-16.064c-1.642 1.726-3.256 6.687-1.646 10.88q.614 1.655 1.415 3.227l-5.337-3.107c-.264-.154-1.034-.915-2.467-4.662-1.555-4.051.255-8.937 1.611-10.081z"/><mask id="d" width="11" height="21" x="41" y="32" maskUnits="userSpaceOnUse" style="mask-type:luminance"><path fill="#fff" d="M49.079 47.269c-1.718-4.472.425-9.866 2.011-10.784l-7.24-4.216c-1.588.918-3.729 6.31-2.012 10.782 1.361 3.54 2.197 4.62 2.667 4.893l7.241 4.216c-.47-.273-1.31-1.352-2.667-4.891m1.22-10.717c-1.642 1.726-3.255 6.688-1.646 10.88q.615 1.655 1.417 3.227l-5.337-3.108c-.264-.154-1.034-.914-2.471-4.662-1.555-4.05.255-8.936 1.61-10.08z"/></mask><g mask="url(#d)"><path fill="#d4e6fc" d="m51.087 36.486-7.24-4.216c-1.587.917-3.729 6.309-2.011 10.782 1.361 3.54 2.197 4.619 2.666 4.893l7.241 4.216c-.471-.273-1.31-1.352-2.667-4.891-1.716-4.473.426-9.867 2.011-10.784"/><path fill="#0c5ae5" d="M51.744 52.617a.453.453 0 0 0 .23-.848c-.264-.153-1.034-.915-2.468-4.662-1.635-4.26.452-9.439 1.815-10.226a.454.454 0 0 0 0-.787l-7.24-4.216a.45.45 0 0 0-.456 0c-1.787 1.037-4 6.667-2.208 11.34 1.15 2.994 2.086 4.67 2.863 5.122l7.239 4.216q.105.06.225.06m-1.446-16.064c-1.642 1.726-3.256 6.687-1.646 10.88q.614 1.655 1.415 3.227l-5.337-3.107c-.264-.155-1.034-.916-2.467-4.663-1.555-4.051.255-8.937 1.611-10.081z"/></g></g><defs><clipPath id="a"><path fill="#fff" d="M0 .645h82v81H0z"/></clipPath></defs></svg>