<svg xmlns="http://www.w3.org/2000/svg" width="85" height="85" fill="none" viewBox="0 0 85 85"><g clip-path="url(#a)"><path fill="#f5d28e" d="M0 25.058V.626C0 .147.037 0 .589 0H84.41c.552 0 .589.147.589.626v24.432c-.368.442-.846.368-1.325.368H51.074a.77.77 0 0 1-.552-.147c-.295-.588.257-.736.552-.993a4.08 4.08 0 0 0 1.729-3.46 4.27 4.27 0 0 0-.736-2.17.96.96 0 0 0-.478-.589 10.8 10.8 0 0 0-1.62-1.545c-.147-.147-.294-.331-.478-.368l-.22-.11a1.03 1.03 0 0 0-.92-.148c-2.502-.147-4.048 1.546-4.38 3.496-.097.8.057 1.61.442 2.318.221.478.626.846.81 1.361.184.516.81.994 1.288 1.435s.552.295.515.663a.7.7 0 0 1-.662.257 55 55 0 0 0-6.992.074c-.552.037-.993-.294-1.472-.478-.478-.184-.33-.773-.184-1.215.148-.441.148-.772-.404-.81a1.18 1.18 0 0 1-.626-.809 1.9 1.9 0 0 0-.81-1.104 3.3 3.3 0 0 1-.514-.735.8.8 0 0 0-.332-.442l-.22-.22a1.14 1.14 0 0 0-.773-.553l-1.362-.699c-.662-.405-1.398-.184-2.134-.258a.66.66 0 0 1-.589-.183.26.26 0 0 1-.147-.295 1.25 1.25 0 0 1 1.03-.405c-.404-.257-.625.11-.883.295-.257.184-.184.257 0 .405.06.1.085.215.074.33a.96.96 0 0 1-.626.553c-.92.404-1.435 1.214-1.987 1.987-.159.184-.25.418-.257.662-.294.92-.515 1.84-.074 2.76a.7.7 0 0 1-.257.81 1.66 1.66 0 0 1-1.178.33H1.141A1.36 1.36 0 0 1 0 25.058"/><path fill="#f4a522" d="M85 78.342c0 2.06-.037 4.157 0 6.218 0 .368-.074.478-.442.442H0v-6.624a1 1 0 0 1 .81-.33h82.387c.589-.038 1.288-.258 1.803.293"/><path fill="#f49723" d="M0 48.462v-5.63c.515-.479 1.104-.442 1.73-.405 4.783.074 9.53.074 14.313 0a6.2 6.2 0 0 0 2.024-.147.59.59 0 0 1 .552.147c.22.147.294.405.478.589a5.04 5.04 0 0 0 2.245 1.545q.315.16.662.221a4.6 4.6 0 0 0 3.275-.405l.221-.11a5 5 0 0 0 1.509-1.398.85.85 0 0 0 .368-.516c.294-.478.33-1.03.699-1.435a.74.74 0 0 1 .33-.184h.148l.184.184c.154.335.18.715.074 1.068-.074.257-.258.515-.037.809.205.18.336.429.368.7a.74.74 0 0 0 .184.551c.478.331.956.22 1.472.22H56.74c.433-.037.868 0 1.288.111a.59.59 0 0 1 .479.515c0 .368-.295.368-.552.405s.478 0 .515.295c.037.294-.11.33-.295.404-.184.074-.588.074-.883.184a1.435 1.435 0 0 0-1.03 1.546c-.11.33-.368.33-.662.33s-.994-.073-1.436.222l-.367.073c-.736.147-1.51-.11-2.245-.036-.736.073-.626-.074-.81.22-.184.295-1.03.405-1.582.405H34.074c-.773 0-1.546-.11-2.171.515-.626.626-.258.074-.405-.037s-.147-.368-.22-.588c-.075-.221-.222-.037-.369 0-.147.036-.589-.11-.846-.295a.66.66 0 0 0-.7 0c-.294.221-.073.442 0 .663.074.22.037.588-.33.736a.8.8 0 0 1-.516-.074 3.8 3.8 0 0 1-1.067-.589c-.147-.22-.294-.478-.625-.331h-.368c-.773-.331-1.546-.442-2.318.037-.408.228-.86.366-1.325.405h-.147c-.736-1.03-1.95-.516-2.87-.884-6.145.736-12.29.148-18.399.332-.478 0-.993.073-1.398-.368"/><path fill="#f3a224" d="M85 71.2v1.84c-.405.368-.883.221-1.362.221H1.435c-.478 0-.993.147-1.435-.22v-3.165c.368-.405.846-.331 1.325-.368h33.41c.994 0 2.025 0 3.055.073a.74.74 0 0 1 .405-.073 1.8 1.8 0 0 1 1.214.699c.037.074-.037.184 0 .258.037.073.074-.148.147-.184a.74.74 0 0 1 .368-.074 6.9 6.9 0 0 0 1.914.258h.699a.85.85 0 0 1 .662.183.44.44 0 0 1 .037.626c-.331.478-.846.147-1.104.22s.662.185 1.03-.146c.136-.132.3-.233.479-.295.368-.184.552-.552.846-.81l.11-.183c.332-.184.552-.479.957-.515a.6.6 0 0 1 .331.11c.368.589-.11.957-.368 1.361l-.147.11.184-.146c.92.33 1.766.036 2.613-.295.678.135 1.369.196 2.06.184h33.117c.552 0 1.178-.184 1.656.332"/><path fill="#f49f23" d="M85 64.395v5.483c-.367.442-.845.368-1.324.368h-34a7.6 7.6 0 0 1-1.582-.073 1.44 1.44 0 0 0-1.104-.037.405.405 0 0 1-.515-.11.405.405 0 0 1 .037-.59c.294-.257.294-.883.92-.772.625.11.478.22.772.22s-.552.074-.736-.183a.6.6 0 0 1-.22-.442 1 1 0 0 1 .552-.81c.736-.33.772-.956.662-1.655v-.221a2.9 2.9 0 0 0 .11-.81c0-.073.037-.147.037-.22a2.43 2.43 0 0 0-.074-1.62c-.073-.588-.294-1.103-.367-1.655a.92.92 0 0 0-.221-.736.44.44 0 0 1-.11-.331c.11-.368 0-.92.588-.847a.957.957 0 0 1 .92.883c.11.626-.11 1.288.294 1.84.405.552.037.589.516.7.478.11.625.551.699.956s.441.515.81.515c.367 0 1.765-.073 2.612 0 .846.074 1.104-.11 1.14-.846.037-.736.773-.074 1.141.11l.92.331.184.11a1 1 0 0 0 .957.148 8.54 8.54 0 0 0 3.937-.736c.294-.11.662-.257.92.11a.96.96 0 0 1-.294.7h20.9a1.18 1.18 0 0 1 .92.22M38.01 69.728a.92.92 0 0 1-.661.294c-8.28-.294-16.559-.074-24.838-.147H0v-4.968c.331-.368.773-.257 1.177-.257H30.32c.382.03.766.005 1.141-.074.258-.073.368-.294.478-.515.11-.22.184-.405.442-.405s.405.258.515.479-.037.883.074 1.398c.257-.368.294-.92.883-.7l.515.148c.81.883 1.545 1.877 2.318 2.797.108.403.356.755.7.993.33.22.662.478.625.957"/><path fill="#f49723" d="M56.08 47.945c-.59-1.472-.406-1.656 2.28-2.245-.625-.442-1.324-.037-1.986-.331.478-.368.956-.147 1.398-.22.441-.075.552.073.515-.222-.037-.294-.294-.257-.515-.257a5.4 5.4 0 0 0-.773 0H30.174c-.478 0-1.067.184-1.287-.479-.221-.662.147-.588.183-.883.037-.294.148-.257.295-.294q.456-.091.92-.074h27.67c.7-.073 1.362-.662 2.061 0 1.325-.147 2.466.479 3.717.736.368.368.773.147 1.14-.037.368-.184 1.104.037 1.362.663.258.625.405.331.662.294 1.251-.22 2.502.037 3.717.037 1.214 0 2.134-.22 3.201-.037.442.074.81 0 .994-.515s.515-.478.883-.478c1.14.11 2.17-.221 3.238-.552 1.067-.332 1.472.036 2.17-.405h.074c.994.589 2.061-.037 3.091.073.27.021.527.124.736.295v5.483a1.29 1.29 0 0 1-1.067.368c-5.887-.037-11.775.036-17.662-.037-1.472 0-2.834-.331-4.269-.368a2 2 0 0 0-.81 0 2.5 2.5 0 0 1-1.471-.368c-.92-.81-1.84-.368-2.797-.11a.85.85 0 0 1-.662.147.37.37 0 0 1-.184-.184"/><path fill="#f3a323" d="M0 76.83v-1.804c.211-.223.502-.355.81-.368h82.387c.589 0 1.288-.184 1.803.368v1.803c-.294.368-.662.368-1.067.368H1.583c-.553 0-1.141.147-1.583-.368"/><path fill="#f3a323" d="M0 76.832h85v1.509H0z"/><path fill="#f29923" d="M0 48.46h17.589a3.35 3.35 0 0 0 1.692-.258.515.515 0 0 1 .81.258.9.9 0 0 1-.331.478 1.104 1.104 0 0 0-.295 1.325c.221.626-.11 1.398.332 1.987a.85.85 0 0 1-.037.515 3.4 3.4 0 0 1-.405.7.26.26 0 0 1-.258.073c-.073.147.11.147.11.257.165.498.203 1.03.111 1.546a.4.4 0 0 1-.257.405c-.184.073-.332-.11-.368-.221-.332-.736-.92-.736-1.546-.736H1.398c-.478 0-.993.11-1.398-.331z"/><path fill="#f3a323" d="M85 75.026H0v-1.324c.405-.368.883-.258 1.361-.258h82.204c.478 0 .993-.147 1.435.258z"/><path fill="#f39624" d="M85 42.977c-.662 0-1.288.037-1.914 0s-.736 0-.772.515a.296.296 0 0 1-.331.294c-.221-.036-.258-.184-.295-.33-.037-.148-.405-.884-.92-.332h-.184c-1.692-.184-3.238.92-4.93.662-.221-.036-.516-.073-.552.331-.037.405-.479.7-.957.663-2.024-.184-4.048.184-6.072-.11-.367-.037-.772.11-1.14.11s-.994.294-1.067-.589c-.074-.883-.7-.405-1.141-.405a.85.85 0 0 1-.994 0c-.552.148-.993-.147-1.471-.33-1.067-.442-2.282-.148-3.275-.774-.221.221.22.479-.11.663-.332.184-.406-.074-.59-.221a1.6 1.6 0 0 0-.846-.074H30.026a1.55 1.55 0 0 0-.81.074v.331a.22.22 0 0 1-.33 0l-.332-.662c0-.037.037-.037.037-.074s-.074-.184-.11-.294a.4.4 0 0 1 .073-.294v-1.288c.22-.184.074-.405.074-.626s.147.442-.074.626h-.147c-.479-.552-.147-1.325-.479-1.914a1.73 1.73 0 0 1-.073-.883c.073-.294.257-.589.625-.515s.368.405.405.7c.184.993.184.956 1.178.956 4.857-.037 9.75-.074 14.645 0q1.561.148 3.127.073c.515-.036 1.03.516 1.583.11.551-.404.22.038.22-.146s-.036-.515.295-.663c.33-.147 1.177.331 1.73.626.551.294.993.515 1.545.736s.956.257 1.104.846c.147.589-.184.147-.258.258-.074.11.147.11.037.073v-.073c.073-.148.184-.184.294-.295a1.47 1.47 0 0 1 1.178.221l1.803.589a5.6 5.6 0 0 0 2.134.699c.589.074 1.14.22 1.693.331a18 18 0 0 0 4.82.846c.589 0 1.177.221 1.766.184 1.722.221 3.466.221 5.188 0 2.171-.22 4.342-.404 6.403-1.03.589-.11 1.14-.294 1.693-.368a3.35 3.35 0 0 0 1.545-.405l.368-.11c.662-.11 1.251-.736 2.024-.368v.515c-.184.22-.552.11-.7.331a.33.33 0 0 1-.22.11l.368-.183a.44.44 0 0 1 .552.073z"/><path fill="#f6ce80" d="M0 31.055v-1.84c.405-.479.957-.331 1.472-.331h23.071c1.399 0 2.723-.332 4.122-.332.515 0 1.03.184 1.545 0 .196-.043.4-.03.589.037a5.4 5.4 0 0 0 3.495 0 .85.85 0 0 1 .516-.037c1.35.21 2.717.308 4.084.295 5.446.073 10.892 0 16.338.037a.96.96 0 0 0 .625-.11c.663-.369.7-.369.846.404 0 .074.037.184.037.258-.037.699.405 1.398.184 2.134-.22.736-.294.956-.956.515-.074-.7-.479-.81-1.141-.81h-19.65c-.699 0-1.471.184-2.207.148-.11.036-.221.11-.331.073-1.436-.515-2.907.037-4.38-.037-1.471-.073-2.943-.036-4.452-.036-.438.049-.88-.055-1.25-.295a.88.88 0 0 0-1.141.074.96.96 0 0 1-.957.147 3.9 3.9 0 0 0-1.14-.073H1.287c-.442 0-.92.11-1.288-.221"/><path fill="#f39923" d="M61.083 48.278c0-.22-.184-.625.33-.33a.77.77 0 0 0 .92.073.368.368 0 0 1 .553.11c.257.258.441.295.662-.037a.222.222 0 0 1 .442.037c.22.479.662.331 1.03.331H85v5.005a1.25 1.25 0 0 1-1.067.33c-4.526 0-9.052.075-13.578-.036-1.214-.037-2.428.147-3.606-.037-.515.037-.699-.368-.92-.699a3.2 3.2 0 0 0-1.214-1.398 2.4 2.4 0 0 1-.405-.589c-.073-.257-.036-.589-.367-.736l-.148-.147c-.073-.11-.22-.11-.368-.11a1.07 1.07 0 0 1-.552-.331 1 1 0 0 0-.404-.368c-.037-.037-.11-.074-.148-.148-.036-.073-.625-.368-.92-.552a.41.41 0 0 1-.22-.368"/><path fill="#f49b24" d="M66.565 53.65c.037-.22.11-.404.404-.404 2.981.258 5.925.22 8.905.22H85v4.453c-.368.442-.847.368-1.325.368H69.582c-1.14.074-1.251.147-1.582 1.251a.52.52 0 0 1-.258.405c-.478 0-.993.552-1.472 0a1.44 1.44 0 0 1 .148-.957 7.84 7.84 0 0 0 .036-4.415.77.77 0 0 1 .11-.92"/><path fill="#f39d22" d="M0 61.744v-3.827c.405-.442.92-.331 1.398-.331h15.197c.736 0 1.509.11 1.987-.7a.55.55 0 0 1 .589-.183.48.48 0 0 1 .294.625c-.257.847-.036 1.62.11 2.429a2.5 2.5 0 0 0 0 .736c0 .11-.036.257.148.184l.147-.11c.147-.111.22-.258.368-.369.147-.11.331-.699.626-.956a.63.63 0 0 1 .662.184l.11.22c.037.221.221.442.221.7s.147.147.22.147.884.368.92.956c.038.59.406.516.663.663.258.147.81.11.589.662-.22.552-.846.589-1.214.368a5 5 0 0 1-.994-.736 1.32 1.32 0 0 0-1.104-.405H1.287c-.44 0-.919.11-1.287-.257"/><path fill="#f5cf87" d="M30.394 28.776c-.552.294-1.104.073-1.656.147a33.6 33.6 0 0 1-5.446.294H0v-2.65a1.25 1.25 0 0 1 1.067-.33h24.58c.552 0 1.104.294 1.62-.074.514-.368.846.294 1.177.589q.092.099.147.22c.147.626.81.7 1.14 1.068.332.368.663.33.663.736"/><path fill="#f39d22" d="M67.412 59.905c.22-.037.294-.184.331-.405.221-1.472.221-1.472 1.656-1.582h15.602v4.158a1.29 1.29 0 0 1-1.067.368H67.339c-.81 0-1.399-.331-1.62-1.14a.516.516 0 0 1 .148-.626c.662.037.956-.626 1.545-.773"/><path fill="#f6d18b" d="M37.864 24.91c.147-.037.404-.148.478-.074.662.662 1.472.22 2.208.22 1.692 0 3.385.148 5.04-.11.516-.11.884.589 1.399.147a.59.59 0 0 1 .589-.147 5.3 5.3 0 0 0 2.281-.037.66.66 0 0 1 .626.184.735.735 0 0 0 .993-.147c.368-.441.773.147 1.215.11h1.619c10.229.037 20.458 0 30.688 0v1.51c-.368.404-.847.33-1.325.33q-9.31.075-18.656 0c-.772 0-1.508.295-2.281.295-.11 0-.11.184-.147.294a.517.517 0 0 1-.736.074c-1.582-.994-2.98-.663-4.305.441l-.331.148c-.7.147-.847-.663-1.362-.81a1.95 1.95 0 0 0-1.398-.442c-1.251 0-2.54.184-3.717-.036-2.207-.405-4.342.147-6.476.073-2.134-.073-4.305-.037-6.476-.037a1.03 1.03 0 0 1-.846-.22.7.7 0 0 1 .22-.957c.074-.11.258.184.331-.11.074-.295.037-.552.369-.7"/><path fill="#f39e21" d="M21.268 61.744c.7-.11 1.215.478 1.51.81.293.33.882.294 1.434.036l-1.435-.552c-.184-.073-.442-.184-.405-.441.037-.258.368-.148.552-.184s.663 0 .994.11c.633.345 1.34.535 2.06.552.36.104.739.116 1.104.037a6.15 6.15 0 0 0 4.49-2.503c.183-.257.33-.588.662-.736.33-.147.33-.33.625-.183l.148.147q.045.33.036.662v-.92c.39-.585.572-1.285.515-1.987a.81.81 0 0 1 .332-.846c.625-.074.625.405.625.81q.025 1.094.22 2.17a.55.55 0 0 1-.036.258c-.294.184-.589.368-.257.773a17.5 17.5 0 0 0-.221 3.68c0 .183-.11.33-.11.515.041.35-.01.705-.148 1.03l-.11.073c-.147-.036-.295-.257-.368.147-.074.405-.258.7-.368 1.068-.994-.59-.074-1.693-.7-2.429-.367.184 0 .846-.551.883a10 10 0 0 0-1.472-.073H1.177c-.404 0-.846.11-1.177-.258v-.662c.331-.405.81-.331 1.251-.331-.441 0-.92.073-1.251-.332v-.993c.258-.22.589-.147.883-.147 6.66 0 13.32-.037 19.98 0a.4.4 0 0 1 .295.073h.037c-.11-.036.11-.073-.037-.073a.33.33 0 0 1 .11-.184"/><path fill="#f5c76a" d="M53.134 40.182c-1.14-.332-2.097-1.067-3.164-1.472a.9.9 0 0 1-.442-.037 1.03 1.03 0 0 0-.552-.294.41.41 0 0 1-.257-.368c.184-.516.588-.442.993-.332s.479.258.736-.036c.258-.295.147-.11.184-.184a2.1 2.1 0 0 1 1.914-.184 7.9 7.9 0 0 0 2.06.22h28.812c.552 0 1.14-.147 1.582.369v2.318c-1.067-.037-2.024.552-3.09.404a25 25 0 0 0-3.68-.367H62.628a4.5 4.5 0 0 0-1.546.184 1.5 1.5 0 0 1-1.067 0 1.1 1.1 0 0 0-.772 0c-.626.294-1.251.551-1.84-.074-.037-.074-.148-.074-.221-.074-.736.221-1.472 0-2.208.074a4.4 4.4 0 0 1-1.84-.147"/><path fill="#f4c974" d="M85 34.185v1.84c-.406.44-.92.367-1.4.367H65.608c-.664-.036-1.33 0-1.987.11-.883.185-1.729-.147-2.575-.404a2.13 2.13 0 0 0-1.435-.037 7 7 0 0 1-2.282.331c-2.686-.037-5.372 0-8.058 0a4.3 4.3 0 0 1-1.546-.184c-.552-.184-.993.331-1.545.221a1.3 1.3 0 0 1-.663-.11 5 5 0 0 1-1.802-.81 2.06 2.06 0 0 1-1.03-.478c-.185-.147-.332-.294-.258-.552a.44.44 0 0 1 .404-.368c.92.147 1.914-.074 2.834.22.294.074.552.221.846.037a3.17 3.17 0 0 1 1.73-.33h5.482c1.398 0 2.797-.037 4.085-.663.349.07.676.222.956.442a3.46 3.46 0 0 0 3.533.11c.368-.184.699-.442 1.14-.258.442.184.92.516 1.435.11a.74.74 0 0 1 .81-.073c.626.294 1.288.147 1.95.147h16.117c.442 0 .92-.036 1.251.331"/><path fill="#f49b24" d="M19.281 59.907a1.4 1.4 0 0 0-.22-.847c-.295-.441-.479-.883.036-1.361.516-.479.295-.589.037-.736-.257-.147-.441.184-.515.441-.073.258-.625.515-1.067.515H0v-3.458h17.662c.81 0 1.288.257 1.325 1.104a4.34 4.34 0 0 0-.074-2.061h.332c.257.147.257.368.257.626.085.399.098.81.037 1.214.013.733.202 1.453.552 2.097l.11.22c.11.406.589.663.442 1.178-.147.516-.22.258-.11.442s.036.846-.258 1.178a.405.405 0 0 1-.331.33 2.13 2.13 0 0 1-.663-.883"/><path fill="#f4c870" d="M45.958 36.207c.883-.258 1.656-.59 2.65-.258.993.331 2.023.074 3.053.074h2.98c1.804-.037 3.607.22 5.336-.442.7-.294 1.325.22 1.987.405a3.9 3.9 0 0 0 1.95.074q.496-.075.994-.037H85v1.84H54.716c-.773 0-1.583.036-2.355-.295a1.95 1.95 0 0 0-1.877.294c-.074.295.073.92-.515.258a.883.883 0 0 0-1.178-.147.26.26 0 0 1-.368.037c-.184-.074-.294-.221-.478-.258a1.5 1.5 0 0 1-.662-.368 4 4 0 0 0-.92-.589.74.74 0 0 1-.442-.367.5.5 0 0 1 .037-.221"/><path fill="#f5d087" d="M62.406 27.562c.11-.368.11-.7-.441-.884.993.7 1.766-.147 2.65-.147 6.77.074 13.577.037 20.385.037v2.65c-.405.441-.92.367-1.399.367H66.013c-.516 0-1.068-.036-1.436.442s-.662-.147-.81-.442a8 8 0 0 0-.588-.956 2 2 0 0 0-.625-.479c-.184-.147-.332-.33-.148-.588"/><path fill="#f39623" d="M18.325 42.462c-1.104.441-2.245.331-3.349.368-3.79.037-7.58.074-11.333-.037-1.214-.037-2.429 0-3.643.037v-.663q.441-.33 0-.662v-1.177c.11-.11.147-.295.331-.368.21-.095.434-.157.663-.184.551.073 1.14.404 1.545-.295a.516.516 0 0 1 .625-.184c.27.043.545.03.81-.036 3.606-.184 7.249-.037 10.892-.11.281.013.561-.05.81-.185.551-.368.92-.22 1.103.368q.103.18.184.368c.15.2.217.451.184.7-.037.33-.331.551-.294.882l.11.11h.184c.258.038.331.442.663.369a.66.66 0 0 1 .515.699"/><path fill="#f3a224" d="M47.799 69.875H85V71.2H49.565a3.8 3.8 0 0 1-1.766-.332c-.589-.33-.589-.441 0-.993"/><path fill="#f4c564" d="M53.133 40.184a3.8 3.8 0 0 0 1.692-.258l.258-.073c.883.368 1.766-.074 2.65 0 .257 0 .551-.037.257.368s.074.294.258.22l.81-.404a.7.7 0 0 1 .514-.184c2.134.368 4.232-.148 6.33-.037s4.268.037 6.402.037 4.305-.148 6.44.036c1.25.11 2.575-.073 3.752.552a.26.26 0 0 0 .368-.073c.332-.589.626-.7 1.325-.368.254.117.53.18.81.184v.993c-.479.221-1.03.11-1.509.442-.478.331 0 .073-.074 0-.883-.552-1.508.184-2.207.441a2.02 2.02 0 0 1-1.472 0 5.6 5.6 0 0 0-1.73-.22H62.37a4.3 4.3 0 0 0-1.803.257c-.479.184-.957 0-1.472 0a7.4 7.4 0 0 1-1.803-.257c-1.067-.184-1.987-.736-2.98-.994-.332-.368-.847-.368-1.178-.662"/><path fill="#f49f23" d="M65.791 61.08c.552 1.068 1.509 1.031 2.502.994H85v1.987c-.35.185-.75.25-1.14.184h-19.87c-.737.074-.773.037-.516-.736.258-.772.368-.846.736-1.177.311-.152.568-.396.736-.7.22-.257.405-.588.846-.551"/><path fill="#f6d18b" d="M27.56 26.237c-.514.11-.22.625-.514.92-.516-.7-1.252-.59-1.95-.59H0V25.06h25.463a4.8 4.8 0 0 0 1.435-.184l.11.074c.038.22.185.33.405.441a.59.59 0 0 1 .295.626.37.37 0 0 1-.147.22"/><path fill="#f6cd7d" d="M85 30.874v1.987a1.29 1.29 0 0 1-1.067.367H67.448c-.662 0-1.288-.184-1.987.11-.7.295-1.14.038-1.62-.33-.478-.368.038-1.178.405-1.656.369-.479 1.325-.883 2.098-.883 4.305.147 8.61.037 12.952.073h4.563c.405 0 .81-.037 1.14.331"/><path fill="#f6ce81" d="M84.999 30.871H65.202c-.441 0-.405.294-.478.589-.074.294-.221.257-.331 0-.11-.258-.552-.92-.11-1.435.44-.515.478-.883 1.177-.847h19.539z"/><path fill="#f7cc7d" d="M20.606 31.205a.63.63 0 0 0 .589-.184c.515-.552 1.14-.626 1.656-.11a1.14 1.14 0 0 0 .956.294h5.851a2.8 2.8 0 0 0 .957-.184c.478-.11.993-.626 1.472.11.073.147.515.074.772.074.92.441 1.877.11 2.797.11h19.318a1.6 1.6 0 0 1 .589.037c.368.184.404.442.037.7s-.736.183-1.104.183H43.199c-.302-.041-.61.01-.883.147a1 1 0 0 1-.736.074.9.9 0 0 1-.441-.074c-.92-.441-1.877-.33-2.834-.036-.956.294-2.17-.074-3.238-.184-.22 0-.405.184-.625.257l-.405.074a46.6 46.6 0 0 0-10.12-.59c-.956 0-1.913.332-2.87.222a7.4 7.4 0 0 1-1.545.184c-.846-.258-1.73-.11-2.576-.037a1.21 1.21 0 0 0-1.067 0c-1.067.515-2.17.11-3.238.074-.147 0-.294-.074-.405-.037-1.876.294-3.716-.221-5.593-.11-1.876.11-3.753.036-5.63.036A1.14 1.14 0 0 1 0 31.867v-.662c.258-.096.538-.122.81-.074h17.33q1.236-.045 2.466.074"/><path fill="#f5cb78" d="M63.915 32.86c.479.184.994-.184 1.472.294.479.478.515-.22.626-.515s-.037-.442.257-.662c.074 1.03.773.92 1.435.92H85v1.324H67.742a2.1 2.1 0 0 0-1.067.11.515.515 0 0 1-.773-.183c-.257-.332-.588-.332-.956-.074s-1.067.589-1.693-.368.11-.81.662-.846"/><path fill="#f4c460" d="M59.095 41.838c6.476-.7 12.952-.184 19.392-.331a3.5 3.5 0 0 1 1.36.22c.92.369 1.767 0 2.466-.662.184-.11.405-.294.479-.147.478.883 1.14.147 1.692.258H85v.147c-.68.16-1.346.381-1.987.662a.367.367 0 0 0-.625 0c-.426.117-.834.29-1.214.515a8.2 8.2 0 0 1-1.656.331c-.994.258-1.95.037-2.907-.11.184.074.478-.037.478.258 0 .294-.257.33-.478.33-.71.056-1.424.056-2.134 0a.44.44 0 0 1-.184-.183c-.074-.442.294-.368.33-.405-1.729.147-3.679.147-5.666.147s-3.385-.368-5.041.148l-.258.073a15 15 0 0 1-2.575-.258 6.3 6.3 0 0 1-1.656-.33c-.11-.221-.589-.258-.331-.663"/><path fill="#f3a224" d="M0 73.043h85v.331c-.258.22-.589.147-.883.147H19.318a4.9 4.9 0 0 0-1.25-.073H1.287c-.442 0-.92.11-1.288-.258z"/><path fill="#f6cb78" d="M0 34.185V32.86c.368-.405.846-.331 1.325-.331 3.68-.037 7.359 0 11.075 0q.317.039.626-.037c.7-.294 1.14-.073 1.435.552.294.626-.11.589-.405.7a25 25 0 0 1-2.796.993.92.92 0 0 1-.81-.074c-.22-.184-.515-.11-.773-.11H1.214c-.404 0-.883.037-1.214-.368"/><path fill="#f4c974" d="M0 34.184h9.751c.331 0 .773-.148.883.367a.295.295 0 0 1-.147.479c-1.067.515-2.024 1.214-3.238 1.361a2.24 2.24 0 0 1-1.288-.22.7.7 0 0 0-.478-.037c-1.546.404-3.091.11-4.673.184a.92.92 0 0 1-.81-.295z"/><path fill="#f5cc7d" d="M14.461 33.227c-.662-.846-1.509-.368-2.281-.368H0v-.994h9.089c.625 0 1.214-.11 1.766.295a.52.52 0 0 0 .405.037c.92-.59 1.84-.074 2.76 0a4.9 4.9 0 0 0 1.913-.332c.294.258.662.184.993.184.332 0 1.693-.147 2.54 0-.037.331-.258.405-.516.405a3.5 3.5 0 0 0-1.177.331l-2.466.589a.77.77 0 0 1-.846-.147"/><path fill="#f39e22" d="M0 64.396h30.652c.441 0 .883-.037 1.214.33-.331.295-.736.185-1.104.185H0zM0 63.07h19.833l1.067.074c.184 0 .479-.11.405.22-.073.332-.184.332-.405.369H0z"/><path fill="#f3a323" d="M85 73.705H0v-.184c.332-.159.705-.21 1.067-.147h17.258c21.894.184 43.788.037 65.682.074a2.3 2.3 0 0 1 .993.073z"/><path fill="#f3a223" d="M85 73.52H0v-.147c.22-.147.442-.073.662-.073H18.62c.22 0 .442-.074.662.073H85z"/><path fill="#f4c971" d="M0 36.023h4.232c.441 0 .883.147 1.177-.369a.294.294 0 0 1 .515.037c.368.479.883.479 1.399.515a.33.33 0 0 1-.148.405c-1.03.7-1.987 1.472-3.201 1.803-.258 0-.589.037-.7-.294s.074-.331.258-.368c-1.177.331-2.355.073-3.532.11z"/><path fill="#f39d22" d="M63.584 63.255c.148.294-.147.552-.11.81H85v.33c-7.58.074-15.123-.147-22.74.11.699-.073.883-.661 1.14-1.14.258-.478.037-.184.184-.11"/><path fill="#f39e22" d="M21.268 61.746v.331H0v-.33z"/><path fill="#f4c76a" d="M0 37.863a2.65 2.65 0 0 1 1.398-.367c.81 0 1.583.33 2.502-.074-.552.662-.552.662.11.773 0 .552-.478.699-.845.846l-.884.515c-.404.147-.736.515-1.214.368a.88.88 0 0 0-.736.22L0 40.33z"/><path fill="#f5cc7d" d="M20.606 31.204c-.92.331-1.84 0-2.76 0H0v-.147h19.024c.515 0 1.104-.368 1.582.147"/><path fill="#f3a224" d="M19.281 73.373H0v-.184h18.214c.368 0 .736-.073 1.067.184"/><path fill="#f49723" d="M0 41.508c.22.037.552-.11.589.257.037.368-.295.405-.589.405zM85 42.168h-.662c.074-.404.368-.33.662-.33z"/><path fill="#fefefe" d="M28.406 27.082v-.184a2 2 0 0 1-.294-.478c0-.074-.037-.11-.037-.184s-.11-1.104-.883-.994a.5.5 0 0 1-.074-.22c-.06-.33-.048-.67.037-.994.442-.331.147-.883.368-1.251-.257.331.147.92-.405 1.214-.735-.589-.294-1.361-.22-2.024.073-.662.22-.404.22-.625a.66.66 0 0 1 .074-.368c1.067-.442 1.509-1.435 2.06-2.318l.663-.368a.52.52 0 0 1 .368-.184c.883-.074 1.766-.221 2.612.147.483.127.934.352 1.325.662q.365.395.81.7l.147.147c.147.147.184.367.368.478l.515.699c1.214 1.582.7 4.195-.773 5.667a5.004 5.004 0 0 1-6.88.478M45.001 23.257c-.257-.368-.515-.699-.736-1.067a4.08 4.08 0 0 1-.184-4.232 4.19 4.19 0 0 1 3.9-2.354h.48c.33.11.698.147 1.03.294h-.037c.184.22.478.184.625.368.736.331 1.14 1.03 1.693 1.545l.515 1.104a.5.5 0 0 1 .074.258c.036.478 0 .993 0 1.509-.184 2.355-3.128 4.526-5.814 3.606A4.16 4.16 0 0 1 45 23.258"/><path fill="#865022" d="M28.406 27.083a.92.92 0 0 1 .7.184c2.06.993 3.973.846 5.703-.663s1.987-3.422 1.25-5.52v-.146c.737.441.92 1.287 1.289 1.986s.515 1.914 0 2.76l-.331.847a2.65 2.65 0 0 1-2.318 2.244 5.2 5.2 0 0 1-4.306 0c-.736-.478-1.582-.81-1.987-1.692"/><path fill="#875021" d="M52.14 19.096c-.036-.037-.036-.074-.036-.147 0-.074-.184-.442.184-.515 1.067 1.729 1.177 3.495-.037 5.225a6.6 6.6 0 0 1-1.766 1.435 4.97 4.97 0 0 1-3.496 0 3.39 3.39 0 0 1-1.987-1.84c.189.024.367.1.515.22 2.613 1.583 5.52.48 6.513-2.391q.03-.174.11-.331a3.6 3.6 0 0 0 0-1.656"/><path fill="#fcfdfa" d="M29.217 18.656a3.05 3.05 0 0 1-.479 1.509 1.325 1.325 0 0 1-1.508.773c-.074-.074-.11-.11 0-.184a4.23 4.23 0 0 1 1.987-2.098"/><path fill="#f8d091" d="M37.348 25.684a7 7 0 0 0 0-2.76c.073-.258.257-.405.478-.22a.846.846 0 0 1 .22 1.03 2.17 2.17 0 0 0-.183 1.177 1.14 1.14 0 0 1-.295.883c-.147.184-.183.037-.22-.11"/><path fill="#fcfdfa" d="M27.23 21.233c-.038.7-.516 1.288-.332 2.024s-.037.552.331.662v1.178c-.184.037-.257-.074-.331-.184-.331-1.214-.478-2.429.037-3.643a.18.18 0 0 1 .223-.083q.04.015.071.046"/><path fill="#f7d193" d="M29.879 17.587c.22-.846.515-.883 1.913-.147-.625.368-1.288-.037-1.913.147"/><path fill="#f8d094" d="M46.805 14.278c-.11-.037-.257-.11-.184-.184s2.135-.147 2.502.184a3.57 3.57 0 0 1-2.318 0"/><path fill="#f6d488" d="M46.805 14.277h2.318c-.515.479-1.803.479-2.318 0"/><path fill="#f1dfb1" d="M32.86 18.252a7.1 7.1 0 0 0-2.65 0c-.074-.295.257-.184.331-.295.773.074 1.619-.294 2.318.294"/><path fill="#fdfae4" d="M35.03 19.613a.846.846 0 0 1-.81-.699 1.18 1.18 0 0 1 .81.7"/><path fill="#927352" d="M52.289 18.436c-.184.148-.11.368-.184.516a2.2 2.2 0 0 1-.332-1.104c.227.14.407.345.516.588"/><path fill="#f7d193" d="M29.88 17.958c-.184-.074-.515.073-.479-.22.037-.295.295-.111.479-.148z"/><path fill="#f7f1d7" d="M49.491 15.934a1.29 1.29 0 0 1-1.03-.294 1.29 1.29 0 0 1 1.03.294"/><path fill="#fdf8e3" d="M50.08 16.299c-.258-.037-.553 0-.626-.368-.074-.368.515.11.625.368"/><path fill="#f3d695" d="m30.541 17.955-.33.294h-.332v-.331h.662z"/><path fill="#faf1d5" d="M27.23 21.23h-.295a.48.48 0 0 1 .294-.515v.515"/><path fill="#fdf5de" d="M35.546 20.236c-.295 0-.368-.22-.368-.478a.55.55 0 0 1 .368.478"/><path fill="#f29923" d="M31.535 49.122c.073.184.257.368.294.11.037-.257.552-.588.957-.588H49.27c.588 0 1.104-.037 1.545-.515.442-.479.368.073.479.22a1.29 1.29 0 0 0 .662.957c.184.184.478.258.589.515.11.258-.552.847-.479 1.362-.22 1.104-.81 2.134-.993 3.238a7 7 0 0 0-.221.957.405.405 0 0 1-.258.404.293.293 0 0 1-.33-.294c-.148-.736-.737-.7-1.289-.7-1.876.075-3.79-.146-5.666.111-.515.074-.883-.515-1.435-.257-.552.257-2.208.33-3.312.515-.275.018-.55-.02-.81-.11a4.9 4.9 0 0 0-3.753.147.33.33 0 0 1-.294-.148c-.184-.367-.258-.22-.331.074a.6.6 0 0 1-.295.22c-.073.038-.147 0-.257-.036l-.148-.184a18 18 0 0 0-.662-1.84 1.2 1.2 0 0 0-.331-.589c-.368-.552-.957-.92-1.104-1.582a.59.59 0 0 1 .258-.441c.515-.258.184-.405-.074-.552a.74.74 0 0 1-.037-.626.66.66 0 0 1 .442-.441.44.44 0 0 1 .368.073"/><path fill="#fefefe" d="M19.282 55.453c-.11-.435-.11-.89 0-1.325.405-.368.074-.92.294-1.361v-.442c.074-.184.037-.405.11-.625a.5.5 0 0 1 .075-.221c.22-.221.367-.515.588-.773s.258-.22.331-.405c.108-.15.246-.275.405-.368q.192-.095.331-.257l.184-.11c.331-.332.81-.221 1.178-.405l1.25-.368a4.45 4.45 0 0 1 2.503 0h.331c.255.008.5.098.7.257l.993.552c.147.368.405.368.736.331a1.58 1.58 0 0 1 1.03.92 6.22 6.22 0 0 1 1.398 4.38c-.11 2.428-1.987 4.93-4.305 5.629a1.7 1.7 0 0 1-.736.073 1.5 1.5 0 0 0-.81-.036c-.514.073-1.066.147-1.581-.221-.516-.368-.847-.037-1.288-.147l-.184-.11a1.2 1.2 0 0 0-.59-.185.77.77 0 0 1-.367-.22c-.184-.148-.184-.405-.442-.442l-.478-.368a.37.37 0 0 1-.147-.184 1.25 1.25 0 0 0-.81-1.288.15.15 0 0 1-.073-.147c.073-.81-.332-1.619-.037-2.429-.184.221-.294.516-.589.295M18.325 42.465l-.588-.626c-.332-.147-.442-.478-.663-.736-.22-.258-.037-.442-.11-.626-.074-.183 0-.478-.184-.662a4.16 4.16 0 0 1-.184-2.833l.147-.221a6.4 6.4 0 0 1 2.318-2.723c.368-.073.626-.405 1.03-.405.46-.014.912-.127 1.325-.33 2.171-.258 3.717.735 4.894 2.428a6.2 6.2 0 0 1 .92 2.539c.22 2.355-1.546 5.593-5.115 5.777H21.6c-.883-.184-1.84-.147-2.502-.883-.184-.184-.405-.295-.478-.552a.33.33 0 0 0-.295-.148"/><path fill="#865020" d="M19.098 42.98a6.8 6.8 0 0 0 2.539.81c.11.184.147.184.405 0 1.361-.184 2.612-.663 3.532-1.73a4.894 4.894 0 0 0 .663-5.85 1.6 1.6 0 0 1-.148-.368.404.404 0 0 1 .479-.11c.772.625 1.545 1.287 1.508 2.465l.148.662c.122.705.135 1.425.036 2.134-.294.478-.294 1.104-.662 1.509s-.258.331-.368.515a3.4 3.4 0 0 1-1.656 1.472 4.5 4.5 0 0 1-3.68.515c.074-.147.295-.074.405-.22.11-.148.442-.111.626-.111a.96.96 0 0 0-.81.22c-.296.05-.6.025-.883-.073a4.08 4.08 0 0 1-2.318-1.656c0-.147.037-.257.184-.184"/><path fill="#f39826" d="M19.908 51.774c.036.257-.148.404-.295.552a1.29 1.29 0 0 1-.368-1.03 2.43 2.43 0 0 0-.22-1.325c-.295-.59.183-1.215 1.066-1.51.295-.146 2.208-.11 2.282.075.073.183-.11.699.441.625l-1.177.662c-.331-.33-.662-.588-1.14-.33-.48.257-.406.809-.442 1.287-.037.478-.405.626-.148.994"/><path fill="#f29921" d="M52.473 49.784c-.295 0-.59.074-.663-.331s-.552-.589-.515-1.03a.37.37 0 0 1 .184-.295c.773-.33 1.545.074 2.318 0 .773-.073.552.331.479.736a.77.77 0 0 1-.552.515c-.295.037-.59 0-.773.332a.294.294 0 0 1-.479.073"/><path fill="#f19b22" d="m30.061 50.927-.883-.772c-.037-.148-.405-.074-.294-.368.11-.295.331-.368.331-.663l.11-.073c.773 0 .994.81 1.546 1.067.552.258.368-.22.552-.331.515.883-.368.956-.7 1.324-.33.368-.44-.11-.662-.184"/><path fill="#f19b22" d="M31.203 49.125a.294.294 0 0 1-.331.33c-.368.332-.626.075-.883-.183-.258-.258-.442-.405-.773-.147-.184 0-.405.073-.515-.147-.11-.221.147-.258.22-.368s.957-.663 1.473-.11a.74.74 0 0 0 .478.294q.552-.147.331.33"/><path fill="#f49723" d="M54.127 48.13c.368-.663.993-.11 1.509-.295.515-.184.294.074.441.11h.037c-.184.7-.773.626-1.288.736a.77.77 0 0 1-.699-.551"/><path fill="#ed9c30" d="M26.567 48.792h-2.503c.847-.552 1.656-.442 2.503 0"/><path fill="#f5962a" d="M31.204 49.124q0-.258-.331-.331c.037-.258-.037-.663.331-.589s.258.589.331.92z"/><path fill="#fefcef" d="m28.886 49.784.294.368c-.257 0-.478.478-.772.22-.295-.257.257-.44.147-.735z"/><path fill="#f1972f" d="m54.128 48.129.662.331c-.036.478-.294.515-.662.368l-.331-.7z"/><path fill="#f49723" d="M51.479 48.128v.331a.22.22 0 0 1-.331 0l-.332-.331q.332-.662.663 0"/><path fill="#f39423" d="M28.26 40.99c0-.7 0-1.435-.037-2.135.33.626.11 1.325.184 1.988z"/><path fill="#ed9c30" d="M27.56 49.086a1.03 1.03 0 0 1-.699-.257c.515-.59.515.073.7.257"/><path fill="#ef9c17" d="M26.531 44.709c0 .11-.073.22-.184.184-.11-.037-.294-.037-.294-.221s.11-.11.184-.147a.22.22 0 0 1 .294.184"/><path fill="#eb9c1e" d="M18.913 44.157c-.037.184.11.515-.184.515s-.11-.331-.147-.515a.22.22 0 0 1 .331 0"/><path fill="#f09a19" d="M28.887 43.492h.33c0 .258.075.589-.33.663z"/><path fill="#fc922a" d="M18.913 44.156h-.331c.074-.184-.074-.515.22-.515.295 0 .111.33.111.515"/><path fill="#904b08" d="M21.232 44.816h1.03l-.367.184a.85.85 0 0 1-.663-.184"/><path fill="#f39423" d="M28.554 42.168v.331a.22.22 0 0 1 0 .331c-.515-.22-.147-.441 0-.662"/><path fill="#955612" d="M27.229 43.015c0-.257.036-.478.367-.515a.77.77 0 0 1-.367.515"/><path fill="#af7a3f" d="m19.098 42.977-.184.184a.48.48 0 0 1-.295-.552z"/><path fill="#865021" d="m47.947 67.52-.479.663c-.515.552-.699 1.435-1.656 1.545h-.257a9.4 9.4 0 0 1-3.643.22.66.66 0 0 1-.589-.367.3.3 0 0 1-.073-.258c.257-.552.846-.588 1.288-.772 2.575-.92 4.084-2.686 4.526-5.373a6.26 6.26 0 0 0-.184-2.612c-.11-.368-.332-.773-.11-1.178a.7.7 0 0 1 .514-.184.92.92 0 0 1 .7 1.03l.147.185c.257.147.22.478.33.662s.442 1.177.369 1.803c.11.608.11 1.231 0 1.84-.331.22-.074.552-.184.846l.073.147c-.073.7-.184 1.362-.772 1.803"/><path fill="#f3a223" d="m45.81 69.729 1.657-1.545v.515c-.516.22-.626.773-.847 1.288l.847-.405c.404-.22.294.11.33.294.038.184-.514.663 0 .994-.92.92-.92.92-2.317.184 0-.258-.479-.589.147-.736.625-.147.184-.368.184-.589"/><path fill="#86511d" d="M41.323 69.363a1.14 1.14 0 0 0 .993.368h3.238c-.294.147-.552.441-.883.478a3.13 3.13 0 0 1-1.987.331h-.257c-.148.037-.405-.478-.516.074l-.073.147c-.7 0-1.398.074-2.024-.331 0-.037 0-.037.037-.074s-.074-.368-.074-.552l.11-.22c.48-.184.884-.736 1.436-.221"/><path fill="#885124" d="M41.322 69.362c-.552-.11-.956.442-1.472.368-.515.478-1.03-.184-1.508 0h-.331c-.479-.626-1.325-.957-1.509-1.803.294-.22.589-.074.846.037a7.8 7.8 0 0 0 3.275.92.85.85 0 0 1 .7.33z"/><path fill="#f3a323" d="M39.372 71.532c-.43.182-.907.22-1.361.11-.074-.331.294-.22.368-.441.073-.221-.405-.11-.59-.184-.183-.074-.514-.258-.44-.516.073-.257.478-.147.662-.036.263.142.5.328.699.552.187.21.411.386.662.515"/><path fill="#87531b" d="M38.342 69.73c.478-.736.993.11 1.508 0v.147a.333.333 0 0 1 0 .478h-.33c-.074.074-.111.037-.185 0z"/><path fill="#f3a323" d="M43.383 71.46c-.994.369-1.767.222-2.54.222v-.221z"/><path fill="#915020" d="M42.5 70.391c.514-.036 1.03.11 1.471-.257.442-.368.479-.037.7.073l-.074.148a2.25 2.25 0 0 1-1.067.515.66.66 0 0 1-.368-.147h-.663c-.11-.11-.073-.221 0-.332"/><path fill="#f3a223" d="m43.493 70.687 1.103-.331c-.073.478-.478.699-.772 1.03a.85.85 0 0 1-.331-.7M45.517 71.054a1.14 1.14 0 0 1-.626.626c-.147.036-.33-.074-.257-.184s.147-.59.515-.516z"/><path fill="#f3a323" d="M43.493 70.688c.368.11.331.404.331.699h-.662v-.663zM39.335 70.39h.184c-.037.221.074.59-.258.59-.33 0-.367-.148-.073-.332s.11-.184.147-.257"/><path fill="#7f5219" d="M42.5 70.392v.33h-.662v-.183c.11-.442.405-.331.662-.147"/><path fill="#865021" d="m63.586 63.255-.184.11a8.57 8.57 0 0 1-4.93 1.03l-.185-.11c-.258-.074-.515 0-.736-.184-.81.11-1.361-.589-2.097-.7a.48.48 0 0 1-.7-.11.85.85 0 0 1-.183-.551c.11-.516.515-.663.92-.847.404-.184 1.25.148 1.876.221 2.944.22 5.262-.846 6.881-3.348.184-.221.294-.516.589-.663.294-.147.11-.184.073-.294 0-.92.368-1.766.332-2.686-.01-.904-.171-1.8-.479-2.65-.147-.368-.33-.699 0-1.067.957.442 1.251 1.435 1.803 2.245.736 2.17.773 4.305-.184 6.44a.59.59 0 0 1-.33.662l-.258.33-.7.737c-.404 0-.515.294-.625.625z"/><path fill="#f49c24" d="m47.982 60.237-.662-.81-.994-.515c-.478-.257-.736-.736-1.104-1.14-.367-.405-1.766-1.325-2.87-1.693-.33-.11-.699-.147-.883-.515s.074-.368.148-.515q.07-.195.183-.368c.037-.037.037-.074.037-.147v-.074c.184-.552.479-.331.736-.074a.96.96 0 0 0 .883.148 10.4 10.4 0 0 1 2.134-.074h3.643c1.141 0 1.141 0 1.325 1.104.22-.405-.074-.92.22-1.288a.48.48 0 0 1 .295.405c0 .883.331 1.766.258 2.65a9.4 9.4 0 0 1-1.14 1.729 1.47 1.47 0 0 0-.259 1.582c.184.589.295 1.14-.478 1.435-.368-.294-.625-.589-.405-1.14.221-.553 0-.295.037-.442s-.257-.773-.625-.883-.148.515-.479.625"/><path fill="#f39e21" d="M49.454 62.074a1.325 1.325 0 0 0 .11-1.508 1.325 1.325 0 0 1 .332-1.656c.478-.405.551-1.214 1.214-1.472s.478.294.589.552c.003.233.067.46.184.662.22.368.515.663.552 1.104.036.442-.148.368-.148.552.11.994.074 1.03-.92.81-.257-.258-.294-.773-.81-.994.369.331.553.589.332.994a.33.33 0 0 1-.258.11h.037c.663-.147 1.325.037 2.024-.11.7-.148.626.551.957.81h.22q.287.255.479.588c.258.368.22.662-.331.589a.59.59 0 0 0-.589.22 6.7 6.7 0 0 1 1.546-.147l.478.147c.552 1.067.478 1.178-.773 1.178H51.22c-.441 0-.883.037-.662-.736.074-.22-.589-.478-.478-.994-.442.148-.148.552-.442.773-.331-.441-.074-.956-.184-1.472"/><path fill="#f3a223" d="m47.945 67.52.773-1.766a1.8 1.8 0 0 1-.515 1.84c-.11.11-.184 0-.258-.074M47.395 68.737c.441-.036.846.037 1.177-.257.331-.295.331-.147.405.037.073.184-.074.294-.147.33a1.067 1.067 0 0 1-1.435-.11"/><path fill="#914f24" d="M48.828 64.727v-1.84a2.87 2.87 0 0 1 0 1.84M48.644 65.608c-.074-.331-.405-.662.184-.846.048.295-.018.598-.184.846"/><path fill="#e49d3f" d="M58.433 64.285a.15.15 0 0 0 .036.11c-.294-.073-.625.184-.846-.147a.74.74 0 0 1 .81.037"/><path fill="#f49c24" d="m48.46 61.08-.331-.662c.405.074.331.405.331.662"/><path fill="#914b01" d="M58.432 64.284h-.81l-.073-.147c.294-.037.625-.147.883.147"/><path fill="#fefefe" d="M41.47 55.451c1.545.442 3.017.957 4.12 2.208.332.331.369.92.92 1.067.553.147.442.368.332.7 1.178 2.943.7 5.592-1.509 7.837a6.8 6.8 0 0 1-4.01 1.95 8.57 8.57 0 0 1-4.82-1.288 11.7 11.7 0 0 1-2.282-2.907l-.147-.147a.63.63 0 0 1-.037-.441 1.36 1.36 0 0 0-.147-.847 8.9 8.9 0 0 1 .33-3.937.8.8 0 0 1 .295-.552v-.074a1 1 0 0 1 .184-.404.515.515 0 0 0 .294-.516c.442-.883.994-1.655 2.024-1.95a1.03 1.03 0 0 0 .626-.33c.662-.443 1.435-.369 2.134-.626.7-.258 1.214-.221 1.693.257"/><path fill="#f39e21" d="M34.184 64.91a.15.15 0 0 1 .036.11c-.073.111-.11.221-.184.258-.073.037-.147-.11-.184-.22-.036-.111.148-.258.332-.148"/><path fill="#fefefe" d="m51.479 58.101-.368-.662c-.24-1.037-.35-2.1-.331-3.164.231-1.065.577-2.1 1.03-3.091.552-.736.92-1.656 1.876-2.024a.52.52 0 0 0 .442-.331.92.92 0 0 0 .662-.368l1.325-.479.662-.184c.994-.22 1.987-.368 2.98 0l1.326.479.33.22c.074.626.626.479 1.031.626.074.184.294.22.442.331a.77.77 0 0 0 .551.331c.11.11.258.184.332.332.297.213.527.506.662.846.074.147.11.331.331.441.258.883.662 1.693.773 2.65a8.7 8.7 0 0 1-.478 4.01c-1.141 2.135-2.723 3.68-5.152 4.232a8.17 8.17 0 0 1-4.416-.257c-.257-.037-.515.073-.735-.074l-.59-.294-.294-.11a2.5 2.5 0 0 1-.441-.442 3 3 0 0 0-.773-.589c-.294-.184-.294-.515-.331-.81a2.7 2.7 0 0 1-.626-.956 1.03 1.03 0 0 0-.22-.663"/><path fill="#f49723" d="M29.217 43.163c.257-.22.588-.147.883-.147 9.089-.037 18.214-.037 27.303 0 .294 0 .626-.074.883.147z"/><path fill="#ec992c" d="M59.758 47.797h-2.98c.073-.331.33-.331.588-.331.416.016.83-.06 1.214-.221.516-.258.773.368 1.178.552"/><path fill="#f2972c" d="M57.477 46.693c.33-.294.552-.184.956-.11a.77.77 0 0 1-.956.11"/><path fill="#ed9b1e" d="M63.732 43.824h.994q-.478.773-.994 0"/><path fill="#fcfcf9" d="M19.576 52.766c.294.552.625 1.104-.295 1.361v-.662c.11-.221-.073-.589.295-.7"/><path fill="#f49b24" d="M18.914 53.467c-.147-.037-.294-.11-.22-.331a.37.37 0 0 1 .183-.148v.479z"/><path fill="#f39826" d="m18.915 51.661-.074.147-.147-.147c-.037 0 .037-.073.037-.11z"/><path fill="#f39423" d="M28.077 38.195a8.9 8.9 0 0 0-1.545-2.281c-.148-.442.147-.589.404-.405.258.184 1.251.221 1.914.184h12.805a4.9 4.9 0 0 0 2.17-.478l1.657.846c.11.22.331.22.515.294l.478.184c.184.479.589.553.994.663.187.168.416.282.662.331.11.11.184.258.368.294l.294.148.332.22c.147.148.368.184.515.331l.331.184c-.11.148-.515.332 0 .479s0 .257-.184.331a1.47 1.47 0 0 1-1.545.147c-.442-.22-.957.037-1.435.037-5.557-.368-11.113-.11-16.67-.184-.44 0-.92-.074-1.103.552-.295-.81-.626-1.509-.442-2.355a.477.477 0 0 0-.515.478"/><path fill="#f4c35d" d="M61.082 42.832h2.907c.515.258 1.03.037 1.472.037-.442-.037-1.03.294-1.472-.037s-.147-.331-.037-.294a9.5 9.5 0 0 0 2.502-.037c1.767-.147 3.496.294 5.262.037a14 14 0 0 1 3.9.036c-.44.405-1.066-.036-1.582.59 1.141-.369 2.024.11 2.87-.111-.11-.368-.441-.184-.625-.331l.074-.074c1.067-.442 2.097.294 3.164.147a21.3 21.3 0 0 1-4.268.81c-.736.11-1.472.147-2.208.184-1.765.11-3.534.11-5.299 0-2.244-.11-4.489-.258-6.66-.957"/><path fill="#f49723" d="M74.218 44.415h-7.654v-.184h7.617zM67.742 43.824h5.299c-1.214.368-2.465.11-3.68.147-.552.037-1.104.148-1.619-.147"/><path fill="#f9c059" d="m59.096 41.836.331.662a6.3 6.3 0 0 1-2.134-.662z"/><path fill="#f49723" d="m50.631 39.594.847.257c.183.037.33.148.22.331a.33.33 0 0 1-.515.184l-.736-.515z"/><path fill="#f9be57" d="M81.172 42.5c.294-.368.625-.736 1.177-.662a.295.295 0 0 1 .331.184 3.64 3.64 0 0 1-1.508.478"/><path fill="#f49723" d="M55.93 41.875c0 .22-.184.22-.33.258-.148.036-.406 0-.442-.221a.3.3 0 0 1 .111-.32.3.3 0 0 1 .11-.048c.294-.037.404.147.551.331M54.31 40.844c-.257.404.368.257.331.588-.036.332-.662.184-.846-.147s.294-.368.515-.441M52.287 40.844c.368.074.736-.184 1.14-.184-.478.626-.846.663-1.14.184M84.374 42.133c-.405.478-.81.368-1.325.294.441-.441.883-.184 1.325-.294M52.583 42.243a.81.81 0 0 1-1.03.11c.294-.294.589-.184 1.03-.11"/><path fill="#f4c564" d="m82.682 42.02-.332-.184a.294.294 0 0 1 .405-.295c.221.037.221.258.258.442z"/><path fill="#f49723" d="M28.555 42.831V42.5c.22.037.33-.331.588-.147a.22.22 0 0 1 .037.22c-.11.331-.404.221-.625.258"/><path fill="#f39423" d="M28.555 40.846v-.92c.037.294.552.662 0 .92"/><path fill="#f49723" d="M57.181 42.536c-.11-.074-.257-.11-.257-.184s.073-.147.184-.184c.11-.037.294-.037.294.147s-.11.11-.22.22M49.785 39.519l.184-.331c.147.036.405-.074.331.183-.073.258-.257.368-.515.148M52.288 40.846c-.11-.037-.331.074-.258-.147a.295.295 0 0 1 .405-.147z"/><path fill="#f5cf87" d="M34.7 28.773a5.9 5.9 0 0 0 2.317-2.244c3.275 0 6.587.073 9.899-.037.662-.037 1.398.037 2.06-.294a.22.22 0 0 1 .221 0c.7.552 1.509.33 2.281.367h3.312c.552 0 1.067.074 1.325.663.195.42.517.767.92.993.147.368-.037.663-.074.994s-.22.405-.515.368V28.7c-.184.92-.846.515-1.288.515H38.342c-.405 0-.883.11-1.251-.22a.51.51 0 0 0-.405-.038c-.736.552-1.324-.037-1.987-.184"/><path fill="#fefefe" d="m56.446 29.586.294-.368c.295-.295.221-.663.258-1.03.037-.368.037-.221.184-.295s.883-.773 1.472-.993c1.435-.59 2.612-.11 3.753.662a.66.66 0 0 0 .331.478c.236.125.428.317.552.552a3.31 3.31 0 0 1-.662 4.122c-1.251 1.25-2.87 1.508-4.563.662a8 8 0 0 0-.846-.7l-.184-.183a3.4 3.4 0 0 1-.331-.736.26.26 0 0 1 .073-.221c-.073-.662-.404-1.251-.33-1.95"/><path fill="#f6cd7d" d="M42.169 32.199c.184-.479.589-.295.92-.295h11.664c.327.055.662.003.957-.147a1 1 0 0 0-.81-.184H33.633c-.294 0-.625.11-.773-.331 7.286-.331 14.572-.074 21.858-.147.073 0 .147-.037.22 0s.773-.479 1.067-.147c.295.33.074.883.11 1.287a.627.627 0 0 1 0 .92c-.44.184-.92 0-1.36 0H43.345c-.662-.037-1.177-.147-1.177-.956"/><path fill="#f5cb78" d="M56.115 33.042v-.846c.33-.074.257-.626.662-.663s.037.11 0 .147.037.7.515.663a.11.11 0 0 1 0 .147c.184.258.405.405.589.662a.55.55 0 0 1-.074.331c-.073.148-.33.11-.33.405s-.48.552-.516.515c-.552-.736-1.03.11-1.545 0a11 11 0 0 0-1.914-.036h-5.299c-.552 0-1.104-.11-1.582.404a.88.88 0 0 1-1.14-.147c-.332-.368-.663-.405-1.03.037-.369.441-.369.258-.7-.147s-.846-.221-1.251.036a.51.51 0 0 1-.368.184c-.625-.073-1.325 0-1.472-.846.7-.441 1.325-.846 2.282-.81 4.305.111 8.61.037 12.952.037z"/><path fill="#f8cc85" d="M29.07 29.84h-4.968v-.184h4.967z"/><path fill="#fbfbf5" d="m62.444 49.122-.221.073c-.294.258-.662.405-.993.147-.332-.257.147-.551.183-.846.413.064.783.29 1.03.626"/><path fill="#eba03f" d="M64.43 50.964a1.84 1.84 0 0 1-.662-.847c.625-.073.662.368.662.847"/><path fill="#fbfbf5" d="M62.885 49.456c-.258 0-.442-.073-.442-.33a.44.44 0 0 1 .442.33"/><path fill="#eba03f" d="M63.769 50.117a.405.405 0 0 1-.331-.331c.073.147.735-.295.33.33"/><path fill="#f49f23" d="M66.049 60.753a1.14 1.14 0 0 1 .331-.663c.331.037.589-.625 1.03-.184a6 6 0 0 0-.404.626c-.258.478-.552.589-.957.22"/><path fill="#865020" d="M30.062 50.928c.295-.148.442.11.662.184.221.073.92.846 1.178 1.471a.96.96 0 0 0 .331.516c.373.612.588 1.307.626 2.023a1.36 1.36 0 0 0 .22 1.067q.025.373.11.736.019.338-.073.663a2.58 2.58 0 0 1-.772 1.288 6.4 6.4 0 0 1-4.158 3.385c-.303.123-.631.173-.957.147a1.4 1.4 0 0 0-1.325 0c-1.104.037-2.024-.552-2.98-.994l-.994-.846c-.073-.037-.147-.073-.147-.147s-.368-.368-.331-.662.368-.074.478.147a.4.4 0 0 0 .331.184c.184.147.515.073.663.331 1.214.22 2.391.552 3.643.331 4.084-.552 6.218-5.666 3.863-9.273z"/><path fill="#f09f1f" d="M20.936 59.097v.147c0 .515 0 1.067-.662 1.177-.037-.405.22-.81-.258-1.251-.478-.442.221-.368.516-.405.294-.037.257.221.404.331"/><path fill="#f49f23" d="M19.281 59.906c.368.147.736.331.663.847a.48.48 0 0 1-.663 0z"/><path fill="#f49b24" d="M19.281 60.75h.663a.44.44 0 0 1-.479.368c-.257 0-.184-.22-.184-.368"/><path fill="#fbfbf8" d="m21.931 59.906-.478-.148a.3.3 0 0 1-.037-.147c.368-.257.626-.294.515.295"/><path fill="#f49f23" d="m21.783 60.422.147.147c-.036.11-.036.22-.184.184-.147-.037-.147-.11-.184-.184-.036-.074.11-.147.221-.147"/><path fill="#f0c98a" d="M28.186 26.457c.147.11.258.22.184.442a1.77 1.77 0 0 1-.81-.663v-.184c.369-.11.516.11.626.405"/><path fill="#f49b24" d="M68.552 59.758a1.65 1.65 0 0 1-.037-1.324 1.21 1.21 0 0 1 .037 1.324"/><path fill="#f2d380" d="m57.181 27.893-.073.331c-.037.11-.074.11-.148.037a.883.883 0 0 1-.846-1.03c.515 0 .478.809 1.067.662"/><path fill="#f49b24" d="m39.704 55.453-2.024.663a3.4 3.4 0 0 0-.478.294c-.957.294-1.472 1.067-2.024 1.84a.8.8 0 0 1-.331.515l-.295.258c-.441-.847-.368-1.693-.368-2.576 0-.295.037-.589-.331-.663l-.074-.073a.52.52 0 0 1 0-.552h.074c1.03-1.214 2.392-.663 3.57-.515q1.025.14 2.06.11c.773-.073 1.545-.441 2.355-.258.073.148.441 0 .331.332l-.331.33c-.663.258-1.398.185-2.098.222-.11.036-.147.073-.036.036z"/><path fill="#f49b24" d="M32.86 57.585v-.625q.081-.158.111-.332c.11-.294-.073-.662.147-.92a.37.37 0 0 1 .368-.11.4.4 0 0 1 .331.184c0 .368 0 .773.037 1.14.037.369.037 1.399-.699 1.84a.22.22 0 0 1-.331 0c-.22-.404-.037-.809.037-1.177"/><path fill="#f09e27" d="M32.86 58.766h.33v1.84c-.478-.59-.257-1.252-.33-1.84M34.515 59.094a.8.8 0 0 1-.294.552v-.074c-.184-.22-.81-.147-.552-.588.257-.442.552.11.846.11M32.859 57.586v1.177c-.184-.073-.294.295-.515.11q.29-.63.515-1.287"/><path fill="#f49f23" d="M30.541 63.657a.77.77 0 0 1 .846-.184c.037.331-.184.258-.33.258zM28.518 63.623a.92.92 0 0 1 .993-.074c-.331.258-.552.184-.993.074M22.629 63.547a.92.92 0 0 1-.957.073c.258-.294.515-.22.957-.073"/><path fill="#f49b2c" d="M31.572 62.224c.184-.036.257.037.257.148s-.073.33-.257.33-.258 0-.221-.146a.74.74 0 0 1 .22-.332"/><path fill="#7f531b" d="M25.904 62.408a.882.882 0 0 1 1.325 0z"/><path fill="#f49f23" d="M21.267 62.074a.63.63 0 0 1 .515.515l-.184.11c-.405-.036-.331-.367-.331-.625M34.184 64.908l-.332.147c-.06-.33-.048-.669.037-.993.331-.037.184.257.295.404zM24.47 63.585c-.074.036-.111.11-.185.11-.073 0-.22 0-.22-.11s.073-.11.11-.148a.22.22 0 0 1 .294.148"/><path fill="#f9f5e0" d="M34.183 64.47a3 3 0 0 1-.294-.406v-.478a.81.81 0 0 1 .294.883"/><path fill="#f49f23" d="M26.42 63.327a.33.33 0 0 1 .441 0 .33.33 0 0 1-.441 0M26.935 62.922c-.221.22-.368.11-.552.11s.33-.11.552-.11"/><path fill="#f39624" d="M49.638 38.528c-.22 0-.441-.037-.515-.332a.515.515 0 0 1 .515.332"/><path fill="#f29223" d="m40.696 34 1.472.552c.186.163.417.266.663.294.3.193.64.318.993.368-.368.663-.883.847-1.619.847-4.305-.037-8.647-.11-12.952.036a1.4 1.4 0 0 1-.552-.073c-.11-.037-.221-.11-.295-.037s-.662.331-1.361-.147c-.7-.479-.368-.405-.515.073l-.442-.073c-1.177-1.546-2.686-2.392-4.673-2.282-.405.13-.826.205-1.251.221a.88.88 0 0 1-.589-.184.37.37 0 0 1-.073-.33c.073-.148.147-.295 0-.443a.368.368 0 0 1 .33-.478c.479.037.737-.294 1.068-.441 2.76-.516 5.556-.405 8.316-.332 1.687.037 3.365.26 5.004.663.294.184.552-.184.846-.074 1.251.181 2.483.477 3.68.883.662.331 1.509.221 1.95.957"/><path fill="#875021" d="m57.808 33.484-.11-.258a.294.294 0 0 1 .367-.184c1.14.552 2.282.736 3.46.147s2.28-2.612 1.581-4.636c.037-.074.037-.184.148-.221a4.6 4.6 0 0 1 1.03 1.73l.11 1.435c-.184.441-.33.92-.478 1.361l-.662.846c-2.024 1.435-3.57 1.362-5.446-.22"/><path fill="#f39423" d="M42.83 34.845c-.515.552-.478-.073-.662-.294h.331z"/><path fill="#f39624" d="M45.994 36.357c-.257.074-.588.22-.515-.294l.479.147c.036.036.036.073.036.147"/><path fill="#fcfcf9" d="m19.282 55.452.662-.33c.147.477-.037 1.03.479 1.397.515.368-.074.295-.148.405a.88.88 0 0 0-.368.7 3.28 3.28 0 0 1-.625-2.172"/><path fill="#fbfbf8" d="m20.937 59.094-.405-.331-.552-.993c.957.11 1.288.551.957 1.324"/><path fill="#f39624" d="M47.466 37.201c-.662.295-.92-.036-.993-.662.33.22.736.331.993.662"/><path fill="#f5c76a" d="M49.897 37.387a.22.22 0 0 1 .257-.184c.294.036.294.257.331.478s-.037.184-.184.184-.257-.294-.404-.478"/><path fill="#f39624" d="M48.498 37.826c-.405.257-.441.036-.368-.295z"/><path fill="#ad8c54" d="m63.253 28.333-.147.22-.368-.515c.295-.11.368.148.515.295"/><path fill="#f29423" d="M16.963 36.87c-.368.956-.294 1.95-.184 2.943v.074l-.147.074c-.074-.331-.037-.736-.405-1.067-.405.699-1.104.625-1.766.625H6.108c-.405 0-.81-.073-1.214.22-.405.295-.773-.404-1.215-.22a.405.405 0 0 1-.515 0 .44.44 0 0 0-.515 0c-.147.11-.184.442-.441.294-.258-.147-.184-.294-.037-.441l1.84-1.178 3.311-1.987a25 25 0 0 0 3.312-1.619c1.325-.368 2.576-.883 3.827-1.361s2.134-.662 3.275-.7c.184-.073.294.038.404.148.23.281.519.508.847.662l.331.147c.184.332-.074.516-.22.736-.148.221-.626.516-.884.847a10 10 0 0 0-1.251 1.803c-.147-.11-.22-.295-.405-.258-.184.037-.073.258-.11.405a2.8 2.8 0 0 0 0 .552c.037-.7.037-.7.515-.7"/><path fill="#f49723" d="M2.17 39.371c0 .626.331.074.478.147.148.074-.33.663-.81.663a1.7 1.7 0 0 1-.845-.184c-.074-.037-.074-.074-.037-.11a.037.037 0 0 1 .037-.038c.441-.073.736-.478 1.177-.478M17.259 40.993c.207.252.369.539.478.847-.074.184-.184.367-.295.662-.22-.368.074-.92-.515-.994-.588-.073-.22-.441 0-.625.221-.184.258 0 .332.11M2.355 41.47c-.221 0-.332-.11-.332-.294a.295.295 0 0 1 .332-.295.26.26 0 0 1 .257.258.257.257 0 0 1-.257.331"/><path fill="#ec9830" d="M17.258 40.992c-.515-.074-.258.33-.331.515a.22.22 0 0 1-.331 0c.037-.405-.11-.81.368-1.03a.59.59 0 0 1 .294.515"/><path fill="#f49723" d="M1.62 42.39c.44-.257.661-.294.956-.073s-.515.147-.957.073"/><path fill="#f29423" d="M16.044 41.176a.81.81 0 0 1 .183.81c-.33.073-.257-.148-.257-.295s.037-.258.074-.515"/><path fill="#f49723" d="M16.596 41.508h.33c0 .184.075.478-.11.478-.183 0-.147-.294-.22-.478"/><path fill="#fabd58" d="M.994 39.85v.147l-.662.147c.11-.368.405-.294.662-.294"/><path fill="#f49723" d="M3.164 39.52h.515c-.184.478-.368.22-.515 0"/><path fill="#885223" d="M64.468 62.443c-.184-.11-.625-.037-.22-.405l.441-.478c.405-.368.331.074.405.258a1.07 1.07 0 0 1-.626.625"/><path fill="#fdfdf7" d="m28.187 26.457-.625-.404a.51.51 0 0 0-.295-.479c-.147-.11-.11-.22-.037-.33s.221-.111.258-.185c.037-.073.147-.515.478-.441.331.073.295.441.258.625s.515.81-.037 1.214"/><path fill="#f5d28e" d="M27.23 25.241q.045.163.036.332c-.478-.037-.589-.295-.368-.663l.331.184c-.037.074 0 .11 0 .147"/><path fill="#f6cb7a" d="m40.696 33.998-1.987-.662c-.037-.883.074-1.03.847-1.03.386-.04.777.01 1.14.147.295.11.552-.074.81-.258h.662c.442.7 1.104.7 1.803.7h10.745a4.4 4.4 0 0 1 1.398.183 1.25 1.25 0 0 1-1.067.332H43.272l-.736-.074c-.258-.074-.442-.184-.589.22-.147.406-.883.185-1.25.442"/><path fill="#f6cd7d" d="M41.506 32.198c-.22.515-.515.846-1.104.442a1.44 1.44 0 0 0-.956-.074c-.221 0-.626-.11-.405.405s-.22.22-.331.368l-3.68-.957-.147-.147a.295.295 0 0 1 0-.368c.846 0 1.73.037 2.612 0a1.03 1.03 0 0 1 .847.331 5.3 5.3 0 0 1 2.833 0z"/><path fill="#ef9526" d="M17.92 32.86a1.5 1.5 0 0 0-.184-.332c.515-.405 1.178-.184 1.73-.478l1.435-.148c-.442.368.368.258.22.515-.147.258-1.177-.22-1.508.442l-.074.11a2.06 2.06 0 0 1-1.619-.11"/><path fill="#f6cb7a" d="M41.175 32.195h-2.833c.037-.11.11-.294.257-.294.847.11 1.803-.368 2.576.294"/><path fill="#f6ce80" d="M16.927 32.049c-.368.184-.736.368-.993-.184.342-.035.686.029.993.184M34.884 31.867c0 .147.294.147.11.368-.184.22-.33.11-.441-.037s.11-.294.331-.33"/><path fill="#f39423" d="M34.552 32.195h.441c.037.037.037.074.037.148 0 .073-.589.073-.81-.148z"/><path fill="#fcfdfa" d="M27.34 23.953c-.11-1.656-.221-1.582.515-1.84.147.736-.479 1.178-.515 1.84"/><path fill="#875524" d="M52.14 19.098c.405.515.037 1.14.221 1.656h-.22z"/><path fill="#f5962a" d="M29.217 49.123c.331-.515.699-.479.993 0a.7.7 0 0 0 .663.33v.663c-.11.405-.258.184-.442.074s-.662-.846-1.214-1.067"/><path fill="#ef992e" d="M53.686 49.16a25 25 0 0 0-1.876 2.024c-.258-.662.699-.81.662-1.398-.037-.589.589-.846 1.214-.626"/><path fill="#f59929" d="M33.522 55.785h-.294c-.258-.22-.147-.441-.037-.662v-1.178c.405.368.736.663.663 1.178-.221.147-.074.478-.332.662"/><path fill="#f29829" d="M51.147 48.46h.331c.074.516.59.222.883.48l-.551.514a.883.883 0 0 1-.663-.993"/><path fill="#f09b1d" d="M33.191 51.148c.295.037.331.258.331.479s.037.405-.22.331a.515.515 0 0 1-.394-.602.3.3 0 0 1 .283-.208"/><path fill="#7f5118" d="M32.859 56.114c-.589-.33-.22-.662 0-.993.22-.332.037.073.037.147a.66.66 0 0 1-.037.846"/><path fill="#ed9b33" d="M33.19 55.121a4 4 0 0 0 .037.662c-.074.332.073.7-.184.994-.13-.482-.13-.99 0-1.472z"/><path fill="#c2700e" d="M33.043 55.306v1.472l-.147.184c0-.294-.037-.589-.037-.846 0-.258.037-.589.037-.846z"/><path fill="#a15611" d="M32.233 53.097c-.33-.037-.368-.257-.33-.515a.8.8 0 0 1 .33.515"/><path fill="#f39a22" d="M19.945 50.778c-.515-.957-.22-1.472.883-1.656h.258c.184-.074.405-.405.625-.184.221.22-.22.368-.184.626l.11.294-.404.294-.331.331c-.184.074-.221.221-.295.369l-.662.883a.66.66 0 0 1 0-.957"/><path fill="#fbfbf8" d="M26.567 60.75a4.82 4.82 0 0 1-3.643-.33 1.91 1.91 0 0 1 1.73.183 1.54 1.54 0 0 0 1.434-.036c.221-.074.405-.147.479.184"/><path fill="#f29b1b" d="M19.943 50.781v.92c.037.037 0 .074-.037.074-.036 0-.478-.663.037-.994"/><path fill="#fcfcf9" d="M19.906 55.122c.074-.294-.073-.588.221-.993.147.478.258.773-.22.993"/><path fill="#fbfbf8" d="M22.924 60.418a.89.89 0 0 1-.662-.331c.368-.184.736-.405.662.331M22.85 58.728l-.147-.11c0-.148.11-.184.22-.148.111.037.185.074.185.11 0 .038-.11.148-.258.148"/><path fill="#eca13e" d="M21.231 50.119c-.037-.074-.147-.184-.11-.221s.33-.074.515-.074a.37.37 0 0 1-.405.295M20.607 50.815c.073-.147-.258-.588.294-.368.552.221-.11.295-.294.368"/><path fill="#f69123" d="M19.096 34.219c-.258-.331.22-.442.184-.7a.295.295 0 0 1 .331 0l.515.221c.037.037.037.11-.036.11-.074 0-.59.442-.994.369"/><path fill="#f0e2bb" d="M20.092 33.852a.15.15 0 0 0 .037-.11c.441 0 .846-.332 1.287-.185-.389.26-.861.365-1.324.295"/><path fill="#834818" d="M22.04 43.788h.148c-.258.258-.552.11-.846.11v-.11l.257-.073z"/><path fill="#825127" d="M22.262 44.818c.515-.662 1.214-.183 1.803-.22-.552.368-1.215.147-1.803.22"/><path fill="#845527" d="M25.572 44.488a1.1 1.1 0 0 1-.92-.22c.442-.11.736-.258.92.22"/><path fill="#8c4e09" d="M46.842 59.426c-.074-.258-.442-.368-.331-.7a1.18 1.18 0 0 1 .81.7z"/><path fill="#885124" d="M42.5 70.391a.85.85 0 0 0-.663.147c-.184-.037-.441.11-.478-.147-.037-.258.22-.294.405-.331.184-.037.625-.11.736.331M39.852 70.353v-.478c.22.037.588-.074.588.258 0 .33-.368.22-.588.22"/><path fill="#f49f23" d="M54.973 63.255c-.699.22-1.361.7-2.245.405.516-.368.7-1.251 1.583-.626-.074-.441-.552-.552-.515-.956.588-.148.772.257.993.699z"/><path fill="#8d5120" d="m54.79 62.777-.993-.7a.52.52 0 0 1-.184-.368c.074-.184.11-.367.368-.294h.295c.073.294.368.22.552.331.243.037.472.138.662.295-.074.404-.662.294-.7.736"/><path fill="#8c4c19" d="M65.057 58.066c.257.11.404.258.257.59-.147.33-.184-.406-.257-.59"/><path fill="#f29923" d="M39.704 55.454c-.184-.037-.441.037-.552-.331.92.33 1.803-.148 2.687 0a.404.404 0 0 1-.368.33zM42.17 54.791l-.332-.331c.184 0 .368-.037.478.147s-.037.147-.147.184"/><path fill="#f49f23" d="M53.76 61.82c0 .074.037.184.037.258 0 .073-.368.368-.626.515 0-1.178 0-1.178-1.214-1.178h-1.472a.22.22 0 0 1 0-.33h.331a.48.48 0 0 1 .662 0l.957-.148c-.92-.442-.552-.81-.11-1.214l.478.662c.147.22.368.368.515.589.226.234.379.527.442.846"/><path fill="#f59c25" d="M51.478 61.081h-.663c-.073-.184.037-.589-.22-.515-.258.074-.368-.405-.442-.625a.37.37 0 0 1 .147-.442c.258-.074.331.147.442.294.11.148.846.663.736 1.288M50.485 61.082v.331a1 1 0 0 1-.257.663c-.074-.442-.258-.773.257-.994"/><path fill="#fbf5e2" d="M51.477 58.102c.368.11.368.367.22.662a.77.77 0 0 1-.22-.662"/><path fill="#fdfdf7" d="M42.537 56.925c.381-.168.804-.22 1.214-.147.148 0 .368.037.221.295-.147.257-.294.33-.331.22s-.736-.073-1.104-.368"/><path fill="#f6fbf5" d="M34.848 58.765a.59.59 0 0 1 .33-.515c.074.147.332.22.222.405-.11.184-.368.073-.552.11"/><path fill="#fefef3" d="m38.084 56.923-.147.147a.22.22 0 0 1-.294-.11c0-.037.073-.147.147-.147.073 0 .184-.037.294.11"/><path fill="#e7c78a" d="M37.201 56.408c.037-.258.258-.295.478-.295.221 0-.257.331-.478.295"/><path fill="#8e4f13" d="M53.76 61.819a1.9 1.9 0 0 1-.588-.736c.11-.184.294-.073.441-.11l.368.441c-.147.074-.184.221-.22.405"/><path fill="#804f16" d="m53.614 60.973-.442.11c-.147-.22-.404-.367-.368-.699.037-.33.552.368.81.59"/><path fill="#875529" d="M54.827 61.745c-.221.074-.442.258-.589.184-.147-.073 0-.331.037-.515.213.051.406.167.552.331"/><path fill="#f39624" d="M45.15 36.723c-.038.147-.148.147-.258.11s-.221-.036-.258-.11c-.037-.073.074-.184.184-.184s.258 0 .331.184M47.1 38.046l-.258.11c-.11-.036-.221-.073-.184-.22.036-.148.073-.074.11-.037zM49.05 39.227l.11.184-.11.073c-.074-.037-.11-.11-.148-.147z"/><path fill="#f4c460" d="M74.365 43.2a22.6 22.6 0 0 1-7.213 0zM66.272 43.162c-.7-.257-1.399.037-2.061 0-.662-.036-.294 0-.331-.184s.257-.147.368-.147h1.987z"/><path fill="#fdf9f1" d="M56.961 28.258h.147c-.073.368.221.846-.368.993.008-.342.083-.68.221-.993"/><path fill="#f6cd7d" d="m57.293 32.346-.441.368c-.294-.331-.147-.7-.074-1.03z"/><path fill="#875d3c" d="m58.066 33.044-.368.184a1.2 1.2 0 0 1-.405-.736c.317.082.592.279.773.552"/><path fill="#894d27" d="M25.463 61.45h2.87c-1.067.33-1.987.404-2.87 0"/><path fill="#f49e19" d="M33.522 55.783c.036-.294-.037-.588.33-.662v.662z"/><path fill="#ef9328" d="M24.065 32.417c.551-.331 1.25-.037 1.766-.478.515-.442.22-.037.257.11a.26.26 0 0 1-.184.294c-.588.368-1.214.184-1.84.074"/><path fill="#f39423" d="M31.94 33.705c.257-.221.441-.221.662 0 .22.22-.368.184-.662 0"/><path fill="#ef9526" d="M19.613 33.523h-.7c-.146-.589.259-.479.59-.405l.11.074zM19.614 32.861h.478c-.11.294-.331.258-.478.294a.22.22 0 0 1 0-.33z"/><path fill="#f39623" d="M16.963 36.87c-.663.257-.184 1.03-.663 1.435-.073-.773.148-1.546-.257-2.282.184.442 1.03.11.92.847"/><path fill="#f69123" d="M19.613 32.86v.331c-.295.037-.59-.037-.7.331s-.625-.294-.993-.662a3.3 3.3 0 0 1 1.693 0"/></g><defs><clipPath id="a"><path fill="#fff" d="M0 0h85v85H0z"/></clipPath></defs></svg>