<svg xmlns="http://www.w3.org/2000/svg" width="139" height="125" fill="none" viewBox="0 0 139 125"><g clip-path="url(#a)"><path fill="#fff" d="M5.936 9.173C3.356 7.685 1.27 8.89 1.27 11.861v17.93a10.3 10.3 0 0 0 4.666 8.072l82.06 47.784v-28.69z"/><path fill="#005bea" d="M87.997 86.498a.85.85 0 0 1-.425-.114L5.092 38.54a11.1 11.1 0 0 1-5.09-8.809V11.8a3.673 3.673 0 0 1 5.94-3.425l82.48 47.844a.85.85 0 0 1 .425.737v28.692a.85.85 0 0 1-.851.85zM3.43 9.326a1.55 1.55 0 0 0-.788.194 2.52 2.52 0 0 0-.94 2.28v17.93a9.52 9.52 0 0 0 4.24 7.337l81.2 47.108V57.446L5.09 9.846a3.43 3.43 0 0 0-1.66-.52"/><path fill="#fff" d="M126.5 79.192 88 56.957v28.694l38.5 22.233c2.581 1.485 4.664.288 4.668-2.686V87.266a10.29 10.29 0 0 0-4.668-8.074"/><path fill="#005bea" d="M128.588 109.373a5.1 5.1 0 0 1-2.515-.753l-38.5-22.235a.85.85 0 0 1-.425-.737V56.957a.85.85 0 0 1 1.277-.737l38.5 22.235a11.08 11.08 0 0 1 5.087 8.81v17.931a4.08 4.08 0 0 1-1.789 3.75 3.23 3.23 0 0 1-1.635.427M88.85 85.158l38.076 21.988a2.544 2.544 0 0 0 2.452.328 2.5 2.5 0 0 0 .939-2.278V87.265a9.5 9.5 0 0 0-4.238-7.336l-37.225-21.5z"/><path fill="#1b69ff" d="M121.556 91.285c.007.319-.056.635-.184.927q-.165-.157-.353-.285c-.794-.458-1.437-.092-1.449.81a2 2 0 0 1-.3-.138l-2.625-1.515a3.26 3.26 0 0 0-1.458-2.525c-.807-.463-1.458-.088-1.458.842l-2.917-1.681a3.2 3.2 0 0 0-1.455-2.522c-.8-.466-1.461-.091-1.461.837l-3.648-2.1c-.746.891-2.033 1.02-3.5.172a9.26 9.26 0 0 1-4.191-7.248c0-2.671 1.876-3.751 4.191-2.415a9.07 9.07 0 0 1 3.5 4.222l15.022 8.672a5.06 5.06 0 0 1 2.286 3.947m-19.277-11.128a3.38 3.38 0 0 0-1.533-2.654c-.846-.49-1.537-.093-1.533.885a3.39 3.39 0 0 0 1.533 2.654c.849.492 1.536.097 1.533-.883z"/><path fill="#cee7fd" d="M77.24 67.986a6.18 6.18 0 0 1-2.8-4.85c0-1.788 1.252-2.508 2.8-1.617a6.2 6.2 0 0 1 2.8 4.856c.006 1.783-1.25 2.505-2.8 1.61M66.836 58.75a6.2 6.2 0 0 0-2.8-4.856c-1.549-.893-2.8-.17-2.8 1.617a6.18 6.18 0 0 0 2.8 4.85c1.547.897 2.8.17 2.8-1.61M53.626 51.122a6.18 6.18 0 0 0-2.806-4.852c-1.55-.9-2.8-.176-2.8 1.615a6.2 6.2 0 0 0 2.8 4.85c1.548.896 2.806.172 2.806-1.613M40.416 43.498a6.2 6.2 0 0 0-2.807-4.856c-1.548-.896-2.8-.172-2.8 1.616a6.19 6.19 0 0 0 2.805 4.854c1.549.889 2.802.167 2.802-1.614M27.206 35.87a6.2 6.2 0 0 0-2.808-4.855c-1.546-.9-2.8-.17-2.8 1.617a6.18 6.18 0 0 0 2.8 4.852c1.55.894 2.804.169 2.808-1.613M13.99 28.242a6.18 6.18 0 0 0-2.8-4.858c-1.55-.896-2.8-.17-2.8 1.616a6.19 6.19 0 0 0 2.8 4.852c1.549.9 2.805.175 2.8-1.61"/><path fill="#fff" d="M119.657 117.024c-.74 0-1.431-.088-2.053-.264-7.946-2.236-15.097-5.172-21.253-8.726-6.129-3.539-11.182-7.637-15.018-12.182-.225-.266-.314-.537-.273-.83l.127-.916-.14-.031V59.307l.09.017-.085-1.288c-.04-.611.547-1.344 1.533-1.914l11.707-6.758c1.148-.663 2.682-1.044 4.21-1.044.74 0 1.43.09 2.053.264 7.946 2.236 15.096 5.172 21.253 8.727 6.128 3.538 11.18 7.636 15.017 12.182.166.196.257.395.278.607v.005c.007 1.465 0 36.758-.001 37.12v.038l.003.038a1 1 0 0 1 .001.154l-.003.034c-.07.574-.639 1.219-1.529 1.733l-11.707 6.759c-1.149.663-2.683 1.043-4.21 1.043"/><path fill="#005bea" d="M98.502 49.32c-1.337 0-2.723.34-3.71.91l-11.706 6.759c-.81.467-1.023.898-1.036.987l.17 2.571-.172-.032v32.757l.258.057-.253 1.817a.4.4 0 0 0 .044.061c3.762 4.456 8.726 8.48 14.754 11.961 6.085 3.513 13.158 6.416 21.024 8.63a6.7 6.7 0 0 0 1.783.226c1.336 0 2.723-.34 3.709-.909l11.707-6.759c.782-.451 1.009-.869 1.035-.976v-.003l-.006-.076v-.077c.003-12.21.006-35.103.001-37.029a.4.4 0 0 0-.042-.057c-3.762-4.457-8.726-8.481-14.754-11.961-6.085-3.513-13.158-6.417-21.023-8.63a6.7 6.7 0 0 0-1.783-.227m0-2c.81 0 1.603.099 2.325.302 16.126 4.537 28.903 11.915 36.763 21.225.306.362.47.755.508 1.157l.005.001v.04c.008.105 0 37.18 0 37.18q.013.158 0 .317l-.001.014c-.085.899-.789 1.817-2.028 2.532l-11.707 6.759c-1.973 1.139-4.833 1.496-7.034.876-16.126-4.538-28.904-11.915-36.764-21.226-.42-.497-.577-1.052-.499-1.613l-.022-.005V58.1l.006.002c-.066-.995.648-2.047 2.032-2.846l11.707-6.758c1.325-.766 3.051-1.178 4.709-1.178"/><path fill="#005bea" d="M100.826 47.621a9.78 9.78 0 0 0-7.034.876l-11.707 6.76c-1.972 1.138-2.589 2.79-1.517 4.06 7.86 9.31 20.638 16.687 36.764 21.225a9.78 9.78 0 0 0 7.034-.875l11.707-6.759c1.972-1.139 2.589-2.79 1.516-4.06-7.86-9.312-20.637-16.689-36.763-21.227"/><path fill="#cee7fd" d="M122.841 75.619a4.434 4.434 0 0 0 4.436-4.436v-5.665a32.27 32.27 0 0 0-16.088-27.867 14.72 14.72 0 0 0-14.862 0 14.71 14.71 0 0 0-7.432 12.871v3.624a4.436 4.436 0 1 0 8.872 0v-3.624a5.93 5.93 0 0 1 3-5.188 5.93 5.93 0 0 1 5.991 0 23.38 23.38 0 0 1 11.653 20.184v5.666a4.433 4.433 0 0 0 4.43 4.435"/></g><defs><clipPath id="a"><path fill="#fff" d="M0 0h138.11v125H0z"/></clipPath></defs></svg>