<svg xmlns="http://www.w3.org/2000/svg" width="60" height="75" fill="none" viewBox="0 0 60 75"><g fill="#1b69ff" clip-path="url(#a)"><path d="m28.13 42.384-.166-.276 2.149-1.315-3.7-6.446-12.385 7.133a.16.16 0 0 1-.219-.06L6.206 28.197l-2.13 1.352-.172-.273 2.272-1.442a.16.16 0 0 1 .124-.02.16.16 0 0 1 .1.077l7.607 13.227 12.385-7.133a.16.16 0 0 1 .22.059l3.858 6.723a.16.16 0 0 1-.055.219z"/><path d="m28.046 42.247-3.839-6.666-12.535 7.194-7.683-13.36L.16 31.617l11.516 20.024z"/><path d="M11.676 51.8a.16.16 0 0 1-.142-.081L.02 31.694a.163.163 0 0 1 .06-.221l3.828-2.202a.16.16 0 0 1 .122-.016.16.16 0 0 1 .098.075l7.603 13.221 12.396-7.113a.16.16 0 0 1 .22.06l3.838 6.664a.163.163 0 0 1-.059.222L11.753 51.78a.16.16 0 0 1-.077.02M.381 31.672l11.354 19.744 16.092-9.233-3.678-6.385-12.396 7.115a.16.16 0 0 1-.22-.059l-7.602-13.22z"/><path d="m59.683 34.23-.06-.032c-3.58-2.08-6.493-7.153-6.493-11.31 0-.432.039-.864.117-1.288l.034-.02-.023-.04q.02-.106.043-.214a.65.65 0 0 0-.154-.584L35.597 1.58a.64.64 0 0 0-.426-.207L17.494 0a.65.65 0 0 0-.365.085l-2.556 1.482.113.198a.65.65 0 0 0-.024.323q.185.94.194 1.898a5.47 5.47 0 0 1-.699 2.91 5.27 5.27 0 0 1-2.986-.834.64.64 0 0 0-.643 0L7.973 7.544l.12.21a17 17 0 0 0-.06 2.122c0 1.158-.004 2.702-.006 4.245v6.17a53 53 0 0 0 2.32 15.056l.09.31 1.235-.366-.091-.31a51.7 51.7 0 0 1-2.266-14.69c0-3.242 0-8.98.01-11.303a4.95 4.95 0 0 0 4.506-.004c.393-.23.745-.524 1.04-.872l.028-.004-.004-.026a6.28 6.28 0 0 0 1.255-4.095q-.002-.658-.086-1.31l16.61 1.284L49.83 22.692q-.136.751-.134 1.514c0 4.441 3.067 9.899 6.87 12.27v12.043c0 8.438-2.523 14.943-7.055 18.57l-.15.058-.304.107.051.143a14.2 14.2 0 0 1-3.743 1.999l-12.318 4.18L20.91 55.021a76 76 0 0 1-3.366-5.596l-.155-.285-1.128.622.154.285a78 78 0 0 0 3.421 5.689l12.412 18.967a.64.64 0 0 0 .742.257l12.797-4.342a15.6 15.6 0 0 0 4.369-2.392c6.902-2.63 9.857-8.95 9.857-21.03v-12.41a.64.64 0 0 0-.329-.557M12.727 8.068a3.9 3.9 0 0 1-2.736-.205l.863-.5c.59.318 1.22.555 1.873.705m45.986 39.13c0 8.893-1.633 14.47-5.324 17.651 2.89-3.99 4.454-9.58 4.454-16.33V36.432l.87-.512zM17.6 1.308l17.223 1.336 16.836 18.383-1.057.613L33.44 2.9a.64.64 0 0 0-.426-.207L17.307 1.475zm33.506 21.536.76-.44c-.01.162-.021.323-.021.488 0 4.211 2.76 9.333 6.288 11.873l-.963.567c-3.442-2.18-6.196-7.079-6.196-11.12q0-.692.132-1.368"/><path d="M46.524 23.51 31.234 6.818a.48.48 0 0 0-.318-.155L19.008 5.74a.485.485 0 0 0-.513.39c-.678 3.466-3.052 5.828-6.201 6.164a.48.48 0 0 0-.433.482v7.51c0 6.057 1.442 12.92 4.17 19.835l.12.3.897-.356-.118-.302c-2.684-6.805-4.102-13.54-4.102-19.478v-7.084c3.227-.522 5.692-2.963 6.524-6.46l11.302.877 15.029 16.407v.18c0 5.045 2.756 10.73 6.873 14.196v10.126c0 9.04-3.17 15.351-8.693 17.314l-9.513 3.228-10.547-16.117a72 72 0 0 1-3.67-6.21l-.151-.286-.852.453.15.286A73 73 0 0 0 23 53.49L33.752 69.92a.48.48 0 0 0 .557.192l9.874-3.35c5.938-2.11 9.343-8.755 9.343-18.232V38.171a.49.49 0 0 0-.178-.376c-4.004-3.279-6.695-8.741-6.695-13.59q0-.176.005-.35a.49.49 0 0 0-.133-.345"/><path d="m35.26 68.53.807-.533-10.709-16.364a65 65 0 0 1-3.374-5.726l-.15-.286-.852.452.15.285a66 66 0 0 0 3.423 5.81z"/></g><defs><clipPath id="a"><path fill="#fff" d="M0 0h60v75H0z"/></clipPath></defs></svg>