<svg xmlns="http://www.w3.org/2000/svg" width="103" height="105" fill="none" viewBox="0 0 103 105"><g fill="#0091e2" clip-path="url(#a)"><path d="m77.997 31.82 1.357.792.039.027.043.029a15 15 0 0 1 4.392 4.35 15.1 15.1 0 0 1 2.27 5.764 24.4 24.4 0 0 1 3.985-.352c5.08 0 7.44 1.805 7.707 2.025l.92.66-.394 1.151a11.7 11.7 0 0 1-2.802 4.138 14.4 14.4 0 0 1-4.872 3.08 14.3 14.3 0 0 1-5.683.917h-.875a56.1 56.1 0 0 1-10.029 17.392 41.3 41.3 0 0 1-10.247 8.453 47.4 47.4 0 0 1-15.063 5.512 63.3 63.3 0 0 1-11.518 1.057c-8.539 0-16.115-1.63-20.756-4.49a24.1 24.1 0 0 1-9.459-12.37 44.8 44.8 0 0 1-2.718-16.071c0-.783.31-1.533.86-2.086a2.93 2.93 0 0 1 2.074-.864h62.187a18.5 18.5 0 0 0 6.875-1.673 13.447 13.447 0 0 1-1.574-10.523 18.9 18.9 0 0 1 2.41-5.641zm-62.27 27.429a3.5 3.5 0 0 0-1.946.593 3.5 3.5 0 0 0-1.29 1.581 3.54 3.54 0 0 0 .76 3.84 3.486 3.486 0 0 0 3.818.764 3.5 3.5 0 0 0 1.571-1.299 3.536 3.536 0 0 0-.435-4.447 3.5 3.5 0 0 0-2.478-1.032"/><path d="M13.01 49.123h8.32a.73.73 0 0 0 .689-.461.75.75 0 0 0 .055-.287v-7.48a.745.745 0 0 0-.459-.692.7.7 0 0 0-.285-.056h-8.32a.73.73 0 0 0-.69.461.8.8 0 0 0-.054.287v7.48a.773.773 0 0 0 .743.748M24.486 49.123h8.32a.73.73 0 0 0 .689-.461.75.75 0 0 0 .055-.287v-7.48a.745.745 0 0 0-.458-.692.7.7 0 0 0-.286-.056h-8.32a.73.73 0 0 0-.689.461.75.75 0 0 0-.055.287v7.48a.773.773 0 0 0 .744.748M36.174 49.123h8.32a.73.73 0 0 0 .69-.461.8.8 0 0 0 .054-.287v-7.48a.75.75 0 0 0-.458-.692.7.7 0 0 0-.286-.056h-8.32a.73.73 0 0 0-.689.461.7.7 0 0 0-.055.287v7.48a.72.72 0 0 0 .744.748M47.697 49.123h8.32a.73.73 0 0 0 .689-.461.75.75 0 0 0 .055-.287v-7.48a.745.745 0 0 0-.458-.692.7.7 0 0 0-.286-.056h-8.32a.73.73 0 0 0-.689.461.8.8 0 0 0-.055.287v7.48a.75.75 0 0 0 .458.693q.138.056.286.055M24.486 38.424h8.32a.773.773 0 0 0 .744-.748v-7.48a.745.745 0 0 0-.458-.692.7.7 0 0 0-.286-.055h-8.32a.735.735 0 0 0-.689.46.75.75 0 0 0-.055.288v7.48a.806.806 0 0 0 .744.747M36.174 38.424h8.32a.773.773 0 0 0 .744-.748v-7.48a.745.745 0 0 0-.459-.692.7.7 0 0 0-.285-.055h-8.32a.735.735 0 0 0-.69.46.75.75 0 0 0-.054.288v7.48a.745.745 0 0 0 .458.692c.09.037.188.056.286.055M47.697 38.424h8.32a.765.765 0 0 0 .744-.748v-7.48a.77.77 0 0 0-.744-.747h-8.32a.73.73 0 0 0-.689.46.8.8 0 0 0-.055.288v7.48a.773.773 0 0 0 .744.747M47.697 27.681h8.32a.735.735 0 0 0 .689-.46.75.75 0 0 0 .055-.288v-7.486a.773.773 0 0 0-.744-.748h-8.32a.73.73 0 0 0-.689.46.8.8 0 0 0-.055.288v7.48a.773.773 0 0 0 .744.747M59.299 49.123h8.32a.73.73 0 0 0 .689-.461.75.75 0 0 0 .055-.287v-7.48a.745.745 0 0 0-.459-.692.7.7 0 0 0-.285-.056h-8.32a.73.73 0 0 0-.69.461.75.75 0 0 0-.054.287v7.48a.773.773 0 0 0 .744.748"/></g><defs><clipPath id="a"><path fill="#fff" d="M0 0h103v105H0z"/></clipPath></defs></svg>