<svg xmlns="http://www.w3.org/2000/svg" width="66" height="79" fill="none" viewBox="0 0 66 79"><g fill-rule="evenodd" clip-path="url(#a)" clip-rule="evenodd"><path fill="#fff" d="m56.58.74 7.722 4.433a1 1 0 0 1 .124.064 2.26 2.26 0 0 1 .98 1.962v4.234-.005 30.673a7 7 0 0 1-.98 3.088 6.84 6.84 0 0 1-2.375 2.492L11.666 76.596a2.36 2.36 0 0 1-2.37.232l-.1-.064-7.73-4.433a2.34 2.34 0 0 1-.875-1.9V35.525a7.34 7.34 0 0 1 1.024-3.174 7.4 7.4 0 0 1 2.325-2.402L54.326 1.031a2.5 2.5 0 0 1 2.253-.29"/><path fill="#1b69ff" d="M55.798 1.156a2.5 2.5 0 0 0-1.191.383L4.22 30.442a6.8 6.8 0 0 0-2.124 2.206 6.8 6.8 0 0 0-.938 2.908l.005 34.872a1.72 1.72 0 0 0 .638 1.431l7.669 4.398a1.84 1.84 0 0 0 1.894-.166L61.75 47.178a6.36 6.36 0 0 0 2.162-2.276c.52-.86.83-1.828.905-2.827V11.51a.4.4 0 0 1 0-.078V7.198a1.69 1.69 0 0 0-.693-1.466L56.318 1.26a1.4 1.4 0 0 0-.524-.1zm-45.63 76.475A2.3 2.3 0 0 1 9 77.325l-.144-.088-7.688-4.414a2.94 2.94 0 0 1-1.163-2.36L0 35.522a7.9 7.9 0 0 1 1.097-3.46 7.95 7.95 0 0 1 2.535-2.612L54.037.528a3.07 3.07 0 0 1 2.771-.32.2.2 0 0 1 .06.03l7.728 4.433a2.81 2.81 0 0 1 1.39 2.499v4.184q.006.036.005.074L65.986 42.1a7.5 7.5 0 0 1-1.058 3.378 7.4 7.4 0 0 1-2.583 2.705L11.95 77.095a3.6 3.6 0 0 1-1.782.534z"/><path fill="url(#b)" d="M64.426 45.185c.565-.939.9-1.996.98-3.087L47.729 36.91l-8.292 11.954a8.3 8.3 0 0 1-2.583 2.483 3.33 3.33 0 0 1-2.578.477l-8.291-2.439L8.31 74.861a2.23 2.23 0 0 0 .98 1.962 2.36 2.36 0 0 0 2.37-.232l50.385-28.913a6.84 6.84 0 0 0 2.38-2.493"/><path fill="#1b69ff" d="M8.91 75.025a1.6 1.6 0 0 0 .677 1.3 1.83 1.83 0 0 0 1.786-.232L61.758 47.18a6.36 6.36 0 0 0 2.162-2.277 6.7 6.7 0 0 0 .86-2.385l-16.81-4.933-8.055 11.605a8.9 8.9 0 0 1-2.771 2.66 3.87 3.87 0 0 1-3.032.526l-7.887-2.316L8.904 75.025zm1.26 2.606a2.3 2.3 0 0 1-1.167-.306 2.78 2.78 0 0 1-1.267-2.439.56.56 0 0 1 .1-.354L25.51 49.058a.6.6 0 0 1 .648-.227l8.293 2.439a2.76 2.76 0 0 0 2.117-.423 7.7 7.7 0 0 0 2.395-2.312l8.292-11.953a.585.585 0 0 1 .643-.227l17.678 5.187a.585.585 0 0 1 .415.581 7.5 7.5 0 0 1-1.059 3.353 7.4 7.4 0 0 1-2.582 2.705L11.953 77.093a3.6 3.6 0 0 1-1.786.538z"/><path fill="#fbfbfc" d="M8.309 44.195v26.44-.01 4.239l17.673-25.476-2.44-.719z"/><path fill="#1b69ff" d="M8.885 70.55a.4.4 0 0 1 0 .074v2.38l16.159-23.29-16.164-4.75v25.589zm-.574 4.892a.5.5 0 0 1-.174-.03.58.58 0 0 1-.41-.55V44.19a.583.583 0 0 1 .748-.556l17.682 5.192a.59.59 0 0 1 .381.364.58.58 0 0 1-.07.52L8.797 75.183a.58.58 0 0 1-.485.26"/><path fill="#fbfbfc" d="M65.407 42.099V11.426L50.169 33.39l-2.444 3.52z"/><path fill="#1b69ff" d="M48.663 36.585 64.82 41.33l.005-28.042zm16.743 6.097a.7.7 0 0 1-.17-.025l-17.671-5.186a.6.6 0 0 1-.386-.364.59.59 0 0 1 .07-.52L64.93 11.104a.57.57 0 0 1 .648-.226.58.58 0 0 1 .41.55l-.005 30.674a.58.58 0 0 1-.578.58"/><path fill="#fff" d="M62.052 5.463 11.666 34.381a6.84 6.84 0 0 0-2.369 2.493 6.9 6.9 0 0 0-.98 3.083v4.239c25.786 7.576.713.212 25.965 7.63a3.34 3.34 0 0 0 2.577-.476 8.3 8.3 0 0 0 2.583-2.483c26.577-38.31.503-.733 25.969-37.434V7.2a2.24 2.24 0 0 0-.98-1.962 2.38 2.38 0 0 0-2.379.226"/><path fill="#1b69ff" d="m8.891 43.76 25.554 7.51a2.76 2.76 0 0 0 2.118-.424 7.7 7.7 0 0 0 2.395-2.31c12.69-18.292 13.375-19.28 13.402-19.315l.046.03c.227-.428.737-1.16 1.671-2.513l10.746-15.484V7.197a1.69 1.69 0 0 0-.693-1.465 1.86 1.86 0 0 0-1.786.231L11.95 34.876a6.3 6.3 0 0 0-2.153 2.281 6.34 6.34 0 0 0-.905 2.823zm26.083 8.74a3.1 3.1 0 0 1-.861-.123L8.143 44.75a.59.59 0 0 1-.414-.554v-4.24a7.5 7.5 0 0 1 1.058-3.373 7.43 7.43 0 0 1 2.583-2.704L61.756 4.964V4.96a2.93 2.93 0 0 1 2.953-.225 2.79 2.79 0 0 1 1.271 2.434v4.263a.6.6 0 0 1-.1.33C54 28.88 53.338 29.835 53.31 29.87l-.05-.03c-.237.443-.776 1.22-1.78 2.67L39.907 49.19a8.9 8.9 0 0 1-2.77 2.66 4.37 4.37 0 0 1-2.162.648"/><path fill="#1b69ff" d="m6.415 74.817 10.685-22a7.3 7.3 0 0 1 1.032-1.56c.37-.43.809-.793 1.3-1.077l11.325-6.544 5.028-13.088-3.218 3.664c-.987 1.121-2.183 1.335-2.671.484l-.823-1.454c-.476-.85-.068-2.463.92-3.585q8.055-9.147 16.106-18.301.324 10.105.635 20.2a4.4 4.4 0 0 1-.543 1.968 4.4 4.4 0 0 1-1.38 1.51l-1.86 1.145c-1.1.676-2.03.215-2.065-1.02l-.125-3.913-5.88 15.224a7.3 7.3 0 0 1-1.007 1.662c-.4.5-.888.926-1.44 1.256l-11.575 6.68-9.806 20.2c-.67 1.38-1.928 2.288-2.802 2.018l-1.475-.463c-.871-.267-1.029-1.62-.361-3.006"/><path fill="#1b69ff" d="M7.016 75.11a2.4 2.4 0 0 0-.262 1.855c.08.186.182.22.216.23l1.48.462c.442.135 1.408-.461 1.996-1.674l9.806-20.195c.057-.12.15-.22.266-.287l11.575-6.685a4.7 4.7 0 0 0 1.259-1.104 6.4 6.4 0 0 0 .905-1.506l5.87-15.192a.67.67 0 0 1 .733-.415.67.67 0 0 1 .56.629l.118 3.912a.78.78 0 0 0 .256.654.9.9 0 0 0 .794-.175l1.86-1.144a3.75 3.75 0 0 0 1.609-2.892l-.585-18.522-14.995 17.033a3.05 3.05 0 0 0-.833 2.83l.822 1.448a.3.3 0 0 0 .26.181 1.9 1.9 0 0 0 1.328-.778l3.219-3.658a.666.666 0 0 1 1.122.67l-5.029 13.089a.66.66 0 0 1-.29.339l-11.324 6.537c-.424.253-.805.57-1.129.942a6.7 6.7 0 0 0-.941 1.414L7.003 75.114zM8.58 79q-.272.003-.533-.08l-1.474-.461a1.7 1.7 0 0 1-1.043-.963 3.7 3.7 0 0 1 .283-2.96L16.497 52.53a7.7 7.7 0 0 1 1.135-1.708A5.9 5.9 0 0 1 19.1 49.6l11.116-6.414 3.62-9.412-.77.873a3.05 3.05 0 0 1-2.468 1.223 1.65 1.65 0 0 1-1.287-.851l-.817-1.448c-.63-1.1-.193-3.01.993-4.351l16.106-18.3a.66.66 0 0 1 .72-.187.68.68 0 0 1 .448.6l.635 20.207a5 5 0 0 1-.625 2.298 5.1 5.1 0 0 1-1.614 1.76l-1.86 1.143a2.13 2.13 0 0 1-2.128.214 2 2 0 0 1-.958-1.775l-.017-.632-4.696 12.158a7.8 7.8 0 0 1-1.111 1.837 6.1 6.1 0 0 1-1.623 1.42l-11.4 6.578-9.714 20.01a3.86 3.86 0 0 1-1.199 1.64 3.9 3.9 0 0 1-1.87.809"/></g><defs><linearGradient id="b" x1="36.857" x2="36.857" y1="36.91" y2="77.038" gradientUnits="userSpaceOnUse"><stop stop-color="#fff"/><stop offset="1" stop-color="#dbe7ff"/></linearGradient><clipPath id="a"><path fill="#fff" d="M0 0h66v79H0z"/></clipPath></defs></svg>