<svg xmlns="http://www.w3.org/2000/svg" width="80" height="77" fill="none" viewBox="0 0 80 77"><g clip-path="url(#a)"><path fill="#1b69ff" fill-rule="evenodd" d="m56.109.723 7.658 4.399a1 1 0 0 1 .123.063 2.24 2.24 0 0 1 .972 1.947V41.76a6.9 6.9 0 0 1-.972 3.062 6.8 6.8 0 0 1-2.354 2.474L11.565 75.978a2.34 2.34 0 0 1-2.35.23 1 1 0 0 1-.1-.064L1.45 71.746a2.32 2.32 0 0 1-.869-1.887V35.231a7.3 7.3 0 0 1 1.016-3.15A7.3 7.3 0 0 1 3.904 29.7l49.97-28.687a2.47 2.47 0 0 1 2.234-.289" clip-rule="evenodd"/><path fill="#1b69ff" fill-rule="evenodd" d="M8.245 39.624.58 35.227v4.205l7.664 4.397z" clip-rule="evenodd"/><path fill="#1b69ff" fill-rule="evenodd" d="m1.159 39.103 6.506 3.734v-2.88l-6.506-3.734zm7.085 5.3a.6.6 0 0 1-.29-.073L.29 39.932a.59.59 0 0 1-.29-.497V35.23a.578.578 0 0 1 .863-.496l7.664 4.398a.57.57 0 0 1 .29.496v4.205a.56.56 0 0 1-.354.527.6.6 0 0 1-.22.042z" clip-rule="evenodd"/><path fill="#1b69ff" fill-rule="evenodd" d="M63.772 5.119 56.108.72a2.51 2.51 0 0 0-2.237.288L3.9 29.695a7.3 7.3 0 0 0-2.308 2.382 7.3 7.3 0 0 0-1.014 3.15l7.664 4.397a6.8 6.8 0 0 1 .97-3.058 6.8 6.8 0 0 1 2.351-2.473L61.534 5.41a2.58 2.58 0 0 1 2.114-.337z" clip-rule="evenodd"/><path fill="#1b69ff" fill-rule="evenodd" d="m1.19 34.916 6.592 3.783c.173-.853.488-1.67.932-2.42a7.35 7.35 0 0 1 2.557-2.681L61.246 4.912q.265-.15.55-.263l-5.974-3.427a2.01 2.01 0 0 0-1.673.298L4.188 30.192a6.8 6.8 0 0 0-2.015 2.041 6.75 6.75 0 0 0-.988 2.686zM8.244 40.2a.6.6 0 0 1-.29-.078L.29 35.725a.57.57 0 0 1-.284-.531A7.84 7.84 0 0 1 1.1 31.778 7.9 7.9 0 0 1 3.603 29.2L53.583.512a2.98 2.98 0 0 1 2.781-.298l7.692 4.412a.58.58 0 0 1 .223.756.58.58 0 0 1-.742.273l-.118-.053a2.1 2.1 0 0 0-1.604.311L11.842 34.59a6.2 6.2 0 0 0-2.135 2.263 6.3 6.3 0 0 0-.899 2.81.563.563 0 0 1-.572.538z" clip-rule="evenodd"/><path fill="#fff" fill-rule="evenodd" d="M8.238 43.831.574 39.434q0 15.204.005 30.423a2.31 2.31 0 0 0 .868 1.887l7.665 4.398a2.33 2.33 0 0 1-.869-1.887q.002-15.214-.005-30.424" clip-rule="evenodd"/><path fill="#1b69ff" fill-rule="evenodd" d="m1.153 40.423.005 29.433a1.7 1.7 0 0 0 .632 1.42l5.913 3.393a6 6 0 0 1-.034-.375l-.01-30.137zM9.11 76.708a.6.6 0 0 1-.29-.073l-7.663-4.403A2.91 2.91 0 0 1 .005 69.89L0 39.433a.56.56 0 0 1 .285-.497.59.59 0 0 1 .58 0l7.658 4.399a.56.56 0 0 1 .289.496l.005 30.424a1.7 1.7 0 0 0 .638 1.42.574.574 0 0 1-.344 1.033" clip-rule="evenodd"/><path fill="#fff" fill-rule="evenodd" d="M63.89 44.815c.561-.931.894-1.98.973-3.063l-17.53-5.147-8.223 11.859a8.3 8.3 0 0 1-2.561 2.463 3.3 3.3 0 0 1-2.556.473l-8.223-2.42L8.245 74.253a2.21 2.21 0 0 0 .97 1.947 2.35 2.35 0 0 0 2.351-.23l49.971-28.68a6.8 6.8 0 0 0 2.354-2.474" clip-rule="evenodd"/><path fill="#1b69ff" fill-rule="evenodd" d="M8.833 74.411a1.59 1.59 0 0 0 .672 1.291 1.82 1.82 0 0 0 1.77-.23L61.248 46.79a6.3 6.3 0 0 0 2.144-2.258c.432-.728.722-1.53.854-2.366l-16.672-4.893-7.991 11.512a8.9 8.9 0 0 1-2.747 2.64 3.83 3.83 0 0 1-3.008.52l-7.82-2.297L8.824 74.414zm1.25 2.582a2.3 2.3 0 0 1-1.158-.298 2.77 2.77 0 0 1-1.256-2.42.56.56 0 0 1 .1-.352l17.526-25.272a.59.59 0 0 1 .642-.224l8.224 2.42a2.73 2.73 0 0 0 2.097-.42 7.6 7.6 0 0 0 2.375-2.293l8.223-11.858a.58.58 0 0 1 .637-.226l17.53 5.147a.58.58 0 0 1 .412.576 7.4 7.4 0 0 1-1.05 3.327 7.3 7.3 0 0 1-2.562 2.681L11.847 76.464a3.6 3.6 0 0 1-1.763.535z" clip-rule="evenodd"/><path fill="#fff" fill-rule="evenodd" d="M8.238 43.832v26.232l.005-.01v4.205L25.77 48.986l-2.42-.713z" clip-rule="evenodd"/><path fill="#1b69ff" fill-rule="evenodd" d="M8.813 69.975a.4.4 0 0 1 .005.073v2.36l16.024-23.102-16.03-4.712zm-.568 4.855a.5.5 0 0 1-.171-.029.58.58 0 0 1-.407-.546v-4.127c0-.02-.005-.043-.005-.068V43.83a.578.578 0 0 1 .741-.55l17.536 5.15a.58.58 0 0 1 .405.629.6.6 0 0 1-.097.25L8.722 74.577a.58.58 0 0 1-.477.253" clip-rule="evenodd"/><path fill="#fff" fill-rule="evenodd" d="M64.863 41.753V11.324L49.751 33.118l-2.424 3.493z" clip-rule="evenodd"/><path fill="#1b69ff" fill-rule="evenodd" d="m48.259 36.28 16.023 4.706.005-27.819zm16.603 6.048a.6.6 0 0 1-.167-.025L47.17 37.157a.6.6 0 0 1-.383-.36.58.58 0 0 1 .069-.518l17.53-25.278a.565.565 0 0 1 .643-.224.57.57 0 0 1 .407.546l-.005 30.429a.595.595 0 0 1-.574.58z" clip-rule="evenodd"/><path fill="#fff" fill-rule="evenodd" d="m61.537 5.407-49.971 28.69a6.8 6.8 0 0 0-2.35 2.474 6.8 6.8 0 0 0-.972 3.058v4.202c25.573 7.517.706.21 25.748 7.57a3.3 3.3 0 0 0 2.556-.472 8.3 8.3 0 0 0 2.561-2.463c26.356-38.004.5-.727 25.754-37.135v-4.2a2.22 2.22 0 0 0-.972-1.947 2.36 2.36 0 0 0-2.355.223" clip-rule="evenodd"/><path fill="#1b69ff" fill-rule="evenodd" d="m8.818 43.402 25.34 7.448a2.73 2.73 0 0 0 2.099-.42 7.6 7.6 0 0 0 2.374-2.292l13.286-19.16.045.03c.226-.425.731-1.152 1.657-2.493l10.657-15.36V7.13a1.67 1.67 0 0 0-.687-1.454 1.84 1.84 0 0 0-1.771.23L11.842 34.588a6.9 6.9 0 0 0-2.092 2.193 6.8 6.8 0 0 0-.941 2.873v3.75zm25.865 8.667q-.435-.001-.854-.122L8.076 44.382a.58.58 0 0 1-.412-.551v-4.205a7.4 7.4 0 0 1 1.05-3.346 7.4 7.4 0 0 1 2.561-2.682L61.246 4.916a2.91 2.91 0 0 1 2.929-.225 2.778 2.778 0 0 1 1.261 2.414v4.23a.6.6 0 0 1-.1.326c-11.78 16.983-12.438 17.932-12.463 17.966l-.049-.03c-.235.44-.77 1.21-1.766 2.65L39.585 48.789a8.85 8.85 0 0 1-2.747 2.639 4.3 4.3 0 0 1-2.154.646z" clip-rule="evenodd"/><path fill="#fff" fill-rule="evenodd" d="M64.863 11.329v-4.2L38.24 45.509a5.4 5.4 0 0 1-1.698 1.629 2.16 2.16 0 0 1-1.687.312l-26.61-7.824v4.205c23.088 6.785 5.533 1.629 25.747 7.571a3.3 3.3 0 0 0 2.556-.473 8.3 8.3 0 0 0 2.561-2.463z" clip-rule="evenodd"/><path fill="#1b69ff" fill-rule="evenodd" d="m8.822 43.403 25.34 7.449a2.73 2.73 0 0 0 2.099-.42 7.6 7.6 0 0 0 2.374-2.293l13.286-19.16.045.03c.226-.425.731-1.152 1.657-2.493l10.663-15.36V8.97L38.719 45.838a6 6 0 0 1-1.879 1.8 2.74 2.74 0 0 1-2.139.366L8.821 40.4v3.005zm25.865 8.667q-.435-.001-.854-.122L8.08 44.383a.58.58 0 0 1-.412-.551v-4.205a.58.58 0 0 1 .477-.562.6.6 0 0 1 .264.012L35.031 46.9a1.62 1.62 0 0 0 1.232-.253 4.8 4.8 0 0 0 1.506-1.46L64.386 6.802a.573.573 0 0 1 1.048.327v4.2c0 .116-.036.23-.1.327A19120 19120 0 0 1 52.87 29.62l-.049-.029c-.235.439-.77 1.21-1.766 2.649L39.58 48.786a8.85 8.85 0 0 1-2.747 2.639c-.648.4-1.39.62-2.153.642z" clip-rule="evenodd"/><path fill="#1b69ff" fill-rule="evenodd" d="M8.974 37.01 1.31 32.605a6.7 6.7 0 0 0-.73 2.62l7.664 4.397a6.7 6.7 0 0 1 .73-2.614" clip-rule="evenodd"/><path fill="#1b69ff" fill-rule="evenodd" d="m1.189 34.906 6.593 3.788q.151-.752.456-1.454L1.58 33.416a5.8 5.8 0 0 0-.387 1.49zm7.055 5.29a.6.6 0 0 1-.29-.077L.29 35.721a.58.58 0 0 1-.284-.532c.065-.99.334-1.957.79-2.84a.58.58 0 0 1 .578-.31.6.6 0 0 1 .221.067L9.26 36.51a.57.57 0 0 1 .23.746 6.1 6.1 0 0 0-.676 2.4.56.56 0 0 1-.3.473.6.6 0 0 1-.274.071z" clip-rule="evenodd"/><path fill="#fff" d="M73.77 41.268c3.441-6.866 2.577-14.242-1.93-16.475-4.506-2.232-10.95 1.523-14.39 8.389-3.442 6.866-2.578 14.241 1.929 16.474s10.95-1.523 14.391-8.388"/><path fill="#2979e4" d="M65.784 49.542c-5.935 2.859-10.764-.497-10.764-7.478s4.83-14.989 10.764-17.848c5.935-2.86 10.764.496 10.764 7.476s-4.83 14.99-10.764 17.85m0-23.836c-5.236 2.522-9.498 9.587-9.498 15.748 0 6.162 4.262 9.12 9.498 6.598 5.236-2.523 9.498-9.588 9.498-15.749 0-6.16-4.263-9.118-9.498-6.597"/><path fill="#2979e4" d="M72.39 43.247a.42.42 0 0 1-.475-.023L58.7 31.972c-.232-.199-.207-.68.056-1.079.262-.399.66-.56.893-.364L72.865 41.78c.23.199.205.68-.057 1.079a1.1 1.1 0 0 1-.419.387"/></g><defs><clipPath id="a"><path fill="#fff" d="M0 0h80v77H0z"/></clipPath></defs></svg>