<svg xmlns="http://www.w3.org/2000/svg" width="82" height="94" fill="none" viewBox="0 0 82 94"><g fill-rule="evenodd" clip-path="url(#a)" clip-rule="evenodd"><path fill="#cee7fd" d="M8.93 50.466v39.749a3.13 3.13 0 0 0 1.1 2.657l-7.56-4.363a3.13 3.13 0 0 1-1.1-2.663V46.088z"/><path fill="#23356b" d="M2.058 47.296V85.85a2.42 2.42 0 0 0 .84 2.108l5.407 3.118a7 7 0 0 1-.065-.839V50.87zm7.971 46.271a.75.75 0 0 1-.343-.089L2.13 89.114a3.85 3.85 0 0 1-1.458-3.253v-39.77a.7.7 0 0 1 1.045-.6l7.563 4.37a.7.7 0 0 1 .348.6v39.752a2.38 2.38 0 0 0 .827 2.1.691.691 0 0 1-.425 1.246z"/><path fill="#fff" d="M59.123 20.941v39.752a9.46 9.46 0 0 1-4.262 7.392L12.73 92.41c-2.344 1.352-4.27.242-4.27-2.468V50.19z"/><path fill="#23356b" d="M9.153 50.591v39.351a2.34 2.34 0 0 0 .909 2.155 2.37 2.37 0 0 0 2.32-.289L54.51 67.483a7.9 7.9 0 0 0 2.757-2.934 8 8 0 0 0 1.157-3.855V22.142L9.153 50.588zM10.83 93.68a2.9 2.9 0 0 1-1.465-.378 3.65 3.65 0 0 1-1.6-3.359V50.19a.69.69 0 0 1 .349-.6l50.663-29.255a.687.687 0 0 1 .944.254.7.7 0 0 1 .094.346v39.752a10.14 10.14 0 0 1-4.618 7.994l-42.125 24.32a4.54 4.54 0 0 1-2.242.678"/><path fill="#2b1f51" d="M13.199 30.216C33.709 18.371 49.073 9.497 55.325 5.89a2.99 2.99 0 0 1 3.017-.295 3 3 0 0 1 1.252 2.757v12.865L8.93 50.467V37.602a9.44 9.44 0 0 1 4.269-7.386"/><path fill="#23356b" d="M13.545 30.812a8.15 8.15 0 0 0-2.758 2.934 8 8 0 0 0-1.157 3.855v11.661L58.9 20.816V8.356a1.932 1.932 0 0 0-3.223-1.86l-42.132 24.32zM8.933 51.157a.65.65 0 0 1-.342-.094.68.68 0 0 1-.349-.6V37.597a10.1 10.1 0 0 1 4.612-7.988L54.986 5.284a3.28 3.28 0 0 1 5.308 3.064v12.865a.69.69 0 0 1-.349.6L9.282 51.062a.66.66 0 0 1-.35.094z"/><path fill="#fcfcfc" d="M5.199 25.592 47.33 1.274a3.12 3.12 0 0 1 2.863-.372l8 4.617a3.14 3.14 0 0 0-2.87.372l-.614.348-.661.389Q33.62 18.42 13.199 30.22a9.4 9.4 0 0 0-4.27 7.386v12.865l-8-4.618V32.988a9.42 9.42 0 0 1 4.27-7.396"/><path fill="#23356b" d="m1.625 45.45 6.612 3.814V37.603a10.08 10.08 0 0 1 4.6-7.982L54.983 5.286q.379-.21.78-.372l-5.916-3.42a2.48 2.48 0 0 0-2.185.385L5.554 26.186a8.75 8.75 0 0 0-3.927 6.8v12.458zm7.3 5.709a.66.66 0 0 1-.342-.094l-8-4.617a.7.7 0 0 1-.349-.6V32.986a10.07 10.07 0 0 1 4.6-7.983c.006-.006.006-.006.018-.006L46.977.673a3.82 3.82 0 0 1 3.477-.408l8.078 4.653a.694.694 0 0 1-.62 1.24 2.43 2.43 0 0 0-2.256.343l-42.12 24.313a8.73 8.73 0 0 0-3.914 6.8v12.859a.69.69 0 0 1-.348.6.66.66 0 0 1-.345.085z"/><path fill="#fcfcfc" d="M10.555 32.803 2.56 28.186a9.06 9.06 0 0 0-1.63 4.8V45.85l8 4.618V37.603a9.05 9.05 0 0 1 1.625-4.8"/><path fill="#23356b" d="m1.625 45.448 6.612 3.814V37.6c.05-1.61.514-3.18 1.346-4.558l-6.795-3.926a8.06 8.06 0 0 0-1.164 3.873zm7.3 5.709a.66.66 0 0 1-.342-.094l-8-4.617a.7.7 0 0 1-.349-.6V32.983a9.7 9.7 0 0 1 1.748-5.19.683.683 0 0 1 .915-.213l8 4.617a.7.7 0 0 1 .33.442.72.72 0 0 1-.1.549 8.25 8.25 0 0 0-1.506 4.416v12.859a.694.694 0 0 1-.692.694zm43.47 29.331-4.989-2.88c5.845 3.288 13.12-2.22 16.84-6.466 5.183-5.923 9.765-16.036 7.8-23.912a8.66 8.66 0 0 0-3.862-5.609l5.237 3.035c5.254 3.336 4.428 11.778 2.8 16.957-2.42 7.687-8.939 16.974-16.868 19.365a8.7 8.7 0 0 1-6.958-.49"/><path fill="#23356b" d="M52.737 79.887a8 8 0 0 0 6.412.425c7.587-2.284 14-11.241 16.408-18.9 1.76-5.6 2.161-13.2-2.51-16.165l-1.28-.739c.414.814.733 1.674.95 2.562 2.06 8.26-2.675 18.51-7.953 24.538-3.354 3.832-8.3 7.486-13.049 7.693l1.022.591zm3.49 2.279a8.4 8.4 0 0 1-4.174-1.068q0-.003-.002-.004l-.004-.002-4.99-2.881a.693.693 0 0 1 .691-1.2c5.526 3.105 12.641-2.51 15.97-6.318 5.208-5.952 9.506-15.858 7.652-23.286a7.93 7.93 0 0 0-3.543-5.178.7.7 0 0 1 .7-1.2l5.236 3.034c5.361 3.4 5.025 11.691 3.112 17.766-2.52 8.012-9.28 17.393-17.329 19.82a11.5 11.5 0 0 1-3.319.517"/><path fill="#fff" d="M61.216 44.839c-8.012 4.628-14.513 15.876-14.513 25.128s6.5 12.994 14.513 8.372 14.5-15.877 14.5-25.122-6.494-13-14.5-8.378"/><path fill="#23356b" d="M67.69 43.553a12.5 12.5 0 0 0-6.128 1.89c-7.805 4.51-14.158 15.51-14.158 24.526 0 4.209 1.387 7.333 3.9 8.785s5.91 1.092 9.565-1.01c7.805-4.51 14.158-15.51 14.158-24.525 0-4.215-1.387-7.34-3.9-8.791a6.8 6.8 0 0 0-3.437-.874zM54.738 81.02a8.1 8.1 0 0 1-4.121-1.063c-2.97-1.711-4.6-5.26-4.6-9.99 0-9.458 6.666-21 14.855-25.723 4.09-2.368 7.982-2.727 10.946-1.015s4.6 5.26 4.6 9.99c0 9.459-6.666 21-14.855 25.724a13.85 13.85 0 0 1-6.825 2.077"/><path fill="#23356b" d="M57.795 38.889c3.655-2.055 8.414-3.56 12.38-1.423l4.99 2.876c-7.333-3.649-16.03 3.123-20.558 8.413-6.063 7.091-11.271 18.68-9.411 28.074a11.06 11.06 0 0 0 4.587 7.474c-1.187-.685-4.646-2.592-5.562-3.282-5.715-4.316-4.782-13.922-2.97-19.92 2.628-8.68 8.65-17.542 16.544-22.212"/><path fill="#23356b" d="M58.139 39.49c-7.233 4.286-13.45 12.64-16.219 21.81-1.942 6.429-2.4 15.3 2.721 19.164q.715.508 1.477.939a14.2 14.2 0 0 1-1.605-4.44c-1.925-9.76 3.607-21.7 9.564-28.658 4.21-4.918 10.585-9.683 16.661-9.683h.066l-.97-.561c-3.885-2.078-8.5-.372-11.7 1.429zm-8.355 45.5a.7.7 0 0 1-.348-.094l-1.121-.637c-1.594-.9-3.773-2.131-4.51-2.686-5.68-4.293-5.386-13.5-3.213-20.677 2.87-9.487 9.324-18.149 16.852-22.606a.02.02 0 0 1 .011-.006c3.5-1.972 8.608-3.82 13.054-1.435l5.007 2.887a.7.7 0 0 1-.656 1.228c-6.547-3.265-14.725 2.4-19.726 8.236-5.744 6.719-11.093 18.185-9.257 27.49a10.28 10.28 0 0 0 4.292 7.026.693.693 0 0 1-.383 1.275z"/><path fill="#23356b" d="m52.14 80.336-4.984-2.875 5.237 3.029z"/><path fill="#23356b" d="M52.4 81.185a.74.74 0 0 1-.348-.094l-5.243-3.028a.705.705 0 0 1-.248-.951.69.69 0 0 1 .944-.254h.006l4.983 2.874.012.013.248.153a.686.686 0 0 1 .242.945.7.7 0 0 1-.596.342"/><path fill="#cee7fd" d="M73.168 44.503a7.9 7.9 0 0 0-4.77-.933 14.3 14.3 0 0 0-5.622 1.966 25.3 25.3 0 0 0-5.62 4.523 35.3 35.3 0 0 0-7.954 13.786 25.2 25.2 0 0 0-1.116 7.132 14.1 14.1 0 0 0 1.116 5.851 7.48 7.48 0 0 0 7.953 4.593 14.1 14.1 0 0 0 5.621-1.961 25.4 25.4 0 0 0 5.621-4.528 35.1 35.1 0 0 0 7.958-13.786 25.3 25.3 0 0 0 1.116-7.132 14.2 14.2 0 0 0-1.116-5.845 7.86 7.86 0 0 0-3.187-3.666m-23.085 10.67c3.247-5.634 7.74-10.546 12.694-13.401s9.446-3.129 12.694-1.257 5.261 5.9 5.261 11.62c0 5.718-2.013 12.067-5.26 17.7-3.249 5.631-7.735 10.537-12.695 13.4-4.96 2.861-9.447 3.128-12.694 1.25s-5.255-5.892-5.255-11.619 2.008-12.068 5.255-17.688z"/><path fill="#23356b" d="M69.344 44.219c-.283 0-.58.012-.874.04a13.6 13.6 0 0 0-5.343 1.873 24.7 24.7 0 0 0-5.467 4.4 34.45 34.45 0 0 0-7.788 13.508 24.4 24.4 0 0 0-1.086 6.932 13.5 13.5 0 0 0 1.05 5.561 6.794 6.794 0 0 0 7.257 4.192 13.5 13.5 0 0 0 5.342-1.871 24.5 24.5 0 0 0 5.462-4.4 34.45 34.45 0 0 0 7.793-13.508 24.4 24.4 0 0 0 1.086-6.932 13.5 13.5 0 0 0-1.051-5.561 7.17 7.17 0 0 0-2.9-3.348 6.85 6.85 0 0 0-3.478-.885zM56.208 82.158a8.2 8.2 0 0 1-4.163-1.068 8.45 8.45 0 0 1-3.472-3.979 14.8 14.8 0 0 1-1.181-6.135 26 26 0 0 1 1.145-7.327 35.94 35.94 0 0 1 8.118-14.07 26 26 0 0 1 5.78-4.646 14.9 14.9 0 0 1 5.893-2.055 8.52 8.52 0 0 1 5.186 1.026h.004a8.5 8.5 0 0 1 3.47 3.98 14.8 14.8 0 0 1 1.176 6.129 25.9 25.9 0 0 1-1.14 7.333 35.9 35.9 0 0 1-8.123 14.063 25.7 25.7 0 0 1-5.774 4.653 14.8 14.8 0 0 1-5.9 2.049q-.51.05-1.021.047zm14.588-42.155a8.5 8.5 0 0 1 4.328 1.11c3.17 1.823 4.912 5.738 4.912 11.017 0 5.42-1.836 11.578-5.167 17.346s-7.746 10.439-12.434 13.149c-4.575 2.639-8.832 3.082-12 1.251s-4.912-5.738-4.912-11.016c0-5.42 1.836-11.578 5.165-17.347 3.33-5.768 7.747-10.433 12.44-13.142a15.64 15.64 0 0 1 7.668-2.368M54.76 86.373a9.85 9.85 0 0 1-5.02-1.292c-3.612-2.084-5.608-6.424-5.608-12.221 0-5.657 1.9-12.062 5.348-18.037 3.455-5.981 8.053-10.828 12.953-13.656 5.013-2.9 9.772-3.341 13.385-1.257s5.6 6.429 5.6 12.222c0 5.656-1.9 12.062-5.35 18.043-3.448 5.981-8.046 10.822-12.947 13.651a16.93 16.93 0 0 1-8.361 2.548"/><path fill="#23356b" d="m54.685 61.68 7.893 2.25.7-1.483-7.888-2.249-.7 1.482zm8.27 3.771a.7.7 0 0 1-.188-.023l-9.247-2.64a.73.73 0 0 1-.443-.378.7.7 0 0 1 .006-.584l1.3-2.757a.69.69 0 0 1 .814-.372l9.252 2.64a.7.7 0 0 1 .432.962l-1.293 2.758a.7.7 0 0 1-.632.394"/><path fill="#23356b" d="M60.804 67.233a.65.65 0 0 1-.343-.095.69.69 0 0 1-.26-.944L70.934 47.62a.68.68 0 0 1 .945-.254.693.693 0 0 1 .253.945L61.404 66.885a.69.69 0 0 1-.6.348M4.683 90.485a.7.7 0 0 1-.419-.143 3.82 3.82 0 0 1-1.38-3.2V47.37a.694.694 0 1 1 1.386 0v39.753a2.4 2.4 0 0 0 .833 2.108.7.7 0 0 1-.108 1.18.7.7 0 0 1-.312.073"/><path fill="#23356b" d="M7.002 91.826a.7.7 0 0 1-.42-.142 3.85 3.85 0 0 1-1.387-3.2v-39.77a.694.694 0 1 1 1.388 0v39.754a2.42 2.42 0 0 0 .838 2.108.7.7 0 0 1-.112 1.177.7.7 0 0 1-.307.073"/></g><defs><clipPath id="a"><path fill="#fff" d="M.242 0H81.43v93.678H.242z"/></clipPath></defs></svg>