<svg xmlns="http://www.w3.org/2000/svg" width="93" height="125" fill="none" viewBox="0 0 93 125"><g clip-path="url(#a)"><g clip-path="url(#b)"><path fill="#fff" d="M30.821 103.993c-1.567 0-3.137-.388-4.308-1.064l-12.575-7.26c-.982-.567-1.382-1.161-1.432-1.538l-.003-.029a1 1 0 0 1 .002-.095l.004-.057v-.058a50315 50315 0 0 1 0-39.849.77.77 0 0 1 .196-.404c4.09-4.846 9.48-9.217 16.02-12.992 6.582-3.8 14.23-6.94 22.73-9.332a7.8 7.8 0 0 1 2.091-.268c1.568 0 3.138.387 4.308 1.063l12.575 7.26c1.028.594 1.462 1.26 1.435 1.659l-.125 1.898.13-.022v36.52l-.202.044.191 1.374c.019.13.013.312-.196.559-4.09 4.844-9.479 9.215-16.02 12.99-6.582 3.8-14.23 6.941-22.73 9.333a8 8 0 0 1-2.09.268"/><path fill="#005bea" d="M53.546 32.547a6.3 6.3 0 0 0-1.685.212c-8.38 2.358-15.912 5.449-22.386 9.187-6.306 3.64-11.508 7.836-15.468 12.477-.004 3.473 0 26.773.002 39.426.098.113.307.307.68.521l12.574 7.26c.936.54 2.266.863 3.558.863.61 0 1.193-.073 1.685-.212 8.38-2.358 15.913-5.45 22.387-9.187 6.285-3.629 11.473-7.809 15.426-12.428l-.329-2.364.379-.083V44.684l-.253.044.235-3.545c-.1-.114-.308-.304-.672-.514l-12.575-7.26c-.935-.54-2.265-.862-3.558-.862m0-3c1.78 0 3.635.442 5.058 1.264l12.575 7.26c1.487.858 2.253 1.988 2.182 3.057l.007-.002v39.505l-.024.006c.084.602-.085 1.199-.536 1.733-8.443 10-22.168 17.924-39.49 22.799-2.364.666-5.436.283-7.555-.941l-12.575-7.26c-1.331-.768-2.087-1.754-2.178-2.72l-.001-.014a2 2 0 0 1 0-.341s-.009-39.824 0-39.937v-.042l.005-.002c.042-.432.218-.854.546-1.242 8.443-10.001 22.167-17.925 39.489-22.8a9.3 9.3 0 0 1 2.497-.323"/><path fill="#005bea" d="M51.048 29.87a10.5 10.5 0 0 1 7.555.94l12.574 7.26c2.12 1.224 2.781 3 1.63 4.363-8.443 10-22.168 17.924-39.49 22.8a10.5 10.5 0 0 1-7.556-.94l-12.575-7.26c-2.12-1.223-2.781-3-1.629-4.362 8.446-10.003 22.172-17.926 39.49-22.801"/><path fill="#cee7fd" d="M27.404 59.946a4.765 4.765 0 0 1-4.765-4.764v-6.086a34.66 34.66 0 0 1 17.28-29.928 15.8 15.8 0 0 1 15.965 0 15.8 15.8 0 0 1 7.982 13.82v3.893a4.765 4.765 0 0 1-9.53 0v-3.893a6.37 6.37 0 0 0-3.216-5.573 6.37 6.37 0 0 0-6.435 0 25.1 25.1 0 0 0-12.517 21.68v6.086a4.764 4.764 0 0 1-4.764 4.765"/><path fill="#005bea" d="m83.677 57.544-.024-.013a6 6 0 0 0-.428-.247l-3.723-2.146c-2.173-1.3-5.025-1.209-8.15.6-6.808 3.931-12.327 14.475-12.327 23.552 0 5.006 1.68 8.515 4.327 10l3.97 2.283c2.162 1.252 4.983 1.14 8.07-.642 6.807-3.93 12.326-14.475 12.326-23.552-.002-4.823-1.556-8.26-4.04-9.835"/><path fill="#005bea" d="M87.717 67.381c0 9.077-5.52 19.622-12.327 23.552s-12.327-.242-12.327-9.319 5.519-19.622 12.326-23.553c6.809-3.93 12.328.244 12.328 9.32"/><path fill="#005bea" d="M80.284 57.97a5.03 5.03 0 0 1 4.225 2.28 12.4 12.4 0 0 1 1.822 7.134 28.9 28.9 0 0 1-3.455 13.064c-2.208 4.219-5.114 7.517-8.182 9.289a8.5 8.5 0 0 1-4.2 1.294 5.03 5.03 0 0 1-4.226-2.28 12.4 12.4 0 0 1-1.822-7.133 28.9 28.9 0 0 1 3.453-13.064c2.208-4.22 5.114-7.518 8.18-9.29a8.5 8.5 0 0 1 4.2-1.293m0-1.385a9.9 9.9 0 0 0-4.893 1.479c-6.807 3.93-12.327 14.475-12.327 23.553 0 6.759 3.06 10.8 7.433 10.8a9.9 9.9 0 0 0 4.894-1.48c6.808-3.93 12.327-14.474 12.327-23.551 0-6.76-3.06-10.801-7.433-10.801"/><path fill="#fff" d="M73.352 86.215a1.77 1.77 0 0 1-2.012.05l-5.12-3.871c-1.111-.84-1.111-3.241 0-5.364s2.912-3.162 4.023-2.322l3.109 2.35 6.57-12.553c1.111-2.123 2.912-3.163 4.023-2.323s1.111 3.242 0 5.364l-8.581 16.4a5.6 5.6 0 0 1-2.012 2.269"/></g></g><defs><clipPath id="a"><path fill="#fff" d="M0 0h93v125H0z"/></clipPath><clipPath id="b"><path fill="#fff" d="M11-1h77v125H11z"/></clipPath></defs></svg>