<svg xmlns="http://www.w3.org/2000/svg" width="82" height="82" fill="none" viewBox="0 0 82 82"><path fill="#348fd9" d="M11.531 24.344H70.47a5.125 5.125 0 0 1 5.125 5.125v39.719a3.843 3.843 0 0 1-3.844 3.843h-61.5a3.843 3.843 0 0 1-3.844-3.844V29.47a5.125 5.125 0 0 1 5.125-5.125"/><path fill="#60d1e0" d="M68.97 10.468a5.16 5.16 0 0 0-3.626-1.5H16.656a5.123 5.123 0 0 0-5.125 5.126v60.219H70.47v-60.22a5.16 5.16 0 0 0-1.5-3.625"/><path fill="#3fb7c7" d="M16.656 12.813h2.563v2.562h-2.563zm5.125 0h2.563v2.562H21.78zm5.125 0h2.563v2.562h-2.563zm-10.25 5.125h32.032V20.5H16.656z"/><path fill="#60d1e0" d="M68.97 10.468a5.16 5.16 0 0 0-3.626-1.5H16.656a5.123 5.123 0 0 0-5.125 5.126v60.219H70.47v-60.22a5.16 5.16 0 0 0-1.5-3.625"/><path fill="#3fb7c7" d="M16.656 12.813h2.563v2.562h-2.563zm5.125 0h2.563v2.562H21.78zm5.125 0h2.563v2.562h-2.563zm-10.25 5.125h32.032V20.5H16.656z"/><path fill="#5ac6d4" d="M70.469 25.625 21.78 74.313h48.69z"/><path fill="#e0e0de" d="M48.688 71.75a4.38 4.38 0 0 1-3.094 1.281h-9.188a4.37 4.37 0 0 1-3.093-1.281 4.38 4.38 0 0 0-3.094-1.281H3.844v3.844a3.844 3.844 0 0 0 3.844 3.843h66.625a3.843 3.843 0 0 0 3.843-3.844V70.47H51.781a4.37 4.37 0 0 0-3.093 1.281"/><path fill="#d6d6d4" d="M73.031 70.469v3.844a3.843 3.843 0 0 1-3.844 3.843h5.126a3.843 3.843 0 0 0 3.843-3.844V70.47z"/><path fill="#3086cd" d="M70.469 38.438h5.125V41h-5.125zM6.406 60.219h5.125v2.562H6.406z"/><path fill="#5ac6d4" d="M55.094 38.438h15.375V41H55.094zM11.531 52.531h30.75v10.25h-30.75z"/><path fill="#ffb531" d="M52.531 19.219h25.625v19.219H52.531z"/><path fill="#e0e0de" d="M55.094 14.094h5.125a5.125 5.125 0 1 1 10.25 0v5.125h5.125v-5.125a10.25 10.25 0 0 0-20.5 0"/><path fill="#95573a" d="M67.277 28.573a2.563 2.563 0 1 0-3.867 0 5.12 5.12 0 0 0-3.191 4.74h10.25a5.12 5.12 0 0 0-3.192-4.74"/><path fill="#ffa912" d="M52.531 38.437h25.625a22.34 22.34 0 0 0-25.625 0"/><path fill="#ffcb73" d="M78.156 19.219H52.531a22.34 22.34 0 0 0 25.625 0"/><path fill="#ffb531" d="M3.844 49.969h35.875v10.25H3.844z"/><path fill="#ffa912" d="M3.844 49.969h35.875v2.562H3.844z"/><path fill="#000" d="M7.688 29.469a3.85 3.85 0 0 1 2.562-3.624v20.28h2.563V14.094a3.85 3.85 0 0 1 3.843-3.844H51.25V7.688H16.656a6.413 6.413 0 0 0-6.406 6.406v9.097a6.42 6.42 0 0 0-5.125 6.278v15.375h2.563zm70.468 39.719h-1.281V42.28h-2.562v26.907H51.78a5.62 5.62 0 0 0-4 1.656 3.08 3.08 0 0 1-2.187.906h-9.188a3.07 3.07 0 0 1-2.187-.906 5.62 5.62 0 0 0-4-1.656H7.688v-5.126H5.124v5.126h-1.28a1.28 1.28 0 0 0-1.281 1.28v3.844a5.13 5.13 0 0 0 5.124 5.126h66.626a5.13 5.13 0 0 0 5.124-5.126V70.47a1.28 1.28 0 0 0-1.28-1.281m-1.281 5.124a2.565 2.565 0 0 1-2.562 2.563H7.688a2.565 2.565 0 0 1-2.563-2.562V71.75h25.094a3.07 3.07 0 0 1 2.188.906 5.62 5.62 0 0 0 3.993 1.656h9.2a5.62 5.62 0 0 0 3.993-1.656 3.07 3.07 0 0 1 2.188-.906h25.094z"/><path fill="#000" d="M69.188 42.281h2.562v24.344h-2.562zM10.25 64.063h2.563v2.562H10.25zm6.406-51.25h2.563v2.562h-2.563zm5.125 0h2.563v2.562H21.78zm5.125 0h2.563v2.562h-2.563zm-10.25 5.125h32.032V20.5H16.656zm19.718 9.005a12.83 12.83 0 0 1 12.71 1.165l1.476-2.096a15.355 15.355 0 0 0-17.685 0l1.475 2.096a13 13 0 0 1 2.023-1.165m13.071 40.249a31.9 31.9 0 0 0 6.61-10.183l-2.374-.962a29.3 29.3 0 0 1-6.082 9.368z"/><path fill="#000" d="M78.157 17.938h-1.281v-3.844a11.531 11.531 0 0 0-23.063 0 1.28 1.28 0 0 0 1.281 1.281h5.125a1.28 1.28 0 0 0 1.282-1.281 3.844 3.844 0 1 1 7.687 0v3.844H52.532a1.28 1.28 0 0 0-1.281 1.28V30.87a22.6 22.6 0 0 0-10.455-2.528h-.18a21.24 21.24 0 0 0-11.982 3.694l1.44 2.12a18.7 18.7 0 0 1 10.542-3.252h.18c3.687-.017 7.306.99 10.455 2.908V36.9a17.36 17.36 0 0 0-10.454-3.434h-.179a16.41 16.41 0 0 0-13.429 7.071l-.615.884 2.104 1.464.614-.883a13.85 13.85 0 0 1 11.326-5.974h.18c4.778 0 9.182 2.193 11.778 5.864a13.6 13.6 0 0 1 2.006 4.228c.681 2.392.68 4.927-.001 7.319l2.466.696c.811-2.847.812-5.864.001-8.712a16.2 16.2 0 0 0-2.902-5.704h24.011a1.28 1.28 0 0 0 1.281-1.282V19.22a1.28 1.28 0 0 0-1.281-1.282M65.345 7.688a6.42 6.42 0 0 0-6.279 5.125h-2.599a8.969 8.969 0 0 1 17.846 1.28v3.845h-2.562v-3.844a6.413 6.413 0 0 0-6.407-6.406m11.53 29.468h-23.06V20.5h23.063z"/><path fill="#000" d="M69.006 28.06c.12-.373.181-.762.181-1.154a3.844 3.844 0 0 0-7.687 0c0 .392.062.78.182 1.153a6.37 6.37 0 0 0-2.745 5.253 1.28 1.28 0 0 0 1.282 1.282h10.25a1.28 1.28 0 0 0 1.281-1.282 6.37 6.37 0 0 0-2.744-5.253m-7.287 3.971a3.84 3.84 0 0 1 2.176-2.274 1.283 1.283 0 0 0 .486-2.023 1.26 1.26 0 0 1-.319-.828 1.28 1.28 0 1 1 2.563 0c-.003.306-.116.6-.318.829a1.28 1.28 0 0 0 .486 2.022 3.83 3.83 0 0 1 2.176 2.274zM3.844 61.498h25.965l-.157.158 1.812 1.812 1.97-1.97h3.615l-3.592 3.592 1.812 1.812 6.442-6.443a21.9 21.9 0 0 0 5.404-8.862 5.96 5.96 0 0 0-.892-5.368 6.08 6.08 0 0 0-4.954-2.514h-.653c-2.586 0-4.916 1.7-5.8 4.237a9 9 0 0 1-.286.734h-2.931a6.4 6.4 0 0 0 .798-1.568c1.23-3.568 4.533-5.966 8.218-5.966h.654a8.73 8.73 0 0 1 7.012 3.55 8.5 8.5 0 0 1 1.273 7.661 24.5 24.5 0 0 1-6.026 9.908L38.8 66.999l1.812 1.812 4.728-4.728a27.04 27.04 0 0 0 6.657-10.947 11.03 11.03 0 0 0-1.649-9.949 11.3 11.3 0 0 0-9.08-4.597h-.652c-4.779 0-9.055 3.09-10.642 7.692a4 4 0 0 1-.937 1.498l-.906.906H3.844a1.28 1.28 0 0 0-1.281 1.281v10.25a1.28 1.28 0 0 0 1.28 1.281m36.772-15.22h.653a3.54 3.54 0 0 1 2.887 1.465 3.42 3.42 0 0 1 .517 3.08A19 19 0 0 1 41 57.458v-4.539a16.5 16.5 0 0 0 1.383-3.426.32.32 0 0 0-.256-.399l-2.408-.408h-2.441c.554-1.466 1.852-2.409 3.338-2.409m-35.491 4.97h33.313v7.688H5.124z"/><path fill="#000" d="M7.688 53.813h2.562v2.562H7.688zm5.125 0h2.562v2.562h-2.562zm5.125 0H20.5v2.562h-2.562zm5.125 0h2.562v2.562h-2.562z"/></svg>