<svg xmlns="http://www.w3.org/2000/svg" width="1440" height="1006" fill="none" viewBox="0 0 1440 1006"><path fill="#f2f5fc" d="M41.999 214.129-86 121.305 41.999 37 170 121.305z"/><path fill="url(#a)" d="M170 121.303v701.848L41.915 949.168 41 211.932z"/><path fill="url(#b)" d="M-86 121.303 43 211.85v737.318l-129-160.54"/><path fill="#f2f5fc" d="m747.408 242.025-180.409-54.862 180.412-63.018 180.409 63.018z"/><path fill="#f2f6fe" fill-opacity=".79" d="m1100 378.945-164-56.428 164-64.816 164 64.816z"/><path fill="#f2f5fc" d="m1382 270.487-142-92.575 142-84.08 142 84.08z"/><path fill="#f2f6fe" fill-opacity=".79" d="M378.408 375.582 197.999 320.72l180.412-63.019L558.82 320.72z"/><path fill="url(#c)" d="M927.82 186.807v416.054l-180.953 74.702-1.292-437.031z"/><path fill="url(#d)" d="M1526 178.135v701.848L1384.01 1006 1383 268.764z"/><path fill="url(#e)" d="m567.001 186.807 182.245 53.676v437.08l-182.245-95.167"/><path fill="url(#f)" d="m1240 177.662 143 90.548v737.32l-143-160.543"/><path fill="url(#g)" d="M891.518 193.036c0-39.372-27.739-87.416-61.833-107.1-15.916-9.19-30.44-11.251-41.977-5.262l-2.224 1.285-22.7 13.97-23.1-40.887-.163-.288c-11.675-20.2-27.192-36.573-43.692-46.1-17.9-10.336-33.4-11.23-44.7-3.673l-.641.408L634 14.967l.958 17.44h.013a71.7 71.7 0 0 0-.971 11.95c0 39.369 27.738 87.413 61.833 107.1 16.516 9.535 32.043 11.075 43.724 4.336l.157-.094 23.076-14.207 24.053 42.577.456.776c11.511 19.171 26.57 34.76 42.392 43.9 9.139 5.275 17.814 7.964 25.627 8.348l2.9 4.706 12.812-7.546a20 20 0 0 0 4.078-2.315l.864-.594c9.658-7.031 15.546-20.186 15.546-38.307M720.129 122.19c-6.494 3.736-15.124 2.878-24.3-2.419-18.964-10.949-34.4-37.673-34.4-59.574s15.432-30.808 34.4-19.86c9.174 5.3 17.8 14.4 24.292 25.627l23.569 41.72zm109.556 74.862c-8.747-5.049-17.063-13.645-23.453-24.213l-24.355-43.1 24.226-14.911c6.4-3.28 14.769-2.29 23.582 2.8 18.964 10.952 34.393 37.676 34.393 59.577S848.649 208 829.685 197.051"/><path fill="#333c5e" d="M812.691 95.842c-15.916-9.19-31.037-10.952-42.577-4.961l-.408.233-23.918 14.722-23.1-40.887-.163-.29c-11.675-20.2-27.192-36.575-43.692-46.1C644.739-1.122 617 14.89 617 54.26s27.738 87.414 61.833 107.101c16.516 9.535 32.043 11.075 43.72 4.332l.16-.094 23.507-12.928 23.623 41.3.456.776c11.511 19.171 26.57 34.76 42.392 43.893 34.094 19.686 61.833 3.673 61.833-35.7s-27.739-87.414-61.833-107.097m-109.552 36.253c-6.494 3.736-15.124 2.878-24.3-2.419-18.964-10.949-34.4-37.673-34.4-59.574s15.433-30.808 34.4-19.86c9.174 5.3 17.8 14.4 24.292 25.628L726.7 117.59zm109.556 74.862c-8.75-5.045-17.066-13.645-23.456-24.214l-24.355-41.122 24.225-14.909a23.83 23.83 0 0 1 23.582.814c18.964 10.952 34.393 37.676 34.393 59.577s-15.429 30.803-34.393 19.854z"/><defs><linearGradient id="a" x1="99.681" x2="508.674" y1="1064.73" y2="258.088" gradientUnits="userSpaceOnUse"><stop offset=".164" stop-color="#fff" stop-opacity="0"/><stop offset=".684" stop-color="#edf0f7"/></linearGradient><linearGradient id="b" x1="-65.36" x2="-358.164" y1="873.228" y2="701.554" gradientUnits="userSpaceOnUse"><stop stop-color="#fff" stop-opacity="0"/><stop offset=".864" stop-color="#e7ecfd" stop-opacity=".774"/><stop offset="1" stop-color="#e0e7fd"/></linearGradient><linearGradient id="c" x1="828.477" x2="950.826" y1="746.071" y2="170.993" gradientUnits="userSpaceOnUse"><stop offset=".314" stop-color="#fff" stop-opacity="0"/><stop offset="1" stop-color="#fff"/></linearGradient><linearGradient id="d" x1="1448.05" x2="1831.61" y1="1121.57" y2="282.984" gradientUnits="userSpaceOnUse"><stop stop-color="#fff" stop-opacity="0"/><stop offset="1" stop-color="#f2f5fc"/></linearGradient><linearGradient id="e" x1="596.16" x2="407.889" y1="632.546" y2="369.475" gradientUnits="userSpaceOnUse"><stop offset=".004" stop-color="#fff" stop-opacity="0"/><stop offset=".379" stop-color="#f2f5fc" stop-opacity="0"/><stop offset="1" stop-color="#e7ecfd" stop-opacity=".774"/></linearGradient><linearGradient id="f" x1="1262.88" x2="956.249" y1="929.588" y2="730.295" gradientUnits="userSpaceOnUse"><stop stop-color="#fff" stop-opacity="0"/><stop offset=".864" stop-color="#e7ecfd" stop-opacity=".774"/><stop offset="1" stop-color="#f2f5fc"/></linearGradient><linearGradient id="g" x1="635.03" x2="737.566" y1="7.01" y2="108.725" gradientUnits="userSpaceOnUse"><stop stop-color="#5e98f7"/><stop offset="1" stop-color="#4670ba"/></linearGradient></defs></svg>