<svg xmlns="http://www.w3.org/2000/svg" width="86" height="78" fill="none" viewBox="0 0 86 78"><g clip-path="url(#a)"><path fill="#fff" d="M56.616 28.454C56.641 13.044 44.099.532 28.604.508S.528 12.956.504 28.366 13.02 56.288 28.516 56.313s28.076-12.45 28.1-27.86"/><path fill="#fff" d="M55.594 35.885c-4.158 14.842-19.627 23.532-34.55 19.407-14.481-4.002-23.137-18.578-19.854-33 3.458 4.873 9.572 8.106 16.529 8.106 10.806 0 19.555-7.778 19.555-17.4 0-4.821-2.203-9.192-5.765-12.334 1.513.153 3.047.44 4.56.86 14.933 4.124 23.672 19.508 19.524 34.36z"/><path fill="#4069fa" d="M28.527.508q-.163.378-.362.745c-1.046 1.99-2.411 3.879-2.896 6.076-.06.304-.113.635-.004.934.356.982 1.814.694 2.83.975 1.085.312 1.762 1.485 1.744 2.607s-.605 2.163-1.343 3.01c-1.359 1.544-3.258 2.53-4.777 3.915-1.524 1.398-2.712 3.528-2.028 5.458.32.882.981 1.603 1.304 2.473.663 1.822-.262 3.795-1.165 5.505-.552 1.051-1.193 2.193-2.305 2.628-1.578.626-3.405-.533-4.154-2.046-.745-1.524-.717-3.284-.745-4.981-.028-.957-.087-1.945-.55-2.777s-1.445-1.463-2.363-1.218c-1.198.323-1.615 1.77-2.437 2.682-1.345 1.497-3.86 1.468-5.529.341-1.322-.89-2.179-2.292-2.708-3.81a20 20 0 0 1 .482-2.094C4.968 8.605 16.241.518 28.527.508"/><path fill="#4069fa" d="M29.845 11.842c-.02 1.126-.607 2.16-1.348 3.01-1.359 1.545-3.252 2.528-4.776 3.92s-2.707 3.52-2.027 5.456c.319.88.977 1.596 1.306 2.477.66 1.822-.267 3.787-1.163 5.496-.555 1.054-1.194 2.2-2.305 2.63-1.584.625-3.406-.532-4.157-2.047-.74-1.524-.72-3.285-.74-4.974-.031-.962-.093-1.955-.556-2.784-.464-.83-1.44-1.463-2.357-1.219-1.205.328-1.616 1.77-2.44 2.682-1.348 1.504-3.859 1.474-5.526.347-1.328-.89-2.182-2.292-2.717-3.818q.188-1.045.484-2.088A27.7 27.7 0 0 1 3.57 15.7a9.32 9.32 0 0 0 6.906 3.06c5.217 0 9.438-4.299 9.438-9.59a9.74 9.74 0 0 0-2.399-6.408A28.3 28.3 0 0 1 28.528.5a7 7 0 0 1-.36.747c-1.038 1.996-2.408 3.878-2.892 6.08-.061.297-.113.634-.01.93.36.983 1.822.697 2.83.973 1.091.317 1.77 1.484 1.75 2.61zM52.848 14.477a27.58 27.58 0 0 1 2.747 21.4c-2.502 8.951-9.132 15.672-17.271 18.672-2.355-3.736 2.4-9.324-.195-12.987-.61-.86-1.53-1.434-2.393-2.032-1.133-.786-2.228-1.704-2.81-2.94-.577-1.25-.508-2.882.502-3.82.938-.868 2.353-.91 3.645-1.015 1.556-.132 3.15-.447 4.459-1.302 1.308-.854 2.297-2.323 2.203-3.872-.051-.693-.29-1.36-.45-2.032-.82-3.607 1.318-7.664 4.77-9.053 1.114-.435 2.302-.632 3.486-.816.432-.073.861-.133 1.306-.202z"/><path fill="#4069fa" d="M55.598 35.876c-2.501 8.956-9.129 15.67-17.27 18.68-2.327-3.696 2.264-9.172-.093-12.836.093.01.196.01.298.01 6.66 0 12.063-5.62 12.063-12.56 0-4.626-2.409-8.67-5.99-10.849.854-1.248 2.047-2.262 3.457-2.824 1.111-.44 2.295-.635 3.478-.82.432-.071.865-.133 1.307-.204a27.56 27.56 0 0 1 2.748 21.402zM29.076 46.18c.202 1.49-.597 2.921-1.482 4.15-.881 1.216-1.905 2.393-2.299 3.846a5.9 5.9 0 0 0-.152 1.93 27 27 0 0 1-4.1-.813 28 28 0 0 1-8.355-3.873c.174-.118.345-.224.526-.316 1.86-.945 4.46-.803 5.605-2.549.896-1.365.442-3.283 1.323-4.641.803-1.212 2.44-1.592 3.899-1.508 2.277.143 4.736 1.527 5.035 3.774"/><path fill="#4069fa" d="M27.59 50.328c-.875 1.219-1.903 2.396-2.295 3.849-.164.635-.195 1.28-.154 1.925a26.4 26.4 0 0 1-4.096-.808 28.2 28.2 0 0 1-8.358-3.869c.176-.123.35-.225.526-.317.689-.358 1.492-.564 2.285-.768.906.531 1.955.83 3.078.83 3.427 0 6.195-2.764 6.195-6.162 0-.931-.205-1.802-.576-2.59 2.233.194 4.59 1.566 4.878 3.767.205 1.484-.598 2.918-1.483 4.146z"/><path fill="#4069fa" d="M28.6 56.82c-2.566 0-5.149-.348-7.69-1.05C5.74 51.576-3.171 35.89 1.047 20.804 3.089 13.496 7.87 7.417 14.513 3.686S28.859-.981 36.205 1.049c15.17 4.194 24.081 19.88 19.863 34.966-2.041 7.308-6.823 13.386-13.466 17.118a28.5 28.5 0 0 1-14.003 3.687zM28.519.99c-4.688 0-9.32 1.201-13.514 3.558-6.41 3.601-11.026 9.469-12.998 16.52-4.07 14.562 4.53 29.7 19.171 33.748 7.089 1.96 14.527 1.058 20.936-2.544 6.41-3.601 11.026-9.468 12.997-16.52 4.07-14.562-4.53-29.7-19.171-33.748A27.8 27.8 0 0 0 28.517.99z"/><path fill="#4069fa" d="M18.603 35.505c-1.534 0-3.006-1.142-3.676-2.498-.746-1.523-.77-3.213-.792-4.85l-.005-.343c-.028-.926-.087-1.825-.489-2.546-.348-.625-1.118-1.162-1.799-.98-.61.165-.983.756-1.415 1.441-.234.373-.477.76-.779 1.095-1.586 1.765-4.443 1.593-6.18.42-1.286-.867-2.261-2.231-2.898-4.057a.5.5 0 0 1-.02-.243c.11-.65.271-1.35.494-2.146C4.462 8.57 15.764.022 28.529.012a.5.5 0 0 1 .416.222.49.49 0 0 1 .041.468 9 9 0 0 1-.382.784 45 45 0 0 1-.878 1.571c-.837 1.457-1.628 2.832-1.97 4.377-.046.241-.085.483-.022.66.13.358.612.428 1.39.498.369.034.75.07 1.106.167 1.246.359 2.131 1.659 2.108 3.092-.017 1.098-.522 2.247-1.464 3.325-.833.946-1.853 1.69-2.84 2.406-.672.49-1.368.995-1.978 1.552-1.267 1.16-2.523 3.15-1.893 4.929.142.395.372.768.615 1.16.25.409.51.83.686 1.307.726 1.995-.234 4.095-1.191 5.905-.645 1.23-1.327 2.376-2.564 2.859-.365.145-.738.21-1.106.21M12.135 23.26c1.008 0 1.923.708 2.379 1.529.509.914.58 1.94.612 3.001l.005.353c.021 1.527.043 3.105.69 4.428.64 1.291 2.212 2.321 3.522 1.802.92-.36 1.493-1.339 2.049-2.397.898-1.7 1.724-3.493 1.138-5.107-.141-.381-.366-.744-.602-1.13-.258-.418-.524-.851-.703-1.344-.79-2.234.597-4.558 2.159-5.99.652-.593 1.37-1.117 2.065-1.621.985-.716 1.916-1.394 2.676-2.256.546-.626 1.203-1.603 1.22-2.692.015-.98-.58-1.892-1.385-2.124-.264-.074-.586-.103-.924-.134-.838-.077-1.881-.172-2.236-1.149-.15-.412-.087-.834-.016-1.197.376-1.703 1.242-3.21 2.08-4.666.296-.514.59-1.026.862-1.544q.003-.004.005-.009C15.741 1.371 5.23 9.516 2.003 21.063c-.198.71-.346 1.34-.45 1.918.565 1.559 1.397 2.717 2.474 3.442 1.394.941 3.652 1.106 4.88-.26.244-.273.454-.607.678-.96.474-.752 1.011-1.604 1.999-1.87q.278-.074.551-.073zM38.325 55.048a.5.5 0 0 1-.422-.233c-1.27-2.015-.674-4.44-.097-6.787.569-2.314 1.105-4.5-.082-6.177-.49-.692-1.212-1.186-1.979-1.71l-.292-.201c-1.038-.72-2.313-1.728-2.976-3.137-.73-1.574-.477-3.378.61-4.39.996-.92 2.407-1.029 3.652-1.124l.293-.023c1.848-.158 3.192-.546 4.226-1.222 1.28-.836 2.056-2.182 1.979-3.43-.032-.439-.153-.882-.282-1.35q-.082-.3-.155-.597c-.873-3.836 1.402-8.152 5.068-9.627 1.129-.44 2.296-.644 3.596-.847q.412-.067.836-.13l.47-.072a.495.495 0 0 1 .506.241c3.875 6.633 4.869 14.368 2.795 21.783-2.443 8.743-9.014 15.847-17.576 19.002a.5.5 0 0 1-.173.032zM52.585 15.02l-.135.02c-.278.043-.55.083-.826.13-1.245.194-2.357.386-3.387.788-3.229 1.298-5.235 5.105-4.467 8.484q.067.276.146.56c.135.494.274 1.004.314 1.545.1 1.625-.83 3.279-2.426 4.322-1.548 1.011-3.417 1.273-4.69 1.381l-.3.024c-1.134.087-2.308.177-3.048.86-.87.809-.852 2.247-.387 3.25.557 1.187 1.648 2.053 2.642 2.743l.288.198c.802.55 1.634 1.118 2.228 1.955 1.45 2.045.832 4.555.235 6.982-.514 2.089-1.001 4.072-.223 5.674C46.62 50.82 52.794 44.05 55.115 35.75c1.97-7.046 1.07-14.395-2.53-20.729zM25.144 56.6q-.03 0-.058-.003a28 28 0 0 1-4.175-.828 28.5 28.5 0 0 1-8.504-3.942.492.492 0 0 1 .003-.817c.192-.13.381-.247.58-.348.719-.366 1.523-.574 2.3-.775 1.28-.333 2.486-.646 3.113-1.601.39-.592.488-1.34.593-2.132.112-.856.23-1.74.73-2.509.791-1.197 2.426-1.848 4.344-1.734 2.478.156 5.162 1.65 5.501 4.204.234 1.733-.717 3.317-1.572 4.502q-.228.316-.463.628c-.75 1-1.457 1.945-1.758 3.059a5.4 5.4 0 0 0-.137 1.765.5.5 0 0 1-.497.531m-11.508-5.148a27.5 27.5 0 0 0 7.543 3.363c1.169.322 2.325.565 3.449.724a6 6 0 0 1 .188-1.488c.353-1.302 1.151-2.367 1.922-3.399q.232-.306.455-.613c.746-1.037 1.58-2.406 1.392-3.795-.265-2.002-2.554-3.218-4.572-3.345-1.564-.088-2.858.391-3.45 1.287-.375.578-.473 1.315-.577 2.097-.115.866-.234 1.762-.747 2.544-.835 1.274-2.29 1.652-3.695 2.017-.652.17-1.325.344-1.906.608z"/><path fill="#4069fa" fill-rule="evenodd" d="m26.555 59.834-1.41-.952a2.1 2.1 0 0 1-.284-1.133l.007-22.578c.045-.819.283-1.616.697-2.326.413-.71.99-1.314 1.684-1.76l32.048-18.348a1.7 1.7 0 0 1 1.68-.162l1.404.952a1.71 1.71 0 0 0-1.68.162L28.654 32.036a5.25 5.25 0 0 0-1.681 1.762 5.2 5.2 0 0 0-.7 2.325l-.008 22.578c-.014.397.087.79.291 1.133" clip-rule="evenodd"/><path fill="#4069fa" fill-rule="evenodd" d="m25.494 58.568.315.212q.001-.033-.004-.066l.012-22.59a5.7 5.7 0 0 1 .76-2.546 5.7 5.7 0 0 1 1.838-1.931l32.056-18.351q.215-.12.444-.209l-.2-.132c-.3-.155-.663-.112-1.2.181L27.474 31.48a4.75 4.75 0 0 0-1.519 1.598 4.7 4.7 0 0 0-.628 2.106l-.011 22.566c-.011.284.05.567.177.82zm1.056 1.72a.46.46 0 0 1-.26-.08l-1.405-.952a.4.4 0 0 1-.14-.143c-.24-.41-.361-.879-.35-1.353l.007-22.59c.044-.897.302-1.77.754-2.549A5.66 5.66 0 0 1 27 30.696l32.061-18.355a2.18 2.18 0 0 1 2.126-.17l1.45.978a.47.47 0 0 1 .189.294.46.46 0 0 1-.076.34.46.46 0 0 1-.584.143 1.25 1.25 0 0 0-1.247.16L28.883 32.427a4.74 4.74 0 0 0-1.522 1.596 4.7 4.7 0 0 0-.63 2.108l-.01 22.566c-.012.316.066.628.226.902a.456.456 0 0 1-.394.686z" clip-rule="evenodd"/><path fill="#fff" fill-rule="evenodd" d="M28.655 32.038 60.703 13.69c1.309-.75 2.376-.133 2.376 1.36l-.008 22.582a5.2 5.2 0 0 1-.7 2.325 5.26 5.26 0 0 1-1.68 1.763L28.642 60.068c-1.309.75-2.38.132-2.376-1.365l.008-22.578a5.2 5.2 0 0 1 .7-2.325c.413-.71.989-1.314 1.68-1.762" clip-rule="evenodd"/><path fill="#4069fa" fill-rule="evenodd" d="M61.757 13.826a1.7 1.7 0 0 0-.827.259L28.882 32.433a4.8 4.8 0 0 0-1.514 1.594 4.75 4.75 0 0 0-.637 2.097l-.011 22.578a1 1 0 0 0 .1.762 1.01 1.01 0 0 0 1.136.47c.171-.045.328-.134.454-.258l32.048-18.351a4.8 4.8 0 0 0 1.513-1.595c.373-.64.592-1.358.638-2.097l.008-22.582a1.25 1.25 0 0 0-.468-1.128.8.8 0 0 0-.393-.097zM27.585 60.843c-.299.003-.593-.073-.853-.22a2.1 2.1 0 0 1-.927-1.925l.012-22.577c.05-.898.311-1.771.764-2.55a5.75 5.75 0 0 1 1.843-1.931l32.049-18.347a1.91 1.91 0 0 1 2.102-.18 1.9 1.9 0 0 1 .921 1.164c.069.252.083.516.043.774l-.008 22.581a5.6 5.6 0 0 1-.758 2.554 5.7 5.7 0 0 1-1.85 1.928L28.876 60.461c-.389.239-.833.37-1.29.382" clip-rule="evenodd"/><path fill="#fff" fill-rule="evenodd" d="m28.795 33.727 8.444-4.833 23.323-13.352c.602-.344 1.087-.066 1.087.627l-.008 21.982a2.38 2.38 0 0 1-1.087 1.872l-26.317 15.06-5.447 3.12c-.602.34-1.087.065-1.087-.627l.008-21.982a2.38 2.38 0 0 1 1.084-1.867" clip-rule="evenodd"/><path fill="#4069fa" fill-rule="evenodd" d="M85.079 55.266v1.725a1.85 1.85 0 0 1-.95 1.09L51.952 76.528a4.84 4.84 0 0 1-2.224.556 4.96 4.96 0 0 1-2.548-.56l-19.757-11.34a1.9 1.9 0 0 1-.95-1.095v-1.725a1.87 1.87 0 0 0 .95 1.09l19.757 11.34a4.97 4.97 0 0 0 2.548.564 4.8 4.8 0 0 0 2.224-.56l32.177-18.44a1.9 1.9 0 0 0 .95-1.092" clip-rule="evenodd"/><path fill="#4069fa" fill-rule="evenodd" d="M26.932 64.02c.135.34.396.615.729.77L47.41 76.13c.712.37 1.51.543 2.314.502a4.3 4.3 0 0 0 2.007-.506l32.173-18.432c.329-.16.586-.433.721-.77v-.34a4 4 0 0 1-.257.161L52.183 75.193a5.77 5.77 0 0 1-5.224 0L27.195 63.846c-.086-.054-.178-.108-.261-.17v.344zm22.703 13.518a5.35 5.35 0 0 1-2.675-.622L27.196 65.57a2.34 2.34 0 0 1-1.161-1.358.5.5 0 0 1-.015-.127V62.36a.453.453 0 0 1 .704-.38c.091.059.16.148.191.252a1.41 1.41 0 0 0 .748.831l19.75 11.333c.708.379 1.51.553 2.313.503.7-.001 1.39-.174 2.008-.503L83.907 55.96a1.4 1.4 0 0 0 .735-.824.47.47 0 0 1 .506-.324.46.46 0 0 1 .394.453v1.725a.5.5 0 0 1-.02.127 2.33 2.33 0 0 1-1.153 1.353L52.184 76.917c-.748.4-1.584.614-2.435.622z" clip-rule="evenodd"/><path fill="#fff" fill-rule="evenodd" d="m27.424 60.709 32.177-18.436a5.32 5.32 0 0 1 4.773 0l19.757 11.34c1.313.758 1.313 1.993 0 2.742L51.95 74.798a5.33 5.33 0 0 1-4.773-.004L27.423 63.451c-1.313-.754-1.313-1.99.002-2.742" clip-rule="evenodd"/><path fill="#4069fa" fill-rule="evenodd" d="M27.656 61.106a1.269 1.269 0 0 0-.756.978 1.25 1.25 0 0 0 .756.975l19.756 11.34a4.89 4.89 0 0 0 4.317.004l32.177-18.44a1.02 1.02 0 0 0 .62-.47 1.008 1.008 0 0 0-.624-1.483L64.146 42.67a4.86 4.86 0 0 0-4.31 0zM49.57 75.81a5.4 5.4 0 0 1-2.618-.623l-19.757-11.34a1.9 1.9 0 0 1-1.052-1.005 1.88 1.88 0 0 1 .4-2.098c.185-.184.407-.328.652-.423l32.177-18.44a5.82 5.82 0 0 1 5.232 0L84.362 53.23c.471.18.85.54 1.054.998a1.88 1.88 0 0 1-.395 2.099c-.188.186-.412.33-.659.426L52.185 75.199a5.4 5.4 0 0 1-2.614.612" clip-rule="evenodd"/><path fill="#fff" fill-rule="evenodd" d="m62.014 67.16 8.801-5.046-6.74-3.868-8.798 5.043z" clip-rule="evenodd"/><path fill="#4069fa" fill-rule="evenodd" d="m56.192 63.292 5.825 3.344 7.885-4.524-5.825-3.34zm5.825 4.323a.44.44 0 0 1-.23-.062l-6.74-3.868a.46.46 0 0 1-.214-.273.44.44 0 0 1 .043-.343c.04-.07.1-.129.17-.169l8.802-5.05a.47.47 0 0 1 .46 0l6.74 3.867a.46.46 0 0 1 .226.395.45.45 0 0 1-.226.395L62.25 67.55a.45.45 0 0 1-.235.065z" clip-rule="evenodd"/><path fill="#fff" fill-rule="evenodd" d="m31.453 61.35.23.395c-.183.104-.296.235-.296.337 0 .101.113.233.296.34l9.97 5.722a2.41 2.41 0 0 0 2.088 0l29.25-16.771c.183-.104.295-.235.295-.336s-.112-.235-.295-.337l-9.97-5.726a2.41 2.41 0 0 0-2.088 0l-29.25 16.771-.231-.394m11.243 7.943a3.05 3.05 0 0 1-1.504-.363l-9.97-5.722a1.23 1.23 0 0 1-.662-.661 1.21 1.21 0 0 1 .665-1.586l29.248-16.77a3.29 3.29 0 0 1 3.004 0l9.973 5.722a1.24 1.24 0 0 1 .662.665 1.213 1.213 0 0 1-.665 1.586L44.195 68.93a3.03 3.03 0 0 1-1.5.362z" clip-rule="evenodd"/><path fill="#fff" fill-rule="evenodd" d="m44.293 59.75 1.438-.824a1.17 1.17 0 0 1 1.051 0l1.438.823a.32.32 0 0 1 .197.407.32.32 0 0 1-.197.196l-1.441.823a1.16 1.16 0 0 1-1.048 0l-1.438-.823a.32.32 0 0 1-.197-.407.32.32 0 0 1 .197-.196" clip-rule="evenodd"/><path fill="#4069fa" fill-rule="evenodd" d="m44.684 60.053 1.278.73a.72.72 0 0 0 .59 0l1.274-.73-1.274-.73a.72.72 0 0 0-.59 0zm1.574 1.706a1.54 1.54 0 0 1-.755-.186l-1.438-.828a.77.77 0 0 1-.398-.434.76.76 0 0 1 .028-.587.77.77 0 0 1 .37-.367l1.441-.824a1.62 1.62 0 0 1 1.508 0l1.438.824a.77.77 0 0 1 .372 1.023.77.77 0 0 1-.372.37l-1.442.824c-.23.124-.49.187-.752.183z" clip-rule="evenodd"/><path fill="#fff" fill-rule="evenodd" d="m38.643 62.984-1.434.823a.32.32 0 0 0-.124.527q.052.05.12.076l1.437.823a1.17 1.17 0 0 0 1.052 0l1.437-.823a.317.317 0 0 0 .004-.603l-1.438-.823a1.18 1.18 0 0 0-1.054 0" clip-rule="evenodd"/><path fill="#4069fa" fill-rule="evenodd" d="m37.599 64.106 1.273.73a.73.73 0 0 0 .59 0l1.279-.73-1.278-.73a.72.72 0 0 0-.59 0zm1.57 1.706a1.5 1.5 0 0 1-.752-.186l-1.441-.823a.82.82 0 0 1-.445-.696.81.81 0 0 1 .449-.696l1.437-.823a1.63 1.63 0 0 1 1.511 0l1.438.823a.82.82 0 0 1 .444.696.8.8 0 0 1-.448.696l-1.438.823a1.5 1.5 0 0 1-.756.19z" clip-rule="evenodd"/><path fill="#fff" fill-rule="evenodd" d="m42.185 65.011-1.438.824a.317.317 0 0 0 0 .603l1.438.823a1.16 1.16 0 0 0 1.047 0l1.437-.82a.315.315 0 0 0 .219-.28.32.32 0 0 0-.215-.323l-1.437-.828a1.16 1.16 0 0 0-1.051.001" clip-rule="evenodd"/><path fill="#4069fa" fill-rule="evenodd" d="m41.139 66.14 1.273.735a.72.72 0 0 0 .59 0l1.274-.73-1.273-.736a.72.72 0 0 0-.59 0zm1.566 1.704c-.262.004-.521-.059-.752-.181l-1.438-.828a.76.76 0 0 1 0-1.388l1.438-.827a1.65 1.65 0 0 1 1.511 0l1.438.827a.762.762 0 0 1 0 1.388l-1.442.828a1.6 1.6 0 0 1-.755.181" clip-rule="evenodd"/><path fill="#fff" fill-rule="evenodd" d="m39.697 61.176 1.437-.826a.314.314 0 0 0 .159-.484.3.3 0 0 0-.159-.113l-1.437-.824a1.16 1.16 0 0 0-1.049-.004l-1.437.823a.32.32 0 0 0-.218.28.32.32 0 0 0 .093.247.3.3 0 0 0 .125.077l1.434.827a1.18 1.18 0 0 0 1.051-.003" clip-rule="evenodd"/><path fill="#4069fa" fill-rule="evenodd" d="m37.606 60.046 1.277.737a.72.72 0 0 0 .59 0l1.275-.73-1.275-.734a.74.74 0 0 0-.59 0l-1.274.73zm2.096 1.128-.526.577a1.5 1.5 0 0 1-.752-.182l-1.441-.827a.77.77 0 0 1-.443-.73.76.76 0 0 1 .443-.658l1.441-.828a1.64 1.64 0 0 1 1.508.004l1.437.824a.76.76 0 0 1 0 1.388l-1.437.827a1.5 1.5 0 0 1-.757.183z" clip-rule="evenodd"/><path fill="#fff" fill-rule="evenodd" d="m43.241 59.147 1.437-.824a.32.32 0 0 0 .186-.16.318.318 0 0 0-.182-.442l-1.438-.828a1.19 1.19 0 0 0-1.052 0l-1.437.828a.32.32 0 0 0-.22.298.31.31 0 0 0 .22.299l1.437.827a1.17 1.17 0 0 0 1.05.002" clip-rule="evenodd"/><path fill="#4069fa" fill-rule="evenodd" d="m41.146 58.015 1.274.734a.72.72 0 0 0 .59 0l1.279-.73-1.275-.735a.74.74 0 0 0-.596 0l-1.274.73zm2.096 1.128-.526.58a1.5 1.5 0 0 1-.751-.186l-1.438-.827a.76.76 0 0 1 0-1.389l1.438-.823a1.63 1.63 0 0 1 1.511 0l1.437.823a.82.82 0 0 1 .444.696.8.8 0 0 1-.448.693l-1.437.827a1.54 1.54 0 0 1-.756.187z" clip-rule="evenodd"/><path fill="#fff" fill-rule="evenodd" d="m37.596 62.38-1.438.824a1.17 1.17 0 0 1-1.051 0l-1.438-.827a.32.32 0 0 1-.212-.283.314.314 0 0 1 .212-.313l1.441-.828a1.16 1.16 0 0 1 1.048 0l1.437.828a.31.31 0 0 1 .215.281.31.31 0 0 1-.093.243.3.3 0 0 1-.121.076" clip-rule="evenodd"/><path fill="#4069fa" fill-rule="evenodd" d="m34.063 62.076 1.274.735a.72.72 0 0 0 .59 0l1.274-.73-1.273-.735a.7.7 0 0 0-.59 0l-1.279.73zm1.57 1.709a1.6 1.6 0 0 1-.755-.185l-1.438-.828a.82.82 0 0 1-.444-.696.8.8 0 0 1 .448-.692l1.438-.824a1.62 1.62 0 0 1 1.508 0l1.437.824a.761.761 0 0 1 0 1.389l-1.437.826a1.6 1.6 0 0 1-.756.186" clip-rule="evenodd"/><path fill="#fff" fill-rule="evenodd" d="m40.752 61.78 1.437-.823a1.17 1.17 0 0 1 1.052 0l1.437.823a.32.32 0 0 1 .184.162.315.315 0 0 1-.062.365.3.3 0 0 1-.122.076l-1.441.823a1.16 1.16 0 0 1-1.049 0l-1.437-.823a.317.317 0 0 1 0-.603" clip-rule="evenodd"/><path fill="#4069fa" fill-rule="evenodd" d="m41.142 62.08 1.274.729a.72.72 0 0 0 .59 0l1.278-.73-1.278-.73a.71.71 0 0 0-.59 0zm1.573 1.704a1.53 1.53 0 0 1-.755-.184l-1.438-.83a.77.77 0 0 1-.443-.73.76.76 0 0 1 .443-.658l1.441-.823a1.63 1.63 0 0 1 1.505 0l1.441.828a.803.803 0 0 1 .444.692.81.81 0 0 1-.444.696l-1.441.823c-.23.126-.49.19-.753.186" clip-rule="evenodd"/><path fill="#fff" fill-rule="evenodd" d="m51.375 55.686 1.437-.823a1.17 1.17 0 0 1 1.051 0l1.438.828a.31.31 0 0 1 .181.161.313.313 0 0 1-.181.436l-1.438.823a1.17 1.17 0 0 1-1.051 0l-1.437-.823a.32.32 0 0 1-.184-.165.31.31 0 0 1-.011-.245.32.32 0 0 1 .195-.191" clip-rule="evenodd"/><path fill="#4069fa" fill-rule="evenodd" d="m51.77 55.99 1.273.73a.73.73 0 0 0 .59 0l1.274-.73-1.274-.73a.72.72 0 0 0-.59 0zm1.57 1.705a1.53 1.53 0 0 1-.755-.185l-1.438-.828a.78.78 0 0 1-.398-.434.764.764 0 0 1 .398-.954l1.441-.823a1.63 1.63 0 0 1 1.512 0l1.433.827a.77.77 0 0 1 .399.433.76.76 0 0 1-.402.955l-1.438.824c-.23.125-.49.19-.753.185z" clip-rule="evenodd"/><path fill="#fff" fill-rule="evenodd" d="m54.914 57.721 1.437-.827a1.17 1.17 0 0 1 1.052 0l1.434.827a.317.317 0 0 1 0 .603l-1.437.824a1.17 1.17 0 0 1-1.052 0l-1.437-.828a.32.32 0 0 1-.215-.278.3.3 0 0 1 .094-.245.3.3 0 0 1 .124-.076" clip-rule="evenodd"/><path fill="#4069fa" fill-rule="evenodd" d="m55.306 58.017 1.273.736a.72.72 0 0 0 .59 0l1.28-.73-1.275-.735a.75.75 0 0 0-.596 0l-1.274.73zm1.573 1.706a1.5 1.5 0 0 1-.76-.186l-1.433-.827a.77.77 0 0 1-.443-.73.77.77 0 0 1 .443-.657l1.437-.828a1.66 1.66 0 0 1 1.512 0l1.434.828a.77.77 0 0 1 .447.723.763.763 0 0 1-.448.664l-1.436.824c-.23.128-.49.193-.753.189" clip-rule="evenodd"/><path fill="#fff" fill-rule="evenodd" d="m46.784 57.115 1.44-.828a.32.32 0 0 0 .213-.281.31.31 0 0 0-.092-.241.3.3 0 0 0-.12-.075l-1.437-.823a1.17 1.17 0 0 0-1.052 0l-1.442.82a.317.317 0 0 0 0 .603l1.442.828a1.16 1.16 0 0 0 1.048-.003" clip-rule="evenodd"/><path fill="#4069fa" fill-rule="evenodd" d="m44.684 55.99 1.278.734a.7.7 0 0 0 .59 0h.005l1.273-.73-1.273-.734a.75.75 0 0 0-.591 0zm1.57 1.709a1.5 1.5 0 0 1-.751-.185l-1.438-.828a.82.82 0 0 1-.448-.696.8.8 0 0 1 .448-.692l1.438-.827a1.64 1.64 0 0 1 1.511.004l1.438.824a.82.82 0 0 1 .444.696.8.8 0 0 1-.448.692l-1.438.828a1.54 1.54 0 0 1-.756.181z" clip-rule="evenodd"/><path fill="#fff" fill-rule="evenodd" d="m50.327 55.086 1.437-.824a.317.317 0 0 0 0-.603l-1.437-.823a1.17 1.17 0 0 0-1.052 0l-1.437.823a.32.32 0 0 0-.212.282.314.314 0 0 0 .212.316l1.437.827a1.17 1.17 0 0 0 1.052.002" clip-rule="evenodd"/><path fill="#4069fa" fill-rule="evenodd" d="m48.228 53.956 1.274.735a.72.72 0 0 0 .59 0l1.275-.73-1.274-.736a.72.72 0 0 0-.591 0zm2.097 1.128-.527.58a1.53 1.53 0 0 1-.755-.185l-1.437-.828a.761.761 0 0 1 0-1.388l1.437-.823a1.63 1.63 0 0 1 1.511 0l1.438.823a.767.767 0 0 1 .37 1.02.77.77 0 0 1-.37.368l-1.441.828c-.23.126-.49.19-.753.186z" clip-rule="evenodd"/><path fill="#fff" fill-rule="evenodd" d="m47.833 57.717 1.438-.823a1.17 1.17 0 0 1 1.051 0l1.438.823a.32.32 0 0 1 0 .603l-1.438.824a1.17 1.17 0 0 1-1.051 0l-1.438-.824a.32.32 0 0 1-.198-.406.32.32 0 0 1 .198-.197" clip-rule="evenodd"/><path fill="#4069fa" fill-rule="evenodd" d="m48.224 58.017 1.277.736a.73.73 0 0 0 .59-.004l1.279-.73-1.278-.73a.72.72 0 0 0-.59 0l-1.279.73zm1.574 1.706a1.5 1.5 0 0 1-.756-.186l-1.437-.827a.762.762 0 0 1 0-1.39l1.437-.822a1.63 1.63 0 0 1 1.511 0l1.437.827a.81.81 0 0 1 .444.692.81.81 0 0 1-.447.697l-1.438.823c-.23.126-.49.19-.752.186z" clip-rule="evenodd"/><path fill="#fff" fill-rule="evenodd" d="m44.287 63.813 8.52-4.887a1.17 1.17 0 0 1 1.052 0l1.438.827a.32.32 0 0 1 .198.407.32.32 0 0 1-.198.196l-8.52 4.884a1.2 1.2 0 0 1-1.052 0l-1.439-.828a.317.317 0 0 1 0-.6" clip-rule="evenodd"/><path fill="#4069fa" fill-rule="evenodd" d="m44.685 64.11 1.274.734a.72.72 0 0 0 .59 0l8.358-4.79-1.275-.738a.7.7 0 0 0-.59 0l-8.36 4.791zm1.566 1.705c-.262.004-.52-.059-.752-.181l-1.438-.828a.77.77 0 0 1-.443-.73.77.77 0 0 1 .443-.658h.004l8.52-4.887a1.62 1.62 0 0 1 1.508.004l1.438.824a.77.77 0 0 1 .401.428.76.76 0 0 1-.023.584.77.77 0 0 1-.378.376l-8.525 4.888a1.6 1.6 0 0 1-.753.18z" clip-rule="evenodd"/><path fill="#fff" fill-rule="evenodd" d="m63.15 48.934 1.438-.824a1.2 1.2 0 0 1 1.052 0l1.438.828q.06.021.108.063a.3.3 0 0 1 .107.219.31.31 0 0 1-.095.246.3.3 0 0 1-.125.075l-1.433.824a1.17 1.17 0 0 1-1.052 0l-1.437-.824a.33.33 0 0 1-.188-.161.318.318 0 0 1 .188-.446" clip-rule="evenodd"/><path fill="#4069fa" fill-rule="evenodd" d="m63.54 49.234 1.278.73a.72.72 0 0 0 .59 0l1.274-.73-1.273-.736a.76.76 0 0 0-.59 0zm1.57 1.705a1.5 1.5 0 0 1-.752-.19l-1.437-.823a.8.8 0 0 1-.444-.692.81.81 0 0 1 .444-.697l1.44-.823a1.62 1.62 0 0 1 1.508 0l1.438.824a.77.77 0 0 1 .445.73.77.77 0 0 1-.449.663l-1.434.82a1.5 1.5 0 0 1-.758.192z" clip-rule="evenodd"/><path fill="#fff" fill-rule="evenodd" d="m66.694 50.968 1.437-.824a1.16 1.16 0 0 1 1.048 0l1.438.828a.315.315 0 0 1 0 .597l-1.442.827a1.18 1.18 0 0 1-1.048-.004l-1.437-.823a.31.31 0 0 1-.183-.164.317.317 0 0 1 .065-.363.3.3 0 0 1 .122-.074" clip-rule="evenodd"/><path fill="#4069fa" fill-rule="evenodd" d="m67.08 51.27 1.274.734a.74.74 0 0 0 .59 0l1.274-.73-1.274-.738a.75.75 0 0 0-.59 0l-1.274.736zm1.571 1.705a1.54 1.54 0 0 1-.756-.185l-1.437-.823a.77.77 0 0 1-.373-1.023.77.77 0 0 1 .377-.37l1.434-.824a1.63 1.63 0 0 1 1.512.004l1.436.823a.77.77 0 0 1 .373 1.02.77.77 0 0 1-.373.369l-1.44.823c-.231.125-.49.188-.753.184z" clip-rule="evenodd"/><path fill="#fff" fill-rule="evenodd" d="m62.096 48.336 1.44-.828a.32.32 0 0 0 .199-.406.32.32 0 0 0-.198-.197l-1.441-.823a1.16 1.16 0 0 0-1.048 0l-1.438.823a.32.32 0 0 0-.185.16.317.317 0 0 0 .18.443l1.439.828a1.2 1.2 0 0 0 1.052 0" clip-rule="evenodd"/><path fill="#4069fa" fill-rule="evenodd" d="m59.998 47.21 1.275.734a.74.74 0 0 0 .59 0l1.274-.73-1.274-.735a.71.71 0 0 0-.59 0l-1.278.73zm1.571 1.704a1.5 1.5 0 0 1-.752-.185l-1.441-.823a.765.765 0 0 1 0-1.394l1.44-.823a1.61 1.61 0 0 1 1.509.004l1.441.823a.77.77 0 0 1 .399.433.767.767 0 0 1-.399.955l-1.441.824a1.54 1.54 0 0 1-.756.184z" clip-rule="evenodd"/><path fill="#fff" fill-rule="evenodd" d="m59.607 50.968 1.437-.824a1.17 1.17 0 0 1 1.052 0l1.438.824a.317.317 0 0 1 0 .603l-1.438.823a1.18 1.18 0 0 1-1.052 0l-1.437-.823a.32.32 0 0 1 0-.603" clip-rule="evenodd"/><path fill="#4069fa" fill-rule="evenodd" d="m60 51.27 1.275.729a.7.7 0 0 0 .59 0l1.274-.73-1.273-.735a.75.75 0 0 0-.59 0zm1.572 1.705a1.55 1.55 0 0 1-.757-.186l-1.437-.823a.82.82 0 0 1-.444-.696.8.8 0 0 1 .444-.696l1.44-.824a1.63 1.63 0 0 1 1.508 0l1.438.828a.79.79 0 0 1 .444.692.8.8 0 0 1-.448.696l-1.434.823a1.54 1.54 0 0 1-.756.185z" clip-rule="evenodd"/><path fill="#fff" fill-rule="evenodd" d="m63.152 52.995 1.438-.823a1.17 1.17 0 0 1 1.052 0l1.434.827c.292.166.292.436 0 .597l-1.438.828a1.17 1.17 0 0 1-1.051 0l-1.437-.828a.33.33 0 0 1-.183-.165.31.31 0 0 1-.01-.245.31.31 0 0 1 .195-.191" clip-rule="evenodd"/><path fill="#4069fa" fill-rule="evenodd" d="m63.539 53.299 1.274.735a.74.74 0 0 0 .596 0l1.274-.73-1.274-.734a.72.72 0 0 0-.59 0l-1.278.73zm1.57 1.705c-.262.004-.521-.06-.753-.182l-1.438-.827a.77.77 0 0 1-.372-1.024.77.77 0 0 1 .372-.37l1.438-.823a1.64 1.64 0 0 1 1.512 0l1.433.827a.762.762 0 0 1 0 1.388l-1.438.824c-.23.126-.49.19-.754.187" clip-rule="evenodd"/><path fill="#fff" fill-rule="evenodd" d="m55.016 52.395 1.44-.824a.32.32 0 0 0 .2-.407.32.32 0 0 0-.2-.197l-1.44-.827a1.16 1.16 0 0 0-1.048 0l-1.438.824a.32.32 0 0 0-.2.403.32.32 0 0 0 .2.2l1.438.827a1.16 1.16 0 0 0 1.047 0" clip-rule="evenodd"/><path fill="#4069fa" fill-rule="evenodd" d="m52.917 51.264 1.277.735a.73.73 0 0 0 .59 0l1.275-.73-1.274-.735a.72.72 0 0 0-.59 0l-1.278.729zm2.096 1.128-.526.576a1.54 1.54 0 0 1-.752-.185l-1.442-.824a.78.78 0 0 1-.4-.434.765.765 0 0 1 .405-.96l1.437-.822a1.62 1.62 0 0 1 1.508.003l1.442.824a.78.78 0 0 1 .398.434.76.76 0 0 1-.398.954l-1.443.827a1.55 1.55 0 0 1-.755.185z" clip-rule="evenodd"/><path fill="#fff" fill-rule="evenodd" d="m58.557 50.364 1.441-.823a.32.32 0 0 0 0-.606l-1.438-.823a1.18 1.18 0 0 0-1.051 0l-1.438.823a.318.318 0 0 0 0 .603l1.438.827a1.18 1.18 0 0 0 1.048 0" clip-rule="evenodd"/><path fill="#4069fa" fill-rule="evenodd" d="m56.463 49.232 1.273.736a.72.72 0 0 0 .59 0h.005l1.274-.73-1.274-.736a.72.72 0 0 0-.59 0zm1.57 1.71a1.5 1.5 0 0 1-.756-.19l-1.437-.824a.761.761 0 0 1 0-1.388l1.437-.823a1.62 1.62 0 0 1 1.508 0l1.442.823a.766.766 0 0 1 0 1.389l-1.442.823c-.23.129-.489.194-.752.19" clip-rule="evenodd"/><path fill="#fff" fill-rule="evenodd" d="m56.073 52.995 1.437-.823a1.16 1.16 0 0 1 1.047 0l1.442.823a.32.32 0 0 1 .197.405.315.315 0 0 1-.202.198l-1.437.824a1.17 1.17 0 0 1-1.052 0l-1.437-.823a.32.32 0 0 1-.216-.283.32.32 0 0 1 .096-.245.3.3 0 0 1 .125-.076" clip-rule="evenodd"/><path fill="#4069fa" fill-rule="evenodd" d="m56.46 53.3 1.273.736a.73.73 0 0 0 .59 0l1.274-.736-1.273-.73a.73.73 0 0 0-.59-.004l-1.278.735zm1.57 1.706a1.5 1.5 0 0 1-.755-.186l-1.438-.824a.78.78 0 0 1-.4-.435.76.76 0 0 1 .027-.588.77.77 0 0 1 .373-.37h.004l1.437-.823a1.63 1.63 0 0 1 1.509 0l1.441.827a.8.8 0 0 1 .44.692.8.8 0 0 1-.444.696l-1.436.824a1.54 1.54 0 0 1-.758.186" clip-rule="evenodd"/><path fill="#fff" fill-rule="evenodd" d="m59.605 55.026 1.438-.823a1.17 1.17 0 0 1 1.051 0l1.438.828c.08.027.145.085.182.16a.32.32 0 0 1-.064.362.3.3 0 0 1-.121.075l-1.435.827a1.18 1.18 0 0 1-1.055 0l-1.434-.828a.32.32 0 0 1-.184-.164.32.32 0 0 1-.01-.246.322.322 0 0 1 .195-.191" clip-rule="evenodd"/><path fill="#4069fa" fill-rule="evenodd" d="m59.997 55.33 1.278.735a.73.73 0 0 0 .59 0l1.274-.73-1.274-.735a.72.72 0 0 0-.59 0zm1.57 1.709a1.5 1.5 0 0 1-.752-.19l-1.437-.823a.81.81 0 0 1-.444-.692.81.81 0 0 1 .444-.696l1.441-.823a1.62 1.62 0 0 1 1.508 0l1.438.823a.82.82 0 0 1 .444.696.8.8 0 0 1-.449.692l-1.433.823a1.5 1.5 0 0 1-.76.19M49.755 77.083v-1.725h-.028a5 5 0 0 1-2.547-.564l-19.757-11.34a1.9 1.9 0 0 1-.95-1.09v1.724a1.88 1.88 0 0 0 .95 1.094L47.18 76.523c.783.41 1.663.604 2.547.561z" clip-rule="evenodd"/><path fill="#4069fa" fill-rule="evenodd" d="M26.93 64.018c.134.34.394.616.727.773l19.749 11.336c.58.31 1.227.48 1.886.495v-.82a5.2 5.2 0 0 1-2.34-.611L27.188 63.844c-.086-.054-.177-.108-.261-.17v.34zm22.822 13.068-.121.456a5.3 5.3 0 0 1-2.675-.622L27.193 65.573a2.34 2.34 0 0 1-1.158-1.357.4.4 0 0 1-.02-.127v-1.726a.453.453 0 0 1 .459-.453.46.46 0 0 1 .438.326 1.4 1.4 0 0 0 .748.827L47.408 74.4a4.4 4.4 0 0 0 2.314.502.57.57 0 0 1 .34.133.46.46 0 0 1 .147.324v1.726a.453.453 0 0 1-.432.457h-.147z" clip-rule="evenodd"/><path fill="#4069fa" d="M54.17 38.53a.444.444 0 0 1-.446-.394c-.176-1.485-.716-2.686-1.56-3.469a.447.447 0 0 1-.051-.601l2.884-3.747a.447.447 0 0 1 .674-.042c1.344 1.356 2.159 3.348 2.358 5.761a.45.45 0 0 1-.22.423l-3.412 2.01a.45.45 0 0 1-.227.062zm-1.108-4.229c.712.783 1.205 1.825 1.449 3.06l2.597-1.53c-.195-1.855-.787-3.41-1.729-4.543L53.061 34.3zM36.03 41.743l2.912.402c-.936 1.942-1.557 4.003-1.71 5.933l-3.412 2.029c.15-2.73.944-5.611 2.208-8.365z"/><path fill="#4069fa" d="M33.82 50.554a.446.446 0 0 1-.447-.473c.147-2.7.925-5.649 2.248-8.527a.44.44 0 0 1 .468-.256l2.913.401a.448.448 0 0 1 .343.64c-.948 1.967-1.523 3.963-1.667 5.773a.45.45 0 0 1-.217.35l-3.413 2.029a.45.45 0 0 1-.229.063m2.479-8.323c-1.059 2.377-1.73 4.79-1.964 7.047l2.47-1.47c.163-1.683.67-3.501 1.474-5.304z"/><path fill="#4069fa" d="M38.94 42.594a.4.4 0 0 1-.061-.005l-2.913-.401a.45.45 0 0 1-.347-.633c2.286-4.952 5.96-9.242 9.829-11.475a.447.447 0 0 1 .673.387l.011 3.92a.45.45 0 0 1-.224.39c-2.554 1.473-5.008 4.3-6.563 7.562a.45.45 0 0 1-.405.255m-2.246-1.21 1.984.274c1.61-3.245 3.978-5.961 6.556-7.524l-.008-2.867c-3.325 2.146-6.45 5.847-8.532 10.117"/><path fill="#4069fa" d="M45.673 30.467c3.97-2.291 7.492-2.061 9.678.123l-2.884 3.747c-1.574-1.435-4.016-1.548-6.784.05l-.011-3.92z"/><path fill="#4069fa" d="M45.687 34.835a.45.45 0 0 1-.449-.447l-.011-3.92a.45.45 0 0 1 .224-.39c3.978-2.295 7.8-2.224 10.22.194.16.159.176.412.039.59l-2.885 3.747a.45.45 0 0 1-.316.174.45.45 0 0 1-.342-.115c-1.495-1.363-3.775-1.326-6.257.106a.45.45 0 0 1-.224.06M49.5 32.77c1.081 0 2.066.31 2.897.927l2.352-3.058c-2.104-1.834-5.213-1.807-8.626.089l.01 2.912c1.178-.58 2.319-.87 3.367-.87M44.284 48.377c-.367 0-.71-.088-1.014-.265-.708-.41-1.098-1.227-1.098-2.303 0-2.087 1.417-4.537 3.226-5.58a3.2 3.2 0 0 1 1.148-.434.4.4 0 0 1 .16.004l1.285.27a.5.5 0 0 1 .178.08c.582.438.901 1.218.901 2.194.013 2.033-1.422 4.526-3.2 5.554-.552.318-1.09.479-1.586.479m2.32-7.682c-.243.049-.496.151-.75.306-1.541.888-2.786 3.042-2.786 4.808 0 .742.231 1.284.651 1.527.43.248 1.036.171 1.703-.214 1.503-.87 2.763-3.057 2.752-4.775 0-.644-.167-1.143-.474-1.423l-1.094-.229z"/><path fill="#4069fa" d="m49.733 35.559-1.617 4.684-1.364 3.39c-.207.513-.571.938-.943 1.152-.235.136-.472.187-.673.125-.52-.159-.563-1.03-.105-1.822l1.58-2.74q.216-.376.454-.738z"/><path fill="#4069fa" d="M45.314 45.385q-.16 0-.31-.045a1 1 0 0 1-.639-.613c-.2-.508-.093-1.221.277-1.862l1.579-2.74q.225-.388.468-.76l2.668-4.05a.45.45 0 0 1 .799.393l-1.62 4.684-1.37 3.41c-.236.586-.661 1.099-1.135 1.373-.244.14-.487.211-.718.211zm2.83-6.597-.705 1.07q-.23.35-.442.715l-1.578 2.74c-.265.459-.3.884-.22 1.087.029.072.056.08.068.084.055.016.167 0 .317-.086.303-.173.59-.53.752-.931l1.362-3.39z"/></g><defs><clipPath id="a"><path fill="#fff" d="M0 0h86v78H0z"/></clipPath></defs></svg>