<svg xmlns="http://www.w3.org/2000/svg" width="239" height="72" fill="none" viewBox="0 0 239 72"><path fill="#4285f4" d="M33.945 30.184a21.63 21.63 0 0 1 6.516-15.166 21.96 21.96 0 0 1 15.37-6.25 20.7 20.7 0 0 1 7.994 1.47 20.6 20.6 0 0 1 6.793 4.432l-4.156 4.126a15.08 15.08 0 0 0-10.627-4.181c-2.06 0-4.098.402-6 1.185a15.7 15.7 0 0 0-5.088 3.374 15.6 15.6 0 0 0-3.399 5.049 15.47 15.47 0 0 0 0 11.912 15.6 15.6 0 0 0 3.4 5.05 15.7 15.7 0 0 0 5.086 3.373 15.8 15.8 0 0 0 6 1.185c2.017.08 4.027-.26 5.903-.997a14.45 14.45 0 0 0 4.988-3.288 12.16 12.16 0 0 0 3.209-7.362H55.832v-5.854h19.835a19 19 0 0 1 .315 3.657c0 4.387-1.209 9.818-5.103 13.682a19.7 19.7 0 0 1-6.871 4.608 19.9 19.9 0 0 1-8.171 1.398 21.96 21.96 0 0 1-15.372-6.25 21.63 21.63 0 0 1-6.516-15.165"/><path fill="#db4437" d="M92.015 24.02c-2.745.01-5.426.828-7.703 2.349a13.8 13.8 0 0 0-5.094 6.198 13.7 13.7 0 0 0-.769 7.962 13.76 13.76 0 0 0 3.814 7.046 13.9 13.9 0 0 0 7.112 3.758c2.693.528 5.483.252 8.019-.793a13.87 13.87 0 0 0 6.225-5.079 13.7 13.7 0 0 0 2.337-7.654 13.5 13.5 0 0 0-.966-5.217 13.6 13.6 0 0 0-2.904-4.452 13.7 13.7 0 0 0-4.4-3.01 13.8 13.8 0 0 0-5.225-1.108h-.455m0 22.142a8.5 8.5 0 0 1-4.777-1.079 8.4 8.4 0 0 1-3.368-3.531 8.32 8.32 0 0 1 1.173-9.234 8.45 8.45 0 0 1 4.145-2.59 8.5 8.5 0 0 1 4.898.13 8.44 8.44 0 0 1 3.998 2.81 8.34 8.34 0 0 1 1.775 5.13 7.94 7.94 0 0 1-2.077 5.747 8.06 8.06 0 0 1-5.561 2.607l-.202.008"/><path fill="#f4b400" d="M122.423 24.02c-2.745.01-5.425.828-7.703 2.35a13.8 13.8 0 0 0-5.092 6.198 13.7 13.7 0 0 0-.769 7.962 13.76 13.76 0 0 0 3.814 7.045 13.9 13.9 0 0 0 7.113 3.758c2.693.528 5.483.252 8.018-.793a13.87 13.87 0 0 0 6.225-5.079 13.7 13.7 0 0 0 2.337-7.654 13.54 13.54 0 0 0-3.866-9.665 13.74 13.74 0 0 0-9.619-4.122h-.454m0 22.142a8.5 8.5 0 0 1-4.777-1.079 8.4 8.4 0 0 1-3.368-3.531 8.33 8.33 0 0 1 1.172-9.234 8.45 8.45 0 0 1 4.146-2.59 8.5 8.5 0 0 1 4.897.13 8.44 8.44 0 0 1 3.999 2.81 8.35 8.35 0 0 1 1.774 5.132 7.94 7.94 0 0 1-2.076 5.747 8.06 8.06 0 0 1-5.562 2.607l-.201.007"/><path fill="#4285f4" d="M159.761 24.859v2.245h-.21a9.6 9.6 0 0 0-3.322-2.324 9.7 9.7 0 0 0-3.991-.758c-6.945 0-13.312 6.058-13.312 13.839a13.6 13.6 0 0 0 3.841 9.556 13.8 13.8 0 0 0 9.471 4.181 9.5 9.5 0 0 0 4.004-.766 9.5 9.5 0 0 0 3.309-2.366h.21v1.986c0 5.274-2.841 8.094-7.418 8.094a7.73 7.73 0 0 1-4.252-1.397 7.63 7.63 0 0 1-2.745-3.512l-5.314 2.194a13.16 13.16 0 0 0 4.902 5.94 13.3 13.3 0 0 0 7.41 2.206c7.16 0 13.205-4.18 13.205-14.36V24.858zm-6.997 21.307a8 8 0 0 1-3.033-.689 8 8 0 0 1-2.536-1.788 7.9 7.9 0 0 1-1.653-2.615 7.9 7.9 0 0 1-.512-3.215c0-4.856 3.526-8.407 7.734-8.407 4.156 0 7.418 3.55 7.418 8.407 0 4.806-3.262 8.307-7.418 8.307"/><path fill="#0f9d58" d="M175.861 10.234h-6.103V50.76h6.103z"/><path fill="#db4437" d="M192.593 46.166a7.1 7.1 0 0 1-4.018-1.061 7.04 7.04 0 0 1-2.721-3.12l18.572-7.625-.631-1.57c-1.158-3.08-4.683-8.774-11.892-8.774-7.155 0-13.099 5.589-13.099 13.787a13.44 13.44 0 0 0 3.773 9.626 13.65 13.65 0 0 0 9.525 4.159h.482c2.288.012 4.544-.54 6.564-1.606a13.8 13.8 0 0 0 5.011-4.504l-4.735-3.133a7.9 7.9 0 0 1-2.913 2.803 8 8 0 0 1-3.927 1.01m-.465-16.81a5.4 5.4 0 0 1 3.022.692 5.36 5.36 0 0 1 2.135 2.233L184.86 37.39c-.13-2 .546-3.97 1.879-5.476a7.63 7.63 0 0 1 5.229-2.555l.151-.008"/></svg>