<svg xmlns="http://www.w3.org/2000/svg" width="664" height="371" fill="none" viewBox="0 0 664 371"><g opacity=".71"><path fill="#f0f4fc" d="M112.891 197.412h115.947l129.071-73.944c16.621-9.523 45.658-8.328 64.853 2.667l124.414 71.277h115.889v15.81h-.037c.473 6.444-3.149 12.665-11.137 17.241L418.096 364.401c-16.621 9.523-45.659 8.328-64.854-2.669L128.769 233.136c-9.972-5.713-15.281-12.946-15.793-19.914h-.085z"/><path fill="#fbfdff" d="m417.869 348.842 233.796-133.938c16.621-9.523 14.538-26.158-4.657-37.153l-224.473-128.6c-19.195-10.996-48.231-12.19-64.854-2.667L123.885 180.422c-16.621 9.523-14.538 26.158 4.657 37.152l224.474 128.597c19.194 10.998 48.23 12.192 64.853 2.671"/></g><path fill="url(#a)" d="M.962 185.8s-2.165-4.45 0-13.41 8.66-4.785 8.66-4.785c2.447 14.664 19.838 6.672 34.373 8.679l99.007 57.451 43.202 15.479 137.915-70.622-3.185-1.827c11.785-5.464 18.539-1.765 24.916-13.163l9.283 5.491 5.517 1.542-.405 15.658c0 6.088-4.046 12.176-12.131 16.808l-138.171 79.161c-16.177 9.265-42.502 9.265-58.681 0L13.094 203.103c-7.954-4.557-12-10.523-12.125-16.507-.006-.268.005-.536.016-.804z"/><path fill="#333c5e" d="m209.66 267.69 138.167-79.158c16.178-9.274 16.178-24.35 0-33.616L209.66 75.756c-16.172-9.264-42.498-9.264-58.677.006l-138.17 79.154c-16.177 9.273-16.177 24.35-.004 33.615l138.168 79.159c16.18 9.266 42.505 9.266 58.683 0"/><path fill="url(#b)" d="m284.375 233.891.149-.254 227.648 131.128-.296.508-227.649-131.129z"/><path fill="url(#c)" d="m258.391 359.982-.065-.1-.256-.393 78.203-50.129a13.77 13.77 0 0 0 4.722-5.11 13.65 13.65 0 0 0 1.603-6.748 13.66 13.66 0 0 0-1.925-6.665 13.8 13.8 0 0 0-4.961-4.881l-71.604-41.245.149-.254.148-.254 71.603 41.244a14.4 14.4 0 0 1 5.174 5.091 14.23 14.23 0 0 1 .335 13.986c-1.154 2.165-2.85 4-4.923 5.329z"/><path fill="url(#d)" d="m485.768 210.606-.322-.493-85.471 54.789a22.35 22.35 0 0 1-11.533 3.524 22.36 22.36 0 0 1-11.688-2.975l-71.535-41.206-.149.255-.148.253 71.849 41.386a22.36 22.36 0 0 0 11.687 2.975 22.35 22.35 0 0 0 11.533-3.522z"/><path fill="#6fa6e3" d="M264.35 246.813a2.357 2.357 0 0 0 2.366-2.348 2.357 2.357 0 0 0-2.366-2.348 2.357 2.357 0 0 0-2.366 2.348 2.357 2.357 0 0 0 2.366 2.348m20.051-11.094a2.357 2.357 0 0 0 2.366-2.348 2.357 2.357 0 0 0-2.366-2.348 2.357 2.357 0 0 0-2.366 2.348 2.357 2.357 0 0 0 2.366 2.348m20.168-10.039a2.357 2.357 0 0 0 2.366-2.348 2.357 2.357 0 0 0-2.366-2.348 2.357 2.357 0 0 0-2.366 2.348 2.357 2.357 0 0 0 2.366 2.348"/><path stroke="#6da4e3" stroke-width="2" d="M180.32 253.315c8.517 0 17.035-1.86 23.525-5.579l107.952-61.842c6.499-3.725 10.082-8.757 10.087-14.172.006-5.415-3.588-10.447-10.087-14.171L203.849 95.708c-12.97-7.428-34.075-7.439-47.055 0L48.845 157.55c-6.506 3.724-10.087 8.756-10.087 14.171s3.582 10.447 10.081 14.177l107.949 61.837c6.489 3.719 15.011 5.579 23.532 5.579Z"/><path fill="#242b43" d="m12.811 188.529 138.169 79.16c16.178 9.265 42.503 9.265 58.68 0l138.17-79.16c7.231-4.146 11.217-9.446 11.988-14.877.947 6.717-3.042 13.617-11.988 18.75l-138.168 79.154c-16.178 9.271-42.503 9.271-58.68 0l-138.17-79.153C3.865 187.278-.122 180.376.827 173.659c.766 5.425 4.757 10.731 11.983 14.87"/><path fill="#ffd73e" d="M187.844 1.96q.249.033.489.088l-4.38-1.044c-1.301-.316-2.57-.745-4.064-.504-2.788.456-5.543 2.733-7.381 5.442a14.17 14.17 0 0 0-2.541 7.58l-.053 29.519c0 2.27.828 4.291 2.537 5.228.98.536 2.216.682 3.335.948l4.091.968c-2.391-.57-3.639-2.91-3.634-5.649l.053-29.518a14.57 14.57 0 0 1 3.385-8.71c2.189-2.704 5.387-4.688 8.163-4.335z"/><path fill="#ffe06a" d="M184.159 2.66c4.327-2.023 7.828.23 7.818 5.035l-.053 29.52c0 4.801-3.524 10.334-7.849 12.362s-7.831-.231-7.821-5.036l.053-29.519c.01-4.808 3.524-10.343 7.852-12.361"/><path fill="#7ec2f5" d="m202.863 163.014-12.377-7.192c-2.374-1.381-5.701-1.089-9.551 1.134l12.377 7.192c3.85-2.223 7.177-2.514 9.551-1.134m-31.498 26.47 12.377 7.193c-2.429-1.412-3.827-4.592-3.84-9.169.086-9.084 5.338-18.697 13.41-23.358l-12.377-7.193c-8.073 4.661-13.324 14.274-13.41 23.358.012 4.578 1.41 7.757 3.84 9.169"/><path fill="#579ae2" d="M193.312 164.147c-8.073 4.661-13.324 14.274-13.41 23.358.025 9.018 5.426 12.611 13.499 7.95 7.961-4.596 13.324-14.403 13.298-23.421-.025-9.02-5.65-12.354-13.387-7.887"/><path fill="#7ec2f5" d="m182.854 159.091-12.377-7.193.009 3.092 12.377 7.193zm33.103-89.316-12.377-7.193c-5.393-.5-14.372 1.2-25.024 7.35l12.377 7.192c10.652-6.149 19.632-7.849 25.024-7.349m-25.023 7.351-12.378-7.192C158.822 81.327 150 99.066 150.041 113.239c.037 13.013 7.012 17.631 12.752 21.545 5.514 3.914 7.775 9.319 7.685 17.114l12.377 7.193c.09-7.795-2.171-13.2-7.685-17.115-5.74-3.913-12.715-8.532-12.752-21.544-.04-14.173 8.782-31.913 28.516-43.306"/><path fill="#579ae2" d="M190.933 77.123c-19.734 11.394-28.555 29.134-28.515 43.306.037 13.013 7.012 17.631 12.752 21.545 5.514 3.914 7.775 9.319 7.685 17.114l.009 3.092 19.846-11.458.099-4.574c.424-9.02-2.068-16.486-8.822-21.878-4.84-3.787-8.779-6.932-8.796-12.859-.018-6.056 3.447-11.928 10.958-16.651 4.934-2.849 10.882-4.219 14.815-3.392l4.993-21.594c-5.392-.5-14.372 1.2-25.024 7.35"/><path fill="#ffd73e" d="M138.299 86.876 119.531 74.79c-2.038-1.309-2.631-4.18-2.085-7.097a15.62 15.62 0 0 1 4.705-8.323q.757-.65 1.554-1.221c.59-.398 1.22-.733 1.88-.998a6.24 6.24 0 0 1 3.699-.405l-6.339-1.495c-2.192-.52-5.021.611-7.131 2.627a15.65 15.65 0 0 0-4.682 8.232c-.569 2.945.014 5.85 2.07 7.175l18.77 12.086c1.044.673 2.438.827 3.686 1.122l3.993.945a4.4 4.4 0 0 1-1.351-.572z"/><path fill="#ffe06a" d="M125.1 57.359c2.011-.974 4.05-.99 5.535-.042l18.769 12.086c3.053 1.963 3.044 7.473-.021 12.293a13.8 13.8 0 0 1-5.545 5.134c-2.008.974-4.05.99-5.535.043l-18.769-12.086c-3.054-1.964-3.044-7.473.021-12.294a13.8 13.8 0 0 1 5.545-5.134"/><path fill="#ffd73e" d="M128.238 121.413a5.9 5.9 0 0 1 3.082-.184l-5.454-1.286a6.5 6.5 0 0 0-5.071.406L94.21 132.774a12.3 12.3 0 0 0-3.565 2.61 15.13 15.13 0 0 0-4.263 9.141c-.172 2.805.863 5.319 3.165 6.121a33 33 0 0 0 3.268.795l3.506.835c-2.37-.559-3.613-2.854-3.632-5.556.008-3.233 1.482-6.75 3.986-9.513a12.6 12.6 0 0 1 3.864-2.935l26.594-12.428q.538-.25 1.105-.428z"/><path fill="#ffe06a" d="M127.132 121.842c4.328-2.02 7.828.235 7.819 5.035s-3.523 10.334-7.85 12.363l-26.595 12.419c-4.327 2.021-7.828-.231-7.818-5.035.009-4.805 3.519-10.334 7.849-12.363z"/><path fill="#ffd73e" d="M268.532 55.86a5.9 5.9 0 0 1 3.08-.18l-6.329-1.488a6.54 6.54 0 0 0-4.188.615l-26.594 12.415c-5.978 2.792-9.896 11.891-6.76 16.284a4.3 4.3 0 0 0 2.551 1.715l6.329 1.495a3.5 3.5 0 0 1-1.553-.707 4.5 4.5 0 0 1-1.213-1.354 7.5 7.5 0 0 1-.825-4.483 15.36 15.36 0 0 1 4.993-9.564 11.8 11.8 0 0 1 2.804-1.888l26.597-12.425q.538-.255 1.105-.431z"/><path fill="#ffe06a" d="M267.435 56.293c4.325-2.023 7.826.234 7.819 5.034s-3.524 10.33-7.85 12.363l-26.597 12.42c-4.328 2.02-7.828-.235-7.819-5.035s3.523-10.334 7.85-12.363z"/><path fill="#ffd73e" d="M218.343 49.04c-2.951-2.365-2.229-7.914.389-12.03l18.831-29.648c2.298-3.614 6.362-6.553 9.729-5.751L242.814.55c-1.317-.312-2.584-.738-4.095-.46-2.87.529-5.691 2.946-7.484 5.77l-18.843 29.672c-1.937 3.048-2.817 6.698-2.004 9.492a4.7 4.7 0 0 0 .914 1.823c.434.535.979.97 1.599 1.276a12.6 12.6 0 0 0 2.278.623l2.446.557 2.434.576a4.3 4.3 0 0 1-1.716-.84"/><path fill="#ffe06a" d="M243.104 2.221c2.008-.973 4.05-.988 5.535-.041 3.056 1.962 3.046 7.472-.021 12.293l-18.843 29.67a13.8 13.8 0 0 1-5.547 5.136c-2.007.972-4.048.987-5.533.04-3.055-1.962-3.045-7.472.022-12.293L237.56 7.362a13.73 13.73 0 0 1 5.544-5.14"/><defs><linearGradient id="a" x1="122.621" x2="213.088" y1="242.107" y2="131.911" gradientUnits="userSpaceOnUse"><stop stop-color="#333c5e"/><stop offset="1" stop-color="#4f5982"/></linearGradient><linearGradient id="b" x1="287.874" x2="349.289" y1="236.401" y2="337.483" gradientUnits="userSpaceOnUse"><stop stop-color="#77abd4"/><stop offset=".955" stop-color="#bac3de" stop-opacity=".01"/><stop offset="1" stop-color="#fff" stop-opacity="0"/></linearGradient><linearGradient id="c" x1="259.432" x2="316.585" y1="246.634" y2="286.573" gradientUnits="userSpaceOnUse"><stop stop-color="#77abd4"/><stop offset=".955" stop-color="#bac3de" stop-opacity=".01"/><stop offset="1" stop-color="#fff" stop-opacity="0"/></linearGradient><linearGradient id="d" x1="307.815" x2="326.867" y1="211.352" y2="266.85" gradientUnits="userSpaceOnUse"><stop stop-color="#77abd4"/><stop offset=".955" stop-color="#bac3de" stop-opacity=".01"/><stop offset="1" stop-color="#fff" stop-opacity="0"/></linearGradient></defs></svg>