<svg xmlns="http://www.w3.org/2000/svg" width="89" height="67" fill="none" viewBox="0 0 89 67"><g clip-path="url(#a)"><mask id="b" width="89" height="67" x="0" y="0" maskUnits="userSpaceOnUse" style="mask-type:luminance"><path fill="#fff" d="M89 0H0v67h89z"/></mask><g fill-rule="evenodd" clip-rule="evenodd" mask="url(#b)"><path fill="#1b69ff" d="M24.952 1.248c-2.669-1.077-4.917-.75-7.57.188A24.9 24.9 0 0 0 7.618 8.92a32.7 32.7 0 0 0-6.127 11.53 18.95 18.95 0 0 0-.426 9.722 8.27 8.27 0 0 0 3.324 4.923L6.388 36.2l3.505 1.918L30.408 4.25z"/><path fill="#4069fa" d="M21.614 1.16c-1.378.04-2.738.317-4.02.82-3.492 1.431-6.433 3.688-9.498 7.303a32.3 32.3 0 0 0-6.018 11.331c-.992 3.768-1.116 6.507-.418 9.431a7.73 7.73 0 0 0 3.096 4.592l4.912 2.687L29.58 4.463l-4.901-2.697a8.1 8.1 0 0 0-3.065-.61M9.892 38.696a.65.65 0 0 1-.306-.073L4.084 35.6a8.88 8.88 0 0 1-3.61-5.264 19.6 19.6 0 0 1 .42-10.023A33.5 33.5 0 0 1 7.134 8.57c3.208-3.787 6.293-6.147 10.01-7.668C19.511.063 22.107-.53 25.19.71q.036.015.07.034l5.457 3.006a.58.58 0 0 1 .282.35.56.56 0 0 1-.06.445L10.418 38.41a.6.6 0 0 1-.37.266.6.6 0 0 1-.156.02"/><path fill="#f0f3fa" d="M20.681 37.447c8.038-4.41 14.555-15.136 14.555-23.958S28.722 1.08 20.682 5.495 6.122 20.638 6.122 29.462s6.52 12.395 14.56 7.985"/><path fill="#4069fa" d="M27.18 4.182a13.1 13.1 0 0 0-6.19 1.817C13.131 10.31 6.736 20.837 6.736 29.463c0 4.049 1.409 7.051 3.957 8.448s5.993 1.063 9.683-.968c7.855-4.31 14.247-14.833 14.247-23.457 0-4.059-1.408-7.064-3.961-8.46a7.16 7.16 0 0 0-3.489-.849M14.177 39.922a8.4 8.4 0 0 1-4.097-1.002c-2.943-1.615-4.564-4.978-4.564-9.458 0-8.997 6.665-19.978 14.864-24.471 4.08-2.242 7.953-2.582 10.897-.967s4.573 4.978 4.573 9.466c0 8.992-6.667 19.964-14.86 24.457v.005a14.4 14.4 0 0 1-6.812 1.97"/><path fill="#fff" d="m27.19 8.858-.381-.153a6.8 6.8 0 0 0-4.05-.044 16.07 16.07 0 0 0-7.165 4.709 23.14 23.14 0 0 0-5.61 10.576 11.8 11.8 0 0 0 .307 6.666 5.7 5.7 0 0 0 2.088 2.634l1.44.785.537.296c1.918 1.268 3.336 1.95 7.772-.484 4.435-2.435 10.483-12.384 10.483-17.258 0-4.875-1.343-5.718-3.476-6.657z"/><path fill="#1b69ff" d="M24.824 8.953a8.4 8.4 0 0 0-1.919.267 15.3 15.3 0 0 0-6.86 4.535 22.57 22.57 0 0 0-5.465 10.31 11.37 11.37 0 0 0 .285 6.35 5.1 5.1 0 0 0 1.883 2.366l1.91 1.046c1.673 1.106 2.85 1.887 7.164-.484 4.28-2.353 10.177-12.062 10.177-16.758 0-4.76-1.31-5.332-3.123-6.128l-2.308-1.22a5.8 5.8 0 0 0-1.745-.282m-7.44 27.106a5.85 5.85 0 0 1-3.377-1.26l-1.932-1.056a6.25 6.25 0 0 1-2.347-2.909 12.4 12.4 0 0 1-.345-6.996 23.73 23.73 0 0 1 5.748-10.854 16.43 16.43 0 0 1 7.447-4.878 7.5 7.5 0 0 1 4.422.045l.428.174.068.03 1.943 1.076c2.264.987 3.785 2.034 3.785 7.15 0 5.092-6.152 15.219-10.79 17.761-2.258 1.24-3.81 1.714-5.049 1.714"/><path fill="#fff" d="m36.438 61.363-9.016-6.802-11.547-20.775a5.67 5.67 0 0 1-2.272-3.366 14.2 14.2 0 0 1 .888-8.433 23.2 23.2 0 0 1 4.013-6.602c7.14-7.936 23.05-5.244 32.097-2.538.727.2 1.402.552 1.98 1.034a5.2 5.2 0 0 1 1.365 1.756l2.118 4.342a4.8 4.8 0 0 1 .381 3.328l-1.77 7.614 9.684 20.966-10.148 5.372c.205.647-2.234 3.378-4.982 2.637-.383.549-.132 1.792-3.204 1.698.132.549-.623 1.062-1.996 1.062l-6.415-.82a2.4 2.4 0 0 1-1.176-.473"/><path fill="#1b69ff" d="m27.904 54.182 8.916 6.725c.252.196.554.32.872.356l6.418.814c.863 0 1.282-.276 1.32-.375a.52.52 0 0 1 .122-.484.65.65 0 0 1 .489-.202c2.054.054 2.242-.45 2.435-.943q.093-.264.245-.5a.63.63 0 0 1 .672-.236 3.52 3.52 0 0 0 2.771-.509 3.5 3.5 0 0 0 1.447-1.496c-.083-.262.049-.444.3-.578l9.661-5.12-9.454-20.477a.58.58 0 0 1-.039-.36l1.771-7.615a4.25 4.25 0 0 0-.342-2.965l-2.113-4.341a4.6 4.6 0 0 0-1.214-1.563 4.7 4.7 0 0 0-1.762-.918c-5.42-1.625-23.71-6.242-31.453 2.365a22.6 22.6 0 0 0-3.904 6.434c-1.173 3.16-1.441 5.658-.862 8.093a5.05 5.05 0 0 0 2.046 3.032.6.6 0 0 1 .176.193zm16.147 9.05h-.025l-6.493-.824a2.95 2.95 0 0 1-1.475-.592l-9.013-6.802a.6.6 0 0 1-.162-.182L15.4 34.164a6.26 6.26 0 0 1-2.385-3.59c-.639-2.686-.359-5.388.904-8.784a23.7 23.7 0 0 1 4.107-6.77c8.247-9.164 27.158-4.41 32.759-2.73a5.9 5.9 0 0 1 2.195 1.153 5.8 5.8 0 0 1 1.518 1.948l2.119 4.34c.58 1.146.73 2.458.424 3.703l-1.725 7.427 9.595 20.793a.566.566 0 0 1-.259.741l-9.859 5.22a3.5 3.5 0 0 1-.945 1.395c-.552.554-1.22.98-1.957 1.25a5.4 5.4 0 0 1-2.308.305c-.318.776-.886 1.566-3.044 1.61q-.068.15-.176.277a3.02 3.02 0 0 1-2.318.78"/><path fill="#f0f3fa" d="m62.708 52.576-5.76-4.296-4.4-6.478-3.852-3.669a9.1 9.1 0 0 1-2.12-2.911 9 9 0 0 1-.81-3.498l-.177-4.607-8.336-.784-3.297 3.75c-.414.518-.97.907-1.603 1.117a3.46 3.46 0 0 1-1.96.067l-3.104-.907a.92.92 0 0 1-.675-.972.85.85 0 0 1 .147-.391l6.481-9.713a2.96 2.96 0 0 1 1.987-1.353l13.848-2.045a1.04 1.04 0 0 1 .82.302l8.362 6.997c7.274 6.088 3.817 5.98 11.061 7.628a48.4 48.4 0 0 1 6.64 2.237c5.08 9.565-2.541 16.569-9.985 18.768 0 0-2.626 1.023-3.271.76"/><path fill="#1b69ff" d="M62.979 52.04a10 10 0 0 0 2.766-.761c3.785-1.122 8.467-3.837 10.387-8.148 1.336-2.997 1.132-6.231-.616-9.624l-1.532-.577a33 33 0 0 0-4.805-1.55c-4.64-1.057-5.083-1.432-6.66-3.235a38 38 0 0 0-4.665-4.527l-8.363-6.992a.6.6 0 0 0-.325-.168l-13.838 2.044a2.42 2.42 0 0 0-1.564 1.091l-6.483 9.713a.29.29 0 0 0-.031.291.3.3 0 0 0 .223.202l3.107.913c.53.128 1.088.102 1.604-.076s.969-.499 1.305-.925l3.299-3.75a.64.64 0 0 1 .528-.203l8.336.785a.59.59 0 0 1 .55.553l.176 4.612a8.4 8.4 0 0 0 .756 3.287 8.4 8.4 0 0 0 1.994 2.73l3.85 3.663 4.424 6.494zm.014 1.15a1.4 1.4 0 0 1-.528-.088.6.6 0 0 1-.137-.074l-5.757-4.292a.6.6 0 0 1-.136-.143l-4.402-6.479-3.768-3.57a9.7 9.7 0 0 1-2.243-3.087 9.6 9.6 0 0 1-.864-3.707l-.156-4.108-7.483-.698-3.092 3.507a4.04 4.04 0 0 1-1.899 1.306 4.1 4.1 0 0 1-2.31.061l-3.106-.908a1.51 1.51 0 0 1-1.012-.913 1.39 1.39 0 0 1 .15-1.314l6.483-9.713a3.5 3.5 0 0 1 1.028-1.064 3.55 3.55 0 0 1 1.379-.55l13.848-2.045a1.67 1.67 0 0 1 1.32.436l8.363 6.998a39 39 0 0 1 4.797 4.651c1.366 1.57 1.616 1.847 6.005 2.85a33.4 33.4 0 0 1 4.972 1.605l1.74.65c.14.051.257.152.328.283 1.978 3.728 2.238 7.46.753 10.794-2.088 4.68-7.107 7.61-11.107 8.794a10.6 10.6 0 0 1-3.162.815"/><path fill="#4069fa" d="M49.226 60.478h-.02a13.65 13.65 0 0 1-8.259-2.71 77 77 0 0 1-6.68-6.533.56.56 0 0 1 .07-.815.635.635 0 0 1 .86.064 74 74 0 0 0 6.528 6.385 12.4 12.4 0 0 0 7.525 2.449.59.59 0 0 1 .553.364.577.577 0 0 1-.344.762.6.6 0 0 1-.231.034m4.977-2.584h-.008l-.264-.005c-2.58-.035-5.25-.069-7.69-2.093-2.058-1.708-7.667-6.587-8.815-7.782a.56.56 0 0 1 .036-.82.636.636 0 0 1 .862.035c1.126 1.17 6.678 5.995 8.72 7.693 2.1 1.738 4.436 1.773 6.906 1.803l.264.005a.6.6 0 0 1 .555.357q.046.109.048.226a.6.6 0 0 1-.186.412.6.6 0 0 1-.425.166m6.218-2.952h-.067c-3.617-.375-7.378-.928-10.138-3.2-2.21-1.816-7.08-5.944-8.032-7.115a.56.56 0 0 1 .11-.809.63.63 0 0 1 .856.099c.773.953 5.063 4.646 7.864 6.947 2.495 2.054 5.905 2.553 9.472 2.923a.59.59 0 0 1 .518.387.574.574 0 0 1-.358.737.6.6 0 0 1-.226.032m-14.404 7.25h-.063c-2.78-.271-6.25-.809-8.406-2.615-1.78-1.492-4.696-4.104-5.645-5.106a.56.56 0 0 1 .046-.82.63.63 0 0 1 .863.044c.899.948 3.8 3.546 5.546 5.012 1.897 1.586 5.123 2.08 7.725 2.331a.59.59 0 0 1 .517.404.6.6 0 0 1 .026.228.6.6 0 0 1-.202.377.6.6 0 0 1-.404.147"/><path fill="#1b69ff" d="m83.626 31.353-5.523-3.028a8.9 8.9 0 0 0-5.457-.436 19.2 19.2 0 0 0-7.97 4.153c-.422.356-.968.84-1.363 1.22a32.9 32.9 0 0 0-8.12 12.533 24.6 24.6 0 0 0-1.416 6.89c-.083 3.643.528 7.169 3.762 9.494L63.04 65.2z"/><path fill="#4069fa" d="M74.892 28.239c-.716.01-1.43.084-2.134.222-2.848.72-5.482 2.1-7.683 4.029-.406.34-.94.814-1.329 1.185a32.5 32.5 0 0 0-7.97 12.31 24.3 24.3 0 0 0-1.388 6.735c-.065 2.953.273 6.666 3.521 8.997l4.911 2.69 19.97-32.839-4.987-2.74a7.6 7.6 0 0 0-2.91-.593M63.045 65.778a.6.6 0 0 1-.303-.079l-5.504-3.017c-3.753-2.691-4.143-6.76-4.07-10.015a25.4 25.4 0 0 1 1.449-7.056 33.7 33.7 0 0 1 8.266-12.76c.409-.39.963-.883 1.396-1.244a20.1 20.1 0 0 1 8.22-4.286 9.57 9.57 0 0 1 5.845.47l5.59 3.064a.57.57 0 0 1 .3.579.6.6 0 0 1-.076.216L63.575 65.485a.61.61 0 0 1-.528.292"/><path fill="#f0f3fa" d="M73.833 64.524c8.041-4.41 14.556-15.13 14.556-23.958s-6.514-12.404-14.556-7.994-14.556 15.15-14.556 23.968c0 8.82 6.514 12.398 14.556 7.984"/><path fill="#4069fa" d="M80.332 31.254a13.1 13.1 0 0 0-6.192 1.818c-7.86 4.316-14.254 14.838-14.254 23.464 0 4.054 1.409 7.056 3.956 8.453s5.997 1.057 9.683-.967c7.859-4.315 14.25-14.838 14.25-23.458 0-4.054-1.402-7.056-3.961-8.458a7.2 7.2 0 0 0-3.486-.85M67.325 67.001A8.46 8.46 0 0 1 63.23 66c-2.947-1.615-4.57-4.976-4.57-9.46 0-8.997 6.67-19.97 14.862-24.467 4.083-2.243 7.959-2.588 10.904-.969s4.572 4.978 4.572 9.462c0 8.992-6.671 19.963-14.863 24.462A14.34 14.34 0 0 1 67.325 67"/><path fill="#f0f3fa" d="m31.02 57.153-4.257-.118a2.6 2.6 0 0 1-1.694-.647l-.657-.568a2.39 2.39 0 0 1-.864-1.862v-1.584l-.366-.095a2.56 2.56 0 0 1-1.346-.834l-1.181-1.382a2.34 2.34 0 0 1-.585-1.483l-.043-1.106-.43-.143A2.75 2.75 0 0 1 18.1 46.17l-.746-1.18a4 4 0 0 1-.644-2.493l.03-.504a4.44 4.44 0 0 1-2.022-1.654 4.4 4.4 0 0 1-.733-2.494l.03-1.23.154-2.582c.165-1.437.698-1.738 1.918-1.837a3.7 3.7 0 0 1 1.699.242l.683.3c.537.227.997.6 1.328 1.077.353.436.565.968.606 1.526l.034.385.008 1.254.808.349.875.726c.348.277.625.63.81 1.033a2.8 2.8 0 0 1 .253 1.284l-.07 2.329a5.8 5.8 0 0 1 1.079.622l.875.657a3.3 3.3 0 0 1 .875 1.152c.202.443.303.925.296 1.411l-.104 2.894a3.7 3.7 0 0 1 2.414 1.096 2.82 2.82 0 0 1 1.117 1.867l.375 2.41z"/><path fill="#1b69ff" d="M16.413 32.761c-.088 0-.184.006-.276.01-.929.08-1.227.158-1.361 1.324l-.185 3.757a3.8 3.8 0 0 0 .643 2.177 3.87 3.87 0 0 0 1.77 1.438.585.585 0 0 1 .343.557l-.032.504c-.06.76.137 1.519.557 2.158l.748 1.18a2.1 2.1 0 0 0 1.178.914l.43.149a.59.59 0 0 1 .404.523l.042 1.101c.01.423.17.829.452 1.146l1.183 1.382c.267.317.628.541 1.031.642l.366.093a.59.59 0 0 1 .449.559v1.584a1.82 1.82 0 0 0 .668 1.432l.66.568c.357.318.82.496 1.3.498l3.334.088-.633-1.521-.41-2.547a2.26 2.26 0 0 0-.903-1.495c-.913-.706-1.242-.928-2.056-.96a.6.6 0 0 1-.417-.181.6.6 0 0 1-.165-.42l.101-2.894a2.72 2.72 0 0 0-.936-2.093l-.873-.657a5.6 5.6 0 0 0-.981-.557.59.59 0 0 1-.335-.538l.07-2.336a2.22 2.22 0 0 0-.855-1.856l-.81-.672-.725-.31a.6.6 0 0 1-.36-.529l-.036-1.59a2.23 2.23 0 0 0-.491-1.229 2.47 2.47 0 0 0-1.09-.894l-.683-.3a2.9 2.9 0 0 0-1.116-.203M31.02 57.734h-.016l-4.259-.114a3.26 3.26 0 0 1-2.086-.8l-.66-.567a2.94 2.94 0 0 1-1.068-2.29V52.82a3.15 3.15 0 0 1-1.572-1.006l-1.184-1.383a2.9 2.9 0 0 1-.724-1.832l-.069-.72a3.35 3.35 0 0 1-1.808-1.413l-.749-1.176a4.6 4.6 0 0 1-.73-2.829l.008-.128a4.95 4.95 0 0 1-2.026-1.862 4.9 4.9 0 0 1-.71-2.647l.033-1.22.158-2.603c.207-1.853 1.066-2.268 2.472-2.386a4.3 4.3 0 0 1 2.002.292l.687.3c.628.266 1.169.7 1.56 1.255a3.3 3.3 0 0 1 .731 1.83l.033.381.006.933.454.192a.7.7 0 0 1 .15.094l.875.726a3.38 3.38 0 0 1 1.273 2.765l-.06 1.965q.439.225.837.513l.875.657c.447.372.806.838 1.05 1.364a3.9 3.9 0 0 1 .358 1.678l-.083 2.36a4.7 4.7 0 0 1 2.167 1.161 3.36 3.36 0 0 1 1.337 2.227l.375 2.415.936 2.217a.55.55 0 0 1-.07.543.6.6 0 0 1-.499.247"/><path fill="#fff" d="m14.707 33.793 1.848 1.363-.203 3.027c-.006.074-.107.098-.185.098-.077 0-.235-.143-.29-.192l-.763-.726a1.16 1.16 0 0 1-.481-.79z"/><path fill="#4069fa" d="m15.286 34.957-.046 1.63c0 .048.1.174.302.365l.26.246.12-1.777zm.88 3.906a1.1 1.1 0 0 1-.722-.36l-.763-.727a1.7 1.7 0 0 1-.661-1.22l.076-2.78a.58.58 0 0 1 .352-.509.64.64 0 0 1 .635.064l1.848 1.363a.56.56 0 0 1 .236.493l-.21 3.033a.72.72 0 0 1-.25.468.73.73 0 0 1-.504.174z"/><path fill="#fff" d="m17.272 38.469 2.128 1.348-.013 2.616a.22.22 0 0 1-.072.163.24.24 0 0 1-.17.065h-.265a1.43 1.43 0 0 1-1.074-.47l-.196-.212a1.3 1.3 0 0 1-.352-.908z"/><path fill="#4069fa" d="m17.872 39.552-.009 1.52a.7.7 0 0 0 .204.52l.196.217c.13.149.313.242.512.261l.013-1.945zm1.27 3.69h-.27a2.06 2.06 0 0 1-1.531-.672l-.198-.213a1.86 1.86 0 0 1-.502-1.288l.016-2.598a.58.58 0 0 1 .324-.513.64.64 0 0 1 .625.03l2.135 1.346a.58.58 0 0 1 .274.484L20 42.434a.78.78 0 0 1-.258.573.86.86 0 0 1-.595.232"/><path fill="#fff" d="m20.843 44.129 2.133 1.54-.014 2.42a.23.23 0 0 1-.154.213.3.3 0 0 1-.095.014h-.264a1.44 1.44 0 0 1-1.072-.474l-.197-.213a1.3 1.3 0 0 1-.352-.908z"/><path fill="#4069fa" d="m21.444 45.295-.008 1.432a.7.7 0 0 0 .203.523l.195.212c.13.15.314.245.513.267l.01-1.773zm1.272 3.605h-.011l-.264-.005a2.04 2.04 0 0 1-1.53-.672l-.196-.212a1.83 1.83 0 0 1-.504-1.289l.014-2.596a.58.58 0 0 1 .343-.52.64.64 0 0 1 .64.06l2.128 1.545a.57.57 0 0 1 .242.465l-.014 2.42a.8.8 0 0 1-.25.567.9.9 0 0 1-.6.237"/><path fill="#fff" d="m24.356 50.676 2.128 1.461-.183 2.093a.23.23 0 0 1-.243.208h-.284a1.44 1.44 0 0 1-1.073-.47l-.011-.014a2.47 2.47 0 0 1-.32-1.308z"/><path fill="#4069fa" d="m24.975 51.815.006.825c-.007.321.053.64.176.938a.8.8 0 0 0 .561.277l.127-1.437zm1.086 3.205h-.006l-.285-.006a2.02 2.02 0 0 1-1.528-.667 3 3 0 0 1-.483-1.703l-.017-1.963a.57.57 0 0 1 .331-.523.64.64 0 0 1 .637.044l2.132 1.467a.57.57 0 0 1 .249.52l-.183 2.092a.83.83 0 0 1-.28.534.84.84 0 0 1-.57.206"/><path fill="#f0f3fa" d="M20.441 36.98q-.54.042-1.073.143a3.63 3.63 0 0 0-2.068.96c-.44.547-.493 3.105-.564 3.906-.088-3.387-.792-5.22 3.705-5.012"/><path fill="#4069fa" d="M16.74 42.574h-.018a.6.6 0 0 1-.408-.169.6.6 0 0 1-.184-.399q-.016-.606-.05-1.146c-.077-1.585-.14-2.834.723-3.654.677-.641 1.815-.888 3.669-.809a.6.6 0 0 1 .581.563.58.58 0 0 1-.154.403.6.6 0 0 1-.391.189 13 13 0 0 0-1.008.138 3.3 3.3 0 0 0-1.709.75 11.8 11.8 0 0 0-.4 2.952 23 23 0 0 1-.042.647.6.6 0 0 1-.2.384.6.6 0 0 1-.408.15"/><path fill="#fff" d="m29.207 25.063 1.687.183a.47.47 0 0 1 .352.212c.503.765-2.641 3.762-3.202 4.38l-2.052-.394a13.5 13.5 0 0 1 2.762-4.178.56.56 0 0 1 .45-.203"/><path fill="#4069fa" d="m26.869 29.019.959.182.196-.197c1.903-1.955 2.509-2.82 2.64-3.2l-1.445-.152a12.1 12.1 0 0 0-2.35 3.367m1.18 1.403a.5.5 0 0 1-.125-.015l-2.049-.395a.62.62 0 0 1-.42-.301.55.55 0 0 1-.017-.498 14 14 0 0 1 2.88-4.35 1.16 1.16 0 0 1 .958-.37l1.686.174a1.08 1.08 0 0 1 .806.479c.568.872-.514 2.246-2.847 4.642a16 16 0 0 0-.412.429.62.62 0 0 1-.46.202"/><path fill="#f0f3fa" d="M23.123 42.7c-.984.099-2.208.39-2.654 1.215a18 18 0 0 0-.44 3.556c-.102-2.454-.812-4.948 3.099-4.77"/><path fill="#4069fa" d="M20.027 48.055h-.02a.6.6 0 0 1-.406-.163.6.6 0 0 1-.185-.394q-.019-.438-.05-.872c-.098-1.373-.198-2.79.732-3.693a3.96 3.96 0 0 1 3.059-.815c.15.002.295.062.402.167a.578.578 0 0 1-.366.993c-1.15.114-1.922.436-2.174.904-.19.82-.295 1.657-.316 2.499-.023.349-.044.651-.068.854a.6.6 0 0 1-.203.373.6.6 0 0 1-.402.145"/><path fill="#f0f3fa" d="M26.078 49.45c-2.377.148-2.388 1.101-2.54 3.012-.053-2.34-.27-3.112 2.54-3.012"/><path fill="#4069fa" d="M23.545 52.968h-.014a.55.55 0 0 1-.54-.292.5.5 0 0 1-.059-.207l-.012-.43c-.033-1.185-.057-2.04.548-2.607.481-.455 1.233-.618 2.641-.568a.606.606 0 0 1 .587.573c0 .152-.06.298-.167.408a.6.6 0 0 1-.406.18c-1.784.109-1.818.538-1.96 2.34q-.002.03-.008.07v.009a.66.66 0 0 1-.605.523"/><path fill="#f0f3fa" d="M36.538 24.426c.182.488.874 1.744-.104 2.864a2.75 2.75 0 0 1 2.234-.825c-1.254-.301-1.631-1.328-2.13-2.04"/><path fill="#4069fa" d="M36.434 27.872a.63.63 0 0 1-.547-.323.56.56 0 0 1 .079-.63 1.84 1.84 0 0 0 .077-2.104l-.079-.192a.57.57 0 0 1 .298-.716.63.63 0 0 1 .786.198q.15.216.298.464a2.38 2.38 0 0 0 1.473 1.328.58.58 0 0 1 .454.637.6.6 0 0 1-.206.367.6.6 0 0 1-.399.142 2.35 2.35 0 0 0-1.794.647.6.6 0 0 1-.44.182"/><path fill="#f0f3fa" d="M47.614 26.121a6.26 6.26 0 0 1-3.337.872c1.76.168 1.179.73 1.378 1.744.055-1.604 1.057-1.882 1.959-2.616"/><path fill="#4069fa" d="M45.653 29.32a.61.61 0 0 1-.602-.473 4 4 0 0 1-.06-.78 1.5 1.5 0 0 0-.022-.337 2 2 0 0 0-.753-.157.6.6 0 0 1-.392-.184.58.58 0 0 1-.16-.399.6.6 0 0 1 .171-.395.6.6 0 0 1 .395-.178 5.55 5.55 0 0 0 2.805-.657l.29-.148a.63.63 0 0 1 .792.183.56.56 0 0 1-.103.77c-.203.163-.412.312-.617.455-.683.474-1.096.76-1.13 1.744a.6.6 0 0 1-.176.386.6.6 0 0 1-.39.172z"/></g></g><defs><clipPath id="a"><path fill="#fff" d="M0 0h89v67H0z"/></clipPath></defs></svg>