<svg xmlns="http://www.w3.org/2000/svg" width="110" height="112" fill="none" viewBox="0 0 110 112"><path fill="#265597" d="M91.05 37.334h4.822c2.41 0 4.72.983 6.423 2.733a9.46 9.46 0 0 1 2.661 6.6v18.667a9.47 9.47 0 0 1-2.661 6.6 8.96 8.96 0 0 1-6.423 2.733H91.05C89.943 83.689 85.67 91.987 79.032 98c-6.638 6.015-15.184 9.333-24.035 9.333V98c7.227 0 14.159-2.95 19.27-8.2 5.11-5.252 7.98-12.374 7.98-19.8V42c0-7.426-2.87-14.548-7.98-19.799s-12.042-8.2-19.27-8.2-14.158 2.95-19.268 8.2c-5.11 5.251-7.982 12.373-7.982 19.8v32.666H14.122A8.96 8.96 0 0 1 7.7 71.933a9.47 9.47 0 0 1-2.66-6.6V46.668c0-2.476.956-4.85 2.66-6.6a8.96 8.96 0 0 1 6.422-2.733h4.824c1.108-9.022 5.382-17.317 12.02-23.33 6.637-6.014 15.182-9.332 24.031-9.332 8.85 0 17.395 3.318 24.032 9.331 6.638 6.014 10.912 14.31 12.02 23.33m-76.928 9.333v18.667h4.542V46.667zm77.209 0v18.667h4.541V46.667zM35.74 73.663l4.814-7.914A26.6 26.6 0 0 0 54.997 70a26.6 26.6 0 0 0 14.443-4.25l4.814 7.915a35.44 35.44 0 0 1-19.257 5.67 35.44 35.44 0 0 1-19.256-5.67"/></svg>