<svg xmlns="http://www.w3.org/2000/svg" width="51" height="58" fill="none" viewBox="0 0 51 58"><path fill="#2b1f51" d="M33.498 46.73s-4.6 4.842-13.458-.058c-3.47-1.92-6.3-3.522-8.47-4.76a3.47 3.47 0 0 1-.054-5.99l15.982-9.559 3.315 11.251z"/><path fill="#2b1f51" d="M27.538 49.383a8.92 8.92 0 0 0 6.32-2.31.5.5 0 0 0 .118-.484l-6-20.368a.5.5 0 0 0-.738-.288l-15.983 9.559a3.968 3.968 0 0 0 .064 6.853c2.614 1.5 5.466 3.1 8.475 4.765a16 16 0 0 0 7.744 2.273m5.392-2.808c-.96.827-5.183 3.79-12.648-.34a672 672 0 0 1-8.464-4.758 2.97 2.97 0 0 1-.048-5.13l15.429-9.227z"/><path fill="#333c5e" d="M26.128 15.828a17.36 17.36 0 0 0-7.878 13.658 7.1 7.1 0 0 0 .819 3.538c3.245 7.263 14.482 12.849 15.073 13.143.549-.93 10.972-18.592 14.593-29.54a14.5 14.5 0 0 0 1.152-5.406c-.014-5.025-3.568-7.05-7.941-4.525-3.184 1.838-5.91 6.612-7.162 9.062-.16.335-.412.618-.726.817a.63.63 0 0 1-.728.022 6.22 6.22 0 0 0-7.202-.769"/><path fill="#2b1f51" d="M34.14 46.667a.5.5 0 0 0 .432-.245c1.125-1.906 11.1-18.932 14.637-29.637a15 15 0 0 0 1.177-5.564c-.008-2.608-.922-4.568-2.573-5.518s-3.834-.757-6.117.56c-3.233 1.867-6 6.608-7.36 9.268-.116.249-.3.46-.53.612a.33.33 0 0 1-.176.06 6.67 6.67 0 0 0-7.753-.807c-4.5 2.6-8.142 8.918-8.127 14.093a7.55 7.55 0 0 0 .884 3.785c3.2 7.167 14.056 12.73 15.283 13.34a.5.5 0 0 0 .223.053m11.356-40.56c.636-.009 1.263.15 1.818.463 1.33.764 2.065 2.417 2.072 4.654a14 14 0 0 1-1.115 5.215c-3.34 10.095-12.445 25.866-14.322 29.07-2.308-1.195-11.573-6.306-14.425-12.688a6.64 6.64 0 0 1-.774-3.335 16.84 16.84 0 0 1 7.627-13.223 5.73 5.73 0 0 1 6.64.727 1.11 1.11 0 0 0 1.29.019c.398-.247.718-.602.922-1.025 1.31-2.56 3.957-7.116 6.967-8.854a6.74 6.74 0 0 1 3.3-1.022"/><path fill="#fff" d="M9.23 24.387a7 7 0 0 0 .82 3.54c2.35 5.28 5.22 7.37 8.86 9.49l12.02 6.98c-3.73-2.25-9.66-6.42-11.86-11.37a7 7 0 0 1-.82-3.54q-.003-.871.14-1.73l.03-.29q.15-.871.4-1.72l.12-.39a17 17 0 0 1 .6-1.62 1 1 0 0 1 .06-.15c.25-.57.54-1.13.84-1.68.08-.13.16-.27.24-.41.29-.48.6-.96.93-1.42a16.79 16.79 0 0 1 1.33-1.63c.08-.08.15-.16.23-.24q.61-.644 1.29-1.21c.07-.05.13-.1.2-.15q.692-.566 1.46-1.02c.25-.14.5-.25.74-.36.14-.05.27-.1.4-.15.16-.05.32-.1.48-.14q.188-.057.38-.09.234-.045.47-.06l.36-.03c.15 0 .3 0 .44.01.12.01.23.01.34.02.15.02.29.04.43.07l.3.06q.225.06.42.12c.09.03.18.05.26.08q.075.034.15.06l2.04 1.18v.01l.06.03c.089.05.19.071.29.06a.5.5 0 0 0 .11-.03.6.6 0 0 0 .18-.05 1 1 0 0 0 .08-.04q.23-.136.4-.34c.01 0 .01 0 .01-.01.129-.14.237-.3.32-.47.19-.36.42-.8.67-1.25.07-.12.15-.26.22-.4.21-.36.44-.75.68-1.14.09-.15.17-.29.26-.44.34-.52.69-1.06 1.07-1.59.05-.07.11-.14.16-.21.33-.45.68-.89 1.04-1.31.22-.26.45-.52.68-.76a1 1 0 0 1 .13-.14q.457-.48.97-.9c.08-.07.16-.13.23-.19q.502-.4 1.05-.73c.26-.15.52-.28.77-.4q.601-.28 1.24-.45l.2-.06a5.6 5.6 0 0 1 1.12-.16 1 1 0 0 1 .19-.01q.523-.01 1.03.11a.5.5 0 0 1 .13.04c.333.082.653.21.95.38l-9.01-5.1a4 4 0 0 0-.96-.38.5.5 0 0 0-.13-.04 4.3 4.3 0 0 0-1.03-.11 1 1 0 0 0-.19.01 5.6 5.6 0 0 0-1.12.16l-.2.06a7.5 7.5 0 0 0-1.253.457l-.016.002c-.24.12-.49.25-.74.39q-.55.33-1.05.73c-.07.06-.15.12-.23.19q-.515.42-.97.9a1 1 0 0 0-.13.14c-.17.17-.33.34-.49.53-.07.07-.12.15-.19.23-.36.42-.71.86-1.04 1.31-.05.07-.11.14-.16.21-.38.53-.73 1.07-1.07 1.59-.09.15-.17.29-.26.44-.24.4-.47.78-.68 1.15-.08.13-.15.26-.22.4-.25.45-.48.88-.67 1.24a2.1 2.1 0 0 1-.33.48q-.172.204-.4.34a.9.9 0 0 1-.26.09.4.4 0 0 1-.11.03h-.02l-1.33-.78c-.18-.1-.36-.2-.56-.29a7.384 7.384 0 0 0-.62-.26 3 3 0 0 0-.27-.09q-.201-.06-.42-.12l-.3-.06c-.14-.02-.28-.05-.43-.07-.11-.01-.22-.01-.34-.02-.14-.01-.29-.01-.44-.01l-.36.03q-.237.015-.47.06a3 3 0 0 0-.38.09c-.16.04-.32.09-.48.14-.13.05-.26.1-.4.15q-.106.054-.22.09c-.17.08-.34.17-.52.27q-.769.454-1.46 1.02c-.07.05-.13.1-.2.15q-.682.566-1.29 1.21c-.08.08-.15.16-.23.24-.09.1-.18.19-.27.29a21 21 0 0 0-1.06 1.34c-.33.46-.64.94-.93 1.42-.08.14-.16.28-.24.41a19 19 0 0 0-.84 1.68 1 1 0 0 0-.06.15q-.342.795-.6 1.62l-.12.39q-.25.849-.4 1.72l-.03.29c-.04.27-.09.53-.11.79-.02.321-.03.631-.03.941"/><path fill="#2b1f51" d="M30.931 44.898a.5.5 0 0 0 .258-.928c-3.422-2.065-9.488-6.258-11.661-11.146a6.55 6.55 0 0 1-.777-3.336 10 10 0 0 1 .134-1.654l.03-.282q.144-.842.385-1.662l.118-.385a17 17 0 0 1 .58-1.568c0-.007.04-.107.043-.114.228-.515.482-1.021.839-1.676.07-.111.153-.257.236-.4.306-.508.6-.962.9-1.376q.049-.078.107-.15.553-.75 1.186-1.434l.215-.224q.59-.627 1.254-1.177l.176-.132q.67-.55 1.417-.992c.2-.111.4-.205.6-.3l.094-.043c.091-.03.213-.077.334-.123.159-.052.309-.1.46-.137a3 3 0 0 1 .34-.081q.209-.04.419-.054l.37-.032c.1 0 .234 0 .363.01l.33.02c.117.016.244.034.371.06l.308.063c.11.03.246.069.37.108l.23.07q.061.028.126.053l1.918 1.11a1.02 1.02 0 0 0 .722.206q.099-.014.194-.045a.9.9 0 0 0 .27-.085l.106-.054q.294-.173.517-.433l.012-.011q.241-.265.4-.586l.1-.192c.166-.314.355-.673.558-1.038.069-.12.154-.27.23-.418.193-.331.421-.716.659-1.1l.315-.525c.317-.485.643-.985.995-1.477l.162-.212c.318-.432.66-.862 1.012-1.273.215-.255.439-.507.66-.74l.084-.1q.459-.48.973-.9l.238-.2q.465-.37.973-.676c.25-.145.5-.269.739-.384a7 7 0 0 1 1.155-.42l.12-.034a5 5 0 0 1 1.082-.166 1 1 0 0 1 .176-.011q.46-.005.909.1.06.025.123.038.394.098.754.288l.078.044a.5.5 0 0 0 .5-.866l-.093-.053L38.803.612a4.4 4.4 0 0 0-1.038-.418 1 1 0 0 0-.2-.058 3.4 3.4 0 0 0-1.4-.1q-.583.022-1.15.166l-.132.039a8.5 8.5 0 0 0-1.379.492 1 1 0 0 0-.069.029q-.369.184-.76.4-.58.346-1.11.769l-.253.209q-.534.435-1.006.936a.8.8 0 0 0-.148.159c-.152.148-.32.329-.49.53a1.4 1.4 0 0 0-.124.147l-.064.08a24 24 0 0 0-1.064 1.34l-.162.213c-.354.494-.681.994-1 1.481l-.441.731q-.318.524-.6 1.013-.118.192-.232.424c-.242.434-.474.868-.665 1.23q-.102.205-.255.374a1.1 1.1 0 0 1-.28.244.3.3 0 0 1-.062.023l-1.158-.678a9 9 0 0 0-.78-.394c-.21-.09-.347-.147-.484-.2a2 2 0 0 0-.21-.072 14 14 0 0 0-.52-.151l-.536-.1a6 6 0 0 0-.256-.041l-.364-.022c-.16-.012-.321-.012-.483-.012l-.4.031a4 4 0 0 0-.523.067 4 4 0 0 0-.434.1c-.136.034-.3.084-.46.134l-.441.164v.54l-.166-.471a1 1 0 0 0-.1.039c-.18.085-.36.18-.55.285a12 12 0 0 0-1.531 1.069l-.177.132q-.72.593-1.361 1.272l-.51.54a21 21 0 0 0-1.1 1.39c-.31.433-.622.908-.946 1.446q-.123.219-.237.406a19 19 0 0 0-.868 1.729q-.038.074-.062.153-.354.825-.621 1.68l-.121.394q-.26.879-.415 1.78l-.07.538c-.031.2-.061.395-.077.59-.021.337-.031.658-.031.979a7.45 7.45 0 0 0 .889 3.79c2.44 5.494 5.539 7.633 9.039 9.672l12.02 6.98a.5.5 0 0 0 .256.074m-1.98-30.4-.4.033q-.263.016-.521.066a4 4 0 0 0-.435.1 9 9 0 0 0-.481.142l-.551.214c-.224.1-.454.207-.685.336q-.805.476-1.53 1.067l-.177.133q-.719.594-1.36 1.27l-.222.233a17 17 0 0 0-1.251 1.51q-.076.096-.141.2-.45.632-.942 1.439-.124.218-.238.406c-.385.7-.65 1.235-.872 1.742a.7.7 0 0 0-.06.147 18 18 0 0 0-.619 1.674l-.121.392q-.259.878-.414 1.782l-.036.327c-.098.59-.145 1.189-.142 1.788a7.47 7.47 0 0 0 .887 3.782 19.5 19.5 0 0 0 4.645 6.1l-4.121-2.393c-3.466-2.02-6.3-3.983-8.654-9.261a6.55 6.55 0 0 1-.777-3.336c0-.3.01-.6.029-.908.013-.164.04-.332.068-.5l.07-.56q.146-.822.383-1.625l.118-.386q.25-.8.58-1.57l.042-.111a.4.4 0 0 0 .047-.107c.219-.494.467-.985.79-1.566.072-.116.155-.262.237-.407a23 23 0 0 1 1.008-1.527c.309-.41.61-.791.924-1.153l.473-.5q.591-.627 1.255-1.178l.174-.13q.672-.552 1.42-.994.24-.136.481-.25.133-.04.255-.108l.29-.1c.177-.057.321-.1.464-.138a3 3 0 0 1 .34-.081q.208-.042.419-.054l.37-.031c.1 0 .236 0 .364.01l1.007.142c.114.03.247.069.37.108q.111.027.216.068c.154.057.273.108.393.159l.207.092c.2.092.372.186.54.28l1.32.774a.69.69 0 0 0 .535.015 1.2 1.2 0 0 0 .352-.13c.203-.119.384-.272.536-.451q.24-.263.4-.582c.183-.348.413-.774.66-1.22.074-.146.136-.264.209-.382.19-.335.388-.664.594-1.007l.423-.7c.31-.474.628-.964.973-1.444l.16-.211c.319-.435.662-.865 1.014-1.275l.1-.12a8.42 8.42 0 0 1 .557-.611l.089-.1q.46-.48.974-.9l.24-.2q.465-.369.972-.673c.23-.129.463-.25.687-.363l.05-.022a7 7 0 0 1 1.158-.42l.114-.034c.355-.095.72-.15 1.087-.167a1 1 0 0 1 .176-.011q.46-.006.909.1.06.024.123.038.443.112.842.332l6.5 3.678q-.392.048-.776.14l-.126.037a8.5 8.5 0 0 0-1.413.508c-.263.127-.535.262-.806.418q-.58.346-1.106.768l-.253.209q-.53.435-1 .934a1 1 0 0 0-.153.166c-.211.218-.448.486-.675.754-.366.427-.723.876-1.061 1.336l-.164.216c-.36.5-.7 1.015-1.02 1.51l-.332.554c-.24.388-.47.78-.682 1.145-.08.157-.156.287-.221.4-.212.382-.4.748-.574 1.068l-.107.2a1.6 1.6 0 0 1-.268.39q-.115.137-.268.23l-.1.03-.053.014-.06-.016-.012-.007-2.041-1.18a.5.5 0 0 0-.151-.057.2.2 0 0 0-.09-.044 2 2 0 0 0-.167-.053l-.1-.031a11 11 0 0 0-.438-.125l-.333-.068a6 6 0 0 0-.461-.075l-.366-.023c-.167-.03-.33-.03-.493-.03m-4.225-3.044.02.124-.037-.1zm-.065-.355-.01.239-.09-.225a.3.3 0 0 1 .1-.014"/><path fill="#d4e6fc" d="M9.235 24.388a7 7 0 0 0 .82 3.54c2.35 5.28 5.22 7.37 8.86 9.49l12.02 6.98c-3.73-2.25-9.66-6.42-11.86-11.37a7 7 0 0 1-.82-3.54q-.004-.871.14-1.73l.03-.29q.15-.87.4-1.72l.12-.39a17 17 0 0 1 .6-1.62 1 1 0 0 1 .06-.15c.25-.57.54-1.13.84-1.68.08-.13.16-.27.24-.41.29-.48.6-.96.93-1.42a16.771 16.771 0 0 1 1.33-1.63c.08-.08.15-.16.23-.24a15 15 0 0 1 1.29-1.21c.07-.05.13-.1.2-.15q.691-.565 1.46-1.02c.25-.14.5-.25.74-.36.14-.05.27-.1.4-.15.16-.05.32-.1.48-.14q.186-.057.38-.09.233-.045.47-.06l.36-.03c.15 0 .3 0 .44.01.12.01.23.01.34.02.15.02.29.04.43.07l.3.06q.225.06.42.12c.09.03.18.05.26.08q.073.035.15.06l-6.65-3.82-1.33-.78c-.18-.1-.36-.2-.56-.29a7.384 7.384 0 0 0-.62-.26 3 3 0 0 0-.27-.09q-.201-.06-.42-.12l-.3-.06c-.14-.02-.28-.05-.43-.07-.11-.01-.22-.01-.34-.02-.14-.01-.29-.01-.44-.01l-.36.03q-.237.015-.47.06a3 3 0 0 0-.38.09c-.16.04-.32.09-.48.14-.13.05-.26.1-.4.15a1.5 1.5 0 0 1-.22.09c-.17.08-.34.17-.52.27q-.769.455-1.46 1.02c-.07.05-.13.1-.2.15q-.682.567-1.29 1.21c-.08.08-.15.16-.23.24-.09.1-.18.19-.27.29a22 22 0 0 0-1.06 1.34c-.33.46-.64.94-.93 1.42-.08.14-.16.28-.24.41a19 19 0 0 0-.84 1.68 1 1 0 0 0-.06.15q-.342.795-.6 1.62l-.12.39q-.25.85-.4 1.72l-.03.29c-.04.27-.09.53-.11.79-.02.32-.03.63-.03.94"/><path fill="#2b1f51" d="M30.933 44.898a.5.5 0 0 0 .258-.928c-3.422-2.065-9.488-6.258-11.661-11.146a6.55 6.55 0 0 1-.777-3.336 10 10 0 0 1 .134-1.654l.03-.282q.144-.842.385-1.662l.118-.385q.25-.8.582-1.568c0-.007.039-.107.04-.114.229-.515.483-1.021.84-1.676.07-.111.153-.257.236-.4.306-.508.6-.962.9-1.376a16.447 16.447 0 0 1 1.293-1.584l.215-.224q.59-.627 1.254-1.177l.176-.132q.67-.55 1.417-.992c.2-.111.4-.205.6-.3l.094-.043c.09-.03.213-.077.334-.123.159-.052.309-.1.46-.137q.168-.052.34-.081.209-.042.419-.054l.37-.032c.1 0 .234 0 .363.01l.33.02c.117.016.244.034.37.06l.309.063c.11.03.246.069.37.108l.23.07q.11.054.229.082a.5.5 0 0 0 .348-.924l-7.977-4.6a9 9 0 0 0-.78-.394c-.21-.09-.347-.147-.484-.2a2 2 0 0 0-.21-.072 14 14 0 0 0-.52-.151l-.536-.1a6 6 0 0 0-.256-.041l-.364-.022c-.16-.012-.321-.012-.483-.012l-.4.03q-.264.018-.523.068a4 4 0 0 0-.434.1c-.136.034-.3.084-.46.134l-.441.164-.163.069a1 1 0 0 0-.1.039c-.18.085-.36.18-.55.285q-.807.475-1.531 1.069l-.177.132q-.721.593-1.361 1.272l-.51.54a21 21 0 0 0-1.1 1.39 21 21 0 0 0-.946 1.446q-.123.219-.237.406a19 19 0 0 0-.868 1.729q-.038.074-.062.153-.354.824-.621 1.68l-.121.394q-.26.877-.415 1.78l-.07.538c-.031.2-.061.395-.077.59-.021.337-.031.658-.031.979a7.45 7.45 0 0 0 .889 3.79c2.44 5.494 5.539 7.633 9.039 9.672l12.02 6.98a.5.5 0 0 0 .254.08M28.72 14.516l-.17.014q-.261.016-.52.066a4 4 0 0 0-.435.1 9 9 0 0 0-.481.142l-.551.214c-.224.1-.454.207-.685.336q-.806.475-1.53 1.067l-.177.133q-.72.594-1.36 1.27l-.222.233q-.669.719-1.251 1.51-.076.095-.141.2-.45.632-.942 1.439-.124.218-.238.406c-.385.7-.65 1.235-.872 1.742a.7.7 0 0 0-.06.147 18 18 0 0 0-.62 1.674l-.12.392q-.26.878-.414 1.782l-.036.327c-.098.59-.146 1.189-.142 1.788a7.47 7.47 0 0 0 .887 3.782 19.55 19.55 0 0 0 4.645 6.1l-4.121-2.393c-3.466-2.02-6.3-3.983-8.654-9.261a6.55 6.55 0 0 1-.777-3.336q0-.448.029-.908c.013-.164.04-.332.068-.5l.07-.56q.146-.824.383-1.625l.118-.386q.25-.8.58-1.57l.042-.111a.5.5 0 0 0 .047-.107c.219-.494.467-.985.79-1.566.072-.116.155-.262.237-.407a23 23 0 0 1 1.008-1.527c.309-.41.61-.791.924-1.153l.473-.5q.591-.628 1.255-1.178l.174-.13q.672-.552 1.42-.994a8 8 0 0 1 .48-.25 1.3 1.3 0 0 0 .256-.108l.29-.1c.177-.057.32-.1.464-.138q.168-.053.34-.081.208-.042.419-.054l.37-.031c.1 0 .236 0 .364.01l1.007.142c.114.03.247.069.37.108q.111.026.216.068c.154.057.273.108.393.159l.207.092c.2.092.372.186.54.28z"/><path fill="#2b1f51" d="M24.173 54.599s-4.6 4.842-13.458-.058c-3.469-1.92-6.3-3.522-8.469-4.761a3.47 3.47 0 0 1-.055-5.992l15.982-9.557 3.315 11.252z"/><path fill="#2b1f51" d="M18.216 57.247a8.93 8.93 0 0 0 6.322-2.308.5.5 0 0 0 .117-.486l-6-20.367a.5.5 0 0 0-.737-.288L1.936 43.356a3.97 3.97 0 0 0 .063 6.854 675 675 0 0 0 8.476 4.765 16 16 0 0 0 7.74 2.272m5.393-2.807c-.96.827-5.181 3.792-12.65-.34a740 740 0 0 1-8.462-4.753 2.97 2.97 0 0 1-.046-5.127l15.428-9.227z"/><path fill="#fff" d="M18.924 34.706a11.38 11.38 0 0 0-5.164 8.953c-.026.807.16 1.607.537 2.32 2.127 4.76 9.493 8.423 9.881 8.616.36-.61 7.193-12.19 9.567-19.366a9.5 9.5 0 0 0 .755-3.544c-.009-3.294-2.339-4.622-5.206-2.967-2.087 1.206-3.874 4.335-4.7 5.94-.105.22-.27.407-.476.537a.41.41 0 0 1-.478.014 4.08 4.08 0 0 0-4.716-.503"/><path fill="#2b1f51" d="M24.176 55.095a.5.5 0 0 0 .43-.25c.736-1.248 7.268-12.385 9.61-19.464a9.9 9.9 0 0 0 .781-3.7 4.1 4.1 0 0 0-1.773-3.765 4.14 4.14 0 0 0-4.183.367c-2.158 1.246-3.99 4.386-4.89 6.147a.8.8 0 0 1-.276.327 4.58 4.58 0 0 0-5.2-.486 11.96 11.96 0 0 0-5.415 9.388c-.027.894.18 1.779.6 2.567 2.12 4.75 9.282 8.412 10.092 8.814a.5.5 0 0 0 .224.055m7.445-26.59c.387-.007.769.09 1.106.28a3.16 3.16 0 0 1 1.272 2.9 9 9 0 0 1-.718 3.353c-2.144 6.477-8.019 16.7-9.3 18.894-1.71-.9-7.436-4.138-9.233-8.159a4.2 4.2 0 0 1-.493-2.117 10.85 10.85 0 0 1 4.915-8.519 3.59 3.59 0 0 1 4.16.463.9.9 0 0 0 1.04.026 1.8 1.8 0 0 0 .67-.743c.85-1.66 2.565-4.616 4.5-5.733a4.26 4.26 0 0 1 2.081-.646"/><path fill="#fff" d="M7.841 40.317c-.02.806.166 1.605.54 2.32a12.22 12.22 0 0 0 5.81 6.22l7.88 4.57c-2.45-1.46-6.33-4.2-7.78-7.45a4.63 4.63 0 0 1-.53-2.32q.002-.569.09-1.13c.01-.06.01-.13.02-.19q.096-.574.26-1.13c.03-.08.05-.17.08-.25.11-.36.24-.71.39-1.07a.4.4 0 0 0 .04-.09c.17-.37.35-.74.56-1.1l.15-.27c.19-.32.4-.63.61-.93l.09-.12q.362-.499.78-.95c.05-.05.1-.11.15-.16q.404-.42.85-.79.062-.055.13-.1.455-.373.96-.67c.17-.09.33-.16.49-.23q.127-.06.26-.1c.1-.04.21-.07.31-.1s.17-.04.25-.05q.154-.036.31-.04.114-.018.23-.02.146-.008.29 0c.08.01.15.01.22.02.1.01.19.03.29.04q.1.028.2.04.138.032.27.08c.06.02.12.04.17.06a.3.3 0 0 1 .1.04l1.33.76v.01l.04.02c.06.038.131.052.2.04a.3.3 0 0 0 .07-.02.5.5 0 0 0 .11-.03l.06-.03q.149-.089.26-.22a.01.01 0 0 0 .01-.01q.124-.143.21-.31c.12-.23.27-.52.43-.81.05-.09.1-.18.15-.26.14-.24.29-.5.44-.75.06-.1.12-.19.18-.29.22-.35.45-.7.7-1.04a15.15 15.15 0 0 1 .78-1c.15-.17.3-.34.45-.5a1 1 0 0 1 .08-.09q.302-.315.64-.59.072-.07.15-.13c.23-.17.46-.34.69-.48.17-.09.34-.18.5-.26q.4-.18.82-.3c.04-.01.08-.02.13-.03q.36-.09.73-.11h.13q.34-.005.67.07.047.002.09.02.326.084.62.25l-5.91-3.34a2.6 2.6 0 0 0-.62-.25l-.09-.03a3 3 0 0 0-.67-.06h-.13q-.376.012-.74.11c-.04.01-.08.02-.13.03q-.418.115-.81.3c-.01 0-.01 0-.02.01-.16.07-.32.16-.48.25q-.36.216-.69.48l-.15.12c-.22.18-.43.38-.64.59l-.09.09c-.1.12-.21.23-.32.35l-.12.15c-.24.28-.46.57-.68.86a.8.8 0 0 1-.11.14c-.25.35-.48.7-.7 1.05-.06.09-.11.19-.17.28-.16.26-.31.51-.44.75l-.15.27c-.16.29-.32.57-.44.81a1.5 1.5 0 0 1-.21.32 1 1 0 0 1-.26.22 1 1 0 0 1-.18.06c-.02 0-.04.02-.06.02l-.02-.01-.87-.5c-.12-.07-.24-.14-.37-.2-.04-.02-.09-.03-.13-.05-.09-.04-.18-.08-.28-.12-.06-.02-.11-.03-.17-.05a2 2 0 0 0-.28-.08 1 1 0 0 0-.2-.04c-.09-.02-.18-.03-.28-.05-.07 0-.14-.01-.22-.01-.1 0-.19-.01-.29-.01-.08.01-.16.01-.24.02-.1.01-.2.02-.3.04s-.17.04-.25.06l-.32.09c-.08.03-.17.07-.26.1a1 1 0 0 1-.14.06q-.178.075-.34.18a9 9 0 0 0-.96.66c-.05.04-.09.07-.13.1q-.45.372-.85.8c-.05.05-.1.1-.15.16l-.18.18c-.21.25-.41.5-.61.77a1 1 0 0 0-.08.12c-.22.3-.42.61-.61.93-.05.09-.11.17-.16.27-.19.35-.38.7-.54 1.06 0 .01-.01.03-.01.04a.4.4 0 0 0-.04.09q-.223.525-.39 1.07-.048.122-.08.25a9 9 0 0 0-.29 1.32c-.02.17-.05.35-.06.52-.02.2-.03.41-.03.61"/><path fill="#2b1f51" d="M22.071 53.927a.5.5 0 0 0 .256-.93c-2.216-1.32-6.148-4.015-7.578-7.224a4.17 4.17 0 0 1-.488-2.117q.003-.529.084-1.052c0-.013.014-.12.015-.135q.088-.57.252-1.124c.007-.014.022-.066.037-.118 0-.01.038-.115.041-.125a11 11 0 0 1 .427-1.15c.141-.3.314-.658.515-1l.13-.23c.2-.345.406-.645.61-.935l.058-.078q.359-.495.773-.943l.076-.082q.412-.435.872-.818l-.227-.459.336.375q.43-.355.911-.639c.133-.07.275-.132.415-.193q.116-.056.237-.093a2.6 2.6 0 0 1 .471-.13q.122-.03.247-.037c.12-.01.174-.019.23-.019q.09-.006.182 0h.108l.285.033.127.02q.114.028.23.042c.027.007.094.031.163.053l.162.057 1.294.728a.5.5 0 0 0 .1.064.78.78 0 0 0 .533.108q.171-.039.335-.1c.174-.089.33-.21.461-.355l.02-.023q.167-.191.282-.418l.054-.1c.106-.206.232-.447.365-.688.061-.106.1-.175.138-.237l.056-.1.567-.95c.21-.332.433-.672.675-1l-.32-.415.4.3c.235-.32.458-.6.68-.862.14-.159.288-.325.434-.482.01-.01.037-.043.055-.064l.022-.022q.283-.293.6-.549.07-.067.147-.127c.211-.156.423-.313.636-.442.17-.089.322-.169.464-.24q.36-.161.738-.268l.1-.023q.312-.081.635-.1h.108q.28-.003.554.057.057.015.116.014.217.075.421.18l.043.025a.5.5 0 1 0 .5-.867l-.054-.03-5.862-3.314a3 3 0 0 0-.735-.3l-.127-.039a3.5 3.5 0 0 0-.786-.068h-.108q-.441.012-.869.127l-.1.023a5.6 5.6 0 0 0-.92.336l-.02.011c-.172.075-.342.17-.513.266a7 7 0 0 0-.754.523l-.079.063-.079.063c-.233.191-.456.4-.678.624l-.12.124c-.06.074-.127.142-.194.213l-.11.118-.082.1c-.3.35-.523.648-.749.946-.017.018-.1.13-.118.151-.256.358-.49.716-.716 1.074-.029.043-.063.1-.1.16l-.067.11c-.173.282-.329.541-.462.79l-.277.5c-.118.213-.23.416-.32.6a1 1 0 0 1-.137.21 1 1 0 0 1-.084.082l-.683-.393a5 5 0 0 0-.41-.22c-.017-.009-.1-.04-.118-.046l-.315-.134a3 3 0 0 0-.14-.044 4 4 0 0 0-.4-.113 1.3 1.3 0 0 0-.219-.043l-.149-.027-.278-.033c-.049 0-.1-.007-.153-.007l-.29-.009-.149.01q-.074.002-.155.014-.168.014-.334.046l-.89.266a.5.5 0 0 0-.1.045 2.7 2.7 0 0 0-.493.247 9 9 0 0 0-1 .687l-.108.083q-.495.404-.93.871-.09.087-.17.181l-.149.145c-.247.29-.452.548-.658.827-.012.015-.067.1-.076.112a12 12 0 0 0-.643.98l-.06.1a13.962 13.962 0 0 0-.667 1.283l-.023.06a1 1 0 0 0-.046.12q-.225.526-.392 1.077-.058.14-.09.29-.169.572-.262 1.161l-.05.36a5 5 0 0 0-.045.4c-.02.2-.03.424-.03.641-.021.893.188 1.776.606 2.564a12.65 12.65 0 0 0 5.992 6.4l7.88 4.57a.5.5 0 0 0 .247.073m-1.62-20.236q-.16.009-.315.045-.11.015-.217.042l-.13.034c-.1.03-.207.062-.3.1q-.156.047-.3.116a8 8 0 0 0-.5.235 8 8 0 0 0-1.042.724q-.093.06-.173.14-.448.37-.852.791l-.084.09-.078.083q-.438.476-.817 1l-.085.113c-.224.32-.44.64-.637.97l-.156.28a13 13 0 0 0-.625 1.243q-.231.548-.407 1.117c-.009.021-.026.077-.043.133 0 .011-.035.112-.039.123q-.172.586-.274 1.19c0 .013-.013.123-.015.137q-.097.628-.1 1.262c-.03.895.177 1.781.6 2.57a11.6 11.6 0 0 0 2.14 3.1l-1.557-.9a11.7 11.7 0 0 1-5.605-5.992 4.3 4.3 0 0 1-.5-2.118q0-.28.028-.559c.007-.124.023-.235.038-.344l.047-.327q.088-.546.248-1.078.026-.11.067-.213.163-.536.382-1.05a.5.5 0 0 0 .067-.168c.148-.326.32-.643.491-.959.04-.076.064-.114.087-.15l.082-.137c.175-.293.367-.59.577-.877.01-.014.054-.083.063-.1.21-.28.4-.523.606-.765l.15-.147c.071-.082.111-.122.15-.16q.383-.41.817-.769l.124-.1a8 8 0 0 1 .895-.616q.135-.088.284-.152.077-.026.15-.062.076-.028.148-.058l.587-.163c.073-.015.157-.022.24-.03l.252-.022.621.061q.075.01.15.027.142.031.28.08c.01 0 .105.031.114.033l.27.11.135.053c.122.055.225.116.33.175l.881.508a.58.58 0 0 0 .467.037l.02-.006q.125-.03.243-.086c.156-.087.296-.2.412-.336q.17-.195.283-.427c.086-.172.192-.362.3-.56l.252-.455c.154-.285.3-.527.455-.778.026-.038.058-.094.09-.149l.07-.115c.222-.354.448-.7.692-1.038a1 1 0 0 0 .131-.174c.183-.238.4-.52.63-.792l.071-.088.14-.157c.08-.087.161-.172.235-.26.257-.254.454-.443.662-.613l.141-.113q.3-.243.633-.442c.141-.079.284-.16.43-.224l.032-.016q.352-.165.727-.269l.124-.029a2.8 2.8 0 0 1 .637-.1h.11q.29-.01.575.051.29.078.553.221l3.856 2.18-.052.011-.115.027q-.477.132-.928.336-.243.122-.479.248-.405.244-.782.531a3 3 0 0 0-.22.187 7 7 0 0 0-.736.692c-.152.164-.3.337-.458.51a15 15 0 0 0-.709.9q-.07.088-.128.184c-.229.305-.466.666-.693 1.026l-.58.971c-.087.144-.132.226-.179.308-.162.293-.29.542-.4.754l-.058.111a1 1 0 0 1-.133.2l-.018.02a.5.5 0 0 1-.127.112h-.01l-1.31-.748a.7.7 0 0 0-.225-.09 3.421 3.421 0 0 0-.456-.143 1 1 0 0 1-.15-.028.5.5 0 0 0-.109-.023l-.288-.04a2 2 0 0 0-.127-.01c-.02 0-.123-.012-.144-.012a3 3 0 0 0-.34 0 2 2 0 0 0-.249.022zm-2.564-2.247v.002z"/><path fill="#d4e6fc" d="M7.841 40.316c-.02.807.166 1.606.54 2.32a12.22 12.22 0 0 0 5.81 6.22l7.88 4.57c-2.45-1.46-6.33-4.2-7.78-7.45a4.63 4.63 0 0 1-.53-2.32q.002-.568.09-1.13c.01-.06.01-.13.02-.19q.096-.572.26-1.13c.03-.08.05-.17.08-.25.11-.36.24-.71.39-1.07a.4.4 0 0 0 .04-.09c.17-.37.35-.74.56-1.1l.15-.27c.19-.32.4-.63.61-.93l.09-.12q.362-.498.78-.95c.05-.05.1-.11.15-.16q.404-.417.85-.79.062-.054.13-.1.455-.371.96-.67c.17-.09.33-.16.49-.23a2 2 0 0 1 .26-.1c.1-.04.21-.07.31-.1s.17-.04.25-.05q.154-.035.31-.04.114-.017.23-.02.146-.008.29 0c.08.01.15.01.22.02.1.01.19.03.29.04q.1.03.2.04.138.035.27.08c.06.02.12.04.17.06q.055.012.1.04l-4.34-2.51-.02-.01-.87-.5c-.12-.07-.24-.14-.37-.2-.04-.02-.09-.03-.13-.05a8 8 0 0 0-.28-.12c-.06-.02-.11-.03-.17-.05a2 2 0 0 0-.28-.08 1 1 0 0 0-.2-.04c-.09-.02-.18-.03-.28-.05-.07 0-.14-.01-.22-.01-.1 0-.19-.01-.29-.01-.08.01-.16.01-.24.02-.1.01-.2.02-.3.04s-.17.04-.25.06l-.32.09c-.08.03-.17.07-.26.1a1 1 0 0 1-.14.06q-.178.075-.34.18a9 9 0 0 0-.96.66c-.05.04-.09.07-.13.1q-.45.374-.85.8c-.05.05-.1.1-.15.16l-.18.18c-.21.25-.41.5-.61.77a1 1 0 0 0-.08.12c-.22.3-.42.61-.61.93-.05.09-.11.17-.16.27-.19.35-.38.7-.54 1.06 0 .01-.01.03-.01.04a.4.4 0 0 0-.04.09q-.223.525-.39 1.07-.048.123-.08.25a9 9 0 0 0-.29 1.32c-.02.17-.05.35-.06.52-.02.2-.03.41-.03.61"/><path fill="#2b1f51" d="M22.07 53.927a.5.5 0 0 0 .256-.93c-2.216-1.32-6.148-4.015-7.578-7.224a4.17 4.17 0 0 1-.487-2.117q.002-.529.084-1.052c0-.013.013-.12.014-.135q.088-.57.252-1.124c.007-.014.022-.066.037-.118 0-.01.039-.115.042-.125a11 11 0 0 1 .427-1.15c.14-.3.313-.658.515-1l.13-.23c.2-.345.406-.645.61-.935l.058-.078q.357-.495.773-.943l.076-.082q.411-.435.872-.818l-.227-.459.335.375q.431-.355.912-.639c.133-.07.274-.132.415-.193q.114-.055.237-.093a2.6 2.6 0 0 1 .47-.13q.122-.03.248-.037c.119-.01.174-.019.23-.019q.09-.006.181 0h.108l.286.033.127.02q.113.028.23.042c.027.007.094.03.163.053l.162.057.006-.008.027.015a.5.5 0 1 0 .465-.885l-5.2-3a5 5 0 0 0-.41-.22c-.017-.009-.1-.04-.117-.046l-.316-.134a3 3 0 0 0-.14-.044 4 4 0 0 0-.4-.113 1.3 1.3 0 0 0-.218-.043l-.15-.027-.277-.033c-.05 0-.1-.007-.153-.007l-.29-.009-.15.01q-.074.002-.155.014a3 3 0 0 0-.334.046l-.89.266a.5.5 0 0 0-.1.045 2.7 2.7 0 0 0-.493.247 9 9 0 0 0-1 .687l-.107.083q-.496.405-.931.871a2 2 0 0 0-.17.181l-.149.145c-.246.29-.451.548-.657.827-.012.015-.067.1-.076.112a12 12 0 0 0-.643.98l-.06.1q-.06.091-.117.2c-.2.363-.389.717-.55 1.083l-.023.06a1 1 0 0 0-.046.12q-.226.526-.393 1.077-.057.14-.09.29-.17.57-.265 1.158l-.051.36a5 5 0 0 0-.044.4c-.02.2-.031.424-.031.641-.021.893.188 1.776.606 2.564a12.65 12.65 0 0 0 5.993 6.4l7.88 4.57a.5.5 0 0 0 .261.068m-1.979-20.18a3 3 0 0 0-.172.035l-.131.034c-.1.03-.207.062-.3.1q-.155.047-.3.116a8 8 0 0 0-.5.235 8 8 0 0 0-1.041.724q-.094.06-.173.14-.45.37-.852.791l-.084.09-.079.083q-.437.476-.816 1l-.086.113c-.223.32-.44.64-.636.97l-.156.28a13 13 0 0 0-.626 1.243q-.231.548-.406 1.117a2 2 0 0 0-.043.133c0 .011-.035.112-.04.123q-.171.586-.274 1.19c0 .013-.012.123-.014.137q-.097.628-.1 1.262c-.03.895.177 1.781.6 2.57a11.6 11.6 0 0 0 2.14 3.1l-1.557-.9a11.7 11.7 0 0 1-5.605-5.992 4.3 4.3 0 0 1-.5-2.118q0-.28.027-.559c.007-.124.024-.235.039-.344l.047-.327q.087-.546.248-1.078.024-.109.067-.213.162-.535.382-1.05a.5.5 0 0 0 .066-.168c.149-.326.32-.643.492-.959.04-.076.063-.114.086-.15l.082-.137c.176-.293.367-.59.578-.877l.063-.1c.209-.28.4-.523.606-.765l.15-.147c.07-.082.11-.122.15-.16q.383-.411.816-.77l.124-.1q.428-.337.896-.616.135-.087.284-.152a1 1 0 0 0 .15-.063q.075-.027.148-.057l.587-.163c.072-.015.156-.022.24-.03l.252-.022.62.061q.077.01.152.027.141.032.278.08c.01 0 .106.031.114.033l.27.11c.015.006.12.048.136.053.122.055.225.116.329.175z"/></svg>