<svg width="1440" height="528" viewBox="0 0 1440 528" fill="none" xmlns="http://www.w3.org/2000/svg">
<mask id="mask0_1035_5633" style="mask-type:alpha" maskUnits="userSpaceOnUse" x="0" y="0" width="1440" height="528">
<path d="M1440 0H0V528H1440V0Z" fill="#092346"/>
</mask>
<g mask="url(#mask0_1035_5633)">
<mask id="mask1_1035_5633" style="mask-type:luminance" maskUnits="userSpaceOnUse" x="-189" y="86" width="1788" height="824">
<path d="M1599 86H-189V910H1599V86Z" fill="white"/>
</mask>
<g mask="url(#mask1_1035_5633)">
<mask id="mask2_1035_5633" style="mask-type:luminance" maskUnits="userSpaceOnUse" x="-40" y="86" width="1480" height="824">
<path d="M1440 86H-40V910H1440V86Z" fill="white"/>
</mask>
<g mask="url(#mask2_1035_5633)">
<path d="M199.718 698.356C199.718 698.356 200.519 221.477 199.052 215.354C197.586 209.231 193.176 212.086 193.176 212.086C191.516 222.109 179.717 216.646 169.854 218.018L102.678 257.287L73.3649 267.866L-20.2122 219.594L-18.0521 218.345C-26.0507 214.61 -30.6302 217.136 -34.9581 209.348L-41.2562 213.101L-45 214.155L-44.0573 698.695C-44.0573 702.857 -41.3131 707.017 -35.8253 710.181L53.7782 761.896L57.9235 764.288C68.8997 770.621 86.7618 770.621 97.7385 764.288L191.487 710.181C196.884 707.067 199.629 702.987 199.714 698.897C199.719 698.716 199.711 698.535 199.704 698.348L199.718 698.356Z" fill="url(#paint0_linear_1035_5633)"/>
<path d="M194.598 208.24L101.876 154.641C93.7655 149.953 84.5602 147.503 75.1975 147.541C65.8349 147.58 56.6497 150.105 48.578 154.859L-40.2917 207.201C-41.7281 208.047 -42.9184 209.255 -43.7444 210.705C-44.5704 212.155 -45.0033 213.796 -45 215.466C-44.9967 217.136 -44.5573 218.775 -43.7256 220.222C-42.8938 221.668 -41.6987 222.872 -40.259 223.712L54.3599 278.93C61.0474 282.832 68.6478 284.888 76.3867 284.888C84.1255 284.888 91.7259 282.832 98.4134 278.93L194.627 222.778C195.897 222.037 196.95 220.975 197.68 219.697C198.411 218.42 198.794 216.973 198.791 215.501C198.788 214.028 198.399 212.583 197.663 211.308C196.927 210.034 195.87 208.976 194.598 208.24Z" fill="url(#paint1_linear_1035_5633)"/>
<path d="M373.714 739.616C373.714 739.616 374.44 301.748 373.109 296.125C371.777 290.501 367.782 293.124 367.782 293.124C366.277 302.327 355.581 297.311 346.64 298.571L285.741 334.628L259.17 344.343L174.338 300.019L176.296 298.873C169.045 295.444 164.892 297.764 160.97 290.611L155.261 294.06L151.867 295.028L152.722 739.93C152.722 743.751 155.209 747.571 160.185 750.479L241.415 797.963L245.172 800.158C255.123 805.973 271.316 805.973 281.267 800.158L366.255 750.477C371.148 747.617 373.636 743.873 373.714 740.117C373.718 739.949 373.711 739.781 373.704 739.615L373.714 739.616Z" fill="url(#paint2_linear_1035_5633)"/>
<path d="M370.093 291.446L285.64 243.206C278.254 238.987 269.869 236.782 261.342 236.817C252.814 236.851 244.448 239.123 237.096 243.402L156.156 290.51C154.847 291.271 153.763 292.359 153.011 293.664C152.258 294.969 151.864 296.446 151.867 297.948C151.87 299.451 152.27 300.927 153.028 302.229C153.786 303.53 154.874 304.613 156.186 305.37L242.369 355.065C248.46 358.578 255.383 360.429 262.432 360.429C269.481 360.429 276.404 358.578 282.496 355.065L370.12 304.53C371.276 303.863 372.235 302.906 372.9 301.757C373.566 300.607 373.915 299.305 373.912 297.98C373.909 296.655 373.555 295.354 372.885 294.207C372.214 293.06 371.252 292.108 370.093 291.446Z" fill="url(#paint3_linear_1035_5633)"/>
<path d="M191.692 781.586C191.692 781.586 192.343 387.49 191.149 382.429C189.955 377.367 186.373 379.728 186.373 379.728C185.024 388.011 175.433 383.497 167.416 384.631L112.811 417.083L88.9864 425.827L12.9216 385.934L14.6776 384.903C8.17556 381.816 4.45248 383.905 0.935445 377.467L-4.18379 380.571L-7.22656 381.442L-6.46018 781.869C-6.46018 785.308 -4.22988 788.746 0.231257 791.363L73.0661 834.1L76.4354 836.076C85.3577 841.309 99.8768 841.309 108.8 836.076L185.004 791.361C189.391 788.787 191.622 785.417 191.692 782.037C191.695 781.885 191.689 781.734 191.683 781.585L191.692 781.586Z" fill="url(#paint4_linear_1035_5633)"/>
<path d="M188.445 377.587L112.721 333.527C106.098 329.674 98.5798 327.66 90.9336 327.692C83.2874 327.723 75.7861 329.799 69.1941 333.706L-3.3814 376.733C-4.55447 377.428 -5.52661 378.421 -6.20119 379.613C-6.87576 380.805 -7.22926 382.154 -7.22655 383.526C-7.22383 384.899 -6.86498 386.247 -6.1857 387.436C-5.50641 388.625 -4.53035 389.614 -3.35454 390.305L73.9213 435.695C79.3831 438.903 85.5907 440.593 91.9113 440.593C98.232 440.593 104.44 438.903 109.901 435.695L188.469 389.538C189.506 388.928 190.366 388.055 190.962 387.005C191.559 385.955 191.872 384.766 191.87 383.556C191.867 382.345 191.549 381.157 190.948 380.11C190.348 379.062 189.484 378.192 188.445 377.587Z" fill="url(#paint5_linear_1035_5633)"/>
<path d="M1216.46 658.008C1216.46 658.008 1215.68 190.39 1217.12 184.386C1218.55 178.382 1222.88 181.181 1222.88 181.181C1224.5 191.01 1236.07 185.653 1245.74 186.998L1311.59 225.505L1340.33 235.878L1432.06 188.543L1429.94 187.319C1437.78 183.657 1442.27 186.134 1446.52 178.496L1452.69 182.177L1456.36 183.21L1455.44 658.34C1455.44 662.421 1452.75 666.5 1447.37 669.602L1359.53 720.313L1355.46 722.659C1344.7 728.869 1327.19 728.869 1316.43 722.659L1224.53 669.602C1219.24 666.549 1216.55 662.549 1216.47 658.538C1216.46 658.36 1216.47 658.183 1216.48 657.999L1216.46 658.008Z" fill="url(#paint6_linear_1035_5633)"/>
<path d="M1221.79 177.844L1312.56 125.416C1320.5 120.83 1329.52 118.434 1338.68 118.471C1347.85 118.509 1356.84 120.978 1364.74 125.628L1451.75 176.828C1453.16 177.655 1454.32 178.837 1455.13 180.255C1455.94 181.673 1456.36 183.279 1456.36 184.912C1456.36 186.545 1455.93 188.149 1455.11 189.564C1454.3 190.979 1453.13 192.156 1451.72 192.977L1359.08 246.989C1352.54 250.806 1345.09 252.817 1337.52 252.817C1329.94 252.817 1322.5 250.806 1315.95 246.989L1221.76 192.064C1220.51 191.339 1219.48 190.3 1218.77 189.051C1218.05 187.801 1217.68 186.386 1217.68 184.946C1217.68 183.505 1218.06 182.091 1218.78 180.845C1219.5 179.598 1220.54 178.563 1221.79 177.844Z" fill="url(#paint7_linear_1035_5633)"/>
<path d="M1076.2 749.175C1076.2 749.175 1075.47 311.349 1076.81 305.726C1078.14 300.103 1082.15 302.725 1082.15 302.725C1083.66 311.927 1094.39 306.912 1103.36 308.172L1164.45 344.225L1191.11 353.939L1276.21 309.62L1274.25 308.474C1281.52 305.045 1285.69 307.365 1289.62 300.213L1295.35 303.662L1298.75 304.629L1297.9 749.49C1297.9 753.31 1295.4 757.129 1290.41 760.037L1208.92 807.517L1205.15 809.712C1195.17 815.526 1178.93 815.526 1168.94 809.712L1083.68 760.035C1078.78 757.176 1076.28 753.432 1076.2 749.676C1076.2 749.508 1076.2 749.34 1076.21 749.174L1076.2 749.175Z" fill="url(#paint8_linear_1035_5633)"/>
<path d="M1079.83 300.688L1164.56 252.395C1171.97 248.171 1180.38 245.964 1188.93 245.998C1197.49 246.033 1205.88 248.308 1213.25 252.591L1294.45 299.752C1295.76 300.514 1296.85 301.602 1297.61 302.909C1298.36 304.215 1298.76 305.694 1298.75 307.198C1298.75 308.702 1298.35 310.18 1297.59 311.483C1296.83 312.787 1295.74 313.871 1294.42 314.628L1207.96 364.379C1201.85 367.896 1194.91 369.749 1187.84 369.749C1180.77 369.749 1173.82 367.896 1167.71 364.379L1079.81 313.787C1078.65 313.119 1077.69 312.162 1077.02 311.011C1076.35 309.86 1076 308.556 1076 307.23C1076.01 305.904 1076.36 304.601 1077.03 303.453C1077.71 302.305 1078.67 301.351 1079.83 300.688Z" fill="url(#paint9_linear_1035_5633)"/>
<path d="M1262.39 782.844C1262.39 782.844 1261.75 397.236 1262.92 392.283C1264.1 387.331 1267.62 389.64 1267.62 389.64C1268.94 397.745 1278.37 393.328 1286.25 394.437L1339.9 426.191L1363.31 434.746L1438.06 395.713L1436.34 394.704C1442.72 391.683 1446.38 393.727 1449.84 387.428L1454.87 390.465L1457.86 391.317L1457.11 783.121C1457.11 786.486 1454.91 789.85 1450.53 792.41L1378.96 834.228L1375.65 836.161C1366.88 841.281 1352.61 841.281 1343.85 836.161L1268.96 792.409C1264.65 789.891 1262.46 786.593 1262.39 783.285C1262.39 783.137 1262.39 782.989 1262.4 782.843L1262.39 782.844Z" fill="url(#paint10_linear_1035_5633)"/>
<path d="M1265.58 387.547L1339.99 344.773C1346.5 341.032 1353.89 339.077 1361.4 339.108C1368.91 339.138 1376.29 341.153 1382.76 344.947L1454.08 386.718C1455.23 387.393 1456.19 388.357 1456.85 389.514C1457.51 390.671 1457.86 391.981 1457.86 393.313C1457.86 394.646 1457.5 395.954 1456.84 397.109C1456.17 398.263 1455.21 399.223 1454.05 399.894L1378.12 443.959C1372.75 447.074 1366.65 448.715 1360.44 448.715C1354.23 448.715 1348.13 447.074 1342.76 443.959L1265.56 399.149C1264.54 398.558 1263.69 397.71 1263.11 396.69C1262.52 395.671 1262.21 394.516 1262.22 393.341C1262.22 392.167 1262.53 391.013 1263.12 389.996C1263.71 388.979 1264.56 388.135 1265.58 387.547Z" fill="url(#paint11_linear_1035_5633)"/>
</g>
</g>
</g>
<defs>
<linearGradient id="paint0_linear_1035_5633" x1="-45" y1="69.4251" x2="361.75" y2="279.869" gradientUnits="userSpaceOnUse">
<stop stop-color="#3F4C7C"/>
<stop offset="1" stop-color="#353F64" stop-opacity="0"/>
</linearGradient>
<linearGradient id="paint1_linear_1035_5633" x1="-21.596" y1="136.004" x2="123.332" y2="349.184" gradientUnits="userSpaceOnUse">
<stop stop-color="#333C5E"/>
<stop offset="1" stop-color="#4D5A8A"/>
</linearGradient>
<linearGradient id="paint2_linear_1035_5633" x1="151.867" y1="162.134" x2="522.578" y2="351.497" gradientUnits="userSpaceOnUse">
<stop stop-color="#3F4C7C"/>
<stop offset="1" stop-color="#232D55"/>
</linearGradient>
<linearGradient id="paint3_linear_1035_5633" x1="173.183" y1="226.433" x2="303.039" y2="419.735" gradientUnits="userSpaceOnUse">
<stop stop-color="#485894"/>
<stop offset="1" stop-color="#333C5E"/>
</linearGradient>
<linearGradient id="paint4_linear_1035_5633" x1="-7.22656" y1="261.833" x2="325.688" y2="431.249" gradientUnits="userSpaceOnUse">
<stop stop-color="#3F4C7C"/>
<stop offset="1" stop-color="#232D55"/>
</linearGradient>
<linearGradient id="paint5_linear_1035_5633" x1="11.8867" y1="318.208" x2="131.304" y2="492.72" gradientUnits="userSpaceOnUse">
<stop stop-color="#485894"/>
<stop offset="1" stop-color="#333C5E"/>
</linearGradient>
<linearGradient id="paint6_linear_1035_5633" x1="1456.36" y1="41.291" x2="1057.58" y2="247.552" gradientUnits="userSpaceOnUse">
<stop stop-color="#3F4C7C"/>
<stop offset="1" stop-color="#353F64" stop-opacity="0"/>
</linearGradient>
<linearGradient id="paint7_linear_1035_5633" x1="1433.45" y1="107.186" x2="1291.73" y2="315.827" gradientUnits="userSpaceOnUse">
<stop stop-color="#333C5E"/>
<stop offset="1" stop-color="#4D5A8A"/>
</linearGradient>
<linearGradient id="paint8_linear_1035_5633" x1="1298.75" y1="171.748" x2="927.368" y2="362.076" gradientUnits="userSpaceOnUse">
<stop stop-color="#3F4C7C"/>
<stop offset="1" stop-color="#232D55"/>
</linearGradient>
<linearGradient id="paint9_linear_1035_5633" x1="1277.37" y1="235.603" x2="1147.47" y2="429.369" gradientUnits="userSpaceOnUse">
<stop stop-color="#485894"/>
<stop offset="1" stop-color="#333C5E"/>
</linearGradient>
<linearGradient id="paint10_linear_1035_5633" x1="1457.86" y1="274.284" x2="1131.29" y2="441.182" gradientUnits="userSpaceOnUse">
<stop stop-color="#3F4C7C"/>
<stop offset="1" stop-color="#232D55"/>
</linearGradient>
<linearGradient id="paint11_linear_1035_5633" x1="1439.08" y1="329.9" x2="1323.66" y2="500.625" gradientUnits="userSpaceOnUse">
<stop stop-color="#485894"/>
<stop offset="1" stop-color="#333C5E"/>
</linearGradient>
</defs>
</svg>
