<svg xmlns="http://www.w3.org/2000/svg" width="70" height="86" fill="none" viewBox="0 0 70 86"><g fill-rule="evenodd" clip-path="url(#a)" clip-rule="evenodd"><path fill="#fff" d="m68.163 52.86-34.16-19.716a1.18 1.18 0 0 0-1.159.115L2.264 50.918c-.485.306-.883.73-1.159 1.232l34.16 19.712c.27-.49.648-.91 1.105-1.231l30.634-17.66a1.15 1.15 0 0 1 1.158-.11"/><path fill="#2979e4" d="m2 51.95 33.055 19.09c.28-.363.618-.678 1-.931l30.37-17.528-32.739-18.9c-.1-.047-.21-.058-.579.132L2.574 51.449q-.324.21-.579.5zm33.266 20.533a.7.7 0 0 1-.316-.085L.789 52.687a.65.65 0 0 1-.316-.384.78.78 0 0 1 .105-.48 3.54 3.54 0 0 1 1.369-1.425l30.581-17.675a1.81 1.81 0 0 1 1.737-.137l34.213 19.739a.626.626 0 0 1 .211.82.594.594 0 0 1-.79.275c-.158-.08-.262-.084-.631.1L36.686 71.166a2.4 2.4 0 0 0-.895 1.02.67.67 0 0 1-.525.297"/><path fill="#fff" d="M68.635 53.923a1.11 1.11 0 0 0-.473-1.063 1.13 1.13 0 0 0-1.158.11L36.37 70.63a3.23 3.23 0 0 0-1.1 1.231 3.26 3.26 0 0 0-.527 1.627v10.448a1.15 1.15 0 0 0 .527 1.07 1.05 1.05 0 0 0 1.1-.117l30.634-17.654a3.7 3.7 0 0 0 1.63-2.863z"/><path fill="#2979e4" d="M67.746 53.364a.85.85 0 0 0-.42.142l-30.634 17.66a2.5 2.5 0 0 0-.895 1.004 2.74 2.74 0 0 0-.422 1.321V83.94c0 .27.053.47.158.532s.263.047.58-.11l30.58-17.659a3.14 3.14 0 0 0 1.316-2.326V53.922c0-.316-.052-.479-.158-.527-.052-.02-.052-.03-.106-.03zM35.691 85.74a1.45 1.45 0 0 1-.737-.195 1.76 1.76 0 0 1-.842-1.606V73.491a3.97 3.97 0 0 1 .58-1.937 4.1 4.1 0 0 1 1.42-1.463l30.581-17.66a1.77 1.77 0 0 1 1.79-.11 1.83 1.83 0 0 1 .788 1.6v10.453a4.24 4.24 0 0 1-1.947 3.395L36.688 85.43a1.9 1.9 0 0 1-1 .31z"/><path fill="#f2f5fc" d="m63.793 64.23 2.948-1.707v-3.406l-2.948 1.706z"/><path fill="#2979e4" d="M64.426 61.181v1.98l1.737-.99v-1.982l-1.737.99zm-.632 3.67a.7.7 0 0 1-.316-.086.66.66 0 0 1-.263-.537v-3.406a.66.66 0 0 1 .263-.537l2.948-1.7a.63.63 0 0 1 .632 0 .58.58 0 0 1 .316.532v3.406a.58.58 0 0 1-.316.537l-2.948 1.705a.7.7 0 0 1-.316.085"/><path fill="#fff" d="M35.264 71.86 1.104 52.148v.005A3 3 0 0 0 .63 53.78v10.448a1.08 1.08 0 0 0 .474 1.068l34.16 19.712a1.23 1.23 0 0 1-.527-1.069V73.491a3.6 3.6 0 0 1 .527-1.627z"/><path fill="#2979e4" d="M1.368 53.022a3.6 3.6 0 0 0-.158.784v10.422c.053.378.106.457.264.557l32.633 18.87V73.492c.037-.475.144-.94.316-1.384zm33.9 32.6a.64.64 0 0 1-.316-.08L.79 65.832A1.7 1.7 0 0 1 0 64.25V53.78a3.73 3.73 0 0 1 .528-1.926.67.67 0 0 1 .42-.3.63.63 0 0 1 .475.058l34.108 19.71a.61.61 0 0 1 .263.833 2.9 2.9 0 0 0-.422 1.364v10.42c0 .386.105.459.21.559a.664.664 0 0 1 .212.842.76.76 0 0 1-.53.284z"/><path fill="#f2f5fc" d="m58.898 67.056 2.948-1.7v-3.41l-2.948 1.704z"/><path fill="#2979e4" d="M59.53 64.007v1.979l1.737-.99v-1.98zm-.632 3.669c-.111 0-.22-.03-.316-.084a.7.7 0 0 1-.316-.537v-3.406a.71.71 0 0 1 .316-.537l3-1.7a.54.54 0 0 1 .579 0 .58.58 0 0 1 .316.532v3.41a.59.59 0 0 1-.316.538l-2.948 1.7a.66.66 0 0 1-.315.084"/><path fill="#fff" d="m68.163 36.805-34.16-19.706a1.15 1.15 0 0 0-1.159.11l-30.58 17.66A3.33 3.33 0 0 0 1.104 36.1l34.16 19.71c.27-.488.649-.909 1.105-1.23l30.634-17.66a1.17 1.17 0 0 1 1.158-.116"/><path fill="#2979e4" d="m2 35.9 33.055 19.091c.28-.363.618-.678 1-.932l30.37-17.533-32.739-18.9c-.1-.048-.21-.058-.579.126L2.574 35.4q-.324.211-.579.5zm33.266 20.533c-.11 0-.22-.03-.316-.084L.79 36.637a.67.67 0 0 1-.317-.384.78.78 0 0 1 .105-.479 3.56 3.56 0 0 1 1.37-1.426l30.58-17.675a1.8 1.8 0 0 1 1.737-.137l34.21 19.733a.634.634 0 0 1-.13 1.124.6.6 0 0 1-.45-.024c-.158-.073-.262-.084-.63.105L36.682 55.117c-.389.249-.7.603-.895 1.021a.67.67 0 0 1-.522.295"/><path fill="#fff" d="M68.635 37.879a1.13 1.13 0 0 0-.473-1.074 1.15 1.15 0 0 0-1.158.116L36.37 54.58a3.24 3.24 0 0 0-1.1 1.23 3.3 3.3 0 0 0-.527 1.633V67.89a1.15 1.15 0 0 0 .527 1.069 1.04 1.04 0 0 0 1.1-.111l30.634-17.665a3.8 3.8 0 0 0 1.158-1.231 3.2 3.2 0 0 0 .473-1.627z"/><path fill="#2979e4" d="M67.746 37.317a.8.8 0 0 0-.42.142L36.691 55.118a2.5 2.5 0 0 0-.895 1.005 2.7 2.7 0 0 0-.422 1.32v10.449c0 .268.053.468.158.53.105.064.263.049.58-.11l30.58-17.66a3.2 3.2 0 0 0 .948-1.004c.238-.4.365-.856.368-1.321v-10.45c0-.268-.052-.474-.158-.537-.052-.016-.052-.026-.106-.026zM35.691 69.694c-.259 0-.513-.07-.737-.2a1.76 1.76 0 0 1-.842-1.605V57.445a4 4 0 0 1 .58-1.942 4.16 4.16 0 0 1 1.42-1.458l30.581-17.66a1.78 1.78 0 0 1 1.79-.115 1.84 1.84 0 0 1 .788 1.61V48.33a3.97 3.97 0 0 1-.578 1.937 4 4 0 0 1-1.369 1.458L36.691 69.383a1.9 1.9 0 0 1-1.003.31z"/><path fill="#f2f5fc" d="m63.793 48.181 2.948-1.7v-3.41l-2.948 1.704z"/><path fill="#2979e4" d="M64.426 45.133v1.974l1.737-.984v-1.979zm-.632 3.67a.7.7 0 0 1-.316-.085.66.66 0 0 1-.263-.537v-3.408a.66.66 0 0 1 .263-.537l2.948-1.7a.62.62 0 0 1 .632 0 .58.58 0 0 1 .316.532v3.411a.59.59 0 0 1-.316.532l-2.948 1.705a.7.7 0 0 1-.316.084z"/><path fill="#fff" d="M35.264 55.813 1.104 36.102a3 3 0 0 0-.474 1.627v10.453a1.08 1.08 0 0 0 .474 1.069l34.16 19.712a1.23 1.23 0 0 1-.527-1.07V57.446a3.6 3.6 0 0 1 .527-1.632"/><path fill="#2979e4" d="M1.368 36.974a3.6 3.6 0 0 0-.158.784V48.18c.053.385.106.458.264.558l32.633 18.87V57.443c.038-.474.144-.94.316-1.384zm33.9 32.607c-.11 0-.22-.03-.316-.084L.79 49.785a1.7 1.7 0 0 1-.79-1.58V37.728a3.7 3.7 0 0 1 .528-1.922.65.65 0 0 1 .42-.3.58.58 0 0 1 .475.063l34.108 19.707a.606.606 0 0 1 .263.83c-.253.413-.398.881-.422 1.364v10.423a.61.61 0 0 0 .21.563.656.656 0 0 1 .212.837.77.77 0 0 1-.53.289z"/><path fill="#f2f5fc" d="m58.898 51.006 2.948-1.7v-3.411l-2.948 1.71z"/><path fill="#2979e4" d="M59.53 47.96v1.981l1.737-.99v-1.979l-1.737.99zm-.632 3.668c-.111 0-.22-.029-.316-.084a.71.71 0 0 1-.316-.537v-3.406a.71.71 0 0 1 .316-.537l3-1.7a.55.55 0 0 1 .579 0 .59.59 0 0 1 .316.531v3.411a.59.59 0 0 1-.316.537l-2.948 1.7a.65.65 0 0 1-.315.085"/><path fill="#f2f5fc" d="M68.163 20.443 34.003.726a1.18 1.18 0 0 0-1.159.116L2.264 18.498a3.4 3.4 0 0 0-1.159 1.232l34.16 19.712c.27-.49.648-.91 1.105-1.232l30.634-17.66a1.15 1.15 0 0 1 1.158-.107"/><path fill="#2979e4" d="m2 19.53 33.055 19.092c.28-.364.618-.679 1-.932l30.37-17.527-32.739-18.9c-.1-.047-.21-.058-.579.13L2.574 19.032a2.8 2.8 0 0 0-.579.5zm33.266 20.535c-.11 0-.22-.03-.316-.084L.79 20.269a.65.65 0 0 1-.317-.384.75.75 0 0 1 .105-.474 3.55 3.55 0 0 1 1.37-1.432L32.527.309a1.78 1.78 0 0 1 1.737-.137l34.21 19.733a.627.627 0 0 1-.13 1.115.6.6 0 0 1-.45-.02c-.158-.074-.262-.084-.63.1L36.682 38.749c-.388.25-.698.603-.895 1.02a.67.67 0 0 1-.522.296"/><path fill="#fff" d="M68.635 21.51a1.12 1.12 0 0 0-.473-1.07 1.14 1.14 0 0 0-1.158.11L36.37 38.21a3.23 3.23 0 0 0-1.1 1.231v.005a3.26 3.26 0 0 0-.527 1.627v10.448a1.15 1.15 0 0 0 .527 1.068 1.06 1.06 0 0 0 1.1-.11l30.634-17.66c.473-.32.869-.743 1.158-1.237a3.2 3.2 0 0 0 .473-1.627z"/><path fill="#2979e4" d="M67.746 20.948a.8.8 0 0 0-.42.142L36.691 38.75a2.55 2.55 0 0 0-.895 1 2.74 2.74 0 0 0-.422 1.32V51.52a.74.74 0 0 0 .158.532c.105.047.263.047.58-.111l30.58-17.66c.387-.258.71-.6.948-1 .237-.4.364-.855.368-1.32V21.512c0-.322-.052-.485-.158-.532-.052-.021-.052-.031-.106-.031zM35.691 53.324c-.259 0-.513-.07-.737-.2a1.76 1.76 0 0 1-.842-1.605V41.076a3.97 3.97 0 0 1 .58-1.938 4.2 4.2 0 0 1 1.42-1.463l30.581-17.66a1.78 1.78 0 0 1 1.79-.11 1.83 1.83 0 0 1 .788 1.606v10.448a3.97 3.97 0 0 1-.578 1.937 3.95 3.95 0 0 1-1.369 1.458L36.691 53.013a1.9 1.9 0 0 1-1.003.31z"/><path fill="#f2f5fc" d="m63.793 31.81 2.948-1.7V26.7l-2.948 1.704z"/><path fill="#2979e4" d="M64.426 28.764v1.98l1.737-.99v-1.98zm-.632 3.67c-.11 0-.22-.03-.316-.085a.66.66 0 0 1-.263-.537v-3.406a.66.66 0 0 1 .263-.537l2.948-1.7a.62.62 0 0 1 .632 0 .58.58 0 0 1 .316.532v3.41a.59.59 0 0 1-.316.537l-2.948 1.7a.64.64 0 0 1-.316.085"/><path fill="#fff" d="M35.264 39.443 1.104 19.73a3 3 0 0 0-.474 1.627V31.81a1.08 1.08 0 0 0 .474 1.069l34.16 19.712a1.23 1.23 0 0 1-.527-1.069V41.078a3.6 3.6 0 0 1 .527-1.626z"/><path fill="#2979e4" d="M1.37 20.605a3.6 3.6 0 0 0-.157.784v10.422c.053.38.106.458.264.558L34.11 51.24V41.075c.038-.474.144-.94.316-1.385zm33.9 32.608c-.11 0-.219-.03-.315-.084L.79 33.42A1.7 1.7 0 0 1 0 31.841V21.363a3.74 3.74 0 0 1 .528-1.927.67.67 0 0 1 .42-.3.6.6 0 0 1 .475.063l34.108 19.712a.6.6 0 0 1 .263.826c-.253.412-.398.88-.422 1.363v10.42a.61.61 0 0 0 .21.563.66.66 0 0 1 .212.837.77.77 0 0 1-.527.293z"/><path fill="#f2f5fc" d="m58.898 34.641 2.948-1.705v-3.405l-2.948 1.7z"/><path fill="#2979e4" d="M59.53 31.59v1.978l1.737-.989v-1.975zm-.632 3.667c-.111 0-.22-.03-.316-.084a.7.7 0 0 1-.316-.532v-3.41a.69.69 0 0 1 .316-.533l3-1.705a.55.55 0 0 1 .579 0 .59.59 0 0 1 .316.537v3.405a.59.59 0 0 1-.316.537l-2.948 1.7a.65.65 0 0 1-.315.085M37.738 45.19a.59.59 0 0 1-.527-.31.654.654 0 0 1 .211-.844l18.422-10.632a.623.623 0 0 1 .842.226.66.66 0 0 1-.211.847L38.053 45.104a.64.64 0 0 1-.315.086M37.738 61.558a.59.59 0 0 1-.527-.31.654.654 0 0 1 .21-.842L55.845 49.78a.616.616 0 0 1 .842.221.66.66 0 0 1-.211.847L38.053 61.474a.65.65 0 0 1-.315.084M37.738 77.607a.59.59 0 0 1-.527-.31.654.654 0 0 1 .211-.843l18.422-10.632a.62.62 0 0 1 .842.231.654.654 0 0 1-.211.842L38.053 77.522a.65.65 0 0 1-.315.085"/></g><defs><clipPath id="a"><path fill="#fff" d="M0 0h69.268v85.74H0z"/></clipPath></defs></svg>