<svg width="70" height="86" viewBox="0 0 70 86" fill="none" xmlns="http://www.w3.org/2000/svg">
<g clip-path="url(#clip0_945_1104)">
<path fill-rule="evenodd" clip-rule="evenodd" d="M68.1625 52.8608L34.0025 33.1438C33.816 33.0613 33.6113 33.0286 33.4083 33.0488C33.2054 33.0689 33.0111 33.1413 32.8445 33.2588L2.26349 50.9178C1.77915 51.2235 1.38061 51.6475 1.10547 52.1498L35.2655 71.8618C35.5356 71.3729 35.9135 70.9519 36.3705 70.6308L67.0045 52.9708C67.1705 52.8516 67.3652 52.7787 67.5686 52.7594C67.772 52.74 67.977 52.775 68.1625 52.8608Z" fill="white"/>
<path fill-rule="evenodd" clip-rule="evenodd" d="M2.00003 51.9498L35.055 71.0408C35.3347 70.6771 35.6726 70.3622 36.055 70.1088L66.425 52.5808L33.6861 33.6808C33.5861 33.6338 33.476 33.6228 33.107 33.8128L2.57406 51.4488C2.359 51.588 2.16412 51.7563 1.99502 51.9488L2.00003 51.9498ZM35.266 72.4828C35.1555 72.4798 35.0472 72.4507 34.95 72.3978L0.789031 52.6868C0.637172 52.6055 0.523614 52.4675 0.473052 52.3028C0.45543 52.136 0.492245 51.9679 0.578032 51.8238C0.889564 51.228 1.36446 50.7334 1.94705 50.3978L32.528 32.7228C32.7826 32.5556 33.0753 32.4553 33.3789 32.4314C33.6826 32.4074 33.9874 32.4605 34.265 32.5858L68.4781 52.3248C68.6098 52.4102 68.7045 52.5421 68.7436 52.6941C68.7827 52.8462 68.7633 53.0074 68.6891 53.1458C68.6201 53.2864 68.4984 53.394 68.3504 53.4453C68.2025 53.4967 68.0402 53.4875 67.899 53.4198C67.741 53.3408 67.637 53.3358 67.268 53.5198L36.6861 71.1658C36.2957 71.4129 35.9849 71.7674 35.791 72.1868C35.7326 72.2738 35.6546 72.346 35.5633 72.3974C35.4719 72.4488 35.3707 72.478 35.266 72.4828Z" fill="#2979E4"/>
<path fill-rule="evenodd" clip-rule="evenodd" d="M68.6347 53.9232C68.6623 53.7196 68.6326 53.5123 68.5491 53.3245C68.4656 53.1368 68.3314 52.976 68.1617 52.8602C67.9768 52.772 67.7714 52.7357 67.5675 52.7551C67.3635 52.7744 67.1687 52.8488 67.0037 52.9702L36.3697 70.6302C35.9027 70.9384 35.5236 71.3626 35.2697 71.8612C34.9524 72.347 34.7705 72.9086 34.7427 73.4882V83.9362C34.7243 84.1455 34.7637 84.3559 34.8566 84.5444C34.9495 84.7329 35.0924 84.8923 35.2697 85.0052C35.4456 85.0905 35.6419 85.1248 35.8363 85.1043C36.0307 85.0838 36.2155 85.0093 36.3697 84.8892L67.0037 67.2352C67.4787 66.9169 67.8732 66.4926 68.1563 65.9957C68.4393 65.4989 68.6031 64.9431 68.6347 64.3722V53.9232Z" fill="white"/>
<path fill-rule="evenodd" clip-rule="evenodd" d="M67.7463 53.3641C67.5958 53.373 67.4504 53.422 67.3252 53.5061L36.6923 71.1651C36.3084 71.4128 35.999 71.7602 35.7972 72.1701C35.5457 72.567 35.4004 73.0219 35.3752 73.4911V83.9391C35.3752 84.2081 35.4283 84.4081 35.5333 84.4711C35.6383 84.5341 35.7962 84.5181 36.1122 84.3611L66.6932 66.7021C67.0704 66.4352 67.3839 66.0884 67.6114 65.6863C67.8389 65.2842 67.9748 64.8368 68.0093 64.3761V53.9221C68.0093 53.6061 67.9572 53.4431 67.8512 53.3951C67.7992 53.3741 67.7992 53.3641 67.7452 53.3641H67.7463ZM35.6912 85.7401C35.4326 85.7419 35.1781 85.6745 34.9542 85.5451C34.6816 85.3787 34.4594 85.1414 34.3111 84.8585C34.1628 84.5757 34.0941 84.2579 34.1122 83.9391V73.4911C34.1348 72.8062 34.3343 72.1389 34.6912 71.5541C35.035 70.9551 35.5236 70.4521 36.1122 70.0911L66.6932 52.4311C66.9545 52.2548 67.2582 52.1516 67.5727 52.1322C67.8873 52.1129 68.2013 52.1781 68.4822 52.3211C68.7397 52.4979 68.9475 52.7379 69.0857 53.018C69.2238 53.2982 69.2877 53.6091 69.2712 53.9211V64.3741C69.2432 65.0547 69.0517 65.7186 68.7128 66.3096C68.3739 66.9005 67.8976 67.4012 67.3243 67.7691L36.6882 85.4301C36.3904 85.6247 36.0439 85.7317 35.6882 85.7391L35.6912 85.7401Z" fill="#2979E4"/>
<path fill-rule="evenodd" clip-rule="evenodd" d="M63.793 64.2292L66.741 62.5232V59.1172L63.793 60.8232V64.2292Z" fill="#F2F5FC"/>
<path fill-rule="evenodd" clip-rule="evenodd" d="M64.4259 61.1813V63.1603L66.1629 62.1703V60.1893L64.4259 61.1793V61.1813ZM63.7939 64.8503C63.6834 64.847 63.5752 64.8179 63.4779 64.7653C63.395 64.7027 63.3279 64.6215 63.2822 64.5282C63.2365 64.4349 63.2135 64.3322 63.2149 64.2283V60.8223C63.2134 60.7184 63.2364 60.6156 63.2821 60.5223C63.3278 60.429 63.3949 60.3478 63.4779 60.2853L66.4259 58.5853C66.5219 58.5294 66.6309 58.5 66.7419 58.5C66.8529 58.5 66.962 58.5294 67.0579 58.5853C67.1553 58.6352 67.2367 58.7116 67.2926 58.8057C67.3485 58.8998 67.3767 59.0079 67.3739 59.1173V62.5233C67.3774 62.6335 67.3496 62.7425 67.2937 62.8375C67.2377 62.9326 67.156 63.0098 67.0579 63.0603L64.1099 64.7653C64.0127 64.8179 63.9045 64.847 63.7939 64.8503Z" fill="#2979E4"/>
<path fill-rule="evenodd" clip-rule="evenodd" d="M35.2642 71.8604L1.10421 52.1484V52.1534C0.792503 52.6387 0.627882 53.2037 0.630207 53.7804V64.2284C0.598075 64.4332 0.62572 64.6429 0.709797 64.8323C0.793874 65.0217 0.930811 65.1829 1.10421 65.2964L35.2642 85.0084C35.0927 84.8898 34.9543 84.7293 34.8621 84.5423C34.7699 84.3552 34.7269 84.1477 34.7372 83.9394V73.4914C34.7791 72.9145 34.9599 72.3563 35.2642 71.8644V71.8604Z" fill="white"/>
<path fill-rule="evenodd" clip-rule="evenodd" d="M1.36784 53.0217C1.28588 53.2763 1.23292 53.5393 1.20988 53.8057V64.2277C1.26288 64.6057 1.31586 64.6847 1.47386 64.7847L34.1069 83.6547V73.4917C34.1442 73.0175 34.2507 72.5512 34.4229 72.1077L1.36784 53.0217ZM35.2679 85.6217C35.1575 85.6231 35.0486 85.5959 34.9519 85.5427L0.790873 65.8307C0.527409 65.665 0.314525 65.4301 0.175395 65.1516C0.0362651 64.8732 -0.0237707 64.5619 0.00187192 64.2517V53.7797C-0.000610327 53.1018 0.181552 52.436 0.528849 51.8537C0.575658 51.7783 0.636998 51.713 0.709269 51.6615C0.781541 51.61 0.863325 51.5733 0.94987 51.5537C1.10934 51.5099 1.27967 51.5307 1.42387 51.6117L35.5318 71.3227C35.6044 71.3594 35.6689 71.4101 35.7216 71.4721C35.7743 71.534 35.814 71.6058 35.8385 71.6834C35.863 71.7609 35.8717 71.8425 35.8642 71.9234C35.8567 72.0044 35.8332 72.083 35.7948 72.1547C35.5419 72.5667 35.3968 73.0358 35.3728 73.5187V83.9397C35.3728 84.3247 35.4778 84.3977 35.5838 84.4977C35.7142 84.5894 35.8073 84.7249 35.846 84.8795C35.8847 85.034 35.8666 85.1974 35.7948 85.3397C35.7305 85.4207 35.6503 85.4876 35.5592 85.5364C35.468 85.5853 35.3679 85.615 35.2649 85.6237L35.2679 85.6217Z" fill="#2979E4"/>
<path fill-rule="evenodd" clip-rule="evenodd" d="M58.8984 67.0563L61.8464 65.3563V61.9453L58.8984 63.6503V67.0563Z" fill="#F2F5FC"/>
<path fill-rule="evenodd" clip-rule="evenodd" d="M59.5296 64.0066V65.9856L61.2666 64.9956V63.0166L59.5296 64.0066ZM58.8976 67.6756C58.7868 67.6752 58.678 67.6463 58.5816 67.5916C58.4911 67.5325 58.4154 67.4533 58.3606 67.3602C58.3058 67.267 58.2733 67.1624 58.2656 67.0546V63.6486C58.274 63.5409 58.3068 63.4366 58.3616 63.3435C58.4163 63.2505 58.4916 63.1711 58.5816 63.1116L61.5816 61.4116C61.6684 61.357 61.7687 61.3281 61.8711 61.3281C61.9736 61.3281 62.0739 61.357 62.1606 61.4116C62.258 61.4616 62.3393 61.538 62.3952 61.6321C62.4511 61.7262 62.4793 61.8341 62.4766 61.9436V65.3546C62.4794 65.4647 62.4513 65.5733 62.3954 65.6683C62.3396 65.7632 62.2583 65.8405 62.1606 65.8916L59.2126 67.5916C59.1168 67.6457 59.0077 67.6746 58.8976 67.6756Z" fill="#2979E4"/>
<path fill-rule="evenodd" clip-rule="evenodd" d="M68.1625 36.8049L34.0025 17.0989C33.817 17.0131 33.6121 16.978 33.4086 16.9974C33.2052 17.0167 33.0105 17.0897 32.8445 17.2089L2.26349 34.8689C1.77795 35.1732 1.37908 35.5975 1.10547 36.1009L35.2655 55.8119C35.5359 55.3232 35.9137 54.9023 36.3705 54.5809L67.0045 36.9219C67.1704 36.8029 67.3647 36.7295 67.5679 36.7089C67.7711 36.6884 67.9761 36.7215 68.1625 36.8049Z" fill="white"/>
<path fill-rule="evenodd" clip-rule="evenodd" d="M2.00009 35.9003L35.0551 54.9913C35.335 54.6278 35.6729 54.313 36.0551 54.0592L66.4251 36.5263L33.6861 17.6263C33.5861 17.5783 33.4761 17.5683 33.1071 17.7523L2.57412 35.4003C2.35916 35.5396 2.1643 35.7079 1.99508 35.9003H2.00009ZM35.2661 56.4333C35.1553 56.4328 35.0465 56.4038 34.9501 56.3493L0.78909 36.6373C0.638126 36.5549 0.524911 36.4172 0.473111 36.2533C0.455343 36.0864 0.492169 35.9183 0.578091 35.7743C0.890837 35.1793 1.36545 34.685 1.94711 34.3483L32.5281 16.6733C32.7824 16.5052 33.0751 16.4045 33.3789 16.3806C33.6827 16.3566 33.9877 16.4102 34.2651 16.5363L68.4741 36.2693C68.6056 36.3561 68.7002 36.4888 68.7392 36.6415C68.7782 36.7942 68.7589 36.956 68.6851 37.0953C68.6149 37.2347 68.4932 37.3414 68.3457 37.3925C68.1982 37.4437 68.0366 37.4353 67.8951 37.3693C67.7371 37.2963 67.6331 37.2853 67.2641 37.4743L36.6831 55.1173C36.294 55.3658 35.9836 55.7199 35.7881 56.1383C35.7298 56.2247 35.6522 56.2963 35.5614 56.3475C35.4706 56.3987 35.3702 56.4281 35.2661 56.4333Z" fill="#2979E4"/>
<path fill-rule="evenodd" clip-rule="evenodd" d="M68.6347 37.8789C68.6616 37.6737 68.6318 37.4651 68.5484 37.2757C68.465 37.0863 68.3313 36.9235 68.1617 36.8049C67.9759 36.719 67.7705 36.6845 67.5669 36.7049C67.3632 36.7253 67.1688 36.7999 67.0037 36.9209L36.3697 54.5799C35.903 54.8884 35.524 55.3125 35.2697 55.8109C34.9533 56.2989 34.7715 56.8619 34.7427 57.4429V67.8909C34.7243 68.1002 34.7637 68.3106 34.8566 68.4991C34.9495 68.6876 35.0924 68.847 35.2697 68.9599C35.445 69.0462 35.6411 69.0815 35.8356 69.0619C36.0301 69.0423 36.2151 68.9685 36.3697 68.8489L67.0037 51.1839C67.4772 50.8657 67.873 50.4449 68.1617 49.9529C68.4636 49.4633 68.627 48.901 68.6347 48.3259V37.8789Z" fill="white"/>
<path fill-rule="evenodd" clip-rule="evenodd" d="M67.7464 37.3166C67.5955 37.3232 67.4495 37.3725 67.3254 37.4586L36.6924 55.1176C36.3084 55.3652 35.999 55.7126 35.7974 56.1226C35.5452 56.5192 35.3999 56.9742 35.3754 57.4436V67.8916C35.3754 68.1596 35.4284 68.3596 35.5334 68.4226C35.6384 68.4856 35.7964 68.4706 36.1124 68.3126L66.6934 50.6526C67.079 50.3909 67.4026 50.0478 67.6414 49.6476C67.8787 49.2475 68.0057 48.7917 68.0094 48.3266V37.8766C68.0094 37.6086 67.9574 37.4026 67.8514 37.3396C67.7994 37.3236 67.7994 37.3136 67.7454 37.3136L67.7464 37.3166ZM35.6914 69.6936C35.4323 69.6936 35.1779 69.6246 34.9544 69.4936C34.6815 69.3278 34.459 69.0907 34.3106 68.8079C34.1623 68.5252 34.0937 68.2074 34.1124 67.8886V57.4446C34.1355 56.7583 34.3349 56.0895 34.6914 55.5026C35.0369 54.9064 35.5252 54.4054 36.1124 54.0446L66.6934 36.3856C66.9546 36.2096 67.2579 36.1061 67.5722 36.0858C67.8865 36.0654 68.2006 36.1288 68.4824 36.2696C68.7402 36.4487 68.9481 36.6907 69.0861 36.9726C69.2242 37.2546 69.288 37.5671 69.2714 37.8806V48.3286C69.2492 49.0133 69.05 49.6806 68.6934 50.2656C68.3679 50.8597 67.8968 51.3613 67.3244 51.7236L36.6914 69.3826C36.3929 69.5784 36.0453 69.6862 35.6884 69.6936H35.6914Z" fill="#2979E4"/>
<path fill-rule="evenodd" clip-rule="evenodd" d="M63.793 48.1813L66.741 46.4813V43.0703L63.793 44.7753V48.1813Z" fill="#F2F5FC"/>
<path fill-rule="evenodd" clip-rule="evenodd" d="M64.4259 45.1333V47.1073L66.1629 46.1233V44.1443L64.4259 45.1333ZM63.7939 48.8023C63.6835 48.7991 63.5753 48.7704 63.4779 48.7183C63.395 48.6557 63.3279 48.5745 63.2822 48.4812C63.2365 48.3879 63.2135 48.2852 63.2149 48.1813V44.7733C63.2135 44.6694 63.2365 44.5666 63.2822 44.4733C63.3279 44.38 63.395 44.2988 63.4779 44.2363L66.4259 42.5363C66.5215 42.4793 66.6307 42.4492 66.7419 42.4492C66.8532 42.4492 66.9623 42.4793 67.0579 42.5363C67.1557 42.5857 67.2374 42.662 67.2934 42.7562C67.3494 42.8505 67.3773 42.9587 67.3739 43.0683V46.4793C67.376 46.5886 67.3475 46.6963 67.2917 46.7903C67.2359 46.8843 67.1549 46.9608 67.0579 47.0113L64.1099 48.7163C64.0125 48.7684 63.9043 48.7972 63.7939 48.8003V48.8023Z" fill="#2979E4"/>
<path fill-rule="evenodd" clip-rule="evenodd" d="M35.2644 55.8126L1.10435 36.1016C0.794 36.5874 0.629497 37.1521 0.630352 37.7286V48.1816C0.598017 48.3865 0.62555 48.5964 0.709636 48.786C0.793723 48.9756 0.930783 49.137 1.10435 49.2506L35.2644 68.9626C35.0929 68.8438 34.9546 68.6834 34.8623 68.4963C34.7701 68.3093 34.7271 68.1018 34.7373 67.8936V57.4446C34.7801 56.8663 34.9609 56.3066 35.2644 55.8126Z" fill="white"/>
<path fill-rule="evenodd" clip-rule="evenodd" d="M1.36784 36.9738C1.28581 37.2283 1.23285 37.4913 1.20988 37.7578V48.1798C1.26288 48.5648 1.31586 48.6378 1.47386 48.7378L34.1069 67.6078V57.4428C34.1449 56.9686 34.2514 56.5025 34.4229 56.0588L1.36784 36.9738ZM35.2679 69.5808C35.1571 69.5803 35.0483 69.5514 34.9519 69.4968L0.790873 49.7848C0.527409 49.6191 0.314525 49.3842 0.175395 49.1057C0.0362651 48.8273 -0.0237707 48.516 0.00187192 48.2058V37.7268C-0.000640722 37.0501 0.18155 36.3856 0.528849 35.8048C0.574772 35.7287 0.635818 35.6627 0.708232 35.6111C0.780646 35.5595 0.862908 35.5234 0.94987 35.5048C1.02885 35.4813 1.11189 35.4747 1.19358 35.4856C1.27528 35.4964 1.35378 35.5244 1.42387 35.5678L35.5318 55.2748C35.6044 55.3113 35.6689 55.362 35.7215 55.4239C35.7742 55.4857 35.8139 55.5575 35.8384 55.6349C35.8629 55.7123 35.8717 55.7939 35.8642 55.8748C35.8568 55.9556 35.8331 56.0342 35.7948 56.1058C35.542 56.5175 35.3968 56.9862 35.3728 57.4688V67.8918C35.3562 67.9959 35.3669 68.1025 35.4039 68.2012C35.4409 68.2999 35.5029 68.3873 35.5838 68.4548C35.7143 68.5452 35.8076 68.6798 35.8464 68.8337C35.8852 68.9876 35.8669 69.1504 35.7948 69.2918C35.7306 69.3733 35.6506 69.441 35.5595 69.4906C35.4684 69.5403 35.3682 69.571 35.2649 69.5808H35.2679Z" fill="#2979E4"/>
<path fill-rule="evenodd" clip-rule="evenodd" d="M58.8984 51.0055L61.8464 49.3055V45.8945L58.8984 47.6055V51.0055Z" fill="#F2F5FC"/>
<path fill-rule="evenodd" clip-rule="evenodd" d="M59.5296 47.9603V49.9413L61.2666 48.9513V46.9723L59.5296 47.9623V47.9603ZM58.8976 51.6283C58.7868 51.628 58.678 51.599 58.5816 51.5443C58.4916 51.4847 58.4163 51.4054 58.3616 51.3123C58.3068 51.2193 58.274 51.115 58.2656 51.0073V47.6013C58.2739 47.4936 58.3066 47.3893 58.3614 47.2962C58.4162 47.2031 58.4915 47.1238 58.5816 47.0643L61.5816 45.3643C61.6684 45.31 61.7687 45.2812 61.8711 45.2812C61.9735 45.2812 62.0738 45.31 62.1606 45.3643C62.2575 45.4147 62.3383 45.4911 62.3942 45.5849C62.45 45.6787 62.4785 45.7862 62.4766 45.8953V49.3063C62.4794 49.4164 62.4513 49.5251 62.3954 49.62C62.3396 49.7149 62.2583 49.7923 62.1606 49.8433L59.2126 51.5433C59.1169 51.5978 59.0078 51.6271 58.8976 51.6283Z" fill="#2979E4"/>
<path fill-rule="evenodd" clip-rule="evenodd" d="M68.1625 20.4426L34.0025 0.725567C33.8159 0.64317 33.6112 0.610546 33.4082 0.630877C33.2052 0.651207 33.011 0.723799 32.8445 0.841568L2.26349 18.4976C1.77907 18.8032 1.3805 19.2272 1.10547 19.7296L35.2655 39.4416C35.5357 38.9524 35.9135 38.5311 36.3705 38.2096L67.0045 20.5506C67.1706 20.4317 67.3655 20.359 67.5689 20.34C67.7724 20.321 67.9772 20.3564 68.1625 20.4426Z" fill="#F2F5FC"/>
<path fill-rule="evenodd" clip-rule="evenodd" d="M2.00033 19.5306L35.0553 38.6216C35.3351 38.2581 35.673 37.9432 36.0553 37.6896L66.4253 20.1626L33.6864 1.2626C33.5864 1.2156 33.4763 1.2046 33.1073 1.3936L2.57437 19.0306C2.3594 19.17 2.16454 19.3382 1.99533 19.5306H2.00033ZM35.2663 40.0646C35.1555 40.0641 35.0467 40.0352 34.9503 39.9806L0.789333 20.2686C0.637263 20.1876 0.523622 20.0494 0.473354 19.8846C0.454987 19.7193 0.491892 19.5526 0.578335 19.4106C0.889307 18.8129 1.3642 18.3161 1.94735 17.9786L32.5283 0.308605C32.7819 0.138989 33.0748 0.0373179 33.3789 0.0133299C33.6831 -0.010658 33.9883 0.0438397 34.2653 0.171604L68.4743 19.9046C68.6059 19.9902 68.7005 20.122 68.7396 20.274C68.7787 20.4261 68.7593 20.5872 68.6853 20.7256C68.6135 20.8635 68.4917 20.9687 68.3448 21.0196C68.1979 21.0706 68.0371 21.0634 67.8954 20.9996C67.7374 20.9256 67.6334 20.9156 67.2644 21.0996L36.6833 38.7486C36.2955 38.9982 35.9854 39.3516 35.7884 39.7686C35.7302 39.8553 35.6527 39.9271 35.5619 39.9785C35.4711 40.0299 35.3705 40.0594 35.2663 40.0646Z" fill="#2979E4"/>
<path fill-rule="evenodd" clip-rule="evenodd" d="M68.6346 21.5092C68.6622 21.3047 68.6327 21.0966 68.5492 20.9079C68.4657 20.7192 68.3316 20.5573 68.1617 20.4402C67.9764 20.3534 67.7713 20.3178 67.5677 20.3372C67.364 20.3565 67.1692 20.4301 67.0037 20.5502L36.3697 38.2092C35.9026 38.5177 35.5235 38.9422 35.2696 39.4412V39.4462C34.9522 39.9319 34.7703 40.4936 34.7427 41.0732V51.5212C34.7243 51.7304 34.7638 51.9406 34.8567 52.1289C34.9496 52.3173 35.0924 52.4765 35.2696 52.5892C35.4453 52.6741 35.6411 52.7087 35.8353 52.6891C36.0295 52.6695 36.2145 52.5965 36.3697 52.4782L67.0037 34.8192C67.4771 34.4984 67.8728 34.0757 68.1617 33.5822C68.4636 33.0926 68.627 32.5303 68.6346 31.9552V21.5092Z" fill="white"/>
<path fill-rule="evenodd" clip-rule="evenodd" d="M67.7464 20.9477C67.5954 20.9539 67.4493 21.0032 67.3254 21.0897L36.6924 38.7497C36.31 38.997 36.0009 39.3423 35.7974 39.7497C35.5459 40.1466 35.4006 40.6015 35.3754 41.0707V51.5187C35.357 51.7098 35.4137 51.9006 35.5334 52.0507C35.6384 52.0977 35.7964 52.0977 36.1124 51.9397L66.6934 34.2807C67.0796 34.0218 67.4035 33.6802 67.6414 33.2807C67.8779 32.8803 68.0049 32.4247 68.0094 31.9597V21.5117C68.0094 21.1897 67.9574 21.0267 67.8514 20.9797C67.7994 20.9587 67.7994 20.9487 67.7454 20.9487L67.7464 20.9477ZM35.6914 53.3237C35.4323 53.3237 35.1779 53.2547 34.9544 53.1237C34.6815 52.9579 34.459 52.7208 34.3106 52.4381C34.1623 52.1553 34.0937 51.8375 34.1124 51.5187V41.0757C34.1348 40.3905 34.3342 39.7228 34.6914 39.1377C35.0367 38.5399 35.5249 38.0372 36.1124 37.6747L66.6934 20.0157C66.955 19.8404 67.2586 19.7378 67.5729 19.7183C67.8872 19.6988 68.2011 19.7631 68.4824 19.9047C68.7401 20.0827 68.9479 20.3238 69.086 20.6049C69.2241 20.8861 69.288 21.1979 69.2714 21.5107V31.9587C69.2492 32.6434 69.0501 33.3108 68.6934 33.8957C68.3696 34.491 67.8982 34.9931 67.3244 35.3537L36.6914 53.0127C36.3929 53.2085 36.0453 53.3163 35.6884 53.3237H35.6914Z" fill="#2979E4"/>
<path fill-rule="evenodd" clip-rule="evenodd" d="M63.793 31.8092L66.741 30.1092V26.6992L63.793 28.4042V31.8092Z" fill="#F2F5FC"/>
<path fill-rule="evenodd" clip-rule="evenodd" d="M64.4259 28.7644V30.7434L66.1629 29.7544V27.7744L64.4259 28.7644ZM63.7939 32.4334C63.6831 32.4331 63.5743 32.4041 63.4779 32.3494C63.395 32.2869 63.3279 32.2057 63.2822 32.1124C63.2365 32.0191 63.2135 31.9163 63.2149 31.8124V28.4064C63.2135 28.3026 63.2366 28.1998 63.2823 28.1065C63.328 28.0132 63.395 27.932 63.4779 27.8694L66.4259 26.1694C66.5214 26.1122 66.6306 26.082 66.7419 26.082C66.8532 26.082 66.9624 26.1122 67.0579 26.1694C67.1553 26.2193 67.2367 26.2957 67.2926 26.3899C67.3485 26.484 67.3767 26.592 67.3739 26.7014V30.1114C67.3767 30.2215 67.3486 30.3302 67.2927 30.4251C67.2369 30.5201 67.1555 30.5974 67.0579 30.6484L64.1099 32.3484C64.0136 32.4032 63.9047 32.4332 63.7939 32.4334Z" fill="#2979E4"/>
<path fill-rule="evenodd" clip-rule="evenodd" d="M35.2644 39.4425L1.10435 19.7305C0.792647 20.2157 0.628026 20.7808 0.630352 21.3575V31.8105C0.598017 32.0154 0.62555 32.2253 0.709636 32.4149C0.793723 32.6045 0.930783 32.7659 1.10435 32.8795L35.2644 52.5915C35.093 52.4729 34.9547 52.3126 34.8625 52.1258C34.7703 51.9389 34.7272 51.7316 34.7373 51.5235V41.0775C34.7798 40.5007 34.9606 39.9426 35.2644 39.4505V39.4425Z" fill="white"/>
<path fill-rule="evenodd" clip-rule="evenodd" d="M1.37083 20.6053C1.28892 20.8599 1.23596 21.1228 1.21287 21.3893V31.8113C1.26587 32.1903 1.31885 32.2693 1.47685 32.3693L34.1098 51.2393V41.0753C34.1478 40.6008 34.2543 40.1343 34.4259 39.6903L1.37083 20.6053ZM35.2709 53.2133C35.1601 53.2128 35.0513 53.1839 34.9549 53.1293L0.790877 33.4203C0.527413 33.2545 0.314467 33.0196 0.175338 32.7412C0.0362078 32.4628 -0.023767 32.1515 0.00187566 31.8413V21.3633C-0.000586676 20.685 0.181568 20.0189 0.528853 19.4363C0.575619 19.3608 0.636934 19.2955 0.709212 19.244C0.78149 19.1925 0.863308 19.1559 0.949874 19.1363C1.02898 19.1137 1.11186 19.1077 1.1934 19.1185C1.27495 19.1293 1.3534 19.1568 1.42387 19.1993L35.5318 38.9113C35.6046 38.9469 35.6694 38.9969 35.7223 39.0582C35.7752 39.1195 35.8151 39.1909 35.8397 39.2681C35.8643 39.3453 35.873 39.4267 35.8653 39.5073C35.8576 39.5879 35.8336 39.6661 35.7948 39.7373C35.542 40.149 35.3968 40.6177 35.3728 41.1003V51.5203C35.3561 51.6244 35.3667 51.731 35.4037 51.8297C35.4407 51.9285 35.5028 52.0158 35.5838 52.0833C35.7142 52.1738 35.8073 52.3084 35.8461 52.4623C35.8849 52.6161 35.8667 52.7788 35.7948 52.9203C35.7314 53.0022 35.652 53.0704 35.5614 53.1208C35.4708 53.1712 35.371 53.2026 35.2679 53.2133H35.2709Z" fill="#2979E4"/>
<path fill-rule="evenodd" clip-rule="evenodd" d="M58.8984 34.6413L61.8464 32.9362V29.5312L58.8984 31.2312V34.6413Z" fill="#F2F5FC"/>
<path fill-rule="evenodd" clip-rule="evenodd" d="M59.5296 31.5892V33.5682L61.2666 32.5792V30.6042L59.5296 31.5892ZM58.8976 35.2572C58.7868 35.2569 58.678 35.2279 58.5816 35.1732C58.4917 35.1147 58.4165 35.0363 58.3617 34.944C58.3069 34.8518 58.274 34.7482 58.2656 34.6412V31.2302C58.2732 31.1231 58.3058 31.0192 58.3607 30.9268C58.4155 30.8345 58.4912 30.7562 58.5816 30.6982L61.5816 28.9932C61.6684 28.9389 61.7687 28.9102 61.8711 28.9102C61.9735 28.9102 62.0738 28.9389 62.1606 28.9932C62.2583 29.0442 62.3396 29.1216 62.3954 29.2165C62.4513 29.3114 62.4794 29.4201 62.4766 29.5302V32.9352C62.4794 33.0453 62.4513 33.154 62.3954 33.2489C62.3396 33.3439 62.2583 33.4212 62.1606 33.4722L59.2126 35.1722C59.1169 35.2267 59.0078 35.256 58.8976 35.2572Z" fill="#2979E4"/>
<path fill-rule="evenodd" clip-rule="evenodd" d="M37.738 45.1903C37.6302 45.1912 37.5242 45.1627 37.4314 45.1079C37.3385 45.0531 37.2624 44.9741 37.211 44.8793C37.1369 44.7374 37.1174 44.5731 37.1563 44.4177C37.1952 44.2623 37.2897 44.1266 37.422 44.0363L55.844 33.4043C55.9861 33.3244 56.1537 33.3033 56.3111 33.3455C56.4685 33.3878 56.6031 33.49 56.686 33.6303C56.76 33.773 56.7794 33.9377 56.7405 34.0937C56.7017 34.2496 56.6073 34.386 56.475 34.4773L38.053 45.1043C37.9572 45.1596 37.8487 45.1892 37.738 45.1903Z" fill="#2979E4"/>
<path fill-rule="evenodd" clip-rule="evenodd" d="M37.7376 61.5582C37.6299 61.5593 37.524 61.531 37.4311 61.4764C37.3383 61.4217 37.2621 61.3429 37.2107 61.2482C37.1368 61.1063 37.1175 60.9423 37.1563 60.7872C37.1952 60.632 37.2896 60.4965 37.4217 60.4062L55.8437 49.7792C55.9846 49.697 56.1525 49.6741 56.3104 49.7155C56.4683 49.7569 56.6032 49.8593 56.6856 50.0002C56.7598 50.1428 56.7794 50.3077 56.7405 50.4636C56.7016 50.6196 56.6071 50.7561 56.4746 50.8472L38.0526 61.4742C37.9565 61.5286 37.8481 61.5576 37.7376 61.5582Z" fill="#2979E4"/>
<path fill-rule="evenodd" clip-rule="evenodd" d="M37.738 77.6071C37.6303 77.6081 37.5244 77.5798 37.4316 77.5251C37.3387 77.4705 37.2625 77.3917 37.211 77.2971C37.1369 77.1552 37.1174 76.9909 37.1563 76.8355C37.1952 76.6801 37.2897 76.5444 37.422 76.4541L55.844 65.8221C55.9865 65.7418 56.1549 65.721 56.3126 65.7643C56.4703 65.8075 56.6045 65.9114 56.686 66.0531C56.7599 66.195 56.7792 66.359 56.7403 66.5142C56.7015 66.6693 56.6071 66.8049 56.475 66.8951L38.053 77.5221C37.957 77.5769 37.8486 77.6061 37.738 77.6071Z" fill="#2979E4"/>
</g>
<defs>
<clipPath id="clip0_945_1104">
<rect width="69.268" height="85.74" fill="white"/>
</clipPath>
</defs>
</svg>
