<svg xmlns="http://www.w3.org/2000/svg" width="74" height="75" fill="none" viewBox="0 0 74 75"><g clip-path="url(#a)"><mask id="b" width="74" height="75" x="0" y="0" maskUnits="userSpaceOnUse" style="mask-type:luminance"><path fill="#fff" d="M74 0H0v75h74z"/></mask><g fill-rule="evenodd" clip-rule="evenodd" mask="url(#b)"><path fill="#035be8" d="M33.244 5.013C40.26 1.087 48.778-1.459 56.283 2.76l7.6 4.369C50.552-.184 34.304 12.35 26.013 21.997 15.722 33.959 7.024 52.644 8.347 68.574c.177 2.124.836 4.018 2.71 5.214-1.453-.832-7.567-4.169-8.454-5.01C.048 66.35.536 60.4.793 57.26c1.676-19.806 15.198-42.1 32.45-52.247"/><path fill="#035be8" d="M33.53 5.507C16.592 15.479 3.053 37.262 1.377 57.302c-.244 2.855-.744 8.797 1.609 11.063.533.498 3.357 2.124 5.534 3.345-.404-.866-.647-1.886-.744-3.094-1.37-16.57 7.959-35.535 17.8-46.987 8.328-9.692 21.202-18.94 32.82-17l-2.407-1.38C49.892-.179 42.324.581 33.529 5.507m-22.476 68.85a.7.7 0 0 1-.29-.072c-.286-.167-.76-.434-1.337-.76-3.273-1.832-6.517-3.667-7.227-4.336C-.56 66.542-.044 60.47.23 57.206 1.955 36.819 15.7 14.663 32.95 4.524v-.008C42.127-.618 50.085-1.38 56.552 2.262l7.618 4.374a.554.554 0 0 1 .21.773c-.143.272-.496.364-.773.218C51.325.89 35.917 11.36 26.449 22.369 16.751 33.637 7.574 52.276 8.923 68.524c.193 2.354.937 3.83 2.437 4.783.257.171.34.514.181.778a.58.58 0 0 1-.487.271"/><path fill="#eff3fa" d="M40.838 9.383c9.005-5.164 17.157-5.649 23.044-2.254 5.903 3.391 9.55 10.662 9.55 21.006 0 1.012-.05 2.099-.117 3.144-.21 2.943-1.336 6.083-3.034 8.847-1.672 2.764-3.933 5.139-6.387 6.548L53.68 52.535a39.7 39.7 0 0 1-5.021 7.69c-2.34 2.817-5.021 5.184-7.84 6.802-2.825 1.622-5.505 2.325-7.841 2.204-1.942-.097-3.648-.766-5.005-1.94l-10.215 5.861c-2.466 1.41-4.714 1.623-6.404.803-1.693-.823-2.806-2.676-3.017-5.38a47 47 0 0 1-.117-3.02c.02-10.344 3.668-21.8 9.572-31.964 5.89-10.168 14.05-19.04 23.039-24.204z"/><path fill="#035be8" d="M55.381 5.515c-4.353 0-9.198 1.467-14.245 4.36-8.618 4.947-16.732 13.468-22.85 23.996-6.1 10.52-9.47 21.775-9.47 31.68 0 .944.033 1.969.113 2.976.18 2.409 1.13 4.156 2.68 4.913 1.58.761 3.665.485 5.87-.786l10.216-5.862a.585.585 0 0 1 .668.063c1.273 1.104 2.853 1.714 4.66 1.806 2.29.113 4.886-.619 7.521-2.128 2.68-1.534 5.34-3.838 7.698-6.673a39.5 39.5 0 0 0 4.937-7.58c.05-.1.126-.184.223-.243l10.215-5.861c2.29-1.322 4.504-3.571 6.198-6.352 1.71-2.784 2.756-5.832 2.937-8.583.084-1.067.113-2.141.113-3.111 0-9.792-3.273-17.075-9.244-20.517-2.437-1.396-5.21-2.098-8.227-2.098zM13.543 75c-.87 0-1.698-.176-2.438-.535-1.937-.941-3.113-3.02-3.327-5.85a40 40 0 0 1-.114-3.056c0-10.102 3.425-21.553 9.635-32.253 6.21-10.695 14.476-19.362 23.266-24.409 8.875-5.1 17.266-5.904 23.602-2.254 6.341 3.646 9.829 11.285 9.829 21.5 0 1.003-.034 2.098-.118 3.185-.21 2.94-1.303 6.172-3.093 9.103-1.81 2.939-4.147 5.335-6.618 6.748L54.12 52.953a40 40 0 0 1-5.02 7.651c-2.438 2.931-5.215 5.335-7.993 6.933-2.82 1.618-5.66 2.395-8.16 2.278-1.887-.096-3.635-.727-5.034-1.823l-9.874 5.67c-1.568.899-3.097 1.354-4.505 1.354z"/><path fill="#fff" d="M59.817 14.145c-4.857-2.793-11.572-2.396-18.98 1.86-7.408 4.26-14.118 11.557-18.972 19.923-4.857 8.366-7.857 17.799-7.857 26.316 0 .882.012 1.668.084 2.512.08 1.054.517 1.777 1.155 2.095.668.314 1.55.234 2.521-.33l11.67-6.698v.012c.932-.535 1.852-.535 2.403.117.983 1.167 2.323 1.823 3.89 1.903 1.497.08 3.24-.39 5.098-1.455 1.874-1.07 3.592-2.6 5.097-4.395a26 26 0 0 0 3.777-6.1c.483-1.3 1.433-2.542 2.513-3.16l11.681-6.699c.967-.56 1.853-1.484 2.5-2.554.66-1.075 1.101-2.296 1.177-3.441.067-.916.084-1.731.084-2.614.013-8.516-2.988-14.504-7.84-17.297z"/><path fill="#035be8" d="M52.815 12.928c-3.564 0-7.555 1.2-11.682 3.57-7.08 4.064-13.748 11.068-18.766 19.718-5.02 8.647-7.794 17.891-7.794 26.032 0 .865.034 1.639.084 2.467.063.815.37 1.392.857 1.626.5.243 1.194.134 1.967-.31l11.668-6.698c.05-.02.08-.033.114-.041 1.176-.636 2.323-.523 3.034.305.857 1.041 2.067 1.626 3.466 1.697 1.454.072 3.084-.405 4.778-1.383 1.74-.996 3.454-2.467 4.958-4.265a25.6 25.6 0 0 0 3.694-5.962c.533-1.439 1.6-2.764 2.76-3.429l11.665-6.698c.857-.493 1.676-1.33 2.31-2.358.627-1.037 1.018-2.162 1.08-3.186.064-.899.097-1.71.097-2.576 0-8.027-2.68-13.99-7.567-16.803-1.984-1.146-4.261-1.715-6.71-1.715zm-36.73 54.676c-.39 0-.743-.08-1.08-.239-.87-.422-1.403-1.333-1.483-2.563a32 32 0 0 1-.096-2.554c0-8.337 2.82-17.787 7.937-26.604 5.13-8.818 11.942-15.972 19.203-20.132 7.34-4.215 14.278-4.88 19.539-1.853 5.248 3.02 8.13 9.337 8.13 17.787 0 .894-.029 1.727-.096 2.65-.076 1.2-.53 2.513-1.24 3.697-.743 1.187-1.693 2.161-2.71 2.747l-11.681 6.702c-.937.535-1.811 1.635-2.278 2.864-1 2.27-2.323 4.423-3.87 6.263-1.58 1.898-3.39 3.462-5.248 4.524-1.882 1.083-3.74 1.61-5.416 1.535-1.727-.092-3.21-.82-4.29-2.108-.488-.585-1.34-.188-1.677.009-.033.012-.067.033-.096.041L18.06 67.01c-.681.393-1.358.585-1.971.585z"/><path fill="#035be8" d="M40.419 53.238c1.95-.519 3.933-2.994 4.47-5.532.467-2.291-.823-4.118-2.584-3.65-1.937.514-3.933 2.99-4.47 5.523-.517 2.534.634 4.173 2.584 3.659"/><path fill="#035be8" d="M42.858 44.553c-.13 0-.256.021-.403.054-1.71.46-3.584 2.793-4.05 5.093-.257 1.217-.08 2.241.453 2.738.437.406 1.017.36 1.42.251 1.727-.46 3.58-2.792 4.05-5.092.223-1.104 0-2.128-.583-2.684a1.29 1.29 0 0 0-.887-.36m-3.134 9.353c-.627 0-1.21-.217-1.664-.64-.824-.786-1.11-2.17-.774-3.796.563-2.768 2.71-5.385 4.875-5.962.89-.234 1.71-.025 2.353.577.89.823 1.23 2.253.937 3.742-.584 2.768-2.727 5.385-4.887 5.962-.29.08-.567.117-.84.117M61.683 35.585c-.21 0-.382-.1-.495-.284a.563.563 0 0 1 .21-.778l3.113-1.785a.56.56 0 0 1 .773.209.555.555 0 0 1-.21.773l-3.113 1.79a.55.55 0 0 1-.278.08zM55.585 22.147a.53.53 0 0 1-.286-.079.56.56 0 0 1-.214-.774l2.214-3.8a.56.56 0 0 1 .773-.21.56.56 0 0 1 .21.779l-2.21 3.792a.55.55 0 0 1-.487.284zM40.84 23.59a.557.557 0 0 1-.563-.565v-3.583a.573.573 0 1 1 1.147 0v3.583a.57.57 0 0 1-.584.565M26.091 39.068a.6.6 0 0 1-.29-.08l-2.193-1.267a.56.56 0 0 1-.21-.773.56.56 0 0 1 .773-.21l2.206 1.268a.56.56 0 0 1 .214.773.6.6 0 0 1-.5.284zM16.861 61.303a.55.55 0 0 1-.483-.28.567.567 0 0 1 .21-.778l3.114-1.79a.57.57 0 0 1 .773.214.556.556 0 0 1-.21.773l-3.114 1.79a.6.6 0 0 1-.29.071"/><path fill="#035be8" d="M44.404 45.377a.54.54 0 0 1-.353-.126.57.57 0 0 1-.097-.802L60.67 23.86a.58.58 0 0 1 .807-.088.576.576 0 0 1 .084.803L44.845 45.164a.55.55 0 0 1-.437.213z"/></g></g><defs><clipPath id="a"><path fill="#fff" d="M0 0h74v75H0z"/></clipPath></defs></svg>