<svg width="164" height="164" viewBox="0 0 164 164" fill="none" xmlns="http://www.w3.org/2000/svg">
<path d="M146.711 39.8647C146.753 39.6777 146.778 39.4971 146.571 39.3713C146.455 39.5954 146.483 39.7599 146.707 39.8679C147.608 43.6745 147.661 47.5197 147.127 51.3763C146.605 55.1442 146.51 58.9153 146.853 62.7041C146.944 63.715 146.866 64.742 146.866 66.1076C146.402 65.245 146.339 64.642 146.266 64.052C145.875 60.8951 144.57 58.1656 142.432 55.8826C140.201 53.5029 137.889 51.2005 135.603 48.8756C135.177 48.4403 134.918 47.8228 134.271 47.5165C134.257 47.7245 134.218 47.8486 134.244 47.9599C135.437 53.0724 137.368 57.7722 140.854 61.798C143.382 64.7162 145.297 68.0955 146.444 71.8618C146.549 72.2085 146.623 72.4938 147.208 72.3568C147.518 69.7707 148.836 67.4716 149.722 65.0113C150.834 61.9206 151.808 58.7863 152.108 55.4795C152.503 51.0925 151.273 47.1199 149.057 43.431C148.327 42.2138 147.953 40.7369 146.711 39.8647ZM138.058 103.488L138.047 103.493C138.252 103.058 138.447 102.619 138.665 102.19C140.977 97.6211 141.368 92.8617 140.33 87.8524C139.738 84.9987 139.087 82.1223 139.137 79.1622C139.14 78.9204 139.313 78.5947 138.869 78.4222C137.792 80.4198 137.393 82.6415 137.109 84.8229C136.704 87.9249 136.588 91.0688 136.417 94.1966C136.125 99.5687 135.324 104.81 132.88 109.666C132.788 109.847 132.704 110.023 132.944 110.203C134.507 109.386 135.788 108.128 137.334 107.248C139.197 106.189 140.951 104.92 142.697 103.664C144.769 102.174 146.866 100.707 148.648 98.8448C149.978 97.455 151.176 95.9556 152.193 94.3079C153.133 92.7859 153.881 91.1575 154.412 89.4614C154.815 88.1732 154.957 86.7866 155.102 85.4307C155.232 84.2118 155.432 82.9462 154.71 81.5258C154.157 82.8866 153.72 83.9668 153.172 85.0067C151.548 88.0829 148.917 90.2837 146.758 92.8907C145.323 94.6255 143.793 96.2797 142.287 97.95C140.727 99.6783 139.5 101.668 138.058 103.488ZM31.16 110.368L31.1954 110.371L31.1438 110.356C31.2357 110.007 31.0648 109.726 30.9117 109.439C28.9592 105.755 28.0966 101.768 27.7903 97.634C27.4775 93.4131 27.205 89.1889 26.8858 84.968C26.7101 82.6512 26.0394 80.473 24.943 78.4093C24.8334 79.7813 24.7608 81.134 24.5561 82.4818C24.1079 85.4178 23.3968 88.3086 23.1308 91.2736C22.8551 94.3352 23.0937 97.3131 24.3787 100.156C24.7608 101.002 25.3719 101.786 25.3606 102.938C24.9801 102.393 24.6867 101.966 24.3835 101.547C21.5201 97.563 18.2118 93.9789 14.8615 90.4239C12.2963 87.7024 9.8586 84.8567 9.19916 80.9196C8.81543 81.0888 8.88316 81.3742 8.86703 81.5935C8.60906 85.0566 9.05083 88.4118 10.4068 91.6202C12.0319 95.4655 14.689 98.432 17.8603 101.039C22.0683 104.494 26.7488 107.227 31.16 110.368ZM52.9659 92.7923C53.0352 93.413 53.4157 93.621 53.7091 93.8773C56.7789 96.5521 59.8551 99.2204 62.9378 101.881C63.5811 102.437 64.2211 103.001 64.6532 103.744C65.0241 104.383 65.7576 105.054 65.2449 105.815C64.7452 106.561 63.8568 106.216 63.1232 106.071C57.8833 105.034 53.922 101.871 50.4201 98.0128C47.4842 94.777 45.7994 90.8092 44.3515 86.7269C43.9162 85.4968 43.4696 84.2763 42.5668 83.3073C42.1347 82.843 41.6655 82.1562 40.9803 82.4867C40.3338 82.7995 40.445 83.5895 40.5079 84.244C40.5159 84.3247 40.5321 84.4053 40.5434 84.4859C41.3076 90.6125 43.0924 96.4118 46.0154 101.824C50.4185 109.976 56.5758 116.285 64.8774 120.328C71.3507 123.482 78.2093 124.186 85.2613 123.78C91.367 123.429 97.0809 121.739 102.314 118.521C112.227 112.43 118.41 103.425 121.807 92.2925C122.663 89.4856 123.275 86.6206 123.479 83.6814C123.514 83.1671 123.532 82.5367 122.956 82.2868C122.384 82.0401 121.987 82.5077 121.621 82.8704C120.776 83.7072 120.193 84.7084 119.814 85.8499C118.761 89.0293 117.531 92.1652 115.796 94.9979C114.405 97.268 112.473 99.1656 110.434 100.91C107.44 103.474 104.135 105.347 100.244 106.06C99.6557 106.168 99.101 106.158 98.7318 105.673C98.382 105.213 98.7125 104.728 98.9301 104.309C99.3252 103.551 99.8282 102.875 100.48 102.313C103.773 99.4655 107.056 96.607 110.34 93.75C110.672 93.4614 111.092 93.1841 110.963 92.6569C110.811 92.0442 110.256 92.0765 109.792 92.0265C108.771 91.9201 107.815 92.1926 106.869 92.5634C102.24 94.3756 98.1627 97.0777 94.6318 100.602C88.7438 106.482 84.5358 113.4 82.4044 121.563C82.3222 121.878 82.3012 122.208 82.2254 122.524C82.1609 122.798 82.0593 123.064 81.8772 123.637C80.6164 117.11 77.8723 111.643 74.1592 106.663C69.4885 100.401 63.7633 95.517 56.3501 92.9342C55.2618 92.5553 54.1412 92.2022 52.9659 92.7923ZM91.4266 62.4155C92.1554 62.2769 92.1006 62.7638 92.1715 63.1523C92.6487 65.7949 93.1276 68.4358 93.6113 71.0767C93.7402 71.7828 94.0256 72.3568 94.8769 72.1682C95.4718 72.0376 95.4364 71.462 95.5557 71.0009C95.854 69.8368 95.8636 68.5938 96.386 67.4168C97.0938 71.1057 95.646 74.651 96.3828 78.2883C96.7633 80.165 96.4263 82.1884 96.4585 84.1457C96.4731 84.9374 96.1425 86.0933 97.4485 86.0804C98.7512 86.0676 98.3965 84.9148 98.411 84.1264C98.4626 81.0211 98.2949 77.9062 98.7657 74.8155C98.8141 74.5011 98.7464 74.1174 99.4058 74.2351C99.2058 75.6636 99.7315 77.0453 99.7186 78.4915C99.7024 80.6116 99.7121 82.7317 99.717 84.8519C99.7202 85.5307 99.9427 86.0982 100.71 86.1143C101.463 86.1304 101.737 85.6016 101.773 84.9132C101.79 84.5858 101.782 84.2602 101.782 83.9345C101.784 81.7725 101.627 79.5975 101.826 77.4548C102.018 75.3798 102.293 73.387 101.79 71.2814C101.449 69.861 101.724 68.2874 101.724 66.4865C102.453 67.4781 102.975 68.1891 103.47 68.8614C103.093 70.2173 101.06 71.1476 102.695 72.9533C103.459 71.8215 104.191 70.7622 104.894 69.6804C105.224 69.1758 105.287 68.6534 104.936 68.0843C104.26 66.9831 103.644 65.8432 102.985 64.7323C102.643 64.1568 102.206 63.6876 101.471 63.6908C99.7959 63.6956 98.1224 63.707 96.4489 63.7005C95.7797 63.6989 95.4041 64.0342 95.2751 64.6791C95.08 65.6658 94.8962 66.6558 94.7076 67.6441C94.361 65.5788 94.1207 63.5231 93.9128 61.4626C93.7741 60.0809 93.0083 59.0281 91.7781 58.8217C89.4935 58.438 87.1525 58.4461 84.8502 58.8492C83.7845 59.0346 83.188 59.8375 83.0041 60.8677C82.6107 63.0798 83.017 65.3321 82.6591 67.2217C82.4044 66.8154 82.406 66.0189 82.3592 65.2321C82.2834 63.931 82.2318 62.6299 82.1254 61.3337C81.9449 59.0958 81.1194 58.2929 78.9283 58.2445C77.3305 58.2091 75.7312 58.2075 74.1334 58.2478C71.8826 58.3042 70.9846 59.2168 71.0572 61.4949C71.1217 63.5199 71.2329 65.5401 71.1652 67.5522C71.1217 67.162 70.9733 66.7928 70.8621 66.4123C70.3994 64.8549 69.6868 64.2825 68.0809 64.2712C66.962 64.2632 65.8367 64.2519 64.7242 64.3534C64.0083 64.4196 63.278 64.4937 62.8475 65.3514C61.8205 67.4006 62.546 69.545 62.3977 71.6361C62.3687 72.0472 62.7814 72.2165 63.1893 72.1923C63.623 72.1681 63.8536 71.9021 63.881 71.4942C63.9181 70.9267 63.8762 70.3527 63.91 69.7836C63.9681 68.8581 63.7327 67.902 64.1438 66.7863C65.0435 70.6784 63.7649 73.9658 62.2945 77.208C63.0507 77.4563 63.7149 77.1403 64.3663 77.4805C64.3663 79.8764 64.3566 82.277 64.3727 84.6793C64.3776 85.3968 64.4598 86.1497 65.4304 86.1078C66.3332 86.0674 66.3252 85.3677 66.322 84.6841C66.3123 82.564 66.3042 80.4439 66.3284 78.3221C66.3317 77.9594 66.064 77.3515 66.9588 77.366V80.0327C66.9588 81.5821 66.9621 83.1315 66.9572 84.6809C66.954 85.3823 67.0507 86.0513 67.9052 86.0965C68.8742 86.1497 68.9403 85.4032 68.9548 84.6745C68.9661 84.1457 68.9613 83.6152 68.9613 83.0848V77.3628C69.6884 77.3258 70.2672 77.2967 71.0492 77.2564C69.4804 73.9303 68.3841 70.6348 69.1757 66.7106C69.5804 68.1245 69.8851 69.2757 70.2414 70.4123C70.4688 71.133 70.3672 72.2761 71.4893 72.1697C72.5841 72.0649 72.3567 70.9331 72.447 70.1995C72.7453 67.815 72.9436 65.4175 73.1886 63.0265C73.2144 62.7782 73.1016 62.4123 73.5804 62.4042C73.9206 62.7234 73.7513 63.1539 73.7529 63.5247C73.7658 68.5824 73.761 73.6385 73.7626 78.6946C73.7626 80.6116 73.7642 82.5286 73.7723 84.4456C73.7771 85.342 73.9996 86.1223 75.075 86.1014C76.1552 86.082 76.331 85.2856 76.3229 84.3924C76.3213 84.1876 76.3213 83.9844 76.3213 83.7797C76.3213 80.0699 76.3164 76.3584 76.3277 72.6486C76.3293 72.2584 76.1955 71.836 76.4728 71.4684C77.2741 71.4055 76.9984 72.0198 77 72.3874C77.0162 76.302 77.0081 80.2166 77.0162 84.1312C77.0178 84.5358 77.0307 84.9534 77.1322 85.3388C77.2902 85.9418 77.7723 86.1368 78.3414 86.1078C78.9138 86.0804 79.3571 85.8305 79.4555 85.2082C79.5168 84.8083 79.52 84.3972 79.52 83.9909C79.5264 77.1807 79.5248 70.3704 79.5425 63.5602C79.5425 63.1652 79.3281 62.6718 79.8972 62.2897C80.2858 62.7299 80.2681 63.2765 80.3439 63.7585C80.6986 66.0108 81.0017 68.2696 81.3644 70.5187C81.4837 71.2556 81.5047 72.1746 82.5704 72.1907C83.6297 72.2036 83.6893 71.3539 83.7957 70.5703C84.0392 68.7952 84.2327 67.0121 84.56 65.2547C84.7647 64.1535 84.6116 62.9379 85.4951 61.6271C86.2964 69.1967 84.0924 76.1069 83.404 83.2767H85.5805C85.6128 83.9087 85.6208 84.4343 85.6708 84.955C85.7434 85.7257 86.1803 86.1256 86.9413 86.111C87.7297 86.0949 88.0747 85.6128 88.1102 84.8567C88.1231 84.6132 88.0844 84.3666 88.1054 84.1247C88.1376 83.8055 87.8893 83.2912 88.4875 83.2976C88.9921 83.3024 88.7954 83.7619 88.8212 84.0505C88.8454 84.3343 88.8148 84.6229 88.8454 84.905C88.9357 85.7209 89.3839 86.1674 90.1997 86.1094C91.0188 86.0514 91.4154 85.5741 91.3493 84.7212C91.317 84.294 91.1413 83.8554 91.3799 83.4572C92.0877 83.2122 92.8326 83.5362 93.4968 83.2347C92.8422 76.2681 90.8478 69.5079 91.4266 62.4155ZM37.8831 131.227C37.8735 131.653 38.2152 131.783 38.4474 131.959C41.4027 134.191 44.5547 136.049 48.0727 137.212C52.1743 138.565 56.134 138.155 60.0003 136.282C62.7057 134.971 65.0709 133.131 67.5022 131.39C69.5175 129.947 71.5506 128.523 74.0077 127.958C75.4394 127.627 76.8824 127.396 78.4253 128.116C76.8662 128.975 75.3733 129.76 73.9174 130.608C69.9432 132.923 66.7057 136.196 63.2522 139.187C62.8105 139.569 62.8024 140.032 63.22 140.303C63.9455 140.773 64.4663 141.433 65.0419 142.044C65.6384 142.678 66.1076 142.552 66.6155 141.905C68.0165 140.124 69.3386 138.295 70.9702 136.686C73.7191 133.978 76.6454 131.592 80.0634 129.802C81.6047 128.996 82.9381 129.043 84.3085 130.024C85.8547 131.13 87.4283 132.199 88.9454 133.349C92.1103 135.751 95.0027 138.466 97.5824 141.507C97.9709 141.965 98.3756 142.202 98.7755 141.897C99.7138 141.183 100.746 140.543 101.492 139.4C96.5747 135.122 91.4702 131.263 85.6128 128.195C86.6625 127.532 87.5653 127.54 88.4779 127.601C91.1639 127.782 93.2357 129.392 95.3349 130.823C98.0177 132.651 100.66 134.534 103.627 135.856C107.727 137.683 111.927 138.008 116.223 136.594C119.999 135.353 123.255 133.155 126.461 130.866C126.639 130.74 126.843 130.54 126.644 130.237C126.226 130.126 125.878 130.371 125.531 130.531C120.119 133.02 114.59 133.347 108.979 131.358C105.344 130.068 101.858 128.391 98.3014 126.9C93.8193 125.018 89.1711 124.62 84.4939 126.408C83.3637 126.84 82.24 127.453 80.9324 126.856C75.154 124.217 69.4966 125.236 63.9036 127.53C60.0293 129.118 56.2453 130.948 52.2211 132.136C48.5483 133.222 44.8707 133.467 41.1351 132.257C40.0662 131.912 39.0875 131.188 37.8831 131.227ZM71.1443 91.8055C69.029 91.13 67.1056 90.2384 65.3821 89.0099C59.3522 84.718 55.9632 78.9702 56.4694 71.2813C56.679 68.1003 57.6673 65.1644 59.8858 62.7605C60.3566 62.2494 61.2289 62.1365 61.3965 61.4561C61.806 59.8084 63.1088 59.1296 64.3099 58.2703C64.7759 57.9366 65.4949 57.8656 65.7416 57.1272C63.6795 56.9708 62.2672 58.3348 60.9693 59.3973C59.3022 60.7613 57.856 62.4445 56.6839 64.4066C52.7257 71.0363 52.974 77.5805 56.5372 84.2085C58.38 87.6362 60.9838 90.4029 64.2019 92.4198C66.3381 93.7596 68.526 95.3525 71.3168 95.0414C71.52 95.0188 71.7973 95.1526 71.9537 95.3058C72.5696 95.9088 73.3612 96.0232 74.1351 96.2086C75.7328 96.5908 77.3612 96.781 78.9816 97.0325C79.9828 97.1873 80.8679 97.2469 81.5886 96.4811C83.7216 97.7113 88.5956 96.9406 90.6286 95.1042C92.0281 95.5976 92.3425 95.6202 93.879 95.18C100.86 93.1857 105.952 88.8277 109.094 82.2125C112.241 75.5829 112.138 69.0048 108.289 62.6347C107.657 61.59 107.017 60.5678 107.308 59.2425C107.351 59.0458 107.385 58.7411 106.987 58.5734C106.037 59.6149 105.465 59.0361 104.796 58.0688C104.355 57.4351 103.865 56.5339 102.409 56.8225C107.691 62.983 110.4 69.8029 107.946 77.7062C105.503 85.5693 99.6299 89.9337 92.07 92.5649C92.1506 91.2993 92.2183 90.2336 92.2893 89.134C90.3046 89.945 90.2723 89.9837 90.0031 91.9506C89.9547 92.3086 89.9886 92.7439 89.5307 92.839C87.2799 93.3098 85.0373 93.8564 82.585 93.8789C82.585 93.2534 82.5415 92.7278 82.5931 92.2102C82.6849 91.3138 82.3593 90.9784 81.45 90.9994C80.5697 91.0187 80.0747 91.209 80.1827 92.2409C80.2359 92.7487 80.3101 93.2937 80.0247 93.895C78.3044 93.8064 76.6051 93.4227 74.8945 93.1324C73.7465 92.9357 73.2677 92.3086 73.4418 91.0268C73.653 89.45 73.2209 89.0147 71.5571 88.6503C71.4249 89.6548 71.2943 90.656 71.1443 91.8055ZM39.1939 118.282C38.6571 118.374 38.4958 118.184 38.3136 118.031C34.8537 115.143 31.0955 112.73 27.0422 110.811C22.3602 108.594 18.0361 105.906 14.8422 101.637C14.5584 101.257 14.3875 100.671 13.762 100.639C13.7168 100.757 13.6443 100.849 13.6652 100.897C15.2275 104.434 16.5141 108.13 19.1921 111.033C21.251 113.265 23.2212 115.611 26.0362 116.92C29.1914 118.385 32.4079 119.603 35.8501 120.277C38.8844 120.87 41.9751 121.141 45.04 122.094C44.6305 120.989 43.7341 120.509 43.173 119.735C41.0029 116.744 39.9162 113.268 38.7989 109.807C37.185 104.805 35.4921 99.8362 32.1725 95.6814C31.4598 94.7914 30.989 93.6403 29.7524 92.9018C30.6634 95.754 31.2228 98.4593 31.5662 101.2C32.137 105.745 33.4591 109.99 35.9065 113.874C36.8674 115.399 37.9928 116.786 39.1939 118.282ZM119.032 121.921C121.012 121.565 122.779 121.263 124.539 120.928C128.041 120.26 131.598 119.832 134.908 118.353C138.903 116.568 142.482 114.219 145.194 110.645C146.874 108.426 148.198 106.013 149.275 103.441C149.623 102.614 150.233 101.864 149.77 100.844C148.846 101.116 148.735 102.051 148.23 102.632C145.754 105.484 142.879 107.82 139.503 109.461C134.813 111.743 130.255 114.237 126.148 117.518C125.881 117.732 125.645 118.077 125.184 117.832C125.168 117.737 125.118 117.62 125.133 117.512C125.149 117.402 125.199 117.273 125.276 117.202C127.878 114.845 129.388 111.772 130.644 108.557C132.559 103.66 132.361 98.2868 133.942 93.2775C133.431 93.5903 132.967 93.9127 132.643 94.3432C129.829 98.0933 127.633 102.166 126.174 106.674C125.063 110.103 124.125 113.605 122.482 116.844C121.571 118.64 120.164 120.067 119.032 121.921ZM63.7987 125.574C63.5714 125.515 63.3441 125.445 63.1152 125.397C58.6508 124.454 54.8442 122.352 51.6713 118.972C48.4741 115.565 45.227 112.201 41.4317 109.453C41.0931 109.208 40.811 108.9 40.3193 108.937C40.2902 110.198 41.2673 110.829 41.73 111.728C42.8586 113.927 44.0291 116.104 45.2028 118.279C46.6265 120.917 48.7321 122.761 51.4875 123.849C52.3597 124.193 53.2061 124.602 54.0639 124.981C50.0671 124.228 46.0702 124.086 42.067 124.228C36.5175 124.422 31.4856 122.959 26.9584 119.662C26.4182 119.269 25.8588 118.672 25.014 118.969C25.4831 119.977 26.3747 120.57 27.0487 121.355C32.5256 127.725 39.447 130.157 47.639 129.346C53.1658 128.797 58.3396 126.719 63.7987 125.574ZM138.94 118.532C138.2 118.811 137.762 118.972 137.328 119.145C137.218 119.187 137.114 119.253 137.025 119.332C134.253 121.802 130.971 123.146 127.396 123.794C125.105 124.21 122.782 124.225 120.456 124.196C116.859 124.152 113.275 124.309 109.742 125.218C110.14 124.688 110.69 124.568 111.206 124.385C113.944 123.416 116.389 121.994 117.989 119.449C119.996 116.262 121.586 112.834 123.374 109.519C123.417 109.439 123.356 109.3 123.343 109.191C122.701 108.995 122.289 109.479 121.944 109.763C119.05 112.131 116.362 114.732 113.769 117.441C112.272 119.008 110.793 120.612 109.018 121.863C106.334 123.757 103.335 124.925 100.01 125.607C101.073 126.092 102.09 126.11 103.049 126.368C107.881 127.657 112.67 129.11 117.703 129.445C122.247 129.749 126.518 128.855 130.553 126.769C132.343 125.845 133.831 124.468 135.317 123.13C136.686 121.895 138.065 120.617 138.94 118.532ZM18.61 86.7332C17.425 85.2967 17.0703 83.5635 16.8171 81.8222C16.3754 78.7912 15.7982 75.8165 14.4681 73.0273C13.57 71.1442 12.7687 69.2127 11.9384 67.2957C10.9694 65.0578 10.3294 62.7201 10.052 60.0308C9.82793 60.45 9.6925 60.6112 9.64898 60.7966C8.61874 65.3174 8.05121 69.856 9.22496 74.4461C9.57483 75.8165 9.76022 77.274 10.3568 78.5268C12.3415 82.6961 14.9066 86.5043 17.8764 90.0126C18.5407 90.7978 19.0663 91.7812 20.1997 92.4455C20.1997 91.6281 20.2223 91.067 20.1949 90.5076C20.103 88.697 20.448 86.9493 20.8656 85.2032C22.0167 80.3793 23.6274 75.6811 24.6447 70.8201C25.2719 67.8245 25.6733 64.8064 25.5041 61.7156C23.9724 65.5061 21.633 68.8403 19.8869 72.4953C18.2521 75.9181 17.5636 79.4909 18.1279 83.283C18.2988 84.431 18.4504 85.5837 18.61 86.7332ZM143.704 92.481C148.267 87.57 152.519 82.4721 154.408 75.8537C155.898 70.6444 155.743 65.4013 154.068 60.234C153.691 60.3727 153.67 60.65 153.646 60.9482C153.454 63.2747 152.77 65.4739 151.834 67.5795C149.594 72.6162 147.298 77.6175 146.824 83.2524C146.724 84.4519 146.323 85.6805 145.294 86.9235C145.467 85.8207 145.591 85.034 145.717 84.2488C146.316 80.5019 146.008 76.8791 144.432 73.3837C143.376 71.0411 142.037 68.8581 140.852 66.5896C140.012 64.9789 139.235 63.3344 138.326 61.4916C138.253 66.9362 139.337 71.9391 140.765 76.8614C141.559 79.5925 142.321 82.3302 143.045 85.0791C143.68 87.4814 143.793 89.9417 143.704 92.481ZM16.8913 72.8775C17.3444 72.6566 17.3428 72.2809 17.425 72.002C18.6745 67.823 21.0204 64.2889 23.6984 60.9628C25.4896 58.7362 27.097 56.4129 27.9999 53.656C28.5803 51.8824 29.3397 50.146 29.3542 48.2323C28.9173 48.1355 28.6303 48.2226 28.411 48.5128C26.5214 51.007 24.1804 53.0659 22.0441 55.3214C19.5709 57.9285 17.8265 60.858 17.641 64.5839C17.6233 64.9676 17.6314 65.4642 17.1429 65.6948C16.8656 65.2546 17.0042 64.8467 17.0236 64.4533C17.238 60.3049 17.4443 56.1711 16.872 52.0195C16.4157 48.7208 16.0965 45.385 16.7656 42.054C16.8478 41.6477 16.9655 41.1705 16.5141 40.8062C15.6257 41.3108 15.5935 42.3475 15.1195 43.0939C13.7297 45.2834 12.6849 47.6631 12.1932 50.217C11.4145 54.2702 12.0497 58.2219 13.2573 62.1268C14.3697 65.7189 16.2932 69.0225 16.8913 72.8775ZM136.062 29.3397C138.5 32.4417 139.348 33.6783 139.956 38.4587C140.341 41.4607 141.107 44.3531 142.339 47.1198C142.599 47.7019 142.668 48.3693 142.826 48.9965C140.636 45.0803 137.675 42.0412 133.96 39.6985C131.993 38.4587 130.27 36.9045 128.889 34.9778C128.659 34.6554 128.388 34.2265 127.796 34.2571C127.738 34.9956 127.922 35.6679 128.146 36.3483C129.963 41.8445 134.053 45.4415 138.361 48.7724C140.096 50.1138 141.733 51.4455 142.908 53.3271C143.329 54.0042 143.692 54.7652 144.527 55.2425C144.609 54.4379 144.696 53.7576 144.746 53.074C145.041 48.9675 145.302 44.8627 144.825 40.7482C144.34 36.5675 142.648 33.0883 139.156 30.7021C138.278 30.1023 137.48 29.164 136.062 29.3397ZM28.0644 28.9286C23.0486 31.1455 19.8869 34.8069 19.1662 40.4612C18.552 45.2722 19.0904 50.0606 19.3049 54.8571C19.3081 54.949 19.4064 55.0361 19.4806 55.1619C20.8027 53.8108 21.6072 52.0985 22.9696 50.8442C25.0865 48.8966 27.5468 47.3939 29.6315 45.4012C32.5142 42.6426 34.9004 39.5841 35.8613 35.5679C35.9532 35.181 36.266 34.7715 35.7984 34.5006C35.3147 34.2201 35.218 34.7876 35.0358 35.0375C33.5267 37.1109 31.5952 38.699 29.4896 40.0855C26.8535 41.8203 24.4222 43.7583 22.8406 46.6184C22.5326 47.1763 22.0522 47.6358 21.6121 48.1872C21.0977 47.4729 21.6008 46.9941 21.7975 46.5378C22.7471 44.3258 23.4162 42.0396 23.7773 39.6518C24.0272 38.0041 24.1691 36.3418 24.6447 34.7279C25.3074 32.4836 26.7343 30.7456 28.0644 28.9286ZM138.313 40.8707C137.731 32.0387 129.542 22.839 121.078 21.5396C123.288 23.6065 124.936 25.9572 126.595 28.3337C129.871 33.0254 133.783 37.1496 138.313 40.8707ZM25.6475 40.6982C32.4497 35.6469 36.9592 28.6835 41.9315 22.0426C34.2458 22.9439 26.386 31.9307 25.6475 40.6982ZM74.2978 55.128C74.3123 56.7129 75.5506 58.3493 76.7098 58.3123C77.8545 58.2752 79.0492 56.5678 79.0185 55.0135C78.9863 53.4593 77.9045 52.2211 76.5905 52.2356C75.2926 52.2501 74.2849 53.5222 74.2978 55.128ZM90.8027 55.7955C90.843 54.4976 89.7321 52.8499 88.8292 52.8644C87.2879 52.8902 86.1641 54.0478 86.1174 55.6552C86.0706 57.2401 87.2137 58.8814 88.3875 58.7314C89.7063 58.5621 90.7801 57.7834 90.8027 55.7955ZM69.066 62.6428C68.5807 62.2687 68.6081 61.8786 68.534 61.5303C68.3356 60.6049 67.2248 59.4505 66.517 59.5859C65.4819 59.7842 64.8064 60.4033 64.8418 61.598C64.8547 62.014 64.7386 62.3768 64.3324 62.6218C63.7245 62.9878 63.9615 61.9527 63.3682 62.1881C63.1586 62.4235 62.8636 62.7524 62.5347 63.12C62.9265 63.3941 63.257 63.6279 63.6778 63.9261C63.7681 62.983 64.5226 63.2361 64.9112 62.9007C66.3913 64.5452 67.1829 64.534 68.3904 62.933C68.9967 63.0249 69.4401 63.3941 69.906 63.9535C69.9044 63.3586 70.4719 63.3457 70.646 62.9749C70.1495 62.5476 69.9092 61.2079 69.066 62.6428ZM100.883 61.34C100.894 60.0663 100.051 59.0168 99.0414 59.0458C98.0853 59.0732 97.2856 60.0841 97.2534 61.3013C97.2243 62.459 98.0595 63.4602 99.0559 63.4602C100.143 63.4602 100.871 62.6137 100.883 61.34ZM91.0864 96.9116C88.6616 97.0373 88.402 97.5597 89.4387 100.073C90.0271 99.9571 90.6285 99.8362 91.1993 99.7218C91.3927 98.706 91.1429 97.8467 91.0864 96.9116ZM94.4077 96.1457C92.0441 96.3811 91.7377 97.0212 92.8099 99.3687C93.3951 99.2268 93.9965 99.0801 94.6431 98.9237C94.6076 98.1885 94.5818 97.5468 94.5382 96.9067C94.5221 96.6713 94.4592 96.4408 94.4077 96.1457ZM70.5751 99.2477C70.9297 98.498 70.8411 97.7515 70.8814 97.0357C70.9298 96.1796 70.1542 96.3488 69.6738 96.2021C69.2772 96.0812 68.9208 96.107 68.7387 96.6423C68.1324 98.4239 68.6436 99.2009 70.5751 99.2477ZM82.946 100.77C82.8573 99.9877 83.0395 99.2655 82.767 98.4754C82.3478 98.4754 81.9529 98.4609 81.5611 98.4803C81.2886 98.4932 81.0193 98.5512 80.7662 98.5851C80.339 100.945 80.4228 101.034 82.946 100.77ZM73.7754 100.012C74.8669 97.7596 74.4993 97.018 72.1615 96.9486C72.0712 97.8692 71.8262 98.7866 72.1019 99.7475C72.7032 99.8427 73.2466 99.9281 73.7754 100.012ZM143.482 92.7809L143.443 92.8486L143.503 92.8567L143.482 92.7809Z" fill="#FDFDFC"/>
<path d="M52.9649 92.7922C54.1402 92.2021 55.2607 92.5568 56.3474 92.9341C63.7622 95.5169 69.4874 100.401 74.1581 106.664C77.8712 111.643 80.6153 117.11 81.8761 123.637C82.0567 123.064 82.1582 122.798 82.2243 122.524C82.2985 122.208 82.3211 121.878 82.4033 121.563C84.5347 113.4 88.7411 106.482 94.6307 100.602C98.16 97.0776 102.239 94.3755 106.868 92.5633C107.814 92.1924 108.769 91.92 109.791 92.0264C110.254 92.0764 110.81 92.0457 110.961 92.6568C111.09 93.1856 110.671 93.4613 110.339 93.7499C107.055 96.6069 103.772 99.4654 100.478 102.313C99.8255 102.875 99.3241 103.551 98.9291 104.309C98.7114 104.728 98.3809 105.215 98.7308 105.673C99.0984 106.16 99.6546 106.168 100.241 106.06C104.132 105.349 107.437 103.474 110.433 100.91C112.471 99.1655 114.402 97.2679 115.795 94.9978C117.53 92.165 118.76 89.0308 119.813 85.8498C120.19 84.7083 120.775 83.7071 121.62 82.8703C121.986 82.5075 122.383 82.04 122.954 82.2867C123.531 82.5366 123.513 83.167 123.476 83.6813C123.273 86.6205 122.662 89.4855 121.804 92.2924C118.409 103.425 112.225 112.43 102.312 118.521C97.0782 121.739 91.3643 123.429 85.2586 123.78C78.2066 124.188 71.3495 123.482 64.8763 120.33C56.5747 116.285 50.4158 109.976 46.0143 101.824C43.0913 96.4117 41.3065 90.6124 40.5407 84.4858C40.531 84.4052 40.5132 84.3245 40.5052 84.2439C40.4439 83.5893 40.3327 82.7994 40.9776 82.4866C41.6644 82.156 42.132 82.8445 42.5657 83.3072C43.4685 84.2762 43.9135 85.4983 44.3505 86.7268C45.7983 90.8091 47.4815 94.7769 50.4174 98.0127C53.9193 101.871 57.8823 105.034 63.1205 106.071C63.8541 106.216 64.7425 106.561 65.2439 105.816C65.755 105.053 65.023 104.383 64.6522 103.744C64.2185 103.001 63.58 102.437 62.9367 101.881C59.854 99.2203 56.7762 96.5536 53.7065 93.8772C53.4146 93.6225 53.0342 93.4129 52.9649 92.7922Z" fill="#1F1B17"/>
<path d="M91.4259 62.4148C90.8487 69.5071 92.8415 76.2674 93.4961 83.2356C92.8318 83.5355 92.0869 83.2131 91.3792 83.4581C91.1406 83.8563 91.3163 84.2949 91.3485 84.7205C91.4146 85.5734 91.018 86.0506 90.199 86.1103C89.3832 86.1683 88.935 85.7218 88.8447 84.9059C88.814 84.6222 88.8447 84.3336 88.8205 84.0498C88.7947 83.7612 88.9914 83.3017 88.4868 83.2969C87.8886 83.2905 88.1369 83.8064 88.1046 84.124C88.0837 84.3658 88.1224 84.6141 88.1095 84.8576C88.074 85.6137 87.729 86.0942 86.9406 86.1103C86.1796 86.1264 85.7442 85.725 85.6701 84.9543C85.6201 84.4336 85.6137 83.9079 85.5798 83.2759H83.4032C84.0916 76.1062 86.2956 69.196 85.4943 61.6264C84.6108 62.9387 84.764 64.1544 84.5592 65.254C84.2319 67.0113 84.0385 68.7961 83.7966 70.5696C83.6886 71.3532 83.6289 72.2045 82.5697 72.19C81.504 72.1754 81.483 71.2548 81.3637 70.5196C81.0009 68.2705 80.6978 66.0101 80.3431 63.7578C80.2689 63.2757 80.2851 62.7291 79.8981 62.289C79.3274 62.6711 79.5418 63.1645 79.5418 63.5611C79.5241 70.3713 79.5257 77.1815 79.5192 83.9902C79.5192 84.3965 79.516 84.8092 79.4547 85.209C79.3564 85.8298 78.913 86.0797 78.3407 86.1087C77.7715 86.1361 77.2895 85.9426 77.1315 85.3397C77.0299 84.9527 77.017 84.5351 77.0154 84.132C77.0073 80.2174 77.0154 76.3012 76.9993 72.3883C76.9977 72.0191 77.2734 71.4064 76.4721 71.4693C76.1948 71.8369 76.3286 72.2577 76.327 72.6478C76.3157 76.3577 76.3205 80.0691 76.3205 83.7806C76.3205 83.9837 76.3205 84.1885 76.3221 84.3916C76.3302 85.2864 76.1544 86.0829 75.0742 86.1023C73.9988 86.1232 73.7763 85.3429 73.7715 84.4448C73.7634 82.5295 73.7618 80.6125 73.7618 78.6955C73.7602 73.6378 73.7651 68.5817 73.7522 63.5256C73.7505 63.1532 73.9198 62.7243 73.5796 62.4051C73.1008 62.4131 73.2137 62.7775 73.1879 63.0274C72.9428 65.4184 72.7461 67.8159 72.4478 70.2004C72.3559 70.9324 72.5833 72.0642 71.4885 72.169C70.3664 72.2754 70.4679 71.1339 70.2406 70.4116C69.8843 69.2766 69.5796 68.1238 69.1749 66.7114C68.3833 70.6341 69.4796 73.9312 71.0484 77.2557C70.2664 77.296 69.6876 77.3266 68.9605 77.3621V83.0841C68.9605 83.6145 68.9653 84.1449 68.954 84.6754C68.9395 85.4041 68.8734 86.149 67.9044 86.0974C67.0499 86.0523 66.9532 85.3816 66.9564 84.6818C66.9613 83.1308 66.958 81.5814 66.958 80.032V77.367C66.0632 77.3524 66.3309 77.9587 66.3276 78.323C66.3034 80.4432 66.3115 82.5649 66.3212 84.685C66.3244 85.367 66.3324 86.0684 65.4296 86.1071C64.459 86.149 64.3768 85.3977 64.3719 84.6786C64.3558 82.2779 64.3655 79.8772 64.3655 77.4798C63.7157 77.1396 63.0499 77.4556 62.2937 77.209C63.7641 73.9651 65.0427 70.6776 64.143 66.7856C63.7319 67.9013 63.9673 68.859 63.9108 69.7845C63.8754 70.352 63.9173 70.926 63.8818 71.4951C63.8528 71.9014 63.6222 72.169 63.1885 72.1932C62.7806 72.2158 62.3679 72.0465 62.3969 71.6369C62.5452 69.5442 61.8197 67.4015 62.8467 65.3523C63.2788 64.493 64.0075 64.4204 64.7234 64.3543C65.8359 64.2511 66.9612 64.2624 68.0801 64.2705C69.686 64.2818 70.3986 64.8541 70.8613 66.4116C70.9725 66.792 71.1209 67.1629 71.166 67.553C71.2337 65.5409 71.1209 63.5191 71.0564 61.4957C70.9838 59.2176 71.8819 58.3051 74.1326 58.2486C75.7304 58.2083 77.3297 58.2083 78.9291 58.2438C81.1186 58.2922 81.944 59.0951 82.1246 61.3329C82.231 62.6292 82.2826 63.9319 82.3584 65.2314C82.4052 66.0198 82.4035 66.8146 82.6599 67.2209C83.0162 65.3314 82.6099 63.079 83.0033 60.8686C83.1871 59.8367 83.7836 59.0355 84.8494 58.8484C87.1517 58.447 89.4927 58.4373 91.7773 58.821C93.0075 59.0274 93.7733 60.0802 93.9119 61.4619C94.1199 63.5224 94.3601 65.5796 94.7068 67.645C94.8954 66.655 95.0792 65.6667 95.2743 64.68C95.4033 64.0335 95.7789 63.6998 96.448 63.7014C98.1216 63.7062 99.7951 63.6949 101.47 63.6901C102.207 63.6885 102.642 64.156 102.984 64.7316C103.644 65.8441 104.259 66.9824 104.935 68.0835C105.287 68.6543 105.224 69.175 104.895 69.6813C104.19 70.7615 103.458 71.8224 102.694 72.9542C101.059 71.1468 103.092 70.2182 103.469 68.8622C102.974 68.1883 102.452 67.4773 101.723 66.4858C101.723 68.2883 101.448 69.8602 101.789 71.2807C102.293 73.3879 102.017 75.3807 101.825 77.4557C101.627 79.5967 101.783 81.7733 101.781 83.9338C101.781 84.2594 101.789 84.5867 101.772 84.9124C101.738 85.6008 101.464 86.1313 100.709 86.1152C99.9418 86.0974 99.7209 85.5299 99.7177 84.8511C99.7113 82.731 99.7016 80.6109 99.7194 78.4923C99.7306 77.0445 99.205 75.6628 99.405 74.2359C98.7456 74.1183 98.8133 74.502 98.7649 74.8164C98.2941 77.9071 98.4618 81.0204 98.4102 84.1272C98.3957 84.914 98.7504 86.0668 97.4477 86.0797C96.1417 86.0926 96.4723 84.9366 96.4577 84.1466C96.4271 82.1893 96.7641 80.1643 96.382 78.2876C95.6451 74.6519 97.093 71.1049 96.3852 67.416C95.8628 68.593 95.8531 69.8377 95.5565 71.0001C95.4356 71.4612 95.471 72.0368 94.8761 72.169C94.0248 72.356 93.7411 71.7837 93.6105 71.0775C93.1268 68.4366 92.648 65.7941 92.1707 63.1532C92.0998 62.763 92.1546 62.2777 91.4259 62.4148Z" fill="#1F1B17"/>
<path d="M37.883 131.228C39.0874 131.189 40.066 131.913 41.1349 132.258C44.8706 133.467 48.5465 133.222 52.2209 132.137C56.2435 130.949 60.0276 129.119 63.9035 127.531C69.4948 125.237 75.1539 124.218 80.9323 126.857C82.2398 127.454 83.3636 126.841 84.4938 126.409C89.171 124.619 93.8191 125.019 98.2996 126.899C101.856 128.392 105.342 130.069 108.978 131.359C114.59 133.348 120.117 133.019 125.531 130.53C125.878 130.372 126.224 130.125 126.642 130.238C126.842 130.541 126.637 130.741 126.461 130.867C123.254 133.156 119.998 135.354 116.222 136.595C111.925 138.009 107.727 137.684 103.627 135.857C100.66 134.535 98.0159 132.652 95.3331 130.823C93.2355 129.392 91.1622 127.783 88.4761 127.602C87.5652 127.539 86.6607 127.533 85.6127 128.195C91.4701 131.262 96.5746 135.123 101.492 139.401C100.745 140.544 99.712 141.182 98.7753 141.898C98.3755 142.203 97.9708 141.966 97.5822 141.508C95.001 138.467 92.1086 135.752 88.9437 133.348C87.4281 132.2 85.853 131.131 84.3068 130.024C82.9364 129.043 81.603 128.997 80.0617 129.803C76.6453 131.592 73.719 133.979 70.9701 136.687C69.3385 138.296 68.0164 140.125 66.6153 141.906C66.1075 142.553 65.6383 142.678 65.0418 142.045C64.4646 141.434 63.9454 140.774 63.2183 140.302C62.8023 140.033 62.8088 139.568 63.2505 139.188C66.7056 136.197 69.9415 132.924 73.9157 130.609C75.3716 129.761 76.8646 128.976 78.4252 128.115C76.8823 127.397 75.4393 127.628 74.0076 127.958C71.5489 128.524 69.5174 129.948 67.5021 131.391C65.0691 133.132 62.7056 134.972 59.9986 136.282C56.1339 138.156 52.1742 138.565 48.0726 137.211C44.553 136.05 41.401 134.191 38.4473 131.96C38.2151 131.784 37.8733 131.654 37.883 131.228Z" fill="#C99631"/>
<path d="M71.1434 91.805C71.2934 90.6571 71.424 89.6559 71.5562 88.6498C73.2216 89.0158 73.6537 89.4511 73.4409 91.0263C73.2668 92.3081 73.7456 92.9368 74.8936 93.1319C76.6042 93.4221 78.3035 93.8058 80.0238 93.8961C80.3092 93.2947 80.2366 92.7482 80.1818 92.2403C80.0738 91.2101 80.5687 91.0182 81.449 90.9989C82.36 90.9795 82.684 91.3133 82.5938 92.2113C82.5406 92.7272 82.5841 93.2528 82.5841 93.8784C85.0364 93.8574 87.279 93.3092 89.5298 92.8401C89.9877 92.745 89.9538 92.308 90.0022 91.9501C90.2714 89.9831 90.3036 89.9445 92.2884 89.1351C92.2174 90.2331 92.1497 91.2988 92.0691 92.5644C99.629 89.9332 105.504 85.5704 107.945 77.7073C110.401 69.804 107.69 62.9841 102.41 56.8236C103.864 56.5334 104.356 57.4346 104.795 58.0683C105.464 59.0356 106.038 59.6144 106.986 58.5729C107.386 58.7422 107.35 59.0469 107.307 59.2436C107.016 60.5673 107.657 61.5911 108.289 62.6358C112.137 69.0059 112.24 75.5824 109.093 82.212C105.951 88.8272 100.861 93.1851 93.8797 95.1811C92.3416 95.6197 92.0272 95.5971 90.6277 95.1053C88.5947 96.9401 83.7208 97.7124 81.5877 96.4806C80.8671 97.2464 79.9819 97.1868 78.9807 97.032C77.3604 96.7805 75.7336 96.5919 74.1342 96.2081C73.3603 96.0243 72.5687 95.9082 71.9528 95.3053C71.7964 95.1537 71.5191 95.0183 71.316 95.0408C68.5252 95.352 66.3373 93.7591 64.201 92.4209C60.9829 90.4024 58.3791 87.6373 56.5363 84.2096C52.9732 77.5816 52.7249 71.0358 56.683 64.4077C57.8551 62.444 59.3014 60.7607 60.9684 59.3968C62.2663 58.3359 63.6787 56.9703 65.7408 57.1267C65.4957 57.8651 64.775 57.9377 64.3091 58.2714C63.1079 59.1291 61.8052 59.8079 61.3973 61.4556C61.228 62.136 60.3574 62.2505 59.8866 62.76C57.6665 65.1639 56.6782 68.0998 56.4686 71.2808C55.9623 78.9697 59.3513 84.7175 65.3812 89.011C67.1048 90.2379 69.0281 91.1295 71.1434 91.805Z" fill="#C99631"/>
<path d="M39.1931 118.283C37.9903 116.785 36.865 115.399 35.9041 113.874C33.4582 109.99 32.1362 105.745 31.5654 101.2C31.222 98.4603 30.6626 95.7533 29.7516 92.9028C30.9883 93.6413 31.459 94.7908 32.1717 95.6824C35.4897 99.8372 37.1826 104.806 38.7981 109.806C39.9154 113.269 41.0021 116.745 43.1722 119.736C43.7316 120.508 44.6297 120.99 45.0376 122.093C41.9727 121.142 38.8835 120.871 35.8493 120.278C32.4071 119.604 29.189 118.385 26.0354 116.919C23.2203 115.61 21.2485 113.266 19.1913 111.033C16.5133 108.129 15.2267 104.434 13.6644 100.898C13.6418 100.85 13.7144 100.756 13.7611 100.64C14.3867 100.671 14.5576 101.258 14.8414 101.637C18.0337 105.907 22.3594 108.595 27.0414 110.81C31.0947 112.731 34.8512 115.144 38.3112 118.032C38.495 118.183 38.6562 118.375 39.1931 118.283Z" fill="#C99631"/>
<path d="M119.031 121.921C120.163 120.068 121.571 118.64 122.482 116.846C124.124 113.605 125.063 110.103 126.174 106.674C127.633 102.166 129.829 98.0932 132.642 94.3447C132.966 93.9126 133.43 93.5901 133.942 93.2773C132.36 98.2867 132.558 103.66 130.643 108.557C129.387 111.772 127.878 114.845 125.276 117.202C125.198 117.274 125.148 117.403 125.132 117.513C125.118 117.621 125.168 117.737 125.184 117.832C125.645 118.079 125.88 117.732 126.148 117.518C130.254 114.237 134.812 111.743 139.502 109.461C142.878 107.82 145.753 105.485 148.229 102.633C148.734 102.051 148.845 101.116 149.769 100.845C150.232 101.864 149.622 102.614 149.274 103.443C148.197 106.013 146.875 108.426 145.194 110.645C142.482 114.219 138.903 116.568 134.907 118.355C131.597 119.833 128.041 120.26 124.539 120.928C122.778 121.263 121.013 121.565 119.031 121.921Z" fill="#C99631"/>
<path d="M31.1598 110.37C26.7486 107.228 22.0682 104.495 17.8602 101.038C14.6888 98.4329 12.0318 95.4664 10.4066 91.6211C9.05071 88.4127 8.60895 85.0576 8.86691 81.5928C8.88304 81.3751 8.81532 81.0881 9.19904 80.9205C9.85846 84.8576 12.2962 87.7033 14.8613 90.4248C18.2116 93.9782 21.52 97.5639 24.3834 101.546C24.6865 101.967 24.98 102.394 25.3605 102.939C25.3717 101.786 24.7607 101.001 24.3786 100.156C23.0936 97.314 22.855 94.3362 23.1307 91.2745C23.3967 88.3095 24.1077 85.4187 24.5559 82.4828C24.7607 81.1349 24.8332 79.7822 24.9429 78.4102C26.0393 80.4739 26.7099 82.652 26.8857 84.9689C27.2049 89.1898 27.4774 93.414 27.7902 97.6349C28.0965 101.769 28.9591 105.756 30.9115 109.44C31.0647 109.727 31.2356 110.007 31.1437 110.357L31.1598 110.37Z" fill="#C99631"/>
<path d="M138.056 103.487C139.499 101.669 140.724 99.679 142.285 97.9491C143.792 96.2788 145.32 94.6246 146.755 92.8914C148.914 90.2843 151.545 88.082 153.169 85.0074C153.717 83.9675 154.154 82.8856 154.707 81.5249C155.429 82.9469 155.229 84.2109 155.099 85.4298C154.954 86.7857 154.813 88.1722 154.41 89.4605C153.878 91.1566 153.132 92.7849 152.192 94.3069C151.175 95.9547 149.977 97.4541 148.645 98.8455C146.863 100.706 144.766 102.173 142.694 103.663C140.948 104.919 139.194 106.188 137.332 107.249C135.785 108.127 134.504 109.387 132.941 110.202C132.703 110.023 132.785 109.848 132.877 109.665C135.323 104.809 136.122 99.5678 136.414 94.1973C136.585 91.0679 136.701 87.9239 137.106 84.8236C137.39 82.6422 137.79 80.4205 138.867 78.4229C139.31 78.5954 139.137 78.9194 139.134 79.1613C139.086 82.1214 139.736 84.9977 140.327 87.8514C141.367 92.8608 140.975 97.6218 138.662 102.189C138.444 102.618 138.249 103.057 138.044 103.492L138.022 103.529L138.056 103.487Z" fill="#C99631"/>
<path d="M63.7965 125.575C58.3374 126.72 53.1636 128.798 47.6367 129.345C39.4448 130.156 32.5233 127.726 27.0464 121.356C26.3725 120.571 25.4809 119.976 25.0117 118.97C25.8565 118.671 26.4144 119.27 26.9545 119.663C31.4834 122.958 36.5153 124.422 42.0647 124.229C46.068 124.087 50.0632 124.229 54.0616 124.982C53.2039 124.603 52.3574 124.193 51.4852 123.85C48.7298 122.76 46.6242 120.916 45.2006 118.28C44.0268 116.105 42.8563 113.928 41.7277 111.729C41.2634 110.829 40.288 110.197 40.317 108.938C40.8087 108.901 41.0909 109.209 41.4278 109.452C45.2231 112.201 48.4719 115.566 51.669 118.971C54.8419 122.352 58.6485 124.455 63.1129 125.398C63.3418 125.446 63.5676 125.515 63.7965 125.575Z" fill="#C99631"/>
<path d="M138.938 118.532C138.062 120.616 136.685 121.895 135.315 123.13C133.828 124.47 132.34 125.845 130.552 126.769C126.515 128.855 122.244 129.75 117.701 129.447C112.667 129.11 107.879 127.657 103.047 126.367C102.089 126.111 101.072 126.092 100.008 125.606C103.332 124.924 106.331 123.757 109.016 121.863C110.791 120.613 112.269 119.007 113.769 117.44C116.359 114.733 119.047 112.133 121.941 109.764C122.288 109.479 122.701 108.995 123.341 109.192C123.354 109.3 123.415 109.438 123.373 109.519C121.583 112.834 119.994 116.263 117.988 119.449C116.389 121.993 113.941 123.417 111.205 124.384C110.689 124.568 110.139 124.687 109.741 125.218C113.272 124.308 116.858 124.152 120.453 124.197C122.781 124.225 125.103 124.21 127.395 123.794C130.97 123.146 134.252 121.801 137.024 119.333C137.111 119.254 137.217 119.188 137.325 119.144C137.761 118.972 138.198 118.811 138.938 118.532Z" fill="#C99631"/>
<path d="M18.6093 86.7337C18.4497 85.5842 18.2981 84.4314 18.1272 83.2835C17.5645 79.4914 18.2513 75.9186 19.8862 72.4957C21.6323 68.8407 23.9717 65.5065 25.5033 61.7161C25.6726 64.8068 25.2712 67.825 24.644 70.8206C23.6267 75.6816 22.016 80.3797 20.8648 85.2037C20.4489 86.9497 20.1022 88.6974 20.1941 90.508C20.2216 91.0675 20.199 91.6286 20.199 92.4444C19.0656 91.7817 18.54 90.7982 17.8757 90.0131C14.9075 86.5048 12.3408 82.6966 10.3561 78.5272C9.75954 77.2745 9.57412 75.817 9.22425 74.4466C8.05214 69.8565 8.61803 65.3179 9.64827 60.7971C9.69179 60.6117 9.82722 60.4504 10.0513 60.0312C10.3286 62.7205 10.9687 65.0583 11.9377 67.2961C12.768 69.2131 13.5693 71.1446 14.4673 73.0278C15.7975 75.817 16.3747 78.7916 16.8164 81.8227C17.0695 83.564 17.4259 85.2972 18.6093 86.7337Z" fill="#C99631"/>
<path d="M143.702 92.4819C143.793 89.9426 143.678 87.4823 143.044 85.0783C142.321 82.3294 141.556 79.5918 140.765 76.8622C139.335 71.9383 138.251 66.9371 138.324 61.4925C139.235 63.3353 140.01 64.9798 140.85 66.5888C142.037 68.8589 143.373 71.0403 144.429 73.3846C146.008 76.88 146.314 80.5011 145.714 84.2496C145.589 85.0348 145.466 85.82 145.292 86.9244C146.321 85.6797 146.722 84.4528 146.824 83.2533C147.296 77.6184 149.592 72.6171 151.831 67.5788C152.768 65.4747 153.452 63.274 153.644 60.9475C153.669 60.6508 153.689 60.3719 154.068 60.2349C155.743 65.4022 155.896 70.6437 154.408 75.8545C152.518 82.4729 148.265 87.5709 143.702 92.4819Z" fill="#C99631"/>
<path d="M16.8915 72.8781C16.2934 69.0231 14.3699 65.7196 13.2591 62.1274C12.0499 58.2225 11.4146 54.2692 12.1934 50.216C12.6851 47.6621 13.7315 45.284 15.1196 43.093C15.5936 42.3465 15.6259 41.3098 16.5142 40.8052C16.9657 41.1712 16.848 41.6468 16.7658 42.0531C16.0967 45.3856 16.4175 48.7214 16.8722 52.0201C17.4445 56.1717 17.2382 60.3056 17.0254 64.4524C17.0044 64.8474 16.8657 65.2537 17.143 65.6954C17.6316 65.4649 17.6235 64.9667 17.6412 64.5846C17.8266 60.857 19.5711 57.9291 22.0443 55.3205C24.1806 53.0649 26.5216 51.0077 28.4112 48.5135C28.6304 48.2233 28.9174 48.1362 29.3544 48.2329C29.3398 50.1467 28.5805 51.8831 28 53.6566C27.0972 56.4136 25.4897 58.7369 23.6985 60.9618C21.0205 64.2879 18.6747 67.8237 17.4268 72.0027C17.3429 72.2816 17.3446 72.6572 16.8915 72.8781Z" fill="#C99631"/>
<path d="M146.711 39.8643C147.954 40.7366 148.326 42.2134 149.057 43.4306C151.272 47.1195 152.502 51.0922 152.107 55.4791C151.807 58.7859 150.833 61.9218 149.721 65.0109C148.836 67.4728 147.517 69.7703 147.207 72.3564C146.622 72.4951 146.548 72.2097 146.443 71.8614C145.297 68.0968 143.381 64.7158 140.853 61.7976C137.368 57.7718 135.436 53.072 134.243 47.9595C134.217 47.8499 134.256 47.7241 134.27 47.5177C134.917 47.8224 135.177 48.44 135.602 48.8753C137.888 51.2002 140.2 53.5025 142.432 55.8822C144.57 58.1652 145.874 60.8947 146.266 64.0516C146.34 64.6433 146.401 65.2446 146.866 66.1072C146.866 64.7416 146.945 63.7146 146.853 62.7053C146.509 58.9148 146.604 55.1454 147.127 51.3759C147.66 47.5193 147.607 43.6757 146.706 39.8675L146.711 39.8643Z" fill="#C99631"/>
<path d="M136.058 29.3403C137.475 29.1629 138.274 30.1029 139.152 30.7026C142.644 33.0872 144.336 36.5681 144.821 40.7487C145.297 44.8616 145.035 48.9664 144.742 53.0745C144.69 53.7581 144.605 54.4385 144.523 55.243C143.686 54.7658 143.325 54.0032 142.902 53.3276C141.729 51.4445 140.092 50.1144 138.357 48.7729C134.049 45.4404 129.959 41.8434 128.142 36.3488C127.916 35.6684 127.734 34.9961 127.792 34.256C128.382 34.2254 128.653 34.6559 128.885 34.9783C130.264 36.905 131.989 38.4592 133.954 39.6991C137.671 42.0417 140.632 45.0792 142.82 48.9954C142.664 48.3682 142.594 47.7007 142.335 47.1203C141.103 44.3537 140.336 41.4613 139.952 38.4576C139.342 33.6772 138.496 32.4407 136.058 29.3403Z" fill="#C99631"/>
<path d="M28.0623 28.9287C26.7322 30.7457 25.3053 32.4838 24.6427 34.728C24.1655 36.3419 24.0252 38.0042 23.7753 39.6519C23.4142 42.0397 22.7451 44.3259 21.7954 46.5379C21.5987 46.9942 21.0957 47.4731 21.61 48.1873C22.0502 47.6359 22.5306 47.1764 22.8386 46.6185C24.4202 43.7584 26.8515 41.8204 29.4876 40.0856C31.5932 38.6991 33.5247 37.111 35.0338 35.0376C35.216 34.7877 35.3127 34.2202 35.7964 34.5007C36.2623 34.7716 35.9512 35.1811 35.8577 35.568C34.8984 39.5842 32.5122 42.6427 29.6295 45.4013C27.5448 47.3941 25.0845 48.8967 22.9676 50.8443C21.6052 52.0987 20.8007 53.8109 19.4786 55.162C19.4044 55.0362 19.3061 54.9492 19.3029 54.8573C19.0884 50.0608 18.5499 45.2723 19.1626 40.4613C19.8849 34.8071 23.0465 31.1456 28.0623 28.9287Z" fill="#C99631"/>
<path d="M138.312 40.8712C133.781 37.1484 129.87 33.0242 126.594 28.3341C124.935 25.9577 123.287 23.607 121.078 21.54C129.543 22.8379 137.73 32.0391 138.312 40.8712Z" fill="#C99631"/>
<path d="M25.6484 40.699C26.3869 31.9315 34.2467 22.9447 41.9324 22.0435C36.9601 28.6828 32.4506 35.6478 25.6484 40.699Z" fill="#C99631"/>
<path d="M74.297 55.1284C74.2825 53.5226 75.2902 52.2505 76.5881 52.236C77.9037 52.2215 78.9855 53.4597 79.0161 55.0139C79.0484 56.5681 77.8537 58.2755 76.709 58.3126C75.5497 58.3497 74.3099 56.7132 74.297 55.1284Z" fill="#1F1B17"/>
<path d="M90.8039 55.7953C90.7814 57.7848 89.7076 58.5636 88.3887 58.7313C87.2134 58.8828 86.0703 57.2399 86.1187 55.6566C86.1654 54.0476 87.2892 52.89 88.8289 52.8658C89.7334 52.8513 90.8426 54.4974 90.8039 55.7953Z" fill="#1F1B17"/>
<path d="M69.0626 62.6435C69.9058 61.2069 70.1444 62.5467 70.641 62.9756C70.4685 63.3464 69.9009 63.3593 69.9026 63.9526C69.435 63.3948 68.9932 63.0256 68.3854 62.9337C67.1794 64.5346 66.3878 64.5459 64.9061 62.9014C64.5192 63.2367 63.763 62.982 63.6744 63.9268C63.252 63.6285 62.9214 63.3947 62.5312 63.1191C62.8601 62.7531 63.1536 62.4242 63.3648 62.1888C63.9581 61.9534 63.7211 62.9885 64.3273 62.6225C64.7352 62.3774 64.8513 62.0147 64.8384 61.5987C64.8013 60.404 65.4769 59.7849 66.512 59.5866C67.2214 59.4511 68.3306 60.6055 68.5289 61.531C68.6047 61.8793 68.5773 62.2694 69.0626 62.6435Z" fill="#1F1B17"/>
<path d="M100.88 61.3396C100.869 62.6133 100.14 63.4614 99.0533 63.4614C98.0569 63.4614 97.2202 62.4602 97.2508 61.3025C97.2831 60.0853 98.0827 59.0744 99.0372 59.047C100.047 59.0179 100.891 60.0659 100.88 61.3396Z" fill="#1F1B17"/>
<path d="M91.0857 96.9116C91.1421 97.8467 91.392 98.7061 91.1986 99.7218C90.6279 99.8363 90.0265 99.9572 89.4396 100.073C88.4013 97.5597 88.6609 97.0374 91.0857 96.9116Z" fill="#C99631"/>
<path d="M94.4057 96.146C94.4573 96.441 94.5202 96.6716 94.5363 96.907C94.5798 97.5471 94.6056 98.1888 94.6411 98.924C93.9946 99.0803 93.3932 99.227 92.8096 99.3689C91.7374 97.0215 92.0421 96.3814 94.4057 96.146Z" fill="#C99631"/>
<path d="M70.5744 99.2481C68.6412 99.2013 68.1302 98.4242 68.738 96.6411C68.9202 96.1074 69.2748 96.0816 69.6715 96.2025C70.1519 96.3492 70.929 96.18 70.8791 97.0361C70.8404 97.7519 70.9291 98.4984 70.5744 99.2481Z" fill="#C99631"/>
<path d="M82.9472 100.77C80.4239 101.035 80.3401 100.946 80.7658 98.5855C81.0205 98.5517 81.2897 98.4937 81.5622 98.4808C81.954 98.4614 82.349 98.4759 82.7682 98.4759C83.0407 99.2659 82.8585 99.9882 82.9472 100.77Z" fill="#C99631"/>
<path d="M73.7726 100.012C73.2438 99.9282 72.7004 99.8428 72.099 99.7476C71.825 98.7867 72.0684 97.8693 72.1603 96.9487C74.4965 97.018 74.8641 97.7597 73.7726 100.012Z" fill="#C99631"/>
<path d="M146.703 39.8677C146.479 39.7613 146.451 39.5952 146.567 39.3711C146.774 39.4969 146.749 39.6774 146.708 39.8645L146.703 39.8677Z" fill="#C99631"/>
<path d="M143.48 92.7812L143.501 92.857L143.441 92.849L143.48 92.7812Z" fill="#C99631"/>
<path d="M31.1406 110.357L31.1922 110.37L31.1568 110.368L31.1406 110.357Z" fill="#C99631"/>
<path d="M138.057 103.487L138.023 103.529L138.046 103.492L138.057 103.487Z" fill="#FDFDFC"/>
</svg>
