<svg xmlns="http://www.w3.org/2000/svg" width="65" height="100" fill="none" viewBox="0 0 65 100"><g clip-path="url(#a)"><path fill="#1b69ff" d="M13.738 94.12a4.1 4.1 0 0 1-2.064-.529c-1.573-.888-2.44-2.762-2.44-5.274V38.062a16.4 16.4 0 0 1 7.177-12.905L48.38 5.941c2.033-1.222 3.993-1.42 5.514-.56 1.572.89 2.438 2.763 2.438 5.274v50.252a16.4 16.4 0 0 1-7.179 12.905L17.186 93.028a6.8 6.8 0 0 1-3.448 1.091M51.827 6.365a5.3 5.3 0 0 0-2.672.87L17.188 26.454c-3.557 2.137-6.45 7.344-6.45 11.615V88.32c0 1.945.594 3.353 1.676 3.965 1.03.583 2.452.392 3.997-.54L48.38 72.53c3.555-2.136 6.449-7.344 6.449-11.614V10.659c0-1.945-.596-3.353-1.675-3.964a2.67 2.67 0 0 0-1.328-.333z"/><path fill="#1b69ff" d="M4.503 89.257a4.1 4.1 0 0 1-2.063-.529C.866 87.84 0 85.966 0 83.455V33.202a16.4 16.4 0 0 1 7.179-12.905L39.146 1.082c2.035-1.222 3.993-1.42 5.515-.56 1.571.889 2.438 2.763 2.438 5.274V56.05a16.4 16.4 0 0 1-7.177 12.907L7.953 88.173a6.8 6.8 0 0 1-3.45 1.084M42.594 1.504a5.3 5.3 0 0 0-2.671.87L7.954 21.59C4.4 23.727 1.505 28.934 1.505 33.204v50.252c0 1.945.596 3.355 1.675 3.965 1.032.583 2.45.392 4-.54l31.967-19.216c3.557-2.136 6.45-7.344 6.45-11.616V5.801c0-1.946-.594-3.356-1.676-3.966a2.66 2.66 0 0 0-1.327-.331" opacity=".43"/><path fill="#fcfcfc" stroke="#000" stroke-width="1.5" d="M25.466 31.656c-3.773 2.268-6.814 7.738-6.814 12.261v50.25c0 4.522 3.04 6.338 6.814 4.07l31.968-19.216c3.774-2.268 6.813-7.738 6.813-12.26V16.514c0-4.523-3.04-6.339-6.813-4.071z"/><path fill="#27292b" d="M33.251 41.347a9.3 9.3 0 0 0-4.024 7.243v29.692c0 2.673 1.795 3.745 4.024 2.405l18.89-11.352a9.3 9.3 0 0 0 4.024-7.244V32.399c0-2.671-1.795-3.746-4.024-2.406zm0 2.226 18.89-11.353c1.207-.726 2.168-.152 2.168 1.295v29.693a4.98 4.98 0 0 1-2.168 3.9L33.25 78.46c-1.207.725-2.168.152-2.168-1.295V47.473a4.99 4.99 0 0 1 2.168-3.9m8.516-.479v3.862l-2.911-.181-.898 2.47 2.817.2-2.817 3.587.898 1.39 2.91-3.68v3.862l1.859-1.118v-3.86l2.911.18.898-2.47-2.817-.201 2.817-3.586-.898-1.391-2.911 3.68v-3.86zm-7.277 20.52a2.1 2.1 0 0 0-.93 1.671c0 .631.403.873.93.555l15.796-9.492a2.1 2.1 0 0 0 .929-1.672c0-.63-.403-.871-.929-.554zm0 5.567a2.1 2.1 0 0 0-.93 1.672c0 .63.403.871.93.554l8.206-4.93a2.1 2.1 0 0 0 .929-1.672c0-.63-.403-.87-.929-.554z"/></g><defs><clipPath id="a"><path fill="#fff" d="M0 0h65v100H0z"/></clipPath></defs></svg>