<svg xmlns="http://www.w3.org/2000/svg" width="164" height="164" fill="none" viewBox="0 0 164 164"><path fill="#fdfdfc" d="M146.711 39.865c.042-.187.067-.368-.14-.494-.116.224-.088.389.136.497.901 3.807.954 7.652.42 11.508a49.6 49.6 0 0 0-.274 11.328c.091 1.011.013 2.038.013 3.404-.464-.863-.527-1.466-.6-2.056-.391-3.157-1.696-5.886-3.834-8.17-2.231-2.38-4.543-4.681-6.829-7.006-.426-.436-.685-1.053-1.332-1.36-.014.209-.053.333-.027.444 1.193 5.112 3.124 9.812 6.61 13.838 2.528 2.918 4.443 6.297 5.59 10.064.105.347.179.632.764.495.31-2.586 1.628-4.885 2.514-7.346 1.112-3.09 2.086-6.225 2.386-9.531.395-4.387-.835-8.36-3.051-12.049-.73-1.217-1.104-2.694-2.346-3.566m-8.653 63.623-.011.005c.205-.435.4-.874.618-1.303 2.312-4.569 2.703-9.328 1.665-14.338-.592-2.853-1.243-5.73-1.193-8.69.003-.242.176-.567-.268-.74-1.077 1.998-1.476 4.22-1.76 6.4-.405 3.103-.521 6.247-.692 9.375-.292 5.372-1.093 10.613-3.537 15.469-.092.181-.176.357.064.537 1.563-.817 2.844-2.075 4.39-2.955 1.863-1.059 3.617-2.328 5.363-3.584 2.072-1.49 4.169-2.957 5.951-4.82 1.33-1.389 2.528-2.888 3.545-4.536a21.4 21.4 0 0 0 2.219-4.847c.403-1.288.545-2.674.69-4.03.13-1.22.33-2.485-.392-3.905-.553 1.36-.99 2.44-1.538 3.48-1.624 3.077-4.255 5.278-6.414 7.885-1.435 1.734-2.965 3.389-4.471 5.059-1.56 1.728-2.787 3.718-4.229 5.538m-106.898 6.88.035.003-.051-.015c.092-.349-.08-.63-.232-.917-1.953-3.684-2.815-7.671-3.122-11.805-.312-4.22-.585-8.445-.904-12.666-.176-2.317-.847-4.495-1.943-6.559-.11 1.372-.182 2.725-.387 4.073-.448 2.936-1.16 5.827-1.425 8.792-.276 3.061-.037 6.04 1.248 8.882.382.846.993 1.63.982 2.782-.38-.545-.674-.972-.977-1.391-2.864-3.984-6.172-7.568-9.522-11.123-2.566-2.722-5.003-5.567-5.663-9.504-.384.169-.316.454-.332.674-.258 3.463.184 6.818 1.54 10.026 1.625 3.846 4.282 6.812 7.453 9.419 4.208 3.455 8.889 6.188 13.3 9.329m21.806-17.576c.07.621.45.829.743 1.085q4.605 4.013 9.229 8.004c.643.556 1.283 1.12 1.715 1.863.371.639 1.105 1.31.592 2.071-.5.746-1.388.401-2.122.256-5.24-1.037-9.201-4.2-12.703-8.058-2.936-3.236-4.62-7.204-6.068-11.286-.436-1.23-.882-2.45-1.785-3.42-.432-.464-.901-1.15-1.587-.82-.646.313-.535 1.103-.472 1.757.008.08.024.161.035.242.765 6.126 2.55 11.926 5.472 17.338 4.404 8.152 10.56 14.461 18.862 18.504 6.474 3.154 13.332 3.858 20.384 3.452 6.106-.351 11.82-2.041 17.053-5.259 9.913-6.091 16.096-15.096 19.493-26.228.856-2.807 1.468-5.672 1.672-8.612.035-.514.053-1.144-.523-1.394-.572-.247-.969.22-1.335.583-.845.837-1.428 1.838-1.807 2.98-1.053 3.18-2.283 6.315-4.018 9.148-1.391 2.27-3.323 4.168-5.362 5.912-2.994 2.564-6.299 4.437-10.19 5.15-.588.108-1.143.098-1.512-.387-.35-.46-.02-.945.198-1.364.395-.758.898-1.434 1.55-1.996 3.293-2.847 6.576-5.706 9.86-8.563.332-.289.752-.566.623-1.093-.152-.613-.707-.58-1.171-.63-1.021-.107-1.977.166-2.923.536-4.629 1.813-8.706 4.515-12.237 8.039-5.888 5.88-10.096 12.798-12.228 20.961-.082.315-.103.645-.179.961-.064.274-.166.54-.348 1.113-1.26-6.527-4.005-11.994-7.718-16.974-4.67-6.262-10.396-11.146-17.809-13.729-1.088-.379-2.209-.732-3.384-.142m38.46-30.376c.73-.14.675.348.745.736q.716 3.964 1.44 7.925c.13.706.415 1.28 1.266 1.091.595-.13.56-.706.679-1.167.298-1.164.308-2.407.83-3.584.708 3.689-.74 7.234-.003 10.871.38 1.877.043 3.9.076 5.858.014.791-.317 1.947.99 1.934 1.302-.012.948-1.165.962-1.954.052-3.105-.116-6.22.355-9.31.048-.315-.02-.699.64-.58-.2 1.428.325 2.81.313 4.255-.017 2.12-.007 4.24-.002 6.36.003.68.226 1.247.993 1.263.753.016 1.027-.512 1.063-1.2.017-.328.009-.654.009-.98.002-2.162-.155-4.337.044-6.48.192-2.074.467-4.067-.036-6.173-.341-1.42-.066-2.994-.066-4.794l1.746 2.374c-.377 1.356-2.41 2.287-.775 4.092.764-1.132 1.496-2.19 2.199-3.273.33-.504.393-1.027.042-1.596-.676-1.1-1.292-2.24-1.951-3.352-.342-.575-.779-1.044-1.514-1.041-1.675.005-3.349.016-5.022.01-.67-.002-1.045.333-1.174.978-.195.987-.379 1.977-.567 2.965-.347-2.065-.587-4.12-.795-6.181-.139-1.382-.905-2.435-2.135-2.641a20.5 20.5 0 0 0-6.928.027c-1.065.186-1.662.989-1.846 2.019-.393 2.212.013 4.464-.345 6.354-.255-.407-.253-1.203-.3-1.99-.076-1.301-.127-2.602-.234-3.898-.18-2.238-1.006-3.041-3.197-3.09a101 101 0 0 0-4.795.004c-2.25.056-3.148.969-3.076 3.247.065 2.025.176 4.045.108 6.057-.043-.39-.192-.76-.303-1.14-.463-1.557-1.175-2.13-2.781-2.14-1.119-.009-2.244-.02-3.357.081-.716.067-1.446.14-1.877.998-1.026 2.05-.301 4.194-.45 6.285-.028.411.384.58.792.556.434-.024.665-.29.692-.698.037-.567-.005-1.141.029-1.71.058-.926-.177-1.882.234-2.998.9 3.892-.38 7.18-1.85 10.422.757.248 1.42-.068 2.072.273 0 2.395-.01 4.796.007 7.198.005.718.087 1.47 1.057 1.429.903-.04.895-.74.892-1.424-.01-2.12-.018-4.24.006-6.362.004-.363-.264-.97.63-.956v2.667c0 1.55.004 3.099 0 4.648-.004.701.093 1.37.947 1.416.97.053 1.035-.694 1.05-1.422.011-.53.006-1.06.006-1.59v-5.722l2.088-.107c-1.569-3.326-2.665-6.621-1.873-10.545.404 1.413.71 2.565 1.065 3.701.228.721.126 1.864 1.248 1.758 1.095-.105.868-1.237.958-1.97.298-2.385.497-4.782.742-7.174.025-.248-.087-.614.391-.622.34.32.171.75.173 1.12.013 5.058.008 10.114.01 15.17q-.002 2.877.01 5.752c.004.896.227 1.676 1.302 1.655 1.08-.019 1.256-.815 1.248-1.709q-.002-.306-.002-.612c0-3.71-.005-7.422.007-11.131.001-.39-.133-.813.145-1.18.801-.063.525.55.527.918.016 3.915.008 7.83.016 11.744.002.405.015.822.116 1.208.158.603.64.798 1.21.769.572-.028 1.015-.278 1.114-.9.06-.4.064-.81.064-1.217.006-6.81.005-13.62.023-20.43 0-.396-.215-.89.354-1.271.389.44.371.986.447 1.468.355 2.253.658 4.512 1.02 6.76.12.738.14 1.657 1.206 1.673 1.06.013 1.12-.837 1.226-1.62.243-1.776.437-3.559.764-5.316.205-1.102.052-2.317.935-3.628.801 7.57-1.403 14.48-2.091 21.65h2.177c.032.632.04 1.157.09 1.678.072.77.51 1.17 1.27 1.156.789-.016 1.134-.498 1.17-1.254.012-.244-.027-.49-.006-.732.033-.32-.216-.834.382-.827.505.004.308.464.334.752.024.284-.006.573.024.855.09.816.539 1.262 1.355 1.204.819-.058 1.215-.535 1.15-1.388-.033-.427-.209-.866.03-1.264.708-.245 1.453.08 2.117-.222-.655-6.967-2.65-13.727-2.07-20.82m-53.543 68.811c-.01.426.332.556.564.732 2.956 2.232 6.108 4.09 9.626 5.253 4.101 1.353 8.061.943 11.927-.93 2.706-1.311 5.07-3.151 7.502-4.892 2.016-1.443 4.049-2.867 6.506-3.432 1.431-.331 2.874-.562 4.417.158-1.559.859-3.052 1.644-4.508 2.492-3.974 2.315-7.211 5.588-10.665 8.579-.442.382-.45.845-.032 1.116.726.47 1.246 1.13 1.822 1.741.596.634 1.066.508 1.573-.139 1.401-1.781 2.724-3.61 4.355-5.219 2.75-2.708 5.675-5.094 9.093-6.884 1.542-.806 2.875-.759 4.245.222 1.547 1.106 3.12 2.175 4.637 3.325a54.5 54.5 0 0 1 8.637 8.158c.389.458.794.695 1.194.39.938-.714 1.97-1.354 2.716-2.497-4.917-4.278-10.022-8.137-15.88-11.205 1.05-.663 1.953-.655 2.866-.594 2.686.181 4.758 1.791 6.857 3.222 2.683 1.828 5.325 3.711 8.292 5.033 4.1 1.827 8.3 2.152 12.596.738 3.776-1.241 7.032-3.439 10.238-5.728.178-.126.382-.326.183-.629-.418-.111-.766.134-1.113.294-5.412 2.489-10.941 2.816-16.552.827-3.635-1.29-7.121-2.967-10.678-4.458-4.482-1.882-9.13-2.28-13.807-.492-1.13.432-2.254 1.045-3.562.448-5.778-2.639-11.435-1.62-17.028.674-3.875 1.588-7.659 3.418-11.683 4.606-3.673 1.086-7.35 1.331-11.086.121-1.069-.345-2.047-1.069-3.252-1.03m33.261-39.422c-2.115-.675-4.038-1.567-5.762-2.795-6.03-4.292-9.419-10.04-8.913-17.729.21-3.18 1.198-6.117 3.417-8.52.47-.512 1.343-.625 1.51-1.305.41-1.648 1.713-2.326 2.914-3.186.466-.333 1.185-.404 1.432-1.143-2.063-.156-3.475 1.208-4.773 2.27-1.667 1.364-3.113 3.047-4.285 5.01-3.958 6.63-3.71 13.174-.147 19.802 1.843 3.427 4.447 6.194 7.665 8.21 2.136 1.34 4.324 2.934 7.115 2.622.203-.022.48.112.637.265.616.603 1.407.717 2.181.903 1.598.382 3.226.572 4.847.823 1 .155 1.886.215 2.607-.55 2.133 1.23 7.007.459 9.04-1.378 1.4.494 1.713.516 3.25.076 6.981-1.994 12.073-6.352 15.215-12.968 3.147-6.63 3.044-13.207-.805-19.577-.632-1.045-1.272-2.067-.981-3.392.043-.197.077-.502-.321-.67-.95 1.042-1.522.463-2.191-.504-.441-.634-.931-1.535-2.387-1.247 5.282 6.161 7.991 12.98 5.537 20.884-2.443 7.863-8.316 12.228-15.876 14.859.08-1.266.148-2.331.22-3.431-1.985.811-2.018.85-2.287 2.817-.048.358-.014.793-.472.888-2.251.47-4.494 1.017-6.946 1.04 0-.626-.043-1.151.008-1.669.092-.896-.234-1.232-1.143-1.21-.88.019-1.375.209-1.267 1.24.053.509.127 1.054-.158 1.655-1.72-.089-3.42-.472-5.13-.763-1.148-.196-1.627-.823-1.453-2.105.211-1.577-.221-2.012-1.885-2.377zm-31.95 26.477c-.537.092-.698-.098-.88-.251a52.8 52.8 0 0 0-11.272-7.22c-4.682-2.217-9.006-4.905-12.2-9.174-.284-.38-.455-.966-1.08-.998-.045.118-.118.21-.097.258 1.563 3.537 2.85 7.233 5.527 10.136 2.059 2.232 4.03 4.578 6.844 5.887 3.155 1.465 6.372 2.683 9.814 3.357 3.034.593 6.125.864 9.19 1.817-.41-1.105-1.306-1.585-1.867-2.359-2.17-2.991-3.257-6.467-4.374-9.928-1.614-5.002-3.307-9.97-6.626-14.126-.713-.89-1.184-2.04-2.42-2.78a45.4 45.4 0 0 1 1.813 8.299c.571 4.545 1.893 8.79 4.34 12.674.961 1.525 2.087 2.912 3.288 4.408m79.838 3.639c1.98-.356 3.747-.658 5.507-.993 3.502-.668 7.059-1.096 10.369-2.575 3.995-1.785 7.574-4.134 10.286-7.708 1.68-2.219 3.004-4.632 4.081-7.204.348-.827.958-1.577.495-2.597-.924.272-1.035 1.207-1.54 1.788-2.476 2.852-5.351 5.188-8.727 6.829-4.69 2.282-9.248 4.776-13.355 8.057-.267.214-.503.559-.964.314-.016-.095-.066-.212-.051-.32a.56.56 0 0 1 .143-.31c2.602-2.357 4.112-5.43 5.368-8.645 1.915-4.897 1.717-10.27 3.298-15.28-.511.313-.975.636-1.299 1.066-2.814 3.75-5.01 7.823-6.469 12.331-1.111 3.429-2.049 6.931-3.692 10.17-.911 1.796-2.318 3.223-3.45 5.077m-55.233 3.653c-.228-.059-.455-.129-.684-.177-4.464-.943-8.27-3.045-11.444-6.425-3.197-3.407-6.444-6.771-10.24-9.519-.338-.245-.62-.553-1.112-.516-.029 1.261.948 1.892 1.411 2.791a359 359 0 0 0 3.473 6.551c1.423 2.638 3.53 4.482 6.284 5.57.873.344 1.72.753 2.577 1.132-3.997-.753-7.994-.895-11.997-.753-5.55.194-10.581-1.269-15.109-4.566-.54-.393-1.1-.99-1.944-.693.47 1.008 1.36 1.601 2.035 2.386 5.477 6.37 12.398 8.802 20.59 7.991 5.527-.549 10.7-2.627 16.16-3.772m75.141-7.042c-.74.279-1.178.44-1.612.613-.11.042-.214.108-.303.187-2.772 2.47-6.054 3.814-9.629 4.462-2.291.416-4.614.431-6.94.402-3.597-.044-7.181.113-10.714 1.022.398-.53.948-.65 1.464-.833 2.738-.969 5.183-2.391 6.783-4.936 2.007-3.187 3.597-6.615 5.385-9.93.043-.08-.018-.219-.031-.328-.642-.196-1.054.288-1.399.572-2.894 2.368-5.582 4.969-8.175 7.678-1.497 1.567-2.976 3.171-4.751 4.422-2.684 1.894-5.683 3.062-9.008 3.744 1.063.485 2.08.503 3.039.761 4.832 1.289 9.621 2.742 14.654 3.077 4.544.304 8.815-.59 12.85-2.676 1.79-.924 3.278-2.301 4.764-3.639 1.369-1.235 2.748-2.513 3.623-4.598M18.61 86.733c-1.185-1.436-1.54-3.17-1.793-4.91-.442-3.032-1.019-6.006-2.349-8.796-.898-1.883-1.7-3.814-2.53-5.731a24.1 24.1 0 0 1-1.886-7.265c-.224.419-.36.58-.403.766-1.03 4.52-1.598 9.059-.424 13.65.35 1.37.535 2.827 1.132 4.08 1.985 4.17 4.55 7.977 7.52 11.486.664.785 1.19 1.768 2.323 2.432 0-.817.022-1.378-.005-1.937-.092-1.811.253-3.559.67-5.305 1.152-4.824 2.762-9.522 3.78-14.383.627-2.995 1.028-6.014.86-9.104-1.533 3.79-3.872 7.124-5.618 10.78-1.635 3.422-2.323 6.995-1.76 10.787.172 1.148.323 2.3.483 3.45m125.094 5.748c4.563-4.911 8.815-10.009 10.704-16.627 1.49-5.21 1.335-10.453-.34-15.62-.377.139-.398.416-.422.714-.192 2.327-.876 4.526-1.812 6.631-2.24 5.037-4.536 10.039-5.01 15.673-.1 1.2-.501 2.428-1.53 3.672.173-1.103.297-1.89.423-2.675.599-3.747.291-7.37-1.285-10.865-1.056-2.343-2.395-4.526-3.58-6.794-.84-1.611-1.617-3.256-2.526-5.098-.073 5.444 1.011 10.447 2.439 15.37a336 336 0 0 1 2.28 8.217c.635 2.402.748 4.863.659 7.402M16.891 72.878c.453-.221.452-.597.534-.876 1.25-4.179 3.595-7.713 6.273-11.04 1.792-2.226 3.399-4.55 4.302-7.306.58-1.774 1.34-3.51 1.354-5.424-.437-.096-.724-.01-.943.28-1.89 2.495-4.23 4.554-6.367 6.81-2.473 2.606-4.218 5.536-4.403 9.262-.018.384-.01.88-.498 1.11-.277-.44-.139-.847-.12-1.24.215-4.15.421-8.283-.151-12.434-.456-3.3-.776-6.635-.106-9.966.082-.406.2-.884-.252-1.248-.888.505-.92 1.541-1.394 2.288-1.39 2.19-2.435 4.57-2.927 7.123-.778 4.053-.143 8.005 1.064 11.91 1.113 3.592 3.036 6.895 3.634 10.75M136.062 29.34c2.438 3.102 3.286 4.338 3.894 9.119.385 3.002 1.151 5.894 2.383 8.66.26.583.329 1.25.487 1.877-2.19-3.916-5.151-6.955-8.866-9.297-1.967-1.24-3.69-2.794-5.071-4.721-.23-.323-.501-.751-1.093-.72-.058.738.126 1.41.35 2.09 1.817 5.496 5.907 9.093 10.215 12.424 1.735 1.342 3.372 2.674 4.547 4.555.421.677.784 1.438 1.619 1.916.082-.805.169-1.485.219-2.169.295-4.106.556-8.211.079-12.326-.485-4.18-2.177-7.66-5.669-10.046-.878-.6-1.676-1.538-3.094-1.362m-107.998-.411c-5.015 2.217-8.177 5.878-8.898 11.532-.614 4.811-.076 9.6.139 14.396.003.092.101.18.176.305 1.322-1.351 2.126-3.063 3.489-4.318 2.117-1.947 4.577-3.45 6.662-5.443 2.882-2.758 5.268-5.817 6.23-9.833.091-.387.404-.796-.064-1.067-.483-.28-.58.287-.762.537-1.51 2.073-3.44 3.661-5.546 5.048-2.636 1.734-5.068 3.672-6.65 6.532-.307.558-.788 1.018-1.228 1.57-.514-.715-.011-1.194.186-1.65a28 28 0 0 0 1.98-6.886c.25-1.648.391-3.31.867-4.924.662-2.244 2.09-3.982 3.42-5.8M138.313 40.87c-.582-8.832-8.771-18.032-17.235-19.331 2.21 2.067 3.858 4.417 5.517 6.794 3.276 4.691 7.188 8.816 11.718 12.537m-112.665-.173c6.802-5.051 11.311-12.015 16.284-18.655-7.686.9-15.546 9.888-16.285 18.655m48.65 14.43c.014 1.585 1.253 3.221 2.412 3.184 1.145-.037 2.34-1.744 2.309-3.298-.033-1.555-1.115-2.793-2.428-2.778-1.298.014-2.306 1.286-2.293 2.892m16.505.667c.04-1.297-1.07-2.945-1.974-2.93-1.541.025-2.665 1.183-2.712 2.79-.046 1.585 1.097 3.226 2.27 3.076 1.32-.169 2.393-.948 2.416-2.936m-21.737 6.848c-.485-.374-.458-.764-.532-1.113-.198-.925-1.31-2.08-2.017-1.944-1.035.198-1.71.817-1.675 2.012.013.416-.103.779-.51 1.024-.607.366-.37-.67-.964-.434l-.833.932c.392.274.722.508 1.143.806.09-.943.845-.69 1.233-1.025 1.48 1.644 2.272 1.633 3.48.032.606.092 1.05.461 1.515 1.02-.002-.594.566-.607.74-.978-.496-.427-.737-1.767-1.58-.332m31.817-1.303c.011-1.274-.832-2.323-1.842-2.294-.956.027-1.755 1.038-1.788 2.255-.029 1.158.806 2.16 1.803 2.16 1.087 0 1.815-.847 1.827-2.121m-9.797 35.572c-2.424.125-2.684.648-1.647 3.161.588-.116 1.19-.237 1.76-.351.194-1.016-.056-1.875-.113-2.81m3.322-.766c-2.364.235-2.67.875-1.598 3.223.585-.142 1.186-.289 1.833-.445-.035-.736-.061-1.377-.105-2.017-.016-.236-.079-.466-.13-.761m-23.833 3.102c.355-.75.266-1.497.306-2.212.049-.856-.727-.687-1.207-.834-.397-.12-.753-.095-.935.44-.607 1.782-.095 2.559 1.836 2.606m12.371 1.522c-.089-.782.094-1.504-.179-2.295-.42 0-.814-.014-1.206.005-.272.013-.542.071-.795.105-.427 2.36-.343 2.449 2.18 2.185m-9.17-.758c1.09-2.252.723-2.994-1.614-3.063-.09.92-.336 1.838-.06 2.799zm69.706-7.231-.039.068.06.008z"/><path fill="#1f1b17" d="M52.965 92.792c1.175-.59 2.296-.235 3.382.142 7.415 2.583 13.14 7.467 17.811 13.73 3.713 4.979 6.457 10.446 7.718 16.973.18-.573.282-.839.348-1.113.075-.316.097-.646.18-.961 2.13-8.163 6.337-15.081 12.227-20.961 3.529-3.524 7.608-6.227 12.237-8.039.946-.37 1.901-.643 2.923-.537.463.05 1.019.02 1.17.63.129.53-.29.805-.622 1.094-3.284 2.857-6.567 5.715-9.861 8.563-.652.562-1.154 1.238-1.549 1.996-.218.419-.548.906-.198 1.364.367.487.924.495 1.51.387 3.891-.711 7.196-2.586 10.192-5.15 2.038-1.745 3.969-3.642 5.362-5.912 1.735-2.833 2.965-5.967 4.018-9.148.377-1.142.962-2.143 1.807-2.98.366-.363.763-.83 1.334-.583.577.25.559.88.522 1.394-.203 2.94-.814 5.805-1.672 8.611-3.395 11.133-9.579 20.138-19.492 26.229-5.234 3.218-10.948 4.908-17.053 5.259-7.052.408-13.91-.298-20.383-3.45-8.301-4.045-14.46-10.354-18.862-18.506-2.923-5.412-4.708-11.212-5.473-17.338-.01-.08-.028-.162-.036-.242-.061-.655-.172-1.445.473-1.757.686-.331 1.154.358 1.588.82.902.97 1.347 2.191 1.784 3.42 1.448 4.082 3.131 8.05 6.067 11.286 3.502 3.858 7.465 7.021 12.703 8.058.734.145 1.623.49 2.124-.255.511-.763-.221-1.433-.592-2.072-.433-.743-1.072-1.307-1.715-1.863q-4.625-3.99-9.23-8.004c-.292-.254-.673-.464-.742-1.085"/><path fill="#1f1b17" d="M91.426 62.415c-.577 7.092 1.415 13.852 2.07 20.82-.664.3-1.41-.022-2.117.223-.238.398-.063.837-.03 1.263.066.852-.331 1.33-1.15 1.39-.816.057-1.264-.39-1.354-1.205-.031-.284 0-.572-.025-.856-.025-.289.171-.748-.333-.753-.598-.007-.35.51-.382.827-.021.242.017.49.004.734-.035.756-.38 1.236-1.168 1.252-.761.016-1.197-.385-1.27-1.156-.05-.52-.057-1.046-.091-1.678h-2.177c.689-7.17 2.893-14.08 2.091-21.65-.883 1.313-.73 2.528-.935 3.628-.327 1.757-.52 3.542-.762 5.316-.108.783-.168 1.635-1.227 1.62-1.066-.015-1.087-.935-1.206-1.67-.363-2.25-.666-4.51-1.02-6.762-.075-.482-.059-1.029-.446-1.469-.57.382-.356.875-.356 1.272-.018 6.81-.016 13.62-.023 20.43 0 .406-.003.818-.064 1.218-.099.62-.542.87-1.114.9-.57.027-1.051-.166-1.21-.77-.101-.386-.114-.804-.116-1.207-.008-3.915 0-7.83-.016-11.744-.001-.369.274-.982-.527-.919-.277.368-.143.789-.145 1.179-.011 3.71-.007 7.421-.007 11.133q0 .305.002.61c.008.895-.168 1.692-1.248 1.711-1.075.021-1.298-.76-1.302-1.657q-.012-2.873-.01-5.75c-.002-5.057.003-10.113-.01-15.17-.001-.372.168-.8-.172-1.12-.48.008-.366.373-.392.622-.245 2.391-.442 4.789-.74 7.173-.092.732.135 1.864-.96 1.969-1.122.106-1.02-1.035-1.247-1.757-.357-1.135-.661-2.288-1.066-3.7-.792 3.922.305 7.22 1.873 10.544l-2.088.106v5.722c0 .53.005 1.06-.006 1.591-.014.73-.08 1.474-1.05 1.422-.854-.045-.95-.715-.948-1.415.005-1.551.002-3.1.002-4.65v-2.665c-.895-.015-.627.592-.63.956-.025 2.12-.017 4.242-.007 6.362.003.682.011 1.383-.891 1.422-.971.042-1.053-.71-1.058-1.428-.016-2.401-.007-4.802-.007-7.2-.65-.34-1.315-.023-2.071-.27 1.47-3.244 2.749-6.531 1.849-10.423-.411 1.115-.176 2.073-.232 2.998-.036.568.006 1.142-.03 1.711-.028.406-.259.674-.693.698-.407.023-.82-.147-.791-.556.148-2.093-.577-4.236.45-6.285.432-.859 1.16-.932 1.876-.998 1.113-.103 2.238-.092 3.357-.084 1.606.012 2.319.584 2.781 2.142.111.38.26.75.305 1.141.068-2.012-.045-4.034-.11-6.057-.072-2.278.826-3.19 3.077-3.247q2.397-.059 4.796-.005c2.19.048 3.015.851 3.196 3.089.106 1.296.158 2.599.233 3.898.047.789.045 1.584.302 1.99.356-1.89-.05-4.142.343-6.352.184-1.032.78-1.834 1.846-2.02a20.5 20.5 0 0 1 6.928-.028c1.23.206 1.996 1.26 2.135 2.64.208 2.061.448 4.119.795 6.184.188-.99.372-1.978.567-2.965.13-.647.505-.98 1.174-.979 1.674.005 3.347-.006 5.022-.01.737-.003 1.172.465 1.514 1.04.66 1.113 1.275 2.251 1.951 3.353.352.57.289 1.091-.04 1.597-.705 1.08-1.437 2.141-2.201 3.273-1.635-1.807.398-2.736.775-4.092l-1.746-2.376c0 1.802-.275 3.374.066 4.795.504 2.107.228 4.1.036 6.175-.198 2.14-.042 4.317-.044 6.478 0 .325.008.653-.009.978-.034.689-.308 1.22-1.063 1.203-.767-.018-.988-.585-.991-1.264-.007-2.12-.016-4.24.001-6.359.012-1.448-.514-2.83-.314-4.256-.66-.118-.592.266-.64.58-.47 3.091-.303 6.204-.355 9.311-.014.787.34 1.94-.962 1.953-1.306.013-.976-1.143-.99-1.933-.03-1.958.306-3.983-.076-5.86-.737-3.635.711-7.182.003-10.871-.522 1.177-.532 2.422-.829 3.584-.12.461-.085 1.037-.68 1.169-.851.187-1.135-.385-1.266-1.091q-.724-3.963-1.44-7.925c-.07-.39-.015-.875-.744-.738"/><path fill="#c99631" d="M37.883 131.228c1.204-.039 2.183.685 3.252 1.03 3.736 1.209 7.412.964 11.086-.121 4.023-1.188 7.807-3.018 11.683-4.606 5.59-2.294 11.25-3.313 17.028-.674 1.308.597 2.432-.016 3.562-.448 4.677-1.79 9.325-1.39 13.806.49 3.556 1.493 7.042 3.17 10.678 4.46 5.612 1.989 11.139 1.66 16.553-.829.347-.158.693-.405 1.111-.292.2.303-.005.503-.181.629-3.207 2.289-6.463 4.487-10.239 5.728-4.297 1.414-8.495 1.089-12.595-.738-2.967-1.322-5.611-3.205-8.294-5.034-2.097-1.431-4.17-3.04-6.857-3.221-.91-.063-1.815-.069-2.863.593 5.857 3.067 10.962 6.928 15.879 11.206-.747 1.143-1.78 1.781-2.717 2.497-.4.305-.804.068-1.193-.39a54.7 54.7 0 0 0-8.638-8.16c-1.516-1.148-3.091-2.217-4.637-3.324-1.37-.981-2.704-1.027-4.245-.221-3.417 1.789-6.343 4.176-9.092 6.884-1.632 1.609-2.954 3.438-4.355 5.219-.507.647-.977.772-1.573.139-.577-.611-1.097-1.271-1.824-1.743-.416-.269-.41-.734.032-1.114 3.456-2.991 6.692-6.264 10.666-8.579 1.456-.848 2.949-1.633 4.51-2.494-1.544-.718-2.987-.487-4.418-.157-2.46.566-4.49 1.99-6.506 3.433-2.433 1.741-4.796 3.581-7.503 4.891-3.865 1.874-7.825 2.283-11.926.929-3.52-1.161-6.672-3.02-9.626-5.251-.232-.176-.574-.306-.564-.732M71.143 91.805l.413-3.155c1.666.366 2.098.801 1.885 2.376-.174 1.282.305 1.91 1.453 2.106 1.71.29 3.41.674 5.13.764.285-.601.213-1.148.158-1.656-.108-1.03.387-1.222 1.267-1.241.911-.02 1.235.314 1.145 1.212-.053.516-.01 1.042-.01 1.667 2.452-.02 4.695-.569 6.946-1.038.458-.095.424-.532.472-.89.27-1.967.302-2.005 2.286-2.815l-.219 3.43c7.56-2.632 13.435-6.995 15.876-14.858 2.456-7.903-.255-14.723-5.535-20.883 1.454-.29 1.946.61 2.385 1.244.669.968 1.243 1.546 2.191.505.4.17.364.474.321.67-.291 1.324.35 2.348.982 3.393 3.848 6.37 3.951 12.946.804 19.576-3.142 6.615-8.232 10.973-15.213 12.97-1.538.438-1.853.415-3.252-.077-2.033 1.835-6.907 2.607-9.04 1.376-.72.765-1.606.706-2.607.551-1.62-.251-3.247-.44-4.847-.824-.774-.184-1.565-.3-2.181-.903-.157-.151-.434-.287-.637-.264-2.79.311-4.979-1.282-7.115-2.62a21.75 21.75 0 0 1-7.665-8.211c-3.563-6.628-3.811-13.174.147-19.802 1.172-1.964 2.618-3.647 4.285-5.011 1.298-1.061 2.71-2.427 4.773-2.27-.245.738-.966.81-1.432 1.144-1.201.858-2.504 1.537-2.912 3.185-.169.68-1.04.794-1.51 1.304-2.22 2.404-3.209 5.34-3.418 8.52-.507 7.69 2.882 13.438 8.912 17.731 1.724 1.227 3.647 2.118 5.762 2.794M39.193 118.283c-1.203-1.498-2.328-2.884-3.289-4.409-2.446-3.884-3.768-8.129-4.339-12.674a45.4 45.4 0 0 0-1.813-8.297c1.236.738 1.707 1.888 2.42 2.78 3.318 4.154 5.01 9.123 6.626 14.123 1.117 3.463 2.204 6.939 4.374 9.93.56.772 1.458 1.254 1.866 2.357-3.065-.951-6.154-1.222-9.189-1.815-3.442-.674-6.66-1.893-9.814-3.359-2.815-1.309-4.786-3.653-6.844-5.886-2.678-2.904-3.964-6.599-5.527-10.135-.022-.048.05-.142.097-.258.626.031.797.618 1.08.997 3.193 4.27 7.518 6.958 12.2 9.173a52.9 52.9 0 0 1 11.27 7.222c.184.151.345.343.882.251M119.031 121.921c1.132-1.853 2.54-3.281 3.451-5.075 1.642-3.241 2.581-6.743 3.692-10.172 1.459-4.508 3.655-8.58 6.468-12.33.324-.431.788-.754 1.3-1.067-1.582 5.01-1.384 10.383-3.299 15.28-1.256 3.215-2.765 6.288-5.367 8.645a.56.56 0 0 0-.144.311c-.014.108.036.224.052.319.461.247.696-.1.964-.314 4.106-3.281 8.664-5.775 13.354-8.057 3.376-1.641 6.251-3.976 8.727-6.828.505-.582.616-1.517 1.54-1.788.463 1.019-.147 1.769-.495 2.598-1.077 2.57-2.399 4.983-4.08 7.202-2.712 3.574-6.291 5.923-10.287 7.71-3.31 1.478-6.866 1.905-10.368 2.573-1.761.335-3.526.637-5.508.993"/><path fill="#c99631" d="M31.16 110.37c-4.411-3.142-9.092-5.875-13.3-9.332-3.171-2.605-5.828-5.572-7.453-9.417-1.356-3.208-1.798-6.563-1.54-10.028.016-.218-.052-.505.332-.672.66 3.937 3.097 6.782 5.662 9.504 3.35 3.553 6.659 7.139 9.522 11.121.303.421.597.848.977 1.393.012-1.153-.6-1.938-.981-2.783-1.285-2.842-1.524-5.82-1.248-8.882.266-2.965.977-5.855 1.425-8.791.205-1.348.277-2.7.387-4.073 1.096 2.064 1.767 4.242 1.943 6.559.319 4.22.591 8.445.904 12.666.306 4.134 1.17 8.121 3.122 11.805.153.287.324.567.232.917zM138.056 103.487c1.443-1.818 2.668-3.808 4.229-5.538 1.507-1.67 3.035-3.324 4.47-5.058 2.159-2.607 4.79-4.809 6.414-7.884.548-1.04.985-2.121 1.538-3.482.722 1.422.522 2.686.392 3.905-.145 1.356-.286 2.742-.689 4.03a21.4 21.4 0 0 1-2.218 4.847c-1.017 1.648-2.215 3.147-3.547 4.538-1.782 1.861-3.879 3.328-5.951 4.818-1.746 1.256-3.5 2.525-5.362 3.586-1.547.878-2.828 2.138-4.391 2.953-.238-.179-.156-.354-.064-.537 2.446-4.856 3.245-10.097 3.537-15.468.171-3.13.287-6.273.692-9.373.284-2.182.684-4.403 1.761-6.401.443.172.27.496.267.738-.048 2.96.602 5.837 1.193 8.69 1.04 5.01.648 9.77-1.665 14.338-.218.429-.413.868-.618 1.303l-.022.037zM63.797 125.575c-5.46 1.145-10.633 3.223-16.16 3.77-8.192.811-15.114-1.619-20.59-7.989-.675-.785-1.566-1.38-2.035-2.386.845-.299 1.402.3 1.942.693 4.53 3.295 9.561 4.759 15.11 4.566 4.004-.142 8 0 11.998.753-.858-.379-1.705-.789-2.577-1.132-2.755-1.09-4.86-2.934-6.284-5.57a358 358 0 0 1-3.473-6.551c-.465-.9-1.44-1.532-1.411-2.791.492-.037.774.271 1.11.514 3.796 2.749 7.045 6.114 10.242 9.519 3.173 3.381 6.98 5.484 11.444 6.427.229.048.455.117.684.177M138.938 118.532c-.876 2.084-2.253 3.363-3.623 4.598-1.487 1.34-2.975 2.715-4.763 3.639-4.037 2.086-8.308 2.981-12.851 2.678-5.034-.337-9.822-1.79-14.654-3.08-.958-.256-1.975-.275-3.039-.761 3.324-.682 6.323-1.849 9.008-3.743 1.775-1.25 3.253-2.856 4.753-4.423 2.59-2.707 5.278-5.307 8.172-7.676.347-.285.76-.769 1.4-.572.013.108.074.246.032.327-1.79 3.315-3.379 6.744-5.385 9.93-1.599 2.544-4.047 3.968-6.783 4.935-.516.184-1.066.303-1.464.834 3.531-.91 7.117-1.066 10.712-1.021 2.328.028 4.65.013 6.942-.403 3.575-.648 6.857-1.993 9.629-4.461a1 1 0 0 1 .301-.189c.436-.172.873-.333 1.613-.612"/><path fill="#c99631" d="M18.61 86.734c-.16-1.15-.312-2.303-.483-3.45-.562-3.793.124-7.365 1.76-10.788 1.745-3.655 4.085-6.99 5.616-10.78.17 3.09-.232 6.109-.859 9.105-1.017 4.86-2.628 9.559-3.78 14.383-.415 1.746-.762 3.493-.67 5.304.028.56.005 1.12.005 1.936-1.133-.662-1.659-1.646-2.323-2.43-2.969-3.51-5.535-7.317-7.52-11.487-.596-1.252-.782-2.71-1.132-4.08-1.172-4.59-.606-9.13.424-13.65.044-.185.18-.347.403-.766.278 2.69.918 5.027 1.887 7.265.83 1.917 1.631 3.849 2.53 5.732 1.33 2.789 1.907 5.764 2.348 8.795.254 1.741.61 3.474 1.793 4.91M143.702 92.482c.091-2.54-.024-5-.658-7.404a343 343 0 0 0-2.279-8.216c-1.43-4.924-2.514-9.925-2.441-15.37.911 1.843 1.686 3.488 2.526 5.097 1.187 2.27 2.523 4.451 3.579 6.796 1.579 3.495 1.885 7.116 1.285 10.865-.125.785-.248 1.57-.422 2.674 1.029-1.244 1.43-2.471 1.532-3.67.472-5.636 2.768-10.637 5.007-15.675.937-2.104 1.621-4.305 1.813-6.631.025-.297.045-.576.424-.713 1.675 5.167 1.828 10.409.34 15.62-1.89 6.618-6.143 11.716-10.706 16.627"/><path fill="#c99631" d="M16.892 72.878c-.599-3.855-2.522-7.158-3.633-10.75-1.21-3.906-1.844-7.859-1.066-11.912.492-2.554 1.539-4.932 2.927-7.123.474-.747.506-1.783 1.394-2.288.452.366.334.842.252 1.248-.67 3.333-.348 6.668.106 9.967.573 4.152.366 8.286.153 12.432-.02.395-.16.802.118 1.243.489-.23.48-.728.498-1.11.186-3.728 1.93-6.656 4.403-9.264 2.137-2.256 4.478-4.313 6.367-6.807.22-.29.506-.378.943-.281-.014 1.914-.773 3.65-1.354 5.424-.903 2.757-2.51 5.08-4.302 7.305-2.678 3.326-5.023 6.862-6.271 11.04-.084.28-.082.655-.535.876M146.711 39.864c1.243.873 1.615 2.35 2.346 3.567 2.215 3.689 3.445 7.661 3.05 12.048-.3 3.307-1.274 6.443-2.386 9.532-.885 2.462-2.204 4.76-2.514 7.345-.585.14-.659-.146-.764-.495-1.146-3.764-3.062-7.145-5.59-10.063-3.485-4.026-5.417-8.726-6.61-13.839-.026-.11.013-.235.027-.441.647.304.907.922 1.332 1.357 2.286 2.325 4.598 4.627 6.83 7.007 2.138 2.283 3.442 5.013 3.834 8.17.074.591.135 1.193.6 2.055 0-1.365.079-2.392-.013-3.402-.344-3.79-.249-7.56.274-11.33.533-3.856.48-7.7-.421-11.507z"/><path fill="#c99631" d="M136.058 29.34c1.417-.177 2.216.763 3.094 1.363 3.492 2.384 5.184 5.865 5.669 10.046.476 4.113.214 8.217-.079 12.325-.052.684-.137 1.364-.219 2.169-.837-.477-1.198-1.24-1.621-1.915-1.173-1.884-2.81-3.214-4.545-4.555-4.308-3.333-8.398-6.93-10.215-12.424-.226-.68-.408-1.353-.35-2.093.59-.03.861.4 1.093.722 1.379 1.927 3.104 3.481 5.069 4.721 3.717 2.343 6.678 5.38 8.866 9.296-.156-.627-.226-1.294-.485-1.875-1.232-2.766-1.999-5.659-2.383-8.662-.61-4.78-1.456-6.017-3.894-9.118M28.062 28.929c-1.33 1.817-2.757 3.555-3.42 5.799-.476 1.614-.617 3.276-.867 4.924a28 28 0 0 1-1.98 6.886c-.196.456-.7.935-.185 1.65.44-.552.92-1.012 1.229-1.57 1.581-2.86 4.013-4.798 6.649-6.532 2.105-1.387 4.037-2.975 5.546-5.048.182-.25.279-.818.762-.537.466.27.155.68.062 1.067-.96 4.016-3.346 7.075-6.228 9.833-2.085 1.993-4.546 3.496-6.662 5.443-1.363 1.255-2.167 2.967-3.49 4.318-.074-.126-.172-.213-.175-.305-.215-4.796-.753-9.585-.14-14.396.722-5.654 3.884-9.315 8.9-11.532"/><path fill="#c99631" d="M138.312 40.871c-4.531-3.723-8.442-7.847-11.718-12.537-1.659-2.376-3.307-4.727-5.516-6.794 8.465 1.298 16.652 10.5 17.234 19.331M25.648 40.699c.739-8.767 8.599-17.754 16.284-18.655-4.972 6.639-9.481 13.604-16.284 18.655"/><path fill="#1f1b17" d="M74.297 55.128c-.014-1.605.993-2.877 2.291-2.892 1.316-.014 2.398 1.224 2.428 2.778.032 1.554-1.162 3.261-2.307 3.299-1.16.037-2.4-1.6-2.412-3.185M90.804 55.795c-.023 1.99-1.096 2.769-2.415 2.936-1.176.152-2.319-1.491-2.27-3.074.046-1.61 1.17-2.767 2.71-2.791.904-.015 2.014 1.631 1.975 2.93M69.063 62.644c.843-1.437 1.081-.097 1.578.332-.172.37-.74.383-.738.977-.468-.558-.91-.927-1.518-1.02-1.206 1.602-1.997 1.613-3.479-.032-.387.336-1.143.081-1.232 1.026l-1.143-.808c.33-.366.623-.695.834-.93.593-.236.356.8.962.434.408-.246.524-.608.511-1.024-.037-1.195.639-1.814 1.674-2.012.71-.136 1.819 1.018 2.017 1.944.076.348.048.738.534 1.113M100.88 61.34c-.011 1.273-.74 2.121-1.827 2.121-.996 0-1.833-1-1.802-2.158.032-1.218.832-2.229 1.786-2.256 1.01-.03 1.854 1.019 1.843 2.293"/><path fill="#c99631" d="M91.086 96.912c.056.935.306 1.794.113 2.81-.571.114-1.172.235-1.76.351-1.038-2.513-.778-3.036 1.647-3.161M94.406 96.146c.051.295.114.526.13.761.044.64.07 1.282.105 2.017l-1.831.445c-1.073-2.347-.768-2.988 1.596-3.223M70.574 99.248c-1.933-.047-2.444-.824-1.836-2.607.182-.534.537-.56.933-.439.48.147 1.258-.022 1.208.834-.039.716.05 1.462-.305 2.212M82.947 100.77c-2.523.265-2.607.176-2.181-2.184.254-.034.524-.092.796-.105.392-.02.787-.005 1.206-.005.273.79.09 1.512.18 2.294M73.773 100.012l-1.674-.264c-.274-.961-.03-1.879.061-2.8 2.337.07 2.704.812 1.613 3.064M146.703 39.868c-.224-.107-.252-.273-.136-.497.207.126.182.306.141.493zM143.48 92.781l.021.076-.06-.008zM31.14 110.357l.052.013-.035-.002z"/><path fill="#fdfdfc" d="m138.057 103.487-.034.042.023-.037z"/></svg>