<svg width="36" height="75" viewBox="0 0 36 75" fill="none" xmlns="http://www.w3.org/2000/svg">
<g clip-path="url(#clip0_9_47853)">
<mask id="mask0_9_47853" style="mask-type:luminance" maskUnits="userSpaceOnUse" x="0" y="0" width="36" height="75">
<path d="M35.0917 0H0V75H35.0917V0Z" fill="white"/>
</mask>
<g mask="url(#mask0_9_47853)">
<path d="M27.9082 49.8221C30.1221 48.5275 31.9255 49.5667 31.9329 52.1433L31.9626 62.3021L10.8422 74.6443L10.8125 64.4856C10.8051 61.909 12.5936 58.7714 14.81 57.4769L27.9082 49.8221Z" fill="white"/>
<path d="M28.4202 49.562C28.4424 49.552 28.4647 49.542 28.487 49.532C28.5463 49.5069 28.6057 49.4844 28.6626 49.4643C28.6774 49.4593 28.6923 49.4518 28.7071 49.4468C28.7789 49.4218 28.8531 49.3992 28.9223 49.3792C28.9644 49.3667 29.0064 49.3567 29.0485 49.3467C29.0683 49.3417 29.0881 49.3366 29.1054 49.3316C29.1672 49.3191 29.2266 49.3066 29.286 49.2966C29.3775 49.2816 29.4665 49.274 29.5531 49.269C29.5704 49.269 29.5878 49.269 29.6075 49.2665C29.6867 49.264 29.7634 49.264 29.8401 49.2665C29.8524 49.2665 29.8673 49.269 29.8797 49.269C29.9415 49.274 30.0009 49.2816 30.0602 49.2916C30.0776 49.2941 30.0973 49.2966 30.1147 49.3016C30.1839 49.3141 30.2507 49.3291 30.315 49.3492C30.3175 49.3492 30.3224 49.3492 30.3249 49.3517C30.3868 49.3692 30.4461 49.3917 30.5055 49.4168C30.5228 49.4243 30.5401 49.4318 30.5574 49.4393C30.6069 49.4618 30.6564 49.4869 30.7059 49.5119C30.7207 49.5219 30.738 49.5295 30.7553 49.537L22.4141 44.6291C22.4141 44.6291 22.3992 44.6216 22.3918 44.6166C22.3844 44.6116 22.3745 44.6091 22.3646 44.6041C22.3176 44.5765 22.2681 44.554 22.2162 44.5315C22.2063 44.5264 22.1989 44.5214 22.189 44.5189C22.1815 44.5164 22.1741 44.5139 22.1642 44.5114C22.1049 44.4864 22.0455 44.4664 21.9836 44.4463C21.9812 44.4463 21.9787 44.4463 21.9762 44.4438C21.9119 44.4238 21.8451 44.4088 21.7759 44.3962C21.7684 44.3962 21.761 44.3912 21.7536 44.3912C21.7437 44.3912 21.7313 44.3912 21.7214 44.3862C21.6621 44.3762 21.6027 44.3687 21.5409 44.3637C21.531 44.3637 21.5211 44.3612 21.5112 44.3612C21.5087 44.3612 21.5037 44.3612 21.5013 44.3612C21.4246 44.3562 21.3479 44.3562 21.2687 44.3612C21.2613 44.3612 21.2539 44.3612 21.2465 44.3612C21.2366 44.3612 21.2267 44.3637 21.2168 44.3637C21.1277 44.3687 21.0412 44.3762 20.9496 44.3912C20.8903 44.4012 20.8309 44.4113 20.7691 44.4263C20.7493 44.4313 20.732 44.4363 20.7122 44.4413C20.6726 44.4513 20.6355 44.4588 20.5959 44.4689C20.5934 44.4689 20.5885 44.4689 20.5835 44.4714C20.5118 44.4914 20.4401 44.5139 20.3683 44.539C20.3535 44.544 20.3386 44.5515 20.3238 44.5565C20.2644 44.5765 20.2075 44.5991 20.1482 44.6241C20.1407 44.6266 20.1333 44.6291 20.1234 44.6341C20.1086 44.6391 20.0937 44.6491 20.0789 44.6542C20.0171 44.6817 19.9527 44.7117 19.8884 44.7418C19.8637 44.7543 19.839 44.7643 19.8167 44.7768C19.7326 44.8194 19.6485 44.8645 19.5619 44.9146L6.46376 52.5693C6.33513 52.6444 6.2065 52.7271 6.08034 52.8147C6.03829 52.8423 5.99871 52.8748 5.95913 52.9049C5.87502 52.9675 5.79092 53.0301 5.70681 53.0977C5.65981 53.1352 5.61529 53.1728 5.57076 53.2128C5.49408 53.2779 5.41739 53.3456 5.34318 53.4132C5.29865 53.4557 5.25165 53.4983 5.20713 53.5409C5.17992 53.5684 5.15023 53.5935 5.12302 53.621C5.04881 53.6936 4.97707 53.7687 4.90781 53.8464C4.90781 53.8464 4.90534 53.8489 4.90286 53.8514C4.82865 53.9315 4.75692 54.0116 4.68518 54.0943C4.66292 54.1218 4.64065 54.1493 4.61839 54.1769C4.56644 54.2395 4.51449 54.3046 4.46255 54.3697C4.42792 54.4123 4.39328 54.4523 4.36113 54.4949C4.33392 54.53 4.30918 54.5675 4.28197 54.6026C4.24486 54.6526 4.20776 54.7052 4.17065 54.7553C4.14592 54.7904 4.1187 54.8254 4.09397 54.8605C4.05191 54.9206 4.01234 54.9832 3.97276 55.0458C3.94802 55.0858 3.92081 55.1234 3.89607 55.1635C3.88618 55.181 3.87381 55.196 3.86391 55.2135C3.79218 55.3262 3.72291 55.4414 3.65612 55.5566C3.65118 55.5641 3.6487 55.5716 3.64376 55.5791C3.63139 55.6017 3.61902 55.6267 3.60418 55.6492C3.55718 55.7319 3.51265 55.8145 3.46812 55.8971C3.44833 55.9372 3.42855 55.9748 3.40876 56.0148C3.38897 56.0549 3.3667 56.095 3.34691 56.1375C3.3296 56.1726 3.30981 56.2076 3.29249 56.2427C3.24797 56.3378 3.20344 56.433 3.16139 56.5307C3.15397 56.5482 3.14654 56.5657 3.13912 56.5807C3.13912 56.5857 3.13418 56.5908 3.1317 56.5958C3.07976 56.716 3.03028 56.8386 2.98576 56.9588C2.97833 56.9814 2.97091 57.0039 2.96102 57.0264C2.9437 57.0715 2.92886 57.1166 2.91402 57.1592C2.89176 57.2193 2.86949 57.2794 2.8497 57.342C2.83486 57.3895 2.82249 57.4371 2.80765 57.4847C2.79033 57.5398 2.77302 57.5974 2.75818 57.6525C2.74828 57.6875 2.73591 57.7201 2.72602 57.7551C2.7087 57.8177 2.69633 57.8803 2.68149 57.9404C2.66418 58.0105 2.64686 58.0781 2.63202 58.1482C2.62707 58.1733 2.61965 58.1958 2.6147 58.2209C2.58997 58.336 2.57018 58.4487 2.55286 58.5614C2.54791 58.5839 2.54544 58.609 2.54296 58.6315C2.53554 58.6816 2.52565 58.7317 2.5207 58.7818C2.51081 58.8494 2.50833 58.917 2.50091 58.9846C2.49596 59.0322 2.49102 59.0797 2.48607 59.1273C2.4737 59.2775 2.46875 59.4278 2.46875 59.5755L2.49844 69.7343L10.8397 74.6421L10.81 64.4834C10.81 64.3356 10.8174 64.1854 10.8273 64.0352C10.8298 63.9876 10.8372 63.94 10.8421 63.8924C10.8545 63.7747 10.8669 63.6571 10.8842 63.5394C10.8867 63.5168 10.8916 63.4918 10.8941 63.4693C10.9164 63.3315 10.9436 63.1938 10.9733 63.0561C10.9881 62.986 11.0054 62.9184 11.0227 62.8483C11.0475 62.7506 11.0722 62.6555 11.0994 62.5578C11.1167 62.5027 11.1316 62.4451 11.1489 62.39C11.1835 62.2824 11.2181 62.1722 11.2577 62.0645C11.2726 62.0194 11.2874 61.9744 11.3047 61.9318C11.3592 61.7816 11.4185 61.6338 11.4828 61.4861C11.4903 61.4686 11.4977 61.4535 11.5051 61.436C11.562 61.3033 11.6238 61.1731 11.6882 61.0404C11.7079 61.0003 11.7277 60.9577 11.75 60.9177C11.8118 60.795 11.8762 60.6723 11.9454 60.5521C11.9578 60.5296 11.9702 60.5045 11.985 60.482C12.0666 60.3417 12.1507 60.204 12.2373 60.0663C12.262 60.0262 12.2893 59.9887 12.314 59.9486C12.3783 59.851 12.4451 59.7533 12.5119 59.6582C12.549 59.6056 12.5861 59.5555 12.6232 59.5054C12.6826 59.4253 12.7419 59.3477 12.8038 59.2725C12.8557 59.2074 12.9077 59.1423 12.9596 59.0797C13.0536 58.9696 13.1476 58.8594 13.2441 58.7542C13.2441 58.7542 13.2466 58.7517 13.249 58.7492C13.348 58.644 13.4494 58.5439 13.5508 58.4437C13.5954 58.4011 13.6399 58.3586 13.6869 58.316C13.7611 58.2459 13.8378 58.1808 13.9145 58.1157C13.959 58.0781 14.006 58.0381 14.0505 58.0005C14.1346 57.9329 14.2187 57.8703 14.3028 57.8077C14.3424 57.7776 14.382 57.7476 14.4241 57.7176C14.5502 57.6299 14.6764 57.5473 14.8075 57.4722L27.9057 49.8174C27.9898 49.7673 28.0763 49.7223 28.1604 49.6797C28.1852 49.6672 28.2099 49.6547 28.2322 49.6446C28.2965 49.6121 28.3608 49.5845 28.4227 49.557L28.4202 49.562Z" fill="#035BE8"/>
<path d="M15.7497 46.5017C15.7621 46.3239 15.7794 46.1461 15.8017 45.9684C15.8066 45.9183 15.8165 45.8682 15.8215 45.8206C15.8339 45.738 15.8462 45.6528 15.8586 45.5702C15.8685 45.5126 15.8784 45.4575 15.8883 45.3999C15.9031 45.3198 15.918 45.2372 15.9353 45.1571C15.9476 45.0919 15.9625 45.0268 15.9773 44.9617C15.9897 44.9067 16.0021 44.8516 16.0144 44.799C16.0317 44.7289 16.0491 44.6562 16.0664 44.5861C16.0787 44.5336 16.0936 44.4785 16.1084 44.4259C16.1208 44.3833 16.1332 44.3382 16.1455 44.2957C16.195 44.1179 16.2494 43.9376 16.3063 43.7598C16.3113 43.7473 16.3137 43.7323 16.3187 43.7198C16.3756 43.547 16.4374 43.3742 16.5017 43.2014C16.5191 43.1589 16.5339 43.1138 16.5512 43.0712C16.6081 42.926 16.665 42.7808 16.7269 42.6355C16.7367 42.613 16.7442 42.5904 16.7541 42.5679C16.8233 42.4077 16.8951 42.2474 16.9693 42.0896C16.9891 42.0471 17.0089 42.007 17.0286 41.9669C17.0905 41.8417 17.1523 41.7165 17.2166 41.5913C17.2364 41.5538 17.2562 41.5162 17.276 41.4762C17.3576 41.3209 17.4442 41.1657 17.5308 41.0129C17.5481 40.9854 17.5654 40.9553 17.5803 40.9278C17.657 40.7951 17.7386 40.6624 17.8178 40.5322C17.8425 40.4946 17.8648 40.4545 17.8895 40.417C17.9909 40.2592 18.0948 40.1015 18.2012 39.9462C18.2185 39.9237 18.2333 39.9011 18.2506 39.8761C18.362 39.7158 18.4758 39.5606 18.592 39.4053C18.6069 39.3853 18.6217 39.3653 18.639 39.3453C18.785 39.1549 18.9359 38.9696 19.0917 38.7869C19.1115 38.7618 19.1313 38.7393 19.1535 38.7142C19.25 38.6041 19.3465 38.4964 19.443 38.3887C19.4479 38.3837 19.4529 38.3787 19.4578 38.3712C19.5617 38.261 19.6656 38.1508 19.772 38.0457C19.8388 37.9781 19.908 37.9105 19.9773 37.8454C19.9971 37.8278 20.0144 37.8078 20.0317 37.7903C20.1208 37.7051 20.2123 37.6225 20.3038 37.5424C20.3285 37.5198 20.3533 37.4998 20.378 37.4773C20.4448 37.4197 20.5116 37.3596 20.5809 37.3045C20.6155 37.2769 20.6477 37.2494 20.6823 37.2219C20.7417 37.1743 20.8035 37.1242 20.8629 37.0791C20.9 37.0516 20.9371 37.024 20.9717 36.9965C21.0311 36.9514 21.0929 36.9064 21.1523 36.8638C21.1894 36.8387 21.224 36.8112 21.2611 36.7862C21.3254 36.7411 21.3922 36.696 21.459 36.6534C21.4912 36.6334 21.5233 36.6109 21.553 36.5908C21.6495 36.5282 21.7484 36.4681 21.8474 36.4106C21.9785 36.3329 22.1071 36.2653 22.2382 36.1977C22.2753 36.1777 22.3124 36.1602 22.3495 36.1426C22.4485 36.0951 22.545 36.05 22.6414 36.0074C22.6761 35.9924 22.7107 35.9774 22.7453 35.9623C22.8369 35.9248 22.9259 35.8897 23.0174 35.8572C23.0397 35.8497 23.062 35.8396 23.0842 35.8321C23.1955 35.7946 23.3069 35.7595 23.4157 35.7295C23.48 35.7119 23.5443 35.6969 23.6087 35.6819C23.6383 35.6744 23.668 35.6669 23.6977 35.6594C23.7917 35.6393 23.8832 35.6218 23.9772 35.6068C23.9797 35.6068 23.9822 35.6068 23.9871 35.6068C24.0712 35.5942 24.1553 35.5842 24.237 35.5767C24.2642 35.5742 24.2914 35.5717 24.3186 35.5717C24.378 35.5667 24.4373 35.5642 24.4967 35.5617C24.5239 35.5617 24.5487 35.5617 24.5734 35.5617C24.6352 35.5617 24.6946 35.5617 24.754 35.5642C24.7738 35.5642 24.796 35.5642 24.8158 35.5642C24.8381 35.5642 24.8628 35.5692 24.8851 35.5692C24.9791 35.5767 25.0706 35.5867 25.1621 35.6018C25.1893 35.6068 25.219 35.6118 25.2462 35.6168C25.3501 35.6368 25.454 35.6594 25.553 35.6894C25.5579 35.6894 25.5629 35.6919 25.5678 35.6944C25.6618 35.722 25.7533 35.757 25.8449 35.7921C25.8721 35.8021 25.8968 35.8146 25.924 35.8271C26.0007 35.8622 26.0774 35.8997 26.1516 35.9398C26.1763 35.9523 26.2011 35.9648 26.2258 35.9799L17.84 31.047C17.84 31.047 17.8177 31.0345 17.8054 31.0269C17.793 31.0194 17.7782 31.0144 17.7658 31.0069C17.6916 30.9668 17.6174 30.9293 17.5382 30.8942C17.5234 30.8867 17.511 30.8792 17.4962 30.8742C17.4838 30.8692 17.4714 30.8667 17.4591 30.8617C17.3675 30.8241 17.276 30.7916 17.182 30.7615C17.1771 30.7615 17.1746 30.759 17.1696 30.7565C17.0707 30.7265 16.9668 30.7039 16.8629 30.6839C16.8505 30.6839 16.8406 30.6789 16.8283 30.6764C16.8134 30.6739 16.7961 30.6739 16.7788 30.6714C16.6873 30.6563 16.5957 30.6463 16.5017 30.6388C16.4869 30.6388 16.4721 30.6338 16.4572 30.6338C16.4498 30.6338 16.4399 30.6338 16.4325 30.6338C16.4127 30.6338 16.3904 30.6338 16.3706 30.6338C16.3113 30.6338 16.2494 30.6313 16.1901 30.6313C16.1653 30.6313 16.1381 30.6313 16.1134 30.6313C16.0936 30.6313 16.0738 30.6313 16.054 30.6313C16.0144 30.6313 15.9773 30.6363 15.9377 30.6388C15.9105 30.6388 15.8833 30.6413 15.8561 30.6438C15.7745 30.6513 15.6904 30.6614 15.6063 30.6739C15.6038 30.6739 15.5989 30.6739 15.5964 30.6739C15.5049 30.6889 15.4133 30.7064 15.3193 30.7265C15.2896 30.734 15.26 30.7415 15.2303 30.749C15.1734 30.7615 15.114 30.7765 15.0571 30.7916C15.0522 30.7916 15.0447 30.7966 15.0398 30.7966C14.931 30.8266 14.8196 30.8617 14.7083 30.8992C14.6861 30.9068 14.6638 30.9168 14.6415 30.9243C14.5525 30.9568 14.461 30.9919 14.3694 31.0294C14.3571 31.0345 14.3447 31.037 14.3323 31.0445C14.3101 31.0545 14.2878 31.067 14.2655 31.0745C14.1691 31.1171 14.0701 31.1622 13.9736 31.2097C13.9365 31.2273 13.8994 31.2448 13.8623 31.2648C13.7337 31.3299 13.6026 31.4 13.4715 31.4777C13.3725 31.5353 13.2736 31.5954 13.1771 31.658C13.145 31.678 13.1153 31.7005 13.0831 31.7206C13.0163 31.7631 12.952 31.8082 12.8852 31.8533C12.8481 31.8783 12.8135 31.9058 12.7764 31.9309C12.7145 31.9735 12.6552 32.0185 12.5958 32.0636C12.5587 32.0911 12.5216 32.1187 12.487 32.1462C12.4251 32.1938 12.3657 32.2414 12.3064 32.289C12.2717 32.3165 12.2371 32.344 12.205 32.3716C12.1357 32.4292 12.0689 32.4868 12.0021 32.5444C11.9774 32.5669 11.9526 32.5869 11.9279 32.6095C11.8364 32.6896 11.7473 32.7722 11.6558 32.8574C11.636 32.8749 11.6187 32.8924 11.6014 32.91C11.542 32.9675 11.4826 33.0251 11.4233 33.0827C11.4134 33.0902 11.4059 33.1003 11.3985 33.1103C11.2922 33.2154 11.1883 33.3256 11.0844 33.4358C11.0794 33.4408 11.0745 33.4483 11.0671 33.4533C10.9706 33.5585 10.8741 33.6662 10.7776 33.7763C10.7677 33.7864 10.7603 33.7964 10.7504 33.8064C10.7381 33.8189 10.7282 33.8339 10.7158 33.849C10.5624 34.0292 10.4091 34.2145 10.2631 34.4074C10.2582 34.4124 10.2532 34.4174 10.2507 34.4224C10.2384 34.4374 10.2285 34.4524 10.2186 34.4674C10.1023 34.6202 9.98852 34.7779 9.8772 34.9357C9.86731 34.9507 9.85494 34.9657 9.84257 34.9833C9.83762 34.9908 9.83267 34.9983 9.82773 35.0058C9.72136 35.1611 9.61746 35.3163 9.51604 35.4766C9.50615 35.4916 9.49625 35.5066 9.48636 35.5216C9.47152 35.5442 9.45915 35.5692 9.4443 35.5917C9.36267 35.722 9.28352 35.8547 9.20683 35.9874C9.19446 36.0074 9.18209 36.0274 9.16973 36.05C9.16478 36.0575 9.1623 36.065 9.15736 36.075C9.07078 36.2278 8.9842 36.383 8.90257 36.5383C8.89515 36.5508 8.88772 36.5633 8.88278 36.5758C8.87041 36.6009 8.85804 36.6284 8.8432 36.6534C8.77888 36.7761 8.71704 36.9013 8.6552 37.0265C8.64283 37.0516 8.62799 37.0791 8.61562 37.1042C8.6082 37.1192 8.60078 37.1367 8.59336 37.1517C8.51915 37.3095 8.44494 37.4698 8.37815 37.63C8.37815 37.635 8.3732 37.64 8.37072 37.645C8.3633 37.6626 8.35588 37.6801 8.34846 37.6976C8.28662 37.8428 8.22972 37.9881 8.17283 38.1333C8.16293 38.1558 8.15304 38.1809 8.14315 38.2034C8.13572 38.2235 8.1283 38.2435 8.12336 38.2635C8.05904 38.4363 7.9972 38.6091 7.9403 38.7819C7.9403 38.7844 7.93783 38.7894 7.93783 38.7919C7.93535 38.8019 7.93288 38.8119 7.92793 38.8219C7.86857 38.9997 7.81662 39.18 7.76714 39.3578C7.75972 39.3803 7.7523 39.4028 7.74735 39.4254C7.74241 39.4454 7.73746 39.4679 7.73251 39.488C7.71767 39.5406 7.7053 39.5957 7.69046 39.6482C7.67314 39.7183 7.65583 39.791 7.63851 39.8611C7.62614 39.9162 7.61378 39.9713 7.60141 40.0238C7.59399 40.0614 7.58409 40.099 7.57667 40.1365C7.57172 40.1641 7.56678 40.1891 7.56183 40.2166C7.54451 40.2993 7.52967 40.3794 7.51483 40.462C7.50493 40.5171 7.49504 40.5747 7.48514 40.6298C7.4703 40.7149 7.46041 40.7976 7.44804 40.8827C7.44309 40.9228 7.43567 40.9603 7.43072 41.0004C7.43072 41.0104 7.43072 41.0204 7.42825 41.0304C7.40599 41.2107 7.38867 41.3885 7.3763 41.5638C7.37383 41.6014 7.37135 41.6389 7.36888 41.6765C7.35899 41.8593 7.35156 42.0396 7.35156 42.2173C7.35651 44.1805 8.04172 45.5602 9.14499 46.2087L17.5308 51.1416C16.4275 50.4931 15.7423 49.1109 15.7374 47.1502C15.7374 46.9725 15.7448 46.7922 15.7547 46.6094C15.7547 46.5718 15.7596 46.5343 15.7621 46.4967L15.7497 46.5017Z" fill="#EFF3FA"/>
<path d="M21.8539 36.4108C25.2503 34.4251 28.0109 36.0176 28.0233 39.9664C28.0332 43.9153 25.2899 48.728 21.8935 50.7111C18.4996 52.6943 15.7365 51.1018 15.7266 47.1529C15.7167 43.2041 18.46 38.3939 21.8539 36.4108Z" fill="white"/>
<path d="M5.23204 34.2656L4.88281 34.874L11.2629 38.6268L11.6121 38.0184L5.23204 34.2656Z" fill="#035BE8"/>
<path d="M2.13698 59.107C2.13945 59.0694 2.1444 59.0319 2.14688 58.9943L2.15677 58.8916C2.16172 58.8416 2.16667 58.7915 2.17161 58.7414L2.20624 58.5085C2.22603 58.3908 2.24582 58.2706 2.27303 58.1504L2.29035 58.0753C2.30519 58.0127 2.32003 57.9526 2.3423 57.8575L2.35714 57.7899C2.36703 57.7473 2.37693 57.7047 2.3893 57.6622L2.42146 57.557C2.43877 57.4994 2.45609 57.4393 2.4734 57.3817L2.48824 57.3291C2.49814 57.2966 2.50803 57.264 2.51793 57.234C2.53277 57.1914 2.54761 57.1488 2.56246 57.1063L2.65893 56.8358C2.70593 56.7081 2.75788 56.5829 2.81725 56.4427L2.84198 56.3901C2.88651 56.29 2.92856 56.1898 2.97556 56.0922L3.15367 55.7341C3.19819 55.6464 3.24767 55.5638 3.30951 55.4511L3.34909 55.381C3.41835 55.2608 3.49009 55.1431 3.5643 55.0229L3.71519 54.7951C3.74488 54.75 3.77456 54.7049 3.80425 54.6599L3.8834 54.5522C3.92051 54.4996 3.96009 54.447 3.99967 54.3944L4.0813 54.2818C4.10356 54.2542 4.12583 54.2267 4.14809 54.1991L4.18767 54.1515C4.24209 54.0839 4.29404 54.0163 4.34846 53.9512L4.41772 53.8636C4.49193 53.7785 4.56614 53.6933 4.64777 53.6057C4.72199 53.5255 4.7962 53.4479 4.87288 53.3728L4.96193 53.2877C5.00893 53.2426 5.05593 53.1975 5.10293 53.155C5.18209 53.0823 5.26125 53.0122 5.35772 52.9296C5.39978 52.8945 5.44183 52.857 5.48636 52.8219C5.57293 52.7518 5.66199 52.6842 5.75104 52.6191L5.79309 52.589C5.82278 52.5665 5.84999 52.5465 5.87967 52.5264C6.01325 52.4338 6.1493 52.3462 6.28536 52.266L12.524 48.6202L8.95199 46.5193C7.69041 45.7756 6.99036 44.2507 6.98541 42.2225C6.98541 42.0372 6.99283 41.8494 7.0052 41.629L7.01015 41.5439C7.02252 41.3611 7.03983 41.1758 7.06209 40.9955C7.06209 40.9905 7.06457 40.9629 7.06704 40.9579L7.08436 40.8377C7.09673 40.7501 7.10909 40.665 7.12394 40.5773L7.15362 40.4046C7.16846 40.3194 7.18331 40.2368 7.20804 40.1216L7.28225 39.7836C7.29957 39.7109 7.31688 39.6383 7.33667 39.5632L7.41583 39.2652C7.46778 39.0824 7.5222 38.8971 7.58404 38.7093C7.58404 38.7043 7.59394 38.6768 7.59641 38.6718C7.65578 38.494 7.71762 38.3162 7.79183 38.1209C7.79183 38.1159 7.80667 38.0808 7.80667 38.0783L7.83636 38.0057C7.89325 37.8555 7.95262 37.7077 8.02436 37.5425L8.04662 37.4899C8.11836 37.3246 8.19257 37.1619 8.2742 36.9866C8.2742 36.9816 8.28657 36.9565 8.28904 36.9515L8.32862 36.8739C8.39047 36.7462 8.45478 36.6185 8.53394 36.4632L8.56115 36.4082L8.58094 36.3706C8.66504 36.2103 8.75162 36.0526 8.85552 35.8723L8.8951 35.8072C8.97426 35.672 9.05589 35.5368 9.15483 35.3765L9.21173 35.2864C9.31562 35.1236 9.42199 34.9633 9.54568 34.7831L9.58031 34.7355C9.6941 34.5727 9.81036 34.4125 9.94147 34.2422L9.97857 34.1921C10.1294 33.9968 10.2828 33.8065 10.4485 33.6112C10.451 33.6062 10.4733 33.5811 10.4757 33.5786L10.503 33.5461C10.5994 33.4334 10.6984 33.3232 10.8146 33.1955C10.921 33.0803 11.0274 32.9702 11.1362 32.86L11.1634 32.8324C11.2253 32.7723 11.2846 32.7122 11.3687 32.6346L11.4059 32.5996C11.4974 32.5119 11.5914 32.4268 11.6854 32.3442L11.7621 32.2765C11.8313 32.2164 11.9006 32.1564 11.9699 32.0988L12.0762 32.0136C12.1381 31.9635 12.1999 31.9135 12.2642 31.8659L12.378 31.7808C12.4399 31.7332 12.5042 31.6881 12.566 31.643L12.6798 31.5629C12.7491 31.5153 12.8159 31.4703 12.8876 31.4227L12.9841 31.3576C13.0855 31.2925 13.1869 31.2299 13.2908 31.1698C13.4269 31.0896 13.5629 31.017 13.6965 30.9494L13.8127 30.8918C13.9166 30.8418 14.0181 30.7942 14.1393 30.7416L14.2283 30.704C14.3248 30.664 14.4213 30.6264 14.5375 30.5838L14.587 30.5663C14.7058 30.5262 14.822 30.4887 14.9581 30.4511C15.0075 30.4386 15.057 30.4261 15.1065 30.4136L15.2401 30.381C15.339 30.3585 15.438 30.3409 15.5369 30.3259C15.5419 30.3259 15.5468 30.3259 15.5518 30.3259C15.6408 30.3134 15.7299 30.3009 15.8189 30.2934L15.8808 30.2884L15.9426 30.2834C15.9748 30.2809 16.0044 30.2783 16.0366 30.2758H16.185C16.2518 30.2733 16.3186 30.2733 16.4052 30.2758H16.4819C16.4992 30.2809 16.514 30.2809 16.5289 30.2834C16.6328 30.2909 16.7342 30.3034 16.8356 30.3184C16.843 30.3184 16.8776 30.3234 16.8851 30.3259C16.9024 30.3284 16.9172 30.3334 16.9271 30.3359C17.0261 30.3535 17.125 30.376 17.2413 30.4086C17.2561 30.4111 17.271 30.4161 17.2809 30.4186C17.3872 30.4511 17.4886 30.4887 17.5826 30.5262C17.5925 30.5287 17.6222 30.5388 17.6321 30.5438C17.6494 30.5513 17.6643 30.5588 17.6767 30.5663C17.7632 30.6039 17.8473 30.6464 17.929 30.6915C17.9389 30.6965 17.9661 30.709 17.976 30.714L26.3989 35.6695C26.4013 35.6695 26.4038 35.672 26.4063 35.6745C27.6629 36.4182 28.358 37.9406 28.363 39.9638C28.3679 42.0923 27.5937 44.4686 26.3494 46.5419L30.9233 49.2312C30.9233 49.2312 30.9307 49.2362 30.9356 49.2387C31.7915 49.747 32.264 50.7761 32.2689 52.1383L32.2986 62.2996C32.2986 62.4248 32.2318 62.5425 32.1255 62.6051L11.0051 74.9473C10.9507 74.9799 10.8913 74.9949 10.832 74.9949C10.8171 74.9949 10.8023 74.9949 10.7874 74.9924C10.7775 74.9924 10.7676 74.9899 10.7577 74.9874C10.7528 74.9874 10.7478 74.9874 10.7429 74.9849C10.7132 74.9774 10.686 74.9649 10.6588 74.9498L2.31756 70.0445C2.21119 69.9819 2.1444 69.8667 2.1444 69.7415L2.11719 59.5802C2.11719 59.4225 2.12461 59.2647 2.13698 59.1045V59.107ZM17.6692 31.3501L17.6445 31.335C17.6445 31.335 17.6099 31.3175 17.6049 31.315C17.5406 31.28 17.4738 31.2474 17.407 31.2174C17.3922 31.2098 17.3773 31.2048 17.3773 31.2023C17.3699 31.1998 17.3452 31.1898 17.3353 31.1873C17.2586 31.1573 17.1819 31.1272 17.0854 31.0972C17.083 31.0972 17.0805 31.0972 17.078 31.0972C16.989 31.0721 16.8974 31.0521 16.8059 31.0346L16.7738 31.027C16.7738 31.027 16.7342 31.022 16.7292 31.022C16.6476 31.0095 16.5635 30.9995 16.4794 30.992L16.4151 30.987H16.3606C16.3062 30.982 16.2518 30.982 16.1949 30.982L15.8882 30.997C15.8115 31.0045 15.7348 31.0145 15.6532 31.0245C15.6507 31.0245 15.6482 31.0245 15.6482 31.0245C15.5641 31.0371 15.4775 31.0546 15.391 31.0721L15.2698 31.1022C15.2277 31.1122 15.1881 31.1222 15.1288 31.1372C15.0249 31.1648 14.9234 31.1973 14.7923 31.2449C14.7899 31.2449 14.7577 31.2574 14.7528 31.2599C14.6686 31.29 14.5821 31.3225 14.4955 31.3601L14.4411 31.3826C14.4411 31.3826 14.404 31.4001 14.399 31.4026C14.3075 31.4427 14.2135 31.4853 14.0948 31.5454L14.0156 31.5854C13.8919 31.648 13.7682 31.7156 13.6421 31.7883C13.5481 31.8434 13.4516 31.9009 13.3601 31.961L13.2685 32.0211C13.2042 32.0637 13.1424 32.1063 13.0781 32.1488L12.9742 32.224C12.9148 32.2665 12.8579 32.3091 12.7985 32.3517L12.6922 32.4318C12.6328 32.4769 12.5759 32.5244 12.4918 32.5895L12.4176 32.6496C12.3508 32.7047 12.2865 32.7598 12.2222 32.8174L12.1504 32.88C12.0614 32.9576 11.9748 33.0378 11.8857 33.1229L11.8585 33.1479C11.8585 33.1479 11.8313 33.173 11.8313 33.1755C11.7744 33.2306 11.7151 33.2857 11.6582 33.3433L11.6334 33.3683C11.5295 33.471 11.4281 33.5761 11.3119 33.7013C11.2179 33.804 11.1239 33.9092 11.0298 34.0168L10.9952 34.0569C10.9952 34.0569 10.973 34.0844 10.9705 34.0869C10.8196 34.2622 10.6736 34.445 10.5302 34.6303L10.5079 34.6579C10.5079 34.6579 10.4881 34.6854 10.4856 34.6904C10.3718 34.8406 10.2605 34.9934 10.1517 35.1486C10.1517 35.1511 10.1319 35.1762 10.1294 35.1787L10.1047 35.2162C10.0008 35.3665 9.89942 35.5192 9.80047 35.6745L9.78068 35.707L9.75594 35.7471L9.7312 35.7872C9.65205 35.9149 9.57289 36.0426 9.49868 36.1703L9.4492 36.2554C9.36262 36.4057 9.28099 36.5559 9.20183 36.7061C9.20183 36.7061 9.17957 36.7437 9.17957 36.7462L9.14247 36.8188C9.08062 36.939 9.01878 37.0617 8.95941 37.1844L8.91489 37.272C8.91489 37.272 8.90005 37.3021 8.90005 37.3046C8.82583 37.4598 8.75657 37.6151 8.69226 37.7653L8.67741 37.8029C8.67741 37.8029 8.66504 37.8354 8.66257 37.8379C8.6032 37.9782 8.54631 38.1209 8.49189 38.2636L8.45725 38.3538C8.45725 38.3538 8.44489 38.3863 8.44489 38.3888C8.38304 38.5566 8.3212 38.7244 8.26678 38.8921C8.26678 38.8946 8.25441 38.9297 8.25441 38.9322C8.19752 39.105 8.14557 39.2803 8.0961 39.453C8.0961 39.4555 8.07878 39.5131 8.07631 39.5181L8.06146 39.5782L8.02189 39.7335C8.00457 39.8036 7.98725 39.8712 7.96994 39.9413L7.91799 40.1792L15.673 44.7415L15.6804 44.7114C15.6977 44.6388 15.715 44.5637 15.7422 44.4585L15.814 44.1931C15.8659 44.0103 15.9203 43.825 15.9797 43.6422L15.9921 43.5997C16.0514 43.4219 16.1133 43.2441 16.1801 43.0688L16.232 42.9361C16.2889 42.7859 16.3483 42.6381 16.425 42.4603L16.4423 42.4203C16.5115 42.255 16.5882 42.0923 16.6649 41.9295L16.7268 41.8043C16.7886 41.6766 16.8529 41.5489 16.9197 41.4212L16.9791 41.3035C17.0632 41.1432 17.1498 40.9855 17.2388 40.8302L17.2908 40.7426C17.3699 40.6074 17.4515 40.4722 17.5357 40.3394L17.6099 40.2218C17.7138 40.059 17.8201 39.8987 17.929 39.741L17.9784 39.6709C18.0922 39.5081 18.2085 39.3479 18.3495 39.1626L18.3767 39.1275C18.5276 38.9322 18.681 38.7419 18.8393 38.5566L18.9011 38.4815C19.0001 38.3688 19.099 38.2561 19.2128 38.1309C19.3192 38.0157 19.4256 37.9056 19.5344 37.7954C19.6037 37.7253 19.6729 37.6577 19.7644 37.57L19.8015 37.5325C19.8931 37.4448 19.9871 37.3597 20.0811 37.277L20.1578 37.2094C20.227 37.1493 20.2963 37.0892 20.368 37.0317L20.4744 36.9465C20.4917 36.9315 20.509 36.919 20.5263 36.9065C20.5585 36.8814 20.5907 36.8539 20.6228 36.8288C20.6352 36.8188 20.6476 36.8088 20.6624 36.7988L20.6946 36.7737C20.7143 36.7587 20.7366 36.7412 20.7564 36.7262L20.7737 36.7111C20.7737 36.7111 20.7861 36.7036 20.791 36.6986C21.0829 36.4783 21.3822 36.2804 21.684 36.1027C22.5746 35.5818 23.4453 35.2839 24.2517 35.2137L17.6742 31.3451L17.6692 31.3501ZM26.0451 36.2779C26.0451 36.2779 26.0352 36.2729 26.0303 36.2704C26.0303 36.2704 25.9932 36.2504 25.9907 36.2504C25.9264 36.2153 25.8596 36.1828 25.7928 36.1527L25.7236 36.1227C25.6518 36.0926 25.5776 36.0651 25.491 36.0401C25.4762 36.0351 25.4613 36.0326 25.4465 36.0275C25.3624 36.005 25.2783 35.985 25.1917 35.97L25.1175 35.9574C25.0359 35.9449 24.9518 35.9349 24.8677 35.9274C24.8652 35.9274 24.8083 35.9224 24.8058 35.9224C24.8058 35.9224 24.7489 35.9224 24.7465 35.9224C24.692 35.9224 24.6376 35.9174 24.5832 35.9199H24.5115C24.457 35.9224 24.4051 35.9249 24.3185 35.9324H24.2765C24.1998 35.9424 24.1231 35.9524 24.0365 35.9649C23.9524 35.9775 23.8658 35.995 23.7792 36.0125L23.6976 36.0326C23.6382 36.0476 23.5789 36.0601 23.517 36.0776C23.4156 36.1052 23.3117 36.1377 23.1781 36.1853C23.1781 36.1853 23.1435 36.1978 23.141 36.1978C23.0569 36.2279 22.9703 36.2604 22.8838 36.2955L22.7848 36.338C22.6933 36.3781 22.5993 36.4207 22.4904 36.4733L22.4014 36.5183C22.2777 36.5809 22.154 36.6485 22.0279 36.7212C21.9339 36.7762 21.8374 36.8338 21.7459 36.8939L21.6543 36.954C21.59 36.9966 21.5282 37.0392 21.4639 37.0817L21.3575 37.1569C21.2981 37.1994 21.2412 37.242 21.1819 37.2846L21.0755 37.3647C21.0161 37.4098 20.9592 37.4573 20.8999 37.5024L20.8009 37.5825C20.7341 37.6376 20.6698 37.6927 20.6055 37.7503L20.5338 37.8129C20.4447 37.8905 20.3581 37.9707 20.2716 38.0533L20.2419 38.0808C20.2419 38.0808 20.2171 38.1034 20.2171 38.1059C20.1503 38.1685 20.0836 38.2336 20.0192 38.2987C19.9153 38.4013 19.8139 38.5065 19.7001 38.6317C19.6037 38.7344 19.5097 38.842 19.4181 38.9472L19.3588 39.0173C19.2079 39.1951 19.0619 39.3754 18.8987 39.5882L18.8739 39.6208C18.7601 39.771 18.6488 39.9238 18.54 40.079L18.4905 40.1466C18.3866 40.2969 18.2852 40.4496 18.1862 40.6049L18.1145 40.7176C18.0353 40.8453 17.9562 40.973 17.882 41.1032L17.8325 41.1883C17.7459 41.3385 17.6643 41.4888 17.5826 41.639L17.5258 41.7517C17.4639 41.8719 17.4021 41.9946 17.3427 42.1173L17.2833 42.2375C17.2091 42.3927 17.1399 42.548 17.0607 42.7333L17.0459 42.7708C16.9865 42.9111 16.9296 43.0538 16.8752 43.194L16.8257 43.3217C16.7639 43.4895 16.702 43.6573 16.6476 43.8275C16.6426 43.84 16.6402 43.8526 16.6352 43.8676C16.5783 44.0429 16.5264 44.2156 16.4769 44.3909L16.4002 44.6714C16.3829 44.7415 16.3656 44.8091 16.3483 44.8792L16.2716 45.2248C16.2568 45.3049 16.2419 45.3825 16.2271 45.4601L16.1974 45.6254C16.185 45.7055 16.1726 45.7882 16.1603 45.8683L16.1405 46.011C16.1182 46.1838 16.1034 46.3541 16.091 46.5243L16.0836 46.6345C16.0737 46.8098 16.0663 46.9826 16.0663 47.1528C16.0663 47.1528 16.0663 47.1529 16.0663 47.1554C16.0663 47.2104 16.0663 47.263 16.0663 47.3181C16.0663 47.3532 16.0663 47.3857 16.0688 47.4208C16.0688 47.4408 16.0688 47.4608 16.0688 47.4809C16.0688 47.5284 16.0737 47.5735 16.0762 47.6211C16.0762 47.6261 16.0762 47.6336 16.0762 47.6411C16.0786 47.6912 16.0836 47.7438 16.0885 47.7939C16.0885 47.7939 16.0885 47.7939 16.0885 47.7964C16.185 48.8756 16.519 49.747 17.0632 50.3404C17.0632 50.3404 17.0657 50.343 17.0681 50.3455C17.0904 50.3705 17.1151 50.3955 17.1399 50.4206C17.1423 50.4231 17.1448 50.4256 17.1473 50.4281C17.1695 50.4506 17.1943 50.4732 17.219 50.4957C17.224 50.4982 17.2264 50.5032 17.2314 50.5057C17.2537 50.5257 17.2784 50.5483 17.3006 50.5683C17.3056 50.5733 17.3105 50.5783 17.3155 50.5808C17.3378 50.6009 17.3625 50.6184 17.3848 50.6384C17.3922 50.6434 17.3971 50.6484 17.4045 50.6534C17.4268 50.671 17.4491 50.6885 17.4738 50.7035C17.4812 50.7085 17.4886 50.7135 17.4961 50.7211C17.5183 50.7361 17.5406 50.7511 17.5653 50.7686C17.5728 50.7736 17.5827 50.7812 17.5901 50.7862C17.6123 50.8012 17.6346 50.8137 17.6593 50.8287C17.6717 50.8362 17.6816 50.8438 17.694 50.8513C18.7478 51.4647 20.1751 51.3095 21.7088 50.4131C25.0037 48.4875 27.6753 43.805 27.6629 39.9739C27.658 38.201 27.0791 36.8914 26.0328 36.2805L26.0451 36.2779ZM25.9833 47.1403C24.9072 48.7654 23.5467 50.1552 22.0674 51.019C21.0409 51.62 20.0415 51.923 19.1361 51.923C18.4905 51.923 17.8894 51.7702 17.3575 51.4597C17.3551 51.4597 17.3526 51.4547 17.3477 51.4547C17.3477 51.4547 17.3477 51.4547 17.3452 51.4547L13.224 49.0309L6.63909 52.8795C6.51788 52.9496 6.39915 53.0272 6.28041 53.1099L6.16662 53.1925C6.08746 53.2526 6.00583 53.3127 5.92667 53.3753C5.88957 53.4054 5.84999 53.4379 5.79557 53.483C5.72383 53.5431 5.65457 53.6057 5.58283 53.6708L13.2957 58.208C13.2957 58.208 13.3056 58.2005 13.3081 58.1955C13.3304 58.1755 13.3502 58.1555 13.3724 58.1354C13.3848 58.1229 13.3972 58.1129 13.4071 58.1029C13.4219 58.0903 13.4343 58.0753 13.4491 58.0628C13.4813 58.0353 13.511 58.0052 13.5431 57.9777C13.8894 57.6672 14.2531 57.3942 14.6291 57.1764L27.7272 49.5216C28.1972 49.2462 28.6598 49.0659 29.1001 48.9783L25.9808 47.1428L25.9833 47.1403ZM11.1832 74.0384L31.6085 62.1018L31.5813 52.1458C31.5788 51.0366 31.2226 50.2178 30.5794 49.8422C30.5794 49.8422 30.5571 49.8296 30.5473 49.8246C30.5077 49.8021 30.4681 49.7846 30.426 49.7645L30.3865 49.747C30.3865 49.747 30.3815 49.747 30.379 49.7445C30.3494 49.732 30.3221 49.722 30.29 49.7119C30.2653 49.7044 30.2405 49.6944 30.2158 49.6869C30.1638 49.6719 30.1119 49.6619 30.0599 49.6518L30.0129 49.6443C29.9635 49.6368 29.9115 49.6293 29.8274 49.6243C29.7631 49.6193 29.6938 49.6193 29.627 49.6243C29.6122 49.6243 29.5974 49.6243 29.5825 49.6243C29.5058 49.6318 29.4267 49.6368 29.3475 49.6493C29.2956 49.6569 29.2411 49.6669 29.1867 49.6794C29.1694 49.6819 29.1521 49.6869 29.1348 49.6894C29.0977 49.6994 29.0606 49.7094 29.0235 49.7195C28.9591 49.737 28.8948 49.757 28.828 49.7796C28.8132 49.7846 28.8008 49.7871 28.786 49.7921C28.7316 49.8121 28.6796 49.8346 28.6252 49.8547L28.593 49.8697C28.593 49.8697 28.5708 49.8797 28.5634 49.8822C28.504 49.9073 28.4446 49.9348 28.3778 49.9699L28.3209 49.9974C28.2888 50.0149 28.2541 50.0325 28.222 50.05C28.1775 50.075 28.1305 50.1001 28.0859 50.1251L14.9878 57.7799C14.9655 57.7924 14.9432 57.8074 14.921 57.8224C14.822 57.8825 14.7255 57.9451 14.6291 58.0127L14.5128 58.0979C14.4336 58.1555 14.352 58.2156 14.2729 58.2807C14.2358 58.3107 14.1962 58.3433 14.1418 58.3908C14.07 58.4534 13.9958 58.516 13.9265 58.5811C13.882 58.6212 13.84 58.6613 13.7979 58.7038C13.7014 58.799 13.6025 58.8941 13.506 58.9993C13.412 59.0995 13.323 59.2071 13.2339 59.3123C13.182 59.3724 13.1325 59.435 13.083 59.4976C13.0236 59.5727 12.9667 59.6453 12.9074 59.723C12.8703 59.7705 12.8356 59.8206 12.801 59.8707C12.7367 59.9633 12.6724 60.056 12.6105 60.1511L12.5363 60.2638C12.4522 60.3965 12.3706 60.5293 12.2939 60.6645L12.2568 60.7321C12.1925 60.8498 12.1282 60.9649 12.0688 61.0826L12.0094 61.2003C11.9476 61.3255 11.8882 61.4532 11.8313 61.5809H11.8289C11.8214 61.596 11.814 61.611 11.8091 61.626H11.8115C11.7497 61.7687 11.6928 61.914 11.6409 62.0567L11.5963 62.1844C11.5592 62.2871 11.5246 62.3922 11.4924 62.4974C11.4751 62.55 11.4603 62.6051 11.443 62.6577C11.4157 62.7503 11.3935 62.843 11.3712 62.9331L11.3613 62.9682C11.3465 63.0232 11.3341 63.0783 11.3217 63.1309C11.2921 63.2636 11.2673 63.3938 11.2451 63.524L11.2352 63.5917C11.2179 63.7043 11.2055 63.8145 11.1956 63.9247L11.1832 64.0599C11.1733 64.2026 11.1659 64.3429 11.1659 64.4806L11.1931 74.0334L11.1832 74.0384ZM2.84446 69.5387L10.4881 74.0359L10.4658 66.3686L2.82219 61.8714L2.84446 69.5412V69.5387Z" fill="#035BE8"/>
<path d="M33.6773 7.41454C33.702 7.40954 33.7268 7.40202 33.749 7.39952C33.7663 7.39701 33.7861 7.39201 33.8034 7.39201C33.8208 7.39201 33.8406 7.387 33.8579 7.387C33.8777 7.387 33.895 7.3845 33.9148 7.3845C33.9296 7.3845 33.9445 7.3845 33.9593 7.3845C33.9791 7.3845 33.9989 7.3845 34.0162 7.3895C34.0286 7.3895 34.0409 7.39201 34.0533 7.39451C34.0731 7.39702 34.0929 7.40202 34.1127 7.40703C34.1226 7.40703 34.1325 7.41204 34.1423 7.41454C34.1671 7.42206 34.1893 7.42957 34.2116 7.43958C34.2166 7.43958 34.2215 7.44209 34.224 7.44459C34.2512 7.45711 34.2784 7.46963 34.3056 7.48466L27.9037 3.71863C27.9037 3.71863 27.8988 3.71613 27.8963 3.71362C27.874 3.7011 27.8493 3.68858 27.8245 3.67857C27.8196 3.67857 27.8171 3.67606 27.8122 3.67356C27.7924 3.66605 27.7726 3.65853 27.7503 3.65102C27.7479 3.65102 27.7429 3.65102 27.7404 3.65102C27.7305 3.64852 27.7207 3.64601 27.7108 3.64351C27.6984 3.64101 27.6835 3.636 27.6712 3.63349C27.6662 3.63349 27.6588 3.63349 27.6539 3.63349C27.6415 3.63349 27.6291 3.63099 27.6168 3.62849C27.6069 3.62849 27.597 3.62598 27.5846 3.62598C27.5772 3.62598 27.5673 3.62598 27.5599 3.62598C27.545 3.62598 27.5302 3.62598 27.5153 3.62598C27.5054 3.62598 27.498 3.62598 27.4881 3.62598C27.4782 3.62598 27.4683 3.62598 27.4584 3.62849C27.4411 3.62849 27.4238 3.63099 27.404 3.63349C27.3966 3.63349 27.3867 3.63349 27.3793 3.636C27.3694 3.636 27.3595 3.64101 27.3521 3.64101C27.3273 3.64601 27.3051 3.65102 27.2803 3.65603C27.2704 3.65603 27.2605 3.65853 27.2507 3.66354C27.2457 3.66354 27.2383 3.66855 27.2309 3.67105C27.1789 3.68608 27.127 3.70361 27.0701 3.72614L19.9557 6.68087C19.9063 6.7009 19.8568 6.71843 19.8073 6.73345C19.7925 6.73846 19.7752 6.74097 19.7603 6.74597C19.7356 6.75349 19.7084 6.75849 19.6836 6.7635C19.6663 6.76601 19.649 6.76851 19.6317 6.77101C19.6119 6.77352 19.5946 6.77602 19.5748 6.77602C19.555 6.77602 19.5377 6.77853 19.5204 6.77853C19.5055 6.77853 19.4907 6.77853 19.4758 6.77853C19.4561 6.77853 19.4363 6.77853 19.419 6.77352C19.4066 6.77352 19.3917 6.77101 19.3794 6.76851C19.3596 6.76601 19.3398 6.761 19.32 6.75599C19.3101 6.75349 19.2977 6.75098 19.2878 6.74848C19.2656 6.74097 19.2408 6.73345 19.2186 6.72594C19.2136 6.72594 19.2062 6.72093 19.2013 6.72093C19.1716 6.70841 19.1444 6.69589 19.1172 6.67837L25.5191 10.4444C25.5191 10.4444 25.524 10.4469 25.5265 10.4494C25.5512 10.4619 25.576 10.4745 25.6007 10.487C25.6007 10.487 25.6007 10.487 25.6032 10.487C25.6081 10.487 25.6155 10.492 25.6205 10.4945C25.6403 10.502 25.6576 10.5095 25.6774 10.5145C25.6799 10.5145 25.6848 10.5145 25.6898 10.517C25.6996 10.5195 25.712 10.522 25.7219 10.5245C25.7343 10.527 25.7466 10.5321 25.7615 10.5346C25.7689 10.5346 25.7763 10.5346 25.7813 10.5346C25.7936 10.5346 25.806 10.5371 25.8209 10.5396C25.8308 10.5396 25.8406 10.5421 25.8505 10.5421C25.8604 10.5421 25.8679 10.5421 25.8778 10.5421C25.8926 10.5421 25.9074 10.5421 25.9223 10.5421C25.9297 10.5421 25.9396 10.5421 25.947 10.5421C25.9569 10.5421 25.9668 10.5421 25.9767 10.5396C25.994 10.5396 26.0138 10.5371 26.0336 10.5346C26.041 10.5346 26.0509 10.5346 26.0583 10.5346C26.0682 10.5346 26.0756 10.5295 26.0855 10.5295C26.1103 10.5245 26.135 10.5195 26.1622 10.512C26.1721 10.512 26.182 10.5095 26.1919 10.507C26.1969 10.507 26.2043 10.502 26.2092 10.502C26.2587 10.487 26.3082 10.472 26.3576 10.4494L33.472 7.49467C33.5264 7.47214 33.5808 7.45461 33.6328 7.43958C33.6501 7.43458 33.6649 7.42957 33.6822 7.42706L33.6773 7.41454Z" fill="white"/>
<path d="M12.811 29.6475C12.811 29.61 12.811 29.5749 12.811 29.5374C12.811 29.5073 12.811 29.4748 12.811 29.4447C12.811 29.4097 12.8036 29.3771 12.7987 29.342C12.7962 29.3145 12.7937 29.2845 12.7888 29.2569C12.7838 29.2244 12.7739 29.1943 12.764 29.1618C12.7566 29.1367 12.7517 29.1092 12.7442 29.0866C12.7343 29.0566 12.722 29.029 12.7096 28.999C12.6997 28.9765 12.6923 28.9539 12.6824 28.9339C12.6676 28.9064 12.6502 28.8813 12.6329 28.8538C12.623 28.8362 12.6131 28.8162 12.6008 28.8012C12.581 28.7736 12.5587 28.7511 12.5365 28.7286C12.5241 28.716 12.5142 28.7035 12.5018 28.691C12.4647 28.6585 12.4276 28.6284 12.3856 28.6059L5.98364 24.8398C6.02569 24.8649 6.06527 24.8924 6.0999 24.925C6.11227 24.935 6.12217 24.95 6.13454 24.9625C6.1568 24.9851 6.17906 25.0076 6.19885 25.0352C6.21122 25.0527 6.22112 25.0702 6.23101 25.0877C6.24833 25.1128 6.26564 25.1378 6.27801 25.1654C6.28791 25.1854 6.29533 25.2079 6.30522 25.2305C6.31759 25.258 6.32996 25.2856 6.33985 25.3181C6.34727 25.3406 6.35222 25.3682 6.35964 25.3907C6.36706 25.4233 6.37696 25.4533 6.38438 25.4884C6.38933 25.5159 6.3918 25.5435 6.39427 25.571C6.39922 25.6061 6.40417 25.6386 6.40664 25.6737C6.40664 25.7037 6.40664 25.7363 6.40664 25.7663C6.40664 25.8039 6.40912 25.8389 6.40664 25.8765C6.40664 25.9091 6.4017 25.9416 6.39922 25.9767C6.39675 26.0167 6.39427 26.0568 6.38933 26.0994L5.19701 35.0462C5.19701 35.0462 5.19701 35.0562 5.19701 35.0612C5.19206 35.1013 5.18959 35.1388 5.18711 35.1764C5.18464 35.2114 5.17969 35.249 5.17969 35.2841C5.17969 35.3241 5.17969 35.3592 5.17969 35.3967C5.17969 35.4293 5.17969 35.4618 5.17969 35.4944C5.18217 35.532 5.18959 35.5645 5.19206 35.5996C5.19701 35.6271 5.19948 35.6572 5.20443 35.6847C5.21185 35.7172 5.22175 35.7473 5.22917 35.7798C5.23659 35.8049 5.24153 35.8299 5.24896 35.855C5.25885 35.885 5.27369 35.9126 5.28606 35.9401C5.29596 35.9601 5.30338 35.9827 5.31327 36.0027C5.32811 36.0302 5.34543 36.0528 5.36027 36.0778C5.37264 36.0954 5.38006 36.1129 5.39243 36.1279C5.41222 36.1529 5.43448 36.173 5.45675 36.1955C5.46911 36.2055 5.47654 36.2206 5.4889 36.2306C5.52354 36.2606 5.56064 36.2882 5.60022 36.3107L12.0021 40.0767C11.9626 40.0542 11.9255 40.0266 11.8908 39.9966C11.8785 39.9866 11.871 39.9741 11.8587 39.9615C11.8364 39.939 11.8141 39.919 11.7943 39.8914C11.782 39.8764 11.7721 39.8589 11.7622 39.8413C11.7449 39.8163 11.7276 39.7938 11.7127 39.7662C11.7028 39.7462 11.6954 39.7237 11.6855 39.7036C11.6731 39.6761 11.6608 39.651 11.6484 39.621C11.641 39.5985 11.636 39.5709 11.6286 39.5459C11.6212 39.5158 11.6113 39.4858 11.6039 39.4507C11.5989 39.4232 11.5965 39.3956 11.5915 39.3656C11.5866 39.3305 11.5816 39.298 11.5767 39.2604C11.5767 39.2304 11.5767 39.1978 11.5767 39.1653C11.5767 39.1277 11.5742 39.0901 11.5767 39.0501C11.5767 39.015 11.5816 38.98 11.5841 38.9424C11.5866 38.8998 11.589 38.8573 11.5965 38.8122L12.7888 29.8654C12.7888 29.8654 12.7888 29.8554 12.7888 29.8504C12.7937 29.8128 12.7937 29.7777 12.7987 29.7402C12.8011 29.7076 12.8061 29.6726 12.8061 29.64L12.811 29.6475Z" fill="#EFF3FA"/>
<path d="M19.6268 5.50615C19.6268 5.50615 19.6367 5.48862 19.6417 5.48111C19.6837 5.40349 19.7282 5.32837 19.7752 5.25575C19.7827 5.24573 19.7901 5.23572 19.795 5.2232C19.842 5.15309 19.8915 5.08297 19.941 5.01787C19.9509 5.00535 19.9608 4.99533 19.9707 4.98281C20.0102 4.93273 20.0523 4.88516 20.0943 4.84009C20.1166 4.81505 20.1413 4.79001 20.1636 4.76497C20.2106 4.71739 20.2551 4.66981 20.3046 4.62725C20.3096 4.62224 20.317 4.61473 20.3219 4.60972C20.3788 4.55964 20.4357 4.51457 20.4926 4.46949C20.505 4.45948 20.5198 4.44946 20.5322 4.43944C20.5916 4.39688 20.6485 4.35681 20.7078 4.32426C20.7697 4.2867 20.834 4.25665 20.8958 4.22911C20.9131 4.2216 20.9305 4.21408 20.9478 4.20657C20.9849 4.19155 21.0245 4.17903 21.0616 4.16651C21.0789 4.1615 21.0962 4.15399 21.1135 4.15148C21.1333 4.14648 21.1531 4.14147 21.1729 4.13896C21.1976 4.13396 21.2223 4.12895 21.2471 4.12644C21.2619 4.12644 21.2768 4.12394 21.2916 4.12144C21.3188 4.11893 21.3485 4.11643 21.3757 4.11643C21.3881 4.11643 21.398 4.11643 21.4103 4.11643C21.4475 4.11643 21.4846 4.12144 21.5217 4.12644C21.5241 4.12644 21.5266 4.12644 21.5316 4.12644C21.5662 4.13396 21.5983 4.14147 21.6305 4.15399C21.6379 4.15649 21.6478 4.159 21.6552 4.1615C21.6899 4.17402 21.7245 4.18904 21.7567 4.20908L15.3548 0.448054C15.3548 0.448054 15.3498 0.44555 15.3473 0.443046C15.3251 0.430526 15.3003 0.418006 15.2756 0.40799C15.2682 0.405486 15.2608 0.402982 15.2533 0.400478C15.2459 0.397974 15.2385 0.39547 15.2286 0.392966C15.2187 0.390462 15.2088 0.385454 15.1989 0.38295C15.1767 0.375438 15.1544 0.37043 15.1297 0.367926C15.1272 0.367926 15.1247 0.367926 15.1198 0.367926C15.1198 0.367926 15.1198 0.367926 15.1173 0.367926C15.0876 0.362918 15.0604 0.360414 15.0307 0.35791C15.0233 0.35791 15.0159 0.35791 15.0084 0.35791C14.9961 0.35791 14.9862 0.35791 14.9738 0.35791C14.9614 0.35791 14.9466 0.35791 14.9342 0.35791C14.9194 0.35791 14.9045 0.360414 14.8922 0.362918C14.8773 0.362918 14.8625 0.362918 14.8477 0.367926C14.8402 0.367926 14.8328 0.367926 14.8254 0.367926C14.8081 0.37043 14.7908 0.375438 14.7734 0.380446C14.7537 0.385454 14.7339 0.387958 14.7141 0.392966C14.7091 0.392966 14.7017 0.392966 14.6968 0.39547C14.6844 0.397974 14.6745 0.402982 14.6621 0.40799C14.625 0.42051 14.5854 0.43303 14.5483 0.448054C14.5384 0.450558 14.5285 0.453062 14.5211 0.45807C14.5137 0.460574 14.5063 0.465582 14.4964 0.47059C14.4345 0.498135 14.3702 0.528183 14.3084 0.565743C14.249 0.600799 14.1921 0.640863 14.1328 0.680927C14.1204 0.690943 14.1055 0.700959 14.0932 0.710975C14.0363 0.753543 13.9794 0.801119 13.9225 0.8512C13.9175 0.856208 13.9101 0.86372 13.9052 0.868728C13.873 0.898776 13.8384 0.928824 13.8062 0.961376C13.7914 0.9764 13.779 0.991424 13.7642 1.00645C13.7394 1.03149 13.7172 1.05653 13.6949 1.08157C13.6801 1.0991 13.6628 1.11663 13.6454 1.13416C13.6207 1.1642 13.596 1.19425 13.5712 1.2243C13.5613 1.23682 13.5514 1.24684 13.5415 1.25936C13.5366 1.26436 13.5317 1.26937 13.5267 1.27688C13.4945 1.31945 13.4624 1.36202 13.4302 1.40709C13.4179 1.42462 13.4055 1.44465 13.3931 1.46469C13.3857 1.4747 13.3783 1.48472 13.3709 1.49724C13.3634 1.50976 13.3535 1.52228 13.3461 1.5348C13.3214 1.57486 13.2967 1.61493 13.2719 1.65749C13.2595 1.67753 13.2472 1.70006 13.2373 1.7226C13.2323 1.73261 13.2274 1.74013 13.2224 1.75014C13.2175 1.76016 13.2101 1.77017 13.2051 1.78269C13.1829 1.82276 13.1631 1.86533 13.1433 1.90789C13.1284 1.93794 13.1161 1.96799 13.1012 1.99804C13.0988 2.00555 13.0938 2.01306 13.0913 2.02057C13.0889 2.02558 13.0864 2.03309 13.0839 2.0381C13.0641 2.08317 13.0468 2.13075 13.027 2.17582C13.0122 2.21839 12.9949 2.25846 12.9825 2.30353L9.82356 11.6585C9.79883 11.7336 9.77161 11.8062 9.73946 11.8788C9.73698 11.8863 9.73451 11.8938 9.72956 11.9013C9.69988 11.969 9.66772 12.0391 9.63556 12.1042C9.63061 12.1142 9.62567 12.1267 9.61825 12.1367C9.58609 12.2018 9.54898 12.2644 9.51188 12.327C9.50446 12.3395 9.49703 12.3521 9.48961 12.3646C9.45003 12.4272 9.41046 12.4898 9.3684 12.5524C9.36346 12.5574 9.35851 12.5649 9.35604 12.5699C9.31893 12.6225 9.27935 12.6751 9.23977 12.7252C9.22493 12.7452 9.21009 12.7627 9.19277 12.7828C9.16309 12.8178 9.1334 12.8504 9.10372 12.8829C9.07651 12.913 9.05177 12.9405 9.02456 12.9681C8.98993 13.0031 8.95777 13.0357 8.92314 13.0682C8.90582 13.0832 8.89098 13.1008 8.87367 13.1158C8.81924 13.1634 8.7673 13.2084 8.7104 13.251L1.60349 18.6096C1.5367 18.6597 1.47239 18.7147 1.40807 18.7723C1.39323 18.7874 1.37592 18.7999 1.36107 18.8149C1.34623 18.8299 1.32892 18.8425 1.31407 18.8575C1.28439 18.8875 1.2547 18.9201 1.22502 18.9526C1.20523 18.9727 1.18544 18.9927 1.16813 19.0127C1.16318 19.0202 1.15576 19.0252 1.15081 19.0328C1.11123 19.0803 1.07165 19.1279 1.03455 19.1755C1.02713 19.1855 1.0197 19.1955 1.01228 19.2055C1.00239 19.2181 0.994963 19.2281 0.987542 19.2406C0.970226 19.2631 0.955384 19.2857 0.938068 19.3082C0.908384 19.3508 0.881174 19.3908 0.853963 19.4334C0.851489 19.4384 0.846542 19.4434 0.844068 19.4509C0.839121 19.4584 0.836647 19.4659 0.8317 19.4735C0.814384 19.501 0.797068 19.5285 0.779752 19.5586C0.755016 19.5987 0.732752 19.6412 0.710489 19.6838C0.708015 19.6888 0.705542 19.6963 0.700594 19.7013C0.695647 19.7088 0.693173 19.7163 0.6907 19.7239C0.675857 19.7514 0.661015 19.7815 0.646173 19.8115C0.626384 19.8541 0.606594 19.8991 0.586805 19.9417C0.586805 19.9467 0.581857 19.9517 0.579384 19.9567C0.57691 19.9642 0.574436 19.9718 0.569489 19.9793C0.55712 20.0118 0.542278 20.0419 0.52991 20.0744C0.512594 20.122 0.495278 20.1721 0.477962 20.2197C0.460647 20.2722 0.445804 20.3223 0.430962 20.3749C0.426015 20.3974 0.421068 20.42 0.41612 20.44C0.411173 20.46 0.406225 20.4801 0.401278 20.5001C0.396331 20.5176 0.391383 20.5352 0.38891 20.5502C0.381489 20.5852 0.376541 20.6203 0.371594 20.6579C0.366646 20.6879 0.361699 20.7154 0.356752 20.7455C0.356752 20.753 0.354278 20.763 0.351804 20.7705C0.344383 20.8256 0.34191 20.8782 0.339436 20.9308C0.339436 20.9433 0.336962 20.9583 0.336962 20.9709C0.334488 21.0435 0.336962 21.1161 0.339436 21.1837C0.339436 21.2037 0.344383 21.2213 0.346857 21.2413C0.351804 21.2889 0.359225 21.3364 0.366646 21.384C0.371594 21.4066 0.376541 21.4291 0.383962 21.4516C0.393857 21.4917 0.406225 21.5292 0.418594 21.5668C0.426015 21.5893 0.43591 21.6119 0.445804 21.6319C0.460647 21.667 0.477962 21.6995 0.497752 21.7296C0.51012 21.7496 0.520015 21.7671 0.532384 21.7847C0.554647 21.8172 0.579384 21.8448 0.606594 21.8723C0.618963 21.8848 0.631331 21.8998 0.6437 21.9124C0.685752 21.9499 0.732752 21.985 0.782226 22.0125L7.18414 25.7785C7.13219 25.751 7.08766 25.7159 7.04561 25.6784C7.03077 25.6659 7.02087 25.6508 7.0085 25.6383C6.98129 25.6108 6.95656 25.5807 6.93429 25.5507C6.92192 25.5332 6.90956 25.5131 6.89966 25.4956C6.87987 25.463 6.86256 25.4305 6.84771 25.3954C6.83782 25.3754 6.82792 25.3529 6.8205 25.3303C6.80566 25.2928 6.79577 25.2552 6.78587 25.2151C6.78092 25.1926 6.7735 25.1701 6.76856 25.1475C6.75866 25.1025 6.75371 25.0549 6.74877 25.0048C6.74877 24.9848 6.74382 24.9673 6.74135 24.9472C6.7364 24.8771 6.73392 24.807 6.73887 24.7344C6.73887 24.7219 6.74135 24.7068 6.74135 24.6943C6.74382 24.6342 6.75124 24.5716 6.75866 24.509C6.76361 24.4815 6.76856 24.4514 6.7735 24.4214C6.7834 24.3688 6.79082 24.3162 6.80319 24.2636C6.80814 24.2436 6.81308 24.2236 6.81803 24.201C6.83535 24.1284 6.85514 24.0533 6.87987 23.9807C6.90708 23.9005 6.93677 23.8204 6.96892 23.7403C6.9714 23.7328 6.97387 23.7253 6.97882 23.7178C7.01098 23.6401 7.04808 23.5625 7.08766 23.4849C7.09014 23.4774 7.09508 23.4699 7.09756 23.4623C7.13714 23.3847 7.17919 23.3096 7.22619 23.237C7.23114 23.2295 7.23361 23.222 7.23856 23.2144C7.28308 23.1443 7.33008 23.0742 7.37956 23.0066C7.38698 22.9941 7.39687 22.9841 7.40429 22.9716C7.45377 22.9039 7.50572 22.8413 7.56014 22.7787C7.57745 22.7587 7.59724 22.7387 7.61703 22.7187C7.66156 22.6711 7.70608 22.626 7.75061 22.5809C7.76545 22.5659 7.78029 22.5509 7.79761 22.5384C7.85945 22.4808 7.92377 22.4257 7.99303 22.3756L15.1 17.017C15.1544 16.9745 15.2088 16.9294 15.2632 16.8818C15.2805 16.8668 15.2954 16.8518 15.3127 16.8342C15.3374 16.8117 15.3597 16.7917 15.3844 16.7691C15.3943 16.7591 15.4042 16.7466 15.4166 16.7341C15.4438 16.7065 15.4685 16.6765 15.4958 16.6489C15.5131 16.6314 15.5304 16.6139 15.5452 16.5939C15.5576 16.5788 15.57 16.5638 15.5823 16.5463C15.5972 16.5287 15.612 16.5087 15.6293 16.4887C15.6417 16.4737 15.6541 16.4611 15.664 16.4461C15.6912 16.4111 15.7184 16.3735 15.7456 16.3359C15.7505 16.3309 15.7555 16.3234 15.758 16.3184C15.758 16.3184 15.7604 16.3134 15.7629 16.3134C15.7926 16.2708 15.8198 16.2283 15.847 16.1857C15.8569 16.1682 15.8693 16.1506 15.8792 16.1331C15.8866 16.1206 15.894 16.1081 15.9014 16.0981C15.9089 16.0855 15.9163 16.073 15.9237 16.0605C15.9484 16.0204 15.9707 15.9779 15.993 15.9353C15.9979 15.9253 16.0029 15.9153 16.0078 15.9053C16.0128 15.8952 16.0177 15.8827 16.0251 15.8727C16.035 15.8502 16.0474 15.8301 16.0573 15.8076C16.0771 15.765 16.0969 15.7225 16.1142 15.6799C16.1142 15.6749 16.1167 15.6724 16.1191 15.6674C16.1216 15.6599 16.1241 15.6523 16.1265 15.6473C16.1414 15.6148 16.1538 15.5797 16.1661 15.5472C16.181 15.5071 16.1958 15.4671 16.2082 15.427L19.3671 6.07206C19.3992 5.9744 19.4363 5.88175 19.4759 5.7891C19.4784 5.78159 19.4833 5.77408 19.4858 5.76907C19.5229 5.68394 19.565 5.6013 19.607 5.52118L19.6268 5.50615Z" fill="#EFF3FA"/>
<path d="M20.7079 4.32452C21.2348 4.01653 21.7617 4.02905 22.0363 4.50981L25.2372 10.1463C25.4549 10.5269 25.8705 10.6346 26.3529 10.4368L33.4672 7.48207C34.6793 6.97626 35.1691 8.42608 34.2934 9.93349L29.1655 18.7751C28.8191 19.3736 28.6608 20.0347 28.7449 20.5455L29.9843 28.0725C30.15 29.0891 29.3955 30.4338 28.5347 30.9371C28.3071 31.0698 28.0721 31.1449 27.847 31.1374L21.4748 30.9646C21.2596 30.9596 21.0221 31.0297 20.7871 31.17C20.5521 31.3102 20.3146 31.5105 20.0994 31.7684L13.7494 39.3756C13.5243 39.646 13.2893 39.8464 13.0617 39.9791C12.2009 40.4824 11.439 40.0241 11.5998 38.8172L12.7921 29.8704C12.8737 29.2644 12.713 28.7887 12.3642 28.5984L7.20163 25.7713C6.321 25.2906 6.80089 23.2748 8.013 22.3634L15.1199 17.0048C15.5998 16.6417 16.0153 16.0483 16.2305 15.4148L19.3894 6.05979C19.6591 5.26352 20.1835 4.63501 20.7104 4.32702L20.7079 4.32452Z" fill="#EFF3FA"/>
<path d="M0 20.9436V20.8986C0.00742107 20.8385 0.00989475 20.7759 0.0222632 20.6857L0.0346316 20.6131L0.0445264 20.5555C0.0494738 20.5255 0.0544211 20.4954 0.0593685 20.4654L0.106369 20.2676C0.121211 20.21 0.138527 20.1524 0.150895 20.1248C0.150895 20.1198 0.153369 20.1148 0.155842 20.1098C0.155842 20.1048 0.158316 20.0973 0.16079 20.0923C0.178106 20.0397 0.197895 19.9846 0.217685 19.932L0.262211 19.8244C0.262211 19.8244 0.277053 19.7868 0.279527 19.7843C0.299316 19.7367 0.32158 19.6891 0.343843 19.6416L0.393316 19.5414C0.393316 19.5414 0.410632 19.5063 0.413106 19.5038C0.437843 19.4588 0.46258 19.4137 0.487317 19.3686L0.568948 19.2334C0.598633 19.1858 0.628317 19.1408 0.660475 19.0957L0.722317 19.0106C0.722317 19.0106 0.742107 18.983 0.74458 18.9805L0.769317 18.948C0.81137 18.8929 0.853423 18.8403 0.917738 18.7677L1.00679 18.67C1.03153 18.6425 1.05379 18.6174 1.081 18.5924L1.18242 18.4972C1.25416 18.4321 1.3259 18.3695 1.40258 18.3119L8.50949 12.9534C8.55649 12.9183 8.60349 12.8782 8.65049 12.8357C8.65049 12.8357 8.69502 12.7956 8.69502 12.7931C8.7247 12.7656 8.75686 12.7355 8.78654 12.703C8.81128 12.6779 8.83354 12.6529 8.8558 12.6278C8.88302 12.5978 8.91023 12.5677 8.93496 12.5377L8.97702 12.4876C9.01412 12.4425 9.04875 12.395 9.09328 12.3324C9.13038 12.2773 9.16749 12.2197 9.20212 12.1621L9.22191 12.1295C9.25407 12.0745 9.28623 12.0169 9.33075 11.9292C9.36044 11.8691 9.39012 11.809 9.42475 11.7264C9.45196 11.6613 9.4767 11.5962 9.49896 11.5286L12.6579 2.1736C12.6727 2.12603 12.69 2.08096 12.7073 2.03588C12.7271 1.9833 12.7469 1.93322 12.7667 1.88815C12.7667 1.88564 12.789 1.83807 12.789 1.83556L12.831 1.74041C12.8533 1.69283 12.8755 1.64776 12.9003 1.60269L12.9275 1.55511L12.9498 1.51755L12.977 1.46998C13.0042 1.42491 13.0314 1.37983 13.0586 1.33727L13.1501 1.19955C13.1848 1.14947 13.2194 1.10189 13.2689 1.03929C13.2713 1.03679 13.2911 1.01175 13.2936 1.00924L13.3159 0.979192C13.3381 0.951648 13.3604 0.924104 13.3827 0.89656L13.4371 0.836464C13.4643 0.80892 13.489 0.778872 13.5237 0.741312L13.5608 0.701247C13.5954 0.666191 13.6325 0.631135 13.6919 0.578551C13.7562 0.520959 13.8205 0.468375 13.8848 0.420799L13.9318 0.385743C13.9986 0.338166 14.0654 0.29059 14.1347 0.250526C14.2089 0.207958 14.2831 0.170398 14.3449 0.145358C14.3598 0.137846 14.3746 0.130334 14.4216 0.112806C14.4686 0.0927735 14.5156 0.0777494 14.5577 0.0652294C14.575 0.0577174 14.5923 0.0527094 14.6319 0.0426934L14.7184 0.0226613C14.7382 0.0176533 14.758 0.0126453 14.8026 0.00763722C14.8248 0.00513322 14.8446 0.00262921 14.8693 0.000125201C14.8792 0.000125201 14.9163 -0.00488281 14.9238 -0.00488281H15.0153C15.0153 -0.00488281 15.045 -0.00488281 15.0549 -0.00488281C15.0969 -0.0023788 15.139 0.00262921 15.1959 0.0126453C15.2305 0.0201573 15.2651 0.0276693 15.2948 0.0351813C15.3097 0.0401893 15.3245 0.0451974 15.369 0.0602214C15.3764 0.0627254 15.3987 0.0702374 15.4086 0.0752454C15.4457 0.0902695 15.4828 0.107798 15.5298 0.135342C15.5298 0.135342 21.9441 3.90888 21.9515 3.91389C22.1074 4.01154 22.2385 4.14927 22.3399 4.32455L22.9534 5.40628L22.7827 5.1058L26.9335 3.38304C27.0003 3.3555 27.0646 3.33296 27.1166 3.32044L27.1537 3.30792C27.1537 3.30792 27.1883 3.30041 27.1908 3.30041C27.2229 3.2929 27.2526 3.28538 27.2798 3.28038L27.3169 3.27286C27.3169 3.27286 27.3516 3.26786 27.354 3.26786C27.3788 3.26535 27.4035 3.26285 27.4258 3.26034L27.4703 3.25533C27.4703 3.25533 27.4777 3.25533 27.4852 3.25533C27.495 3.25533 27.5049 3.25533 27.5049 3.25533H27.6014C27.6014 3.25533 27.641 3.26034 27.6435 3.26034L27.6855 3.26535C27.6855 3.26535 27.7152 3.26786 27.7276 3.27036L27.8067 3.28789C27.8067 3.28789 27.8315 3.2929 27.8414 3.2954C27.8686 3.30291 27.8933 3.31293 27.9329 3.32795C27.9403 3.33046 27.9477 3.33296 27.9552 3.33546C27.9923 3.35049 28.0294 3.37052 28.0764 3.39556L34.4511 7.14656C34.5599 7.20666 34.6613 7.28679 34.7479 7.38945C35.255 7.98039 35.1932 9.06964 34.5945 10.1013L29.4666 18.9429C29.1648 19.4638 29.0188 20.0522 29.0881 20.4754L30.3274 28.0024C30.5278 29.2294 29.6348 30.6867 28.7072 31.2301C28.4128 31.4029 28.1159 31.4855 27.8364 31.478L21.4642 31.3052C21.3232 31.3002 21.1426 31.3553 20.9596 31.463C20.7542 31.5832 20.5489 31.7635 20.3634 31.9838L14.0134 39.591C13.7686 39.884 13.5063 40.1118 13.2342 40.2721C12.9498 40.4373 12.6653 40.5225 12.4006 40.5225C12.1978 40.5225 12.0048 40.4724 11.8341 40.3722C11.8341 40.3722 11.8317 40.3722 11.8292 40.3722L5.42975 36.6062C5.37285 36.5712 5.31596 36.5311 5.26401 36.486C5.25906 36.481 5.20959 36.4309 5.20464 36.4259C5.17496 36.3984 5.14775 36.3683 5.12301 36.3358C5.10569 36.3157 5.09085 36.2932 5.06611 36.2506C5.04632 36.2206 5.02654 36.1905 5.00922 36.158C4.99685 36.1355 4.98696 36.1104 4.96469 36.0578C4.94985 36.0253 4.93501 35.9952 4.92264 35.9602C4.91522 35.9351 4.9078 35.9101 4.90038 35.8825L5.2368 35.7974L4.88801 35.845C4.87811 35.8124 4.87069 35.7799 4.86327 35.7448C4.85832 35.7198 4.85585 35.6922 4.8509 35.6647L5.19722 35.6246L4.84596 35.6171C4.84101 35.5846 4.83606 35.5495 4.83359 35.5145C4.83359 35.4869 4.83359 35.4569 4.83359 35.4268V35.3717C4.83359 35.3367 4.83111 35.3016 4.83359 35.2641C4.83359 35.234 4.83853 35.204 4.84101 35.1714L4.84596 35.1088C4.84596 35.0763 4.8509 35.0437 4.85585 34.9911L6.04817 26.0443C6.05064 26.0218 6.05312 25.9992 6.05312 25.9767L6.06301 25.8565C6.06301 25.8365 6.06301 25.8164 6.06301 25.7639C6.06301 25.7639 6.06301 25.7288 6.06301 25.7263V25.6887C6.06301 25.6712 6.05806 25.6537 6.05312 25.6061C6.05312 25.6036 6.0457 25.5435 6.0457 25.541C6.04322 25.526 6.03827 25.511 6.02838 25.4709L0.638212 22.3008C0.566475 22.2608 0.499685 22.2132 0.435369 22.1556C0.41558 22.1381 0.398264 22.1205 0.376001 22.0955C0.338895 22.0554 0.30179 22.0129 0.267158 21.9653C0.252316 21.9427 0.237474 21.9202 0.217685 21.8877C0.190474 21.8426 0.168211 21.7975 0.145948 21.7499C0.133579 21.7199 0.121211 21.6923 0.111316 21.6623C0.0940002 21.6147 0.079158 21.5646 0.0618422 21.4995C0.0544211 21.4745 0.0494738 21.452 0.0445264 21.4269C0.032158 21.3693 0.0247369 21.3117 0.0173158 21.2391C0.0173158 21.2316 0.0123684 21.189 0.00989475 21.1815C0.00494738 21.0989 0.00247369 21.0163 0.00494738 20.9286L0 20.9436ZM27.7251 4.01405C27.7251 4.01405 27.7078 4.00403 27.6979 3.99902C27.6905 3.99902 27.6855 3.99402 27.6806 3.99151L27.6756 3.9865C27.6756 3.9865 27.6509 3.97899 27.6385 3.97649C27.6385 3.97649 27.6286 3.97398 27.6262 3.97398C27.6212 3.97398 27.5792 3.96647 27.5717 3.96647C27.5668 3.96647 27.5223 3.96647 27.5148 3.96647C27.5099 3.96647 27.4901 3.96647 27.4777 3.96647H27.4406C27.4406 3.96647 27.4109 3.97398 27.406 3.97649L27.354 3.9865C27.354 3.9865 27.3293 3.99402 27.3219 3.99652C27.2823 4.00904 27.2403 4.02156 27.1982 4.03909L23.1315 5.72679L25.5384 9.96607C25.6992 10.249 25.9985 10.199 26.2186 10.1063L33.1746 7.21918L27.7226 4.01155L27.7251 4.01405ZM12.1607 39.7613C12.3289 39.8739 12.5985 39.8414 12.8879 39.6736C13.0908 39.5559 13.2911 39.3781 13.4841 39.1478L19.834 31.5406C20.069 31.2576 20.3387 31.0248 20.6132 30.8645C20.8952 30.6993 21.1847 30.6116 21.4518 30.6116C21.4617 30.6116 21.4741 30.6116 21.484 30.6116L27.8562 30.7844C28.012 30.7844 28.1803 30.7368 28.3608 30.6316C29.0733 30.2135 29.7906 29.0316 29.6422 28.1301L28.4029 20.6006C28.3064 20.0122 28.482 19.261 28.8679 18.5949L33.9959 9.75323C34.4807 8.91689 34.4758 8.15317 34.2235 7.8602C34.0924 7.70746 33.8821 7.68993 33.6001 7.80762L26.4858 10.7624C25.8377 11.0303 25.244 10.86 24.9373 10.3217L21.7363 4.68512C21.6893 4.60499 21.6349 4.5474 21.5706 4.51235C21.5582 4.50483 21.5434 4.49983 21.5211 4.49231C21.5087 4.48731 21.4964 4.4848 21.484 4.4823C21.4716 4.47979 21.4568 4.47729 21.4419 4.47479C21.432 4.47479 21.4221 4.47479 21.4098 4.47479C21.4098 4.47479 21.4098 4.47479 21.4073 4.47479C21.3999 4.47479 21.39 4.47479 21.3801 4.47479C21.3628 4.47479 21.3455 4.47479 21.2985 4.47979C21.2811 4.47979 21.2638 4.4848 21.2465 4.48981C21.2465 4.48981 21.2119 4.49732 21.2045 4.49732C21.1921 4.49983 21.1772 4.50483 21.1624 4.50984C21.1327 4.51986 21.1055 4.52987 21.0758 4.53989L21.0338 4.55742C20.9892 4.57745 20.9447 4.59748 20.9002 4.62503C20.8952 4.62753 20.8878 4.63254 20.8829 4.63504C20.8705 4.64255 20.8581 4.65007 20.8458 4.65758C20.8087 4.68011 20.7716 4.70515 20.7345 4.7327L20.6998 4.75774C20.6504 4.7953 20.6009 4.83536 20.5366 4.89296C20.4945 4.93052 20.4525 4.97308 20.4129 5.01315L20.351 5.08076C20.3139 5.12082 20.2768 5.16339 20.2422 5.20846C20.2422 5.20846 20.2249 5.231 20.215 5.24352C20.1977 5.26605 20.1779 5.29109 20.1606 5.31864C20.1556 5.32364 20.1531 5.33116 20.1482 5.33616C20.1284 5.36371 20.1086 5.39376 20.0864 5.42631C20.0789 5.43883 20.0715 5.44884 20.0641 5.46136C20.0567 5.47138 20.0517 5.4814 20.0443 5.49141C20.0295 5.51645 20.0121 5.54149 19.9973 5.56653C19.9899 5.57905 19.9849 5.58907 19.9775 5.60159C19.9602 5.63164 19.9429 5.66169 19.9256 5.69424C19.9256 5.69925 19.9206 5.70175 19.9206 5.70676C19.9033 5.73681 19.8885 5.76936 19.8736 5.80191C19.8662 5.81443 19.8612 5.82695 19.8538 5.84197C19.8415 5.86952 19.8266 5.89957 19.8142 5.92711C19.7994 5.96467 19.7821 5.99973 19.7697 6.03729C19.7697 6.04229 19.7648 6.0473 19.7648 6.04981C19.7524 6.08236 19.74 6.11741 19.7277 6.15247C19.7252 6.15998 19.7202 6.17 19.7178 6.17751L18.2212 10.6071L16.5589 15.5325C16.544 15.5776 16.5292 15.6201 16.5119 15.6627C16.5069 15.6752 16.502 15.6877 16.497 15.6978C16.4847 15.7303 16.4723 15.7629 16.4574 15.7929C16.455 15.8004 16.4525 15.8079 16.45 15.8079C16.4302 15.8555 16.408 15.9031 16.3882 15.9456L16.356 16.0108C16.3486 16.0233 16.3437 16.0358 16.3362 16.0483C16.3362 16.0483 16.3189 16.0834 16.3189 16.0859C16.309 16.1059 16.2991 16.1234 16.2868 16.1435C16.2818 16.1535 16.2744 16.166 16.2694 16.176C16.2596 16.191 16.2521 16.2086 16.2422 16.2236C16.2422 16.2236 16.2274 16.2486 16.22 16.2612L16.2101 16.2762L16.2002 16.2912L16.1581 16.3613C16.1284 16.4089 16.0963 16.4565 16.0443 16.5291C16.0147 16.5717 15.985 16.6117 15.9553 16.6543L15.9108 16.7119C15.8984 16.7294 15.8836 16.7469 15.8687 16.762L15.8539 16.7795C15.8539 16.7795 15.8267 16.812 15.8242 16.8145L15.8069 16.8321C15.7623 16.8821 15.7178 16.9297 15.6733 16.9773C15.6659 16.9848 15.6486 17.0023 15.6461 17.0073C15.6411 17.0124 15.6337 17.0174 15.6288 17.0224C15.5323 17.12 15.4284 17.2077 15.3245 17.2878L8.21759 22.6464C8.18296 22.6739 8.14833 22.7015 8.11617 22.729C8.09391 22.749 8.07165 22.7666 8.04938 22.7866L8.00733 22.8267C7.96528 22.8667 7.92817 22.9068 7.88859 22.9468C7.88859 22.9468 7.86386 22.9719 7.86386 22.9744L7.83912 23.0019C7.78965 23.057 7.74265 23.1146 7.69812 23.1747C7.69812 23.1747 7.68328 23.1947 7.67586 23.2048C7.63133 23.2674 7.58928 23.33 7.53733 23.4126C7.49528 23.4802 7.45817 23.5478 7.41117 23.6355C7.37654 23.7056 7.34191 23.7757 7.3048 23.8658C7.28996 23.8984 7.27759 23.9334 7.26522 23.966C7.26522 23.971 7.26028 23.9785 7.2578 23.9835C7.24543 24.0136 7.23554 24.0436 7.22564 24.0762C7.2207 24.0937 7.21575 24.1087 7.2108 24.1262C7.19596 24.1788 7.18112 24.2314 7.16875 24.2815L7.15638 24.3366C7.14649 24.3816 7.13907 24.4292 7.12422 24.5043L7.1168 24.5494C7.1168 24.5644 7.11185 24.582 7.11185 24.597C7.10938 24.627 7.10691 24.6596 7.10196 24.6997C7.10196 24.7222 7.09949 24.7422 7.09949 24.7648C7.09949 24.7823 7.09949 24.7998 7.09949 24.8148C7.09949 24.8274 7.09949 24.8424 7.09949 24.8549C7.09949 24.8774 7.09949 24.9 7.10443 24.925C7.10443 24.93 7.10938 24.9576 7.10938 24.9601C7.11433 24.9976 7.1168 25.0327 7.12422 25.0677L7.13659 25.1178C7.14401 25.1454 7.15143 25.1729 7.16133 25.1954L7.17864 25.2405C7.18854 25.2631 7.20091 25.2831 7.2108 25.3031L7.23307 25.3382C7.24543 25.3557 7.26028 25.3707 7.29491 25.4083C7.31222 25.4233 7.32707 25.4358 7.34438 25.4458C7.3518 25.4509 7.35675 25.4534 7.36417 25.4584L7.37407 25.4659L12.5317 28.2904C13.0141 28.5533 13.2417 29.1618 13.1402 29.9205L11.9479 38.8673C11.891 39.298 11.9702 39.6336 12.1631 39.7638L12.1607 39.7613ZM5.54106 35.1113C5.54106 35.1313 5.53859 35.1489 5.53611 35.1664L5.52622 35.2991C5.52622 35.3191 5.52622 35.3392 5.52622 35.3918C5.52622 35.3918 5.52622 35.4293 5.52622 35.4318V35.4694C5.52622 35.4869 5.53117 35.5019 5.53859 35.5495C5.53859 35.552 5.54601 35.6121 5.54601 35.6171L5.5658 35.6847C5.5658 35.6847 5.57817 35.7348 5.57817 35.7373C5.58311 35.7498 5.58806 35.7599 5.6029 35.7924C5.6029 35.7974 5.61775 35.8275 5.62022 35.8325L5.6499 35.8775L5.66722 35.9076L5.71917 35.9627C5.73648 35.9777 5.75627 35.9927 5.77606 36.0052L11.2305 39.2154C11.2256 39.0752 11.2305 38.9249 11.2528 38.7697L12.4451 29.8229C12.5045 29.3746 12.4105 29.0241 12.1953 28.9064L7.0327 26.0794C7.01785 26.0719 7.00054 26.0618 6.9857 26.0518L6.75564 25.9166C6.75564 25.9366 6.75317 25.9592 6.7507 25.9792L6.74575 26.0418C6.74328 26.0769 6.7408 26.1144 6.73585 26.152L5.54354 35.1138L5.54106 35.1113Z" fill="#035BE8"/>
</g>
</g>
<defs>
<clipPath id="clip0_9_47853">
<rect width="36" height="75" fill="white"/>
</clipPath>
</defs>
</svg>
