<svg xmlns="http://www.w3.org/2000/svg" width="65" height="75" fill="none" viewBox="0 0 65 75"><g clip-path="url(#a)"><mask id="b" width="65" height="75" x="0" y="0" maskUnits="userSpaceOnUse" style="mask-type:luminance"><path fill="#fff" d="M65 0H0v75h65z"/></mask><g fill-rule="evenodd" clip-rule="evenodd" mask="url(#b)"><path fill="#035be8" d="M64.433 20.721 53.22 14.298l-6.35 1.312 11.216 6.423z"/><path fill="#035be8" d="m48.44 15.858 9.744 5.583 4.684-.973-9.743-5.578zm9.648 6.74a.6.6 0 0 1-.278-.077l-11.216-6.424a.57.57 0 0 1-.274-.577.56.56 0 0 1 .442-.457l6.343-1.318a.6.6 0 0 1 .398.066l11.216 6.424a.565.565 0 0 1 .275.573.58.58 0 0 1-.443.464l-6.349 1.313a.4.4 0 0 1-.116.014zM53.7 6.982 42.488.559 36.57 7.446l11.21 6.427z"/><path fill="#035be8" d="m37.442 7.297 10.218 5.855 5.171-6.022-10.219-5.85zm10.339 7.135a.55.55 0 0 1-.279-.076L36.286 7.932a.558.558 0 0 1-.15-.85L42.06.197a.555.555 0 0 1 .706-.12l11.216 6.42a.56.56 0 0 1 .278.391.57.57 0 0 1-.13.464l-5.917 6.885a.57.57 0 0 1-.432.196"/><path fill="#035be8" d="m47.778 13.873-11.21-6.428-3.365.334 11.214 6.424z"/><path fill="#035be8" d="m35.01 8.161 9.53 5.465 1.434-.143-9.531-5.458-1.433.138zm9.406 6.605a.6.6 0 0 1-.284-.076L32.916 8.262a.555.555 0 0 1-.27-.602.57.57 0 0 1 .496-.439l3.365-.334c.12-.01.241.014.337.072l11.216 6.428c.216.12.322.367.27.602a.55.55 0 0 1-.494.439l-3.368.334c-.015 0-.033.004-.052.004"/><path fill="#eff3fa" d="M42.395 8.095 31.179 1.672l-8.57 4.904 11.214 6.423z"/><path fill="#035be8" d="m23.746 6.576 10.08 5.78 7.439-4.26-10.084-5.781zm10.08 6.986a.6.6 0 0 1-.285-.076l-11.21-6.424a.557.557 0 0 1 0-.973l8.57-4.906a.55.55 0 0 1 .556 0l11.216 6.424a.557.557 0 0 1 0 .968l-8.569 4.91a.6.6 0 0 1-.278.077"/><path fill="#035be8" d="M33.825 13 22.611 6.575l-2.025 8.43 11.216 6.427z"/><path fill="#035be8" d="m21.236 14.732 10.19 5.836 1.75-7.29-10.191-5.843zM31.8 21.991a.6.6 0 0 1-.284-.072L20.3 15.49a.55.55 0 0 1-.264-.616l2.025-8.427a.57.57 0 0 1 .326-.386.59.59 0 0 1 .505.029l11.21 6.427a.56.56 0 0 1 .27.61l-2.023 8.434a.59.59 0 0 1-.322.387.6.6 0 0 1-.227.044z"/><path fill="#eff3fa" d="m31.8 21.432-11.216-6.427-3.365 3.527 11.214 6.423z"/><path fill="#035be8" d="m18.125 18.402 10.204 5.846 2.568-2.686-10.21-5.846-2.564 2.686zm10.31 7.116a.6.6 0 0 1-.285-.077l-11.21-6.423a.555.555 0 0 1-.128-.868l3.365-3.527a.57.57 0 0 1 .694-.1l11.216 6.422c.15.087.25.24.274.407a.55.55 0 0 1-.15.463l-3.36 3.528a.57.57 0 0 1-.414.177z"/><path fill="#035be8" d="m28.435 24.955-11.214-6.423-5.916-.105L22.52 24.85z"/><path fill="#035be8" d="m22.675 24.292 3.583.062-9.19-5.263-3.578-.062zm5.762 1.226h-.01l-5.92-.105a.56.56 0 0 1-.27-.08l-11.21-6.424a.55.55 0 0 1-.264-.634.564.564 0 0 1 .544-.41h.015l5.914.109q.145.002.27.076l11.216 6.423a.56.56 0 0 1 .264.635.57.57 0 0 1-.549.41"/><path fill="#eff3fa" d="m22.52 24.85-11.217-6.423-6.05 10.393 11.221 6.424z"/><path fill="#035be8" d="m6.026 28.615 10.234 5.864 5.482-9.424-10.234-5.865zm10.446 7.192a.54.54 0 0 1-.283-.076L4.973 29.307a.56.56 0 0 1-.206-.769l6.05-10.393a.54.54 0 0 1 .34-.258.54.54 0 0 1 .428.052l11.216 6.423a.56.56 0 0 1 .202.769l-6.045 10.394a.56.56 0 0 1-.484.28z"/><path fill="#035be8" d="M16.474 35.244 5.254 28.82l3.058 5.03-1.398 4.653 11.214 6.423 1.396-4.653z"/><path fill="#035be8" d="m7.583 38.24 10.21 5.845 1.12-3.73-2.852-4.697-9.191-5.263 1.924 3.165a.55.55 0 0 1 .058.447zm10.547 7.25a.6.6 0 0 1-.285-.077L6.635 38.99a.555.555 0 0 1-.26-.646l1.324-4.42-2.925-4.815a.55.55 0 0 1 .08-.682.56.56 0 0 1 .684-.095l11.216 6.423a.53.53 0 0 1 .202.2l3.054 5.026a.6.6 0 0 1 .058.453l-1.394 4.653a.56.56 0 0 1-.337.357.5.5 0 0 1-.207.043z"/><path fill="#eff3fa" d="M18.129 44.926 6.914 38.503.57 44.458l11.216 6.428z"/><path fill="#035be8" d="m1.511 44.349 10.19 5.84 5.492-5.154L7.003 39.2zm10.277 7.095a.57.57 0 0 1-.285-.076L.29 44.944a.55.55 0 0 1-.278-.42.57.57 0 0 1 .172-.472l6.35-5.956c.182-.17.45-.2.668-.076l11.216 6.42a.55.55 0 0 1 .274.424.54.54 0 0 1-.168.472l-6.349 5.956a.56.56 0 0 1-.384.152z"/><path fill="#035be8" d="M11.786 50.886.57 44.458v9.82l6.94 3.975-2.255 6.293 11.22 6.424 3.05-8.528-1.394-3.06-6.343-3.636v-4.863z"/><path fill="#035be8" d="m5.946 64.295 10.218 5.857 2.747-7.679-1.222-2.686-6.188-3.55a.55.55 0 0 1-.283-.486v-4.543L1.132 45.434v8.524l6.66 3.813a.56.56 0 0 1 .25.672L5.946 64.3zm10.526 7.24a.6.6 0 0 1-.283-.076L4.973 65.035a.566.566 0 0 1-.249-.678l2.092-5.85-6.531-3.746A.56.56 0 0 1 0 54.28v-9.82a.56.56 0 0 1 .285-.483.56.56 0 0 1 .563 0l11.22 6.424a.56.56 0 0 1 .278.486v4.543l6.064 3.474a.56.56 0 0 1 .23.253l1.395 3.06c.058.127.066.28.018.414L17 71.162a.56.56 0 0 1-.337.334.5.5 0 0 1-.193.039zm15.33-4.315-11.216-6.427 2.025 6.114 11.214 6.423z"/><path fill="#035be8" d="m23.079 66.53 9.743 5.578-1.496-4.51-9.743-5.585 1.496 4.515zm10.744 7.363a.6.6 0 0 1-.285-.076l-11.21-6.428a.56.56 0 0 1-.259-.305l-2.025-6.114a.56.56 0 0 1 .182-.61.57.57 0 0 1 .64-.047l11.216 6.423c.12.066.212.181.256.31l2.019 6.107a.55.55 0 0 1-.179.61.56.56 0 0 1-.355.13m.459-26.605-11.216-6.423c.674.348 1.28.435 2.04.3 2.468-.424 4.67-2.928 5.81-5.025 1.058-1.952 1.943-4.935.996-7.062a2.9 2.9 0 0 0-1.188-1.369l11.216 6.423c2.077 1.252 1.722 4.428 1.082 6.38-.89 2.707-3.164 5.904-5.943 6.881-.834.291-1.775.378-2.593 0l-.202-.105z"/><path fill="#035be8" d="m34.555 46.8.187.095c.727.334 1.568.167 2.146-.033 2.56-.897 4.75-3.966 5.592-6.529.663-2.01.837-4.714-.837-5.726l-8.993-5.15c.654 2.225-.172 4.987-1.24 6.943-1.12 2.068-3.295 4.616-5.852 5.24l8.997 5.158zm1.126 1.408c-.461 0-.958-.087-1.438-.305l-.22-.114s-.015-.01-.025-.014l-11.216-6.423a.557.557 0 0 1-.212-.755.567.567 0 0 1 .76-.229c.55.287 1.04.353 1.68.248 2.16-.371 4.27-2.653 5.409-4.743.986-1.823 1.836-4.634.976-6.572-.226-.505-.5-.82-.976-1.122a.554.554 0 0 1-.179-.762.57.57 0 0 1 .765-.196l11.21 6.423c2.255 1.355 2.168 4.525 1.341 7.04-.903 2.74-3.255 6.17-6.294 7.24a5 5 0 0 1-1.583.286z"/><path fill="#eff3fa" d="M41.939 42.907c-2.117 3.632-5.545 5.592-7.656 4.38s-2.11-5.14 0-8.771c2.11-3.633 5.54-5.597 7.655-4.385 2.111 1.212 2.111 5.14 0 8.776m14.76-1.761 1.39-4.653 6.348-5.955v-9.816l-6.349 1.313-1.39-3.06 3.05-8.527-6.045-3.466-5.92 6.892-3.362.33-2.023-6.108c-2.857 1.636-5.72 3.269-8.57 4.906l-2.025 8.433-3.366 3.523-5.916-.105a6799 6799 0 0 0-6.045 10.393l3.05 5.03-1.395 4.653-6.342 5.96V60.7l6.342-1.313 1.394 3.06-3.05 8.528q3.02 1.73 6.046 3.465l5.916-6.887 3.366-.33 2.025 6.108c2.853-1.637 5.713-3.274 8.57-4.91l2.023-8.428 3.361-3.527 5.92.11c2.016-3.47 4.031-6.929 6.046-10.398l-3.05-5.03z"/><path fill="#035be8" d="M40.527 34.33c-.64 0-1.365.225-2.132.664-1.364.78-2.648 2.134-3.62 3.803-.977 1.67-1.51 3.455-1.51 5.012 0 1.45.46 2.515 1.302 2.997.837.476 1.996.344 3.26-.381 1.36-.778 2.65-2.128 3.62-3.8 1.92-3.302 2.015-6.971.206-8.008a2.23 2.23 0 0 0-1.13-.287zm-4.834 13.878A3.36 3.36 0 0 1 34 47.773c-1.203-.687-1.872-2.095-1.872-3.967 0-1.752.592-3.73 1.664-5.573s2.505-3.336 4.034-4.214c1.631-.932 3.189-1.064 4.392-.377 2.424 1.39 2.515 5.578.205 9.54-1.067 1.843-2.5 3.335-4.03 4.213-.943.538-1.861.81-2.703.81zm-18.53 22.51 2.893-8.089a.56.56 0 0 0-.019-.414l-1.394-3.06a.55.55 0 0 0-.629-.315l-5.665 1.17v-8.885l6.17-5.789a.55.55 0 0 0 .154-.247l1.393-4.653a.6.6 0 0 0-.058-.453l-2.881-4.744 5.713-9.82 5.584.1h.01a.57.57 0 0 0 .413-.176l3.362-3.527a.55.55 0 0 0 .14-.254l1.966-8.194 7.757-4.443 1.808 5.45a.56.56 0 0 0 .592.386l3.367-.334a.55.55 0 0 0 .374-.191l5.613-6.533L59.06 10.7l-2.895 8.09a.58.58 0 0 0 .014.42l1.394 3.059c.11.24.361.371.63.315l5.664-1.168v8.88l-6.165 5.793a.5.5 0 0 0-.154.247l-1.394 4.653a.54.54 0 0 0 .058.449l2.88 4.747-5.713 9.82-5.584-.104c-.212.004-.312.062-.424.177l-3.368 3.527a.6.6 0 0 0-.139.254l-1.967 8.198-7.757 4.442-1.803-5.454c-.088-.248-.337-.425-.597-.382l-3.36.33a.54.54 0 0 0-.377.196l-5.61 6.528-5.234-2.997zM22.52 75a.6.6 0 0 1-.285-.077l-6.045-3.465a.554.554 0 0 1-.25-.672l2.973-8.314-1.111-2.442-5.9 1.222a.6.6 0 0 1-.471-.115.56.56 0 0 1-.212-.44v-9.812c0-.156.066-.3.178-.41l6.233-5.85 1.284-4.271-2.93-4.82a.56.56 0 0 1 0-.573l6.046-10.394a.58.58 0 0 1 .49-.282h.01l5.665.105 3.092-3.236 1.986-8.285a.56.56 0 0 1 .27-.352l8.569-4.91a.56.56 0 0 1 .486-.04.57.57 0 0 1 .332.348l1.885 5.684 2.688-.268 5.767-6.714a.57.57 0 0 1 .71-.124l6.05 3.47c.234.133.34.414.249.671l-2.977 8.314 1.115 2.443 5.902-1.223a.55.55 0 0 1 .472.114.55.55 0 0 1 .212.435v9.816a.55.55 0 0 1-.183.406l-6.232 5.857-1.28 4.27 2.923 4.82a.56.56 0 0 1 .004.57l-6.05 10.397c-.101.177-.226.287-.496.282l-5.669-.105-3.087 3.237-1.99 8.28a.56.56 0 0 1-.27.357l-8.57 4.91a.6.6 0 0 1-.482.04.58.58 0 0 1-.336-.349l-1.88-5.683-2.688.262-5.771 6.72a.58.58 0 0 1-.428.196z"/><path fill="#fff" d="M41.939 42.906c-2.117 3.632-5.545 5.593-7.655 4.38-2.111-1.212-2.111-5.139 0-8.77 2.11-3.633 5.54-5.597 7.655-4.385 2.11 1.212 2.11 5.139 0 8.775m6.872 3.937c5.916-10.16 5.916-21.146 0-24.528-5.91-3.39-15.495 2.104-21.406 12.265-5.91 10.16-5.91 21.14 0 24.529s15.496-2.105 21.406-12.266"/><path fill="#035be8" d="M40.522 34.33c-.64 0-1.365.225-2.132.664-1.365.78-2.649 2.134-3.62 3.804-.977 1.67-1.511 3.454-1.511 5.01 0 1.452.461 2.516 1.302 2.998.838.476 1.997.344 3.26-.381 1.36-.777 2.65-2.128 3.62-3.8 1.92-3.302 2.016-6.971.206-8.008a2.23 2.23 0 0 0-1.13-.286zm-4.835 13.878a3.36 3.36 0 0 1-1.693-.435c-1.203-.687-1.871-2.095-1.871-3.966 0-1.752.592-3.731 1.663-5.574s2.506-3.336 4.035-4.214c1.63-.931 3.189-1.063 4.392-.377 2.424 1.39 2.515 5.578.205 9.54-1.068 1.843-2.501 3.335-4.03 4.214-.943.538-1.861.81-2.703.81zm9.162-26.343c1.331 0 2.574.301 3.679.936 2.673 1.532 4.15 4.816 4.15 9.24 0 4.423-1.547 9.692-4.356 14.522-5.746 9.874-15.005 15.285-20.637 12.06-5.632-3.227-5.54-13.889.208-23.76 4.616-7.941 11.509-12.996 16.956-12.996zM31.292 60.653c-1.507 0-2.915-.345-4.174-1.06-6.17-3.542-6.261-14.883-.208-25.298 6.06-10.412 16.015-16.006 22.18-12.469 3.046 1.742 4.719 5.368 4.719 10.212 0 4.845-1.602 10.089-4.51 15.086-4.824 8.289-12.12 13.529-18.005 13.529z"/><path fill="#eff3fa" d="M41.941 42.906c2.11-3.636 2.11-7.563 0-8.775-2.117-1.212-5.544.754-7.655 4.384-2.11 3.633-2.11 7.56 0 8.771 2.11 1.213 5.54-.748 7.655-4.38m-11.955-6.852c4.487-7.712 11.768-11.882 16.255-9.316 4.488 2.573 4.488 10.914 0 18.631-4.487 7.712-11.768 11.882-16.255 9.312-4.492-2.573-4.492-10.915 0-18.625z"/><path fill="#035be8" d="M40.524 34.33c-.64 0-1.364.225-2.131.665-1.365.779-2.649 2.133-3.621 3.803-.976 1.67-1.51 3.455-1.51 5.011 0 1.451.46 2.515 1.302 2.997.837.477 1.997.345 3.26-.381 1.36-.777 2.65-2.127 3.62-3.8 1.92-3.302 2.016-6.97.206-8.008a2.23 2.23 0 0 0-1.13-.286zM35.69 48.209a3.36 3.36 0 0 1-1.693-.435c-1.203-.686-1.872-2.094-1.872-3.966 0-1.752.593-3.731 1.664-5.574 1.072-1.843 2.506-3.335 4.035-4.214 1.63-.931 3.189-1.063 4.391-.377 2.425 1.39 2.516 5.578.206 9.54-1.068 1.843-2.501 3.336-4.03 4.214-.943.538-1.861.81-2.703.81zm7.53-21.673c.988 0 1.914.224 2.733.692 4.213 2.414 4.117 10.427-.208 17.862-4.327 7.436-11.272 11.52-15.485 9.105-1.986-1.14-3.083-3.589-3.083-6.9 0-3.31 1.17-7.311 3.29-10.955 3.486-5.985 8.668-9.802 12.754-9.802zM32.926 55.988c-1.163 0-2.256-.268-3.228-.82-2.356-1.35-3.65-4.142-3.65-7.875s1.221-7.702 3.444-11.52c4.637-7.969 12.284-12.236 17.029-9.515 4.747 2.72 4.842 11.42.207 19.39C43.039 51.99 37.45 55.99 32.926 55.99zM11.784 61.26a.6.6 0 0 1-.285-.072L.286 54.765a.562.562 0 1 1 .562-.973l11.22 6.423a.55.55 0 0 1 .202.763.56.56 0 0 1-.486.283m7.736-20.425a.6.6 0 0 1-.284-.076l-11.21-6.424a.554.554 0 0 1-.205-.768.564.564 0 0 1 .769-.205l11.215 6.424c.27.156.36.5.202.769a.55.55 0 0 1-.486.282z"/></g></g><defs><clipPath id="a"><path fill="#fff" d="M0 0h65v75H0z"/></clipPath></defs></svg>