<svg xmlns="http://www.w3.org/2000/svg" width="36" height="75" fill="none" viewBox="0 0 36 75"><g clip-path="url(#a)"><mask id="b" width="36" height="75" x="0" y="0" maskUnits="userSpaceOnUse" style="mask-type:luminance"><path fill="#fff" d="M35.092 0H0v75h35.092z"/></mask><g mask="url(#b)"><path fill="#fff" d="M27.908 49.822c2.214-1.294 4.017-.255 4.025 2.321l.03 10.16-21.12 12.341-.03-10.158c-.008-2.577 1.78-5.715 3.997-7.01z"/><path fill="#035be8" d="m28.42 49.562.067-.03q.09-.038.176-.068l.044-.017a4 4 0 0 1 .398-.115q.093-.02.181-.035.136-.022.267-.028.025 0 .055-.002.118-.005.232 0l.04.002q.092.008.18.023.027.003.055.01a2 2 0 0 1 .21.05q.092.027.18.065l.052.022q.075.035.149.073.023.014.05.025l-8.342-4.908s-.015-.007-.022-.012q-.012-.007-.027-.013a1 1 0 0 0-.149-.072q-.014-.009-.027-.013l-.025-.008a2 2 0 0 0-.18-.065q-.004 0-.008-.002a2 2 0 0 0-.2-.048c-.008 0-.015-.005-.022-.005q-.017.001-.033-.005a2 2 0 0 0-.18-.022l-.03-.003h-.01a2 2 0 0 0-.232 0h-.022l-.03.003a2.5 2.5 0 0 0-.448.062l-.057.015-.116.028q-.005 0-.012.002-.108.03-.216.068l-.044.017a3 3 0 0 0-.2.078c-.015.005-.03.015-.045.02l-.19.088q-.038.017-.072.035a5 5 0 0 0-.255.138L6.464 52.569a6 6 0 0 0-.384.246c-.042.027-.081.06-.12.09a9 9 0 0 0-.253.193 8.737 8.737 0 0 0-.364.316l-.136.127-.084.08a5 5 0 0 0-.215.225l-.005.005q-.11.12-.218.243l-.067.083q-.078.095-.155.193-.053.062-.102.125-.04.054-.079.108l-.111.152-.077.105q-.063.09-.121.186-.038.058-.077.117-.016.026-.032.05a10 10 0 0 0-.208.344q-.006.011-.012.022-.018.036-.04.07l-.136.248-.06.118q-.03.06-.061.123-.027.052-.055.105a10 10 0 0 0-.153.338q-.002.008-.007.015a7 7 0 0 0-.171.43q-.025.068-.047.133-.034.09-.064.183-.022.07-.042.143l-.05.168-.032.102q-.024.095-.045.185-.026.104-.049.208l-.017.073a6 6 0 0 0-.062.34q-.007.036-.01.07c-.007.05-.017.1-.022.15-.01.068-.013.136-.02.204l-.015.142q-.018.225-.017.448l.03 10.16 8.34 4.907-.029-10.159q.001-.222.017-.448.006-.07.015-.143a9 9 0 0 1 .042-.353q.006-.034.01-.07.034-.206.08-.413.021-.104.049-.208.037-.144.076-.29.026-.084.05-.168.052-.163.109-.325.022-.069.047-.133a8 8 0 0 1 .178-.446l.022-.05q.086-.198.183-.396.03-.061.062-.122.092-.185.195-.366.019-.034.04-.07.123-.21.252-.416.039-.058.077-.117.097-.148.198-.29l.111-.154q.09-.12.18-.233.08-.098.157-.192.14-.166.284-.326l.005-.005q.149-.156.302-.305a7 7 0 0 1 .364-.328L14.05 58q.126-.1.252-.193l.121-.09q.188-.132.383-.246l13.099-7.655q.127-.074.254-.137l.072-.035q.098-.048.19-.088z"/><path fill="#eff3fa" d="M15.75 46.502q.018-.267.052-.534.01-.076.02-.147l.037-.25.03-.171q.02-.121.046-.243l.042-.195.037-.163.052-.213.042-.16.037-.13q.075-.268.161-.536.006-.02.013-.04.085-.26.183-.519.024-.064.05-.13.083-.218.175-.435.014-.035.027-.068.105-.24.215-.478l.06-.123q.091-.187.188-.376.03-.055.059-.115a17 17 0 0 1 .304-.548q.117-.2.238-.396.035-.057.072-.115.151-.238.311-.47l.05-.07q.167-.24.341-.472.022-.03.047-.06a14 14 0 0 1 .804-.956q.008-.007.015-.018.155-.166.314-.325.101-.103.205-.2.029-.028.055-.056.134-.127.272-.248.037-.032.074-.065.1-.087.203-.172l.101-.083.18-.143q.057-.04.11-.083.09-.068.18-.132.054-.039.11-.078.095-.068.197-.133l.094-.062q.145-.094.294-.18c.131-.078.26-.146.391-.213q.056-.03.111-.055a10 10 0 0 1 .396-.18q.136-.057.272-.106.034-.012.067-.025.168-.056.332-.102l.193-.048.089-.023a5 5 0 0 1 .28-.052h.01a4 4 0 0 1 .509-.045h.076q.093 0 .181.002h.062c.022 0 .047.005.07.005q.14.011.276.033l.084.015a3 3 0 0 1 .599.175q.04.016.079.035.115.053.228.113.037.018.074.04l-8.386-4.933-.035-.02q-.02-.01-.04-.02a3 3 0 0 0-.227-.113q-.021-.012-.042-.02-.018-.006-.037-.012a4 4 0 0 0-.277-.1q-.006 0-.012-.006a3 3 0 0 0-.307-.072q-.017-.002-.035-.008-.023-.002-.05-.005a3 3 0 0 0-.276-.032c-.015 0-.03-.005-.045-.005h-.086l-.18-.003h-.137q-.059.002-.116.008-.041 0-.082.005a5 5 0 0 0-.25.03h-.01a6 6 0 0 0-.277.053l-.089.022-.173.043c-.005 0-.012.005-.017.005q-.164.046-.332.102-.033.013-.066.025-.135.05-.273.105c-.012.006-.024.008-.037.015-.022.01-.044.023-.067.03a8 8 0 0 0-.291.136q-.056.025-.112.055a7.134 7.134 0 0 0-.685.393q-.047.032-.094.063-.099.064-.198.132-.054.039-.109.078a5 5 0 0 0-.18.133l-.109.082a11 11 0 0 0-.485.398q-.038.033-.074.066a12 12 0 0 0-.505.473.1.1 0 0 0-.024.027q-.159.16-.315.326-.007.009-.017.017-.144.158-.29.323l-.027.03q-.017.02-.034.043-.232.27-.453.558-.008.008-.012.015-.018.023-.032.045-.175.23-.342.469l-.034.047-.015.023q-.16.231-.312.47l-.03.046q-.02.034-.042.07a13 13 0 0 0-.274.458l-.013.025q-.13.23-.254.463-.012.019-.02.038-.018.038-.04.077-.095.185-.188.373-.02.04-.04.078-.01.024-.022.048-.113.237-.215.478c0 .005-.005.01-.007.015l-.023.053q-.09.218-.175.435l-.03.07q-.011.03-.02.06-.097.26-.183.519l-.002.01q-.003.015-.01.03a11 11 0 0 0-.18.603q-.008.032-.015.063l-.043.16-.051.213-.038.163-.024.112-.015.08-.047.246-.03.168q-.02.127-.037.253L7.431 41q0 .015-.003.03-.034.27-.052.534l-.007.112q-.016.275-.017.541c.005 1.964.69 3.343 1.793 3.992l8.386 4.933c-1.104-.649-1.789-2.031-1.794-3.992q.001-.267.018-.54c0-.038.005-.076.007-.113z"/><path fill="#fff" d="M21.854 36.41c3.396-1.985 6.157-.392 6.17 3.556.01 3.95-2.734 8.762-6.13 10.745-3.394 1.983-6.157.39-6.167-3.558s2.733-8.76 6.127-10.742"/><path fill="#035be8" d="m5.232 34.266-.35.608 6.38 3.753.35-.609z"/><path fill="#035be8" d="M2.137 59.107q.004-.056.01-.113l.01-.102.015-.15.034-.233q.028-.177.067-.359l.017-.075.052-.218.015-.067q.014-.064.032-.128l.032-.105.052-.175.015-.053.03-.095.044-.128.097-.27c.047-.128.099-.253.158-.393l.025-.053q.066-.15.134-.298l.178-.358c.044-.088.094-.17.156-.283l.04-.07q.102-.179.214-.358l.151-.228.09-.135.078-.108.117-.158.081-.112.067-.083.04-.047q.08-.103.16-.2l.07-.088q.109-.127.23-.258.11-.12.225-.233l.089-.085.14-.133c.08-.073.16-.143.256-.225q.062-.054.128-.108.131-.105.265-.203l.042-.03q.044-.033.087-.063.201-.139.405-.26l6.239-3.646-3.572-2.1c-1.262-.744-1.962-2.27-1.967-4.298 0-.185.008-.373.02-.593l.005-.085a10 10 0 0 1 .057-.586l.017-.12.04-.26.03-.173c.014-.086.03-.168.054-.283l.074-.338q.026-.11.055-.22l.079-.299a14 14 0 0 1 .376-1.144c0-.005.015-.04.015-.043l.03-.072c.056-.15.116-.298.187-.464l.023-.052a21 21 0 0 1 .242-.538l.04-.078c.061-.128.126-.256.205-.41l.027-.056.02-.037c.084-.16.17-.318.275-.499l.04-.065c.078-.135.16-.27.259-.43l.057-.09c.104-.163.21-.324.334-.504l.034-.047c.114-.163.23-.323.361-.494l.038-.05a16 16 0 0 1 .497-.613l.027-.033a13.866 13.866 0 0 1 .633-.686l.027-.028c.062-.06.122-.12.206-.197l.037-.035q.137-.132.28-.256l.076-.068q.105-.09.208-.177l.106-.085q.092-.076.188-.148l.114-.085q.094-.071.188-.138l.114-.08c.07-.048.136-.093.208-.14l.096-.065a8 8 0 0 1 .713-.409l.116-.057c.104-.05.205-.098.326-.15l.09-.038c.096-.04.192-.078.309-.12l.049-.018a7 7 0 0 1 .371-.115l.149-.037.133-.033a4 4 0 0 1 .297-.055h.015q.134-.02.267-.033l.062-.005.062-.005.094-.007h.148c.067-.003.134-.003.22 0h.077q.025.006.047.007a4 4 0 0 1 .356.043q.026.004.042.01c.1.018.198.04.314.073q.024.004.04.01.16.05.302.107a.4.4 0 0 1 .094.04q.129.057.252.126l.047.022 8.423 4.956q.003 0 .007.005c1.257.743 1.952 2.266 1.957 4.289.005 2.128-.77 4.505-2.014 6.578l4.574 2.69.013.007c.855.508 1.328 1.537 1.333 2.9l.03 10.16a.36.36 0 0 1-.173.306l-21.12 12.342a.33.33 0 0 1-.174.048q-.022 0-.045-.003l-.03-.005q-.007 0-.014-.002a.4.4 0 0 1-.084-.035l-8.341-4.906a.35.35 0 0 1-.174-.302L2.117 59.58q.001-.235.02-.475zM17.669 31.35l-.024-.015-.04-.02a3 3 0 0 0-.198-.098c-.015-.007-.03-.012-.03-.015l-.042-.015c-.076-.03-.153-.06-.25-.09h-.007a3 3 0 0 0-.272-.062l-.032-.008-.045-.005a4 4 0 0 0-.25-.03l-.064-.005h-.054q-.082-.006-.166-.005l-.307.015-.235.027h-.005q-.126.02-.257.048l-.121.03-.141.035a4 4 0 0 0-.376.123q-.126.045-.258.1l-.054.023-.042.02a6 6 0 0 0-.304.142l-.08.04a8 8 0 0 0-.655.376l-.091.06-.19.128-.105.075-.175.128-.107.08c-.06.045-.116.092-.2.157l-.074.06q-.1.082-.196.168l-.072.063a8 8 0 0 0-.264.243l-.027.025s-.028.025-.028.027q-.086.082-.173.168l-.025.025a11 11 0 0 0-.603.649l-.035.04-.024.03q-.226.264-.44.543l-.023.028s-.02.027-.022.032a15 15 0 0 0-.357.489l-.024.037q-.156.225-.305.459l-.02.032-.024.04-.025.04q-.12.192-.232.383l-.05.085q-.129.225-.247.451l-.022.04-.038.073a17 17 0 0 0-.183.365l-.044.088s-.015.03-.015.033a12 12 0 0 0-.208.46l-.015.038-.014.035q-.09.21-.171.426l-.035.09-.012.035a14 14 0 0 0-.178.503l-.013.04a14 14 0 0 0-.178.586l-.015.06-.04.155q-.025.104-.051.208l-.052.238 7.755 4.563.007-.03c.018-.073.035-.148.062-.254l.072-.265q.077-.276.166-.55l.012-.043q.089-.268.188-.531l.052-.133c.057-.15.116-.298.193-.476l.017-.04q.106-.247.223-.49l.062-.126q.093-.19.193-.383l.06-.117q.125-.24.259-.474l.052-.087q.118-.203.245-.404l.074-.117q.156-.244.319-.481l.05-.07c.113-.163.23-.323.37-.508l.028-.035q.225-.294.462-.571l.062-.076c.1-.112.198-.225.312-.35a14 14 0 0 1 .551-.561l.038-.038q.137-.13.28-.255l.076-.068q.103-.09.21-.177l.106-.085.052-.04.097-.078q.018-.015.04-.03l.032-.025.061-.048.018-.015s.012-.007.017-.012q.439-.33.893-.596c.89-.521 1.761-.82 2.568-.89l-6.578-3.868zm8.376 4.928-.015-.008s-.037-.02-.04-.02a3 3 0 0 0-.197-.097l-.07-.03a2 2 0 0 0-.232-.083q-.023-.006-.044-.012a3 3 0 0 0-.255-.058l-.075-.013a4 4 0 0 0-.25-.03l-.061-.005h-.06c-.054 0-.108-.005-.163-.002h-.071a4 4 0 0 0-.194.012h-.042c-.076.01-.153.02-.24.033a5 5 0 0 0-.257.047l-.081.02c-.06.016-.12.028-.181.046-.101.027-.205.06-.339.107l-.037.013q-.126.045-.257.097l-.1.043c-.09.04-.185.083-.294.135l-.089.045a8 8 0 0 0-.655.376l-.092.06-.19.128-.106.075q-.089.063-.176.128l-.106.08q-.089.069-.176.137l-.1.08q-.098.083-.195.168l-.071.063q-.134.117-.262.24l-.03.028s-.025.022-.025.025a7 7 0 0 0-.198.193 11.381 11.381 0 0 0-.601.649l-.06.07c-.15.177-.296.357-.46.57l-.024.033q-.17.225-.334.458l-.05.068q-.155.225-.304.458l-.072.113q-.12.19-.232.385l-.05.085q-.128.225-.25.451l-.056.113q-.094.181-.183.365l-.06.12c-.074.156-.143.311-.222.496l-.015.038q-.09.212-.17.423l-.05.128q-.095.25-.178.505l-.013.04q-.085.263-.158.524l-.077.28-.052.208-.076.346-.045.235-.03.165-.037.243-.02.143a9 9 0 0 0-.049.513l-.007.11a9 9 0 0 0-.018.519v.165q0 .052.003.103v.06q.002.07.007.14v.02l.012.153v.002c.097 1.08.431 1.951.975 2.544l.084.088.072.068q.006.004.012.01l.07.062q.008.008.015.013.035.029.069.057l.02.015a1 1 0 0 0 .069.05q.011.007.022.018l.07.048.024.017q.033.021.07.043l.034.022c1.054.614 2.481.459 4.015-.438 3.295-1.925 5.966-6.608 5.954-10.44-.005-1.772-.584-3.082-1.63-3.692zm-.062 10.862c-1.076 1.625-2.436 3.015-3.916 3.879-1.026.601-2.026.904-2.93.904a3.5 3.5 0 0 1-1.78-.463c-.002 0-.004-.005-.01-.005h-.002l-4.121-2.424-6.585 3.849q-.181.105-.359.23l-.113.083q-.12.09-.24.182l-.131.108q-.107.09-.213.188l7.713 4.537s.01-.008.012-.012l.064-.06.035-.033q.021-.02.042-.04.047-.043.094-.085c.346-.31.71-.584 1.086-.802l13.098-7.654a4.5 4.5 0 0 1 1.373-.544l-3.12-1.835zm-14.8 26.898L31.61 62.102l-.028-9.956c-.002-1.11-.358-1.928-1.002-2.304l-.032-.017c-.04-.023-.079-.04-.121-.06l-.04-.018s-.005 0-.007-.002a1 1 0 0 0-.089-.033q-.038-.013-.074-.025-.078-.021-.156-.035l-.047-.008a2 2 0 0 0-.386-.02h-.044c-.077.008-.156.013-.235.025a2 2 0 0 0-.161.03q-.027.006-.052.01l-.112.03a3 3 0 0 0-.195.06q-.021.007-.042.013-.08.032-.16.063l-.033.015s-.022.01-.03.012c-.059.025-.118.053-.185.088l-.057.027-.099.053-.136.075-13.098 7.655-.067.042q-.148.09-.292.19l-.116.086a5 5 0 0 0-.371.293q-.11.093-.215.19-.067.06-.13.123c-.096.095-.195.19-.291.295-.094.1-.183.208-.272.313q-.077.09-.151.186c-.06.075-.116.147-.176.225a11.3 11.3 0 0 0-.297.428l-.074.113a10 10 0 0 0-.242.4l-.037.068q-.098.176-.188.35l-.06.118q-.091.188-.178.38h-.002l-.02.046h.003a8 8 0 0 0-.171.43l-.045.128a7 7 0 0 0-.104.313q-.024.08-.049.16-.04.14-.072.276l-.01.035-.04.163a8 8 0 0 0-.076.393l-.01.068q-.025.168-.04.333l-.012.135q-.016.215-.017.42l.027 9.553zm-8.339-4.5 7.644 4.498-.022-7.667-7.644-4.498.022 7.67z"/><path fill="#fff" d="M33.677 7.415c.025-.005.05-.013.072-.015q.027-.006.054-.008c.018 0 .038-.005.055-.005l.057-.002h.044q.03-.001.057.005.02 0 .037.005.03.004.06.012.015.002.03.008a1 1 0 0 1 .081.03q.04.018.082.04l-6.402-3.766-.008-.005a1 1 0 0 0-.072-.035q-.005-.001-.012-.005l-.062-.023h-.01l-.03-.007q-.02-.006-.039-.01h-.017l-.037-.006-.032-.002h-.097q-.015 0-.03.002-.025.001-.054.005-.012 0-.025.003c-.01 0-.02.005-.027.005l-.072.015q-.015 0-.03.008-.007.002-.02.007a2 2 0 0 0-.16.055l-7.114 2.955q-.075.03-.149.052-.023.006-.047.013-.038.01-.076.017l-.052.008q-.028.005-.057.005-.029.002-.055.003h-.044q-.03.001-.057-.005l-.04-.005-.059-.013-.032-.008-.07-.022c-.004 0-.012-.005-.017-.005a1 1 0 0 1-.084-.043l6.402 3.766.008.005.074.038h.002q.009.002.017.008l.057.02q.005 0 .013.002l.032.008.04.01h.02q.017 0 .039.005l.03.002h.096q.015 0 .03-.002l.057-.005h.024c.01 0 .018-.005.027-.005q.037-.007.077-.018.015-.001.03-.005c.005 0 .012-.005.017-.005.05-.015.1-.03.149-.053l7.114-2.954q.082-.033.16-.055.026-.008.05-.013z"/><path fill="#eff3fa" d="M12.811 29.648v-.203c0-.035-.007-.068-.012-.103q-.003-.042-.01-.085-.009-.048-.025-.095c-.007-.025-.012-.053-.02-.075q-.016-.044-.034-.088-.014-.034-.028-.065-.022-.04-.05-.08-.013-.029-.031-.053-.03-.04-.065-.072l-.034-.038a.6.6 0 0 0-.116-.085L5.984 24.84a.7.7 0 0 1 .116.085q.017.017.035.037.034.033.064.073l.032.053q.027.037.047.077.014.03.027.066a1 1 0 0 1 .035.087c.007.023.012.05.02.073q.012.046.024.097.007.042.01.083.008.052.013.103v.092q.002.056 0 .11-.002.05-.008.1-.003.06-.01.123l-1.192 8.947v.015q-.006.06-.01.115-.005.054-.007.108v.21c.002.038.01.07.012.106q.006.042.012.085.013.047.025.095.01.037.02.075c.01.03.025.058.037.085q.013.031.027.063.024.039.047.075c.013.017.02.035.032.05q.03.035.065.068c.012.01.02.025.032.035a.7.7 0 0 0 .111.08l6.402 3.766a1 1 0 0 1-.111-.08q-.016-.016-.032-.035c-.023-.023-.045-.043-.065-.07a.4.4 0 0 1-.032-.05c-.017-.026-.034-.048-.05-.076q-.013-.031-.027-.062l-.037-.083q-.01-.036-.02-.075-.012-.044-.024-.095-.006-.041-.012-.085l-.015-.106v-.095c0-.037-.003-.075 0-.115 0-.035.005-.07.007-.108q.003-.063.013-.13l1.192-8.947v-.015c.005-.037.005-.072.01-.11q.005-.05.007-.1z"/><path fill="#eff3fa" d="m19.627 5.506.015-.025a3 3 0 0 1 .153-.258q.07-.106.146-.205l.03-.035a2 2 0 0 1 .123-.143l.07-.075q.069-.073.14-.138l.018-.017q.086-.074.17-.14l.04-.03a1.8 1.8 0 0 1 .364-.21l.052-.023q.056-.022.114-.04c.017-.005.034-.013.051-.016q.03-.008.06-.012.038-.008.074-.013l.045-.005.084-.005h.034q.057.001.112.01h.01a1 1 0 0 1 .099.028l.024.008q.053.017.102.047L15.355.45l-.008-.006a1 1 0 0 0-.071-.035L15.253.4 15.23.393q-.015-.006-.03-.01a.3.3 0 0 0-.07-.015h-.012l-.086-.01h-.097a.2.2 0 0 0-.042.005q-.023-.001-.044.005h-.023q-.025.004-.052.012l-.059.013q-.009 0-.017.002-.017.005-.035.013-.057.019-.114.04-.016.004-.027.01l-.025.013a2 2 0 0 0-.188.095q-.087.054-.175.115l-.04.03a3 3 0 0 0-.188.158q-.05.044-.099.092l-.042.045q-.037.037-.07.076l-.049.052-.074.09-.03.035-.014.018-.097.13-.037.058-.022.032q-.013.019-.025.038-.038.06-.074.122a1 1 0 0 0-.035.066l-.015.027q-.009.014-.017.033-.033.06-.062.125l-.042.09q-.004.012-.01.023l-.007.017q-.029.069-.057.138c-.015.042-.032.082-.044.128l-3.16 9.355a2 2 0 0 1-.084.22q-.002.011-.01.022-.045.104-.093.203-.007.017-.018.033-.05.097-.106.19l-.022.038q-.06.093-.122.187l-.012.018a4 4 0 0 1-.163.213l-.09.1q-.038.045-.078.085-.051.052-.102.1-.024.024-.05.048a3 3 0 0 1-.163.135L1.603 18.61q-.098.076-.195.162l-.047.043q-.023.02-.047.043-.045.045-.089.095-.03.03-.057.06-.008.01-.017.02-.061.071-.116.142l-.023.03-.024.036q-.026.034-.05.067-.044.063-.084.125-.005.007-.01.018-.006.01-.012.023-.027.04-.052.085-.036.06-.07.125-.002.008-.01.017l-.01.023-.044.087-.06.13q-.001.008-.007.016-.003.011-.01.022-.02.048-.04.095l-.051.146-.047.155-.015.065-.015.06-.012.05a1 1 0 0 0-.017.108l-.015.087-.005.025q-.01.083-.013.16l-.002.04q-.003.112.002.214.002.029.008.057.008.072.02.143.007.034.017.068.015.059.035.115a1 1 0 0 0 .027.065 1 1 0 0 0 .052.098l.034.055q.034.047.075.087.018.02.037.04.064.058.138.1l6.402 3.767a.7.7 0 0 1-.138-.1q-.02-.02-.038-.04a1 1 0 0 1-.108-.143 1 1 0 0 1-.052-.1.881.881 0 0 1-.062-.18l-.017-.068a1 1 0 0 1-.02-.143q-.002-.029-.008-.058a2 2 0 0 1-.002-.213l.002-.04q.005-.09.018-.185l.014-.088q.014-.078.03-.157l.015-.063q.025-.11.062-.22.04-.12.089-.24.003-.012.01-.023.05-.116.109-.233.004-.011.01-.023.059-.116.128-.225l.013-.023q.066-.106.14-.207.013-.018.025-.035.075-.1.156-.193.026-.03.057-.06.068-.071.134-.138.021-.023.047-.043.092-.086.195-.162l7.107-5.359q.082-.064.163-.135l.05-.048.071-.065.033-.035q.04-.043.079-.085.026-.026.05-.055.018-.022.036-.048l.047-.057q.02-.021.035-.043l.094-.128s.002-.005.005-.005q.044-.064.084-.127l.032-.053.022-.035.023-.037q.036-.06.069-.126l.015-.03q.007-.016.017-.032.016-.033.032-.065.03-.064.057-.128.001-.006.005-.013l.008-.02q.02-.05.04-.1.022-.06.041-.12l3.16-9.355q.047-.145.108-.283.004-.011.01-.02.057-.128.121-.248z"/><path fill="#eff3fa" d="M20.708 4.325c.527-.308 1.054-.296 1.328.185l3.201 5.636c.218.38.634.489 1.116.29l7.114-2.954c1.212-.506 1.702.944.826 2.451l-5.127 8.842c-.347.599-.505 1.26-.421 1.77l1.24 7.528c.165 1.016-.59 2.36-1.45 2.864-.228.133-.463.208-.688.2l-6.372-.172a1.3 1.3 0 0 0-.688.205c-.235.14-.472.34-.688.598l-6.35 7.608c-.225.27-.46.47-.687.603-.861.503-1.623.045-1.462-1.162l1.192-8.947c.082-.606-.079-1.081-.428-1.272l-5.162-2.827c-.881-.48-.401-2.496.811-3.408l7.107-5.358c.48-.363.895-.957 1.11-1.59l3.16-9.355c.27-.796.793-1.425 1.32-1.733z"/><path fill="#035be8" d="M0 20.944v-.045c.007-.06.01-.123.022-.213l.013-.073.01-.058.014-.09.047-.197c.015-.058.033-.116.045-.143q0-.008.005-.015 0-.009.005-.018.026-.08.057-.16l.044-.108s.015-.037.018-.04q.03-.071.064-.142l.05-.1s.017-.036.02-.038l.073-.135.082-.136q.045-.07.091-.137l.062-.085s.02-.028.023-.03l.024-.033c.042-.055.084-.108.149-.18l.089-.098c.025-.028.047-.053.074-.078l.101-.095q.107-.099.22-.185l7.107-5.359a2 2 0 0 0 .141-.117s.045-.04.045-.043q.046-.04.092-.09l.069-.075q.041-.045.079-.09l.042-.05a3 3 0 0 0 .225-.326l.02-.033a4 4 0 0 0 .203-.403 3 3 0 0 0 .074-.197l3.159-9.355q.023-.071.05-.138.03-.08.059-.148l.022-.052.042-.096q.033-.07.07-.137l.027-.048.022-.037.027-.048q.04-.068.082-.133l.091-.137c.035-.05.07-.098.119-.16.002-.003.022-.028.025-.03l.022-.03.067-.083.054-.06c.027-.028.052-.058.087-.096l.037-.04a2.67 2.67 0 0 1 .324-.28l.047-.035q.1-.074.203-.135c.074-.043.148-.08.21-.106.015-.007.03-.015.077-.032q.072-.03.136-.048a1 1 0 0 1 .074-.022l.086-.02c.02-.005.04-.01.085-.015L14.869 0l.055-.005h.131c.042.003.084.008.14.018l.1.022.074.025c.007.003.03.01.04.015a1 1 0 0 1 .12.06l6.422 3.779q.235.147.389.41l.613 1.082-.17-.3 4.15-1.723a1.3 1.3 0 0 1 .184-.063l.037-.012.037-.008q.048-.011.089-.02l.037-.007.037-.005.072-.008.044-.005h.131l.043.005.042.005.042.005.079.018.034.007c.028.008.052.018.092.033l.022.007c.037.015.074.036.121.06l6.375 3.752q.165.09.297.242c.507.591.445 1.68-.154 2.712l-5.127 8.842c-.302.52-.448 1.11-.379 1.532l1.24 7.527c.2 1.227-.693 2.685-1.62 3.228a1.64 1.64 0 0 1-.872.248l-6.372-.173c-.14-.005-.321.05-.504.158-.206.12-.411.3-.597.52l-6.35 7.608c-.244.293-.507.52-.779.681-.284.165-.569.25-.833.25a1.1 1.1 0 0 1-.567-.15h-.005l-6.4-3.766a1.3 1.3 0 0 1-.165-.12l-.06-.06a.7.7 0 0 1-.138-.175q-.03-.044-.057-.093c-.012-.023-.022-.048-.044-.1q-.023-.047-.042-.098l-.023-.078.337-.085-.349.048a1 1 0 0 1-.025-.1q-.006-.038-.012-.08l.346-.04-.351-.008a1 1 0 0 1-.012-.102v-.143c0-.035-.003-.07 0-.108 0-.03.005-.06.007-.093l.005-.062c0-.033.005-.065.01-.118l1.192-8.947.005-.067.01-.12v-.168c0-.018-.005-.035-.01-.083l-.007-.065-.018-.07-5.39-3.17a1.1 1.1 0 0 1-.37-.336c-.016-.022-.03-.045-.05-.077a2 2 0 0 1-.072-.138q-.019-.044-.035-.088a2 2 0 0 1-.066-.235 2 2 0 0 1-.028-.188l-.007-.058q-.008-.122-.005-.252zm27.725-16.93L27.698 4q-.01-.002-.017-.007l-.005-.006-.037-.01-.013-.002c-.005 0-.047-.008-.054-.008h-.131l-.035.01-.052.01-.032.01q-.06.018-.124.043l-4.067 1.688 2.407 4.24c.161.282.46.232.68.14l6.957-2.888-5.452-3.207zM12.161 39.761c.168.113.438.08.727-.087q.306-.179.596-.526l6.35-7.607a3 3 0 0 1 .78-.677c.281-.165.57-.252.838-.252h.032l6.372.172c.156 0 .324-.047.505-.152.712-.419 1.43-1.6 1.281-2.502l-1.24-7.53c-.096-.588.08-1.339.466-2.005l5.128-8.842c.485-.836.48-1.6.227-1.893q-.197-.23-.623-.052l-7.114 2.954c-.648.268-1.242.098-1.549-.44l-3.2-5.637a.44.44 0 0 0-.166-.173.3.3 0 0 0-.05-.02l-.037-.01-.042-.007h-.062c-.017 0-.034 0-.081.005a.2.2 0 0 0-.052.01s-.035.007-.043.007l-.042.013-.086.03-.042.017q-.068.028-.134.068l-.017.01-.037.023a2 2 0 0 0-.111.075l-.035.025a3 3 0 0 0-.163.135q-.064.059-.124.12l-.062.068q-.056.06-.109.127l-.027.036q-.027.033-.054.075l-.013.017-.062.09-.022.035q-.01.015-.02.03l-.047.076-.02.035-.051.092c0 .005-.005.008-.005.013q-.026.045-.047.095-.01.018-.02.04-.02.043-.04.085-.024.056-.044.11c0 .005-.005.01-.005.013l-.037.102q-.006.013-.01.026l-1.497 4.43-1.662 4.925q-.022.066-.047.13l-.015.035a1 1 0 0 1-.047.11q-.031.072-.062.138l-.032.065q-.01.018-.02.037s-.017.035-.017.038l-.032.058-.018.032q-.014.024-.027.048l-.022.037-.01.015-.01.015-.042.07c-.03.048-.062.095-.114.168l-.089.125-.044.058a.4.4 0 0 1-.042.05l-.015.017-.03.035-.017.018-.134.145c-.007.008-.024.025-.027.03l-.017.015q-.147.146-.304.266l-7.107 5.358q-.053.041-.102.083l-.067.058-.042.04q-.061.06-.118.12s-.025.025-.025.027l-.025.028q-.075.083-.14.173l-.023.03a3.898 3.898 0 0 0-.265.43c-.034.07-.07.14-.106.23q-.021.05-.04.101c0 .005-.005.012-.007.017q-.018.044-.032.093l-.015.05q-.023.08-.042.155l-.013.056c-.01.045-.017.092-.032.167l-.007.045c0 .015-.005.033-.005.048q-.004.044-.01.103-.001.032-.003.065v.09q-.001.033.005.07l.005.035q.006.056.015.108l.013.05a1 1 0 0 0 .024.077l.018.046q.016.033.032.062l.022.035c.012.018.027.033.062.07a.3.3 0 0 0 .05.038l.02.012.01.008 5.157 2.824c.482.263.71.872.608 1.63l-1.192 8.947c-.057.431.022.767.215.897zm-6.62-4.65q0 .03-.005.055l-.01.133v.17c0 .018.005.033.013.08l.007.068.02.068.012.052.025.055.017.04.03.045.017.03.052.056q.026.023.057.042l5.454 3.21c-.004-.14 0-.29.023-.445l1.192-8.947c.06-.448-.034-.799-.25-.917L7.033 26.08l-.047-.027-.23-.135q-.001.031-.005.062l-.005.063q-.003.053-.01.11l-1.192 8.962z"/></g></g><defs><clipPath id="a"><path fill="#fff" d="M0 0h36v75H0z"/></clipPath></defs></svg>