<svg xmlns="http://www.w3.org/2000/svg" width="78" height="74" fill="none" viewBox="0 0 78 74"><g clip-path="url(#a)"><mask id="b" width="78" height="74" x="0" y="0" maskUnits="userSpaceOnUse" style="mask-type:luminance"><path fill="#fff" d="M78 0H0v74h78z"/></mask><g fill-rule="evenodd" clip-rule="evenodd" mask="url(#b)"><path fill="#035be8" d="M46.908 33.886c-.053.525-.267.903-.705 1.2l12.072 6.851c.433-.296.652-.683.705-1.2v-7.01l-12.072-6.851zm11.958 20.571-12.072-6.851a.8.8 0 0 1 .119.378v7.037l12.071 6.85v-7.035c-.022-.185-.022-.224-.118-.379"/><path fill="#035be8" d="m47.165 34.957 11.043 6.262c.1-.15.166-.314.188-.533v-6.62l-10.898-6.17v6.042a2.4 2.4 0 0 1-.333 1.02m11.113 7.565a.66.66 0 0 1-.303-.077l-12.071-6.851a.64.64 0 0 1-.302-.482c0-.198.1-.391.267-.503.284-.194.407-.413.433-.748v-6.985a.596.596 0 0 1 .89-.508L59.28 33.22a.56.56 0 0 1 .29.507v7.01c-.053.736-.373 1.29-.96 1.682a.63.63 0 0 1-.332.103m-10.78 12.159 10.898 6.172v-5.987l-10.898-6.18zm11.485 7.771a.66.66 0 0 1-.303-.077l-12.07-6.851a.57.57 0 0 1-.302-.503v-7.037a.6.6 0 0 1 .07-.752c.183-.194.472-.267.705-.134l12.071 6.852a.47.47 0 0 1 .202.189c.184.254.201.404.219.624v7.109c0 .21-.101.4-.29.503a.6.6 0 0 1-.297.077z"/><path fill="#035be8" d="m77.411 37.349-12.076-6.847-18.425-3.626 12.072 6.851z"/><path fill="#035be8" d="m59.198 33.168 14.777 2.907-8.858-5.023-14.777-2.903zm18.21 4.765a1 1 0 0 1-.118-.009L58.86 34.3c-.07-.009-.122-.035-.188-.065L46.6 27.384a.58.58 0 0 1-.267-.71.62.62 0 0 1 .688-.37l18.43 3.625a.5.5 0 0 1 .166.065l12.089 6.85a.576.576 0 0 1 .254.71.595.595 0 0 1-.552.379m-19.133 4.004-12.071-6.851-32.805 18.601c-.928.572-1.427 1.166-2 2.064l12.071 6.852c.574-.908 1.073-1.493 2.001-2.065l32.804-18.605z"/><path fill="#035be8" d="m12.235 55.554 11.047 6.266a6 6 0 0 1 1.865-1.776l31.929-18.11L46.2 35.761 13.689 54.195a4.75 4.75 0 0 0-1.45 1.359zm11.231 7.638a.6.6 0 0 1-.285-.077l-12.089-6.851a.58.58 0 0 1-.201-.813c.573-.903 1.125-1.592 2.185-2.25l32.822-18.614a.6.6 0 0 1 .586-.004l12.09 6.851a.577.577 0 0 1 0 1.015l-32.8 18.601c-.859.53-1.297 1.063-1.783 1.867a.62.62 0 0 1-.52.28z"/><path fill="#035be8" d="m23.465 62.607-12.071-6.851c-.522.942-.771 1.664-.824 2.73v6.1c.031.7.118 1.17.64 1.668l12.089 6.851c-.539-.499-.622-.972-.657-1.668v-6.099c.057-1.07.324-1.793.828-2.727z"/><path fill="#035be8" d="M11.65 56.573a4.5 4.5 0 0 0-.486 1.944v6.072c.03.615.1.908.473 1.252l10.439 5.905c-.022-.094-.022-.185-.022-.275v-6.129a5.65 5.65 0 0 1 .643-2.503L11.65 56.577zm11.652 17.121a.56.56 0 0 1-.303-.077l-12.071-6.851c-.82-.753-.924-1.445-.96-2.146v-6.13c.07-1.25.386-2.076.907-3.005a.56.56 0 0 1 .355-.288.63.63 0 0 1 .473.06l12.071 6.847c.254.15.368.456.254.727-.486.89-.74 1.526-.775 2.537v6.073c.022.619.101.907.451 1.251a.564.564 0 0 1 .07.77.6.6 0 0 1-.473.232"/><path fill="#eff3fa" d="M52.54.959 19.734 19.564c-.254.104-.39.15-.587-.021l12.072 6.851c.219.168.35.125.587.022l32.8-18.606c.84-.434 1.326-.542 2.167-.069L54.527.77c-.74-.344-1.296-.164-1.988.189"/><path fill="#035be8" d="m20.648 19.724 10.877 6.163 32.79-18.584c.097-.043.185-.095.285-.134L54.228 1.277c-.386-.185-.727-.146-1.393.198zm10.846 7.367a.95.95 0 0 1-.64-.25l-11.786-6.666a1.2 1.2 0 0 1-.303-.18.574.574 0 0 1-.096-.788.58.58 0 0 1 .77-.176h.014L52.244.451s.013-.004.013-.012c.688-.344 1.493-.676 2.518-.198l12.312 6.993a.58.58 0 0 1 .22.8.6.6 0 0 1-.806.215h-.022c-.587-.34-.858-.293-1.599.082L32.094 26.923c-.154.069-.355.168-.605.168z"/><path fill="#eff3fa" d="m31.103 19-12.076-6.846L.602 36.673l12.071 6.851z"/><path fill="#035be8" d="m1.478 36.5 11.03 6.259 17.724-23.573-11.047-6.262zm11.196 7.613a.6.6 0 0 1-.298-.081L.304 37.18a.57.57 0 0 1-.289-.382.6.6 0 0 1 .101-.47l18.425-24.522a.6.6 0 0 1 .775-.16l12.09 6.852a.64.64 0 0 1 .288.387.6.6 0 0 1-.122.468l-18.43 24.52a.58.58 0 0 1-.473.236z"/><path fill="#fff" d="m31.815 38.914 32.8-18.61c.775-.439 1.48-1.2 2.001-2.064.504-.873.819-1.845.819-2.731V9.41c0-1.763-1.279-2.477-2.824-1.6l-32.8 18.606c-.386.219-.71.038-.71-.4V19l-18.43 24.523 18.43 3.617v-7.036c0-.439.324-.976.71-1.196z"/><path fill="#035be8" d="m13.716 43.128 16.783 3.295v-6.318c0-.645.438-1.38 1.007-1.703l32.808-18.606c.653-.374 1.31-1.045 1.778-1.858.473-.808.74-1.694.74-2.438V9.4c0-.628-.184-1.092-.52-1.286-.334-.189-.842-.12-1.393.194L32.097 26.914c-.372.215-.753.228-1.095.043-.32-.18-.503-.529-.503-.95v-5.234L13.716 43.12zm17.383 4.602a.6.6 0 0 1-.119-.013l-18.43-3.612a.57.57 0 0 1-.433-.366.6.6 0 0 1 .066-.559l18.43-24.523a.63.63 0 0 1 .674-.211.6.6 0 0 1 .407.55v6.796l32.62-18.494c.937-.537 1.866-.602 2.588-.189.718.409 1.126 1.226 1.126 2.297v6.098c0 .955-.325 2.026-.911 3.024-.587 1.002-1.358 1.81-2.198 2.283L32.097 39.413c-.202.12-.399.46-.399.692v7.036a.54.54 0 0 1-.223.452.57.57 0 0 1-.372.133z"/><path fill="#eff3fa" d="m25.47 73.04 32.804-18.605c.385-.223.704-.043.704.4v7.037l18.43-24.52-18.43-3.625v7.01c0 .443-.32.981-.705 1.2L25.47 60.543c-.77.443-1.48 1.2-2 2.064-.504.869-.828 1.845-.828 2.731v6.099c0 .886.324 1.505.827 1.793.521.288 1.23.25 2.001-.19"/><path fill="#035be8" d="M59.57 34.446v6.292c0 .649-.42 1.385-.994 1.707l-32.8 18.601c-.656.374-1.313 1.045-1.782 1.854-.473.813-.74 1.699-.74 2.438v6.099c0 .628.189 1.097.521 1.286.333.193.841.125 1.393-.19l32.804-18.6c.386-.215.77-.228 1.09-.052.342.18.508.529.508.955v5.251L76.367 37.74zM24.21 74c-.368 0-.723-.09-1.025-.262-.74-.413-1.13-1.23-1.13-2.301v-6.099c0-.954.325-2.025.911-3.023.574-.998 1.362-1.806 2.198-2.284l32.805-18.605c.219-.116.42-.456.42-.693v-7.01c0-.172.066-.344.22-.452a.62.62 0 0 1 .485-.12l18.43 3.621a.57.57 0 0 1 .437.361c.07.185.053.4-.078.56L59.47 62.212a.625.625 0 0 1-.675.21.57.57 0 0 1-.398-.55v-6.817L25.777 73.55c-.544.305-1.073.451-1.568.451"/></g></g><defs><clipPath id="a"><path fill="#fff" d="M0 0h78v74H0z"/></clipPath></defs></svg>