<svg width="65" height="100" viewBox="0 0 65 100" fill="none" xmlns="http://www.w3.org/2000/svg">
<g clip-path="url(#clip0_0_4)">
<path d="M13.7377 94.1195C13.0155 94.1271 12.3039 93.945 11.6742 93.5913C10.1006 92.7029 9.23438 90.8286 9.23438 88.3174V38.0619C9.33823 35.4996 10.0416 32.9973 11.2879 30.756C12.5343 28.5148 14.2889 26.5971 16.4109 25.157L48.3796 5.94089C50.413 4.71851 52.3729 4.52132 53.8941 5.38151C55.4656 6.27189 56.3319 8.1442 56.3319 10.6554V60.9069C56.2278 63.4694 55.5241 65.9718 54.2774 68.2131C53.0307 70.4543 51.2757 72.3719 49.1533 73.8118L17.1856 93.0279C16.1556 93.6958 14.9643 94.073 13.7377 94.1195ZM51.8265 6.36647C50.8743 6.41213 49.9518 6.71268 49.1554 7.23672L17.1876 26.4528C13.631 28.5897 10.7385 33.7971 10.7385 38.0679V88.3195C10.7385 90.2652 11.3321 91.6727 12.4136 92.2854C13.4439 92.8679 14.8655 92.6768 16.4109 91.7451L48.3796 72.5291C51.9352 70.3932 54.8287 65.1847 54.8287 60.9149V10.6594C54.8287 8.71364 54.2331 7.30614 53.1536 6.69545C52.7478 6.47086 52.2903 6.35608 51.8265 6.36244V6.36647Z" fill="#1B69FF"/>
<path opacity="0.43" d="M4.50329 89.2566C3.78108 89.2642 3.06952 89.0821 2.43979 88.7284C0.866254 87.84 0 85.9657 0 83.4545V33.203C0.104078 30.6405 0.807729 28.1381 2.05445 25.8968C3.30116 23.6556 5.05618 21.738 7.17851 20.2981L39.1463 1.082C41.1806 -0.140378 43.1395 -0.337569 44.6607 0.522626C46.2322 1.41099 47.0985 3.28531 47.0985 5.79648V56.05C46.995 58.6127 46.2917 61.1154 45.0454 63.357C43.799 65.5986 42.0442 67.5166 39.922 68.957L7.95321 88.173C6.92195 88.8386 5.72992 89.213 4.50329 89.2566ZM42.5942 1.50355C41.6419 1.54902 40.7193 1.84958 39.923 2.3738L7.95421 21.5899C4.39865 23.7268 1.50513 28.9342 1.50513 33.204V83.4555C1.50513 85.4013 2.10073 86.8108 3.18027 87.4215C4.21152 88.004 5.63013 87.8129 7.17952 86.8812L39.1473 67.6652C42.7039 65.5293 45.5964 60.3208 45.5964 56.049V5.80051C45.5964 3.85475 45.0028 2.44524 43.9212 1.83455C43.5153 1.6104 43.0578 1.49629 42.5942 1.50355Z" fill="#1B69FF"/>
<path d="M25.4656 31.6561C21.6928 33.9238 18.6523 39.3938 18.6523 43.9171V94.1666C18.6523 98.6889 21.6918 100.505 25.4656 98.2372L57.4344 79.0211C61.2083 76.7534 64.2467 71.2834 64.2467 66.7611V16.5136C64.2467 11.9913 61.2073 10.1753 57.4344 12.443L25.4656 31.6561Z" fill="#FCFCFC" stroke="black" stroke-width="1.5"/>
<path d="M33.251 41.3467C32.0662 42.1613 31.0863 43.2392 30.3881 44.496C29.6899 45.7528 29.2923 47.1543 29.2266 48.5905V78.2818C29.2266 80.955 31.0224 82.0274 33.251 80.6873L52.1405 69.3348C53.3253 68.5204 54.3054 67.4425 55.0036 66.1856C55.7019 64.9288 56.0994 63.5273 56.1649 62.091V32.3987C56.1649 29.7276 54.37 28.6531 52.1405 29.9932L33.251 41.3467ZM33.251 43.5732L52.1405 32.2196C53.3478 31.4942 54.3086 32.0677 54.3086 33.5154V63.2078C54.2752 63.9816 54.0618 64.7369 53.6855 65.4138C53.3091 66.0907 52.7801 66.6706 52.1405 67.1073L33.251 78.4599C32.0436 79.1853 31.0828 78.6118 31.0828 77.1651V47.4727C31.1165 46.699 31.3299 45.9437 31.7063 45.2669C32.0826 44.59 32.6115 44.0101 33.251 43.5732ZM41.7666 43.0943V46.9556L38.8559 46.7745L37.9575 49.2444L40.7746 49.4457L37.9575 53.0323L38.8559 54.4227L41.7666 50.7425V54.6038L43.6248 53.486V49.6257L46.5365 49.8068L47.4339 47.3359L44.6169 47.1347L47.4339 43.549L46.5365 42.1576L43.6248 45.8379V41.9775L41.7666 43.0943ZM34.4905 63.6132C34.2143 63.7986 33.9861 64.0467 33.8245 64.3374C33.6629 64.6281 33.5725 64.953 33.5608 65.2853C33.5608 65.9161 33.9633 66.1576 34.4905 65.8397L50.2862 56.3483C50.5621 56.1628 50.79 55.9145 50.9514 55.6239C51.1129 55.3332 51.2031 55.0085 51.2149 54.6763C51.2149 54.0464 50.8124 53.805 50.2862 54.1219L34.4905 63.6132ZM34.4905 69.1809C34.2143 69.3662 33.9861 69.6144 33.8245 69.9051C33.6629 70.1957 33.5725 70.5206 33.5608 70.853C33.5608 71.4838 33.9633 71.7242 34.4905 71.4073L42.6962 66.4775C42.9721 66.292 43.2 66.0437 43.3614 65.753C43.5228 65.4624 43.6131 65.1377 43.6248 64.8054C43.6248 64.1746 43.2224 63.9342 42.6962 64.2511L34.4905 69.1809Z" fill="#27292B"/>
</g>
<defs>
<clipPath id="clip0_0_4">
<rect width="65" height="100" fill="white"/>
</clipPath>
</defs>
</svg>
