<svg width="142" height="142" viewBox="0 0 142 142" fill="none" xmlns="http://www.w3.org/2000/svg">
<g clip-path="url(#clip0_9_47467)">
<path d="M71 0C31.7725 0 0 31.7725 0 71C0 110.227 31.7725 142 71 142C110.227 142 142 110.227 142 71C142 31.7725 110.227 0 71 0ZM71 141.053C32.305 141.053 0.946667 109.695 0.946667 71C0.946667 32.305 32.305 0.946667 71 0.946667C109.695 0.946667 141.053 32.305 141.053 71C141.053 109.695 109.695 141.053 71 141.053Z" fill="#B78A2D"/>
<path d="M132.475 55.9717L130.996 58.8117C131.173 59.0483 131.292 59.4033 131.469 60.2908L131.765 62.125C131.883 63.9592 132.002 63.545 130.877 65.0242C130.108 66.03 129.28 66.9175 128.629 67.9825C127.919 69.0475 127.682 69.1067 127.682 71.1183V71.2367C127.564 88.4542 119.517 105.139 105.377 115.967C95.5549 123.599 83.4257 127.859 70.8824 127.978C58.3391 127.859 46.2691 123.599 36.4474 116.026V115.967C29.9982 111.056 24.4957 104.666 20.4724 96.9742C16.4491 89.2825 14.4374 81.0583 14.1416 72.9525C14.2007 72.3608 14.1416 71.8284 14.2007 71.1775C14.2599 69.225 14.3191 69.58 13.1949 68.0417L12.7216 67.45L10.4141 69.6983C10.5324 69.9942 10.7099 70.29 10.6507 71.1775V71.2958C10.6507 71.7692 10.6507 72.2425 10.6507 72.6567C10.8874 81.4134 13.0766 90.2884 17.3957 98.5717C22.0107 107.388 28.4599 114.606 36.0924 119.99V120.049C46.1507 127.268 58.3391 131.291 70.8824 131.409C83.4257 131.291 95.6141 127.268 105.672 120.049V119.99C121.411 108.926 130.522 91.1758 131.114 72.7158C131.114 72.2425 131.173 71.5917 131.173 71.1183C131.232 69.2842 131.351 69.6983 132.297 68.2783C133.007 67.2725 133.777 66.2667 134.546 65.2608C135.67 63.7225 135.907 64.0775 135.552 62.1842C135.197 60.0542 135.315 60.6458 135.019 58.8708C134.664 56.9183 134.664 57.4508 133.067 56.3267C132.889 56.2675 132.712 56.1492 132.475 55.9717Z" fill="#B78A2D"/>
<path d="M44.8465 126.617C43.8407 126.143 42.7757 125.67 41.7698 125.138L40.8823 126.676C29.049 119.043 21.0615 110.168 15.3223 99.1634C10.6482 90.1701 8.63651 82.0051 8.39984 72.9526C8.34068 69.9943 8.45901 70.4676 10.589 68.3968C11.4765 67.5684 12.364 66.6809 13.2515 65.8526C14.6715 64.4918 14.3757 63.7818 14.7307 61.8293V61.7701C15.0857 59.8768 15.3815 59.6401 14.5532 57.9243L14.1982 57.2734L11.4765 59.0484C11.4765 59.3443 11.3582 59.6993 11.2398 60.6459C11.1215 61.4151 11.1215 61.6518 10.944 62.3026C10.6482 64.0776 10.944 63.7226 9.64234 65.0243C8.75484 65.9118 8.51818 66.1484 7.63068 67.0359C6.26984 68.3968 5.20484 68.8701 5.08651 70.7634C5.08651 71.0593 5.02734 71.4734 5.02734 71.8876C5.02734 72.2426 5.02734 72.5384 5.02734 72.8934C5.26401 82.5376 7.21651 90.9393 12.364 100.82C18.4582 112.535 30.5282 125.019 42.8348 130.699L44.314 127.563L44.8465 126.617Z" fill="#B78A2D"/>
<path d="M44.0781 131.764L46.0306 132.592L46.859 130.699L44.9065 129.871L44.0781 131.764Z" fill="#B78A2D"/>
<path d="M45.2617 128.983L47.2142 129.812L48.0426 127.859L46.0901 127.031L45.2617 128.983Z" fill="#B78A2D"/>
<path d="M90.2898 129.575L90.9998 131.468C86.7398 132.77 82.0656 133.657 77.6281 134.131L77.4506 132.297C76.3265 132.415 75.2023 132.474 74.0781 132.533L74.4331 136.971H74.729C80.3498 136.675 85.9706 135.669 91.3548 134.012L91.4731 133.953C92.5381 133.598 93.544 133.302 94.609 132.888L94.9048 132.77L93.544 128.451C92.4198 128.865 91.3548 129.22 90.2898 129.575Z" fill="#B78A2D"/>
<path d="M65.4971 134.249C61.0596 133.776 56.563 132.888 52.2438 131.586L52.658 129.634C51.593 129.279 50.528 128.924 49.463 128.51L49.108 129.575L48.043 132.888C53.4863 134.9 59.1663 136.201 64.9055 136.734H65.083C66.2663 136.852 67.4496 136.911 68.633 136.971V136.852L68.9288 132.533C67.8046 132.474 66.6805 132.415 65.5563 132.296L65.4971 134.249Z" fill="#B78A2D"/>
<path d="M72.5987 132.533H70.4688V134.604H72.5987V132.533Z" fill="#B78A2D"/>
<path d="M97.3281 126.617C98.334 126.143 99.399 125.67 100.405 125.138L100.996 126.676C112.83 119.043 121.113 110.405 126.852 99.4001C131.526 90.4067 133.538 81.9459 133.775 72.9526C133.775 71.5326 133.716 70.3492 132.591 69.2842L134.485 66.8584C135.727 68.0417 136.97 68.8701 137.147 70.7042C137.147 71.0001 137.206 71.4142 137.206 71.8284C137.206 72.1834 137.206 72.4792 137.206 72.8342C136.97 82.4784 135.017 90.8801 129.87 100.761C123.776 112.476 111.706 124.96 99.399 130.64L97.9198 127.504L97.3281 126.617Z" fill="#B78A2D"/>
<path d="M98.273 131.764L96.3797 132.592L95.4922 130.699L97.4447 129.871L98.273 131.764Z" fill="#B78A2D"/>
<path d="M97.1519 128.983L95.1994 129.812L94.3711 127.859L96.3236 127.031L97.1519 128.983Z" fill="#B78A2D"/>
<path d="M70.9974 1.479C32.5982 1.479 1.47656 32.6007 1.47656 70.9998C1.47656 109.399 32.5982 140.521 70.9974 140.521C109.397 140.521 140.518 109.399 140.518 70.9998C140.518 32.6007 109.397 1.479 70.9974 1.479ZM70.9974 138.923C33.4857 138.923 3.07406 108.512 3.07406 70.9998C3.07406 33.4882 33.4857 3.0765 70.9974 3.0765C108.509 3.0765 138.921 33.4882 138.921 70.9998C138.921 108.512 108.509 138.923 70.9974 138.923Z" fill="#B78A2D"/>
<path d="M71.0014 34.5532C50.8847 34.5532 34.5547 50.8832 34.5547 70.9999C34.5547 91.1166 50.9439 107.447 71.0014 107.447C91.0589 107.447 107.448 91.0574 107.448 70.9999C107.507 50.8832 91.118 34.5532 71.0014 34.5532ZM71.0014 105.967C51.713 105.967 36.0339 90.2882 36.0339 70.9999C36.0339 51.7116 51.713 36.0324 71.0014 36.0324C90.2897 36.0324 105.969 51.7116 105.969 70.9999C105.969 90.2882 90.2897 105.967 71.0014 105.967Z" fill="#B78A2D"/>
<path d="M13.2537 44.4931L16.1529 43.1915C16.1529 42.8365 16.3304 42.5406 16.6854 41.7123L17.5729 40.1148C18.6379 38.5765 18.2829 38.8723 20.0579 38.399C21.2412 38.1031 22.4837 37.8665 23.667 37.5115C24.9095 37.0973 25.0279 37.1565 26.2704 35.6181L26.3295 35.559L26.3887 35.6181C27.8679 34.0798 28.8145 33.4881 28.9329 31.299L28.992 30.5298L25.797 30.7665C25.5604 31.4173 24.1404 32.6598 23.667 33.429C22.6612 34.9673 22.7204 34.494 21.1229 35.0265C19.9395 35.3815 18.697 35.6773 17.5137 35.9731C15.6795 36.4465 15.7387 36.0323 14.792 37.7481C13.727 39.6415 14.0229 39.109 13.1354 40.7065C12.1887 42.4815 12.4845 42.0673 13.1354 43.9015C13.0762 44.0789 13.1354 44.3156 13.2537 44.4931Z" fill="#B78A2D"/>
<path d="M18.7555 34.7899L21.8322 34.0799C21.8914 33.2515 23.3705 31.7724 24.0214 31.1807C25.323 29.8199 24.9089 30.0565 26.8022 29.9382C28.0447 29.879 29.2872 29.7607 30.4705 29.7015C32.423 29.5832 32.6597 28.8732 34.198 27.5715L34.2572 27.5124C35.7364 26.2699 36.1505 26.329 36.5647 24.4357L36.7422 23.7257L33.5472 23.3115C33.3697 23.5482 33.0147 23.7257 32.3639 24.3765C31.8314 24.909 31.5947 25.0274 31.1214 25.4415C29.7014 26.6249 30.1747 26.5065 28.3405 26.6249C27.098 26.7432 25.8555 26.8024 24.613 26.9207C22.7197 27.0982 23.193 26.5657 21.8322 27.9265C21.063 28.6957 20.0572 29.9382 19.4064 30.8257C18.1047 32.364 18.4597 32.0682 18.7555 34.0207V34.7899Z" fill="#B78A2D"/>
<path d="M26.0352 26.2109L29.2302 25.9743C29.3485 25.6784 29.5852 25.4418 30.236 24.7909L31.656 23.6076C33.1352 22.5426 32.721 22.6609 34.6143 22.8384C35.8568 22.9568 37.0402 23.1934 38.2827 23.2526C39.5843 23.3118 39.7027 23.3709 41.3002 22.4243C43.2527 21.4776 44.3177 21.2409 45.2052 19.2884L45.501 18.5784L42.4243 17.6909C42.0693 18.1051 40.2352 18.9334 39.6435 19.3476C38.1643 20.4126 38.401 20.0576 36.6852 19.9393C35.4427 19.8801 34.2002 19.7026 32.9577 19.5843C31.0643 19.4068 31.2418 19.0518 29.8218 20.2943C28.1652 21.7143 28.6385 21.3001 27.2777 22.4834C25.7985 23.7851 26.2127 23.5484 26.1535 25.5009C26.0352 25.6784 26.0352 25.9151 26.0352 26.2109Z" fill="#B78A2D"/>
<path d="M110.171 23.4892L111.591 24.6725C112.893 25.9742 112.715 25.6192 112.775 27.4533C112.834 28.6958 112.775 29.9383 112.952 31.1808C113.07 32.4825 113.011 32.6008 114.313 34.1392C114.727 34.6125 115.023 35.0858 115.437 35.5C116.62 37.0383 116.147 36.8608 117.981 37.3342L118.75 37.5117L119.165 34.3167C118.691 34.0208 117.567 32.5417 117.035 31.95C115.733 30.6483 116.147 30.8258 115.97 29.11C115.851 27.8675 115.851 26.625 115.792 25.3825C115.674 23.4892 116.088 23.6075 114.609 22.365C112.952 20.945 113.485 21.3592 112.065 20.1758C110.526 18.8742 110.881 19.2883 108.929 19.525C108.692 19.525 108.455 19.5842 108.219 19.5842L108.929 22.72C109.165 22.72 109.461 22.9567 110.171 23.4892Z" fill="#B78A2D"/>
<path d="M101.175 17.2175C101.885 17.5725 102.24 17.75 102.891 18.2233C104.429 19.2883 104.133 18.9333 104.547 20.7675C104.784 21.9508 105.08 23.1933 105.316 24.3766C105.731 26.3291 106.441 26.4475 107.979 27.7491L108.038 27.8083C109.458 29.0508 109.517 29.465 111.411 29.6425L112.121 29.7016L112.002 26.4475C111.706 26.27 111.529 26.0333 110.76 25.4416C110.168 24.9683 109.991 24.7908 109.517 24.3766C108.156 23.1341 108.334 23.6075 107.92 21.8325C107.624 20.59 107.328 19.4066 107.091 18.1641C106.677 16.2708 107.269 16.685 105.671 15.5608C104.725 14.91 103.364 14.2591 102.358 13.6083C100.583 12.6025 100.997 12.8983 99.104 13.49L98.4531 13.7266L99.6365 16.6258C99.9323 16.6258 100.228 16.8033 101.175 17.2175Z" fill="#B78A2D"/>
<path d="M69.8174 9.34811H71.6516C73.4858 9.52561 73.0716 9.34811 74.3733 10.7089C75.2016 11.5964 76.0299 12.5431 76.9174 13.4306C77.8641 14.3181 77.9233 14.4956 79.8758 14.7914H79.935V14.8506C80.5266 15.0281 81.1774 15.0873 81.7691 15.2056C83.6624 15.6198 83.1891 15.7973 84.9049 14.9098L85.6149 14.5548L83.8399 11.8923C83.1891 12.0106 81.3549 11.4189 80.4674 11.3006C78.6333 11.1231 79.0474 11.0048 77.8049 9.82144C76.9174 8.99311 76.0891 8.04644 75.2016 7.15894C73.8408 5.79811 74.255 5.62061 72.3616 5.62061C70.1725 5.62061 70.8233 5.62061 68.9891 5.62061C66.9774 5.67977 67.5099 5.73894 66.1491 7.15894C65.9716 7.33644 65.8533 7.51394 65.6758 7.69144L68.2199 9.58477C68.5158 9.46644 68.8708 9.46644 69.8174 9.34811Z" fill="#B78A2D"/>
<path d="M82.5372 10.5315C84.3122 11.0048 83.9572 10.7681 84.963 12.3065C85.6139 13.3123 86.3238 14.3773 86.9747 15.3832C88.0397 17.0398 88.7497 16.8623 90.643 17.5723H90.7022C92.5364 18.2232 92.6547 18.6373 94.4888 18.1048L95.1988 17.8682L93.9564 14.8507C93.6605 14.7915 93.3055 14.614 92.418 14.3182C91.708 14.0815 91.4714 13.9632 90.8797 13.7265C89.1639 13.0757 89.5189 13.4307 88.4538 11.8923C87.7438 10.8865 87.0338 9.82148 86.383 8.81565C85.318 7.21815 86.028 7.39565 84.1347 6.92232C83.0105 6.62648 81.5313 6.38982 80.4072 6.21232C78.3955 5.85732 78.8689 6.03482 77.2714 7.21815L76.6797 7.63232L78.6322 9.82148C79.993 10.0582 81.768 10.2948 82.5372 10.5315Z" fill="#B78A2D"/>
<path d="M59.1094 10.5319C59.7602 10.3544 60.1744 10.2361 60.8844 10.1769C62.7185 9.99941 62.3044 9.88107 63.7835 11.0052C64.7894 11.7152 65.736 12.4844 66.7419 13.1944C68.3394 14.3777 68.931 13.9636 70.9427 14.0227H71.0019C72.9544 14.0227 73.191 14.3186 74.7294 13.1944L75.321 12.7802L73.1319 10.4136C72.836 10.4727 72.481 10.4136 71.5344 10.4727C70.7652 10.5319 70.5285 10.4727 69.8777 10.4727C68.0435 10.4727 68.4577 10.6502 66.9785 9.58524C65.9727 8.87524 64.9669 8.10607 63.961 7.39607C62.4227 6.27191 63.1327 6.15357 61.1802 6.33107C59.9377 6.44941 58.8727 6.80441 57.6302 7.04107C55.6185 7.39607 56.0919 7.39607 55.0269 9.05274L54.6719 9.6444L57.4527 11.0644C57.7485 10.8869 58.1035 10.7686 59.1094 10.5319Z" fill="#B78A2D"/>
<path d="M50.4111 12.8983C52.1861 12.425 51.772 12.3658 53.4286 13.2533C54.5528 13.7858 55.6178 14.4367 56.742 14.91C57.9253 15.4425 58.0436 15.5608 59.9961 15.1467C60.5878 15.0283 61.1795 14.9692 61.7711 14.8508C63.6645 14.555 63.3095 14.91 64.6111 13.49L65.1436 12.8983L62.5403 11.005C62.1853 11.2417 60.2328 11.4783 59.6411 11.5967V11.6558C59.582 11.6558 59.4636 11.715 59.4045 11.715C57.6295 12.1883 57.9845 11.8925 56.4461 11.2417C55.322 10.7683 54.1978 10.1767 53.0736 9.58498C51.3578 8.75665 51.6536 8.46082 49.8786 9.17082C47.867 9.93998 48.3995 9.70332 46.6836 10.3542C44.8495 11.0642 45.3228 10.9458 44.5536 12.78C44.4353 13.0167 44.3761 13.2533 44.2578 13.4308L47.3345 14.3183C47.7486 13.845 49.7011 13.1942 50.4111 12.8983Z" fill="#B78A2D"/>
<path d="M91.2364 12.8393L92.9522 13.4901C94.668 14.2593 94.313 13.9635 95.023 15.6793C95.4964 16.8035 95.9105 17.9868 96.5022 19.111C97.0939 20.2943 97.0939 20.4126 98.8097 21.3593C99.3422 21.6551 99.9339 22.0101 100.466 22.3651C102.064 23.4301 101.591 23.4301 103.484 23.1935L104.253 23.1343L103.543 19.9985C103.07 19.9393 101.354 18.756 100.585 18.3418C98.928 17.5726 99.3422 17.5726 98.573 16.0935C98.0405 14.9693 97.5672 13.786 97.0347 12.6618C96.2655 10.8868 96.6797 10.8868 94.8455 10.236C92.7747 9.52595 93.4255 9.70345 91.6505 9.11179C89.7572 8.46095 90.2305 8.69762 88.4555 9.58512C88.2189 9.70345 88.0414 9.82179 87.8047 9.94012L89.5797 12.6026C90.053 12.4843 90.3489 12.6026 91.2364 12.8393Z" fill="#B78A2D"/>
<path d="M38.933 18.2823C39.5247 17.8681 39.9389 17.6906 40.5897 17.3948C42.2464 16.6256 41.8322 16.6848 43.6072 17.2173C44.7905 17.5723 45.9739 17.9273 47.1572 18.2823C49.0505 18.8739 49.5239 18.2823 51.358 17.6314H51.4172C53.2514 16.9806 53.6064 17.1581 54.6714 15.5606L55.0855 14.9689L52.1864 13.4898C51.8905 13.6673 51.5355 13.7264 50.7072 14.0814C49.9972 14.3773 49.7605 14.4364 49.1689 14.6731C47.453 15.2648 47.9264 15.3239 46.1514 14.8506C44.968 14.4956 43.7255 14.1406 42.5422 13.8448C40.708 13.3123 41.3589 12.9573 39.5839 13.7856C38.6372 14.2589 37.3355 15.0873 36.3889 15.6198C34.673 16.6256 35.0872 16.5073 34.673 18.4006L34.5547 18.9331L37.6905 19.2881C37.8089 18.9923 38.0455 18.8148 38.933 18.2823Z" fill="#B78A2D"/>
<path d="M9.52703 54.9657L12.1304 53.2499C12.0712 52.9541 12.1304 52.5991 12.4262 51.6524C12.6037 51.0016 12.6629 50.5874 12.9587 49.9366C13.7279 48.2207 13.432 48.5757 15.1479 47.8066C16.272 47.3332 17.3962 46.8007 18.5204 46.3274C20.2954 45.4991 20.2954 44.7891 21.3012 43.0732L21.3604 43.0141C22.307 41.3574 22.7212 41.2391 22.4845 39.3457L22.3662 38.6357L19.2304 39.3457C19.112 39.6416 18.8754 39.9374 18.4612 40.7657C18.1062 41.4166 17.9879 41.6532 17.6329 42.1857C16.6862 43.7832 17.1004 43.4874 15.4437 44.2566C14.3195 44.7891 13.1954 45.3216 12.0712 45.7949C10.2962 46.6232 10.592 45.9132 9.82287 47.6882C9.34953 48.8124 9.11287 49.9366 8.6987 51.1199C8.04787 53.0132 8.28453 52.5991 9.17203 54.3741L9.52703 54.9657Z" fill="#B78A2D"/>
<path d="M124.134 39.8785L125.022 41.476C125.791 43.1918 125.732 42.7185 125.199 44.4935C124.844 45.6768 124.371 46.801 124.075 48.0435C123.779 49.3452 123.661 49.4043 124.371 51.2385V51.2977H124.312C124.844 53.3685 124.903 54.4927 126.678 55.7352L127.329 56.1493L128.808 53.3093C128.394 52.7768 128.039 50.8835 127.684 50.1143C126.915 48.4577 127.27 48.7535 127.684 47.0968C127.98 45.9135 128.394 44.7302 128.749 43.4877C129.282 41.6535 129.637 41.9493 128.69 40.2335C127.625 38.3402 127.98 38.8727 127.033 37.2752C126.027 35.5593 126.205 36.0327 124.312 35.5593C124.075 35.5002 123.838 35.441 123.602 35.3818L123.188 38.5768C123.424 38.8135 123.602 39.1685 124.134 39.8785Z" fill="#B78A2D"/>
<path d="M127.98 48.221C128.631 48.6944 129.104 50.7652 129.341 51.5935C129.814 53.3685 129.814 52.9544 128.986 54.611C128.394 55.676 127.862 56.8002 127.27 57.9244C126.383 59.6994 126.856 60.2319 127.152 62.1844V62.2435C127.448 64.1369 127.211 64.4919 128.572 65.7935L129.104 66.326L131.116 63.7819C130.998 63.486 130.998 63.131 130.82 62.2435C130.643 61.4744 130.643 61.2377 130.583 60.5869C130.347 58.8119 130.169 59.226 130.998 57.6285C131.589 56.5044 132.122 55.3802 132.713 54.3152C133.601 52.5994 133.778 53.3094 133.305 51.416C133.009 50.351 132.477 48.8719 132.122 47.8069C131.471 45.9135 131.53 46.3869 129.755 45.5585L129.104 45.2627L127.98 48.221Z" fill="#B78A2D"/>
<path d="M116.559 26.8618L116.618 29.9976C116.914 30.116 117.15 30.3526 117.86 31.1218C118.334 31.5951 118.629 31.891 119.044 32.4826C120.109 34.021 119.99 33.6068 119.694 35.441C119.517 36.6835 119.339 37.8668 119.221 39.1093C118.984 41.0618 119.576 41.4168 120.523 43.1327L120.582 43.1918C121.529 44.9076 121.351 45.2627 123.126 46.091L123.777 46.3868L124.783 43.3101C124.605 43.0735 124.487 42.7185 123.954 41.9493C123.54 41.2985 123.422 41.0618 123.126 40.5293C122.239 38.9318 122.298 39.4051 122.475 37.571C122.653 36.3285 122.771 35.086 122.949 33.8435C123.185 31.9501 123.599 32.5418 122.534 30.9443C121.824 29.9385 120.996 29.1693 120.227 28.2226C118.925 26.6251 119.162 27.0393 117.209 26.921L116.559 26.8618Z" fill="#B78A2D"/>
<path d="M7.69131 65.9708L9.99881 63.7225C9.88047 63.4267 9.93964 63.0717 9.99881 62.125L10.2946 60.2908C10.768 58.5158 10.5313 58.8708 12.0696 57.8058C13.0755 57.0958 14.1405 56.5042 15.1463 55.735C16.1521 54.9067 16.3296 54.9067 16.9213 53.0725C17.5721 51.12 18.3413 50.2917 17.6905 48.2208L17.4538 47.4517L14.4955 48.7533C14.4955 48.9308 13.7263 51.4158 13.608 51.83C13.1938 53.605 13.0755 53.1908 11.7146 54.1967C10.7088 54.9658 9.64381 55.6167 8.63797 56.3267C7.04047 57.3917 6.98131 56.9775 6.68547 58.93C6.33047 61.06 6.38964 60.4683 6.15297 62.2433C5.85714 64.1958 6.03464 63.7225 7.21797 65.2608C7.39547 65.6158 7.51381 65.7933 7.69131 65.9708Z" fill="#B78A2D"/>
<path d="M71.0018 17.1582C41.241 17.1582 17.1602 41.2982 17.1602 70.9999C17.1602 100.761 41.3002 124.842 71.0018 124.842C100.763 124.842 124.843 100.702 124.843 70.9999C124.843 41.239 100.763 17.1582 71.0018 17.1582ZM71.0018 123.599C41.951 123.599 18.4027 100.051 18.4027 70.9999C18.4027 41.949 41.951 18.4007 71.0018 18.4007C100.053 18.4007 123.601 41.949 123.601 70.9999C123.601 100.051 100.053 123.599 71.0018 123.599Z" fill="#B78A2D"/>
<path d="M115.731 86.1465L114.666 88.809C114.548 89.1048 114.37 89.3415 114.193 89.519C113.838 89.874 113.365 90.1107 112.773 90.1698C112.477 90.1698 112.24 90.1107 111.945 89.9923L108.868 88.7498C111.235 82.7148 113.128 78.2773 113.01 71.414H112.714C112.418 71.414 112.181 71.3548 111.885 71.2365C111.353 71.059 110.939 70.6448 110.702 70.1123C110.584 69.8757 110.525 69.5798 110.525 69.3432L110.465 68.0415L112.122 67.9823L112.181 69.284C112.181 69.4023 112.24 69.5207 112.3 69.5798C112.359 69.639 112.477 69.6982 112.595 69.6982H112.891L112.773 66.0298L116.086 65.9707C116.382 65.9707 116.678 66.0298 116.915 66.1482C117.151 66.2665 117.447 66.444 117.625 66.6215C117.861 66.799 117.98 67.0357 118.098 67.2723C118.216 67.509 118.275 67.8048 118.335 68.0415V69.1657C118.335 69.4615 118.275 69.6982 118.157 69.994C118.098 70.2307 117.92 70.4673 117.743 70.704C117.565 70.9407 117.329 71.059 117.033 71.1773C116.796 71.2957 116.5 71.3548 116.264 71.414L114.607 71.4732C114.666 74.5498 114.252 76.2657 113.66 79.6382L114.844 79.8748C114.962 79.8748 115.021 79.8748 115.08 79.8748C115.199 79.8157 115.317 79.6973 115.317 79.5198L116.145 74.8457L118.749 75.319C118.985 75.3782 119.281 75.4965 119.518 75.674C119.755 75.7923 119.932 75.9698 120.11 76.2065C120.287 76.4432 120.405 76.739 120.465 76.9757C120.524 77.2123 120.524 77.5082 120.465 77.804L119.222 83.839L117.565 83.5432L118.808 77.5082C118.808 77.3898 118.808 77.3307 118.808 77.2715C118.808 77.2123 118.749 77.1532 118.69 77.094C118.63 77.0348 118.571 76.9757 118.512 76.9757L117.565 76.7982L117.033 79.8748C116.974 80.1707 116.855 80.4073 116.737 80.644C116.619 80.8807 116.441 81.0582 116.205 81.2357C115.968 81.354 115.672 81.4723 115.435 81.5907C115.199 81.6498 114.903 81.6498 114.607 81.5907L113.424 81.354C112.714 84.0165 111.885 85.8507 111.057 88.0398L112.595 88.6315C112.655 88.6315 112.714 88.6907 112.773 88.6315C112.832 88.5723 112.95 88.5723 113.01 88.5132C113.069 88.454 113.128 88.3948 113.128 88.3357L114.43 85.0223L115.731 86.1465ZM116.086 62.8348L115.85 61.3557C115.85 61.1782 115.731 61.0598 115.613 60.9415C115.554 60.9415 115.495 60.9415 115.376 60.9415L113.72 61.2373L114.075 63.1898L116.086 62.8348ZM103.484 38.044L102.36 36.979C102.3 36.9198 102.241 36.9198 102.182 36.8607C102.005 36.8015 101.886 36.8607 101.768 36.979L100.644 38.1623L102.064 39.5232L103.484 38.044ZM104.549 45.0848C102.241 42.1265 101.295 41.1798 98.2179 38.2807L100.525 35.8548C100.703 35.6773 100.94 35.4998 101.176 35.3815C101.472 35.2632 101.709 35.204 102.005 35.204C102.3 35.204 102.537 35.2632 102.774 35.3815C103.07 35.4998 103.306 35.6182 103.484 35.7957L105.791 37.9848L103.188 40.7065C104.312 41.7715 104.726 42.5998 105.673 43.8423L105.85 44.079L105.91 44.1382L107.448 46.2682L108.69 48.2207L108.868 48.5165L109.933 50.5873H109.992L111.057 52.954L111.175 53.2498V53.309C111.885 55.1432 112.891 57.924 113.365 59.5807L115.021 59.2848C115.317 59.2257 115.554 59.2257 115.85 59.2848C116.145 59.344 116.382 59.4623 116.619 59.6398C116.855 59.8173 117.033 59.9948 117.151 60.2315C117.329 60.4682 117.447 60.764 117.506 61.0598L118.098 64.1957L112.714 65.1423C111.945 60.8823 111.708 59.5807 110.465 55.9123L109.637 53.9007L108.631 51.6523L107.389 49.2857L105.85 46.8598L104.549 45.0848ZM106.265 36.9198L105.2 35.914L106.265 34.849L107.33 35.8548L106.265 36.9198ZM104.785 35.559L103.72 34.5532L104.785 33.4882L105.85 34.494L104.785 35.559ZM95.4962 36.1507L94.1354 35.204L98.7504 28.6957L100.111 29.6423L95.4962 36.1507ZM89.2246 28.2815L88.1596 27.8082C88.1004 27.8082 88.0413 27.749 87.9229 27.749C87.7454 27.749 87.6862 27.8673 87.5679 28.0448L86.8579 29.5832L88.6921 30.4115L89.4021 28.8732C89.4613 28.6957 89.4613 28.5773 89.4021 28.459C89.3429 28.3407 89.2838 28.2815 89.2246 28.2815ZM93.4254 34.6715C92.1237 33.9023 90.9404 33.1332 89.6387 32.5415L89.5204 32.7782C89.4021 33.0148 89.2246 33.2515 88.9879 33.429C88.5737 33.8432 88.0412 34.0207 87.5087 33.9615C87.2721 33.9615 86.9762 33.9023 86.7396 33.784L85.5563 33.2515L86.2663 31.7723L87.4496 32.3048C87.5679 32.364 87.6862 32.364 87.8046 32.3048C87.9229 32.2457 87.9821 32.1865 88.0413 32.0682L88.1596 31.8315L84.7871 30.2932L86.1479 27.2757C86.3254 26.9798 86.5029 26.8023 86.6804 26.6248C86.9171 26.4473 87.1537 26.2698 87.3904 26.1515C87.6862 26.0332 87.9229 26.0332 88.1596 26.0332C88.4554 26.0332 88.6921 26.0923 88.9879 26.2107L90.0529 26.684C90.2896 26.8023 90.5263 26.9798 90.7038 27.2165C90.8812 27.394 91.0587 27.6307 91.1179 27.9265C91.2362 28.2223 91.2362 28.459 91.2362 28.7548C91.2362 29.0507 91.1771 29.2873 91.0587 29.5832L90.3487 31.1215C91.4729 31.5948 91.8279 31.8907 92.8337 32.4823L95.9696 27.039L97.4488 27.8673L93.4254 34.6715ZM51.7129 26.5657L54.0204 25.6782C54.2571 25.5598 54.5529 25.5598 54.8487 25.5598C55.3221 25.5598 55.8546 25.7373 56.3279 26.1515C56.5054 26.329 56.6829 26.5657 56.7421 26.8615L57.3338 28.3998C64.7296 25.5007 74.9654 26.2698 82.5387 28.0448L82.8938 26.4473C82.8938 26.3882 82.8938 26.329 82.8938 26.2698C82.8346 26.2107 82.7754 26.0923 82.7754 26.0332C82.7162 25.974 82.6571 25.974 82.5387 25.9148L79.1071 25.1457L80.1129 23.6665L82.8938 24.3173C83.1896 24.3765 83.4262 24.4948 83.6629 24.6723C84.0771 24.9682 84.3729 25.3823 84.5504 25.974C84.6096 26.2698 84.5504 26.5065 84.4912 26.8023L83.7221 30.0565C71.4746 27.2165 64.8479 27.2165 53.1329 31.8315L52.5413 30.2932L55.7362 29.0507L55.1446 27.5123C55.0854 27.394 54.9671 27.3348 54.7896 27.2165C54.7304 27.2165 54.6712 27.2165 54.5529 27.2757L52.2454 28.1632L51.7129 26.5657ZM52.4229 32.1273L47.8079 34.7898L46.1512 31.8907C46.0329 31.654 45.9146 31.3582 45.9146 31.1215C45.7962 30.5298 45.9146 29.9973 46.3288 29.5832C46.5063 29.3465 46.6838 29.169 46.9204 28.9915L49.7013 27.394L52.4229 32.1273ZM49.1096 29.7015L47.7487 30.4707C47.5712 30.5298 47.5121 30.6482 47.5121 30.8257C47.5121 30.8848 47.5121 31.0032 47.5713 31.0623L48.3996 32.4823L50.1746 31.4765L49.1096 29.7015ZM48.6362 26.8023L47.3937 27.5123L46.6246 26.2107L47.9263 25.4415L48.6362 26.8023ZM46.9204 27.749L45.6779 28.459L44.9088 27.2165L46.1512 26.5065L46.9204 27.749ZM44.9679 36.8015L43.6663 37.8073L38.6963 31.5357L39.9979 30.5298L44.9679 36.8015ZM42.9562 38.3398C41.5362 39.7007 39.0513 41.8307 38.0454 43.2507L38.2821 43.4282C38.5187 43.6057 38.6962 43.7832 38.8146 44.079C39.1104 44.5523 39.2288 45.0848 39.0513 45.6765C38.9921 45.9132 38.8738 46.1498 38.6963 46.3865L37.9271 47.4515L36.6846 46.4457L37.4537 45.3807C37.5129 45.2623 37.5721 45.144 37.5129 45.0848C37.5129 44.9665 37.4537 44.9073 37.3354 44.789L37.0988 44.6115L34.9096 47.629L32.1879 45.7357C31.9513 45.499 31.7738 45.3215 31.6554 45.144C31.5371 44.9073 31.4188 44.6115 31.3596 44.3748C31.3596 44.0198 31.3596 43.7832 31.4187 43.5465C31.4779 43.2507 31.5371 43.014 31.7146 42.7773L32.3654 41.8307C32.5429 41.594 32.7204 41.4165 32.9571 41.2982C33.1938 41.1207 33.4304 41.0615 33.7263 41.0023C34.0221 40.9432 34.3179 40.9432 34.5546 41.0615C34.8504 41.1207 35.0871 41.1798 35.3238 41.3573L36.6846 42.304C37.5721 41.0615 39.2879 39.5232 40.5304 38.3398L36.2113 33.7248L37.4537 32.5415L42.9562 38.3398ZM33.7854 42.8365L33.1346 43.724C33.0754 43.7832 33.0754 43.8423 33.0162 43.9607C33.0162 44.1382 33.0754 44.2565 33.1937 44.3157L34.5546 45.2623L35.7379 43.6648L34.3771 42.7182C34.2587 42.5998 34.0813 42.5998 33.9629 42.659C33.9038 42.7182 33.8446 42.7773 33.7854 42.8365ZM29.9396 48.694L28.9338 50.9423C28.9338 51.0015 28.8746 51.0607 28.8746 51.1198C28.8746 51.179 28.9338 51.2973 28.9929 51.3565L30.4129 52.6582L32.0104 49.1673L30.5312 48.5165C30.4129 48.4573 30.2946 48.4573 30.1763 48.5165C30.0579 48.5165 29.9987 48.5757 29.9396 48.694ZM23.4904 57.7465L23.1354 59.1665L21.6562 58.8115L22.0113 57.3915L23.4904 57.7465ZM31.1229 64.8465L31.0046 66.3257L29.5254 66.2073L29.6437 64.7282L31.1229 64.8465ZM31.0046 66.6807L30.8863 68.1598L29.4071 68.0415L29.5254 66.5623L31.0046 66.6807ZM32.4246 88.7498L29.3479 89.9923C29.1112 90.1107 28.8154 90.1698 28.5788 90.1698C28.2829 90.1698 27.9871 90.1107 27.7504 89.9923C27.5138 89.874 27.2771 89.7557 27.0996 89.519C26.8629 89.3415 26.7446 89.1048 26.6263 88.809L25.4429 85.8507L28.9929 84.4898C27.3954 80.4665 26.3304 71.3548 26.6854 66.9765L23.1946 66.6807L23.3129 64.9648L26.8038 65.2607C27.3954 63.249 27.5138 62.3023 27.9279 60.3498L24.2596 59.5215L24.6146 57.8648L28.2829 58.6932C28.6379 57.0365 28.9929 55.9123 29.7029 54.374L23.9046 51.7707L24.6146 50.2323L27.3363 51.4748C27.3363 51.3565 27.3363 51.2382 27.3363 51.179C27.3363 50.8832 27.3363 50.5873 27.5138 50.2915L28.5196 48.0432C28.6379 47.8065 28.8154 47.5698 28.9929 47.3332C29.4663 46.9782 29.9396 46.8007 30.4721 46.8007C30.7679 46.8007 31.0638 46.8598 31.3004 46.9782L34.3179 48.339C27.2179 63.7815 26.2121 73.0115 32.4246 88.7498ZM27.6321 86.7382L28.2238 88.1582C28.2238 88.2173 28.2829 88.2765 28.3421 88.3357C28.4604 88.454 28.6379 88.5132 28.7562 88.3948L30.2946 87.8032L29.5846 85.969L27.6321 86.7382ZM24.6146 86.6198L25.1471 87.9807L23.7271 88.5132L23.1946 87.1523L24.6146 86.6198ZM25.3246 88.454L25.8571 89.8148L24.4371 90.3473L23.9046 88.9865L25.3246 88.454ZM116.678 69.2248V68.1007C116.678 68.0415 116.678 67.9823 116.619 67.864C116.56 67.7457 116.382 67.6865 116.205 67.6865L114.548 67.7457L114.607 69.7573L116.264 69.6982C116.441 69.6982 116.56 69.639 116.619 69.5207C116.678 69.4023 116.678 69.3432 116.678 69.2248Z" fill="#B78A2D"/>
<path d="M91.7092 107.447L92.5967 106.855C92.8334 106.737 93.0701 106.618 93.3659 106.559C93.6026 106.5 93.8392 106.5 94.1351 106.559C94.4309 106.618 94.6675 106.737 94.9042 106.914C95.1409 107.033 95.3184 107.269 95.4367 107.506L97.3892 110.464C97.5667 110.701 97.6259 110.938 97.6851 111.233C97.7442 111.825 97.6259 112.358 97.3301 112.772C97.2117 113.008 96.9751 113.186 96.7384 113.304L95.6734 114.014L94.7859 112.653L95.8509 111.943C95.9101 111.884 95.9692 111.825 96.0284 111.648C96.0876 111.529 96.0876 111.47 95.9692 111.352L95.7917 111.115L92.8926 113.008L91.1176 110.287C90.9401 110.05 90.8809 109.813 90.8217 109.518C90.7626 109.281 90.7626 108.985 90.8217 108.748C90.8809 108.453 90.9992 108.216 91.1176 108.038C91.2951 107.802 91.4726 107.565 91.7092 107.447ZM93.5434 108.216L92.6559 108.808C92.5376 108.926 92.4192 109.044 92.4192 109.163C92.4192 109.222 92.4192 109.34 92.4784 109.399L93.3659 110.76L95.0226 109.695L94.1351 108.334C94.0759 108.275 94.0167 108.216 93.9576 108.157C93.7801 108.098 93.6617 108.157 93.5434 108.216ZM94.9634 105.376L96.7976 103.778C96.9751 103.601 97.2709 103.483 97.5667 103.364C98.0992 103.187 98.5725 103.187 99.0459 103.483C99.3417 103.601 99.5192 103.778 99.6967 103.956L101.827 106.441L98.0401 109.636L96.975 108.393L99.5192 106.204L98.4542 104.962C98.395 104.903 98.2767 104.843 98.0401 104.843C97.9809 104.843 97.9217 104.903 97.8625 104.962L96.0284 106.559L94.9634 105.376Z" fill="#B78A2D"/>
<path d="M76.4997 114.546L74.9614 114.724C74.9022 114.724 74.843 114.783 74.7839 114.783C74.6655 114.842 74.6064 115.02 74.6064 115.197L74.7839 116.795L76.7364 116.558L76.4997 114.546ZM78.3339 116.381C81.4697 115.966 87.0314 114.014 89.8122 112.594L87.0314 107.091L88.5106 106.322L92.0606 113.304C84.9014 116.913 81.0555 117.623 73.423 118.57L73.0089 115.375C72.9497 115.079 73.0089 114.842 73.068 114.606C73.1272 114.31 73.3047 114.073 73.423 113.836C73.6005 113.6 73.778 113.481 74.0147 113.363C74.2514 113.186 74.5472 113.126 74.7839 113.067L77.9197 112.712L78.3339 116.381Z" fill="#B78A2D"/>
<path d="M77.1125 110.269L75.7031 110.442L75.8837 111.91L77.2931 111.737L77.1125 110.269Z" fill="#B78A2D"/>
<path d="M75.2219 110.497L73.8125 110.67L73.993 112.138L75.4023 111.965L75.2219 110.497Z" fill="#B78A2D"/>
<path d="M61.0027 120.049L59.5827 119.753L59.9377 118.333L61.3577 118.629L61.0027 120.049ZM59.2277 119.635L57.8077 119.28L58.1627 117.86L59.5827 118.215L59.2277 119.635ZM53.1927 118.037L51.8318 117.505L52.3643 116.144L53.7252 116.677L53.1927 118.037ZM47.631 115.197L46.3885 114.487L47.1577 113.186L48.4002 113.896L47.631 115.197ZM46.0335 114.31L44.791 113.6L45.5602 112.298L46.8027 113.008L46.0335 114.31ZM69.996 118.629C57.216 118.274 48.341 114.192 39.3477 106.382L44.4952 100.465L45.7377 101.53L41.6552 106.204C43.4302 107.742 45.5602 109.34 47.5718 110.523L49.406 107.387L50.826 108.216L48.9918 111.352C50.4118 112.18 51.8318 112.89 53.3702 113.482L54.731 110.05L56.2693 110.642L54.9085 114.073C56.3877 114.665 57.9852 115.197 59.5827 115.552L60.411 112.002L62.0085 112.357L61.1802 115.907C63.606 116.499 65.8543 116.736 68.3393 116.854L68.5168 110.701L70.1735 110.76L69.996 118.629Z" fill="#B78A2D"/>
<path fill-rule="evenodd" clip-rule="evenodd" d="M32.4247 96.0276L34.4363 94.6076C34.673 94.4301 34.9688 94.4893 35.0872 94.7259L36.5072 96.7376C36.6847 96.9743 36.6255 97.2701 36.3888 97.3884L34.3772 98.8084C34.1405 98.9859 33.8447 98.9268 33.7263 98.6901L32.3063 96.6784C32.1288 96.5009 32.188 96.2051 32.4247 96.0276Z" fill="#B78A2D"/>
<path fill-rule="evenodd" clip-rule="evenodd" d="M109.162 96.0276L107.151 94.6076C106.914 94.4301 106.618 94.4893 106.5 94.7259L105.08 96.7376C104.902 96.9743 104.961 97.2701 105.198 97.3884L107.21 98.8084C107.446 98.9859 107.742 98.9268 107.861 98.6901L109.281 96.6784C109.399 96.5009 109.399 96.2051 109.162 96.0276Z" fill="#B78A2D"/>
<path d="M84.8454 62.0068L88.6912 67.6868L95.3771 65.4977L91.1763 70.941L95.3179 76.621L88.8687 74.3135L84.7271 79.9935L84.9638 73.1302L78.2188 70.941L84.7863 69.0477L84.8454 62.0068Z" fill="#B78A2D"/>
<path d="M70.41 87.685C61.18 87.685 53.725 80.23 53.725 71C53.725 61.77 61.18 54.315 70.41 54.315C75.4983 54.315 80.0542 56.6225 83.1308 60.2317C79.5808 54.7884 73.4275 51.1792 66.4458 51.1792C55.5 51.1792 46.625 60.0542 46.625 71C46.625 81.9459 55.5 90.8209 66.4458 90.8209C73.4275 90.8209 79.5808 87.2117 83.1308 81.7684C80.0542 85.3775 75.4983 87.685 70.41 87.685Z" fill="#B78A2D"/>
</g>
<defs>
<clipPath id="clip0_9_47467">
<rect width="142" height="142" fill="white"/>
</clipPath>
</defs>
</svg>
