<svg xmlns="http://www.w3.org/2000/svg" width="101" height="129" fill="none" viewBox="0 0 101 129"><g clip-path="url(#a)"><path fill="#1b69ff" d="M37.439 122.262a18.34 18.34 0 0 1-9.093-2.352c-9.16-5.164-14.424-17.928-14.424-35.022 0-29.518 15.895-63.076 35.433-74.81C57.44 5.22 65.493 4.572 72.021 8.25c9.16 5.16 14.425 17.927 14.425 35.019 0 29.52-15.896 63.079-35.43 74.809a26.57 26.57 0 0 1-13.577 4.184M62.897 9.072a23.33 23.33 0 0 0-11.882 3.75C32.34 24.042 17.14 56.369 17.14 84.885c0 15.668 4.782 27.718 12.795 32.227 5.554 3.129 12.27 2.513 19.424-1.784 18.677-11.218 33.876-43.543 33.876-72.064 0-15.668-4.782-27.713-12.794-32.226a15.2 15.2 0 0 0-7.543-1.961z"/><path fill="#1b69ff" d="M23.516 116.366a18.3 18.3 0 0 1-9.092-2.349C5.254 108.853 0 96.089 0 78.995 0 49.477 15.893 15.916 35.43 4.183c8.085-4.86 16.139-5.508 22.667-1.83 9.16 5.161 14.424 17.928 14.424 35.023 0 29.517-15.896 63.079-35.43 74.809a26.57 26.57 0 0 1-13.576 4.181M37.092 6.93C18.415 18.148 3.216 50.477 3.216 78.994c0 15.668 4.778 27.717 12.786 32.226 5.554 3.126 12.27 2.51 19.424-1.784 18.677-11.218 33.876-43.547 33.876-72.063 0-15.673-4.782-27.718-12.795-32.227-5.553-3.126-12.27-2.51-19.42 1.784z" opacity=".33"/><path fill="#fff" stroke="#000" stroke-width="2" d="M64.901 18.128C45.782 29.612 30.25 62.528 30.25 91.563s15.532 43.299 34.651 31.815 34.65-44.4 34.65-73.435-15.533-43.294-34.65-31.815Z"/><path fill="#27292b" d="M66.173 41.292c-2.287 1.37-4.14 5.301-4.14 8.772s1.853 5.171 4.14 3.802 4.141-5.302 4.141-8.773-1.854-5.175-4.14-3.801m-5.525 24.27v4.194l1.379-.83 1.378-.831V95.34l-1.378.827-1.379.83v4.19l1.379-.826 1.378-.83 5.525-3.317 1.378-.83 1.378-.826v-4.194l-1.378.83-1.378.83V60.592l-1.383.83-5.525 3.312z"/></g><defs><clipPath id="a"><path fill="#fff" d="M0 0h101v129H0z"/></clipPath></defs></svg>