<svg xmlns="http://www.w3.org/2000/svg" width="57" height="78" fill="none" viewBox="0 0 57 78"><g fill-rule="evenodd" clip-path="url(#a)" clip-rule="evenodd"><path fill="#eff3fa" d="M55.266 4.737 48.313.724C39.333-1.42.577 22.032.577 29.864l6.954 4.013c2.886-7.833 18.178-16.873 24.387-20.538 5.886-3.312 17.86-9.913 23.348-8.602"/><path fill="#035be8" d="m1.195 29.541 6.064 3.497c3.526-7.917 18.602-16.798 24.371-20.2 7.118-4.021 15.616-8.423 21.224-8.825l-4.748-2.742C42.026-.03 21.56 10.688 9.583 20.15c-5.061 3.998-8.076 7.385-8.388 9.391m6.342 4.927a.53.53 0 0 1-.278-.08L.285 30.377a.58.58 0 0 1-.277-.503c0-3.01 4.812-7.44 8.849-10.634C20.027 10.422 41.576-1.475 48.451.16q.076.023.143.064l6.954 4.013a.58.58 0 0 1-.402 1.073c-5.488-1.307-18.158 5.851-22.936 8.547-5.821 3.427-21.293 12.546-24.125 20.23a.56.56 0 0 1-.348.348.6.6 0 0 1-.209.027z"/><path fill="#fff" d="M7.417 34.836c.924 30.184-3.903 48.595 24.486 40.087C60.278 50.685 55.465 37.84 56.423 6.575c.297-9.994-49.3 18.61-49.006 28.261"/><path fill="#035be8" d="M8.015 34.82c.13 4.435.145 8.533.145 12.492.054 13.549.07 23.334 5.29 27.213 3.475 2.567 9.25 2.533 18.158-.125C55.533 53.937 55.582 41.604 55.667 19.24c.015-3.974.03-8.087.163-12.68a1.18 1.18 0 0 0-.54-1.172c-2.559-1.495-12.805 2.379-24.407 9.232-13.374 7.908-23.001 16.4-22.867 20.2zm12.338 42.764a12.38 12.38 0 0 1-7.595-2.126c-5.682-4.223-5.716-14.254-5.765-28.141 0-3.954-.015-8.044-.15-12.462-.163-5.001 11.665-14.278 23.449-21.238C39.798 8 52.19 2.213 55.88 4.384a2.34 2.34 0 0 1 1.122 2.212c-.154 4.58-.154 8.682-.169 12.65-.08 22.738-.129 35.27-24.55 56.125a1 1 0 0 1-.215.114 42 42 0 0 1-11.715 2.099"/><path fill="#eff3fa" d="m31.905 43.379-.015 31.544h.015c20.334-17.364 23.63-28.882 24.203-45.516z"/><path fill="#035be8" d="M32.479 43.716v29.939c18.422-15.993 22.296-26.91 23-43.216l-23 13.273zm-.59 31.792a.57.57 0 0 1-.333-.1.6.6 0 0 1-.244-.482V43.382a.59.59 0 0 1 .294-.503l24.203-13.971a.6.6 0 0 1 .596 0 .56.56 0 0 1 .278.521c-.603 17.524-4.416 28.867-24.401 45.938a.8.8 0 0 1-.18.1.6.6 0 0 1-.213.041"/><path fill="#eff3fa" d="M7.417 34.835c.263 8.558.064 16.167.302 22.49l24.188-13.957.015-30.025C19.6 20.451 7.272 30.013 7.417 34.835"/><path fill="#035be8" d="M8.015 34.821c.13 4.44.144 8.538.144 12.502.02 3.194.02 6.228.1 9.01l23.056-13.3.015-28.674C17.637 22.375 7.883 30.913 8.016 34.822zm-.302 23.086a.7.7 0 0 1-.302-.07.66.66 0 0 1-.301-.491c-.101-3.055-.115-6.435-.13-10.018 0-3.953-.014-8.044-.148-12.469-.164-5.24 12.323-14.836 24.784-22.02a.57.57 0 0 1 .576 0 .59.59 0 0 1 .293.502l-.015 30.025a.58.58 0 0 1-.278.503L7.984 57.825a.53.53 0 0 1-.267.082z"/><path fill="#035be8" d="M.577 29.83c.12-.487.264-1.033.448-1.624 2.29-4.779 13.032-12.75 23.875-18.904l4.153 2.394 2.865 1.65C25.69 17.01 10.418 26.05 7.531 33.877L.577 29.865z"/><path fill="#035be8" d="m1.257 29.576 5.995 3.462c3.362-7.55 17.22-15.973 23.498-19.683l-5.851-3.382C13.147 16.678 3.56 24.257 1.549 28.459c-.1.362-.214.745-.293 1.118zm6.273 4.887a.53.53 0 0 1-.278-.08L.279 30.37A.59.59 0 0 1 0 29.836a.4.4 0 0 1 .02-.145c.114-.497.258-1.053.442-1.654 2.522-5.284 13.941-13.45 24.153-19.24a.59.59 0 0 1 .581 0l7.004 4.043a.59.59 0 0 1 .292.502.6.6 0 0 1-.277.503c-5.832 3.432-21.308 12.55-24.14 20.235a.58.58 0 0 1-.546.382z"/><path fill="#eff3fa" d="M.577 29.865 1.14 59.01c.214 11.309 4.238 11.587 12.69 16.465-4.699-3.273-5.473-8.707-5.915-14.3L7.53 33.88z"/><path fill="#035be8" d="m1.19 30.888.526 28.117c.184 9.208 2.866 10.778 8.766 13.956-2.27-3.248-2.801-7.405-3.149-11.741l-.377-27zM13.83 76.06a.57.57 0 0 1-.284-.08c-1.237-.703-2.354-1.306-3.392-1.871C3.89 70.726.742 69.033.548 59.026L0 29.876a.55.55 0 0 1 .277-.512.6.6 0 0 1 .597-.005l6.954 4.013a.61.61 0 0 1 .301.503l.378 27.293c.426 5.493 1.186 10.707 5.667 13.831a.588.588 0 0 1-.343 1.063z"/><path fill="#035be8" d="m1.02 53.421 6.69 3.913v-.01l-.019-.138a8.3 8.3 0 0 1 .15-1.59l-.313-21.72-6.955-4.012z"/><path fill="#035be8" d="m1.6 53.084 5.553 3.248a8 8 0 0 1 .115-.84L6.955 34.22l-5.767-3.332zm6.095 4.827a.5.5 0 0 1-.278-.075l-6.69-3.913a.59.59 0 0 1-.279-.492L.001 29.874a.55.55 0 0 1 .277-.512.6.6 0 0 1 .597-.005l6.954 4.013a.61.61 0 0 1 .301.503l.293 21.719a8.7 8.7 0 0 0-.129 1.585v.154a.59.59 0 0 1-.301.511.6.6 0 0 1-.297.07z"/></g><defs><clipPath id="a"><path fill="#fff" d="M0 0h57v77.584H0z"/></clipPath></defs></svg>