<svg xmlns="http://www.w3.org/2000/svg" width="65" height="88" fill="none" viewBox="0 0 65 88"><g clip-path="url(#a)"><mask id="b" width="65" height="88" x="0" y="0" maskUnits="userSpaceOnUse" style="mask-type:luminance"><path fill="#fff" d="M65 0H0v88h65z"/></mask><g fill-rule="evenodd" clip-rule="evenodd" mask="url(#b)"><path fill="#035be8" d="m8.836 87.214-7.571-4.35c-.497-.34-.585-.777-.609-1.347V20.183c.05-.627.349-1.012.878-1.314.861-.494 1.73-.995 2.596-1.497.205-.087.286-.125.503-.05l7.565 4.355c-.215-.083-.299-.043-.504.045q-1.383.803-2.767 1.594c-.432.302-.663.694-.706 1.221v50.22l47.86-27.514c.205-.093.286-.133.503-.05l7.567 4.35c-.21-.077-.298-.046-.503.05L12.403 81.051l-4.18-2.405v7.215c.022.577.117 1.007.613 1.347z"/><path fill="#035be8" d="m4.425 17.954-2.574 1.473c-.374.221-.525.428-.553.808v61.28c.021.51.105.66.331.82l5.938 3.408V78.65a.652.652 0 0 1 .978-.56l3.855 2.22 50.24-28.889-6.257-3.596L8.548 75.317a.65.65 0 0 1-.979-.56v-50.22c.06-.77.392-1.342.988-1.755l2.133-1.226-6.262-3.602zm4.406 69.908a.65.65 0 0 1-.326-.088l-7.567-4.35C.153 82.89.03 82.205 0 81.545V20.182c.072-.865.446-1.442 1.198-1.877l2.6-1.49c.341-.159.618-.258 1.054-.1l7.665 4.4a.65.65 0 0 1 .26.837.653.653 0 0 1-.811.33l-2.722 1.594c-.226.164-.353.38-.382.708l.005 49.055 46.886-26.958c.287-.138.58-.268 1.05-.093l7.665 4.4a.64.64 0 0 1 .26.831.64.64 0 0 1-.811.33L12.722 81.618a.64.64 0 0 1-.646 0l-3.209-1.841v6.093c.022.516.1.66.332.82a.64.64 0 0 1 .176.874.64.64 0 0 1-.546.302z"/><path fill="#eff3fa" d="M10.31 87.071c-.579.33-1.099.364-1.478.143-.375-.214-.613-.687-.613-1.347v-61.33c0-.447.315-.995.701-1.221.928-.527 1.849-1.062 2.772-1.594.391-.219.706-.038.706.413v58.921l51.245-29.46c.391-.225.706-.037.706.407v3.183c0 .445-.315.996-.706 1.221z"/><path fill="#035be8" d="m11.753 22.442-2.507 1.435c-.189.109-.377.44-.377.66v61.33c0 .39.105.681.286.79.177.105.492.046.828-.147L63.32 55.847c.188-.11.382-.44.382-.66V52.31l-50.98 29.307a.64.64 0 0 1-.647 0 .64.64 0 0 1-.327-.56V22.441zM9.373 88a1.7 1.7 0 0 1-.867-.226c-.596-.34-.94-1.04-.94-1.907v-61.33c0-.677.442-1.442 1.033-1.782l2.768-1.589c.398-.226.818-.247 1.154-.05.337.193.53.568.53 1.017v57.804l50.271-28.905c.392-.226.811-.243 1.15-.046.337.193.53.561.53 1.012v3.184c0 .677-.442 1.442-1.033 1.781L10.632 87.627c-.432.252-.857.373-1.26.373"/><path fill="#fff" d="M54.254 53.096 12.398 77.16V32.466l41.856-24.06z"/><path fill="#035be8" d="M13.052 32.842V76.04l40.557-23.316v-43.2zm-.652 44.97a.7.7 0 0 1-.32-.089.64.64 0 0 1-.326-.56V32.469c0-.23.122-.44.327-.56L53.936 7.846a.64.64 0 0 1 .646 0 .64.64 0 0 1 .327.56v44.69c0 .23-.122.443-.327.56L12.727 77.72a.7.7 0 0 1-.327.088z"/><path fill="#035be8" d="M40.812 25.366c-.171-.126-.214-.188-.336-.356l-.801-1.419c-.332-.715-.189-1.413.066-2.128.454-1.079 1.033-1.601 1.806-2.485q1.723-1.956 3.435-3.905c2.448-2.794 4.905-5.583 7.35-8.372 1.31-1.49 2.613-2.974 3.922-4.466L53.487.646a3878 3878 0 0 0-5.391 6.138c-2.126 2.414-4.247 4.835-6.372 7.253-1.143 1.304-2.286 2.601-3.43 3.905-.69.787-1.055 1.176-1.403 2.167-.194.66-.282 1.254.021 1.89l.794 1.414c.122.176.165.23.337.364l2.767 1.589zm10.986 1.292-2.767-1.589c-.508-.363-.547-.606-.618-1.2l-.122-3.822 2.768 1.594.121 3.81c.077.601.117.841.618 1.205zm-33.98 40.37L15.05 65.44c-.966-.61-.574-2.029-.198-2.87L25.257 41.1c.542-1.073 1.226-1.952 2.269-2.58l11.028-6.378 4.893-12.769 2.767 1.59-4.892 12.768-11.029 6.386c-1.038.622-1.727 1.501-2.269 2.572L17.617 64.153c-.381.845-.773 2.259.198 2.876z"/><path fill="#035be8" d="m48.976 21.192.083 2.651c.067.485.067.494.354.699l1.109.639-.105-3.157zm2.822 6.11a.7.7 0 0 1-.327-.083l-2.767-1.594c-.761-.54-.85-.983-.94-1.672l-.126-3.882a.66.66 0 0 1 .32-.577.65.65 0 0 1 .65 0l2.768 1.589a.65.65 0 0 1 .331.54l.117 3.817c.067.468.067.49.349.691.281.204.353.59.164.874a.64.64 0 0 1-.541.297zm1.827-25.83 1.618.937L44.49 14.645l-3.805 4.328c-.601.666-1.121 1.243-1.558 2.271-.236.678-.436 1.469-.148 2.333l-.534-.309a.8.8 0 0 1-.165-.17l-.78-1.369c-.21-.435-.148-.857 0-1.401.299-.841.585-1.167 1.281-1.953zm-9.84 18.841-4.623 12.06a.67.67 0 0 1-.282.331l-11.028 6.379c-.828.494-1.47 1.232-2.016 2.309L15.437 62.85c-.117.254-.69 1.634-.038 2.04l1.164.67c.038-.5.189-1.061.458-1.665l10.415-21.487c.669-1.313 1.47-2.22 2.524-2.853l10.836-6.264 4.616-12.044-1.63-.936zM17.818 67.675a.7.7 0 0 1-.325-.084l-2.767-1.593c-1.045-.654-1.21-2.03-.47-3.69l10.416-21.487c.663-1.313 1.462-2.216 2.524-2.853l10.835-6.264 2.259-5.889-2.57-1.473c-.302-.23-.398-.342-.55-.56l-.823-1.457c-.42-.89-.287-1.665-.077-2.387.392-1.112.795-1.573 1.47-2.338L53.003.218a.65.65 0 0 1 .81-.13l2.768 1.594a.64.64 0 0 1 .315.451.61.61 0 0 1-.155.528L41.655 19.829c-.57.631-.979 1.088-1.31 1.881-.215.61-.31 1.112-.076 1.606l.584 1.029 1.994-5.203a.65.65 0 0 1 .387-.38.66.66 0 0 1 .541.05l2.768 1.59a.64.64 0 0 1 .281.79l-4.893 12.769a.63.63 0 0 1-.281.33l-11.03 6.378c-.823.495-1.47 1.233-2.016 2.31L18.207 64.436c-.165.363-.675 1.639-.038 2.045a.647.647 0 0 1 .21.882.66.66 0 0 1-.559.308z"/><path fill="#eff3fa" d="m17.618 64.154 10.406-21.463a7 7 0 0 1 1.005-1.523 5 5 0 0 1 1.264-1.05l11.029-6.385 4.892-12.769-3.137 3.576c-.961 1.095-2.125 1.304-2.6.472l-.802-1.418c-.462-.831-.066-2.404.895-3.5C45.8 14.145 51.03 8.19 56.255 2.239c.21 6.573.413 13.144.618 19.71.038 1.209-.801 2.734-1.873 3.392l-1.81 1.116c-1.071.66-1.978.21-2.011-.995l-.122-3.817-5.728 14.854a7 7 0 0 1-.978 1.623c-.425.517-.911.945-1.403 1.225l-11.271 6.516-9.55 19.71c-.651 1.347-1.877 2.233-2.729 1.97l-1.436-.452c-.845-.263-1-1.584-.349-2.936z"/><path fill="#035be8" d="M18.202 64.441c-.408.837-.392 1.497-.256 1.81.077.181.177.214.21.226l1.441.451c.43.134 1.37-.45 1.944-1.634l9.55-19.705a.62.62 0 0 1 .26-.28l11.272-6.524c.424-.242.852-.615 1.226-1.078a6.3 6.3 0 0 0 .883-1.468l5.715-14.826a.65.65 0 0 1 .719-.406.65.65 0 0 1 .541.615l.117 3.817c.012.319.105.556.248.637.165.088.463.021.773-.17l1.81-1.117c.869-.535 1.597-1.849 1.568-2.823l-.568-18.07-14.602 16.619c-.823.94-1.11 2.233-.811 2.76l.802 1.414c.06.116.143.164.252.176.282.028.795-.193 1.293-.76l3.137-3.569a.65.65 0 0 1 .824-.13c.269.164.386.494.269.786l-4.893 12.769a.63.63 0 0 1-.281.33l-11.029 6.378a4.6 4.6 0 0 0-1.1.92 6.6 6.6 0 0 0-.916 1.38l-10.398 21.47zm1.524 3.794c-.177 0-.353-.021-.52-.076l-1.436-.451c-.453-.143-.811-.478-1.017-.941-.331-.765-.226-1.848.277-2.886l10.404-21.47a7.5 7.5 0 0 1 1.104-1.668 5.6 5.6 0 0 1 1.432-1.193l10.825-6.257 3.524-9.184-.751.853c-.735.836-1.608 1.27-2.403 1.192a1.6 1.6 0 0 1-1.255-.83l-.794-1.414c-.613-1.072-.188-2.936.966-4.245L55.767 1.808a.65.65 0 0 1 .702-.181.66.66 0 0 1 .436.59l.618 19.714c.045 1.435-.911 3.174-2.18 3.96l-1.81 1.116c-.73.447-1.487.523-2.072.21-.567-.31-.906-.934-.932-1.732l-.017-.616-4.573 11.862a7.6 7.6 0 0 1-1.083 1.793c-.475.584-1.021 1.062-1.58 1.385l-11.1 6.419-9.46 19.522c-.702 1.452-1.912 2.388-2.988 2.388z"/></g></g><defs><clipPath id="a"><path fill="#fff" d="M0 0h65v88H0z"/></clipPath></defs></svg>