<svg xmlns="http://www.w3.org/2000/svg" width="142" height="142" fill="none" viewBox="0 0 142 142"><g fill="#b78a2d" clip-path="url(#a)"><path d="M71 0C31.773 0 0 31.773 0 71s31.773 71 71 71 71-31.773 71-71S110.227 0 71 0m0 141.053C32.305 141.053.947 109.695.947 71S32.305.947 71 .947 141.053 32.305 141.053 71 109.695 141.053 71 141.053"/><path d="m132.475 55.972-1.479 2.84c.177.236.296.591.473 1.479l.296 1.834c.118 1.834.237 1.42-.888 2.9-.769 1.005-1.597 1.892-2.248 2.957-.71 1.066-.947 1.125-.947 3.136v.119c-.118 17.217-8.165 33.902-22.305 44.73a57.16 57.16 0 0 1-34.495 12.011c-12.543-.119-24.613-4.379-34.435-11.952v-.059c-6.449-4.911-11.951-11.301-15.975-18.993s-6.035-15.916-6.33-24.022c.059-.591 0-1.124.059-1.775.059-1.952.118-1.597-1.006-3.135l-.473-.592-2.308 2.248c.118.296.296.592.237 1.48v1.478a59.5 59.5 0 0 0 6.745 25.916c4.615 8.816 11.064 16.034 18.696 21.418v.059a60.77 60.77 0 0 0 34.79 11.36 60.77 60.77 0 0 0 34.79-11.36v-.059c15.739-11.064 24.85-28.814 25.442-47.274 0-.473.059-1.124.059-1.598.059-1.834.178-1.42 1.124-2.84.71-1.006 1.48-2.011 2.249-3.017 1.124-1.538 1.361-1.183 1.006-3.077-.355-2.13-.237-1.538-.533-3.313-.355-1.953-.355-1.42-1.952-2.544-.178-.06-.355-.178-.592-.355"/><path d="M44.847 126.617c-1.006-.474-2.071-.947-3.077-1.479l-.888 1.538c-11.833-7.633-19.82-16.508-25.56-27.513-4.674-8.993-6.685-17.158-6.922-26.21-.06-2.959.059-2.485 2.189-4.556.887-.829 1.775-1.716 2.662-2.544 1.42-1.361 1.125-2.071 1.48-4.024v-.059c.355-1.893.65-2.13-.178-3.846l-.355-.65-2.722 1.774c0 .296-.118.651-.236 1.598-.119.77-.119 1.006-.296 1.657-.296 1.775 0 1.42-1.302 2.721l-2.011 2.012c-1.361 1.36-2.426 1.834-2.544 3.727 0 .296-.06.71-.06 1.125v1.005c.237 9.645 2.19 18.046 7.337 27.927 6.094 11.715 18.164 24.199 30.47 29.879l1.48-3.136zm-.769 5.147 1.953.828.828-1.893-1.953-.828zm1.184-2.781 1.952.829.829-1.953-1.953-.828zm45.028.592.71 1.893c-4.26 1.302-8.934 2.189-13.372 2.663l-.177-1.834c-1.124.118-2.249.177-3.373.236l.355 4.438h.296a69 69 0 0 0 16.626-2.959l.118-.059c1.065-.355 2.071-.651 3.136-1.065l.296-.118-1.361-4.319c-1.124.414-2.19.769-3.254 1.124m-24.793 4.674a73 73 0 0 1-13.253-2.663l.414-1.952c-1.065-.355-2.13-.71-3.195-1.124l-.355 1.065-1.065 3.313a66.4 66.4 0 0 0 16.863 3.846h.177c1.183.118 2.367.177 3.55.237v-.119l.296-4.319c-1.124-.059-2.249-.118-3.373-.237zm7.102-1.716h-2.13v2.071h2.13zm24.729-5.916c1.006-.474 2.071-.947 3.077-1.479l.591 1.538c11.834-7.633 20.117-16.271 25.856-27.276 4.674-8.993 6.686-17.454 6.923-26.447 0-1.42-.059-2.604-1.184-3.669l1.894-2.426c1.242 1.184 2.485 2.012 2.662 3.846 0 .296.059.71.059 1.124v1.006c-.236 9.644-2.189 18.046-7.336 27.927-6.094 11.715-18.164 24.199-30.471 29.879l-1.48-3.136zm.945 5.147-1.893.828-.888-1.893 1.953-.828zm-1.121-2.781-1.953.829-.828-1.953 1.953-.828z"/><path d="M70.997 1.479c-38.399 0-69.52 31.122-69.52 69.52 0 38.4 31.121 69.522 69.52 69.522S140.518 109.399 140.518 71 109.397 1.479 70.998 1.479m0 137.444c-37.511 0-67.923-30.411-67.923-67.923S33.486 3.077 70.997 3.077 138.921 33.488 138.921 71s-30.412 67.923-67.924 67.923"/><path d="M71.001 34.553c-20.116 0-36.446 16.33-36.446 36.447S50.944 107.447 71 107.447c20.058 0 36.447-16.39 36.447-36.447.059-20.117-16.33-36.447-36.447-36.447m0 71.414c-19.288 0-34.967-15.679-34.967-34.967S51.713 36.032 71 36.032c19.289 0 34.968 15.68 34.968 34.968S90.288 105.967 71 105.967M13.254 44.493l2.899-1.302c0-.355.177-.65.532-1.479l.888-1.597c1.065-1.538.71-1.243 2.485-1.716 1.183-.296 2.426-.532 3.609-.888 1.242-.414 1.36-.355 2.603-1.893l.06-.059.059.06c1.479-1.54 2.425-2.13 2.544-4.32l.059-.77-3.195.238c-.237.65-1.657 1.893-2.13 2.662-1.006 1.538-.947 1.065-2.544 1.597-1.184.355-2.426.651-3.61.947-1.834.474-1.774.06-2.721 1.775-1.065 1.894-.77 1.361-1.657 2.959-.946 1.774-.65 1.36 0 3.194-.059.178 0 .415.119.592"/><path d="m18.756 34.79 3.076-.71c.06-.828 1.538-2.308 2.19-2.9 1.301-1.36.887-1.123 2.78-1.242 1.243-.059 2.485-.177 3.669-.236 1.952-.119 2.189-.829 3.727-2.13l.06-.06c1.478-1.242 1.892-1.183 2.307-3.076l.177-.71-3.195-.415c-.177.237-.532.415-1.183 1.066-.533.532-.77.65-1.243 1.065-1.42 1.183-.946 1.064-2.78 1.183-1.243.118-2.486.177-3.728.296-1.893.177-1.42-.355-2.78 1.006-.77.769-1.776 2.011-2.427 2.899-1.301 1.538-.946 1.242-.65 3.195z"/><path d="m26.035 26.21 3.195-.236c.119-.296.355-.532 1.006-1.183l1.42-1.183c1.48-1.065 1.065-.947 2.958-.77 1.243.119 2.426.355 3.669.415 1.301.059 1.42.118 3.017-.829 1.953-.946 3.018-1.183 3.905-3.136l.296-.71-3.077-.887c-.355.414-2.189 1.242-2.78 1.657-1.48 1.065-1.243.71-2.959.591-1.242-.059-2.485-.236-3.727-.355-1.894-.177-1.716-.532-3.136.71-1.657 1.42-1.183 1.006-2.544 2.19-1.48 1.301-1.065 1.064-1.124 3.017-.119.177-.119.414-.119.71m84.136-2.721 1.42 1.183c1.302 1.301 1.124.946 1.184 2.78.059 1.243 0 2.485.177 3.728.118 1.302.059 1.42 1.361 2.958.414.473.71.947 1.124 1.361 1.183 1.538.71 1.36 2.544 1.834l.769.178.415-3.195c-.474-.296-1.598-1.775-2.13-2.367-1.302-1.302-.888-1.124-1.065-2.84-.119-1.242-.119-2.485-.178-3.727-.118-1.894.296-1.775-1.183-3.018-1.657-1.42-1.124-1.006-2.544-2.19-1.539-1.3-1.184-.887-3.136-.65-.237 0-.474.06-.71.06l.71 3.135c.236 0 .532.237 1.242.77"/><path d="M101.175 17.218c.71.355 1.065.532 1.716 1.005 1.538 1.065 1.242.71 1.656 2.544.237 1.184.533 2.426.769 3.61.415 1.952 1.125 2.07 2.663 3.372l.059.06c1.42 1.242 1.479 1.656 3.373 1.833l.71.06-.119-3.254c-.296-.178-.473-.415-1.242-1.006-.592-.474-.769-.651-1.243-1.065-1.361-1.243-1.183-.77-1.597-2.544-.296-1.243-.592-2.426-.829-3.669-.414-1.893.178-1.479-1.42-2.603-.946-.651-2.307-1.302-3.313-1.953-1.775-1.006-1.361-.71-3.254-.118l-.65.237 1.183 2.899c.295 0 .591.177 1.538.591M69.817 9.348h1.835c1.834.178 1.42 0 2.721 1.36.829.888 1.657 1.835 2.544 2.723.947.887 1.006 1.065 2.959 1.36h.059v.06c.592.177 1.242.236 1.834.355 1.893.414 1.42.591 3.136-.296l.71-.355-1.775-2.663c-.65.119-2.485-.473-3.373-.591-1.834-.178-1.42-.296-2.662-1.48-.888-.828-1.716-1.775-2.603-2.662-1.361-1.36-.947-1.538-2.84-1.538h-3.373c-2.012.059-1.48.118-2.84 1.538-.177.177-.296.355-.473.532l2.544 1.894c.296-.119.65-.119 1.597-.237"/><path d="M82.537 10.532c1.775.473 1.42.236 2.426 1.774.65 1.006 1.36 2.071 2.012 3.077 1.065 1.657 1.775 1.48 3.668 2.19h.06c1.833.65 1.952 1.064 3.786.532l.71-.237-1.243-3.017c-.296-.06-.65-.237-1.538-.533-.71-.236-.947-.355-1.538-.591-1.716-.651-1.361-.296-2.426-1.835a93 93 0 0 1-2.071-3.076c-1.065-1.598-.355-1.42-2.248-1.894-1.125-.296-2.604-.532-3.728-.71-2.011-.355-1.538-.177-3.136 1.006l-.591.414 1.952 2.19c1.361.236 3.136.473 3.905.71m-23.427 0c.65-.178 1.064-.296 1.774-.355 1.834-.178 1.42-.296 2.9.828 1.005.71 1.952 1.48 2.958 2.19 1.597 1.183 2.189.769 4.2.828h.06c1.952 0 2.189.296 3.727-.829l.592-.414-2.19-2.366c-.295.059-.65 0-1.597.059-.769.059-1.006 0-1.656 0-1.835 0-1.42.177-2.9-.888-1.005-.71-2.011-1.479-3.017-2.189-1.538-1.124-.828-1.242-2.78-1.065-1.243.118-2.308.473-3.55.71-2.013.355-1.54.355-2.604 2.012l-.355.591 2.78 1.42c.297-.177.651-.295 1.657-.532"/><path d="M50.411 12.898c1.775-.473 1.361-.532 3.018.355 1.124.533 2.189 1.184 3.313 1.657 1.183.533 1.302.65 3.254.237.592-.119 1.183-.178 1.775-.296 1.893-.296 1.538.059 2.84-1.361l.533-.592-2.604-1.893c-.355.237-2.307.473-2.899.592v.059c-.059 0-.177.059-.236.059-1.776.473-1.42.178-2.959-.473-1.124-.474-2.248-1.065-3.372-1.657-1.716-.828-1.42-1.124-3.195-.414-2.012.769-1.48.532-3.195 1.183-1.834.71-1.361.592-2.13 2.426-.119.237-.178.473-.296.65l3.076.888c.415-.473 2.367-1.124 3.077-1.42m40.825-.058 1.716.65c1.716.77 1.361.473 2.071 2.19.473 1.124.888 2.307 1.48 3.431.59 1.183.59 1.302 2.307 2.248.532.296 1.124.651 1.656 1.006 1.598 1.065 1.125 1.065 3.018.829l.769-.06-.71-3.136c-.473-.059-2.189-1.242-2.958-1.656-1.657-.77-1.243-.77-2.012-2.248-.532-1.125-1.006-2.308-1.538-3.432-.77-1.775-.355-1.775-2.19-2.426-2.07-.71-1.42-.533-3.195-1.124-1.893-.651-1.42-.414-3.195.473-.236.118-.414.237-.65.355l1.775 2.663c.473-.119.769 0 1.656.236"/><path d="M38.933 18.282c.592-.414 1.006-.591 1.657-.887 1.656-.77 1.242-.71 3.017-.178l3.55 1.065c1.894.592 2.367 0 4.201-.65h.06c1.833-.651 2.188-.474 3.253-2.071l.415-.592-2.9-1.48c-.295.178-.65.237-1.479.592-.71.296-.947.355-1.538.592-1.716.592-1.243.65-3.018.178a82 82 0 0 0-3.609-1.006c-1.834-.533-1.183-.888-2.958-.06-.947.474-2.248 1.302-3.195 1.835-1.716 1.006-1.302.887-1.716 2.78l-.118.533 3.136.355c.118-.296.354-.473 1.242-1.006M9.527 54.966l2.603-1.716c-.059-.296 0-.65.296-1.598.178-.65.237-1.065.533-1.715.769-1.716.473-1.361 2.189-2.13 1.124-.474 2.248-1.006 3.372-1.48 1.775-.828 1.775-1.538 2.781-3.254l.06-.059c.946-1.657 1.36-1.775 1.124-3.668l-.119-.71-3.136.71c-.118.296-.355.591-.769 1.42-.355.65-.473.887-.828 1.42-.947 1.597-.533 1.301-2.19 2.07-1.123.533-2.248 1.066-3.372 1.539-1.775.828-1.479.118-2.248 1.893-.473 1.124-.71 2.249-1.124 3.432-.651 1.893-.414 1.48.473 3.254zm114.607-15.087.888 1.597c.769 1.716.71 1.242.177 3.017-.355 1.184-.828 2.308-1.124 3.55-.296 1.302-.414 1.361.296 3.196v.059h-.059c.532 2.07.591 3.195 2.366 4.437l.651.414 1.479-2.84c-.414-.532-.769-2.425-1.124-3.195-.769-1.656-.414-1.36 0-3.017.296-1.184.71-2.367 1.065-3.61.533-1.834.888-1.538-.059-3.254-1.065-1.893-.71-1.36-1.657-2.958-1.006-1.716-.828-1.242-2.721-1.716l-.71-.177-.414 3.195c.236.236.414.592.946 1.302"/><path d="M127.98 48.221c.651.473 1.124 2.544 1.361 3.373.473 1.774.473 1.36-.355 3.017-.592 1.065-1.124 2.19-1.716 3.313-.887 1.775-.414 2.308-.118 4.26v.06c.296 1.893.059 2.248 1.42 3.55l.532.532 2.012-2.544c-.118-.296-.118-.651-.296-1.538-.177-.77-.177-1.006-.237-1.657-.236-1.775-.414-1.361.415-2.959.591-1.124 1.124-2.248 1.715-3.313.888-1.716 1.065-1.006.592-2.899-.296-1.065-.828-2.544-1.183-3.61-.651-1.892-.592-1.42-2.367-2.247l-.651-.296zm-11.421-21.359.059 3.136c.296.118.532.355 1.242 1.124.474.473.769.769 1.184 1.36 1.065 1.539.946 1.125.65 2.959-.177 1.242-.355 2.426-.473 3.668-.237 1.953.355 2.308 1.302 4.024l.059.059c.947 1.716.769 2.07 2.544 2.899l.651.296 1.006-3.077c-.178-.236-.296-.592-.829-1.36-.414-.652-.532-.888-.828-1.42-.887-1.598-.828-1.125-.651-2.959.178-1.242.296-2.485.474-3.727.236-1.894.65-1.302-.415-2.9-.71-1.005-1.538-1.775-2.307-2.721-1.302-1.598-1.065-1.184-3.018-1.302zM7.691 65.97 10 63.723c-.119-.295-.06-.65 0-1.597l.296-1.834c.473-1.775.236-1.42 1.775-2.485 1.005-.71 2.07-1.302 3.076-2.071 1.006-.828 1.184-.828 1.775-2.663.651-1.952 1.42-2.78.77-4.851l-.237-.77-2.959 1.302c0 .178-.769 2.663-.887 3.077-.414 1.775-.533 1.36-1.893 2.367-1.006.769-2.071 1.42-3.077 2.13-1.598 1.065-1.657.65-1.953 2.603-.355 2.13-.295 1.538-.532 3.313-.296 1.953-.118 1.48 1.065 3.018.177.355.296.532.473.71m63.31-48.814C41.24 17.158 17.16 41.298 17.16 71c0 29.761 24.14 53.842 53.842 53.842 29.761 0 53.841-24.14 53.841-53.842 0-29.761-24.08-53.842-53.841-53.842m0 106.441c-29.051 0-52.6-23.548-52.6-52.6 0-29.05 23.549-52.598 52.6-52.598S123.6 41.949 123.6 71s-23.548 52.599-52.6 52.599"/><path d="m115.731 86.147-1.065 2.662a2.1 2.1 0 0 1-.473.71c-.355.355-.828.592-1.42.65a2.1 2.1 0 0 1-.828-.177l-3.077-1.242c2.367-6.035 4.26-10.473 4.142-17.336h-.296c-.296 0-.533-.06-.829-.177-.532-.178-.946-.592-1.183-1.125a1.8 1.8 0 0 1-.177-.769l-.06-1.302 1.657-.059.059 1.302c0 .118.059.237.119.296a.45.45 0 0 0 .295.118h.296l-.118-3.668 3.313-.06c.296 0 .592.06.829.178.236.118.532.296.71.474.236.177.355.414.473.65s.177.533.237.77v1.124c0 .296-.06.532-.178.828-.059.237-.237.473-.414.71-.178.237-.414.355-.71.473-.237.119-.533.178-.769.237l-1.657.06c.059 3.076-.355 4.792-.947 8.164l1.184.237h.236a.4.4 0 0 0 .237-.355l.828-4.674 2.604.473c.236.06.532.177.769.355.237.118.414.296.592.532.177.237.295.533.355.77.059.236.059.532 0 .828l-1.243 6.035-1.657-.296 1.243-6.035v-.236c0-.06-.059-.119-.118-.178-.06-.06-.119-.118-.178-.118l-.947-.178-.532 3.077c-.059.296-.178.532-.296.769s-.296.414-.532.592c-.237.118-.533.236-.77.355a1.95 1.95 0 0 1-.828 0l-1.183-.237c-.71 2.662-1.539 4.497-2.367 6.686l1.538.591c.06 0 .119.06.178 0 .059-.059.177-.059.237-.118.059-.059.118-.118.118-.177l1.302-3.314zm.355-23.312-.236-1.48c0-.177-.119-.295-.237-.413h-.237l-1.656.295.355 1.953zm-12.602-24.791-1.124-1.065c-.06-.06-.119-.06-.178-.118-.177-.06-.296 0-.414.118l-1.124 1.183 1.42 1.361zm1.065 7.04c-2.308-2.958-3.254-3.904-6.331-6.803l2.307-2.426c.178-.178.415-.355.651-.473.296-.119.533-.178.829-.178s.532.06.769.178c.296.118.532.236.71.414l2.307 2.189-2.603 2.721c1.124 1.066 1.538 1.894 2.485 3.136l.177.237.06.06 1.538 2.13 1.242 1.952.178.296 1.065 2.07h.059l1.065 2.367.118.296v.059c.71 1.834 1.716 4.615 2.19 6.272l1.656-.296c.296-.06.533-.06.829 0 .295.059.532.177.769.355.236.177.414.355.532.591.178.237.296.533.355.829l.592 3.136-5.384.946c-.769-4.26-1.006-5.561-2.249-9.23l-.828-2.011-1.006-2.249-1.242-2.366-1.539-2.426zm1.716-8.164-1.065-1.006 1.065-1.065 1.065 1.006zm-1.48-1.361-1.065-1.006 1.065-1.065 1.065 1.006zm-9.289.592-1.36-.947 4.614-6.508 1.361.946zm-6.271-7.87-1.065-.473c-.06 0-.119-.059-.237-.059-.178 0-.237.118-.355.296l-.71 1.538 1.834.829.71-1.539c.06-.177.06-.296 0-.414q-.09-.177-.177-.177m4.2 6.39c-1.301-.769-2.485-1.538-3.786-2.13l-.119.237a1.85 1.85 0 0 1-.532.651 1.79 1.79 0 0 1-1.48.532c-.236 0-.532-.059-.768-.177l-1.184-.532.71-1.48 1.184.533q.177.088.355 0a.46.46 0 0 0 .236-.237l.119-.236-3.373-1.539 1.36-3.017c.178-.296.356-.474.533-.651.237-.178.474-.355.71-.474.296-.118.533-.118.77-.118.295 0 .532.06.828.178l1.065.473c.237.118.473.296.65.532.178.178.356.415.415.71.118.296.118.533.118.829s-.059.532-.177.828l-.71 1.539c1.124.473 1.479.769 2.485 1.36l3.136-5.443 1.479.828zm-41.712-8.105 2.307-.888c.237-.118.533-.118.829-.118.473 0 1.006.177 1.479.591.177.178.355.415.414.71l.592 1.539c7.396-2.9 17.631-2.13 25.205-.355l.355-1.598v-.177a.45.45 0 0 1-.119-.237c-.059-.059-.118-.059-.236-.118l-3.432-.77 1.006-1.479 2.78.651c.297.06.533.178.77.355.414.296.71.71.887 1.302.06.296 0 .532-.059.828l-.769 3.255c-12.247-2.84-18.874-2.84-30.59 1.774l-.59-1.538 3.194-1.242-.591-1.539c-.06-.118-.178-.177-.355-.296-.06 0-.119 0-.237.06l-2.308.887zm.71 5.561-4.615 2.663-1.657-2.9c-.118-.236-.236-.532-.236-.768-.119-.592 0-1.125.414-1.539.177-.236.355-.414.591-.591l2.781-1.598zm-3.313-2.426-1.361.77c-.178.059-.237.177-.237.355 0 .059 0 .177.06.236l.828 1.42 1.775-1.005zm-.474-2.899-1.242.71-.77-1.301 1.302-.77zm-1.716.947-1.242.71-.77-1.242 1.243-.71zm-1.952 9.052-1.302 1.006-4.97-6.271 1.302-1.006zm-2.012 1.539c-1.42 1.36-3.905 3.49-4.91 4.91l.236.178c.237.178.414.355.533.651.295.473.414 1.006.236 1.597a2 2 0 0 1-.355.71l-.769 1.066-1.242-1.006.769-1.065c.059-.119.118-.237.059-.296 0-.118-.06-.178-.178-.296l-.236-.178-2.19 3.018-2.721-1.893c-.237-.237-.414-.414-.533-.592a4 4 0 0 1-.295-.77c0-.354 0-.59.059-.828.059-.295.118-.532.296-.769l.65-.946c.178-.237.355-.415.592-.533.237-.177.473-.236.77-.296.295-.059.59-.059.828.06.295.059.532.118.769.295l1.36.947c.888-1.242 2.604-2.78 3.846-3.964l-4.319-4.615 1.243-1.184zm-9.17 4.496-.651.888c-.06.06-.06.118-.119.237q0 .266.178.355l1.36.946 1.184-1.597-1.36-.947a.36.36 0 0 0-.415-.059zm-3.846 5.858-1.006 2.248c0 .06-.06.119-.06.178s.06.177.119.236l1.42 1.302 1.597-3.49-1.479-.651a.38.38 0 0 0-.355 0c-.118 0-.177.059-.236.177m-6.45 9.052-.355 1.42-1.479-.354.355-1.42zm7.633 7.1-.118 1.48-1.48-.119.119-1.479zm-.118 1.835-.119 1.479-1.479-.118.118-1.48zm1.42 22.069-3.077 1.242a1.89 1.89 0 0 1-1.598 0c-.236-.118-.473-.236-.65-.473-.237-.178-.355-.414-.474-.71l-1.183-2.958 3.55-1.361c-1.598-4.023-2.663-13.135-2.308-17.513l-3.49-.296.118-1.716 3.49.296c.592-2.012.71-2.959 1.125-4.911l-3.668-.828.355-1.657 3.668.828c.355-1.657.71-2.78 1.42-4.319l-5.798-2.603.71-1.539 2.721 1.243v-.296c0-.296 0-.592.178-.888l1.006-2.248c.118-.236.295-.473.473-.71.473-.355.947-.532 1.48-.532.295 0 .59.059.827.177l3.018 1.361c-7.1 15.443-8.106 24.673-1.893 40.41m-4.793-2.012.592 1.42c0 .06.059.118.118.178.118.118.296.177.414.059l1.539-.592-.71-1.834zm-3.017-.118.532 1.36-1.42.533-.532-1.36zm.71 1.834.532 1.36-1.42.533-.532-1.36zm91.353-19.23v-1.123c0-.06 0-.119-.059-.237s-.237-.178-.414-.178l-1.657.06.059 2.011 1.657-.059q.266 0 .355-.177c.059-.119.059-.178.059-.296M91.71 107.447l.887-.592c.236-.118.473-.237.769-.296.237-.059.473-.059.77 0 .295.059.532.178.768.355.237.119.414.355.533.592l1.952 2.958c.178.237.237.474.296.769.06.592-.06 1.125-.355 1.539-.118.236-.355.414-.592.532l-1.065.71-.887-1.361 1.065-.71a.63.63 0 0 0 .177-.295c.06-.119.06-.178-.059-.296l-.177-.237-2.9 1.893-1.774-2.721c-.178-.237-.237-.474-.296-.769a1.7 1.7 0 0 1 0-.77 2 2 0 0 1 .296-.71c.177-.236.355-.473.591-.591m1.833.769-.887.592c-.118.118-.237.236-.237.355 0 .059 0 .177.06.236l.887 1.361 1.657-1.065-.888-1.361-.177-.177c-.178-.059-.296 0-.415.059m1.42-2.84 1.835-1.598c.177-.177.473-.295.769-.414.532-.177 1.006-.177 1.479.119.296.118.473.295.65.473l2.131 2.485-3.787 3.195-1.065-1.243 2.544-2.189-1.065-1.242c-.059-.059-.177-.119-.414-.119-.06 0-.118.06-.178.119l-1.834 1.597zm-18.462 9.17-1.539.178c-.059 0-.118.059-.177.059-.119.059-.178.237-.178.414l.178 1.598 1.952-.237zm1.834 1.835c3.136-.415 8.697-2.367 11.478-3.787l-2.78-5.503 1.479-.769 3.55 6.982c-7.16 3.609-11.006 4.319-18.638 5.266l-.414-3.195c-.06-.296 0-.533.059-.769.06-.296.237-.533.355-.77a1.5 1.5 0 0 1 .592-.473c.236-.177.532-.237.769-.296l3.136-.355zm-1.221-6.112-1.41.173.18 1.468 1.41-.173zm-1.891.228-1.41.173.181 1.468 1.41-.173zm-14.219 9.552-1.42-.296.355-1.42 1.42.296zm-1.775-.414-1.42-.355.355-1.42 1.42.355zm-6.035-1.598-1.361-.532.532-1.361 1.361.533zm-5.562-2.84-1.242-.71.769-1.301 1.242.71zm-1.598-.887-1.242-.71.77-1.302 1.242.71zm23.963 4.319c-12.78-.355-21.655-4.437-30.648-12.247l5.147-5.917 1.243 1.065-4.083 4.674c1.775 1.538 3.905 3.136 5.917 4.319l1.834-3.136 1.42.829-1.834 3.136c1.42.828 2.84 1.538 4.378 2.13l1.361-3.432 1.538.592-1.36 3.431c1.479.592 3.076 1.124 4.674 1.479l.828-3.55 1.597.355-.828 3.55c2.426.592 4.674.829 7.16.947l.177-6.153 1.657.059z"/><path fill-rule="evenodd" d="m32.425 96.028 2.011-1.42c.237-.178.533-.119.651.118l1.42 2.012c.178.236.119.532-.118.65l-2.012 1.42c-.236.178-.532.119-.65-.118l-1.42-2.012c-.178-.177-.119-.473.118-.65m76.737 0-2.011-1.42c-.237-.178-.533-.119-.651.118l-1.42 2.012c-.178.236-.119.532.118.65l2.012 1.42c.236.178.532.119.651-.118l1.42-2.012a.48.48 0 0 0-.119-.65" clip-rule="evenodd"/><path d="m84.845 62.007 3.846 5.68 6.686-2.19-4.2 5.444 4.14 5.68-6.448-2.307-4.142 5.68.237-6.864-6.745-2.189 6.567-1.893z"/><path d="M70.41 87.685c-9.23 0-16.685-7.455-16.685-16.685S61.18 54.315 70.41 54.315c5.088 0 9.644 2.308 12.72 5.917-3.55-5.444-9.702-9.053-16.684-9.053C55.5 51.18 46.625 60.054 46.625 71s8.875 19.82 19.82 19.82c6.983 0 13.136-3.608 16.686-9.052-3.077 3.61-7.633 5.917-12.721 5.917"/></g><defs><clipPath id="a"><path fill="#fff" d="M0 0h142v142H0z"/></clipPath></defs></svg>