<svg xmlns="http://www.w3.org/2000/svg" width="72" height="73" fill="none" viewBox="0 0 72 73"><mask id="a" width="72" height="73" x="0" y="0" maskUnits="userSpaceOnUse" style="mask-type:luminance"><path fill="#fff" d="M72 0H0v73h72z"/></mask><g fill-rule="evenodd" clip-rule="evenodd" mask="url(#a)"><path fill="#1b69ff" d="M32.624 5.361C16.141 15.065 2.971 36.268 1.339 55.774c-.237 2.78-.724 8.564 1.566 10.769a56 56 0 0 0 5.386 3.255 8.7 8.7 0 0 1-.724-3.01c-1.335-16.129 7.742-34.59 17.32-45.736C32.988 11.622 45.515 2.62 56.82 4.504L54.478 3.16C48.542-.175 41.181.567 32.625 5.361zM10.756 72.375a.6.6 0 0 1-.284-.072 71 71 0 0 0-1.303-.74c-3.185-1.78-6.342-3.57-7.033-4.22C-.552 64.766-.045 58.859.22 55.679 1.9 35.84 15.274 14.273 32.06 4.403v-.008C40.99-.603 48.731-1.343 55.024 2.2l7.411 4.259a.54.54 0 0 1 .203.753.557.557 0 0 1-.752.212C49.937.867 34.946 11.056 25.732 21.773 16.295 32.739 7.366 50.886 8.681 66.698c.19 2.29.914 3.726 2.37 4.654a.555.555 0 0 1-.297 1.022z"/><path fill="#1b69ff" d="M39.736 9.137c8.76-5.026 16.69-5.497 22.422-2.195 5.745 3.302 9.294 10.377 9.294 20.444 0 .986-.047 2.045-.114 3.062a19.6 19.6 0 0 1-2.953 8.611 18.3 18.3 0 0 1-6.213 6.373l-9.938 5.705a38.8 38.8 0 0 1-4.884 7.485 28.9 28.9 0 0 1-7.629 6.623 14.1 14.1 0 0 1-7.627 2.143 7.9 7.9 0 0 1-4.87-1.889l-9.938 5.706c-2.4 1.369-4.585 1.577-6.232.782-1.647-.796-2.731-2.605-2.934-5.239a46 46 0 0 1-.114-2.938c.019-10.067 3.567-21.221 9.313-31.114 5.733-9.898 13.671-18.532 22.417-23.559"/><path fill="#1b69ff" d="M53.882 5.372c-4.236 0-8.95 1.427-13.862 4.244-8.385 4.815-16.28 13.11-22.232 23.356-5.937 10.24-9.214 21.192-9.214 30.836 0 .918.033 1.917.109 2.897.175 2.345 1.097 4.046 2.606 4.781 1.538.74 3.564.47 5.712-.763l9.938-5.704a.565.565 0 0 1 .652.06 7.34 7.34 0 0 0 4.533 1.758 13.7 13.7 0 0 0 7.316-2.072 28.4 28.4 0 0 0 7.492-6.497 38.6 38.6 0 0 0 4.802-7.376.56.56 0 0 1 .217-.236l9.938-5.704a17.9 17.9 0 0 0 6.029-6.18 18.8 18.8 0 0 0 2.858-8.36c.08-1.036.109-2.082.109-3.027 0-9.53-3.186-16.619-8.997-19.967a15.87 15.87 0 0 0-8.006-2.046M13.174 73.003a5.34 5.34 0 0 1-2.37-.522c-1.883-.914-3.03-2.94-3.238-5.693a42 42 0 0 1-.109-2.977c0-9.832 3.33-20.981 9.374-31.392s14.084-18.847 22.64-23.76c8.637-4.966 16.8-5.748 22.966-2.196s9.564 10.986 9.564 20.924c0 .975-.033 2.045-.114 3.1a20.3 20.3 0 0 1-3.01 8.863 19.05 19.05 0 0 1-6.443 6.567l-9.773 5.62a39 39 0 0 1-4.884 7.448 29.6 29.6 0 0 1-7.775 6.745 14.93 14.93 0 0 1-7.941 2.22 8.6 8.6 0 0 1-4.898-1.777l-9.607 5.517a8.9 8.9 0 0 1-4.381 1.313z"/><path fill="#fff" d="M58.2 13.769c-4.727-2.718-11.258-2.331-18.465 1.809S25.997 26.826 21.274 34.97s-7.647 17.326-7.647 25.617c0 .857.014 1.625.08 2.445a2.31 2.31 0 0 0 1.127 2.04 2.64 2.64 0 0 0 2.451-.32l11.353-6.52v.015c.909-.523 1.803-.523 2.338.113a5.14 5.14 0 0 0 3.786 1.85 9.2 9.2 0 0 0 4.959-1.417 18.7 18.7 0 0 0 4.96-4.277 25.5 25.5 0 0 0 3.677-5.936 6.1 6.1 0 0 1 2.447-3.075l11.365-6.52a7.2 7.2 0 0 0 2.432-2.487 7.56 7.56 0 0 0 1.145-3.35c.066-.89.08-1.686.08-2.543.017-8.291-2.904-14.119-7.627-16.836"/><path fill="#1b69ff" d="M51.387 12.582c-3.469 0-7.35 1.168-11.366 3.476-6.89 3.957-13.378 10.773-18.257 19.192-4.878 8.418-7.586 17.414-7.586 25.338 0 .843.033 1.596.08 2.402a1.79 1.79 0 0 0 .833 1.586 2.1 2.1 0 0 0 1.912-.302l11.353-6.52a1 1 0 0 1 .109-.042c1.145-.617 2.262-.509 2.952.297a4.55 4.55 0 0 0 3.374 1.647 8.6 8.6 0 0 0 4.647-1.347 18.3 18.3 0 0 0 4.822-4.15 25 25 0 0 0 3.592-5.803 6.6 6.6 0 0 1 2.688-3.336l11.348-6.519a6.7 6.7 0 0 0 2.244-2.294 7 7 0 0 0 1.05-3.098 35 35 0 0 0 .096-2.507c0-7.815-2.607-13.62-7.364-16.358a12.9 12.9 0 0 0-6.53-1.667zm-35.734 53.22a2.4 2.4 0 0 1-1.05-.23 2.8 2.8 0 0 1-1.444-2.497 30 30 0 0 1-.095-2.488c0-8.116 2.746-17.31 7.724-25.894 4.995-8.582 11.617-15.545 18.683-19.596 7.141-4.104 13.894-4.748 19.01-1.802 5.106 2.94 7.912 9.087 7.912 17.312 0 .87-.029 1.68-.095 2.58a8.26 8.26 0 0 1-1.207 3.6 7.94 7.94 0 0 1-2.635 2.675L51.09 45.987a5.56 5.56 0 0 0-2.215 2.789 25.6 25.6 0 0 1-3.764 6.095 19.3 19.3 0 0 1-5.107 4.405 9.83 9.83 0 0 1-5.272 1.493 5.7 5.7 0 0 1-4.173-2.05c-.474-.569-1.303-.182-1.634.01-.033.014-.066.033-.095.043l-11.257 6.463a3.9 3.9 0 0 1-1.92.567"/><path fill="#1b69ff" d="M38.652 52.47a2.34 2.34 0 0 1-1.619-.62c-.796-.764-1.078-2.111-.75-3.694.548-2.695 2.635-5.243 4.741-5.803a2.36 2.36 0 0 1 2.29.56 3.93 3.93 0 0 1 .913 3.641c-.568 2.695-2.655 5.244-4.756 5.804a3.2 3.2 0 0 1-.819.11zm21.367-17.834a.56.56 0 0 1-.54-.411.55.55 0 0 1 .26-.625l3.03-1.739a.556.556 0 0 1 .754.206.55.55 0 0 1-.206.75l-3.03 1.743a.54.54 0 0 1-.268.076m-5.935-13.077a.53.53 0 0 1-.28-.073.55.55 0 0 1-.278-.549.5.5 0 0 1 .07-.204l2.154-3.698a.55.55 0 0 1 .764-.21.55.55 0 0 1 .192.766l-2.149 3.693a.53.53 0 0 1-.473.275M39.736 22.96a.545.545 0 0 1-.548-.552v-3.485a.554.554 0 0 1 .764-.515.56.56 0 0 1 .352.515v3.486a.553.553 0 0 1-.568.55M25.388 38.03a.64.64 0 0 1-.284-.073l-2.134-1.233a.55.55 0 0 1-.063-.918.54.54 0 0 1 .612-.039l2.148 1.234a.546.546 0 0 1 .208.754.58.58 0 0 1-.487.274M16.406 59.67a.53.53 0 0 1-.468-.273.554.554 0 0 1 .203-.758l3.03-1.743a.555.555 0 0 1 .825.411.54.54 0 0 1-.276.55l-3.03 1.742a.6.6 0 0 1-.284.071"/><path fill="#1b69ff" d="M43.205 44.165a.54.54 0 0 1-.346-.121.556.556 0 0 1-.095-.782l16.265-20.04a.558.558 0 0 1 .869.697L43.633 43.96a.54.54 0 0 1-.428.206"/></g></svg>