<svg xmlns="http://www.w3.org/2000/svg" width="239" height="72" fill="none" viewBox="0 0 239 72"><mask id="a" width="185" height="44" x="27" y="13" maskUnits="userSpaceOnUse" style="mask-type:luminance"><path fill="#fff" d="M211.053 13.383H27.433v43.463h183.62z"/></mask><g mask="url(#a)"><mask id="b" width="185" height="44" x="27" y="13" maskUnits="userSpaceOnUse" style="mask-type:luminance"><path fill="#fff" d="M211.053 13.383H27.433v43.463h183.62z"/></mask><g mask="url(#b)"><mask id="c" width="185" height="44" x="27" y="13" maskUnits="userSpaceOnUse" style="mask-type:luminance"><path fill="#fff" d="M211.053 13.383H27.433v43.463h183.62z"/></mask><g mask="url(#c)"><path fill="#5e6981" d="M73.635 39.058h6.02v3.63a3.27 3.27 0 0 0 .872 2.429 3.97 3.97 0 0 0 2.697.775 3.48 3.48 0 0 0 2.688-.949q.697-.863.696-3.714v-17.63a2.93 2.93 0 0 1 .957-2.203 3.19 3.19 0 0 1 2.28-.911h2.967v20.992a23 23 0 0 1-.267 4.148 6.8 6.8 0 0 1-1.132 2.331 7.7 7.7 0 0 1-3.254 2.242 16.5 16.5 0 0 1-4.88.691c-2.698 0-5.825-.554-7.751-2.585a6 6 0 0 1-1.477-2.409 17.7 17.7 0 0 1-.436-4.523v-2.32zM111.461 43.366h4.353a9.43 9.43 0 0 1-3.65 5.538 11.12 11.12 0 0 1-6.793 1.99 9.7 9.7 0 0 1-4.251-.734 9.66 9.66 0 0 1-3.506-2.497c-1.854-2.157-2.79-5.038-2.79-8.902q0-5.53 2.707-8.636 2.708-3.105 7.757-3.23 5.208 0 8.104 3.107t2.79 8.887q.01.778-.093 1.55h-15.066a6 6 0 0 0 1.302 4.004 4.1 4.1 0 0 0 3.397 1.396c2.697 0 2.533-.846 4.137-2.085a2.6 2.6 0 0 1 1.614-.433zm-10.444-6.769h8.883a5.5 5.5 0 0 0-1.218-3.444 4.197 4.197 0 0 0-3.214-1.2 4.25 4.25 0 0 0-3.137 1.2 4.9 4.9 0 0 0-1.302 3.444zM118.133 20.489h3.143a2.96 2.96 0 0 1 2.095.82 2.68 2.68 0 0 1 .873 2.031v27.553h-6.111zM140.188 38.862a16.5 16.5 0 0 1-3.429 1.116l-2.004.433c-1.659.462-2.883 1.125-2.883 3.023-.018.381.042.762.177 1.119.136.357.344.682.611.956.641.504 1.449.75 2.265.69a4.86 4.86 0 0 0 3.526-1.107 4.78 4.78 0 0 0 1.707-3.257 4.7 4.7 0 0 0 0-.803v-2.17zm1.395 10.606c-3.5 1.82-9.664 2.094-13.019-.304q-2.35-1.675-2.357-5.574 0-3.643 2.139-5.17c3.348-2.454 11.717-1.983 11.717-4.67 0-1.82-2.417-2.078-3.833-2.078a6.3 6.3 0 0 0-2.181.355 2.362 2.362 0 0 0-1.385 1.331h-5.859a6.6 6.6 0 0 1 .798-2.482 6.7 6.7 0 0 1 1.695-1.988q2.349-1.99 6.702-1.99 4.88 0 7.321 1.648a5.54 5.54 0 0 1 1.921 2.096c.446.852.661 1.805.624 2.764v7.846a9.88 9.88 0 0 1-1.266 5.407 7.8 7.8 0 0 1-3.006 2.803zM147.82 42.838h5.922a3.167 3.167 0 0 0 1.302 2.585 6.26 6.26 0 0 0 3.482.867 5.6 5.6 0 0 0 2.697-.608c.31-.149.572-.38.757-.67.185-.288.286-.621.291-.964q0-1.562-3.663-2.33a17 17 0 0 1-2.357-.524q-4.626-1.117-6.189-2.667a5.3 5.3 0 0 1-1.337-1.88 5.26 5.26 0 0 1-.406-2.267 6.8 6.8 0 0 1 .632-3.01 6.9 6.9 0 0 1 1.893-2.436 10.92 10.92 0 0 1 6.8-1.984 11.85 11.85 0 0 1 7.231 1.99 7.6 7.6 0 0 1 1.957 2.522c.465.969.717 2.024.74 3.097h-3.741c-2.714 0-2.111-2.965-6.092-2.965a5.24 5.24 0 0 0-2.604.517 1.76 1.76 0 0 0-.781 1.564c0 2.143 9.579 2.912 12.369 5.27a5.4 5.4 0 0 1 1.294 1.897c.292.717.426 1.486.394 2.258a6.86 6.86 0 0 1-.655 3.288 6.9 6.9 0 0 1-2.134 2.597q-2.604 1.905-7.812 1.904-4.972 0-7.399-1.989a6.9 6.9 0 0 1-1.999-2.59 6.9 6.9 0 0 1-.578-3.21zM179.959 50.705c-3.906.24-9.584 1.053-9.584-4.32V20.96h3.142c.376.002.747.08 1.092.23.344.148.655.364.912.636a2.82 2.82 0 0 1 .873 2.074v3.877h3.565v1.214a2.77 2.77 0 0 1-.872 2.123 2.92 2.92 0 0 1-2.089.83h-.611v12.773c0 .982.579 1.466 1.737 1.466h1.828v4.523zM181.965 27.899h3.143a2.9 2.9 0 0 1 2.095.865 2.83 2.83 0 0 1 .874 2.054v20.026h-6.111zM206.698 43.334h4.352a9.44 9.44 0 0 1-3.657 5.53c-4.073 3.01-11.115 2.726-14.545-1.208q-2.789-3.106-2.789-8.9 0-5.53 2.697-8.637c3.798-4.357 11.986-4.264 15.851-.092a11.8 11.8 0 0 1 2.259 4.411h-6.091a5 5 0 0 0-.871-1.292 4.202 4.202 0 0 0-3.255-1.214 4.27 4.27 0 0 0-3.131 1.209q-1.555 1.718-1.555 5.697t1.569 5.626a4.129 4.129 0 0 0 3.395 1.385 4.3 4.3 0 0 0 1.91-.298 4.3 4.3 0 0 0 1.586-1.096 4 4 0 0 1 .696-.718 2.42 2.42 0 0 1 1.569-.433z"/><path fill="#0987f7" d="M188.348 26.771a14 14 0 0 0-2.903-.956c-1.783-.381-4.172-.6-4.172-2.954 0-3.19 4.278-2.777 5.859-1.173.408.43.724.939.929 1.494.205.556.294 1.146.262 1.737v1.846z"/><path fill="#0064c8" fill-rule="evenodd" d="m37.148 40.673 9.703-5.562V23.988l-9.703 5.562zM46.852 35.111V23.988l9.702 5.562v11.123z" clip-rule="evenodd"/></g><mask id="d" width="40" height="44" x="27" y="13" maskUnits="userSpaceOnUse" style="mask-type:luminance"><path fill="#fff" d="m43.243 14.937-6.104 3.493 19.415 11.104v11.144l-9.708 5.561-9.708-5.561V29.533l-9.704 5.582v6.987c0 4.225.077 4.172 3.598 6.161l12.21 7.03c3.522 2.016 3.522 2.113 7.198 0l12.22-7.028c3.52-2.015 3.592-1.975 3.592-6.184V28.109c0-1.368.221-2.628-.488-3.836-.73-1.2-1.953-1.662-3.124-2.347l-12.201-6.994c-1.761-1.015-2.635-1.545-3.545-1.545-.89 0-1.818.502-3.654 1.551"/></mask><g mask="url(#d)"><path fill="url(#e)" d="M66.478 13.383H27.434v44.02h39.044z"/></g><mask id="f" width="185" height="44" x="27" y="13" maskUnits="userSpaceOnUse" style="mask-type:luminance"><path fill="#fff" d="M211.053 13.383H27.433v43.463h183.62z"/></mask><g mask="url(#f)"><path fill="#0056b3" fill-rule="evenodd" d="M27.434 35.11v6.99c0 4.224.077 4.173 3.598 6.161l12.21 7.027c3.522 2.016 3.522 2.113 7.198 0l-3.594-9.046-9.708-5.578v-11.14z" clip-rule="evenodd"/><g opacity=".3"><mask id="g" width="40" height="44" x="27" y="13" maskUnits="userSpaceOnUse" style="mask-type:luminance"><path fill="#fff" d="M66.283 13.387h-38.85v43.457h38.85z"/></mask><g mask="url(#g)"><path fill="#0088fb" fill-rule="evenodd" d="M65.762 24.27c-.73-1.2-1.953-1.66-3.124-2.346l-12.2-6.996c-3.515-2.015-3.522-2.105-7.198 0l-6.104 3.5 19.416 11.098v11.148l-9.708 5.561-9.703-5.561V29.526l-9.707 5.59v6.997c0 4.21.071 4.172 3.591 6.185l12.218 6.997c3.52 2.015 3.52 2.112 7.197 0L62.654 48.3c3.52-2.011 3.592-1.976 3.592-6.184V28.11c.006-1.37.233-2.623-.481-3.837" clip-rule="evenodd"/></g></g><path fill="#0064c8" fill-rule="evenodd" d="m37.145 40.673 9.702-5.562V23.988l-9.702 5.562z" clip-rule="evenodd"/><path fill="#0064c8" fill-rule="evenodd" d="M46.844 35.111V23.988l9.708 5.562v11.123z" clip-rule="evenodd"/></g></g></g><defs><linearGradient id="e" x1="-148.774" x2="-148.11" y1="-92.179" y2="-92.179" gradientUnits="userSpaceOnUse"><stop stop-color="#0056b3"/><stop offset=".25" stop-color="#0056b3"/><stop offset=".7" stop-color="#0088fb"/><stop offset="1" stop-color="#00acff"/></linearGradient></defs></svg>