<svg xmlns="http://www.w3.org/2000/svg" width="101" height="129" fill="none" viewBox="0 0 101 129"><g clip-path="url(#a)"><path fill="#1b69ff" d="M37.434 122.262a18.34 18.34 0 0 1-9.093-2.352c-9.16-5.164-14.424-17.928-14.424-35.022 0-29.518 15.896-63.076 35.433-74.81C57.435 5.22 65.49 4.572 72.017 8.25c9.16 5.16 14.424 17.927 14.424 35.019 0 29.52-15.896 63.079-35.43 74.809a26.57 26.57 0 0 1-13.577 4.184M62.892 9.072a23.33 23.33 0 0 0-11.882 3.75c-18.676 11.22-33.875 43.547-33.875 72.063 0 15.668 4.781 27.718 12.794 32.227 5.554 3.129 12.27 2.513 19.424-1.784C68.03 104.11 83.23 71.785 83.23 43.264c0-15.668-4.782-27.713-12.794-32.226a15.2 15.2 0 0 0-7.543-1.961z"/><path fill="#1b69ff" d="M23.514 116.366a18.3 18.3 0 0 1-9.092-2.349C5.252 108.853-.002 96.089-.002 78.995c0-29.518 15.893-63.079 35.43-74.812 8.086-4.86 16.139-5.508 22.667-1.83 9.16 5.161 14.424 17.928 14.424 35.023 0 29.517-15.896 63.079-35.43 74.809a26.57 26.57 0 0 1-13.575 4.181M37.09 6.93C18.413 18.148 3.214 50.477 3.214 78.994c0 15.668 4.778 27.717 12.786 32.226 5.554 3.126 12.27 2.51 19.424-1.784C54.1 98.218 69.3 65.889 69.3 37.373c0-15.673-4.782-27.718-12.794-32.227-5.554-3.126-12.271-2.51-19.422 1.784z" opacity=".33"/><path fill="#fff" stroke="#000" stroke-width="2" d="M64.896 18.128c-19.119 11.484-34.65 44.4-34.65 73.435s15.531 43.299 34.65 31.815 34.651-44.4 34.651-73.435-15.534-43.294-34.65-31.815Z"/><path fill="#27292b" d="M66.173 41.292c-2.287 1.37-4.14 5.301-4.14 8.772s1.853 5.171 4.14 3.802 4.141-5.302 4.141-8.773-1.854-5.175-4.14-3.801m-5.525 24.27v4.194l1.379-.83 1.378-.831V95.34l-1.378.827-1.379.83v4.19l1.379-.826 1.378-.83 5.525-3.317 1.378-.83 1.378-.826v-4.194l-1.378.83-1.378.83V60.592l-1.383.83-5.525 3.312z"/></g><defs><clipPath id="a"><path fill="#fff" d="M0 0h101v129H0z"/></clipPath></defs></svg>