<svg xmlns="http://www.w3.org/2000/svg" width="87" height="73" fill="none" viewBox="0 0 87 73"><g fill-rule="evenodd" clip-path="url(#a)" clip-rule="evenodd"><path fill="#f2f5fc" d="M26.873 69.975c-3.542 2.048-6.763 2.24-9.081.9l-.064-.006-13.2-7.652a7 7 0 0 1-1.933-1.707C.534 58.747.47 54.567 1.05 51.31a30.14 30.14 0 0 1 10.047-16.985l.58-.445c.129-.716.194-1.384.322-2.093 1.739-10.19 8.824-21.61 17.906-26.86 3.542-2.06 8.116-3.445 12.044-1.712l.45.187 2.7 1.59c2.513-2.2 5.862-4.282 9.276-4.225a6.9 6.9 0 0 1 2.448.484l.386.16 5.733 3.337.644-.122a7.4 7.4 0 0 1 3.993.342l.45.193 13.27 7.658c2.512 1.25 4.122 4.213 4.122 8.528 0 8.205-5.732 18.183-12.882 22.279z"/><path fill="#2979e4" d="M38.082 3.167a16.16 16.16 0 0 0-7.794 2.409c-8.5 4.927-15.715 15.755-17.583 26.331-.064.7-.193 1.345-.258 2.041a.8.8 0 0 1-.258.522l-.58.445a28.84 28.84 0 0 0-9.79 16.514c-.323 1.894-.9 6.615 1.416 9.623a5.6 5.6 0 0 0 1.675 1.513l13.2 7.639c2.19 1.269 5.153.953 8.373-.889l45.666-26.356c6.892-3.968 12.5-13.668 12.5-21.622 0-3.826-1.352-6.692-3.671-7.852L67.324 5.653a6.8 6.8 0 0 0-3.607-.29l-.58.116a.68.68 0 0 1-.515-.083l-6.12-3.465a5.8 5.8 0 0 0-2.125-.412c-3.671-.071-7.021 2.5-8.76 4.032a.694.694 0 0 1-.837.083l-3.156-1.746a8.7 8.7 0 0 0-3.543-.722zm-16.94 69.324a7.34 7.34 0 0 1-3.735-.966L4.137 63.86a7.05 7.05 0 0 1-2.124-1.894c-2.641-3.491-2.061-8.721-1.675-10.8a30.5 30.5 0 0 1 10.31-17.437l.323-.264c.064-.618.193-1.2.258-1.816C13.16 20.661 20.697 9.403 29.52 4.269c2.64-1.571 7.923-3.877 12.753-1.758l.45.2 2.319 1.346c2-1.668 5.474-4.057 9.21-4.057.065 0 .065.006.13.006a7.9 7.9 0 0 1 2.769.535l.386.174 5.539 3.226.386-.064a8.2 8.2 0 0 1 4.444.381l.45.2 13.333 7.7c2.835 1.4 4.509 4.753 4.509 9.185 0 8.438-5.926 18.724-13.268 22.936L27.265 70.635a12.46 12.46 0 0 1-6.123 1.856"/><path fill="#fff" d="M26.873 69.975c-7.085 4.1-12.88.767-12.88-7.44 0-7.451 4.766-16.36 10.948-21 1.16-11.077 8.89-23.566 18.228-28.951 6.12-3.569 11.594-3.188 14.943.316a20.8 20.8 0 0 1 3.672-2.726c5.667-3.259 10.433-1.816 12.173 3.029 6.44-2.937 11.465.47 11.465 8.14 0 8.206-5.732 18.184-12.882 22.28z"/><path fill="#2979e4" d="M51.349 10.853a15.7 15.7 0 0 0-7.794 2.383c-9.017 5.2-16.682 17.4-17.842 28.372a.66.66 0 0 1-.322.528c-6.055 4.547-10.628 13.32-10.628 20.4 0 3.69 1.224 6.415 3.349 7.678 2.255 1.262 5.153.946 8.374-.9l45.666-26.356c6.892-3.967 12.5-13.668 12.5-21.622 0-3.55-1.1-6.222-3.156-7.543-1.868-1.211-4.444-1.18-7.214.09a.86.86 0 0 1-.644.007.7.7 0 0 1-.386-.445 6.1 6.1 0 0 0-3.607-3.91c-2.061-.76-4.7-.3-7.471 1.288a20 20 0 0 0-3.543 2.629.72.72 0 0 1-1.03-.04 8.47 8.47 0 0 0-6.248-2.563zM21.14 72.492a7.34 7.34 0 0 1-3.735-.966c-2.705-1.546-4.187-4.74-4.187-8.992 0-7.535 4.637-16.482 11.014-21.41 1.288-11.33 9.21-23.831 18.55-29.2 5.99-3.438 11.658-3.451 15.394-.064a20 20 0 0 1 3.22-2.338c3.157-1.822 6.248-2.318 8.76-1.4a7.36 7.36 0 0 1 4.188 4.084c3.027-1.172 5.86-1.063 7.986.322 2.512 1.61 3.865 4.74 3.865 8.818 0 8.438-5.926 18.724-13.268 22.936L27.26 70.632a12.45 12.45 0 0 1-6.12 1.86"/><path fill="#2979e4" d="M24.943 42.283a.8.8 0 0 1-.386-.1L11.29 34.53a.81.81 0 0 1-.258-1.037.76.76 0 0 1 1.031-.277l13.268 7.658a.76.76 0 0 1 .322 1.03.92.92 0 0 1-.709.378m33.362-28.944a.86.86 0 0 1-.386-.1l-13.14-7.6a.77.77 0 0 1-.321-1.037.74.74 0 0 1 1.03-.277l13.139 7.6a.77.77 0 0 1 .322 1.037.73.73 0 0 1-.644.377m12.172-3.497a.48.48 0 0 1-.322-.1L62.62 5.393a.77.77 0 0 1-.322-1.037.77.77 0 0 1 1.031-.27l7.536 4.341a.764.764 0 0 1 .323 1.031.92.92 0 0 1-.71.383"/></g><defs><clipPath id="a"><path fill="#fff" d="M0 0h86.195v72.492H0z"/></clipPath></defs></svg>