<svg xmlns="http://www.w3.org/2000/svg" width="82" height="82" fill="none" viewBox="0 0 82 82"><g clip-path="url(#a)"><path fill="#ffe177" d="M43.403 81.042 73.65 52.37a3.5 3.5 0 0 0 1.068-2.14L80.004 3.89A3.493 3.493 0 0 0 76.534 0H5.466a3.493 3.493 0 0 0-3.47 3.889L7.282 50.23a3.5 3.5 0 0 0 1.067 2.139l30.248 28.672a3.493 3.493 0 0 0 4.806 0"/><path fill="#ffd15b" d="M76.534 0h-3.21a3.493 3.493 0 0 1 3.47 3.889L71.507 50.23a3.5 3.5 0 0 1-1.067 2.139L40.192 81.042a3.5 3.5 0 0 1-.797.566 3.49 3.49 0 0 0 4.008-.566L73.65 52.37a3.5 3.5 0 0 0 1.068-2.14L80.004 3.89A3.493 3.493 0 0 0 76.534 0"/><path fill="#f5f8f9" d="M13.984 48.07 9.501 8.77a1.34 1.34 0 0 1 1.332-1.493h60.329c.8 0 1.422.697 1.331 1.493l-4.483 39.3a1.34 1.34 0 0 1-.41.821L41.92 73.235a1.34 1.34 0 0 1-1.845 0L14.394 48.891a1.34 1.34 0 0 1-.41-.82"/><path fill="#e8edf2" d="M71.164 7.277h-4.085c.8 0 1.422.697 1.332 1.493l-4.483 39.3a1.34 1.34 0 0 1-.41.821L38.957 72.173l1.12 1.062a1.34 1.34 0 0 0 1.845 0l25.68-24.344a1.34 1.34 0 0 0 .41-.82L72.497 8.77a1.34 1.34 0 0 0-1.332-1.493"/><path fill="#7a8c98" d="M35.529 29.852c-.39 0-.774-.184-1.015-.528l-2.868-4.094a1.24 1.24 0 0 1 0-1.42l2.868-4.095a1.238 1.238 0 0 1 2.027 1.42L34.17 24.52l2.371 3.384a1.237 1.237 0 0 1-1.012 1.948M46.475 29.852a1.238 1.238 0 0 1-1.012-1.948l2.37-3.384-2.37-3.385a1.237 1.237 0 1 1 2.026-1.42l2.869 4.094c.299.427.299.994 0 1.42l-2.869 4.095c-.24.344-.624.528-1.014.528M39.12 29.655a1.237 1.237 0 0 1-1.113-1.777l3.772-7.796a1.237 1.237 0 1 1 2.227 1.078l-3.772 7.796a1.24 1.24 0 0 1-1.114.7M49.12 14.967H32.886a1.237 1.237 0 1 1 0-2.475H49.12a1.237 1.237 0 1 1 0 2.475"/><path fill="#fff3be" d="M75.386 59.987H6.614A6.614 6.614 0 0 1 0 53.373V42.232a6.614 6.614 0 0 1 6.614-6.615h68.772A6.614 6.614 0 0 1 82 42.232v11.14a6.614 6.614 0 0 1-6.614 6.615"/><path fill="#fedba6" d="M75.385 35.617h-4.537a6.614 6.614 0 0 1 6.614 6.615v11.141a6.614 6.614 0 0 1-6.614 6.614h4.537a6.614 6.614 0 0 0 6.614-6.614V42.232a6.614 6.614 0 0 0-6.614-6.615"/><path fill="#ffd15b" d="M20.99 49.041h-2.335a1.237 1.237 0 1 1 0-2.475h2.335a1.237 1.237 0 1 1 0 2.475M63.35 49.041h-2.335a1.237 1.237 0 1 1 0-2.475h2.334a1.237 1.237 0 1 1 0 2.475M41 67.118a1.237 1.237 0 0 1-1.238-1.238v-1.443a1.237 1.237 0 1 1 2.474 0v1.443c0 .684-.553 1.238-1.237 1.238"/><path fill="#7a8c98" d="M32.972 55.507c-1.29 0-2.399-.712-2.972-1.289a1.238 1.238 0 0 1 1.749-1.751c.051.049.93.874 1.752.417a1.38 1.38 0 0 0 .693-1.215V41.34a1.237 1.237 0 1 1 2.474 0v10.33c0 1.41-.753 2.705-1.966 3.379a3.5 3.5 0 0 1-1.73.459M47.234 55.502c-2.077 0-4.104-.868-5.421-2.322a1.237 1.237 0 0 1 1.833-1.662c.857.945 2.198 1.51 3.588 1.51 1.447 0 2.474-.906 2.63-1.782.156-.875-.55-1.67-1.936-2.181a70 70 0 0 1-3.836-1.556 1 1 0 0 1-.172-.093 3.73 3.73 0 0 1-1.665-3.696c.227-1.58 1.388-2.868 3.03-3.362 3.336-1.005 6.091 1.266 6.207 1.363a1.237 1.237 0 0 1-1.587 1.899c-.034-.028-1.875-1.504-3.907-.893-.72.217-1.203.72-1.293 1.344-.07.488.115.939.497 1.223.403.177 1.933.84 3.582 1.449 3.042 1.122 3.811 3.286 3.517 4.938-.39 2.178-2.568 3.821-5.067 3.821"/></g><defs><clipPath id="a"><path fill="#fff" d="M0 0h82v82H0z"/></clipPath></defs></svg>