<svg width="241" height="290" viewBox="0 0 241 290" fill="none" xmlns="http://www.w3.org/2000/svg">
<g clip-path="url(#clip0_9_80674)">
<mask id="mask0_9_80674" style="mask-type:luminance" maskUnits="userSpaceOnUse" x="0" y="0" width="241" height="290">
<path d="M241 0H0V290H241V0Z" fill="white"/>
</mask>
<g mask="url(#mask0_9_80674)">
<path d="M239.339 155.427H189.109L133.196 121.561C125.996 117.2 113.417 117.746 105.101 122.787L51.2011 155.428H1.00108V329.463H1.01804C0.811044 332.413 2.38304 335.263 5.84104 337.357L107.12 398.705C114.32 403.065 126.9 402.52 135.22 397.479L232.462 338.579C236.779 335.965 239.08 332.653 239.304 329.461H239.341L239.339 155.427Z" fill="url(#paint0_linear_9_80674)"/>
<path d="M236.04 191.608L128.306 254.486C126.053 255.831 123.477 256.541 120.853 256.541C118.229 256.541 115.654 255.831 113.401 254.486L4.01477 190.668C3.06206 190.059 2.28315 189.214 1.75391 188.215C1.22467 187.216 0.963121 186.098 0.994751 184.968V151.93L112.315 104.772C114.476 103.777 116.823 103.248 119.202 103.22C121.581 103.192 123.94 103.665 126.124 104.609L239.041 152.864V185.906C239.072 187.034 238.812 188.151 238.286 189.15C237.759 190.148 236.984 190.994 236.036 191.606L236.04 191.608Z" fill="#D9DDE8"/>
<path d="M238.146 154.671L128.309 218.787C126.066 220.126 123.502 220.832 120.89 220.832C118.277 220.832 115.714 220.126 113.47 218.787L2.47008 154.011C1.94044 153.655 1.55362 153.123 1.37798 152.509C1.20233 151.896 1.24912 151.24 1.51006 150.657C1.70149 150.19 2.03809 149.797 2.47008 149.536L112.336 85.4072C114.572 84.0746 117.127 83.3711 119.73 83.3711C122.332 83.3711 124.887 84.0746 127.123 85.4072L238.148 150.198C238.679 150.553 239.066 151.084 239.242 151.698C239.419 152.311 239.372 152.967 239.11 153.549C238.918 154.017 238.581 154.41 238.148 154.671H238.146Z" fill="#F2F5FC"/>
<path d="M211.039 156.345L131.895 202.545C129.196 204.156 126.112 205.006 122.97 205.006C119.828 205.006 116.744 204.156 114.045 202.545L29.026 152.928C28.409 152.515 27.9578 151.897 27.7521 151.184C27.5464 150.47 27.5995 149.707 27.9019 149.028C28.1253 148.482 28.5197 148.022 29.026 147.717L109.539 100.717C111.822 99.3557 114.431 98.6367 117.089 98.6367C119.747 98.6367 122.356 99.3557 124.639 100.717L211.039 151.137C211.656 151.552 212.107 152.171 212.312 152.886C212.517 153.601 212.463 154.365 212.159 155.043C211.936 155.588 211.543 156.046 211.039 156.35V156.345Z" fill="#333C5E"/>
<path d="M211.107 156.437L202.96 161.066L124.643 115.361C122.36 114 119.751 113.281 117.093 113.281C114.435 113.281 111.827 114 109.543 115.361L36.9883 157.735L29.0223 152.935C28.4052 152.522 27.9538 151.904 27.7482 151.19C27.5425 150.476 27.5957 149.713 27.8983 149.035C28.0916 148.495 28.4589 148.036 28.9423 147.729L109.55 100.421C111.858 99.0731 114.485 98.3706 117.157 98.387C119.828 98.4034 122.447 99.1379 124.737 100.514L211.196 151.142C211.81 151.573 212.254 152.205 212.452 152.929C212.65 153.653 212.589 154.423 212.28 155.107C212.038 155.663 211.628 156.13 211.107 156.441V156.437Z" fill="#E0E3ED"/>
<path d="M222.125 182.431C222.125 185.02 223.925 186.066 226.14 184.772C227.313 183.998 228.287 182.959 228.984 181.738C229.682 180.518 230.082 179.151 230.154 177.747C230.154 175.158 228.354 174.112 226.14 175.406C224.967 176.181 223.993 177.22 223.296 178.441C222.598 179.661 222.197 181.028 222.125 182.431Z" fill="url(#paint1_linear_9_80674)"/>
<path d="M225.109 183.569C226.282 182.795 227.257 181.756 227.955 180.536C228.653 179.316 229.053 177.948 229.125 176.544C229.131 176.043 229.042 175.546 228.863 175.078C229.308 175.356 229.666 175.754 229.895 176.227C230.124 176.699 230.214 177.226 230.157 177.748C230.085 179.152 229.685 180.519 228.988 181.739C228.291 182.959 227.316 183.999 226.144 184.773C224.415 185.783 222.958 185.356 222.391 183.9C222.835 184.079 223.317 184.143 223.792 184.085C224.268 184.027 224.721 183.85 225.109 183.569Z" fill="#A0A6BA"/>
<path d="M208.676 190.071C208.676 192.659 210.476 193.708 212.69 192.415C213.862 191.64 214.836 190.601 215.533 189.381C216.231 188.16 216.631 186.793 216.704 185.39C216.704 182.801 214.904 181.753 212.69 183.046C211.517 183.82 210.542 184.86 209.845 186.08C209.148 187.3 208.747 188.667 208.676 190.071Z" fill="url(#paint2_linear_9_80674)"/>
<path d="M211.661 191.216C212.834 190.44 213.808 189.4 214.505 188.179C215.203 186.957 215.603 185.589 215.674 184.185C215.68 183.684 215.591 183.187 215.414 182.719C215.86 182.998 216.217 183.397 216.445 183.87C216.674 184.343 216.763 184.872 216.704 185.394C216.632 186.797 216.232 188.164 215.535 189.384C214.838 190.604 213.864 191.644 212.692 192.419C210.964 193.419 209.503 192.998 208.938 191.541C209.382 191.72 209.865 191.784 210.341 191.727C210.817 191.67 211.271 191.494 211.661 191.216Z" fill="#A0A6BA"/>
<path d="M69.0957 158.883L118.518 187.846C119.354 188.347 120.31 188.611 121.284 188.611C122.259 188.611 123.215 188.347 124.051 187.846L171.838 159.811C172.191 159.583 172.481 159.268 172.677 158.896C172.873 158.524 172.97 158.107 172.959 157.686V137.153L122.205 114.053C121.402 113.683 120.531 113.487 119.647 113.477C118.764 113.467 117.888 113.644 117.078 113.996L67.9777 136.224V156.754C67.965 157.175 68.0612 157.593 68.2571 157.966C68.453 158.339 68.7418 158.655 69.0957 158.883Z" fill="url(#paint3_linear_9_80674)"/>
<path d="M69.0957 156.919L118.518 185.877C119.354 186.377 120.31 186.642 121.284 186.642C122.259 186.642 123.215 186.377 124.051 185.877L171.838 157.842C172.191 157.614 172.481 157.298 172.677 156.926C172.873 156.554 172.97 156.137 172.959 155.717V135.19L122.205 112.09C121.402 111.719 120.531 111.522 119.647 111.512C118.764 111.502 117.888 111.679 117.078 112.031L67.9777 134.259V154.791C67.965 155.212 68.0612 155.629 68.2571 156.001C68.453 156.374 68.7418 156.69 69.0957 156.919Z" fill="url(#paint4_linear_9_80674)"/>
<path d="M68.4171 134.905L118.617 164.321C119.449 164.82 120.401 165.083 121.372 165.083C122.342 165.083 123.294 164.82 124.126 164.321L172.517 135.935C172.714 135.802 172.858 135.604 172.923 135.376C172.989 135.147 172.972 134.903 172.875 134.685C172.804 134.511 172.678 134.364 172.517 134.266L122.308 104.845C121.479 104.348 120.53 104.086 119.563 104.086C118.596 104.086 117.647 104.348 116.818 104.845L68.4181 133.245C68.2216 133.38 68.0787 133.578 68.0143 133.807C67.95 134.036 67.9683 134.281 68.0661 134.497C68.1374 134.667 68.2602 134.81 68.4171 134.905Z" fill="#F4FAFC"/>
<path d="M79.5109 152.369C79.5109 153.869 78.4739 154.469 77.1949 153.724C76.5173 153.274 75.9548 152.671 75.5526 151.964C75.1504 151.257 74.9196 150.466 74.8789 149.653C74.8789 148.153 75.9159 147.548 77.1949 148.298C77.8724 148.749 78.4349 149.351 78.8372 150.058C79.2394 150.765 79.4701 151.557 79.5109 152.369Z" fill="#EEF5FA"/>
<path d="M77.7871 153.029C77.1098 152.579 76.5476 151.977 76.1455 151.27C75.7435 150.563 75.5128 149.772 75.4721 148.959C75.4685 148.669 75.5197 148.381 75.6231 148.109C75.366 148.271 75.1596 148.501 75.0276 148.774C74.8957 149.048 74.8435 149.353 74.8771 149.654C74.9178 150.467 75.1486 151.258 75.5508 151.965C75.953 152.672 76.5155 153.275 77.1931 153.725C78.1931 154.31 79.0311 154.062 79.3591 153.219C79.1023 153.323 78.8235 153.359 78.5487 153.326C78.2739 153.293 78.0119 153.191 77.7871 153.029Z" fill="url(#paint5_linear_9_80674)"/>
<path d="M89.8107 158.594C89.8107 160.094 88.7737 160.7 87.4957 159.951C86.8183 159.501 86.2559 158.898 85.8536 158.192C85.4514 157.485 85.2206 156.693 85.1797 155.881C85.1797 154.381 86.2167 153.775 87.4957 154.524C88.173 154.974 88.7352 155.577 89.1372 156.284C89.5393 156.991 89.77 157.782 89.8107 158.594Z" fill="#EEF5FA"/>
<path d="M88.0921 159.252C87.4148 158.802 86.8526 158.199 86.4505 157.492C86.0485 156.785 85.8178 155.994 85.7771 155.182C85.7735 154.892 85.8247 154.603 85.9281 154.332C85.6706 154.494 85.4639 154.725 85.3319 154.999C85.2 155.272 85.148 155.578 85.182 155.88C85.2228 156.692 85.4534 157.483 85.8555 158.19C86.2575 158.897 86.8198 159.5 87.497 159.95C88.497 160.533 89.3361 160.282 89.6631 159.442C89.4065 159.546 89.1278 159.583 88.8531 159.55C88.5783 159.516 88.3165 159.414 88.0921 159.252Z" fill="url(#paint6_linear_9_80674)"/>
<path d="M163.594 152.483C163.594 153.593 164.362 154.043 165.31 153.488C165.812 153.155 166.228 152.708 166.527 152.184C166.825 151.66 166.996 151.073 167.027 150.471C167.027 149.361 166.258 148.911 165.31 149.471C164.808 149.804 164.392 150.25 164.094 150.773C163.796 151.296 163.624 151.882 163.594 152.483Z" fill="#EEF5FA"/>
<path d="M164.869 152.974C165.371 152.64 165.787 152.194 166.085 151.67C166.383 151.146 166.555 150.56 166.585 149.958C166.586 149.743 166.548 149.529 166.471 149.328C166.661 149.448 166.814 149.619 166.912 149.822C167.01 150.024 167.049 150.25 167.024 150.474C166.993 151.076 166.822 151.663 166.524 152.187C166.226 152.71 165.809 153.157 165.307 153.491C164.568 153.924 163.943 153.74 163.707 153.115C163.897 153.191 164.103 153.218 164.306 153.193C164.509 153.169 164.703 153.093 164.869 152.974Z" fill="url(#paint7_linear_9_80674)"/>
<path d="M165.481 135.645L121.718 161.682L77.3594 135.607L121.175 109.539L165.481 135.645Z" fill="#F4FAFC"/>
<path d="M131.608 140.171L130.227 139.357L131.61 138.578L132.991 139.392L131.608 140.171Z" fill="url(#paint8_linear_9_80674)"/>
<path d="M123.141 143.534L129.232 139.934L130.613 140.747L124.522 144.347L123.141 143.534Z" fill="url(#paint9_linear_9_80674)"/>
<path d="M128.573 136.57L129.953 137.384L125.353 140.095L123.973 139.281L128.573 136.57Z" fill="url(#paint10_linear_9_80674)"/>
<path d="M122.486 132.645L123.866 133.459L117.775 137.059L116.395 136.245L122.486 132.645Z" fill="url(#paint11_linear_9_80674)"/>
<path d="M119.3 130.766L120.68 131.579L116.513 134.038L115.133 133.224L119.3 130.766Z" fill="url(#paint12_linear_9_80674)"/>
<path d="M122.107 136.625L123.488 137.439L117.397 141.039L116.016 140.225L122.107 136.625Z" fill="url(#paint13_linear_9_80674)"/>
<path d="M119.247 127.035L120.627 127.849L116.459 130.309L115.078 129.495L119.247 127.035Z" fill="url(#paint14_linear_9_80674)"/>
<path d="M114.083 130.082L115.463 130.897L109.372 134.497L107.992 133.682L114.083 130.082Z" fill="url(#paint15_linear_9_80674)"/>
<path d="M130.951 136.795L129.57 135.982L130.952 135.203L132.332 136.018L130.951 136.795Z" fill="url(#paint16_linear_9_80674)"/>
<path d="M124.486 136.85L123.105 136.037L127.272 133.578L128.652 134.392L124.486 136.85Z" fill="url(#paint17_linear_9_80674)"/>
<path d="M124.868 132.87L123.488 132.054L124.871 131.277L126.252 132.091L124.868 132.87Z" fill="url(#paint18_linear_9_80674)"/>
<path d="M128.273 132.991L131.273 131.254L132.654 132.068L129.654 133.805L128.273 132.991Z" fill="url(#paint19_linear_9_80674)"/>
<path d="M116.775 137.642L111.575 140.709L110.195 139.895L115.395 136.828L116.775 137.642Z" fill="url(#paint20_linear_9_80674)"/>
<path d="M116.402 141.624L114.763 142.591L113.383 141.775L115.022 140.809L116.402 141.624Z" fill="url(#paint21_linear_9_80674)"/>
<path d="M115.517 134.626L108.395 138.826L107.016 138.012L114.139 133.812L115.517 134.626Z" fill="url(#paint22_linear_9_80674)"/>
<path d="M120.246 126.449L121.72 125.617L123.099 126.432L121.625 127.264L120.246 126.449Z" fill="url(#paint23_linear_9_80674)"/>
<path d="M106.995 134.266L108.375 135.08L105.204 136.95L103.824 136.136L106.995 134.266Z" fill="url(#paint24_linear_9_80674)"/>
<path d="M124.359 140.685L117.947 144.467L116.566 143.653L122.977 139.871L124.359 140.685Z" fill="url(#paint25_linear_9_80674)"/>
<path d="M120.297 130.176L124.905 127.496L126.285 128.31L121.676 130.992L120.297 130.176Z" fill="url(#paint26_linear_9_80674)"/>
<path d="M125.867 130.685L128.095 129.371L129.476 130.185L127.247 131.499L125.867 130.685Z" fill="url(#paint27_linear_9_80674)"/>
<path d="M123.522 144.939L121.135 146.347L119.754 145.533L122.141 144.125L123.522 144.939Z" fill="url(#paint28_linear_9_80674)"/>
<path d="M131.949 134.621L134.463 133.137L135.842 133.952L133.329 135.435L131.949 134.621Z" fill="url(#paint29_linear_9_80674)"/>
<path d="M132.605 137.99L137.646 135.016L139.026 135.831L133.983 138.805L132.605 137.99Z" fill="url(#paint30_linear_9_80674)"/>
<path d="M170.514 133.927L122.014 104.945L73.2039 133.989L69.5039 131.783V136.19L117.38 164.738C118.698 165.543 120.212 165.969 121.756 165.969C123.301 165.969 124.815 165.543 126.133 164.738L174.211 136.127V131.727L170.514 133.927ZM122.147 156.739L87.7239 136.257L122.15 116L156.535 136.462L122.147 156.739Z" fill="url(#paint31_linear_9_80674)"/>
<path d="M122.014 100.535L69.5039 131.776L117.38 160.324C118.698 161.129 120.212 161.554 121.756 161.554C123.301 161.554 124.815 161.129 126.133 160.324L174.212 131.717L122.014 100.535ZM87.7259 131.852L122.152 111.595L156.537 132.057L124.832 150.747C124.022 151.235 123.095 151.492 122.149 151.49C121.204 151.488 120.278 151.227 119.47 150.736L87.7259 131.852Z" fill="url(#paint32_linear_9_80674)"/>
<path d="M122.172 117.645V111.609L122.154 111.598L87.7305 131.853L92.8455 134.895L122.172 117.645Z" fill="#333C5E"/>
<path d="M122.148 117.644L151.427 135.066L156.534 132.059L122.148 111.598V117.644Z" fill="#333C5E"/>
<path d="M156.537 132.059V12.6816C156.537 6.43356 143.596 -2.64844 122.053 -2.64844C100.51 -2.64844 87.5664 6.43356 87.5664 12.6816L87.7044 131.871L119.085 150.955C120.016 151.522 121.084 151.824 122.173 151.827C123.263 151.829 124.333 151.532 125.265 150.969L156.537 132.059Z" fill="url(#paint33_linear_9_80674)"/>
</g>
</g>
<defs>
<linearGradient id="paint0_linear_9_80674" x1="136.139" y1="437.028" x2="149.577" y2="102.358" gradientUnits="userSpaceOnUse">
<stop stop-color="white"/>
<stop offset="1" stop-color="#C8CEDE"/>
</linearGradient>
<linearGradient id="paint1_linear_9_80674" x1="-515.557" y1="434.565" x2="-514.947" y2="434.565" gradientUnits="userSpaceOnUse">
<stop stop-color="#FFE06A"/>
<stop offset="1" stop-color="#FFCC00"/>
</linearGradient>
<linearGradient id="paint2_linear_9_80674" x1="-515.518" y1="434.502" x2="-514.9" y2="434.502" gradientUnits="userSpaceOnUse">
<stop stop-color="#5E98F7"/>
<stop offset="1" stop-color="#4670BA"/>
</linearGradient>
<linearGradient id="paint3_linear_9_80674" x1="-333.688" y1="370.287" x2="-333.164" y2="370.287" gradientUnits="userSpaceOnUse">
<stop stop-color="#5E98F7"/>
<stop offset="1" stop-color="#4670BA"/>
</linearGradient>
<linearGradient id="paint4_linear_9_80674" x1="-333.688" y1="370.259" x2="-333.164" y2="370.259" gradientUnits="userSpaceOnUse">
<stop offset="0.459" stop-color="#EBF0F5"/>
<stop offset="0.544" stop-color="#D3DAEB"/>
</linearGradient>
<linearGradient id="paint5_linear_9_80674" x1="-343.182" y1="365.947" x2="-342.616" y2="365.947" gradientUnits="userSpaceOnUse">
<stop stop-color="#4670BA"/>
<stop offset="1" stop-color="#5E98F7"/>
</linearGradient>
<linearGradient id="paint6_linear_9_80674" x1="-343.161" y1="365.844" x2="-342.59" y2="365.844" gradientUnits="userSpaceOnUse">
<stop stop-color="#4670BA"/>
<stop offset="1" stop-color="#5E98F7"/>
</linearGradient>
<linearGradient id="paint7_linear_9_80674" x1="-880.513" y1="364.287" x2="-879.945" y2="364.287" gradientUnits="userSpaceOnUse">
<stop stop-color="#4670BA"/>
<stop offset="1" stop-color="#5E98F7"/>
</linearGradient>
<linearGradient id="paint8_linear_9_80674" x1="-815.79" y1="353.821" x2="-815.561" y2="353.821" gradientUnits="userSpaceOnUse">
<stop stop-color="#5E98F7"/>
<stop offset="1" stop-color="#4670BA"/>
</linearGradient>
<linearGradient id="paint9_linear_9_80674" x1="-547.336" y1="364.687" x2="-547.253" y2="364.687" gradientUnits="userSpaceOnUse">
<stop stop-color="#5E98F7"/>
<stop offset="1" stop-color="#4670BA"/>
</linearGradient>
<linearGradient id="paint10_linear_9_80674" x1="-594.821" y1="363.076" x2="-594.713" y2="363.076" gradientUnits="userSpaceOnUse">
<stop stop-color="#5E98F7"/>
<stop offset="1" stop-color="#4670BA"/>
</linearGradient>
<linearGradient id="paint11_linear_9_80674" x1="-546.732" y1="364.887" x2="-546.642" y2="364.887" gradientUnits="userSpaceOnUse">
<stop stop-color="#5E98F7"/>
<stop offset="1" stop-color="#4670BA"/>
</linearGradient>
<linearGradient id="paint12_linear_9_80674" x1="-610.658" y1="362.666" x2="-610.548" y2="362.666" gradientUnits="userSpaceOnUse">
<stop stop-color="#5E98F7"/>
<stop offset="1" stop-color="#4670BA"/>
</linearGradient>
<linearGradient id="paint13_linear_9_80674" x1="-546.787" y1="364.794" x2="-546.705" y2="364.794" gradientUnits="userSpaceOnUse">
<stop stop-color="#5E98F7"/>
<stop offset="1" stop-color="#4670BA"/>
</linearGradient>
<linearGradient id="paint14_linear_9_80674" x1="-610.702" y1="362.802" x2="-610.591" y2="362.802" gradientUnits="userSpaceOnUse">
<stop stop-color="#5E98F7"/>
<stop offset="1" stop-color="#4670BA"/>
</linearGradient>
<linearGradient id="paint15_linear_9_80674" x1="-546.08" y1="364.937" x2="-545.997" y2="364.937" gradientUnits="userSpaceOnUse">
<stop stop-color="#5E98F7"/>
<stop offset="1" stop-color="#4670BA"/>
</linearGradient>
<linearGradient id="paint16_linear_9_80674" x1="-815.558" y1="353.966" x2="-815.332" y2="353.966" gradientUnits="userSpaceOnUse">
<stop stop-color="#5E98F7"/>
<stop offset="1" stop-color="#4670BA"/>
</linearGradient>
<linearGradient id="paint17_linear_9_80674" x1="-611.494" y1="362.582" x2="-611.384" y2="362.582" gradientUnits="userSpaceOnUse">
<stop stop-color="#5E98F7"/>
<stop offset="1" stop-color="#4670BA"/>
</linearGradient>
<linearGradient id="paint18_linear_9_80674" x1="-814.344" y1="354.262" x2="-814.118" y2="354.262" gradientUnits="userSpaceOnUse">
<stop stop-color="#5E98F7"/>
<stop offset="1" stop-color="#4670BA"/>
</linearGradient>
<linearGradient id="paint19_linear_9_80674" x1="-672.447" y1="360.425" x2="-672.303" y2="360.425" gradientUnits="userSpaceOnUse">
<stop stop-color="#5E98F7"/>
<stop offset="1" stop-color="#4670BA"/>
</linearGradient>
<linearGradient id="paint20_linear_9_80674" x1="-571.758" y1="363.741" x2="-571.665" y2="363.741" gradientUnits="userSpaceOnUse">
<stop stop-color="#5E98F7"/>
<stop offset="1" stop-color="#4670BA"/>
</linearGradient>
<linearGradient id="paint21_linear_9_80674" x1="-783.487" y1="355.516" x2="-783.279" y2="355.516" gradientUnits="userSpaceOnUse">
<stop stop-color="#5E98F7"/>
<stop offset="1" stop-color="#4670BA"/>
</linearGradient>
<linearGradient id="paint22_linear_9_80674" x1="-522.512" y1="365.208" x2="-522.435" y2="365.208" gradientUnits="userSpaceOnUse">
<stop stop-color="#5E98F7"/>
<stop offset="1" stop-color="#4670BA"/>
</linearGradient>
<linearGradient id="paint23_linear_9_80674" x1="-803.148" y1="355.139" x2="-802.928" y2="355.139" gradientUnits="userSpaceOnUse">
<stop stop-color="#5E98F7"/>
<stop offset="1" stop-color="#4670BA"/>
</linearGradient>
<linearGradient id="paint24_linear_9_80674" x1="-659.691" y1="360.821" x2="-659.555" y2="360.821" gradientUnits="userSpaceOnUse">
<stop stop-color="#5E98F7"/>
<stop offset="1" stop-color="#4670BA"/>
</linearGradient>
<linearGradient id="paint25_linear_9_80674" x1="-538.924" y1="364.74" x2="-538.846" y2="364.74" gradientUnits="userSpaceOnUse">
<stop stop-color="#5E98F7"/>
<stop offset="1" stop-color="#4670BA"/>
</linearGradient>
<linearGradient id="paint26_linear_9_80674" x1="-593.452" y1="363.27" x2="-593.344" y2="363.27" gradientUnits="userSpaceOnUse">
<stop stop-color="#5E98F7"/>
<stop offset="1" stop-color="#4670BA"/>
</linearGradient>
<linearGradient id="paint27_linear_9_80674" x1="-729.879" y1="358.476" x2="-729.706" y2="358.476" gradientUnits="userSpaceOnUse">
<stop stop-color="#5E98F7"/>
<stop offset="1" stop-color="#4670BA"/>
</linearGradient>
<linearGradient id="paint28_linear_9_80674" x1="-715.969" y1="358.307" x2="-715.799" y2="358.307" gradientUnits="userSpaceOnUse">
<stop stop-color="#5E98F7"/>
<stop offset="1" stop-color="#4670BA"/>
</linearGradient>
<linearGradient id="paint29_linear_9_80674" x1="-707.671" y1="359.226" x2="-707.507" y2="359.226" gradientUnits="userSpaceOnUse">
<stop stop-color="#5E98F7"/>
<stop offset="1" stop-color="#4670BA"/>
</linearGradient>
<linearGradient id="paint30_linear_9_80674" x1="-578.998" y1="363.629" x2="-578.895" y2="363.629" gradientUnits="userSpaceOnUse">
<stop stop-color="#5E98F7"/>
<stop offset="1" stop-color="#4670BA"/>
</linearGradient>
<linearGradient id="paint31_linear_9_80674" x1="-333.199" y1="369.237" x2="-333.271" y2="370.465" gradientUnits="userSpaceOnUse">
<stop stop-color="#5E98F7"/>
<stop offset="1" stop-color="#4670BA"/>
</linearGradient>
<linearGradient id="paint32_linear_9_80674" x1="-332.156" y1="362.246" x2="-332.156" y2="362.246" gradientUnits="userSpaceOnUse">
<stop stop-color="#AADFF7"/>
<stop offset="1" stop-color="#69A1E3"/>
</linearGradient>
<linearGradient id="paint33_linear_9_80674" x1="112.603" y1="147.81" x2="157.753" y2="71.0214" gradientUnits="userSpaceOnUse">
<stop stop-color="#3A8FFF"/>
<stop offset="1" stop-color="white" stop-opacity="0"/>
</linearGradient>
<clipPath id="clip0_9_80674">
<rect width="241" height="290" fill="white"/>
</clipPath>
</defs>
</svg>
