<svg xmlns="http://www.w3.org/2000/svg" width="241" height="290" fill="none" viewBox="0 0 241 290"><g clip-path="url(#a)"><mask id="b" width="241" height="290" x="0" y="0" maskUnits="userSpaceOnUse" style="mask-type:luminance"><path fill="#fff" d="M241 0H0v290h241z"/></mask><g mask="url(#b)"><path fill="url(#c)" d="M239.339 155.427h-50.23l-55.913-33.866c-7.2-4.361-19.779-3.815-28.095 1.226l-53.9 32.641h-50.2v174.035h.017c-.207 2.95 1.365 5.8 4.823 7.894l101.279 61.348c7.2 4.36 19.78 3.815 28.1-1.226l97.242-58.9c4.317-2.614 6.618-5.926 6.842-9.118h.037z"/><path fill="#d9dde8" d="m236.04 191.608-107.734 62.878a14.54 14.54 0 0 1-14.905 0L4.015 190.668a6.55 6.55 0 0 1-3.02-5.7V151.93l111.32-47.158a16.95 16.95 0 0 1 13.809-.163l112.917 48.255v33.042a6.6 6.6 0 0 1-.755 3.244 6.6 6.6 0 0 1-2.25 2.456z"/><path fill="#f2f5fc" d="m238.146 154.671-109.837 64.116a14.47 14.47 0 0 1-14.839 0l-111-64.776a2.706 2.706 0 0 1-.96-3.354c.191-.467.528-.86.96-1.121l109.866-64.129a14.44 14.44 0 0 1 14.787 0l111.025 64.791a2.7 2.7 0 0 1 .962 3.351 2.35 2.35 0 0 1-.962 1.122z"/><path fill="#333c5e" d="m211.039 156.345-79.144 46.2a17.41 17.41 0 0 1-17.85 0l-85.019-49.617a3.15 3.15 0 0 1-1.124-3.9 2.75 2.75 0 0 1 1.124-1.311l80.513-47a14.74 14.74 0 0 1 15.1 0l86.4 50.42a3.156 3.156 0 0 1 1.12 3.906 2.74 2.74 0 0 1-1.12 1.307z"/><path fill="#e0e3ed" d="m211.107 156.437-8.147 4.629-78.317-45.705a14.75 14.75 0 0 0-15.1 0l-72.555 42.374-7.966-4.8a3.15 3.15 0 0 1-1.124-3.9c.194-.54.56-.999 1.044-1.306l80.608-47.308a14.9 14.9 0 0 1 15.187.093l86.459 50.628a3.22 3.22 0 0 1 1.084 3.965 2.9 2.9 0 0 1-1.173 1.334z"/><path fill="url(#d)" d="M222.125 182.431c0 2.589 1.8 3.635 4.015 2.341a8.959 8.959 0 0 0 4.014-7.025c0-2.589-1.8-3.635-4.014-2.341a8.96 8.96 0 0 0-2.844 3.035 8.96 8.96 0 0 0-1.171 3.99"/><path fill="#a0a6ba" d="M225.109 183.569a8.963 8.963 0 0 0 4.016-7.025 4 4 0 0 0-.262-1.466 2.79 2.79 0 0 1 1.294 2.67 8.97 8.97 0 0 1-4.013 7.025c-1.729 1.01-3.186.583-3.753-.873a2.83 2.83 0 0 0 2.718-.331"/><path fill="url(#e)" d="M208.676 190.071c0 2.588 1.8 3.637 4.014 2.344a8.98 8.98 0 0 0 4.014-7.025c0-2.589-1.8-3.637-4.014-2.344a8.96 8.96 0 0 0-4.014 7.025"/><path fill="#a0a6ba" d="M211.661 191.216a8.98 8.98 0 0 0 4.013-7.031 4 4 0 0 0-.26-1.466 2.78 2.78 0 0 1 1.29 2.675 8.97 8.97 0 0 1-4.012 7.025c-1.728 1-3.189.579-3.754-.878a2.85 2.85 0 0 0 2.723-.325"/><path fill="url(#f)" d="m69.096 158.883 49.422 28.963a5.38 5.38 0 0 0 5.533 0l47.787-28.035a2.45 2.45 0 0 0 1.121-2.125v-20.533l-50.754-23.1a6.28 6.28 0 0 0-5.127-.057l-49.1 22.228v20.53a2.45 2.45 0 0 0 1.118 2.129"/><path fill="url(#g)" d="m69.096 156.919 49.422 28.958a5.39 5.39 0 0 0 5.533 0l47.787-28.035a2.45 2.45 0 0 0 1.121-2.125V135.19l-50.754-23.1a6.27 6.27 0 0 0-5.127-.059l-49.1 22.228v20.532a2.44 2.44 0 0 0 1.118 2.128"/><path fill="#f4fafc" d="m68.417 134.905 50.2 29.416a5.36 5.36 0 0 0 5.509 0l48.391-28.386a1.01 1.01 0 0 0 .358-1.25.9.9 0 0 0-.358-.419l-50.209-29.421a5.34 5.34 0 0 0-5.49 0l-48.4 28.4a1.015 1.015 0 0 0-.352 1.252.87.87 0 0 0 .351.408"/><path fill="#eef5fa" d="M79.51 152.369c0 1.5-1.036 2.1-2.315 1.355a5.2 5.2 0 0 1-2.316-4.071c0-1.5 1.037-2.105 2.316-1.355a5.21 5.21 0 0 1 2.316 4.071"/><path fill="url(#h)" d="M77.787 153.029a5.2 5.2 0 0 1-2.315-4.07 2.3 2.3 0 0 1 .151-.85 1.62 1.62 0 0 0-.746 1.545 5.2 5.2 0 0 0 2.316 4.071c1 .585 1.838.337 2.166-.506a1.64 1.64 0 0 1-1.572-.19"/><path fill="#eef5fa" d="M89.81 158.594c0 1.5-1.036 2.106-2.314 1.357a5.2 5.2 0 0 1-2.316-4.07c0-1.5 1.037-2.106 2.316-1.357a5.2 5.2 0 0 1 2.315 4.07"/><path fill="url(#i)" d="M88.092 159.252a5.2 5.2 0 0 1-2.315-4.07c-.004-.29.048-.579.151-.85a1.62 1.62 0 0 0-.746 1.548 5.2 5.2 0 0 0 2.315 4.07c1 .583 1.84.332 2.166-.508a1.64 1.64 0 0 1-1.57-.19"/><path fill="#eef5fa" d="M163.594 152.483c0 1.11.768 1.56 1.716 1.005a3.86 3.86 0 0 0 1.717-3.017c0-1.11-.769-1.56-1.717-1a3.85 3.85 0 0 0-1.716 3.012"/><path fill="url(#j)" d="M164.869 152.974a3.85 3.85 0 0 0 1.716-3.016 1.7 1.7 0 0 0-.114-.63 1.2 1.2 0 0 1 .553 1.146 3.866 3.866 0 0 1-1.717 3.017c-.739.433-1.364.249-1.6-.376a1.21 1.21 0 0 0 1.162-.141"/><path fill="#f4fafc" d="m165.481 135.645-43.763 26.037-44.359-26.075 43.816-26.068z"/><path fill="url(#k)" d="m131.608 140.171-1.381-.814 1.383-.779 1.381.814z"/><path fill="url(#l)" d="m123.141 143.534 6.091-3.6 1.381.813-6.091 3.6z"/><path fill="url(#m)" d="m128.573 136.57 1.38.814-4.6 2.711-1.38-.814z"/><path fill="url(#n)" d="m122.486 132.645 1.38.814-6.091 3.6-1.38-.814z"/><path fill="url(#o)" d="m119.3 130.766 1.38.813-4.167 2.459-1.38-.814z"/><path fill="url(#p)" d="m122.107 136.625 1.381.814-6.091 3.6-1.381-.814z"/><path fill="url(#q)" d="m119.247 127.035 1.38.814-4.168 2.46-1.381-.814z"/><path fill="url(#r)" d="m114.083 130.082 1.38.815-6.091 3.6-1.38-.815z"/><path fill="url(#s)" d="m130.951 136.795-1.381-.813 1.382-.779 1.38.815z"/><path fill="url(#t)" d="m124.486 136.85-1.381-.813 4.167-2.459 1.38.814z"/><path fill="url(#u)" d="m124.868 132.87-1.38-.816 1.383-.777 1.381.814z"/><path fill="url(#v)" d="m128.273 132.991 3-1.737 1.381.814-3 1.737z"/><path fill="url(#w)" d="m116.775 137.642-5.2 3.067-1.38-.814 5.2-3.067z"/><path fill="url(#x)" d="m116.402 141.624-1.639.967-1.38-.816 1.639-.966z"/><path fill="url(#y)" d="m115.517 134.626-7.122 4.2-1.379-.814 7.123-4.2z"/><path fill="url(#z)" d="m120.246 126.449 1.474-.832 1.379.815-1.474.832z"/><path fill="url(#A)" d="m106.995 134.266 1.38.814-3.171 1.87-1.38-.814z"/><path fill="url(#B)" d="m124.359 140.685-6.412 3.782-1.381-.814 6.411-3.782z"/><path fill="url(#C)" d="m120.297 130.176 4.608-2.68 1.38.814-4.609 2.682z"/><path fill="url(#D)" d="m125.867 130.685 2.228-1.314 1.381.814-2.229 1.314z"/><path fill="url(#E)" d="m123.522 144.939-2.387 1.408-1.381-.814 2.387-1.408z"/><path fill="url(#F)" d="m131.949 134.621 2.514-1.484 1.379.815-2.513 1.483z"/><path fill="url(#G)" d="m132.605 137.99 5.041-2.974 1.38.815-5.043 2.974z"/><path fill="url(#H)" d="m170.514 133.927-48.5-28.982-48.81 29.044-3.7-2.206v4.407l47.876 28.548a8.4 8.4 0 0 0 8.753 0l48.078-28.611v-4.4zm-48.367 22.812-34.423-20.482L122.15 116l34.385 20.462z"/><path fill="url(#I)" d="m122.014 100.535-52.51 31.241 47.876 28.548a8.39 8.39 0 0 0 8.753 0l48.079-28.607zm-34.288 31.317 34.426-20.257 34.385 20.462-31.705 18.69a5.18 5.18 0 0 1-5.362-.011z"/><path fill="#333c5e" d="M122.172 117.645v-6.036l-.018-.011-34.423 20.255 5.115 3.042z"/><path fill="#333c5e" d="m122.148 117.644 29.279 17.422 5.107-3.007-34.386-20.461z"/><path fill="url(#J)" d="M156.537 132.059V12.682c0-6.248-12.941-15.33-34.484-15.33s-34.487 9.082-34.487 15.33l.138 119.189 31.381 19.084a5.97 5.97 0 0 0 3.088.872 5.96 5.96 0 0 0 3.092-.858z"/></g></g><defs><linearGradient id="c" x1="136.139" x2="149.577" y1="437.028" y2="102.358" gradientUnits="userSpaceOnUse"><stop stop-color="#fff"/><stop offset="1" stop-color="#c8cede"/></linearGradient><linearGradient id="d" x1="-515.557" x2="-514.947" y1="434.565" y2="434.565" gradientUnits="userSpaceOnUse"><stop stop-color="#ffe06a"/><stop offset="1" stop-color="#fc0"/></linearGradient><linearGradient id="e" x1="-515.518" x2="-514.9" y1="434.502" y2="434.502" gradientUnits="userSpaceOnUse"><stop stop-color="#5e98f7"/><stop offset="1" stop-color="#4670ba"/></linearGradient><linearGradient id="f" x1="-333.688" x2="-333.164" y1="370.287" y2="370.287" gradientUnits="userSpaceOnUse"><stop stop-color="#5e98f7"/><stop offset="1" stop-color="#4670ba"/></linearGradient><linearGradient id="g" x1="-333.688" x2="-333.164" y1="370.259" y2="370.259" gradientUnits="userSpaceOnUse"><stop offset=".459" stop-color="#ebf0f5"/><stop offset=".544" stop-color="#d3daeb"/></linearGradient><linearGradient id="h" x1="-343.182" x2="-342.616" y1="365.947" y2="365.947" gradientUnits="userSpaceOnUse"><stop stop-color="#4670ba"/><stop offset="1" stop-color="#5e98f7"/></linearGradient><linearGradient id="i" x1="-343.161" x2="-342.59" y1="365.844" y2="365.844" gradientUnits="userSpaceOnUse"><stop stop-color="#4670ba"/><stop offset="1" stop-color="#5e98f7"/></linearGradient><linearGradient id="j" x1="-880.513" x2="-879.945" y1="364.287" y2="364.287" gradientUnits="userSpaceOnUse"><stop stop-color="#4670ba"/><stop offset="1" stop-color="#5e98f7"/></linearGradient><linearGradient id="k" x1="-815.79" x2="-815.561" y1="353.821" y2="353.821" gradientUnits="userSpaceOnUse"><stop stop-color="#5e98f7"/><stop offset="1" stop-color="#4670ba"/></linearGradient><linearGradient id="l" x1="-547.336" x2="-547.253" y1="364.687" y2="364.687" gradientUnits="userSpaceOnUse"><stop stop-color="#5e98f7"/><stop offset="1" stop-color="#4670ba"/></linearGradient><linearGradient id="m" x1="-594.821" x2="-594.713" y1="363.076" y2="363.076" gradientUnits="userSpaceOnUse"><stop stop-color="#5e98f7"/><stop offset="1" stop-color="#4670ba"/></linearGradient><linearGradient id="n" x1="-546.732" x2="-546.642" y1="364.887" y2="364.887" gradientUnits="userSpaceOnUse"><stop stop-color="#5e98f7"/><stop offset="1" stop-color="#4670ba"/></linearGradient><linearGradient id="o" x1="-610.658" x2="-610.548" y1="362.666" y2="362.666" gradientUnits="userSpaceOnUse"><stop stop-color="#5e98f7"/><stop offset="1" stop-color="#4670ba"/></linearGradient><linearGradient id="p" x1="-546.787" x2="-546.705" y1="364.794" y2="364.794" gradientUnits="userSpaceOnUse"><stop stop-color="#5e98f7"/><stop offset="1" stop-color="#4670ba"/></linearGradient><linearGradient id="q" x1="-610.702" x2="-610.591" y1="362.802" y2="362.802" gradientUnits="userSpaceOnUse"><stop stop-color="#5e98f7"/><stop offset="1" stop-color="#4670ba"/></linearGradient><linearGradient id="r" x1="-546.08" x2="-545.997" y1="364.937" y2="364.937" gradientUnits="userSpaceOnUse"><stop stop-color="#5e98f7"/><stop offset="1" stop-color="#4670ba"/></linearGradient><linearGradient id="s" x1="-815.558" x2="-815.332" y1="353.966" y2="353.966" gradientUnits="userSpaceOnUse"><stop stop-color="#5e98f7"/><stop offset="1" stop-color="#4670ba"/></linearGradient><linearGradient id="t" x1="-611.494" x2="-611.384" y1="362.582" y2="362.582" gradientUnits="userSpaceOnUse"><stop stop-color="#5e98f7"/><stop offset="1" stop-color="#4670ba"/></linearGradient><linearGradient id="u" x1="-814.344" x2="-814.118" y1="354.262" y2="354.262" gradientUnits="userSpaceOnUse"><stop stop-color="#5e98f7"/><stop offset="1" stop-color="#4670ba"/></linearGradient><linearGradient id="v" x1="-672.447" x2="-672.303" y1="360.425" y2="360.425" gradientUnits="userSpaceOnUse"><stop stop-color="#5e98f7"/><stop offset="1" stop-color="#4670ba"/></linearGradient><linearGradient id="w" x1="-571.758" x2="-571.665" y1="363.741" y2="363.741" gradientUnits="userSpaceOnUse"><stop stop-color="#5e98f7"/><stop offset="1" stop-color="#4670ba"/></linearGradient><linearGradient id="x" x1="-783.487" x2="-783.279" y1="355.516" y2="355.516" gradientUnits="userSpaceOnUse"><stop stop-color="#5e98f7"/><stop offset="1" stop-color="#4670ba"/></linearGradient><linearGradient id="y" x1="-522.512" x2="-522.435" y1="365.208" y2="365.208" gradientUnits="userSpaceOnUse"><stop stop-color="#5e98f7"/><stop offset="1" stop-color="#4670ba"/></linearGradient><linearGradient id="z" x1="-803.148" x2="-802.928" y1="355.139" y2="355.139" gradientUnits="userSpaceOnUse"><stop stop-color="#5e98f7"/><stop offset="1" stop-color="#4670ba"/></linearGradient><linearGradient id="A" x1="-659.691" x2="-659.555" y1="360.821" y2="360.821" gradientUnits="userSpaceOnUse"><stop stop-color="#5e98f7"/><stop offset="1" stop-color="#4670ba"/></linearGradient><linearGradient id="B" x1="-538.924" x2="-538.846" y1="364.74" y2="364.74" gradientUnits="userSpaceOnUse"><stop stop-color="#5e98f7"/><stop offset="1" stop-color="#4670ba"/></linearGradient><linearGradient id="C" x1="-593.452" x2="-593.344" y1="363.27" y2="363.27" gradientUnits="userSpaceOnUse"><stop stop-color="#5e98f7"/><stop offset="1" stop-color="#4670ba"/></linearGradient><linearGradient id="D" x1="-729.879" x2="-729.706" y1="358.476" y2="358.476" gradientUnits="userSpaceOnUse"><stop stop-color="#5e98f7"/><stop offset="1" stop-color="#4670ba"/></linearGradient><linearGradient id="E" x1="-715.969" x2="-715.799" y1="358.307" y2="358.307" gradientUnits="userSpaceOnUse"><stop stop-color="#5e98f7"/><stop offset="1" stop-color="#4670ba"/></linearGradient><linearGradient id="F" x1="-707.671" x2="-707.507" y1="359.226" y2="359.226" gradientUnits="userSpaceOnUse"><stop stop-color="#5e98f7"/><stop offset="1" stop-color="#4670ba"/></linearGradient><linearGradient id="G" x1="-578.998" x2="-578.895" y1="363.629" y2="363.629" gradientUnits="userSpaceOnUse"><stop stop-color="#5e98f7"/><stop offset="1" stop-color="#4670ba"/></linearGradient><linearGradient id="H" x1="-333.199" x2="-333.271" y1="369.237" y2="370.465" gradientUnits="userSpaceOnUse"><stop stop-color="#5e98f7"/><stop offset="1" stop-color="#4670ba"/></linearGradient><linearGradient id="I" x1="-332.156" x2="-332.156" y1="362.246" y2="362.246" gradientUnits="userSpaceOnUse"><stop stop-color="#aadff7"/><stop offset="1" stop-color="#69a1e3"/></linearGradient><linearGradient id="J" x1="112.603" x2="157.753" y1="147.81" y2="71.021" gradientUnits="userSpaceOnUse"><stop stop-color="#3a8fff"/><stop offset="1" stop-color="#fff" stop-opacity="0"/></linearGradient><clipPath id="a"><path fill="#fff" d="M0 0h241v290H0z"/></clipPath></defs></svg>