<svg xmlns="http://www.w3.org/2000/svg" width="239" height="72" fill="none" viewBox="0 0 239 72"><path fill="#006d5c" d="M110.175 35.43c0 6.923-4.278 10.184-9.537 10.184h-3.223V41.5h3.025c3.223 0 5.328-1.698 5.328-6.007 0-4.246-2.039-6.398-5.459-6.398-3.288 0-5.657 2.024-5.657 6.333V52.8h-4.406V25.441h4.406v2.35h.658a7.2 7.2 0 0 1 2.61-2.145 7.3 7.3 0 0 1 3.31-.727c4.867 0 8.945 3.525 8.945 10.51m-29.138-1.763-2.959-.26c-2.301-.196-3.551-.85-3.551-2.155 0-1.57 1.58-2.482 3.813-2.482 2.301 0 3.813 1.108 3.947 2.612h4.277c-.197-3.918-3.223-6.332-8.155-6.332-4.933 0-8.287 2.61-8.287 6.397 0 3.2 2.038 5.223 6.642 5.681l3.026.261c1.84.197 3.026.523 3.026 2.285 0 1.57-1.116 2.677-4.144 2.677-2.763 0-4.144-1.24-4.605-2.937h-4.604c.465 3.784 3.683 6.79 9.207 6.79 5.195 0 8.55-2.743 8.55-6.725 0-3.656-2.368-5.418-6.183-5.81m46.305 5.68a4.98 4.98 0 0 1-1.942 2.11 5.03 5.03 0 0 1-2.793.697c-3.223 0-5.657-2.089-5.657-6.593 0-4.31 2.236-6.725 5.723-6.725 3.091 0 4.867 1.828 4.998 4.636h-7.958v3.198h12.299v-2.089c0-5.815-3.879-9.6-9.405-9.6-5.131 0-10.063 3.46-10.063 10.576s4.928 10.576 10.063 10.576a9 9 0 0 0 5.76-1.785 8.9 8.9 0 0 0 3.316-5.005zM57.491 24.92c-4.867 0-8.485 2.482-8.88 6.333h4.736c.33-1.437 1.644-2.482 4.144-2.482 3.223 0 4.278 1.698 4.278 3.722v6.923a8.2 8.2 0 0 1-2.699 2.151 8.2 8.2 0 0 1-3.353.852c-2.17 0-3.682-1.045-3.682-2.938 0-1.828 1.184-2.937 3.485-2.937h3.552v-3.2h-3.684c-5.064 0-7.892 2.482-7.892 6.333 0 3.59 2.762 6.332 7.235 6.332 2.312-.033 4.55-.81 6.38-2.215h.657v1.697h4.406V32.166c0-5.027-3.42-7.247-8.682-7.247M27.434 45.614h4.406V18h-4.406zM46.048 25.44h-5.394l-6.446 8.422v2.611l6.643 9.139h5.459l-7.76-10.444zm160.091 0-3.618 7.965a31 31 0 0 0-1.973 5.092h-.658a28.5 28.5 0 0 0-2.038-5.027l-3.553-8.031h-4.867l8.55 18.15-4.209 9.138h4.736l12.628-27.29zm-17.763 0h-5.393l-6.446 8.422v2.611l6.644 9.139h5.459l-7.761-10.446zm-27.69 8.226-2.959-.26c-2.303-.196-3.553-.85-3.553-2.155 0-1.57 1.581-2.482 3.813-2.482 2.302 0 3.813 1.108 3.947 2.612h4.278c-.197-3.918-3.223-6.332-8.155-6.332-4.933 0-8.288 2.61-8.288 6.397 0 3.2 2.04 5.223 6.644 5.681l3.025.261c1.841.197 3.025.523 3.025 2.285 0 1.57-1.116 2.677-4.144 2.677-2.762 0-4.144-1.24-4.603-2.937h-4.604c.465 3.784 3.683 6.79 9.206 6.79 5.196 0 8.556-2.743 8.556-6.725-.066-3.656-2.434-5.418-6.183-5.81m9.077 11.948h4.407V18h-4.407zm-29.201-17.823h-.657v-2.35h-4.406v20.173h4.407V35.103c0-3.591 1.644-5.68 4.999-5.68h2.828v-4.44h-1.645a5.75 5.75 0 0 0-3.18.594 5.7 5.7 0 0 0-2.345 2.213"/></svg>