<svg xmlns="http://www.w3.org/2000/svg" width="129" height="159" fill="none" viewBox="0 0 129 159"><g clip-path="url(#a)"><g fill-rule="evenodd" clip-path="url(#b)" clip-rule="evenodd"><path fill="#005bea" d="m15.953 91.506-2.588-1.759a3.9 3.9 0 0 1-.523-2.095l.014-41.74a9.63 9.63 0 0 1 4.368-7.557L76.03 4.435a3.1 3.1 0 0 1 3.081-.3l2.582 1.76a3.12 3.12 0 0 0-3.082.3l-58.805 33.92a9.67 9.67 0 0 0-4.368 7.555l-.015 41.741a3.84 3.84 0 0 0 .53 2.095"/><path fill="#005bea" d="m14.008 89.166.58.393a1 1 0 0 0-.009-.128l.022-41.763a10.57 10.57 0 0 1 4.768-8.278L78.19 5.463q.394-.222.815-.386l-.364-.244c-.55-.285-1.216-.207-2.2.337l-58.8 33.913a8.75 8.75 0 0 0-3.939 6.848l-.02 41.72a3.14 3.14 0 0 0 .328 1.516m1.944 3.181a.84.84 0 0 1-.479-.15L12.9 90.438a.76.76 0 0 1-.257-.264 4.76 4.76 0 0 1-.643-2.5l.014-41.763a10.44 10.44 0 0 1 4.77-8.27L75.607 3.704a3.99 3.99 0 0 1 3.9-.315l2.66 1.808a.84.84 0 0 1-.865 1.437 2.27 2.27 0 0 0-2.288.294L20.231 40.842a8.73 8.73 0 0 0-3.946 6.848l-.022 41.72a3.1 3.1 0 0 0 .415 1.666.85.85 0 0 1-.722 1.272z"/><path fill="#cee7fd" d="M19.807 40.11 78.613 6.19c2.4-1.387 4.36-.251 4.36 2.516l-.014 41.748a9.68 9.68 0 0 1-4.368 7.556L19.785 91.93c-2.4 1.387-4.368.25-4.361-2.524l.014-41.742a9.68 9.68 0 0 1 4.369-7.555"/><path fill="#005bea" d="M80.548 6.441a3.1 3.1 0 0 0-1.515.48L20.227 40.84a8.84 8.84 0 0 0-3.946 6.827l-.022 41.742a1.857 1.857 0 0 0 3.1 1.8l58.806-33.928a8.85 8.85 0 0 0 3.946-6.827l.015-41.748a2.32 2.32 0 0 0-.858-2.087 1.4 1.4 0 0 0-.722-.179zm-62.7 86.928a3.1 3.1 0 0 1-1.565-.407 3.88 3.88 0 0 1-1.7-3.553l.022-41.742a10.59 10.59 0 0 1 4.782-8.285l58.806-33.92a3.485 3.485 0 0 1 5.626 3.245l-.014 41.748a10.47 10.47 0 0 1-4.79 8.286L20.21 92.661a4.75 4.75 0 0 1-2.363.707z"/><path fill="#fff" d="m20.063 43.245 15.49-8.937L78.346 9.624c1.1-.636 1.994-.122 1.994 1.158l-.014 40.641a4.42 4.42 0 0 1-1.995 3.46L30.04 82.734l-9.994 5.77c-1.1.628-1.994.121-1.994-1.158l.014-40.64a4.42 4.42 0 0 1 1.996-3.46"/><path fill="#005bea" d="M79.233 10.194a1 1 0 0 0-.465.157L20.485 43.97a3.61 3.61 0 0 0-1.58 2.73l-.014 40.64c0 .33.085.523.164.566a.7.7 0 0 0 .572-.136l58.29-33.62a3.62 3.62 0 0 0 1.566-2.731l.02-40.641c0-.321-.085-.522-.164-.565a.2.2 0 0 0-.107-.021M19.155 89.609c-.331.004-.657-.08-.944-.244a2.23 2.23 0 0 1-1-2.022l.014-40.641a5.28 5.28 0 0 1 2.424-4.19l58.283-33.62a2.042 2.042 0 0 1 3.253 1.888l-.015 40.64a5.28 5.28 0 0 1-2.423 4.19L20.463 89.23a2.66 2.66 0 0 1-1.31.38z"/><path fill="#fff" d="m28.992 48.504 40.426-23.34V53.03L28.992 76.37z"/><path fill="#005bea" d="M29.828 48.992v25.92L68.58 52.546V26.624zm-.837 28.224a.8.8 0 0 1-.42-.115.83.83 0 0 1-.423-.73V48.507a.84.84 0 0 1 .422-.73l40.434-23.34a.84.84 0 0 1 1.257.73V53.03a.83.83 0 0 1-.421.729L29.407 77.1a.8.8 0 0 1-.416.116"/><path fill="#a6edf8" d="M39.235 49.228c.551-.314.994-.057.994.572a2.18 2.18 0 0 1-.994 1.716c-.543.315-.993.065-.993-.572a2.22 2.22 0 0 1 .993-1.716"/><path fill="#005bea" d="M38.792 52.485a1.36 1.36 0 0 1-.672-.172 1.52 1.52 0 0 1-.715-1.373 3 3 0 0 1 1.416-2.437 1.432 1.432 0 0 1 2.25 1.294 3.03 3.03 0 0 1-1.414 2.445 1.73 1.73 0 0 1-.865.243"/><path fill="#a6edf8" d="M39.235 55.381c.551-.322.994-.064.994.565a2.17 2.17 0 0 1-.994 1.716c-.543.315-.993.057-.993-.572a2.2 2.2 0 0 1 .993-1.709"/><path fill="#005bea" d="M38.792 58.643a1.3 1.3 0 0 1-.672-.18 1.51 1.51 0 0 1-.715-1.372 3.03 3.03 0 0 1 1.416-2.444 1.437 1.437 0 0 1 2.25 1.3 3.02 3.02 0 0 1-1.414 2.445c-.26.16-.56.247-.865.249z"/><path fill="#a6edf8" d="M39.235 61.913c.551-.315.994-.064.994.565a2.18 2.18 0 0 1-.994 1.715c-.543.315-.993.058-.993-.564a2.2 2.2 0 0 1 .993-1.716"/><path fill="#005bea" d="M38.791 65.175c-.235-.001-.467-.063-.672-.18a1.51 1.51 0 0 1-.715-1.364 3 3 0 0 1 1.416-2.444 1.432 1.432 0 0 1 2.251 1.293 3.03 3.03 0 0 1-1.415 2.445c-.261.157-.56.244-.865.25"/><path fill="#cee7fd" d="M123.34 83.063v3.188a3.45 3.45 0 0 1-1.744 2.015l-59.042 34.101a8.8 8.8 0 0 1-4.082 1.029 9.04 9.04 0 0 1-4.675-1.037l-36.252-20.966A3.5 3.5 0 0 1 15.8 99.37v-3.19a3.46 3.46 0 0 0 1.744 2.016l36.252 20.968a9.06 9.06 0 0 0 4.675 1.043 8.83 8.83 0 0 0 4.082-1.036l59.042-34.092a3.46 3.46 0 0 0 1.744-2.016"/><path fill="#005bea" d="M16.643 99.246a2.64 2.64 0 0 0 1.336 1.422l36.237 20.96a8.26 8.26 0 0 0 4.246.93 7.9 7.9 0 0 0 3.682-.937l59.034-34.078a2.7 2.7 0 0 0 1.322-1.422v-.63a8 8 0 0 1-.472.3l-59.056 34.107a10.51 10.51 0 0 1-9.586 0L17.12 98.924c-.157-.1-.321-.2-.48-.314zm41.659 24.995a9.76 9.76 0 0 1-4.911-1.151l-36.265-20.974a4.3 4.3 0 0 1-2.13-2.51 1 1 0 0 1-.03-.235v-3.19a.84.84 0 0 1 .723-.835.86.86 0 0 1 .922.6 2.62 2.62 0 0 0 1.373 1.537l36.237 20.953a7.93 7.93 0 0 0 4.246.929 7.8 7.8 0 0 0 3.682-.929l59.034-34.085a2.57 2.57 0 0 0 1.351-1.522.86.86 0 0 1 .929-.6.84.84 0 0 1 .722.836v3.189a.9.9 0 0 1-.035.236 4.3 4.3 0 0 1-2.116 2.5l-59.056 34.1a9.6 9.6 0 0 1-4.468 1.151z"/><path fill="#fff" d="M17.547 93.126 76.588 59.04a9.7 9.7 0 0 1 8.758 0l36.251 20.967c2.409 1.4 2.409 3.674 0 5.069l-59.042 34.092a9.72 9.72 0 0 1-8.757-.007L17.546 98.195c-2.408-1.394-2.408-3.674.001-5.07"/><path fill="#005bea" d="M17.969 93.852a2.35 2.35 0 0 0-1.387 1.81 2.31 2.31 0 0 0 1.387 1.8l36.25 20.966a8.896 8.896 0 0 0 7.921.007l59.042-34.093a1.871 1.871 0 0 0 1.386-1.808 1.87 1.87 0 0 0-1.394-1.802L84.923 59.766a8.86 8.86 0 0 0-7.913 0L17.969 93.85zm40.21 27.186a9.8 9.8 0 0 1-4.8-1.151L17.13 98.924a3.5 3.5 0 0 1 0-6.52l59.04-34.093a10.61 10.61 0 0 1 9.6 0l36.252 20.975a3.5 3.5 0 0 1 2.231 3.256 3.49 3.49 0 0 1-2.231 3.257l-59.042 34.099a9.86 9.86 0 0 1-4.8 1.142z"/><path fill="#cee7fd" d="m81.018 105.051 16.15-9.329L84.8 88.574l-16.148 9.33z"/><path fill="#005bea" d="m70.333 97.901 10.687 6.184 14.47-8.364-10.688-6.176zm10.687 7.992a.8.8 0 0 1-.422-.114L68.23 98.63a.835.835 0 0 1 0-1.45l16.15-9.337a.84.84 0 0 1 .842 0l12.367 7.148a.848.848 0 0 1 0 1.458l-16.148 9.329a.8.8 0 0 1-.42.116z"/><path fill="#cee7fd" d="M24.939 94.313q26.85-15.5 53.673-31a5.2 5.2 0 0 1 4.675.007l18.294 10.58a1.429 1.429 0 0 1-.008 2.7 392617 392617 0 0 1-53.665 31 5.15 5.15 0 0 1-4.675-.007l-18.294-10.58a1.429 1.429 0 0 1 0-2.7"/><path fill="#005bea" d="M25.358 95.044c-.336.193-.543.436-.543.622s.207.43.543.63l18.295 10.579a4.39 4.39 0 0 0 3.831 0l53.673-31c.335-.193.543-.436.543-.622s-.208-.429-.543-.622L82.863 64.043a4.4 4.4 0 0 0-3.832 0zm20.21 13.954a5.57 5.57 0 0 1-2.76-.672l-18.294-10.58a2.25 2.25 0 0 1 .008-4.154l53.665-31a6 6 0 0 1 5.513 0l18.299 10.58a2.25 2.25 0 0 1 1.381 2.083 2.26 2.26 0 0 1-1.388 2.078l-53.673 31a5.5 5.5 0 0 1-2.75.665"/><path fill="#fff" d="m48.5 91.348 2.638-1.523a2.13 2.13 0 0 1 1.93 0l2.638 1.523a.59.59 0 0 1 0 1.115l-2.645 1.523a2.12 2.12 0 0 1-1.923 0L48.5 92.463a.59.59 0 0 1 0-1.115"/><path fill="#005bea" d="m49.218 91.902 2.345 1.351a1.3 1.3 0 0 0 1.087 0l2.337-1.35-2.337-1.352a1.31 1.31 0 0 0-1.087 0zm2.888 3.153a2.8 2.8 0 0 1-1.387-.343l-2.638-1.53a1.418 1.418 0 0 1 0-2.567l2.645-1.522a2.96 2.96 0 0 1 2.766 0l2.638 1.522a1.424 1.424 0 0 1 0 2.574l-2.645 1.523c-.423.232-.899.35-1.381.343z"/><path fill="#fff" d="m38.136 97.332-2.63 1.523a.592.592 0 0 0-.008 1.115l2.638 1.523a2.14 2.14 0 0 0 1.93 0l2.638-1.523a.588.588 0 0 0 .007-1.115l-2.638-1.523a2.15 2.15 0 0 0-1.937 0"/><path fill="#005bea" d="m36.22 99.412 2.338 1.351a1.3 1.3 0 0 0 1.087 0l2.344-1.351-2.344-1.351a1.3 1.3 0 0 0-1.087 0zm2.88 3.152a2.8 2.8 0 0 1-1.378-.343l-2.645-1.523a1.52 1.52 0 0 1-.815-1.287 1.49 1.49 0 0 1 .822-1.287l2.638-1.523a2.98 2.98 0 0 1 2.774 0l2.638 1.523a1.51 1.51 0 0 1 .815 1.287 1.49 1.49 0 0 1-.822 1.287l-2.638 1.523a2.8 2.8 0 0 1-1.388.345z"/><path fill="#fff" d="m44.635 101.086-2.639 1.523a.588.588 0 0 0-.287.9.6.6 0 0 0 .287.215l2.639 1.523a2.13 2.13 0 0 0 1.922 0l2.639-1.516a.588.588 0 0 0 .295-.898.6.6 0 0 0-.288-.217l-2.637-1.53a2.13 2.13 0 0 0-1.931 0"/><path fill="#005bea" d="m42.717 103.162 2.338 1.359a1.3 1.3 0 0 0 1.087 0l2.337-1.351-2.337-1.358a1.3 1.3 0 0 0-1.087 0zm2.874 3.153a2.85 2.85 0 0 1-1.38-.336l-2.638-1.53a1.417 1.417 0 0 1 0-2.566l2.638-1.53a3.02 3.02 0 0 1 2.774 0l2.637 1.53a1.417 1.417 0 0 1 0 2.566l-2.645 1.53a2.9 2.9 0 0 1-1.386.331z"/><path fill="#fff" d="m40.073 93.983 2.637-1.529c.536-.3.536-.8 0-1.108l-2.638-1.523a2.1 2.1 0 0 0-1.924-.008l-2.638 1.523a.588.588 0 0 0 0 1.115l2.63 1.53a2.13 2.13 0 0 0 1.932 0"/><path fill="#005bea" d="m36.227 91.897 2.337 1.359a1.3 1.3 0 0 0 1.086 0l2.337-1.351-2.337-1.358a1.36 1.36 0 0 0-1.086 0zm2.88 3.153a2.8 2.8 0 0 1-1.38-.336l-2.644-1.53a1.418 1.418 0 0 1 0-2.567l2.645-1.53a2.98 2.98 0 0 1 2.766.008l2.638 1.522a1.412 1.412 0 0 1 0 2.567l-2.638 1.53c-.426.23-.904.346-1.387.336"/><path fill="#fff" d="m46.571 90.232 2.637-1.523a.589.589 0 0 0 .008-1.115l-2.639-1.53a2.16 2.16 0 0 0-1.93 0l-2.638 1.53c-.536.3-.536.8 0 1.108l2.639 1.53a2.12 2.12 0 0 0 1.923 0"/><path fill="#005bea" d="m42.725 88.146 2.337 1.358a1.3 1.3 0 0 0 1.087 0l2.345-1.351-2.338-1.358a1.36 1.36 0 0 0-1.094 0zm2.88 3.16a2.8 2.8 0 0 1-1.38-.344l-2.637-1.53a1.413 1.413 0 0 1 0-2.566l2.638-1.523a2.98 2.98 0 0 1 2.774 0l2.638 1.523a1.51 1.51 0 0 1 .815 1.287 1.49 1.49 0 0 1-.822 1.28l-2.638 1.529a2.8 2.8 0 0 1-1.387.342z"/><path fill="#fff" d="m36.212 96.213-2.638 1.522a2.14 2.14 0 0 1-1.93 0l-2.638-1.53a.585.585 0 0 1 0-1.108l2.645-1.53a2.12 2.12 0 0 1 1.923 0l2.638 1.53a.589.589 0 0 1 0 1.116"/><path fill="#005bea" d="m29.728 95.649 2.338 1.36a1.3 1.3 0 0 0 1.085 0l2.337-1.352-2.337-1.359a1.29 1.29 0 0 0-1.079 0zm2.881 3.16a2.9 2.9 0 0 1-1.387-.343l-2.638-1.53a1.5 1.5 0 0 1-.814-1.287 1.49 1.49 0 0 1 .822-1.279l2.638-1.523a2.96 2.96 0 0 1 2.765 0l2.639 1.523a1.417 1.417 0 0 1 0 2.566l-2.639 1.53a2.9 2.9 0 0 1-1.386.343"/><path fill="#fff" d="m42.002 95.101 2.638-1.523a2.13 2.13 0 0 1 1.93 0l2.639 1.523a.591.591 0 0 1 0 1.115l-2.645 1.522a2.12 2.12 0 0 1-1.923 0l-2.638-1.522a.59.59 0 0 1-.001-1.115"/><path fill="#005bea" d="m42.718 95.658 2.338 1.351a1.3 1.3 0 0 0 1.087 0l2.344-1.35-2.344-1.352a1.3 1.3 0 0 0-1.08 0zm2.888 3.152a2.8 2.8 0 0 1-1.387-.343l-2.638-1.53a1.417 1.417 0 0 1 0-2.566l2.645-1.523a2.96 2.96 0 0 1 2.76 0l2.644 1.53a1.49 1.49 0 0 1 .815 1.28 1.51 1.51 0 0 1-.815 1.287l-2.645 1.522c-.422.23-.898.348-1.379.34z"/><path fill="#fff" d="m61.496 83.839 2.638-1.522a2.14 2.14 0 0 1 1.93 0l2.638 1.53a.584.584 0 0 1 0 1.108l-2.638 1.522a2.13 2.13 0 0 1-1.93 0l-2.638-1.523a.591.591 0 0 1 0-1.115"/><path fill="#005bea" d="m62.219 84.399 2.338 1.35a1.3 1.3 0 0 0 1.087 0l2.337-1.35-2.338-1.35a1.3 1.3 0 0 0-1.087 0L62.218 84.4zm2.882 3.152a2.8 2.8 0 0 1-1.387-.343l-2.638-1.53a1.419 1.419 0 0 1 0-2.566l2.645-1.523a2.98 2.98 0 0 1 2.774 0l2.63 1.53a1.415 1.415 0 0 1-.006 2.566l-2.638 1.523a2.8 2.8 0 0 1-1.38.341z"/><path fill="#fff" d="m67.995 87.6 2.638-1.53a2.14 2.14 0 0 1 1.93 0l2.63 1.53a.588.588 0 0 1 0 1.115l-2.637 1.523a2.13 2.13 0 0 1-1.93 0l-2.638-1.53a.584.584 0 0 1 .007-1.108"/><path fill="#005bea" d="m68.71 88.148 2.337 1.358a1.3 1.3 0 0 0 1.087 0l2.344-1.351-2.337-1.36a1.36 1.36 0 0 0-1.094 0zm2.888 3.153a2.76 2.76 0 0 1-1.394-.344l-2.63-1.523a1.417 1.417 0 0 1 0-2.566l2.637-1.53a3.02 3.02 0 0 1 2.774 0l2.63 1.53a1.412 1.412 0 0 1 0 2.566l-2.638 1.523a2.7 2.7 0 0 1-1.379.348z"/><path fill="#fff" d="m53.068 86.477 2.644-1.53a.585.585 0 0 0 0-1.108l-2.637-1.522a2.13 2.13 0 0 0-1.93 0L48.5 83.832a.59.59 0 0 0 0 1.115l2.644 1.53a2.12 2.12 0 0 0 1.924 0"/><path fill="#005bea" d="m49.218 84.392 2.345 1.358a1.3 1.3 0 0 0 1.079 0h.007l2.337-1.351-2.337-1.36a1.37 1.37 0 0 0-1.086 0zm2.88 3.159a2.8 2.8 0 0 1-1.378-.344l-2.638-1.53a1.5 1.5 0 0 1-.822-1.286 1.48 1.48 0 0 1 .822-1.28l2.638-1.529a3 3 0 0 1 2.774.008l2.638 1.523a1.51 1.51 0 0 1 .815 1.287 1.49 1.49 0 0 1-.822 1.279l-2.638 1.53c-.424.231-.9.35-1.383.341z"/><path fill="#fff" d="m59.574 82.723 2.638-1.523a.59.59 0 0 0 0-1.115l-2.638-1.523a2.14 2.14 0 0 0-1.93 0l-2.638 1.523a.585.585 0 0 0 0 1.11l2.638 1.53a2.14 2.14 0 0 0 1.93-.002"/><path fill="#005bea" d="m55.727 80.639 2.337 1.359a1.3 1.3 0 0 0 1.086 0l2.338-1.351-2.338-1.36a1.3 1.3 0 0 0-1.086 0zm2.881 3.159a2.8 2.8 0 0 1-1.387-.343l-2.638-1.531a1.412 1.412 0 0 1 0-2.565l2.638-1.523a2.97 2.97 0 0 1 2.774 0l2.638 1.523a1.417 1.417 0 0 1 0 2.565l-2.645 1.53a2.8 2.8 0 0 1-1.38.342z"/><path fill="#fff" d="m54.999 87.592 2.637-1.522a2.13 2.13 0 0 1 1.93 0l2.639 1.522a.59.59 0 0 1 0 1.115l-2.639 1.523a2.14 2.14 0 0 1-1.93 0l-2.638-1.523a.59.59 0 0 1 0-1.115"/><path fill="#005bea" d="m55.713 88.149 2.345 1.359a1.34 1.34 0 0 0 1.087-.007l2.345-1.351-2.345-1.351a1.32 1.32 0 0 0-1.087 0zm2.888 3.153a2.8 2.8 0 0 1-1.386-.344l-2.638-1.53a1.417 1.417 0 0 1 0-2.566l2.638-1.523a2.98 2.98 0 0 1 2.773 0l2.638 1.53a1.49 1.49 0 0 1 .816 1.28 1.51 1.51 0 0 1-.822 1.286l-2.638 1.523a2.8 2.8 0 0 1-1.381.344"/><path fill="#fff" d="m48.497 98.86 15.634-9.035a2.13 2.13 0 0 1 1.93 0l2.638 1.529a.59.59 0 0 1 0 1.115l-15.634 9.029a2.2 2.2 0 0 1-1.93 0l-2.638-1.53a.585.585 0 0 1 0-1.107"/><path fill="#005bea" d="m49.216 99.41 2.338 1.359a1.3 1.3 0 0 0 1.086 0l15.334-8.857-2.337-1.36a1.3 1.3 0 0 0-1.08 0zm2.874 3.153c-.48.006-.955-.11-1.379-.336l-2.638-1.53a1.42 1.42 0 0 1-.815-1.284 1.42 1.42 0 0 1 .815-1.283h.007l15.635-9.036a2.96 2.96 0 0 1 2.766.007l2.638 1.523a1.412 1.412 0 0 1 0 2.566l-15.642 9.036a2.9 2.9 0 0 1-1.387.337"/><path fill="#fff" d="m83.1 71.35 2.638-1.523a2.18 2.18 0 0 1 1.93 0l2.638 1.53a.589.589 0 0 1-.007 1.114l-2.63 1.523a2.13 2.13 0 0 1-1.931 0L83.1 72.471a.6.6 0 0 1 0-1.12"/><path fill="#005bea" d="m83.811 71.918 2.344 1.35a1.3 1.3 0 0 0 1.087 0l2.337-1.35-2.337-1.36a1.37 1.37 0 0 0-1.087 0zm2.88 3.151a2.7 2.7 0 0 1-1.379-.35l-2.638-1.522a1.48 1.48 0 0 1-.815-1.28 1.51 1.51 0 0 1 .815-1.287l2.646-1.523a2.94 2.94 0 0 1 2.766 0l2.639 1.523a1.421 1.421 0 0 1-.009 2.575l-2.63 1.514a2.77 2.77 0 0 1-1.39.35z"/><path fill="#fff" d="m89.598 75.113 2.638-1.523a2.12 2.12 0 0 1 1.922 0l2.638 1.53a.584.584 0 0 1 0 1.108l-2.645 1.53a2.15 2.15 0 0 1-1.923-.007l-2.638-1.523a.59.59 0 0 1 .008-1.115"/><path fill="#005bea" d="m90.312 75.67 2.337 1.358a1.34 1.34 0 0 0 1.087 0l2.337-1.352-2.337-1.365a1.37 1.37 0 0 0-1.087 0zm2.882 3.151a2.8 2.8 0 0 1-1.388-.343l-2.637-1.522a1.42 1.42 0 0 1 .006-2.574l2.63-1.523a2.98 2.98 0 0 1 2.773.007l2.639 1.523a1.418 1.418 0 0 1 0 2.567l-2.645 1.522c-.422.232-.897.35-1.379.344"/><path fill="#fff" d="m81.17 70.243 2.646-1.531a.59.59 0 0 0 0-1.115l-2.646-1.523a2.12 2.12 0 0 0-1.922 0l-2.639 1.523a.59.59 0 0 0-.006 1.115l2.637 1.53a2.19 2.19 0 0 0 1.93 0"/><path fill="#005bea" d="m77.324 68.156 2.338 1.358a1.34 1.34 0 0 0 1.086 0l2.337-1.351-2.337-1.358a1.3 1.3 0 0 0-1.08 0zm2.882 3.153a2.8 2.8 0 0 1-1.38-.343l-2.644-1.523a1.424 1.424 0 0 1 0-2.574l2.645-1.523a2.94 2.94 0 0 1 2.766.007l2.645 1.523a1.419 1.419 0 0 1 0 2.566l-2.645 1.523a2.8 2.8 0 0 1-1.387.344"/><path fill="#fff" d="m76.604 75.113 2.638-1.523a2.14 2.14 0 0 1 1.93 0l2.638 1.523a.59.59 0 0 1 0 1.115l-2.638 1.523a2.14 2.14 0 0 1-1.93 0l-2.638-1.523a.592.592 0 0 1 0-1.115"/><path fill="#005bea" d="m77.324 75.67 2.338 1.351a1.28 1.28 0 0 0 1.086 0l2.337-1.351-2.337-1.358a1.37 1.37 0 0 0-1.086 0zm2.882 3.152a2.83 2.83 0 0 1-1.387-.343l-2.637-1.523a1.52 1.52 0 0 1-.815-1.287 1.5 1.5 0 0 1 .815-1.287l2.645-1.522a2.98 2.98 0 0 1 2.766 0l2.638 1.529a1.47 1.47 0 0 1 .815 1.28 1.49 1.49 0 0 1-.822 1.287l-2.63 1.523a2.8 2.8 0 0 1-1.389.344z"/><path fill="#fff" d="m83.1 78.863 2.637-1.523a2.13 2.13 0 0 1 1.931 0l2.63 1.53c.536.307.536.807 0 1.108l-2.638 1.53a2.13 2.13 0 0 1-1.93 0l-2.638-1.53a.59.59 0 0 1 .008-1.115"/><path fill="#005bea" d="m83.81 79.422 2.338 1.36a1.36 1.36 0 0 0 1.094 0l2.337-1.352-2.337-1.358a1.3 1.3 0 0 0-1.086 0zm2.88 3.153a2.85 2.85 0 0 1-1.378-.336l-2.638-1.53a1.424 1.424 0 0 1 0-2.574l2.638-1.522a3 3 0 0 1 2.774 0l2.63 1.53a1.417 1.417 0 0 1 0 2.566l-2.638 1.523c-.423.233-.9.35-1.382.343z"/><path fill="#fff" d="m68.17 77.75 2.646-1.523a.59.59 0 0 0 0-1.115l-2.645-1.53a2.12 2.12 0 0 0-1.923 0l-2.638 1.523a.59.59 0 0 0 0 1.115l2.638 1.53a2.12 2.12 0 0 0 1.923 0"/><path fill="#005bea" d="m64.327 75.664 2.345 1.358a1.3 1.3 0 0 0 1.086 0l2.338-1.351-2.338-1.358a1.3 1.3 0 0 0-1.086 0zm2.88 3.153a2.8 2.8 0 0 1-1.38-.343l-2.644-1.523a1.42 1.42 0 0 1 .007-2.573l2.638-1.523a2.96 2.96 0 0 1 2.767.008l2.645 1.522a1.417 1.417 0 0 1 0 2.566l-2.645 1.523c-.426.232-.903.35-1.387.343"/><path fill="#fff" d="m74.67 73.998 2.646-1.523a.6.6 0 0 0 0-1.122l-2.638-1.523a2.15 2.15 0 0 0-1.93 0l-2.638 1.523a.59.59 0 0 0 0 1.115l2.638 1.529a2.16 2.16 0 0 0 1.923 0"/><path fill="#005bea" d="m70.834 71.908 2.337 1.358a1.3 1.3 0 0 0 1.078 0h.009l2.337-1.35-2.337-1.36a1.32 1.32 0 0 0-1.087 0zm2.88 3.16a2.7 2.7 0 0 1-1.388-.351l-2.636-1.523a1.411 1.411 0 0 1 0-2.566l2.636-1.523a2.96 2.96 0 0 1 2.768 0l2.645 1.523a1.417 1.417 0 0 1 0 2.566l-2.645 1.523c-.421.237-.897.358-1.38.35"/><path fill="#fff" d="m70.11 78.863 2.639-1.523a2.12 2.12 0 0 1 1.923 0l2.645 1.523a.589.589 0 0 1-.008 1.115L74.67 81.5a2.13 2.13 0 0 1-1.931 0l-2.638-1.522a.588.588 0 0 1 .009-1.115"/><path fill="#005bea" d="m70.826 79.422 2.338 1.359a1.31 1.31 0 0 0 1.086 0l2.337-1.36-2.337-1.35a1.32 1.32 0 0 0-1.08-.006zm2.88 3.153a2.8 2.8 0 0 1-1.386-.343l-2.638-1.523a1.424 1.424 0 0 1 0-2.575h.008l2.637-1.522a2.96 2.96 0 0 1 2.767 0l2.645 1.53a1.48 1.48 0 0 1 .808 1.28 1.5 1.5 0 0 1-.815 1.287l-2.638 1.523c-.425.232-.903.35-1.387.343"/><path fill="#fff" d="m76.603 82.617 2.638-1.523a2.13 2.13 0 0 1 1.93 0l2.638 1.53a.584.584 0 0 1-.007 1.11l-2.631 1.528a2.15 2.15 0 0 1-1.936 0l-2.631-1.529a.591.591 0 0 1-.001-1.116"/><path fill="#005bea" d="m77.318 83.176 2.345 1.358a1.3 1.3 0 0 0 1.086 0l2.337-1.351-2.337-1.36a1.3 1.3 0 0 0-1.086 0l-2.345 1.352m2.88 3.16a2.7 2.7 0 0 1-1.379-.35l-2.637-1.523a1.48 1.48 0 0 1-.815-1.28 1.5 1.5 0 0 1 .815-1.286l2.645-1.522a2.95 2.95 0 0 1 2.766 0l2.638 1.522a1.51 1.51 0 0 1 .815 1.287 1.48 1.48 0 0 1-.822 1.279l-2.63 1.523a2.77 2.77 0 0 1-1.396.35M58.522 123.394v-3.188h-.05a9.1 9.1 0 0 1-4.675-1.043L17.545 98.196A3.46 3.46 0 0 1 15.8 96.18v3.189a3.47 3.47 0 0 0 1.744 2.023l36.252 20.967a9.07 9.07 0 0 0 4.675 1.036zM43.068 55.153a.84.84 0 0 1-.422-1.566l15.805-9.129a.837.837 0 1 1 .837 1.451l-15.806 9.13a.8.8 0 0 1-.414.114M43.068 49.005a.84.84 0 0 1-.422-1.566l15.805-9.13a.84.84 0 0 1 1.248.943.84.84 0 0 1-.411.509L43.482 48.89a.8.8 0 0 1-.414.115M43.068 61.687a.84.84 0 0 1-.422-1.566l12.782-7.385a.83.83 0 0 1 1.144.309.843.843 0 0 1-.307 1.15l-12.782 7.378a.8.8 0 0 1-.415.114"/></g></g><path fill="#000" d="M16.486 155.154q-.729 0-1.162-.224-.42-.224-.602-.77-.183-.56-.182-1.568v-3.654h-.994V148h.994v-2.142h1.078V148h2.198v.938h-2.198v3.332q0 .742.056 1.162.07.406.28.574t.658.168q.14 0 .364-.014l.448-.028q.237-.029.42-.042l.07.91q-.197.028-.462.056-.267.042-.532.07a4 4 0 0 1-.434.028m5.09-.014q-1.05 0-1.666-.406-.601-.406-.868-1.204t-.266-1.988q0-1.33.364-2.128.363-.811 1.022-1.176.659-.378 1.554-.378 1.4 0 2.114.784.714.77.714 2.492l-.056.826h-4.606q.014 1.092.406 1.652.391.56 1.414.56.392 0 .854-.014l.938-.056q.462-.028.784-.056l.028.854q-.337.056-.826.112-.476.055-.98.084-.504.042-.924.042m-1.694-4.06h3.57q0-1.288-.42-1.792-.406-.518-1.316-.518-.588 0-.994.238-.405.224-.63.728-.21.504-.21 1.344m8.874 4.06q-1.106 0-1.736-.364-.63-.378-.896-1.204-.252-.827-.252-2.184 0-1.274.28-2.044.294-.785.938-1.134.645-.35 1.68-.35.238 0 .574.042.35.029.714.084.364.042.63.084l-.042.896q-.238-.028-.546-.056a13 13 0 0 0-.602-.042 5 5 0 0 0-.49-.028q-.798 0-1.246.252-.435.252-.616.812-.168.546-.168 1.484 0 1.022.154 1.638.154.602.588.868.435.266 1.288.266.195 0 .49-.014l.616-.056q.322-.029.56-.042l.028.896a19 19 0 0 1-1.358.154q-.35.042-.588.042m3.508-.14v-10.038h1.078v3.416q.252-.112.602-.224.364-.126.77-.21.405-.084.77-.084.728 0 1.19.196.462.182.714.602.266.406.364 1.064.098.644.098 1.568V155h-1.092v-3.668q0-.91-.112-1.456-.098-.546-.406-.784-.309-.252-.952-.252-.35 0-.728.07a5 5 0 0 0-.686.154 7 7 0 0 0-.532.182V155zm7.533 0v-7h1.078v.49q.239-.14.588-.28.365-.14.77-.238a3 3 0 0 1 .784-.112q.728 0 1.19.196.462.182.714.602.266.406.364 1.064.112.644.112 1.568V155h-1.092v-3.668q0-.91-.112-1.456-.097-.546-.42-.784-.308-.252-.952-.252-.35 0-.728.084a4 4 0 0 0-.686.196 4 4 0 0 0-.532.224V155zm7.533 0v-7h1.078v7zm0-8.54v-1.26h1.078v1.26zm5.68 8.68q-1.106 0-1.736-.364-.63-.378-.896-1.204-.252-.827-.252-2.184 0-1.274.28-2.044.294-.785.938-1.134.645-.35 1.68-.35.238 0 .574.042.35.029.714.084.364.042.63.084l-.042.896q-.238-.028-.546-.056a13 13 0 0 0-.602-.042 5 5 0 0 0-.49-.028q-.798 0-1.246.252-.435.252-.616.812-.168.546-.168 1.484 0 1.022.154 1.638.154.602.588.868.435.266 1.288.266.196 0 .49-.014l.616-.056q.322-.029.56-.042l.028.896a19 19 0 0 1-1.358.154q-.35.042-.588.042m5.034 0q-.966 0-1.47-.546t-.504-1.596q0-.686.238-1.12.237-.434.714-.658.49-.239 1.204-.294l2.156-.21v-.602q0-.714-.322-1.008-.309-.294-.924-.294-.351 0-.84.028a34 34 0 0 0-1.792.154l-.056-.826q.335-.07.812-.14.475-.07.994-.112.517-.056.952-.056.798 0 1.302.252.504.238.728.742.238.49.238 1.26v3.542q.027.308.238.448.224.14.56.182l-.042.854q-.196 0-.378-.014a2 2 0 0 1-.35-.056 4 4 0 0 1-.308-.07 2.5 2.5 0 0 1-.35-.168 2.3 2.3 0 0 1-.308-.238 7 7 0 0 1-.686.238q-.406.126-.882.21a4.5 4.5 0 0 1-.924.098m.182-.91q.378 0 .784-.07a9 9 0 0 0 1.372-.35v-2.282l-2.03.196q-.63.056-.91.364-.267.308-.266.882 0 .588.266.924.265.336.784.336m5.403.77v-10.038h1.078V155zm8.444.14q-.322 0-.784-.042a30 30 0 0 1-.896-.098l-.798-.126.056-.938q.35.042.784.098.448.056.868.098.42.028.672.028.574 0 .952-.098.378-.112.574-.364t.196-.714q0-.35-.154-.546-.141-.196-.546-.322-.392-.126-1.148-.238a8 8 0 0 1-1.316-.308q-.519-.196-.77-.574-.252-.378-.252-1.078 0-.784.364-1.232t.938-.63a3.8 3.8 0 0 1 1.218-.196q.392 0 .854.042.475.042.924.112.448.056.77.112l-.028.938q-.337-.056-.784-.098a15 15 0 0 0-.896-.084 9 9 0 0 0-.784-.042q-.42 0-.756.098a1 1 0 0 0-.532.308q-.195.224-.196.63 0 .308.14.504.14.182.532.308t1.134.252q.867.14 1.386.35.532.21.77.588t.238 1.064q0 .811-.336 1.302-.323.476-.938.686-.602.21-1.456.21m6.465 0q-.895 0-1.372-.364-.475-.365-.658-1.134-.168-.77-.168-1.988V148h1.078v3.654q0 .924.084 1.47.099.546.406.798.309.238.924.238.616 0 1.12-.168t.812-.336V148h1.078v7h-1.078v-.49a7 7 0 0 1-.98.448q-.517.182-1.246.182m5.324 2.954V148h1.078v.504q.223-.14.56-.28.35-.155.742-.252.391-.112.755-.112.896 0 1.457.378.56.364.826 1.148.28.784.28 2.03 0 1.372-.323 2.198-.308.811-.993 1.176-.672.35-1.75.35-.435 0-.882-.056-.435-.056-.672-.098v3.108zm2.576-3.906q.756 0 1.19-.28.447-.28.63-.882.18-.616.181-1.61 0-1.414-.42-1.988-.42-.588-1.175-.588-.337 0-.7.084a5 5 0 0 0-.672.21 3 3 0 0 0-.532.238v4.676l.657.084q.435.056.84.056m4.82 3.906V148h1.078v.504q.224-.14.56-.28.35-.155.742-.252.392-.112.756-.112.896 0 1.456.378.56.364.826 1.148.28.784.28 2.03 0 1.372-.322 2.198-.308.811-.994 1.176-.672.35-1.75.35-.434 0-.882-.056-.434-.056-.672-.098v3.108zm2.576-3.906q.755 0 1.19-.28.449-.28.63-.882.182-.616.182-1.61 0-1.414-.42-1.988-.42-.588-1.176-.588-.336 0-.7.084a5 5 0 0 0-.672.21 3 3 0 0 0-.532.238v4.676l.658.084q.435.056.84.056m7.508.952q-1.176 0-1.834-.406-.643-.406-.91-1.232-.251-.826-.251-2.086 0-1.204.28-1.988.294-.784.952-1.176t1.763-.392q1.12 0 1.778.392.659.392.938 1.176.294.784.294 1.988 0 1.26-.266 2.086-.252.826-.91 1.232-.643.406-1.834.406m0-.938q.813 0 1.218-.28.406-.294.532-.91.14-.617.14-1.596 0-.966-.168-1.54t-.574-.826-1.148-.252q-.728 0-1.148.252-.406.252-.573.826-.168.574-.168 1.54 0 .98.126 1.596.14.616.545.91.407.28 1.218.28m4.723.798v-7h1.078v.938q.266-.182.672-.392a8 8 0 0 1 .896-.42q.49-.196.98-.28v1.106q-.477.098-.966.266a9.5 9.5 0 0 0-1.582.658V155zm7.149.154q-.728 0-1.162-.224-.42-.224-.602-.77-.182-.56-.182-1.568v-3.654h-.994V148h.994v-2.142h1.078V148h2.198v.938h-2.198v3.332q0 .742.056 1.162.07.406.28.574t.658.168q.14 0 .364-.014l.448-.028q.239-.029.42-.042l.07.91q-.196.028-.462.056-.266.042-.532.07a4 4 0 0 1-.434.028"/><defs><clipPath id="a"><path fill="#fff" d="M0 0h129v125H0z"/></clipPath><clipPath id="b"><path fill="#fff" d="M7 1h122v125H7z"/></clipPath></defs></svg>