<svg width="236" height="79" viewBox="0 0 236 79" fill="none" xmlns="http://www.w3.org/2000/svg">
<path d="M45.0461 23.6017C47.8804 19.2712 51.0442 15.6064 54.2114 13.4379C55.8592 12.2745 57.7081 11.6055 59.2076 11.6055C60.5259 11.6055 62.0419 11.935 61.8738 13.774C61.7057 16.4369 57.2104 19.7689 51.878 22.1022C51.3771 22.2703 50.3785 22.7613 49.7128 22.936C48.2132 25.767 46.8785 28.4332 45.7151 30.7666C39.539 42.7595 30.3869 47.4262 20.0582 48.0919C15.8925 48.26 10.5601 47.9272 7.06337 45.4257C4.0643 47.9272 1.56288 50.5901 0.732373 52.7586C0.564294 53.2563 0.402805 53.5891 0.0732373 53.4178C-0.0915467 53.4178 0.0732373 52.7586 0.0732373 52.4291C0.907044 50.099 3.07231 47.2647 6.07137 44.4337C5.05185 43.4807 4.25464 42.3149 3.73632 41.0191C3.21801 39.7233 2.99131 38.3293 3.07231 36.9361C3.73144 29.1055 13.9019 24.9398 19.7353 24.6069C23.8977 24.2774 30.3968 25.1079 32.562 28.6079C37.0508 26.9337 40.8836 25.2694 45.0461 23.6017ZM19.7254 25.4341C14.2249 25.7637 6.39435 29.267 5.88352 36.7647C5.71544 39.4276 6.54266 41.7609 7.71592 43.0957C8.47227 42.3387 9.31008 41.6678 10.214 41.0952C11.6228 39.867 13.1271 38.7528 14.7126 37.7633C13.8465 36.9707 13.2613 35.9182 13.045 34.7642C13.045 34.4346 13.045 33.9304 13.2131 33.9304C13.3812 33.9304 13.3812 34.26 13.3812 34.5895C13.6887 35.6525 14.3315 36.5877 15.2136 37.2557C18.7235 35.2652 22.4015 33.2647 25.8883 31.7651C27.7207 30.9313 29.3883 30.1173 31.2207 29.4318C29.5531 25.767 23.555 24.9332 19.7254 25.4341ZM15.8925 38.7619C14.2249 39.9285 12.7254 40.9271 11.061 42.0938C10.0723 42.7529 9.22863 43.4121 8.39483 44.0943C11.3939 46.9253 16.3934 47.591 20.724 47.2581C29.2202 46.599 35.3831 41.0952 41.0484 30.5985C42.2151 28.6013 43.3818 26.6008 44.5484 24.7684C40.7156 26.4163 37.0508 27.9323 33.2179 29.7647C33.559 30.5539 33.7297 31.4063 33.7188 32.2661C33.5508 37.5952 27.2197 40.5943 22.0554 40.5943C20.0582 40.4295 17.7249 39.9285 15.8925 38.7619ZM31.8864 32.098C31.9212 31.4844 31.8646 30.8691 31.7184 30.2722C30.0705 31.106 28.2216 31.9398 26.3892 32.7703C23.0575 34.4021 19.8304 36.2391 16.7263 38.2708C18.3624 39.1545 20.1961 39.6081 22.0554 39.5891C26.2212 39.5957 31.5536 36.7647 31.8864 32.098ZM51.7099 21.1036C56.0438 19.2712 60.7072 16.2722 61.04 13.6059C61.2081 12.4393 60.2095 11.9383 59.2076 12.1064C58.0409 12.2745 56.8743 13.0951 55.5428 14.2717C54.0433 15.5899 51.878 18.7703 50.2104 21.6013C50.7183 21.4608 51.2188 21.2947 51.7099 21.1036Z" fill="#2A567D"/>
<path d="M45.7152 39.2609C45.2142 39.7618 44.8814 39.92 44.7265 39.7618C44.5716 39.6036 44.8945 39.1027 45.2274 38.7731C45.993 38.0275 46.8297 37.3586 47.7255 36.7759C48.9471 35.9096 50.2278 35.1299 51.5584 34.4426C53.8917 33.2759 56.3899 32.4421 58.2223 32.2773C58.7232 32.2773 59.3889 32.2773 59.3889 32.6069C59.3889 32.7717 59.2209 32.7717 58.5551 33.1079C56.7227 33.9384 55.0551 35.2731 52.8899 37.4384C50.5598 39.7717 48.3912 42.9356 48.2265 44.4351C48.2265 45.2689 48.3912 45.7534 49.3931 45.7534C51.2255 45.7534 54.3894 43.5881 56.7227 40.9219C56.7227 40.0914 57.0523 38.9247 58.2223 37.59C58.8529 36.7048 59.7181 36.0131 60.7204 35.5928C60.8523 34.9914 60.9088 34.3758 60.8885 33.7604C60.8885 32.9266 60.5589 32.5937 60.8885 32.4421C61.218 32.2905 61.719 32.6102 62.0551 32.9431C62.4295 33.305 62.7139 33.7496 62.8856 34.2412C63.0573 34.7328 63.1115 35.2578 63.0438 35.7741C62.8758 37.6065 61.0434 39.9398 58.5452 42.2731C58.8748 42.4379 59.7119 42.2731 60.0448 42.2731C61.0223 42.0426 61.9343 41.5917 62.711 40.9549C63.6997 40.2957 64.3588 39.6366 65.2091 38.9577C65.8682 38.2986 66.3758 37.969 66.5274 38.1239C66.679 38.2788 66.3626 38.783 65.5387 39.6234C64.7724 40.3692 63.9358 41.0391 63.0405 41.6239C61.7058 42.4544 60.8753 42.9422 60.0415 43.1234C59.3823 43.2882 58.3739 43.2882 57.8762 42.9553C55.8757 44.623 52.0429 46.7882 48.7109 46.7882C46.2128 46.7882 44.7133 45.6216 44.8814 43.2882C44.8814 41.6404 45.8701 39.7915 47.3795 38.1239C46.5457 38.4271 46.3809 38.7599 45.7152 39.2609Z" fill="#2A567D"/>
<path d="M105.69 0.609375C107.522 0.609375 108.188 1.92765 107.855 3.44036C107.196 7.27324 99.5267 13.6042 91.5281 20.2681C86.6966 24.2658 80.5337 29.0972 75.7088 33.263C71.5431 38.4273 69.2098 41.5944 66.3788 45.5921C67.5697 45.3094 68.7341 44.9246 69.859 44.4419C71.4225 43.7941 72.9275 43.0134 74.3576 42.1086C75.963 41.0859 77.4691 39.9152 78.8562 38.6119C79.1858 38.2823 79.8449 37.6232 80.1745 37.9527C80.3393 38.1175 79.6735 38.7832 79.5154 39.1161C77.9579 40.6489 76.2243 41.9919 74.351 43.1171C72.1858 44.4353 69.5196 45.4471 68.02 46.1161C67.1895 46.4457 66.3557 46.7753 66.0228 47.4344C65.5703 48.2359 65.1802 49.071 64.8562 49.9325C63.5379 54.0983 61.0233 60.2612 58.1923 65.0926C55.6942 69.5912 52.1942 74.4227 49.0303 76.9241C47.8637 77.9128 46.697 78.4204 45.5303 78.2424C44.5416 78.0743 43.8627 77.0757 44.212 75.2433C45.0425 70.9128 50.375 61.7475 56.0402 53.917C60.0379 48.4198 65.3703 41.4231 70.0337 35.593C69.045 36.2522 67.2027 37.9264 65.8679 39.2578C65.3703 39.5874 65.2088 39.7588 65.0374 39.5874C64.8661 39.416 65.0374 39.2578 65.5351 38.7536C67.5754 36.7771 69.7467 34.9406 72.0342 33.2564C75.699 28.7578 78.5299 25.093 80.8633 22.262C87.0295 15.1104 95.1929 6.7723 99.1906 3.94131C101.026 2.27699 103.356 0.609375 105.69 0.609375ZM54.544 61.909C51.8778 65.9067 48.213 71.572 46.8782 74.571C46.3806 75.5597 46.5487 76.2353 46.8782 76.4034C47.3792 76.5682 47.8669 76.4034 48.8787 75.7443C50.8792 74.0767 54.2111 70.079 57.5431 64.249C60.5421 59.0846 63.5412 51.2541 64.5398 47.7541C59.5402 54.4212 59.0426 55.4198 54.544 61.909ZM90.8624 19.4343C98.5248 12.6056 105.522 6.43943 105.858 2.9559C105.858 1.9672 105.528 1.45636 104.523 1.45636C103.205 1.45636 101.359 3.12068 99.5267 4.62022C96.8605 7.12164 93.3605 10.9512 89.1948 15.9508C83.3647 22.9475 81.3675 25.4456 77.0337 31.1109C84.6896 24.5986 87.3624 22.6014 90.8624 19.4343Z" fill="#2A567D"/>
<path d="M79.3676 39.0914C78.8666 39.5924 78.5338 39.5924 78.3789 39.421C78.224 39.2496 78.3789 38.9234 78.8765 38.4323C81.0418 36.5999 83.2103 34.5994 84.7099 33.268H81.8756C81.3779 33.268 80.8869 33.268 81.0418 32.9384C81.0418 32.6088 81.8756 32.6088 83.2103 32.4375H85.3756C87.8737 29.4384 91.0409 25.9417 92.8733 24.1093C94.3728 22.6097 96.2052 20.7773 97.8695 20.7773C98.7033 20.7773 99.0362 20.9421 99.0362 21.275C98.0475 22.1088 96.0371 24.4421 94.2047 26.4393C92.4965 28.3007 90.8839 30.2477 89.3733 32.2727H93.8719C94.531 32.2727 95.0385 32.2727 95.0385 32.7703C95.0385 33.268 94.2047 33.0999 93.539 33.0999H88.6976C87.03 34.929 84.3605 39.0914 83.0423 41.9257C82.5413 42.7562 82.3831 43.9229 83.0423 44.2558C83.5432 44.4238 84.3605 44.2558 85.0427 43.9262C86.3278 43.2541 87.5537 42.4747 88.7075 41.5962C89.9888 40.6116 91.2125 39.5541 92.3723 38.429C92.7019 38.0994 93.2061 37.5952 93.539 37.9314C93.7038 38.0961 93.539 38.2609 93.038 38.9201C91.5259 40.4188 89.9116 41.8107 88.2066 43.0858C86.6972 44.2558 83.8662 46.4177 80.8671 46.4177C79.0347 46.4177 78.369 45.429 78.5338 44.2492C78.7018 42.252 80.5342 39.4177 82.8643 36.4219C81.5893 37.1585 80.4141 38.0557 79.3676 39.0914Z" fill="#2A567D"/>
<path d="M112.354 32.2656C114.022 32.2656 114.186 32.5952 113.343 33.5839C112.354 34.7506 110.512 36.751 108.847 38.9163C107.859 40.2346 106.847 41.5825 106.013 42.7459C105.512 43.7346 105.512 44.4135 105.848 44.5816C106.178 44.9111 107.012 44.5816 107.681 44.252C108.511 43.9224 110.011 42.7525 111.345 41.7539C112.679 40.7101 113.957 39.598 115.175 38.422C115.676 38.0924 116.009 37.5881 116.342 37.9243C116.51 38.0891 116.177 38.5834 115.353 39.4205C113.919 40.7735 112.418 42.0528 110.854 43.2534C109.19 44.5882 106.689 46.4206 104.026 46.4206C102.526 46.4206 101.857 45.7614 101.692 44.753C101.708 43.6955 102.125 42.6835 102.859 41.922C100.859 43.7544 97.1938 46.4206 94.0266 46.5854C92.1942 46.5854 90.3618 45.9262 90.6947 43.4215C90.8628 42.2548 91.5285 40.9201 92.8632 39.2558L91.8745 40.2445C91.545 40.4125 91.3769 40.574 91.2154 40.4125C91.0539 40.2511 91.3835 39.7534 92.3821 38.913C92.5469 38.7449 94.0464 37.5947 94.7154 37.0806C95.5459 36.5797 96.8807 35.5811 98.3802 34.9153C101.544 33.2477 104.21 32.4139 106.376 32.7468C108.043 32.9149 108.541 34.4144 108.043 35.7459C109.688 33.4323 111.022 32.2656 112.354 32.2656ZM98.512 38.0957C95.1801 41.2628 93.8487 43.4281 94.0134 44.4267C94.0134 44.9276 94.5144 45.2605 95.0022 45.2605C96.5017 45.2605 99.5008 43.4281 101.666 41.5957C104.164 39.4271 107.163 35.9304 107.163 34.5957C107.163 33.596 106.663 33.0972 105.664 33.0994C104.191 33.0994 101.36 35.2647 98.5318 38.0957H98.512Z" fill="#2A567D"/>
<path d="M118.183 46.5888C115.184 46.5888 113.853 45.4221 114.021 43.2569C114.186 41.609 115.01 39.9249 116.351 38.4254C115.945 38.8506 115.504 39.2409 115.033 39.5921C114.532 39.9216 114.199 40.2512 114.044 40.093C113.889 39.9348 114.209 39.5921 114.542 39.2592C115.53 38.2705 116.374 37.7597 117.541 36.9259C118.749 36.0389 120.031 35.2582 121.374 34.5925C124.04 33.0963 126.706 32.0944 128.703 32.4273C130.536 32.7568 131.201 33.9268 130.869 35.4263C130.536 36.9259 129.204 38.0925 128.202 38.0925C126.884 38.0925 126.884 36.9259 127.543 35.7592C128.377 34.2597 128.71 33.2611 127.711 33.0963C126.877 32.9282 125.045 34.085 122.712 36.4282C120.546 38.5935 118.546 41.5926 118.213 43.5897C118.048 44.7564 118.714 45.4221 120.046 45.4221C121.034 45.4221 123.878 44.9245 127.378 42.5911C129.06 41.4063 130.673 40.1266 132.21 38.7583C132.708 38.4287 132.869 38.2606 133.04 38.4287C133.212 38.5968 132.876 38.9296 132.381 39.4174C130.896 40.7768 129.339 42.0563 127.718 43.2503C124.884 45.0827 121.054 46.5822 118.22 46.5822L118.183 46.5888Z" fill="#2A567D"/>
<path d="M135.18 36.9268C134.013 37.9155 133.179 38.5944 132.346 39.2602C131.686 39.7611 131.357 40.094 131.179 39.9193C131.001 39.7446 131.179 39.4184 132.013 38.601C133.793 36.9697 135.686 35.4665 137.678 34.1024C139.678 32.6029 140.842 32.27 142.341 32.27C144.009 32.27 144.174 32.4348 143.175 33.5883C142.177 34.7418 140.677 36.5874 139.009 38.5878C137.922 39.9686 136.92 41.4148 136.01 42.9184C135.676 43.5775 135.676 44.0773 136.01 44.4179C136.34 44.7475 136.999 44.586 137.843 44.2498C139.678 43.2611 141.343 42.0846 143.841 40.0874C147.674 37.0883 149.839 35.0878 152.505 33.0906C153.145 32.5198 153.982 32.2207 154.839 32.2568C156.157 32.2568 157.004 32.4216 156.005 33.5751C154.506 35.4075 153.339 36.5742 151.839 38.7394C150.505 40.4071 149.506 41.9066 148.84 42.7371C148.339 43.5709 148.339 44.2366 148.672 44.5728C149.005 44.909 149.661 44.7376 150.505 44.4047C151.348 44.0719 152.838 43.0864 154.17 42.0714C155.504 41.0275 156.783 39.9154 158.002 38.7394C158.503 38.2418 158.991 37.9089 159.169 38.2418C159.337 38.4066 158.84 39.0723 158.51 39.2305C157.521 40.2192 155.511 41.8967 153.678 43.3962C152.179 44.5629 149.513 46.5601 146.847 46.5601C145.182 46.5601 144.348 45.901 144.348 44.7277C144.348 43.5544 144.849 42.5624 145.667 41.3958C146.5 40.0775 148 38.5648 149.331 37.23C147.667 38.5648 145.001 40.73 143.004 42.2296C139.672 44.7277 136.838 46.5601 134.504 46.5601C132.84 46.5601 131.841 45.7263 131.841 44.3948C131.841 43.2282 132.672 42.0615 133.341 41.0629C135.034 38.7865 136.929 36.6675 139.003 34.7319C138.011 34.7616 136.343 35.9282 135.18 36.9268Z" fill="#2A567D"/>
<path d="M161.503 36.0931C160.336 37.0818 159.169 38.2616 158.171 39.0921C157.67 39.4217 157.511 39.5931 157.337 39.2602C157.379 39.0126 157.493 38.7831 157.666 38.6011C157.996 38.2715 160.998 35.602 163.496 33.6015C165.497 30.9353 169.495 26.1039 172.826 22.2743C175.773 18.7923 178.946 15.5082 182.325 12.4433C183.313 11.6095 184.157 11.125 185.156 11.125C185.989 11.125 186.322 11.4546 186.322 11.6226C184.823 13.1222 177.826 20.7879 174.494 24.7856C169.162 31.2814 163.496 38.6274 161.664 42.2791C161.499 42.7767 161.005 43.9434 161.499 44.4443C161.997 44.7739 163.332 44.4443 163.997 43.9434C165.159 43.3026 166.272 42.579 167.329 41.7781C168.56 40.8554 169.729 39.8536 170.829 38.779C171.159 38.4495 171.818 37.9485 171.993 38.1199C172.167 38.2913 171.993 38.6209 171.495 39.1086C170.506 40.0973 168.496 41.7748 166.664 43.2744C164.999 44.441 162.168 46.4184 159.502 46.4184C157.838 46.4184 157.004 45.7593 157.004 44.2499C157.169 42.4175 159.169 39.2536 161.503 36.0865V36.0931Z" fill="#2A567D"/>
<path d="M171.498 39.2609C170.997 39.7618 170.664 39.92 170.509 39.7618C170.354 39.6036 170.674 39.1027 171.007 38.7731C171.773 38.0283 172.609 37.3595 173.505 36.7759C174.727 35.911 176.008 35.1314 177.338 34.4426C179.671 33.2759 182.169 32.4421 184.001 32.2773C184.502 32.2773 185.168 32.2773 185.168 32.6069C185.168 32.7717 185 32.7717 184.334 33.1079C182.502 33.9384 180.838 35.2731 178.672 37.4384C176.329 39.7618 174.164 42.9257 174.002 44.4417C174.002 45.2755 174.17 45.76 175.169 45.76C177.001 45.76 180.165 43.5947 182.499 40.9285C182.499 40.098 182.828 38.9313 183.998 37.5966C184.629 36.7114 185.494 36.0197 186.496 35.5994C186.628 34.9979 186.685 34.3824 186.664 33.767C186.664 32.9332 186.335 32.6003 186.664 32.4487C186.994 32.2971 187.498 32.6168 187.831 32.9497C188.206 33.3111 188.491 33.7557 188.663 34.2474C188.834 34.7391 188.888 35.2643 188.82 35.7807C188.655 37.6131 186.823 39.9464 184.321 42.2797C184.651 42.4445 185.488 42.2797 185.821 42.2797C186.798 42.0492 187.71 41.5983 188.487 40.9615C189.476 40.3023 190.155 39.6432 190.985 38.9643C191.644 38.3051 192.152 37.9756 192.32 38.1305C192.488 38.2854 192.152 38.7896 191.331 39.63C190.565 40.3758 189.728 41.0457 188.833 41.6305C187.515 42.461 186.668 42.9488 185.834 43.13C185.175 43.2948 184.186 43.2948 183.669 42.9619C181.668 44.6296 177.839 46.7948 174.507 46.7948C172.005 46.7948 170.509 45.6281 170.674 43.2948C170.674 41.647 171.662 39.7981 173.172 38.1305C172.531 38.3667 171.956 38.7546 171.498 39.2609Z" fill="#2A567D"/>
<path d="M194.156 36.9268C192.989 37.9155 192.155 38.5944 191.321 39.2602C190.662 39.7611 190.333 40.094 190.158 39.9193C189.983 39.7446 190.158 39.4184 190.989 38.601C192.768 36.9697 194.662 35.4665 196.654 34.1024C198.654 32.6029 199.821 32.27 201.321 32.27C202.985 32.27 203.153 32.4348 202.151 33.5883C201.149 34.7418 199.653 36.5874 197.985 38.5878C196.898 39.9676 195.897 41.4139 194.99 42.9184C194.653 43.5775 194.653 44.0773 194.99 44.4179C195.319 44.7475 195.978 44.586 196.822 44.2498C198.654 43.2611 200.319 42.0846 202.817 40.0874C206.65 37.0883 208.815 35.0878 211.481 33.0906C212.121 32.5198 212.958 32.2207 213.814 32.2568C215.133 32.2568 215.98 32.4216 214.981 33.5751C213.482 35.4075 212.315 36.5742 210.815 38.7394C209.497 40.4071 208.482 41.9066 207.816 42.7371C207.315 43.5709 207.315 44.2366 207.648 44.5728C207.981 44.909 208.637 44.7376 209.484 44.4047C210.331 44.0719 211.814 43.0864 213.149 42.0714C214.482 41.0276 215.76 39.9155 216.978 38.7394C217.479 38.2418 217.967 37.9089 218.145 38.2418C218.313 38.4066 217.815 39.0723 217.486 39.2305C216.497 40.2192 214.487 41.8967 212.654 43.3962C211.155 44.5629 208.489 46.5601 205.822 46.5601C204.175 46.5601 203.324 45.901 203.324 44.7277C203.324 43.5544 203.825 42.5624 204.643 41.3958C205.473 40.0775 206.973 38.5648 208.307 37.23C206.64 38.5648 203.974 40.73 201.976 42.2296C198.644 44.7277 195.81 46.5601 193.48 46.5601C191.812 46.5601 190.814 45.7263 190.814 44.3948C190.814 43.2282 191.648 42.0615 192.313 41.0629C194.006 38.7865 195.901 36.6675 197.975 34.7319C196.987 34.7616 195.322 35.9282 194.156 36.9268Z" fill="#2A567D"/>
<path d="M229.64 42.5912C231.806 41.2729 233.473 39.7602 234.973 38.5935C235.302 38.2639 235.806 37.9344 235.961 38.0926C236.116 38.2508 235.797 38.7517 235.128 39.4108C234.297 40.07 232.798 41.4113 231.13 42.578C229.534 43.5919 227.864 44.4832 226.134 45.2442C224.634 45.9033 221.8 46.7437 219.47 46.7437C215.304 46.7437 214.305 44.2423 214.638 41.9123C214.971 39.5822 216.804 37.7465 218.636 37.7465C219.803 37.7465 220.284 38.5803 220.136 39.5789C219.967 40.4127 219.476 41.0785 218.303 41.5794C217.644 41.909 216.471 42.8977 216.471 43.9094C216.471 45.2277 217.301 45.9099 218.801 45.9099C220.468 45.9099 222.469 44.5916 224.133 41.5794C225.633 39.2461 226.964 34.4146 227.798 33.416C226.964 34.2465 225.3 35.4132 223.965 36.4151C222.802 37.2456 221.635 38.0629 220.969 38.2475C220.64 38.4122 220.31 38.577 220.136 38.2475C220.136 38.0794 220.136 37.9179 220.465 37.5883C221.299 37.0907 222.466 36.2701 223.797 35.4231C225.297 34.4344 226.628 33.2578 228.46 31.5935C228.771 31.0362 229.234 30.5789 229.795 30.2752C230.463 29.7552 231.279 29.4629 232.125 29.4414C233.961 29.4414 232.784 30.4301 231.796 31.109C231.136 31.61 230.296 31.9428 229.963 32.2757C229.304 32.9348 229.466 33.594 229.466 34.441C229.466 36.6062 229.63 38.7715 228.806 40.9367C228.211 42.2067 227.36 43.3407 226.308 44.2687C227.452 43.7773 228.565 43.2171 229.64 42.5912Z" fill="#2A567D"/>
</svg>
