<svg xmlns="http://www.w3.org/2000/svg" width="236" height="79" fill="none" viewBox="0 0 236 79"><path fill="#2a567d" d="M45.046 23.602c2.834-4.33 5.998-7.996 9.165-10.164 1.648-1.164 3.497-1.833 4.997-1.833 1.318 0 2.834.33 2.666 2.169-.168 2.663-4.664 5.995-9.996 8.328-.5.168-1.5.66-2.165.834a351 351 0 0 0-3.998 7.83C39.54 42.76 30.387 47.427 20.058 48.093c-4.165.168-9.498-.165-12.995-2.666-2.999 2.501-5.5 5.164-6.33 7.333-.169.497-.33.83-.66.659-.165 0 0-.66 0-.989.834-2.33 3-5.164 5.998-7.995a9.5 9.5 0 0 1-2.999-7.498c.66-7.83 10.83-11.996 16.663-12.33 4.163-.329 10.662.502 12.827 4.002 4.489-1.674 8.322-3.339 12.484-5.006m-25.32 1.832c-5.501.33-13.332 3.833-13.842 11.33-.169 2.664.659 4.997 1.832 6.332a14.5 14.5 0 0 1 2.498-2 35 35 0 0 1 4.499-3.333 5.4 5.4 0 0 1-1.668-2.999c0-.33 0-.834.168-.834s.168.33.168.66a5.13 5.13 0 0 0 1.833 2.666c3.51-1.99 7.187-3.991 10.674-5.49 1.833-.835 3.5-1.649 5.333-2.334-1.668-3.665-7.666-4.499-11.496-3.998m-3.833 13.328c-1.668 1.166-3.168 2.165-4.832 3.332a33 33 0 0 0-2.666 2c2.999 2.831 7.998 3.497 12.329 3.164 8.496-.659 14.66-6.163 20.324-16.66 1.167-1.997 2.334-3.997 3.5-5.83-3.832 1.648-7.497 3.164-11.33 4.997a6.1 6.1 0 0 1 .5 2.501c-.167 5.33-6.498 8.328-11.663 8.328-1.997-.165-4.33-.666-6.162-1.832m15.993-6.664a6.2 6.2 0 0 0-.168-1.826c-1.648.834-3.496 1.668-5.329 2.498a90 90 0 0 0-9.663 5.5 11 11 0 0 0 5.33 1.32c4.165.006 9.498-2.825 9.83-7.492M51.71 21.104c4.334-1.833 8.997-4.832 9.33-7.498.168-1.167-.83-1.668-1.832-1.5-1.167.168-2.334.99-3.665 2.166-1.5 1.318-3.665 4.498-5.333 7.33q.763-.211 1.5-.498M45.715 39.26c-.5.502-.834.66-.989.502-.154-.158.169-.66.501-.989a16.4 16.4 0 0 1 2.499-1.997 32 32 0 0 1 3.832-2.333c2.334-1.167 4.832-2 6.664-2.166.501 0 1.167 0 1.167.33 0 .165-.168.165-.834.5-1.832.831-3.5 2.166-5.665 4.331-2.33 2.334-4.499 5.498-4.663 6.997 0 .834.164 1.318 1.166 1.318 1.832 0 4.996-2.165 7.33-4.831 0-.83.33-1.997 1.5-3.332a5.84 5.84 0 0 1 2.497-1.997 7.4 7.4 0 0 0 .169-1.833c0-.833-.33-1.166 0-1.318.329-.151.83.168 1.166.501a3.34 3.34 0 0 1 .989 2.831c-.168 1.832-2 4.166-4.499 6.5.33.164 1.167 0 1.5 0a6.6 6.6 0 0 0 2.666-1.32c.989-.658 1.648-1.317 2.498-1.996.66-.66 1.167-.989 1.318-.834s-.164.659-.988 1.5a16.6 16.6 0 0 1-2.498 2c-1.335.83-2.166 1.318-3 1.5-.659.164-1.667.164-2.165-.169-2 1.668-5.833 3.833-9.165 3.833-2.498 0-3.998-1.166-3.83-3.5 0-1.648.99-3.496 2.499-5.164-.834.303-1 .636-1.665 1.137"/><path fill="#2a567d" d="M105.69.61c1.832 0 2.498 1.318 2.165 2.83-.659 3.833-8.328 10.164-16.327 16.828-4.831 3.998-10.994 8.83-15.82 12.995-4.165 5.164-6.498 8.331-9.33 12.33a21.3 21.3 0 0 0 3.481-1.151 29.6 29.6 0 0 0 4.499-2.333 30.5 30.5 0 0 0 4.498-3.497c.33-.33.989-.989 1.319-.66.164.166-.501.831-.66 1.164a27.7 27.7 0 0 1-5.164 4.001c-2.165 1.318-4.831 2.33-6.331 3-.83.329-1.664.658-1.997 1.317a18 18 0 0 0-1.167 2.499c-1.318 4.165-3.833 10.328-6.664 15.16-2.498 4.498-5.998 9.33-9.162 11.831-1.166.989-2.333 1.496-3.5 1.318-.988-.168-1.667-1.166-1.318-2.999.83-4.33 6.163-13.495 11.828-21.326a541 541 0 0 1 13.994-18.324c-.989.66-2.831 2.333-4.166 3.665-.498.33-.66.5-.83.33-.172-.172 0-.33.497-.834a63 63 0 0 1 6.5-5.498c3.664-4.498 6.495-8.163 8.828-10.994 6.166-7.152 14.33-15.49 18.328-18.32 1.835-1.665 4.165-3.333 6.499-3.333M54.544 61.908c-2.666 3.998-6.331 9.663-7.666 12.662-.497.989-.33 1.664 0 1.832.501.165.989 0 2-.659 2.001-1.667 5.333-5.665 8.665-11.495 3-5.164 5.998-12.995 6.997-16.495-5 6.667-5.497 7.666-9.996 14.155m36.318-42.475c7.663-6.828 14.66-12.995 14.996-16.478 0-.989-.33-1.5-1.335-1.5-1.318 0-3.164 1.665-4.996 3.164-2.666 2.502-6.166 6.331-10.332 11.33-5.83 6.998-7.827 9.496-12.161 15.16 7.656-6.511 10.328-8.509 13.828-11.676"/><path fill="#2a567d" d="M79.368 39.091c-.501.501-.834.501-.99.33-.154-.171 0-.498.498-.989 2.166-1.832 4.334-3.833 5.834-5.164h-2.834c-.498 0-.99 0-.834-.33 0-.33.834-.33 2.168-.5h2.166c2.498-3 5.665-6.496 7.497-8.329 1.5-1.5 3.332-3.332 4.996-3.332.834 0 1.167.165 1.167.498-.989.834-2.999 3.167-4.831 5.164a75 75 0 0 0-4.832 5.834h4.499c.659 0 1.166 0 1.166.497 0 .498-.833.33-1.499.33h-4.841c-1.668 1.829-4.337 5.991-5.656 8.826-.5.83-.659 1.997 0 2.33.501.168 1.319 0 2-.33a26 26 0 0 0 3.665-2.33 42 42 0 0 0 3.665-3.167c.33-.33.834-.834 1.167-.498.165.165 0 .33-.501.99a46 46 0 0 1-4.831 4.165c-1.51 1.17-4.34 3.332-7.34 3.332-1.832 0-2.498-.989-2.333-2.169.168-1.997 2-4.831 4.33-7.827a17.2 17.2 0 0 0-3.496 2.67"/><path fill="#2a567d" d="M112.354 32.266c1.668 0 1.832.33.989 1.318-.989 1.167-2.831 3.167-4.496 5.332-.988 1.319-2 2.667-2.834 3.83-.501.989-.501 1.667-.165 1.836.33.33 1.164 0 1.833-.33.83-.33 2.33-1.5 3.664-2.498a49 49 0 0 0 3.83-3.332c.501-.33.834-.834 1.167-.498.168.165-.165.66-.989 1.496a58 58 0 0 1-4.499 3.833c-1.664 1.335-4.165 3.168-6.828 3.168-1.5 0-2.169-.66-2.334-1.668a4.17 4.17 0 0 1 1.167-2.831c-2 1.832-5.665 4.499-8.832 4.663-1.833 0-3.665-.659-3.332-3.163.168-1.167.834-2.502 2.168-4.166l-.989.989c-.329.168-.497.329-.659.168-.161-.162.168-.66 1.167-1.5.165-.168 1.664-1.318 2.333-1.832.83-.501 2.166-1.5 3.665-2.166 3.164-1.667 5.83-2.501 7.996-2.168 1.667.168 2.165 1.667 1.667 2.999 1.645-2.314 2.979-3.48 4.311-3.48m-13.842 5.83c-3.332 3.167-4.663 5.332-4.499 6.33 0 .502.501.834.99.834 1.499 0 4.498-1.832 6.663-3.664 2.498-2.169 5.497-5.666 5.497-7q0-1.5-1.499-1.497c-1.473 0-4.304 2.166-7.132 4.997z"/><path fill="#2a567d" d="M118.183 46.589c-2.999 0-4.33-1.167-4.162-3.332.165-1.648.989-3.332 2.33-4.832q-.61.64-1.318 1.167c-.501.33-.834.66-.989.501-.155-.158.165-.5.498-.834.988-.989 1.832-1.5 2.999-2.333a26 26 0 0 1 3.833-2.334c2.666-1.496 5.332-2.498 7.329-2.165 1.833.33 2.498 1.5 2.166 3s-1.665 2.666-2.667 2.666c-1.318 0-1.318-1.167-.659-2.334.834-1.5 1.167-2.498.168-2.663-.834-.168-2.666.989-4.999 3.332-2.166 2.166-4.166 5.165-4.499 7.162-.165 1.166.501 1.832 1.833 1.832.988 0 3.832-.497 7.332-2.83a54 54 0 0 0 4.832-3.834c.498-.33.659-.497.83-.33.172.169-.164.502-.659.99a57 57 0 0 1-4.663 3.832c-2.834 1.833-6.664 3.332-9.498 3.332z"/><path fill="#2a567d" d="M135.18 36.927a120 120 0 0 1-2.834 2.333c-.66.501-.989.834-1.167.66-.178-.175 0-.502.834-1.319a51 51 0 0 1 5.665-4.499c2-1.5 3.164-1.832 4.663-1.832 1.668 0 1.833.165.834 1.318-.998 1.154-2.498 3-4.166 5a43 43 0 0 0-2.999 4.33q-.501.99 0 1.5c.33.33.989.168 1.833-.168 1.835-.989 3.5-2.165 5.998-4.163 3.833-2.999 5.998-5 8.664-6.996a3.3 3.3 0 0 1 2.334-.834c1.318 0 2.165.165 1.166 1.318-1.499 1.832-2.666 3-4.166 5.164-1.334 1.668-2.333 3.168-2.999 3.998-.501.834-.501 1.5-.168 1.836s.989.165 1.833-.168c.843-.333 2.333-1.319 3.665-2.334a49 49 0 0 0 3.832-3.332c.501-.497.989-.83 1.167-.497.168.165-.329.83-.659.989-.989.988-2.999 2.666-4.832 4.165-1.499 1.167-4.165 3.164-6.831 3.164-1.665 0-2.499-.659-2.499-1.832s.501-2.166 1.319-3.332c.833-1.319 2.333-2.831 3.664-4.166-1.664 1.335-4.33 3.5-6.327 5-3.332 2.498-6.166 4.33-8.5 4.33-1.664 0-2.663-.834-2.663-2.165 0-1.167.831-2.334 1.5-3.332a47 47 0 0 1 5.662-6.331c-.992.03-2.66 1.196-3.823 2.195"/><path fill="#2a567d" d="M161.503 36.093c-1.167.989-2.334 2.169-3.332 3-.501.329-.66.5-.834.167.042-.247.156-.477.329-.659.33-.33 3.332-2.999 5.83-5 2.001-2.666 5.999-7.497 9.33-11.327a104 104 0 0 1 9.499-9.83c.988-.835 1.832-1.319 2.831-1.319.833 0 1.166.33 1.166.498-1.499 1.5-8.496 9.165-11.828 13.163-5.332 6.495-10.998 13.841-12.83 17.493-.165.498-.659 1.664-.165 2.165.498.33 1.833 0 2.498-.5a27.5 27.5 0 0 0 3.332-2.166 35 35 0 0 0 3.5-2.999c.33-.33.989-.83 1.164-.66.174.172 0 .502-.498.99-.989.988-2.999 2.666-4.831 4.165-1.665 1.167-4.496 3.144-7.162 3.144-1.664 0-2.498-.659-2.498-2.168.165-1.833 2.165-4.996 4.499-8.163z"/><path fill="#2a567d" d="M171.498 39.26c-.501.502-.834.66-.989.502s.165-.66.498-.989a16.5 16.5 0 0 1 2.498-1.997 32.5 32.5 0 0 1 3.833-2.333c2.333-1.167 4.831-2 6.663-2.166.501 0 1.167 0 1.167.33 0 .165-.168.165-.834.5-1.832.831-3.496 2.166-5.662 4.331-2.343 2.324-4.508 5.488-4.67 7.004 0 .834.168 1.318 1.167 1.318 1.832 0 4.996-2.165 7.33-4.831 0-.831.329-1.998 1.499-3.332a5.84 5.84 0 0 1 2.498-1.998 7.4 7.4 0 0 0 .168-1.832c0-.834-.329-1.167 0-1.318.33-.152.834.168 1.167.5a3.33 3.33 0 0 1 .989 2.832c-.165 1.832-1.997 4.165-4.499 6.499.33.164 1.167 0 1.5 0a6.6 6.6 0 0 0 2.666-1.319c.989-.659 1.668-1.318 2.498-1.997.659-.659 1.167-.988 1.335-.834s-.168.66-.989 1.5a16.6 16.6 0 0 1-2.498 2c-1.318.831-2.165 1.319-2.999 1.5-.659.165-1.648.165-2.165-.168-2.001 1.668-5.83 3.833-9.162 3.833-2.502 0-3.998-1.167-3.833-3.5 0-1.648.988-3.497 2.498-5.165a4.2 4.2 0 0 0-1.674 1.13"/><path fill="#2a567d" d="M194.156 36.927a118 118 0 0 1-2.835 2.333c-.659.501-.988.834-1.163.66-.175-.175 0-.502.831-1.319a51 51 0 0 1 5.665-4.499c2-1.5 3.167-1.832 4.667-1.832 1.664 0 1.832.165.83 1.318s-2.498 3-4.166 5a42 42 0 0 0-2.995 4.33q-.505.99 0 1.5c.329.33.988.168 1.832-.168 1.832-.989 3.497-2.165 5.995-4.163 3.833-2.999 5.998-5 8.664-6.996a3.3 3.3 0 0 1 2.333-.834c1.319 0 2.166.165 1.167 1.318-1.499 1.832-2.666 3-4.166 5.164-1.318 1.668-2.333 3.168-2.999 3.998-.501.834-.501 1.5-.168 1.836s.989.165 1.836-.168 2.33-1.319 3.665-2.334a49 49 0 0 0 3.829-3.332c.501-.497.989-.83 1.167-.497.168.165-.33.83-.659.989-.989.988-2.999 2.666-4.832 4.165-1.499 1.167-4.165 3.164-6.832 3.164-1.647 0-2.498-.659-2.498-1.832s.501-2.166 1.319-3.332c.83-1.319 2.33-2.831 3.664-4.166-1.667 1.335-4.333 3.5-6.331 5-3.332 2.498-6.166 4.33-8.496 4.33-1.668 0-2.666-.834-2.666-2.165 0-1.167.834-2.334 1.499-3.332a47 47 0 0 1 5.662-6.331c-.988.03-2.653 1.196-3.819 2.195"/><path fill="#2a567d" d="M229.64 42.591c2.166-1.318 3.833-2.83 5.333-3.998.329-.33.833-.659.988-.5.155.158-.164.659-.833 1.318-.831.659-2.33 2-3.998 3.167a37.4 37.4 0 0 1-4.996 2.666c-1.5.66-4.334 1.5-6.664 1.5-4.166 0-5.165-2.502-4.832-4.832s2.166-4.166 3.998-4.166c1.167 0 1.648.834 1.5 1.833-.169.834-.66 1.5-1.833 2-.659.33-1.832 1.319-1.832 2.33 0 1.319.83 2 2.33 2 1.667 0 3.668-1.317 5.332-4.33 1.5-2.333 2.831-7.164 3.665-8.163-.834.83-2.498 1.997-3.833 3-1.163.83-2.33 1.647-2.996 1.832-.329.164-.659.329-.833 0 0-.169 0-.33.329-.66.834-.497 2.001-1.318 3.332-2.165 1.5-.989 2.831-2.165 4.663-3.83a3.36 3.36 0 0 1 1.335-1.318 3.96 3.96 0 0 1 2.33-.834c1.836 0 .659.99-.329 1.668-.66.501-1.5.834-1.833 1.167-.659.659-.497 1.318-.497 2.165 0 2.165.164 4.33-.66 6.496a10.2 10.2 0 0 1-2.498 3.332 31 31 0 0 0 3.332-1.678"/></svg>