<svg xmlns="http://www.w3.org/2000/svg" width="110" height="112" fill="none" viewBox="0 0 110 112"><path stroke="#265597" stroke-linecap="round" stroke-linejoin="round" stroke-width="6" d="M55 74.667v18.667m0 0h13.624m-13.625 0H41.374m4.542-74.667-9.083 56m27.25-56 9.083 56m20.437-28H16.395m55.295-28H38.309c-6.65 0-9.974 0-12.545 1.927-2.575 1.923-3.815 5.334-6.28 12.152l-4.056 11.2c-5.042 13.921-7.562 20.879-4.542 25.798 3.011 4.923 9.8 4.923 23.371 4.923h41.484c13.57 0 20.356 0 23.376-4.923 3.016-4.919.495-11.877-4.546-25.798l-4.056-11.2c-2.47-6.818-3.706-10.229-6.281-12.152-2.566-1.927-5.895-1.927-12.544-1.927"/></svg>