<svg xmlns="http://www.w3.org/2000/svg" width="439" height="540" fill="none" viewBox="0 0 439 540"><g opacity=".79"><path fill="url(#a)" d="M-89.105 553.936s1.074-296.685 2.854-304.09c1.78-7.406 7.112-3.952 7.112-3.952 2.01 12.12 16.292 5.514 28.23 7.173l81.31 47.482 35.48 12.791 113.261-58.369-2.614-1.509c9.681-4.517 15.224-1.462 20.463-10.88l7.623 4.538 4.531 1.275-3.184 305.949c0 5.032-3.322 10.062-9.964 13.887L87.541 630.762l-5.017 2.893c-13.286 7.657-34.906 7.657-48.192 0l-113.473-65.424c-6.532-3.765-9.855-8.698-9.959-13.643-.005-.219.005-.439.014-.664z"/><path fill="url(#b)" d="m-80.653 242.338 111.908-64.467a64 64 0 0 1 32.198-8.538 64 64 0 0 1 32.128 8.8l107.259 62.956a11.49 11.49 0 0 1 4.144 15.66 11.5 11.5 0 0 1-4.184 4.198L88.603 327.36a52.88 52.88 0 0 1-53.17 0l-116.122-67.536a10.11 10.11 0 0 1-5.026-8.753 10.1 10.1 0 0 1 5.062-8.733"/></g><g opacity=".45"><path fill="url(#c)" d="M142.768 713.192s-.969-576.615.805-584.018 7.113-3.951 7.113-3.951c2.01 12.119 16.291 5.514 28.229 7.172l81.31 47.482 35.48 12.791 113.267-58.365-2.614-1.509c9.681-4.517 15.224-1.462 20.463-10.88l7.623 4.538 4.531 1.275-1.141 585.875c0 5.032-3.322 10.062-9.964 13.888l-108.456 62.535-5.017 2.893c-13.286 7.657-34.906 7.657-48.192 0l-113.473-65.424c-6.532-3.765-9.855-8.698-9.959-13.643-.005-.219.005-.439.014-.665z"/><path fill="url(#d)" d="m149.177 121.67 111.908-64.466a63.987 63.987 0 0 1 64.326.262L432.67 120.42a11.49 11.49 0 0 1 4.144 15.66 11.5 11.5 0 0 1-4.184 4.198l-114.197 66.413a52.89 52.89 0 0 1-53.169 0l-116.123-67.536a10.11 10.11 0 0 1-5.026-8.753 10.1 10.1 0 0 1 5.062-8.733"/></g><path fill="url(#e)" d="M267.01 50.229c15.255-8.618 30.168-23.316 42.668-42.05l.169-.097c12.5 4.316 27.414 1.821 42.673-7.15l.585-.342-.823 28.461c-2.894 44.119-17.964 63.321-42.217 104.34l-.591.341c-24.253-13.052-39.321-14.88-42.216-55.662l-.824-27.512z"/><path fill="url(#f)" d="M312.779 114.719c18.826-31.186 28.297-46.876 30.58-81.103l.52-17.968c-12.088 5.459-23.677 7.198-34.118 5.123-10.438 14.112-22.027 25.735-34.115 34.216l.52 17.368c2.285 31.599 11.755 36.367 30.584 45.847l3.011 1.521z"/><g opacity=".79"><g style="mix-blend-mode:multiply"><path fill="#fff" d="M70.46 266.977a4.56 4.56 0 0 1-2.208-.544l-24.264-13.271a3.05 3.05 0 0 1-1.654-2.616 2.99 2.99 0 0 1 1.56-2.6l49.772-28.585a4.4 4.4 0 0 1 2.211-.564 4.54 4.54 0 0 1 2.213.548l24.261 13.268a3.05 3.05 0 0 1 1.654 2.616 2.99 2.99 0 0 1-1.561 2.6l-49.772 28.586a4.4 4.4 0 0 1-2.212.562"/><path fill="#fefefe" d="M122.331 232.647a3.02 3.02 0 0 1 1.636 2.584 2.95 2.95 0 0 1-1.544 2.569l-49.772 28.585a4.33 4.33 0 0 1-2.21.554 4.6 4.6 0 0 1-2.203-.551l-24.235-13.255a3.02 3.02 0 0 1-1.636-2.583 2.95 2.95 0 0 1 1.543-2.57l49.74-28.567a4.45 4.45 0 0 1 2.207-.573 4.5 4.5 0 0 1 2.211.54z"/><path fill="#fdfdfd" d="M122.315 232.678a2.98 2.98 0 0 1 1.617 2.552 2.92 2.92 0 0 1-1.525 2.538l-49.772 28.585a4.3 4.3 0 0 1-2.21.544 4.66 4.66 0 0 1-2.197-.559l-24.205-13.239a2.98 2.98 0 0 1-1.617-2.551 2.91 2.91 0 0 1 1.524-2.537l49.711-28.55a4.5 4.5 0 0 1 2.202-.581 4.44 4.44 0 0 1 2.21.53z"/><path fill="#fcfcfc" d="M122.296 232.706a2.935 2.935 0 0 1 1.598 2.52 2.885 2.885 0 0 1-1.507 2.506l-49.772 28.585a4.24 4.24 0 0 1-2.209.535 4.74 4.74 0 0 1-2.192-.566L44.04 253.063a2.95 2.95 0 0 1-1.598-2.52 2.87 2.87 0 0 1 1.506-2.505l49.68-28.533a4.57 4.57 0 0 1 2.197-.589 4.4 4.4 0 0 1 2.208.522z"/><path fill="#fbfbfb" d="M122.279 232.738a2.91 2.91 0 0 1 1.579 2.485 2.836 2.836 0 0 1-1.489 2.474l-49.772 28.585a4.2 4.2 0 0 1-2.207.527 4.8 4.8 0 0 1-2.186-.574l-24.146-13.207a2.9 2.9 0 0 1-1.58-2.485 2.84 2.84 0 0 1 1.488-2.474l49.65-28.515a4.6 4.6 0 0 1 2.195-.598 4.33 4.33 0 0 1 2.208.512z"/><path fill="#fafafb" d="M122.261 232.771a2.87 2.87 0 0 1 1.56 2.456 2.8 2.8 0 0 1-1.47 2.443l-49.772 28.585a4.16 4.16 0 0 1-2.207.518 4.85 4.85 0 0 1-2.18-.585l-24.116-13.193a2.87 2.87 0 0 1-1.56-2.456 2.8 2.8 0 0 1 1.469-2.442l49.619-28.498a4.7 4.7 0 0 1 2.188-.607 4.27 4.27 0 0 1 2.207.505z"/><path fill="#f9f9fa" d="M122.243 232.806a2.83 2.83 0 0 1 1.542 2.424 2.77 2.77 0 0 1-1.452 2.412L72.56 266.227a4.1 4.1 0 0 1-2.205.512 4.9 4.9 0 0 1-2.175-.589l-24.087-13.175a2.84 2.84 0 0 1-1.542-2.423 2.76 2.76 0 0 1 1.451-2.412l49.59-28.481a4.76 4.76 0 0 1 2.183-.615 4.2 4.2 0 0 1 2.206.496z"/><path fill="#f8f8f9" d="M122.224 232.834a2.8 2.8 0 0 1 1.523 2.393 2.74 2.74 0 0 1-1.434 2.38l-49.772 28.585a4.04 4.04 0 0 1-2.204.499c-.759-.03-1.5-.235-2.169-.597l-24.057-13.156a2.8 2.8 0 0 1-1.523-2.392 2.73 2.73 0 0 1 1.433-2.379l49.558-28.463a4.8 4.8 0 0 1 2.18-.623 4.2 4.2 0 0 1 2.204.487z"/><path fill="#f7f7f8" d="M122.205 232.868a2.77 2.77 0 0 1 1.505 2.36 2.7 2.7 0 0 1-1.417 2.349l-49.772 28.585a4 4 0 0 1-2.203.49 5.05 5.05 0 0 1-2.165-.603l-24.028-13.142a2.76 2.76 0 0 1-1.504-2.36 2.7 2.7 0 0 1 1.415-2.348l49.528-28.445a4.9 4.9 0 0 1 2.174-.633 4.13 4.13 0 0 1 2.203.479z"/><path fill="#f6f6f7" d="M122.189 232.9a2.73 2.73 0 0 1 1.486 2.329 2.65 2.65 0 0 1-1.397 2.317l-49.772 28.585a3.96 3.96 0 0 1-2.202.481 5.1 5.1 0 0 1-2.158-.611l-23.998-13.126a2.72 2.72 0 0 1-1.486-2.328 2.66 2.66 0 0 1 1.397-2.316l49.497-28.428a5 5 0 0 1 2.17-.641 4.1 4.1 0 0 1 2.202.47z"/><path fill="#f5f5f6" d="M122.172 232.933a2.689 2.689 0 0 1 1.464 2.297 2.62 2.62 0 0 1-1.379 2.285L72.485 266.1a3.9 3.9 0 0 1-2.201.472 5.2 5.2 0 0 1-2.152-.619l-23.969-13.11a2.69 2.69 0 0 1-1.464-2.296 2.62 2.62 0 0 1 1.379-2.284l49.466-28.411a5.05 5.05 0 0 1 2.166-.649 4.04 4.04 0 0 1 2.2.461z"/><path fill="#f4f4f5" d="M122.153 232.962a2.66 2.66 0 0 1 1.448 2.266 2.58 2.58 0 0 1-1.362 2.253l-49.772 28.585a3.88 3.88 0 0 1-2.196.464 5.3 5.3 0 0 1-2.147-.627l-23.94-13.093a2.65 2.65 0 0 1-1.448-2.266 2.58 2.58 0 0 1 1.36-2.253l49.437-28.393a5.1 5.1 0 0 1 2.16-.658 4 4 0 0 1 2.197.452z"/><path fill="#f3f3f4" d="M122.135 232.997a2.62 2.62 0 0 1 1.43 2.233 2.55 2.55 0 0 1-1.343 2.222L72.45 266.037a3.83 3.83 0 0 1-2.196.455 5.4 5.4 0 0 1-2.14-.634L44.202 252.78a2.61 2.61 0 0 1-1.43-2.232 2.55 2.55 0 0 1 1.343-2.221l49.406-28.375a5.2 5.2 0 0 1 2.156-.667 3.94 3.94 0 0 1 2.196.444z"/><path fill="#f2f2f3" d="M122.118 233.031a2.59 2.59 0 0 1 1.41 2.202 2.51 2.51 0 0 1-1.325 2.193l-49.772 28.585a3.8 3.8 0 0 1-2.196.445 5.5 5.5 0 0 1-2.136-.641l-23.88-13.061a2.59 2.59 0 0 1-1.41-2.201 2.51 2.51 0 0 1 1.324-2.192l49.375-28.36a5.3 5.3 0 0 1 2.152-.675c.76-.072 1.523.08 2.196.439z"/><path fill="#f1f1f3" d="M122.101 233.058c.404.206.746.515.991.896.244.382.382.821.4 1.274a2.475 2.475 0 0 1-1.307 2.158l-49.772 28.585c-.67.367-1.436.52-2.196.439a5.55 5.55 0 0 1-2.13-.649l-23.85-13.045a2.55 2.55 0 0 1-1.391-2.169 2.47 2.47 0 0 1 1.305-2.158l49.345-28.341a5.4 5.4 0 0 1 2.147-.684 3.85 3.85 0 0 1 2.196.427z"/><path fill="#f0f0f2" d="M122.085 233.094a2.5 2.5 0 0 1 1.373 2.137 2.44 2.44 0 0 1-1.288 2.127l-49.773 28.586a3.7 3.7 0 0 1-2.195.427 5.6 5.6 0 0 1-2.123-.658l-23.821-13.029a2.505 2.505 0 0 1-1.373-2.136 2.44 2.44 0 0 1 1.287-2.127l49.315-28.323a5.5 5.5 0 0 1 2.142-.692 3.8 3.8 0 0 1 2.196.418z"/><path fill="#eff0f1" d="M122.064 233.124a2.47 2.47 0 0 1 1.353 2.105 2.397 2.397 0 0 1-1.27 2.095l-49.772 28.585a3.66 3.66 0 0 1-2.196.418 5.7 5.7 0 0 1-2.123-.663l-23.792-13.01a2.48 2.48 0 0 1-1.354-2.105 2.4 2.4 0 0 1 1.27-2.095l49.283-28.305a5.6 5.6 0 0 1 2.138-.701 3.76 3.76 0 0 1 2.195.409z"/><path fill="#eeeff0" d="M122.046 233.156a2.43 2.43 0 0 1 1.336 2.074 2.37 2.37 0 0 1-1.252 2.064l-49.772 28.585a3.63 3.63 0 0 1-2.196.409 5.9 5.9 0 0 1-2.113-.671L44.286 252.62a2.43 2.43 0 0 1-1.335-2.072 2.37 2.37 0 0 1 1.251-2.063l49.253-28.286a5.7 5.7 0 0 1 2.134-.709 3.7 3.7 0 0 1 2.196.401z"/><path fill="#edeeef" d="M122.025 233.188a2.4 2.4 0 0 1 1.318 2.041 2.34 2.34 0 0 1-1.235 2.033l-49.772 28.585a3.6 3.6 0 0 1-2.192.401 6 6 0 0 1-2.108-.679l-23.732-12.98a2.4 2.4 0 0 1-1.318-2.041 2.33 2.33 0 0 1 1.234-2.032l49.222-28.271a5.85 5.85 0 0 1 2.129-.718 3.68 3.68 0 0 1 2.191.393z"/><path fill="#ecedee" d="M122.012 233.221a2.364 2.364 0 0 1 1.298 2.01 2.3 2.3 0 0 1-1.216 2.001l-49.772 28.585a3.55 3.55 0 0 1-2.19.392 6 6 0 0 1-2.103-.687l-23.704-12.964a2.36 2.36 0 0 1-1.298-2.008 2.29 2.29 0 0 1 1.215-2.001l49.193-28.253a6 6 0 0 1 2.123-.727 3.64 3.64 0 0 1 2.19.384z"/><path fill="#ebeced" d="M121.993 233.252a2.32 2.32 0 0 1 1.279 1.978 2.26 2.26 0 0 1-1.198 1.969l-49.772 28.585a3.52 3.52 0 0 1-2.19.383 6.2 6.2 0 0 1-2.096-.694l-23.674-12.948a2.327 2.327 0 0 1-1.28-1.973 2.26 2.26 0 0 1 1.197-1.969l49.162-28.236a6.1 6.1 0 0 1 2.122-.736 3.6 3.6 0 0 1 2.19.376z"/><path fill="#eaebec" d="M121.974 233.281a2.28 2.28 0 0 1 1.261 1.945 2.228 2.228 0 0 1-1.18 1.938L72.283 265.75a3.48 3.48 0 0 1-2.188.373 6.3 6.3 0 0 1-2.091-.7l-23.642-12.932a2.29 2.29 0 0 1-1.26-1.945 2.22 2.22 0 0 1 1.178-1.938l49.132-28.218a6.2 6.2 0 0 1 2.114-.744 3.56 3.56 0 0 1 2.189.366z"/><path fill="#e9eaeb" d="M121.958 233.314a2.26 2.26 0 0 1 1.244 1.914 2.19 2.19 0 0 1-1.16 1.906L72.27 265.72a3.45 3.45 0 0 1-2.187.365 6.5 6.5 0 0 1-2.085-.709L44.383 252.46a2.25 2.25 0 0 1-1.244-1.913 2.18 2.18 0 0 1 1.16-1.906l49.1-28.2a6.4 6.4 0 0 1 2.11-.753 3.52 3.52 0 0 1 2.188.359z"/><path fill="#e8e9eb" d="M121.94 233.348c.352.177.652.445.867.775.214.331.337.713.355 1.107a2.15 2.15 0 0 1-1.142 1.875l-49.772 28.586a3.4 3.4 0 0 1-2.186.355 6.6 6.6 0 0 1-2.08-.716l-23.586-12.9a2.22 2.22 0 0 1-1.222-1.881 2.15 2.15 0 0 1 1.142-1.874l49.07-28.183a6.5 6.5 0 0 1 2.105-.761 3.48 3.48 0 0 1 2.186.349z"/><path fill="#e7e8ea" d="M121.922 233.379a2.18 2.18 0 0 1 1.204 1.85 2.12 2.12 0 0 1-1.126 1.843l-49.772 28.586a3.38 3.38 0 0 1-2.184.346 6.7 6.7 0 0 1-2.075-.724l-23.556-12.883a2.19 2.19 0 0 1-1.204-1.849 2.11 2.11 0 0 1 1.124-1.843l49.04-28.166a6.7 6.7 0 0 1 2.1-.769 3.45 3.45 0 0 1 2.185.34z"/><path fill="#e6e7e9" d="M121.904 233.413a2.15 2.15 0 0 1 1.185 1.817 2.07 2.07 0 0 1-1.106 1.812l-49.772 28.585a3.34 3.34 0 0 1-2.184.338 6.9 6.9 0 0 1-2.07-.731L44.432 252.37a2.14 2.14 0 0 1-1.185-1.817 2.07 2.07 0 0 1 1.105-1.811l49.01-28.148a6.8 6.8 0 0 1 2.096-.778 3.4 3.4 0 0 1 2.183.333z"/><path fill="#e5e6e8" d="M121.888 233.441a2.11 2.11 0 0 1 1.167 1.785 2.05 2.05 0 0 1-1.088 1.78l-49.772 28.586a3.3 3.3 0 0 1-2.182.328 7 7 0 0 1-2.064-.739l-23.495-12.852a2.1 2.1 0 0 1-1.167-1.785 2.04 2.04 0 0 1 1.087-1.78l48.979-28.13a7 7 0 0 1 2.092-.787 3.37 3.37 0 0 1 2.182.324z"/><path fill="#e4e5e7" d="M121.869 233.475a2.07 2.07 0 0 1 1.147 1.754 2.005 2.005 0 0 1-1.07 1.749l-49.772 28.585a3.27 3.27 0 0 1-2.18.32 7.2 7.2 0 0 1-2.058-.746l-23.468-12.836a2.07 2.07 0 0 1-1.148-1.754 2 2 0 0 1 1.07-1.749l48.948-28.112a7.1 7.1 0 0 1 2.087-.796 3.34 3.34 0 0 1 2.181.315z"/><path fill="#e3e4e6" d="M121.851 233.505a2.03 2.03 0 0 1 1.128 1.722 1.96 1.96 0 0 1-1.051 1.717l-49.772 28.585a3.24 3.24 0 0 1-2.181.31 7.4 7.4 0 0 1-2.05-.754l-23.437-12.819a2.04 2.04 0 0 1-1.129-1.721 1.96 1.96 0 0 1 1.051-1.716l48.918-28.095a7.3 7.3 0 0 1 2.083-.804 3.3 3.3 0 0 1 2.18.306z"/><path fill="#e2e3e5" d="M121.832 233.538a1.999 1.999 0 0 1 1.109 1.689 1.92 1.92 0 0 1-1.033 1.686l-49.772 28.586a3.2 3.2 0 0 1-2.18.302 7.6 7.6 0 0 1-2.049-.762L44.5 252.236a2 2 0 0 1-1.11-1.689 1.93 1.93 0 0 1 1.032-1.684l48.888-28.078a7.5 7.5 0 0 1 2.078-.812 3.26 3.26 0 0 1 2.179.297z"/><path fill="#e1e2e4" d="M121.816 233.569c.313.155.579.39.77.682.192.291.303.628.321.976a1.89 1.89 0 0 1-1.016 1.653l-49.772 28.586a3.18 3.18 0 0 1-2.178.293 7.8 7.8 0 0 1-2.04-.769l-23.38-12.787a1.96 1.96 0 0 1-1.091-1.658 1.89 1.89 0 0 1 1.014-1.653l48.857-28.06a7.8 7.8 0 0 1 2.073-.821 3.23 3.23 0 0 1 2.178.292z"/><path fill="#e0e1e3" d="M121.796 233.605a1.93 1.93 0 0 1 1.072 1.626 1.857 1.857 0 0 1-.997 1.622l-49.773 28.586a3.15 3.15 0 0 1-2.176.283 8 8 0 0 1-2.035-.776l-23.35-12.771a1.93 1.93 0 0 1-1.072-1.626 1.85 1.85 0 0 1 .996-1.622l48.826-28.042a8 8 0 0 1 2.069-.83 3.2 3.2 0 0 1 2.177.281z"/><path fill="#e0e0e3" d="M121.78 233.635a1.9 1.9 0 0 1 1.053 1.595 1.825 1.825 0 0 1-.979 1.591l-49.772 28.585a3.12 3.12 0 0 1-2.175.275 8.3 8.3 0 0 1-2.03-.785l-23.32-12.754a1.9 1.9 0 0 1-1.053-1.594 1.82 1.82 0 0 1 .978-1.59l48.796-28.026a8.2 8.2 0 0 1 2.064-.837 3.17 3.17 0 0 1 2.176.271z"/><path fill="#dfdfe2" d="M121.761 233.666a1.86 1.86 0 0 1 1.035 1.563 1.79 1.79 0 0 1-.961 1.559l-49.772 28.586a3.1 3.1 0 0 1-2.174.265 8.5 8.5 0 0 1-2.025-.792l-23.29-12.738a1.86 1.86 0 0 1-1.035-1.561 1.78 1.78 0 0 1 .96-1.559l48.765-28.008a8.5 8.5 0 0 1 2.06-.847 3.14 3.14 0 0 1 2.175.263z"/><path fill="#dedee1" d="M121.745 233.696a1.82 1.82 0 0 1 1.016 1.531 1.74 1.74 0 0 1-.943 1.527L72.046 265.34a3.06 3.06 0 0 1-2.173.257 8.8 8.8 0 0 1-2.02-.799l-23.26-12.722a1.83 1.83 0 0 1-1.017-1.53 1.75 1.75 0 0 1 .942-1.527l48.735-27.994a8.8 8.8 0 0 1 2.055-.855 3.1 3.1 0 0 1 2.174.254z"/><path fill="#dddde0" d="M121.726 233.73a1.78 1.78 0 0 1 .997 1.499 1.71 1.71 0 0 1-.925 1.495L72.026 265.31a3.03 3.03 0 0 1-2.172.248 9 9 0 0 1-2.013-.804l-23.232-12.706a1.79 1.79 0 0 1-.998-1.498 1.71 1.71 0 0 1 .924-1.495l48.704-27.974a9 9 0 0 1 2.05-.864 3.07 3.07 0 0 1 2.172.247z"/><path fill="#dcdcdf" d="M121.707 233.76a1.75 1.75 0 0 1 .979 1.467 1.7 1.7 0 0 1-.251.856 1.7 1.7 0 0 1-.655.606l-49.772 28.585a3 3 0 0 1-2.17.239 9.4 9.4 0 0 1-2.008-.814l-23.203-12.69a1.75 1.75 0 0 1-.979-1.466 1.67 1.67 0 0 1 .906-1.462l48.674-27.956a9.4 9.4 0 0 1 2.046-.872 3.04 3.04 0 0 1 2.17.238z"/><path fill="#dbdbde" d="M121.689 233.792a1.71 1.71 0 0 1 .96 1.435 1.64 1.64 0 0 1-.888 1.432l-49.772 28.586a2.97 2.97 0 0 1-2.17.23 9.7 9.7 0 0 1-2.002-.822l-23.172-12.674a1.71 1.71 0 0 1-.96-1.434 1.63 1.63 0 0 1 .888-1.432l48.643-27.939a9.8 9.8 0 0 1 2.04-.877 3 3 0 0 1 2.171.229z"/><path fill="#dadadd" d="M121.672 233.824a1.68 1.68 0 0 1 .941 1.403 1.6 1.6 0 0 1-.87 1.401l-49.772 28.586a2.94 2.94 0 0 1-2.168.219 10 10 0 0 1-1.996-.828l-23.143-12.658a1.68 1.68 0 0 1-.941-1.402 1.6 1.6 0 0 1 .869-1.401l48.612-27.921c.644-.37 1.327-.668 2.037-.89a2.98 2.98 0 0 1 2.168.22z"/><path fill="#d9d9dc" d="M121.653 233.857a1.64 1.64 0 0 1 .923 1.371 1.56 1.56 0 0 1-.852 1.37l-49.772 28.586a2.92 2.92 0 0 1-2.168.211c-.69-.21-1.358-.49-1.99-.836L44.68 251.914a1.64 1.64 0 0 1-.922-1.371 1.56 1.56 0 0 1 .85-1.369l48.582-27.903a10.6 10.6 0 0 1 2.032-.898 2.95 2.95 0 0 1 2.167.212z"/><path fill="#d8d8db" d="M121.637 233.89a1.61 1.61 0 0 1 .904 1.339 1.53 1.53 0 0 1-.834 1.337l-49.772 28.586a2.9 2.9 0 0 1-2.166.203 11 11 0 0 1-1.985-.845L44.7 251.885a1.6 1.6 0 0 1-.903-1.338 1.53 1.53 0 0 1 .833-1.338l48.552-27.886c.643-.37 1.322-.673 2.027-.906a2.93 2.93 0 0 1 2.167.203z"/><path fill="#d7d7db" d="M121.62 233.921a1.57 1.57 0 0 1 .884 1.307 1.5 1.5 0 0 1-.226.766c-.144.23-.348.416-.59.54L71.916 265.12a2.87 2.87 0 0 1-2.164.193 11.3 11.3 0 0 1-1.98-.851l-23.057-12.609a1.57 1.57 0 0 1-.885-1.306 1.49 1.49 0 0 1 .815-1.306l48.521-27.869c.643-.369 1.32-.676 2.022-.915a2.9 2.9 0 0 1 2.166.195z"/><path fill="#d6d6da" d="M121.601 233.954a1.53 1.53 0 0 1 .866 1.275 1.45 1.45 0 0 1-.797 1.275L71.898 265.09a2.85 2.85 0 0 1-2.164.184 12 12 0 0 1-1.976-.859l-23.025-12.593a1.53 1.53 0 0 1-.866-1.274 1.45 1.45 0 0 1 .797-1.275l48.49-27.848a12 12 0 0 1 2.019-.924 2.87 2.87 0 0 1 2.164.187z"/><path fill="#d5d5d9" d="M121.582 233.985a1.49 1.49 0 0 1 .847 1.242 1.42 1.42 0 0 1-.778 1.243l-49.773 28.586a2.83 2.83 0 0 1-2.162.175 12.5 12.5 0 0 1-1.97-.866l-22.995-12.577a1.5 1.5 0 0 1-.847-1.243 1.42 1.42 0 0 1 .778-1.242l48.46-27.833a12.6 12.6 0 0 1 2.014-.932 2.84 2.84 0 0 1 2.163.177z"/><path fill="#d4d4d8" d="M121.564 234.015a1.46 1.46 0 0 1 .829 1.211 1.4 1.4 0 0 1-.212.712 1.4 1.4 0 0 1-.55.5l-49.772 28.586a2.79 2.79 0 0 1-2.161.167 13 13 0 0 1-1.963-.877L44.77 251.756a1.47 1.47 0 0 1-.829-1.21 1.38 1.38 0 0 1 .76-1.211l48.43-27.816a13 13 0 0 1 2.01-.941 2.82 2.82 0 0 1 2.161.169z"/><path fill="#d3d3d7" d="M121.547 234.049a1.43 1.43 0 0 1 .809 1.179 1.34 1.34 0 0 1-.742 1.18l-49.772 28.586a2.77 2.77 0 0 1-2.16.157 14 14 0 0 1-1.958-.881l-22.936-12.545a1.43 1.43 0 0 1-.81-1.178 1.34 1.34 0 0 1 .742-1.18l48.4-27.798c.641-.37 1.312-.687 2.004-.951a2.806 2.806 0 0 1 2.16.16z"/><path fill="#d2d2d6" d="M121.531 234.082a1.38 1.38 0 0 1 .79 1.148 1.31 1.31 0 0 1-.724 1.149l-49.772 28.586a2.75 2.75 0 0 1-2.159.146 14.6 14.6 0 0 1-1.952-.889l-22.91-12.529a1.39 1.39 0 0 1-.79-1.146 1.31 1.31 0 0 1 .723-1.149l48.369-27.781q.963-.554 2-.958a2.77 2.77 0 0 1 2.159.151z"/><path fill="#d1d1d5" d="M121.513 234.114a1.35 1.35 0 0 1 .771 1.115 1.27 1.27 0 0 1-.706 1.117l-49.772 28.586a2.71 2.71 0 0 1-2.158.14 15.5 15.5 0 0 1-1.946-.896l-22.878-12.512a1.355 1.355 0 0 1-.771-1.115 1.27 1.27 0 0 1 .705-1.117l48.339-27.764a16 16 0 0 1 1.995-.966 2.75 2.75 0 0 1 2.158.146z"/><path fill="#d0d1d4" d="M121.49 234.142a1.316 1.316 0 0 1 .752 1.083 1.23 1.23 0 0 1-.688 1.086l-49.772 28.586a2.7 2.7 0 0 1-1.064.291 2.7 2.7 0 0 1-1.092-.161 16 16 0 0 1-1.941-.903l-22.848-12.499a1.32 1.32 0 0 1-.753-1.082 1.24 1.24 0 0 1 .686-1.086l48.309-27.746a17 17 0 0 1 1.99-.975c.35-.126.722-.18 1.093-.157.371.024.734.123 1.065.292z"/><path fill="#cfd0d3" d="M121.477 234.176a1.289 1.289 0 0 1 .732 1.052 1.2 1.2 0 0 1-.67 1.054l-49.772 28.587a2.7 2.7 0 0 1-2.156.121 18 18 0 0 1-1.936-.911l-22.818-12.481a1.28 1.28 0 0 1-.732-1.051 1.19 1.19 0 0 1 .669-1.054l48.277-27.728q.963-.553 1.986-.984a2.69 2.69 0 0 1 2.157.126z"/><path fill="#cecfd3" d="M121.457 234.209a1.24 1.24 0 0 1 .716 1.023 1.16 1.16 0 0 1-.652 1.023l-49.772 28.586a2.662 2.662 0 0 1-2.154.113q-.99-.405-1.93-.919l-22.789-12.464a1.24 1.24 0 0 1-.716-1.019 1.16 1.16 0 0 1 .651-1.023l48.247-27.711q.962-.553 1.982-.992a2.67 2.67 0 0 1 2.155.117z"/><path fill="#cdced2" d="M121.441 234.24a1.21 1.21 0 0 1 .696.988 1.12 1.12 0 0 1-.633.99l-49.772 28.587a2.64 2.64 0 0 1-2.153.103q-.986-.413-1.924-.926l-22.759-12.448a1.22 1.22 0 0 1-.697-.987 1.13 1.13 0 0 1 .633-.991l48.216-27.693q.962-.553 1.977-1a2.63 2.63 0 0 1 2.154.108z"/><path fill="#cccdd1" d="M121.423 234.272a1.18 1.18 0 0 1 .678.956 1.1 1.1 0 0 1-.616.959l-49.772 28.586a2.604 2.604 0 0 1-2.152.094c-.14 0-1.806-.871-1.918-.933l-22.73-12.431a1.18 1.18 0 0 1-.679-.956 1.09 1.09 0 0 1 .615-.958l48.186-27.676c.11-.065 1.83-1.01 1.976-1.01a2.6 2.6 0 0 1 1.087-.181c.371.017.734.112 1.065.281z"/><path fill="#cbccd0" d="M121.406 234.305a1.15 1.15 0 0 1 .659.924 1.06 1.06 0 0 1-.596.927l-49.772 28.586a2.59 2.59 0 0 1-2.151.086c-.127 0-1.812-.885-1.913-.942l-22.7-12.415a1.14 1.14 0 0 1-.66-.923 1.06 1.06 0 0 1 .596-.927l48.156-27.659c.1-.058 1.838-1.018 1.967-1.018a2.6 2.6 0 0 1 2.151.091z"/><path fill="#cacbcf" d="M121.388 234.338a1.11 1.11 0 0 1 .64.892 1.02 1.02 0 0 1-.579.896l-49.772 28.586a2.57 2.57 0 0 1-2.15.073c-.114 0-1.815-.897-1.908-.95l-22.67-12.399a1.11 1.11 0 0 1-.64-.891 1.02 1.02 0 0 1 .578-.896l48.124-27.641c.091-.052 1.847-1.023 1.963-1.023a2.58 2.58 0 0 1 2.15.083z"/><path fill="#c9cace" d="M121.37 234.369a1.07 1.07 0 0 1 .621.86.98.98 0 0 1-.56.864L71.659 264.68a2.55 2.55 0 0 1-2.149.067c-.102 0-1.82-.911-1.903-.956l-22.642-12.383a1.08 1.08 0 0 1-.621-.86.98.98 0 0 1 .56-.863l48.094-27.624c.08-.046 1.854-1.035 1.958-1.035a2.56 2.56 0 0 1 2.15.073z"/><path fill="#c8c9cd" d="M121.354 234.398a1.04 1.04 0 0 1 .603.828.95.95 0 0 1-.543.833l-49.772 28.586a2.52 2.52 0 0 1-2.148.059c-.09 0-1.825-.925-1.896-.964l-22.612-12.367a1.03 1.03 0 0 1-.603-.827.95.95 0 0 1 .541-.833l48.064-27.606c.073-.041 1.864-1.044 1.954-1.044a2.54 2.54 0 0 1 2.148.065z"/><path fill="#c7c8cc" d="M121.333 234.431a1 1 0 0 1 .586.796.912.912 0 0 1-.524.804l-49.772 28.587a2.52 2.52 0 0 1-2.146.05c-.073 0-1.83-.937-1.89-.972l-22.583-12.352a1 1 0 0 1-.586-.795.91.91 0 0 1 .523-.804l48.033-27.589c.06-.035 1.872-1.052 1.95-1.052a2.5 2.5 0 0 1 2.146.057z"/><path fill="#c6c7cb" d="M121.314 234.463a.96.96 0 0 1 .566.764.88.88 0 0 1-.506.77l-49.772 28.586a2.5 2.5 0 0 1-2.145.04c-.064 0-1.835-.95-1.885-.978L45.019 251.31a.97.97 0 0 1-.566-.764.88.88 0 0 1 .505-.77l48.003-27.57c.05-.029 1.88-1.061 1.944-1.061a2.5 2.5 0 0 1 2.146.048z"/><path fill="#c5c6cb" d="M121.297 234.494a.93.93 0 0 1 .547.731.84.84 0 0 1-.488.738L71.584 264.55a2.46 2.46 0 0 1-2.143.031c-.052 0-1.84-.963-1.88-.986l-22.524-12.318a.94.94 0 0 1-.547-.731.84.84 0 0 1 .487-.739l47.972-27.555c.04-.023 1.889-1.069 1.94-1.069a2.478 2.478 0 0 1 2.145.039z"/><path fill="#c4c5ca" d="M121.28 234.527a.9.9 0 0 1 .528.701.8.8 0 0 1-.47.706l-49.772 28.587a2.45 2.45 0 0 1-2.142.023c-.039 0-1.844-.977-1.875-.994l-22.493-12.302a.89.89 0 0 1-.529-.7.8.8 0 0 1 .469-.707l47.942-27.535c.03-.018 1.897-1.078 1.936-1.078a2.45 2.45 0 0 1 2.143.03z"/><path fill="#c3c4c9" d="M121.264 234.565c.135.058.254.15.344.267a.87.87 0 0 1 .168.401.77.77 0 0 1-.451.675l-49.772 28.587a2.441 2.441 0 0 1-2.142.013c-.025 0-1.848-.99-1.868-1.001L45.079 251.22a.86.86 0 0 1-.513-.668.77.77 0 0 1 .45-.674l47.912-27.518c.02-.012 1.903-1.087 1.93-1.087a2.43 2.43 0 0 1 2.143.022z"/><path fill="#c2c3c8" d="M121.244 234.591a.82.82 0 0 1 .49.636.736.736 0 0 1-.433.644l-49.773 28.586a2.42 2.42 0 0 1-2.14.005c-.013 0-1.853-1.003-1.863-1.009l-22.435-12.27a.83.83 0 0 1-.49-.636.73.73 0 0 1 .431-.643l47.881-27.501c.01-.006 1.914-1.096 1.927-1.096a2.405 2.405 0 0 1 2.14.013z"/><path fill="#c1c2c7" d="m45.053 249.935 49.772-28.587a2.38 2.38 0 0 1 2.14.005l24.261 13.269c.608.338.632.883.057 1.217L71.51 264.425a2.4 2.4 0 0 1-2.138-.004L45.109 251.15c-.606-.337-.628-.88-.056-1.215"/></g><path fill="#cbd3fa" d="M121.031 234.665h-3.309v.593l-19.706-10.656c-1.525-.883-4.194-.776-5.96.238l-43.441 24.131v-.473h-3.31v2.552h.008a.34.34 0 0 0 .177.278l23.49 13.01c1.43.828 3.93.731 5.585-.224l46.281-26.531a.34.34 0 0 0 .158-.366h.027z"/><path fill="#f3f1f6" d="M120.849 234.296a.364.364 0 0 1 0 .631l-46.282 26.532c-1.655.95-4.155 1.051-5.585.224l-23.49-13.011a.35.35 0 0 1-.182-.284.36.36 0 0 1 .136-.309l46.611-25.892c1.766-1.014 4.435-1.12 5.96-.237l22.825 12.342z"/><path fill="#cbd3fa" d="M70.158 175.97c10.414-5.899 21.644-.147 21.543 11.041l-29.977 58.938-2.095-1.169.489-52.502c.061-6.45 4.034-12.906 10.04-16.308"/><path fill="#e6e6eb" d="M72.252 177.141c10.413-5.898 21.642-.146 21.539 11.037l-.366 39.816-31.698 17.954.488-52.502c.054-6.447 4.03-12.902 10.037-16.305"/><path fill="#cbd3fa" d="m.171 149.281 8.044 65.448 4.036 32.776c.322 2.621 1.796 6.586 6.84 6.586.026-.013.04 0 .053 0a10.5 10.5 0 0 0 2.094-.232.113.113 0 0 0 .117-.04l38.396-23.024.014-.013 2.108-1.278h.012l11.795-7.09h.024l19.878-11.933 52.7-31.639a3.59 3.59 0 0 0 1.94-3.512l-.854-8.279-2.871-27.622-6.375-61.522a4.15 4.15 0 0 0-1.306-2.519c-.039-.039-.077-.064-.117-.102a4 4 0 0 0-.388-.31c-2.123-1.627-5.573-1.963-7.565-.827l-24.766 14-56.991 32.245-2.575 1.462-17.626 9.97-24.675 13.947a3.57 3.57 0 0 0-1.942 3.508"/><path fill="#f3f1f6" d="m2.604 150.961 12.234 99.477c.245 2.014 2.147 3.422 4.254 3.654.025-.013.04 0 .053 0a5 5 0 0 0 2.094-.232.113.113 0 0 0 .117-.039q.467-.126.879-.374l37.504-21.488 2.123-1.214h.012l10.695-6.134.026-.013 20.977-12.025 55.105-31.575a3.57 3.57 0 0 0 1.926-3.551l-1.409-11.429-3.362-27.336-7.466-60.722a3.77 3.77 0 0 0-1.551-2.57c-.038-.04-.078-.065-.117-.103a5 5 0 0 0-.439-.285 5.46 5.46 0 0 0-5.289-.051l-86.245 49.422-40.183 23.023a3.61 3.61 0 0 0-1.938 3.565"/><path fill="#ededed" d="m8.106 154.175 11.205 91.038c.202 1.653 2.439 2.58 4.06 1.664l6.286-3.552h.012l14.528-8.197h.011l9.91-5.585 27.595-15.568 60.766-34.255a5.17 5.17 0 0 0 2.819-5.116l-11.199-91.049c-.213-1.653-2.449-2.568-4.071-1.664l-23.845 13.448-27.582 15.548-9.932 5.607-13.768 7.762-43.978 24.795a5.2 5.2 0 0 0-2.817 5.124"/><path fill="#7ca7f0" d="m14.648 232.492.155.362c1.01-.5 1.938-1.149 2.755-1.925 4.422-4.119 4.953-11.183 5.458-18.04.323-4.313.646-8.717 1.953-12.385 1.098-3.086 2.909-5.643 5.987-7.206 6.75-3.421 13.075 1.292 19.191 5.848 6.208 4.623 12.636 9.414 19.616 5.875s7.617-11.894 8.198-19.978c.542-7.193 1.098-14.606 6.195-18.492.233-.168.478-.348.724-.503l.074-.04c.31-.193.62-.386.957-.555.064-.026.128-.064.194-.09l.064-.026q.672-.33 1.384-.555c6.142-1.974 11.924 2.35 17.549 6.522 6.208 4.635 12.622 9.429 19.616 5.889 6.971-3.539 7.604-11.894 8.198-19.966.569-7.568 1.125-15.355 6.984-19.061.272-.168.556-.336.854-.491.039-.012.065-.038.103-.051l-.155-.362a12 12 0 0 0-.918.503c-6.131 3.784-6.713 11.739-7.282 19.462-.594 7.955-1.203 16.169-7.952 19.589-6.75 3.419-13.077-1.292-19.177-5.848-5.445-4.054-11.045-8.225-17.033-6.818a.1.1 0 0 0-.052.013q-.428.076-.838.219c-.208.064-.402.142-.61.219l-.052.026c-.348.129-.684.284-1.034.452q-.89.452-1.694 1.046a.3.3 0 0 0-.065.039 11 11 0 0 0-1.19 1.032c-4.254 4.171-4.757 11.11-5.25 17.861-.607 7.955-1.202 16.181-7.953 19.603-6.763 3.409-13.089-1.291-19.192-5.863-6.207-4.623-12.634-9.414-19.616-5.877a12.47 12.47 0 0 0-6.028 6.935c-1.499 3.823-1.836 8.472-2.172 13.031-.492 6.651-1.009 13.495-5.108 17.562a11 11 0 0 1-2.838 2.047z"/><path fill="#7ca7f0" d="m60.102 179.347.073.323.35-.194 22.307-12.308 1.294-.71.75-.413.073-.038 1.151-.646.065-.026 1.332-.735v-.013l.788-.427 23.565-12.994.427-.246-.073-.322-.439.245-24.326 13.417-.594.336-.053.026-2.728 1.497v.013l-.066.027-23.561 12.991z"/><path fill="#7ca7f0" d="M111.772 150.847q.002.085.025.168a.4.4 0 0 0 .064.155.873.873 0 0 0 .97.53.9.9 0 0 0 .363-.156 1.71 1.71 0 0 0 .841-1.769.89.89 0 0 0-.554-.643.9.9 0 0 0-.843.113 1.74 1.74 0 0 0-.866 1.602M58.258 180.549a.904.904 0 0 0 1.409.529 1.73 1.73 0 0 0 .868-1.601.6.6 0 0 0-.028-.168.4.4 0 0 0-.064-.155.86.86 0 0 0-.575-.514.877.877 0 0 0-.757.148 1.71 1.71 0 0 0-.853 1.761M83.682 164.575l.388 1.55v.013l.066.323.025.09.362 1.462 3.376-1.86-.337-1.369-.05-.18v-.013l-.052-.206-.014-.117-.388-1.549z"/><path fill="url(#g)" d="m8.134 154.128 1.11 8.973L135.16 91.828l-1.025-8.326c-.225-1.649-2.452-2.568-4.08-1.66L106.208 95.29l-27.574 15.546-9.93 5.605-13.775 7.762-43.98 24.802a5.18 5.18 0 0 0-2.815 5.123"/><path fill="#fff" d="m31.81 147.719 7.596-4.44a.7.7 0 0 0 .351-.611c-.026-.208-.226-.273-.447-.146l-7.595 4.441a.7.7 0 0 0-.352.611c.026.21.227.275.448.145M13.847 158.22a.77.77 0 0 0 .293-.314l4.162-8.347c.12-.243.068-.467-.12-.5a.61.61 0 0 0-.557.377l-4.161 8.347c-.122.242-.069.466.119.5a.4.4 0 0 0 .264-.063"/><path fill="#fff" d="M18.705 155.379a.75.75 0 0 0 .244-.236c.153-.233.146-.484-.015-.562l-5.554-2.665c-.164-.074-.417.05-.569.28s-.146.484.015.562l5.554 2.666a.35.35 0 0 0 .325-.045M22.558 146.336a5.9 5.9 0 0 1 2.678-1.937 2.86 2.86 0 0 1 2.715.337 2.77 2.77 0 0 1 .918 2.518 6.1 6.1 0 0 1-3.97 4.946c-.367.124-.752.19-1.14.193a2.5 2.5 0 0 1-1.577-.517 2.78 2.78 0 0 1-.918-2.518 5.7 5.7 0 0 1 1.294-3.022m.194 4.831a1.95 1.95 0 0 0 1.862.181 5.28 5.28 0 0 0 3.363-4.171 1.9 1.9 0 0 0-.595-1.731 1.6 1.6 0 0 0-1.024-.323 2.7 2.7 0 0 0-.854.146 5.24 5.24 0 0 0-3.35 4.171 1.9 1.9 0 0 0 .598 1.727"/></g><defs><linearGradient id="a" x1="235.69" x2="172.983" y1="567.971" y2="269.604" gradientUnits="userSpaceOnUse"><stop stop-color="#fff" stop-opacity="0"/><stop offset="1" stop-color="#e8e8e8"/></linearGradient><linearGradient id="b" x1="180.276" x2="6.186" y1="155.456" y2="412.419" gradientUnits="userSpaceOnUse"><stop stop-color="#fff"/><stop offset="1" stop-color="#dbdbdb"/></linearGradient><linearGradient id="c" x1="465.361" x2="295.821" y1="676.846" y2="206.656" gradientUnits="userSpaceOnUse"><stop stop-color="#fff"/><stop offset="1" stop-color="#e9e9e9" stop-opacity=".631"/></linearGradient><linearGradient id="d" x1="410.106" x2="236.016" y1="34.788" y2="291.751" gradientUnits="userSpaceOnUse"><stop stop-color="#fff"/><stop offset="1" stop-color="#e0e2e9"/></linearGradient><linearGradient id="e" x1="393.321" x2="-91.496" y1="-37.489" y2="144.258" gradientUnits="userSpaceOnUse"><stop stop-color="#fff"/><stop offset="1" stop-color="#c0cbd5"/></linearGradient><linearGradient id="f" x1="359.436" x2="336.154" y1="-12.348" y2="5.661" gradientUnits="userSpaceOnUse"><stop stop-color="#ffe06a"/><stop offset="1" stop-color="#fff3c7"/></linearGradient><linearGradient id="g" x1="135.16" x2="8.109" y1="81.484" y2="81.484" gradientUnits="userSpaceOnUse"><stop stop-color="#5e98f7"/><stop offset="1" stop-color="#4670ba"/></linearGradient></defs></svg>