<svg xmlns="http://www.w3.org/2000/svg" width="288" height="241" fill="none" viewBox="0 0 288 241"><path fill="url(#a)" d="M287.556 196.334c0-32.506-23.309-71.18-52.249-87.032-10.94-40.532-40.474-81.072-75.297-99.446-16.363-8.635-31.528-11.068-44.178-8.292l-.009-.062-25.062 5.622S74.964 27.031 73.009 32.215c-5.496-3.775-13.462-7.83-18.966-6.838l-26.87 5.118s17.413 105.703 46.803 121.211c12.512 6.599 171.507 87.594 171.507 87.594l18.005-5.871-.062-.024c14.521-2.963 24.13-16.215 24.13-37.071"/><path fill="url(#b)" d="M214.612 115.4c-11.573-40.532-42.822-81.072-79.665-99.446S66.858 6.961 55.281 35.945C24.664 21.26 0 35.335 0 67.842c0 32.874 25.21 72.091 56.307 87.598 13.236 6.602 144.046 71.834 157.281 78.436 31.095 15.506 56.305 1.429 56.305-31.441 0-32.51-24.665-71.183-55.281-87.035"/><defs><linearGradient id="a" x1="80.552" x2="195.802" y1="-120.135" y2="95.835" gradientUnits="userSpaceOnUse"><stop stop-color="#fff"/><stop offset="1" stop-color="#b6d4ff"/></linearGradient><linearGradient id="b" x1="134.946" x2="134.946" y1="6.512" y2="240.181" gradientUnits="userSpaceOnUse"><stop stop-color="#fff"/><stop offset="1" stop-color="#b6d4ff"/></linearGradient></defs></svg>