<svg xmlns="http://www.w3.org/2000/svg" width="82" height="81" fill="none" viewBox="0 0 82 81"><path fill="#0c5ae5" d="M10.605 80.911h-.053a.7.7 0 0 1-.644-.75 48.7 48.7 0 0 1 2.22-11.111 56.12 56.12 0 0 1 11.245-19.455 45.1 45.1 0 0 1 10.024-8.386 29.5 29.5 0 0 1 6.35-2.688c.196-.05.38-.09.563-.13q.158-.034.313-.071.326-.099.665-.133a10 10 0 0 1 1.01-.147l.123-.014c.797-.1 1.602-.126 2.404-.078.133.005.268.014.396.025a56 56 0 0 0-5.38-2.964.7.7 0 0 1-.362-.937.7.7 0 0 1 .946-.334 72 72 0 0 1 7.165 4.048c1.047.645 2.036 1.254 2.929 1.77a.7.7 0 0 1-.669 1.228 12.9 12.9 0 0 0-4.404-1.382c-.2-.02-.443-.046-.68-.054a12 12 0 0 0-2.176.07l-.136.015a8 8 0 0 0-.906.133 1 1 0 0 1-.096.014q-.226.02-.441.085l-.044.012-.354.08q-.255.055-.51.117a28 28 0 0 0-6.01 2.548 43.7 43.7 0 0 0-9.683 8.11 54.7 54.7 0 0 0-9.047 14.047 53 53 0 0 0-1.91 4.905 47.3 47.3 0 0 0-2.156 10.782.7.7 0 0 1-.692.645M14.169 35.827a.7.7 0 0 1-.362-.102c-4.594-2.79-5.677-9.235-2.904-17.24C14.315 8.632 22.766-.949 31.008.076c2.28.284 6.722 3.005 10.287 5.19.964.592 1.795 1.102 2.457 1.482a.7.7 0 0 1-.698 1.214c-.68-.39-1.516-.906-2.488-1.5-3.086-1.892-7.75-4.75-9.73-4.997C23.4.543 15.383 9.822 12.222 18.945c-2.541 7.333-1.678 13.162 2.31 15.584a.7.7 0 0 1-.363 1.298"/><path fill="#0c5ae5" d="M10.605 80.912h-.04a.7.7 0 0 1-.658-.738c.535-9.602 5.252-20.804 12.31-29.23 3.142-3.769 9.6-10.395 17.546-12.428 5.465-1.483 10.641-.138 13.838 3.599a.702.702 0 0 1-.584 1.154.7.7 0 0 1-.477-.242c-2.88-3.367-7.403-4.52-12.423-3.155-7.572 1.937-13.794 8.332-16.83 11.97-6.875 8.212-11.467 19.1-11.986 28.411a.7.7 0 0 1-.696.659"/><path fill="#0c5ae5" d="M27.738 42.511a7.87 7.87 0 0 1-3.99-1.04c-2.809-1.628-4.35-4.99-4.35-9.465a31 31 0 0 1 4.089-13.829 30.9 30.9 0 0 1 9.902-10.466c3.872-2.243 7.553-2.586 10.365-.966s4.34 4.98 4.34 9.464c0 10.034-7.34 20.49-14.14 24.425a12.6 12.6 0 0 1-6.216 1.877m12.105-35.37c-2.04.082-4.025.697-5.756 1.783a29.5 29.5 0 0 0-9.39 9.954 29.6 29.6 0 0 0-3.901 13.129c0 3.953 1.296 6.883 3.65 8.25 3.042 1.76 6.467.516 8.81-.837C39.722 35.68 46.7 25.743 46.7 16.208c0-3.96-1.293-6.89-3.641-8.248a6.35 6.35 0 0 0-3.215-.818z"/><path fill="#0c5ae5" d="M.699 75.173H.646a.697.697 0 0 1-.644-.75c1.03-13.684 8.782-27.96 19.745-36.373a.697.697 0 0 1 1.094.648.7.7 0 0 1-.243.46C9.936 47.343 2.398 61.221 1.397 74.524a.7.7 0 0 1-.698.65"/><path fill="#0c5ae5" d="M10.606 80.911a.7.7 0 0 1-.349-.094L.35 75.078a.7.7 0 0 1 .7-1.212l9.907 5.738a.7.7 0 0 1-.35 1.306zM24.093 41.566a.7.7 0 0 1-.348-.094l-9.925-5.74a.7.7 0 1 1 .699-1.212l9.924 5.739a.7.7 0 0 1-.35 1.306"/><path fill="#0c5ae5" d="M10.605 80.911a.697.697 0 0 1-.646-.968.7.7 0 0 1 .297-.338l25.764-14.91a.697.697 0 0 1 1.022.787.7.7 0 0 1-.324.425l-25.763 14.91a.7.7 0 0 1-.35.094M68.49 61.269l-7.24-4.217.011 4.048 7.24 4.217z"/><path fill="#0c5ae5" d="M68.503 65.771a.453.453 0 0 0 .454-.457l-.012-4.047a.45.45 0 0 0-.226-.392l-7.24-4.217a.45.45 0 0 0-.621.168.46.46 0 0 0-.061.228l.012 4.047a.45.45 0 0 0 .226.392l7.24 4.217q.106.06.228.061m-.464-4.242.009 2.996-6.335-3.687-.008-2.995z"/><path fill="#5f98ed" d="m81.481 32.641-7.24-4.22-13.046 7.552 7.241 4.214z"/><path fill="#0c5ae5" d="M68.434 40.644q.122 0 .227-.06l13.046-7.549a.454.454 0 0 0 0-.787l-7.24-4.216a.45.45 0 0 0-.454 0L60.97 35.579a.455.455 0 0 0 0 .787l7.24 4.217q.105.06.225.061m12.14-8.004-12.14 7.024-6.335-3.69 12.143-7.023z"/><path fill="#5f98ed" d="m68.43 40.19.007 2.825.052 18.255.011 4.048 13.046-7.547-.071-25.127z"/><path fill="#0c5ae5" d="M68.502 65.772q.122 0 .227-.06l13.046-7.549a.45.45 0 0 0 .227-.395l-.07-25.127a.454.454 0 0 0-.681-.393l-13.047 7.548a.46.46 0 0 0-.227.395l.07 25.129a.457.457 0 0 0 .454.454zm12.592-8.265-12.14 7.024-.069-24.079 12.14-7.02z"/><path fill="#0c5ae5" d="m68.426 40.189-7.239-4.219.007 2.827 7.24 4.216z"/><path fill="#0c5ae5" d="M68.439 43.468a.45.45 0 0 0 .454-.455l-.008-2.825a.46.46 0 0 0-.227-.392l-7.235-4.216a.454.454 0 0 0-.68.394l.008 2.825a.46.46 0 0 0 .226.392l7.24 4.217q.104.06.222.06m-.465-3.017.005 1.771-6.331-3.686-.005-1.771zM44.59 31.57l7.24 4.217a.71.71 0 0 0-.733.057l-7.238-4.216a.7.7 0 0 1 .731-.057"/><path fill="#0c5ae5" d="M51.095 36.299q.122 0 .227-.06.19-.11.278-.059a.453.453 0 0 0 .667-.509.46.46 0 0 0-.21-.277l-7.24-4.217a1.14 1.14 0 0 0-1.192.056.454.454 0 0 0 0 .788l7.24 4.216q.107.063.23.062"/><path fill="#fff" d="m67.84 42.538-7.24-4.217c-.796-.463-2.398-.902-4.917.556-1.877 1.086-4.361.734-6.449-.481l7.24 4.216c2.088 1.216 4.573 1.568 6.449.482 2.52-1.461 4.121-1.02 4.918-.556"/><path fill="#0c5ae5" d="M60.352 44.205a5.54 5.54 0 0 0 2.797-.717c2.359-1.364 3.804-.938 4.457-.56h.004a.453.453 0 0 0 .668-.509.46.46 0 0 0-.21-.277h-.005l-7.232-4.214c-.821-.478-2.612-1.043-5.373.555-1.597.924-3.89.742-5.986-.476l-.008-.004a.456.456 0 0 0-.621.164.455.455 0 0 0 .164.622h.007l7.232 4.213a8.25 8.25 0 0 0 4.106 1.203m5.12-2.515a7.5 7.5 0 0 0-2.777 1.014c-1.6.925-3.897.741-5.993-.48l-3.84-2.24a5.6 5.6 0 0 0 3.046-.712c2.364-1.364 3.812-.937 4.463-.555z"/><mask id="a" width="19" height="7" x="49" y="37" maskUnits="userSpaceOnUse" style="mask-type:luminance"><path fill="#fff" d="M62.926 43.094c2.52-1.459 4.122-1.02 4.918-.556l-7.24-4.217c-.797-.463-2.399-.903-4.918.555-1.877 1.087-4.361.735-6.449-.481l7.241 4.216a7.9 7.9 0 0 0 3.893 1.133 5.05 5.05 0 0 0 2.555-.65m-2.553-4.38 5.103 2.972a7.45 7.45 0 0 0-2.777 1.014c-1.599.926-3.897.742-5.994-.481l-3.836-2.236a5.6 5.6 0 0 0 3.046-.712 5.96 5.96 0 0 1 2.952-.938 2.96 2.96 0 0 1 1.509.38z"/></mask><g mask="url(#a)"><path fill="#fff" d="m67.84 42.538-7.24-4.217c-.796-.463-2.398-.902-4.917.556-1.877 1.086-4.361.734-6.449-.481l7.24 4.216c2.088 1.216 4.573 1.568 6.449.482 2.52-1.461 4.121-1.02 4.918-.556"/><path fill="#0c5ae5" d="M60.352 44.205a5.54 5.54 0 0 0 2.797-.717c2.359-1.364 3.804-.938 4.457-.56h.004a.453.453 0 0 0 .668-.509.46.46 0 0 0-.21-.277h-.005l-7.232-4.214c-.821-.478-2.612-1.043-5.373.555-1.597.924-3.89.742-5.986-.476l-.008-.004a.456.456 0 0 0-.621.164.455.455 0 0 0 .164.622h.007l7.232 4.213a8.25 8.25 0 0 0 4.106 1.203m5.12-2.515a7.5 7.5 0 0 0-2.777 1.014c-1.6.925-3.897.741-5.993-.48l-3.84-2.24a5.6 5.6 0 0 0 3.046-.712c2.364-1.364 3.812-.937 4.463-.555z"/></g><path fill="#d4e6fc" d="m36.613 73.946 7.24 4.216a3.4 3.4 0 0 1-1.14-1.642c-.186-.437.317-1.337.162-1.902-.24-.853-1.121-1.455-1.289-2.522-.153-.97.402-2.398.318-3.468-.074-.955-.792-1.542-.805-2.522-.012-.98.688-2.344.747-3.29.038-.65-.578-.896-.5-1.512q.14-1.185.413-2.345c.425-1.8 2.722-3.544 5.062-4.897a42 42 0 0 1 5.118-2.473l-7.24-4.216a42 42 0 0 0-5.117 2.473c-2.339 1.352-4.637 3.097-5.063 4.896q-.272 1.16-.414 2.345c-.077.616.538.861.5 1.512-.059.946-.758 2.315-.745 3.291.012.976.73 1.567.804 2.522.085 1.067-.472 2.496-.318 3.468.17 1.067 1.05 1.665 1.288 2.522.157.563-.347 1.465-.161 1.902a3.4 3.4 0 0 0 1.14 1.642"/><path fill="#0c5ae5" d="M43.854 78.621a.454.454 0 0 0 .425-.632.45.45 0 0 0-.196-.22 2.85 2.85 0 0 1-.95-1.423 2 2 0 0 1 .092-.624c.129-.395.158-.816.085-1.226a3.9 3.9 0 0 0-.642-1.185 3.1 3.1 0 0 1-.636-1.287 5.6 5.6 0 0 1 .146-1.63 7.5 7.5 0 0 0 .177-1.801 3.7 3.7 0 0 0-.446-1.365 2.6 2.6 0 0 1-.358-1.125 6.1 6.1 0 0 1 .367-1.646 7.5 7.5 0 0 0 .379-1.61 1.66 1.66 0 0 0-.33-1.035c-.14-.218-.19-.313-.17-.449q.139-1.16.404-2.296c.325-1.364 2-2.962 4.85-4.604a41.5 41.5 0 0 1 5.058-2.441.454.454 0 0 0 .233-.635.45.45 0 0 0-.173-.181l-7.24-4.217a.46.46 0 0 0-.396-.03 43 43 0 0 0-5.177 2.5c-3.112 1.8-4.888 3.546-5.275 5.185a22 22 0 0 0-.425 2.395c-.033.375.077.75.306 1.048.118.138.185.311.191.492a6.8 6.8 0 0 1-.34 1.396 6.7 6.7 0 0 0-.407 1.928c.03.533.184 1.052.45 1.515.184.32.305.67.356 1.036a6.8 6.8 0 0 1-.165 1.573 6.1 6.1 0 0 0-.149 1.931c.126.612.397 1.184.79 1.669.219.272.391.578.511.906.017.26-.016.52-.097.768-.138.38-.154.794-.046 1.185a3.7 3.7 0 0 0 1.33 1.857l7.24 4.217q.107.06.228.061m7.062-27.094a42 42 0 0 0-4.323 2.145c-3.114 1.8-4.89 3.546-5.276 5.184q-.28 1.186-.425 2.395c-.032.377.078.75.307 1.05.117.137.184.31.19.491a6.7 6.7 0 0 1-.34 1.396 6.7 6.7 0 0 0-.407 1.929c.03.533.184 1.052.45 1.515.184.32.305.67.356 1.036a6.8 6.8 0 0 1-.17 1.571 6.2 6.2 0 0 0-.148 1.932c.126.612.397 1.184.79 1.669.22.272.392.577.511.905.018.26-.015.52-.096.768a1.96 1.96 0 0 0-.046 1.186l.017.04-5.472-3.186a2.87 2.87 0 0 1-.95-1.424q0-.318.093-.623c.129-.395.158-.816.086-1.225a3.9 3.9 0 0 0-.641-1.186 3.1 3.1 0 0 1-.63-1.282 5.6 5.6 0 0 1 .146-1.63 7.4 7.4 0 0 0 .177-1.802 3.7 3.7 0 0 0-.446-1.365 2.6 2.6 0 0 1-.357-1.125 6 6 0 0 1 .365-1.646 7.5 7.5 0 0 0 .38-1.611 1.65 1.65 0 0 0-.331-1.034c-.138-.219-.189-.313-.17-.449a21 21 0 0 1 .405-2.297c.324-1.364 2-2.961 4.85-4.604a41 41 0 0 1 4.851-2.365z"/><mask id="b" width="19" height="32" x="33" y="47" maskUnits="userSpaceOnUse" style="mask-type:luminance"><path fill="#fff" d="M42.71 76.525c-.184-.439.318-1.338.163-1.903-.24-.852-1.12-1.453-1.29-2.522-.153-.969.402-2.398.319-3.466-.074-.956-.792-1.544-.805-2.522-.013-.98.686-2.346.746-3.292.038-.65-.577-.895-.5-1.51q.141-1.186.414-2.347c.426-1.798 2.723-3.544 5.062-4.897a42 42 0 0 1 5.118-2.47l-7.241-4.216a42 42 0 0 0-5.116 2.473c-2.338 1.353-4.636 3.097-5.063 4.895q-.273 1.162-.413 2.347c-.078.616.538.861.5 1.512-.06.945-.759 2.314-.746 3.29.013.978.73 1.568.805 2.523.085 1.067-.472 2.496-.318 3.467.17 1.068 1.05 1.666 1.288 2.522.155.564-.347 1.465-.162 1.902.207.65.604 1.222 1.14 1.641l7.244 4.214a3.4 3.4 0 0 1-1.145-1.641m8.206-24.998a42 42 0 0 0-4.323 2.145c-3.114 1.8-4.89 3.545-5.275 5.185q-.28 1.186-.425 2.395c-.032.375.077.75.306 1.05.117.136.185.31.191.49a6.7 6.7 0 0 1-.34 1.396 6.7 6.7 0 0 0-.407 1.928c.03.533.184 1.052.451 1.515.184.32.305.671.356 1.037a6.8 6.8 0 0 1-.165 1.569 6.1 6.1 0 0 0-.148 1.932c.125.611.396 1.184.79 1.668.218.272.39.577.51.905.018.26-.015.523-.096.771-.138.381-.154.795-.047 1.186l.017.04-5.47-3.186a2.86 2.86 0 0 1-.951-1.424c-.002-.21.03-.421.093-.623.128-.395.157-.815.085-1.224a3.9 3.9 0 0 0-.641-1.186 3.1 3.1 0 0 1-.636-1.286 5.6 5.6 0 0 1 .145-1.63 7.5 7.5 0 0 0 .177-1.803 3.7 3.7 0 0 0-.446-1.364 2.6 2.6 0 0 1-.358-1.125 6 6 0 0 1 .366-1.645 7.4 7.4 0 0 0 .38-1.613 1.65 1.65 0 0 0-.332-1.034c-.138-.218-.189-.313-.17-.448q.138-1.16.404-2.297c.324-1.364 2-2.96 4.85-4.604a41.5 41.5 0 0 1 4.855-2.359z"/></mask><g mask="url(#b)"><path fill="#d4e6fc" d="m51.94 51.596-7.242-4.216a42 42 0 0 0-5.117 2.472c-2.338 1.353-4.636 3.098-5.062 4.896q-.272 1.162-.414 2.346c-.077.615.538.861.5 1.512-.059.946-.758 2.314-.745 3.29.012.977.73 1.568.804 2.523.085 1.067-.472 2.496-.318 3.468.17 1.067 1.05 1.665 1.288 2.522.157.563-.347 1.464-.161 1.902a3.4 3.4 0 0 0 1.14 1.642l7.24 4.216a3.4 3.4 0 0 1-1.14-1.642c-.186-.437.317-1.337.162-1.902-.24-.853-1.121-1.455-1.289-2.522-.153-.97.402-2.399.318-3.468-.074-.955-.792-1.542-.805-2.522-.012-.98.688-2.345.747-3.291.038-.65-.578-.895-.5-1.511a21 21 0 0 1 .413-2.346c.425-1.799 2.722-3.543 5.062-4.896a42 42 0 0 1 5.118-2.473"/><path fill="#0c5ae5" d="M43.854 78.621a.454.454 0 0 0 .425-.632.45.45 0 0 0-.196-.22 2.85 2.85 0 0 1-.95-1.423 2 2 0 0 1 .092-.624c.129-.395.158-.816.085-1.226a3.9 3.9 0 0 0-.642-1.185 3.1 3.1 0 0 1-.636-1.287 5.6 5.6 0 0 1 .146-1.63 7.5 7.5 0 0 0 .177-1.801 3.7 3.7 0 0 0-.446-1.365 2.6 2.6 0 0 1-.358-1.125 6.1 6.1 0 0 1 .367-1.646 7.5 7.5 0 0 0 .379-1.61 1.66 1.66 0 0 0-.33-1.035c-.14-.218-.19-.313-.17-.449q.139-1.16.404-2.296c.325-1.364 2-2.962 4.85-4.604a41.5 41.5 0 0 1 5.058-2.441.454.454 0 0 0 .233-.635.45.45 0 0 0-.173-.181l-7.24-4.217a.46.46 0 0 0-.396-.03 43 43 0 0 0-5.177 2.5c-3.112 1.8-4.888 3.546-5.275 5.185a22 22 0 0 0-.425 2.395c-.033.375.077.75.306 1.048.118.138.185.311.191.492a6.8 6.8 0 0 1-.34 1.396 6.7 6.7 0 0 0-.407 1.928c.03.533.184 1.052.45 1.515.184.32.305.67.356 1.036a6.8 6.8 0 0 1-.165 1.573 6.1 6.1 0 0 0-.149 1.931c.126.612.397 1.184.79 1.669.219.272.391.578.511.906.017.26-.016.52-.097.768-.138.38-.154.794-.046 1.185a3.7 3.7 0 0 0 1.33 1.857l7.24 4.217q.107.06.228.061m7.062-27.094a42 42 0 0 0-4.323 2.145c-3.114 1.8-4.89 3.546-5.276 5.184q-.28 1.186-.425 2.395c-.032.377.078.75.307 1.05.117.137.184.31.19.491a6.7 6.7 0 0 1-.34 1.396 6.7 6.7 0 0 0-.407 1.929c.03.533.184 1.052.45 1.515.184.32.305.67.356 1.036a6.8 6.8 0 0 1-.17 1.571 6.2 6.2 0 0 0-.148 1.932c.126.612.397 1.184.79 1.669.22.272.392.577.511.905.018.26-.015.52-.096.768a1.96 1.96 0 0 0-.046 1.186l.017.04-5.472-3.186a2.87 2.87 0 0 1-.95-1.424q0-.318.093-.623c.129-.395.158-.816.086-1.225a3.9 3.9 0 0 0-.641-1.186 3.1 3.1 0 0 1-.63-1.282 5.6 5.6 0 0 1 .146-1.63 7.4 7.4 0 0 0 .177-1.802 3.7 3.7 0 0 0-.446-1.365 2.6 2.6 0 0 1-.357-1.125 6 6 0 0 1 .365-1.646 7.5 7.5 0 0 0 .38-1.611 1.65 1.65 0 0 0-.331-1.034c-.138-.219-.189-.313-.17-.449a21 21 0 0 1 .405-2.297c.324-1.364 2-2.961 4.85-4.604a41 41 0 0 1 4.851-2.365z"/></g><path fill="#fff" d="M51.092 35.843c-1.587.918-3.729 6.31-2.011 10.784 1.568 4.087 2.444 4.894 2.86 4.967a42 42 0 0 0-5.117 2.473c-2.338 1.352-4.637 3.097-5.063 4.896q-.273 1.162-.413 2.346c-.078.616.538.861.5 1.51-.059.947-.759 2.316-.746 3.292s.73 1.567.805 2.522c.085 1.07-.473 2.498-.319 3.468.17 1.067 1.05 1.666 1.29 2.522.154.565-.349 1.465-.163 1.902.545 1.315 1.201 2.005 1.916 1.695 4.034-1.757 7.97-3.73 11.792-5.91 5.632-3.258 11.272-7.354 12.07-11.04l-.052-18.257c-.091-.103-1.809-2.066-5.519.08s-9.802-1.33-10.492-5.988c-.192-1.302-.724-1.617-1.338-1.262"/><path fill="#0c5ae5" d="M44.295 78.746q.272-.002.52-.111A122 122 0 0 0 56.653 72.7c7.457-4.314 11.592-8.129 12.288-11.34a.5.5 0 0 0 .01-.097l-.052-18.254c0-.11-.04-.216-.113-.3-.211-.24-2.17-2.28-6.085-.013a5.85 5.85 0 0 1-5.408-.17 7.77 7.77 0 0 1-4.41-5.492 2.06 2.06 0 0 0-.895-1.683 1.14 1.14 0 0 0-1.118.093c-1.787 1.036-4 6.666-2.213 11.34 1.056 2.75 1.813 4.064 2.367 4.69a42 42 0 0 0-4.425 2.189c-3.113 1.8-4.889 3.546-5.275 5.184q-.28 1.186-.425 2.395c-.032.377.077.75.307 1.05.117.137.184.31.19.491a6.7 6.7 0 0 1-.34 1.396c-.23.619-.368 1.269-.408 1.929.03.533.185 1.052.451 1.515.184.32.305.67.356 1.036a6.8 6.8 0 0 1-.17 1.571c-.151.632-.2 1.284-.148 1.932.126.612.397 1.184.79 1.669.219.272.391.577.51.905.019.26-.014.52-.095.768a1.96 1.96 0 0 0-.046 1.186c.235.822.78 1.521 1.52 1.95.15.066.314.102.48.105M68.042 61.22c-.663 2.899-4.757 6.594-11.844 10.694a122 122 0 0 1-11.741 5.883.35.35 0 0 1-.295.009c-.151-.06-.552-.325-1.021-1.459a2 2 0 0 1 .092-.623c.128-.396.158-.817.085-1.226-.144-.43-.361-.83-.642-1.185a3.1 3.1 0 0 1-.636-1.287 5.6 5.6 0 0 1 .146-1.63 7.5 7.5 0 0 0 .177-1.802 3.7 3.7 0 0 0-.447-1.364 2.6 2.6 0 0 1-.357-1.126 6.1 6.1 0 0 1 .367-1.645 7.5 7.5 0 0 0 .378-1.61 1.66 1.66 0 0 0-.33-1.036c-.139-.217-.189-.313-.17-.448.093-.772.228-1.54.405-2.296.324-1.365 2-2.962 4.85-4.605a41.4 41.4 0 0 1 5.058-2.44.455.455 0 0 0-.085-.871c-.032-.008-.81-.236-2.515-4.684-1.636-4.259.452-9.438 1.815-10.225.068-.04.193-.101.268-.064.123.06.3.356.394.997a8.6 8.6 0 0 0 4.912 6.178 6.65 6.65 0 0 0 6.258.138c2.903-1.682 4.412-.671 4.837-.287z"/><path fill="#d4e6fc" d="m44.512 47.303 7.241 4.217c-.471-.274-1.31-1.353-2.667-4.892-1.717-4.473.425-9.866 2.011-10.783l-7.24-4.217c-1.587.918-3.73 6.31-2.011 10.783 1.358 3.538 2.197 4.618 2.666 4.892"/><path fill="#0c5ae5" d="M51.748 51.975a.453.453 0 0 0 .421-.628.45.45 0 0 0-.192-.22c-.263-.152-1.033-.915-2.467-4.662-1.636-4.259.452-9.439 1.815-10.226a.453.453 0 0 0 0-.786l-7.24-4.217a.45.45 0 0 0-.456 0c-1.787 1.037-4 6.668-2.208 11.34 1.15 2.995 2.086 4.67 2.863 5.123l7.239 4.215q.105.06.225.06M50.302 35.91c-1.642 1.726-3.256 6.688-1.646 10.88q.614 1.655 1.415 3.227l-5.337-3.107c-.264-.153-1.034-.915-2.467-4.662-1.555-4.051.255-8.937 1.611-10.08z"/><mask id="c" width="11" height="21" x="41" y="31" maskUnits="userSpaceOnUse" style="mask-type:luminance"><path fill="#fff" d="M49.083 46.628c-1.718-4.472.425-9.866 2.011-10.783l-7.24-4.216c-1.588.917-3.73 6.309-2.012 10.782 1.361 3.54 2.197 4.619 2.667 4.892l7.241 4.217c-.47-.274-1.31-1.353-2.667-4.892m1.22-10.717c-1.642 1.726-3.255 6.688-1.646 10.88q.615 1.655 1.417 3.227l-5.337-3.108c-.264-.153-1.034-.914-2.471-4.661-1.555-4.051.255-8.937 1.61-10.08z"/></mask><g mask="url(#c)"><path fill="#d4e6fc" d="m51.09 35.844-7.24-4.216c-1.588.917-3.73 6.31-2.012 10.782 1.361 3.54 2.197 4.619 2.666 4.894l7.241 4.216c-.471-.274-1.31-1.352-2.667-4.892-1.716-4.473.426-9.866 2.011-10.784"/><path fill="#0c5ae5" d="M51.748 51.975a.453.453 0 0 0 .421-.628.45.45 0 0 0-.192-.22c-.263-.152-1.033-.915-2.467-4.662-1.636-4.259.452-9.439 1.815-10.226a.453.453 0 0 0 0-.786l-7.24-4.217a.45.45 0 0 0-.456 0c-1.787 1.037-4 6.668-2.208 11.34 1.15 2.995 2.086 4.67 2.863 5.123l7.239 4.215q.105.06.225.06M50.302 35.91c-1.642 1.726-3.256 6.688-1.646 10.88q.614 1.655 1.415 3.227l-5.337-3.107c-.264-.154-1.034-.916-2.467-4.663-1.555-4.05.255-8.936 1.611-10.08z"/></g></svg>