<svg xmlns="http://www.w3.org/2000/svg" width="133" height="161" fill="none" viewBox="0 0 133 161"><g clip-path="url(#a)"><path fill="#004711" d="m34.693 74.256-6.566-43.998-26.6-16.57 7.924 41.369zm6.225 47.311L36.73 90.369l-23.658-19.77 6.113 30.855zm-18.79-6.971 4.188 23.426 20.149 21.143-2.83-23.885zm60.106-7.2-10.357-7.77s-.147 2.782-.424 2.971l-7.556 5.371 8.263 6.856.481 7.8 9.82 8.085zm31.299-22.798-1.868 21.97-6.962-4.628s.768-11.108.764-11.114c-.04-.075-13.413-9.142-13.413-9.142l.424-10.114z"/><path fill="#00b159" d="m69.44 56.088-1.923-40.912L28.125 30.26l6.565 43.997zm1.812 46.397-1.585-31.198-32.94 19.084 4.868 31.998zm.566 12.685-28.186 20.113 3.51 24.569 25.694-20.684zm10.867-7.885.452 23.77 20.375-16.685 1.018-22.627zm48.532-34.427-2.66 20.856-15.932 12.913 1.896-21.912z"/><path fill="#000" d="M72.876 114.772c-.001-.02-.008-.038-.01-.058a.95.95 0 0 0-.272-.577q-.026-.029-.054-.056l-.014-.016-7.538-6.21 6.931-4.715a.97.97 0 0 0 .42-.841l-.07-1.66 9.19 7.082.18 21.506-8.455-7.186zm-37-24.1 4.261 29.407-20.2-19.212-5.848-28.52zm34.532 11.169-28.202 19.181-4.398-30.344 31.367-18.024zM66.78 16.122l1.677 39.592-33.187 17.434-6.154-42.414zM27.177 30.691l6.052 41.7L10.41 54.439 2.345 15.103l24.832 15.589zm.353 107.18-4.312-21.032 19.219 19.083 3.078 21.222zm44.443.766-24.367 19.597-3.24-22.331 26.675-19.268zm30.59-24.622-19.012 15.309-.178-21.589 20.458-14.773zm2.654-12.261.644-10.695q-.001-.017-.003-.035.002-.022.004-.042c-.001-.042-.012-.083-.018-.125-.005-.03-.005-.06-.012-.089a1 1 0 0 0-.081-.215l-.008-.018a1 1 0 0 0-.151-.203q-.019-.018-.039-.034-.055-.057-.12-.105l-12.807-8.538.186-9.37 20.155 12.679-1.797 20.973zm7.906 3.774 1.761-20.544 15.907-11.494-2.674 19.972zm19.865-34.18c-.001-.018-.008-.035-.01-.053a1.2 1.2 0 0 0-.107-.345 1 1 0 0 0-.094-.142l-.057-.07a1 1 0 0 0-.147-.122c-.017-.011-.029-.027-.047-.038l-.013-.006-.016-.011-21.77-12.179a.95.95 0 0 0-.961.023l-18.375 11.34c-.03.018-.053.044-.08.065-.033.025-.067.048-.096.077q-.044.048-.08.102c-.024.03-.05.059-.068.092-.024.04-.04.085-.057.128-.013.034-.03.063-.04.099-.012.047-.016.096-.022.145-.003.032-.013.062-.014.095l-.196 9.848-7.475-4.984a.95.95 0 0 0-1.026-.02L71.483 82.03l-.466-11.038c0-.023-.009-.044-.011-.067a1 1 0 0 0-.025-.143q-.016-.05-.036-.1a1 1 0 0 0-.054-.12q-.031-.05-.065-.096a1 1 0 0 0-.077-.096 1 1 0 0 0-.094-.082c-.02-.017-.037-.038-.06-.054l-11.191-7.589 10.476-5.503a.96.96 0 0 0 .512-.898l-1.759-41.546c-.002-.051-.014-.1-.024-.15q-.004-.03-.01-.061a1 1 0 0 0-.098-.236q-.014-.02-.027-.038a1 1 0 0 0-.131-.163q-.028-.026-.058-.049c-.028-.023-.052-.05-.081-.07-.024-.015-.05-.023-.075-.037q-.017-.012-.035-.024L39.87.12a.94.94 0 0 0-.7-.053L.672 12.173l-.007.005c-.016.004-.03.015-.045.02a1 1 0 0 0-.203.103l-.006.003c-.021.015-.036.037-.056.053a1 1 0 0 0-.137.131c-.029.036-.048.077-.071.115-.024.04-.05.076-.068.118-.02.05-.031.104-.042.157-.008.033-.022.062-.027.095v.014c-.005.05 0 .098.003.147.001.046 0 .09.007.135l.001.02 8.59 41.887a.96.96 0 0 0 .348.564l11.659 9.174-8.429 4.052c-.015.007-.027.019-.041.026-.013.008-.027.01-.04.017-.019.012-.031.028-.048.04a1 1 0 0 0-.134.114q-.036.035-.068.073a1 1 0 0 0-.104.165c-.01.02-.024.04-.033.063a1 1 0 0 0-.07.252v.011c-.001.014.002.027 0 .04a1 1 0 0 0 .012.235q.001.015.002.03l6.462 31.524c.04.195.137.371.28.507l8.115 7.716-5.377 3.321a1 1 0 0 0-.187.154c-.016.015-.026.032-.04.048a1 1 0 0 0-.12.18 1 1 0 0 0-.105.329 1 1 0 0 0 .013.275q.001.015.001.03l5.007 24.415a.96.96 0 0 0 .24.464l20.25 21.704c.03.032.066.057.1.086q.017.016.035.031.095.07.202.113.004.003.009.005.009.003.019.004c.106.04.218.064.332.064a1 1 0 0 0 .342-.07c.024-.01.05-.015.073-.027.04-.018.068-.049.103-.073.025-.016.054-.024.077-.042l26.048-20.951a.97.97 0 0 0 .36-.796l-.61-14.385 8.703 7.395c.015.013.035.018.051.03.05.036.097.075.153.103q.028.01.056.019.036.014.07.025c.094.029.189.05.285.05a1 1 0 0 0 .278-.048q.03-.01.063-.022c.022-.008.044-.012.066-.022.048-.023.087-.057.13-.087.018-.013.04-.018.058-.032l20.88-16.812a.97.97 0 0 0 .358-.698l.636-10.549 6.352 4.464c.014.009.029.013.042.021.019.011.033.028.052.039.037.02.077.03.116.044q.038.017.079.03.127.038.256.039a1 1 0 0 0 .342-.068c.02-.009.043-.013.065-.022.052-.025.096-.061.142-.094.015-.01.033-.014.048-.026l17.033-13.705a.98.98 0 0 0 .352-.627l3.021-22.572c.004-.024-.002-.047-.001-.071.003-.038.01-.075.008-.114"/></g><defs><clipPath id="a"><path fill="#fff" d="M0 0h133v161H0z"/></clipPath></defs></svg>