<svg xmlns="http://www.w3.org/2000/svg" width="184" height="78" fill="none" viewBox="0 0 184 78"><g clip-path="url(#a)"><path fill="#000" d="M44.227 20.766a.23.23 0 0 1-.145.22.2.2 0 0 1-.09.016h-.237c-.236 0-.236-.236-.472-.472a.83.83 0 0 1-.236-.472c0-.236 0-.236.236-.236l.472.236c.236.236.472.472.472.708m-4.25-2.362c0-1.181-.473-1.89-1.182-1.89a.23.23 0 0 1-.145.22.2.2 0 0 1-.09.017v.472h.707c0 .472.236.708.236 1.18h.472m8.266-1.18c.472 0 .708.472.945 1.18h.472a.87.87 0 0 1-.236-.707.87.87 0 0 0-.236-.708c-.236-.236-.472-.472-.708-.472a.83.83 0 0 1-.472.236c0 .236.236.236.236.472m-7.085 3.779c-.236 0-.236 0-.236-.236a.87.87 0 0 1 .236-.708c.257.012.51-.072.708-.236a.23.23 0 0 1 .236.236c0 .236-.236.472-.708.945zm-2.6-.235c-.945-.472-1.18-1.181-1.18-2.362a2 2 0 0 1 .471-1.653 1.3 1.3 0 0 1 1.181-.708c.472 0 .708.236 1.181.708a6.9 6.9 0 0 1 .472 2.125v.472h.236v-.236c.236 0 .236-.472.236-1.417a3.5 3.5 0 0 0-.472-2.125 2.1 2.1 0 0 0-1.887-1.183 1.78 1.78 0 0 0-1.653 1.18 5.55 5.55 0 0 0-.567 2.835 3.87 3.87 0 0 0 1.275 2.834c.236-.236.472-.236.708-.472m29.52 33.3c.236 0 .236-.094.236-.307a2.57 2.57 0 0 0-.945-1.818 5.77 5.77 0 0 0-3.306-1.346c-.236-.024-.472-.024-.472-.024a1.6 1.6 0 0 0-.472-.047c-.236-.024-.708-.071-.945-.118.621-1.883.94-3.851.945-5.833a9.26 9.26 0 0 0-1.417-5.432 4.8 4.8 0 0 0-3.07-2.362c-.236.236-.236.236-.236.472a5.9 5.9 0 0 1 3.07 2.834c.652 1.487.975 3.099.945 4.723a16.5 16.5 0 0 1-1.18 5.786 5.35 5.35 0 0 0-2.6 2.62c0 .214 0 .332.235.332q.279-.275.472-.614c.472-.4.708-.8 1.181-1.2a3.5 3.5 0 0 1 1.89-.614 8 8 0 0 1 3.07.5 2.86 2.86 0 0 1 1.652 1.016q.354.53.708.992a.54.54 0 0 0 .236.449M46.352 19.82a1.77 1.77 0 0 1-.236-1.181 3.18 3.18 0 0 1 .472-2.125 2.04 2.04 0 0 1 1.417-.708 2.4 2.4 0 0 1 1.653.945c.267.597.427 1.236.472 1.889a1.9 1.9 0 0 1-1.417 2.125.83.83 0 0 0 .472.236c.472 0 .708.236 1.181.472.258-1.166.416-2.35.472-3.542a5.36 5.36 0 0 0-.707-3.074 3.03 3.03 0 0 0-2.362-.945 3.8 3.8 0 0 0-2.125.708 3.14 3.14 0 0 0-.708 1.889 6.54 6.54 0 0 0 .708 3.07c.236 0 .472.236.708.236m2.834 3.779c-3.07 2.125-5.432 3.07-7.32 3.07a7.5 7.5 0 0 1-4.724-1.89c.182.424.42.821.708 1.182l1.417 1.417a4.66 4.66 0 0 0 3.306 1.417c1.653 0 3.542-.945 5.9-2.6l2.125-1.417a2.4 2.4 0 0 0 .945-1.653c0-.236 0-.472-.236-.472-.236-.472-1.417-1.181-3.779-1.89a13.8 13.8 0 0 0-4.723-1.416 8.8 8.8 0 0 0-3.542 1.417c-1.417.945-2.362 1.889-2.362 2.834.191.211.35.45.472.708a6.85 6.85 0 0 0 4.251 1.889c1.89 0 4.251-.945 7.321-3.306v.472a.23.23 0 0 1 .236.236m5.432 47.7a5.05 5.05 0 0 0 5.9 2.456c.42-.067.823-.22 1.181-.45a13 13 0 0 0 .708-.52c.254-.098.493-.233.708-.4l4.015-3.471a16 16 0 0 1 3.07-1.984q1.144-.656 2.362-1.157a4.2 4.2 0 0 0 1.653-.85c.295-.394.464-.868.485-1.36a2.12 2.12 0 0 0-.945-1.581 4.8 4.8 0 0 0-1.417-.8 5.5 5.5 0 0 1-1.653-1.181 6.4 6.4 0 0 1-1.185-2.577l-.236-1.37c-.236-.638-.236-1.11-.472-1.37 0-.071 0-.094-.236-.094a1.3 1.3 0 0 0-.945.614c-.472.4-.945.85-1.417 1.323-.236.472-.945.9-1.417 1.3a4.25 4.25 0 0 1-1.889.614c-1.889 0-2.834-.52-3.542-1.535a8.6 8.6 0 0 1-.945-2.621c-.472-.4-.708-.614-1.18-.614-1.182 0-1.654 1.228-1.654 3.708v7.345a7.5 7.5 0 0 0-.236 1.417 8.3 8.3 0 0 0-.236 2.5l-.472 2.623v.04m-34.244-1.25c2.59.427 5.13 1.116 7.581 2.057a25.3 25.3 0 0 0 5.24 1.583 5.16 5.16 0 0 0 4.156-2.147 3.5 3.5 0 0 0 .236-1.615q0-3.348-4.038-8.478l-1.603-2.15a22 22 0 0 1-1.25-2.054 20 20 0 0 0-1.3-2.125 6.4 6.4 0 0 0-1.442-1.63 4.85 4.85 0 0 0-2.1-1.086 3.2 3.2 0 0 0-2.007.968 2.9 2.9 0 0 0-.567 1.464 1.4 1.4 0 0 1-.449.992c-.373.182-.771.31-1.18.378-.119 0-.332 0-.639.024h-.638a6.1 6.1 0 0 0-2.55.378 3.47 3.47 0 0 0-.9 2.29c.036.645.13 1.286.282 1.914.165.68.262 1.376.29 2.077a5.5 5.5 0 0 1-.875 2.9 5.3 5.3 0 0 0-.9 2.31c.236.916 1.795 1.56 4.652 1.939m7.864-21.467a14.7 14.7 0 0 1 1.3-5.55 15.6 15.6 0 0 1 2.527-4.487c-.047-.236-.165-.236-.354-.236l-.236-.236a18 18 0 0 0-2.5 4.723 14 14 0 0 0-1.51 5.526 5.4 5.4 0 0 0 .731 2.787 16.7 16.7 0 0 0 3.751 3.36l2.5 1.63c2.67 2.315 4.086 3.92 4.086 4.866a1.93 1.93 0 0 1-.945 1.535 2.23 2.23 0 0 1-1.653.85c-.047 0-.07.047-.07.165 0 .024.235.5.731 1.417.992 1.346 3.117 2.007 5.951 2.007a14.32 14.32 0 0 0 12.28-6.376 4.74 4.74 0 0 0-.236-2.22v-.873a6.65 6.65 0 0 1 .708-3.448 1.87 1.87 0 0 1 1.653-1.11 2.34 2.34 0 0 1 1.417.52c.187-1.6.266-3.209.236-4.818.1-1.87-.06-3.746-.472-5.573a12.5 12.5 0 0 0-1.18-3.542l-1.413-2.13c-.472-.707-.708-1.416-1.18-2.124a10.2 10.2 0 0 1-.473-2.834c-.709-1.183-1.18-2.364-1.89-3.541-.473-1.181-.946-2.362-1.418-3.306l-2.125 1.653c-2.358 1.653-4.25 2.353-5.903 2.353-1.417 0-2.6-.236-3.306-1.181l-1.417-1.181a6.2 6.2 0 0 1-.708 2.6l-1.488 2.834a14.4 14.4 0 0 0-1.086 3.306q-.058.483-.213.945l-1.77 3.542a20.9 20.9 0 0 0-2.882 9.54q.002.846.142 1.678a3.5 3.5 0 0 1-1.582-3.07m16.908 22.344a16.26 16.26 0 0 0-7.085 1.24v-.071a5.3 5.3 0 0 1-4.345 2.149 18 18 0 0 1-5.432-1.346 64 64 0 0 0-6.59-1.93c-.19-.053-.615-.134-1.3-.242a48 48 0 0 1-1.819-.324 14 14 0 0 1-1.677-.484 4.2 4.2 0 0 1-1.417-.725 1.34 1.34 0 0 1-.488-1.011 3.5 3.5 0 0 1 .245-1.213c.151-.26.316-.52.482-.756q.234-.349.4-.732.201-.313.331-.661.16-.328.236-.685.082-.35.094-.708c0-.236-.094-.945-.283-2.2a21 21 0 0 1-.283-2.338 3.6 3.6 0 0 1 .756-2.456 2.13 2.13 0 0 1 1.535-.9h2.716a2.4 2.4 0 0 0 1.04-.4c.164-.378.306-.685.4-.968.117-.283.164-.5.212-.59.047-.142.094-.283.142-.4q.161-.292.378-.543a1.43 1.43 0 0 1-.283-.921 2.4 2.4 0 0 1 .047-.638 8.5 8.5 0 0 1 1.252-3.637l.827-1.488a33 33 0 0 0 1.582-3.165c.535-1.384.97-2.805 1.3-4.251a11.74 11.74 0 0 1 2.692-4.96l1.771-2.124a16.7 16.7 0 0 0 2.48-3.542c.44-.965.673-2.01.685-3.07 0-.472-.118-1.89-.378-4.251a70 70 0 0 1-.354-6.85c-.03-1.352.121-2.702.45-4.014a8.4 8.4 0 0 1 1.652-3.306 6.34 6.34 0 0 1 3.07-2.362 15.7 15.7 0 0 1 4.96-.708 6.5 6.5 0 0 1 2.124.236c.98.063 1.94.303 2.834.708.949.41 1.827.967 2.6 1.653.97.87 1.77 1.91 2.362 3.07.56 1.528.956 3.11 1.181 4.723.236 1.18.236 2.362.472 4.015 0 1.417.236 2.362.236 3.07.236.708.236 1.653.472 2.834.17.912.49 1.79.945 2.6a17.6 17.6 0 0 0 1.653 2.834c.708 1.18 1.653 2.362 2.6 3.779a23.7 23.7 0 0 1 4.723 7.557 19.84 19.84 0 0 1 1.89 8.714 16 16 0 0 1-.709 4.747 1.03 1.03 0 0 1 .945.52c.358.67.597 1.397.708 2.149l.236 1.748a2.78 2.78 0 0 0 1.174 1.442 5.3 5.3 0 0 0 1.653 1.063c.59.26 1.146.593 1.653.992a2.1 2.1 0 0 1 .708 1.488 2.3 2.3 0 0 1-.708 1.818 3.7 3.7 0 0 1-1.653 1.016c-.472.236-1.417.708-2.834 1.374a25.7 25.7 0 0 0-3.542 2.55l-2.362 2.01a13 13 0 0 1-2.6 1.985 5.17 5.17 0 0 1-2.6.638l-1.653-.19a5.39 5.39 0 0 1-3.779-2.88 81 81 0 0 0-8.738-.685"/><path fill="#333c5e" d="M85.466 56.707v-21.7h5.022v17.608h10.881v4.092zm20.786-19.003c-1.798 0-3.007-1.178-3.007-2.697s1.209-2.697 3.007-2.697 3.007 1.116 3.007 2.604c0 1.612-1.209 2.79-3.007 2.79m-2.418 19.003V40.029h4.836v16.678zm19.461-16.926c3.937 0 6.913 2.294 6.913 7.378v9.548h-4.836v-8.804c0-2.697-1.24-3.937-3.379-3.937-2.325 0-3.999 1.426-3.999 4.495v8.246h-4.836V40.029h4.619v1.953c1.302-1.426 3.255-2.201 5.518-2.201m23.262.248h4.836v16.678h-4.588v-1.984c-1.271 1.457-3.131 2.232-5.177 2.232-4.185 0-7.13-2.356-7.13-7.502v-9.424h4.836v8.711c0 2.79 1.24 4.03 3.379 4.03 2.232 0 3.844-1.426 3.844-4.495zm25.406 16.678h-5.487l-3.658-5.115-3.782 5.115h-5.27l6.417-8.401-6.2-8.277h5.425l3.534 4.867 3.627-4.867h5.146l-6.2 8.153z"/></g><defs><clipPath id="a"><path fill="#fff" d="M0 0h184v78H0z"/></clipPath></defs></svg>