<svg xmlns="http://www.w3.org/2000/svg" width="70" height="97" fill="none" viewBox="0 0 70 97"><g clip-path="url(#a)"><path fill="#23356b" d="M37.22 96.964a3.5 3.5 0 0 1-2.055-.67c-1.772-1.295-3.628-2.595-5.592-3.972-6.159-4.316-12.527-8.78-16.964-13.492C8.766 74.684 6.82 68.76 6.82 61.22c0-19.69 13.882-43.723 30.947-53.573 8.4-4.85 16.34-5.609 22.351-2.138 6.012 3.471 9.325 10.729 9.325 20.434a59.1 59.1 0 0 1-5.623 23.83c-4.377 9.68-10.66 21.348-16.739 32.63-2.407 4.469-4.68 8.69-6.794 12.71a3.46 3.46 0 0 1-3.067 1.851M51.78 4.88c-4.05 0-8.562 1.37-13.256 4.08C21.878 18.57 8.335 42.012 8.335 61.22c0 7.146 1.81 12.723 5.381 16.575 4.326 4.6 10.63 9.014 16.725 13.287 1.971 1.381 3.832 2.685 5.616 3.987a1.97 1.97 0 0 0 2.355-.026c.221-.171.403-.388.533-.635 2.116-4.026 4.392-8.25 6.8-12.723 6.065-11.26 12.336-22.9 16.692-32.537a57.6 57.6 0 0 0 5.49-23.206c0-9.141-3.044-15.932-8.569-19.121A14.96 14.96 0 0 0 51.78 4.88"/><path fill="#23356b" d="M28.085 73.414a12.3 12.3 0 0 1-6.244-1.608c-4.5-2.6-6.974-8.008-6.974-15.235 0-14.575 10.274-32.354 22.9-39.636 6.246-3.614 12.162-4.177 16.66-1.583 4.496 2.594 6.978 8 6.978 15.23 0 14.571-10.264 32.355-22.88 39.646a21.2 21.2 0 0 1-10.44 3.186m20.1-58.151a19.66 19.66 0 0 0-9.662 2.983c-12.209 7.039-22.142 24.23-22.142 38.323 0 6.663 2.208 11.607 6.216 13.921s9.4 1.756 15.17-1.576c12.2-7.05 22.121-24.247 22.121-38.335 0-6.66-2.209-11.6-6.22-13.916a10.83 10.83 0 0 0-5.48-1.4z"/><path fill="#23356b" fill-rule="evenodd" d="M44.579 30.798c-4.729-2.738-7.978-5.735-14.568.428-5.932 5.537-10.389 17.884-4.151 21.83" clip-rule="evenodd"/><path fill="#23356b" d="M7.33 75.707a.76.76 0 0 1-.571-.26C-.798 66.752.333 54.47 2.612 45.697a78.55 78.55 0 0 1 14.565-28.573c2.257-2.717 8.376-9.493 16.424-13.739 7.663-4.043 14.815-4.474 20.682-1.248a.758.758 0 0 1-.73 1.328C48.076.456 41.6.878 34.308 4.726 26.5 8.846 20.54 15.446 18.342 18.093A76.9 76.9 0 0 0 4.078 46.078c-2.188 8.42-3.3 20.178 3.824 28.373a.758.758 0 0 1-.571 1.256"/><path fill="#23356b" d="M36.054 96.783a.76.76 0 0 1-.378-.1 71.5 71.5 0 0 1-8.334-5.176c-.783-.56-1.8-1.291-3.305-2.344l-1.082-.757c-5.7-3.99-11.09-7.76-16.168-12.925a.758.758 0 1 1 1.081-1.062 71 71 0 0 0 4.834 4.464c-11.69-13.323-3.64-36.336 3.186-48.149 8.292-14.359 27.623-33.909 44.2-25.24a.76.76 0 0 1-.411 1.44.8.8 0 0 1-.289-.097c-8.742-4.573-17.88-.259-24.006 4.164-8.022 5.793-14.649 14.383-18.176 20.491-6.828 11.814-14.985 35.127-2.249 47.563 4.123 4.028 9.217 7.592 14.144 11.04 2.458 1.718 5 3.5 7.418 5.329a.758.758 0 0 1-.458 1.361z"/><path fill="#23356b" d="M22.495 70.074c-.982.001-1.96-.096-2.922-.29a.76.76 0 0 1-.285-1.387.76.76 0 0 1 .584-.098c11.342 2.294 23.463-11.406 28.438-20.584 5.061-9.354 9.034-25.584 2.02-32.376a.758.758 0 0 1 .682-1.286 11.3 11.3 0 0 1 3.419 1.3c5.363 3.395 7.723 9.627 6.848 18.037a54.5 54.5 0 0 1-6.553 19.746.758.758 0 0 1-1.322-.74c5.956-10.66 10.934-28.979.236-35.751q-.255-.15-.524-.285c5.478 8.456 1.043 23.725-3.473 32.073-4.958 9.151-15.904 21.64-27.149 21.64M59.729 6.92a.75.75 0 0 1-.378-.1l-5.818-3.363a.758.758 0 1 1 .758-1.312l5.818 3.361a.758.758 0 0 1-.38 1.413"/><path fill="#23356b" fill-rule="evenodd" d="m44.79 30.92-5-1.276-3.97.476-6.93 8.313-2.937 14.677 3.641 2.1" clip-rule="evenodd"/><path fill="#fff" fill-rule="evenodd" d="M32.884 55.393c-1.343 0-2.473-.526-3.267-1.52-.874-1.097-1.336-2.726-1.336-4.713 0-2.951 1.005-6.318 2.83-9.48 1.826-3.164 4.242-5.718 6.801-7.191 1.416-.817 2.807-1.249 4.023-1.249 1.344 0 2.475.526 3.27 1.522.876 1.097 1.339 2.726 1.339 4.711 0 2.949-1.007 6.315-2.834 9.479s-4.242 5.717-6.797 7.193c-1.418.816-2.812 1.248-4.03 1.248" clip-rule="evenodd"/><path fill="#23356b" fill-rule="evenodd" d="M41.935 32.24c-1.041 0-2.26.386-3.524 1.116-2.41 1.386-4.694 3.81-6.434 6.825-1.713 2.968-2.696 6.24-2.696 8.98 0 1.757.387 3.17 1.118 4.087.606.76 1.442 1.145 2.485 1.145s2.264-.386 3.53-1.115c2.37-1.368 4.714-3.857 6.43-6.827s2.7-6.242 2.7-8.978c0-1.756-.387-3.17-1.12-4.087-.608-.76-1.445-1.146-2.489-1.146m0-2c3.324 0 5.609 2.649 5.609 7.233 0 6.455-4.54 14.31-10.13 17.538-5.607 3.227-10.133.611-10.133-5.85 0-6.456 4.526-14.311 10.132-17.539 1.625-.937 3.16-1.382 4.522-1.382" clip-rule="evenodd"/></g><defs><clipPath id="a"><path fill="#fff" d="M.898 0H69.44v96.965H.898z"/></clipPath></defs></svg>