<svg xmlns="http://www.w3.org/2000/svg" width="110" height="112" fill="none" viewBox="0 0 110 112"><path stroke="#265597" stroke-linecap="round" stroke-linejoin="round" stroke-width="6" d="M54.988 9.333c-13.661 0-22.517 9.422-32.99 12.857-4.26 1.4-6.39 2.095-7.254 3.08-.862.98-1.112 2.422-1.616 5.296-5.405 30.782 6.403 59.239 34.562 70.318 3.02 1.19 4.532 1.782 7.312 1.782s4.296-.597 7.321-1.787c28.154-11.074 39.948-39.531 34.544-70.313-.504-2.874-.759-4.316-1.621-5.301-.863-.985-2.989-1.68-7.249-3.075C77.519 18.755 68.65 9.333 54.988 9.333"/><path stroke="#265597" stroke-linecap="round" stroke-linejoin="round" stroke-width="6" d="M47.05 46.475c0-.28.036-1.895.046-3.92 0-1.857-.155-3.64.708-5.273 3.225-6.599 12.49-5.927 14.779.793.395 1.106.422 2.856.408 4.48-.013 2.068.028 3.92.028 3.92M47.445 48.44c-4.905 0-7.357 3.64-7.902 5.88s-.545 10.36-.218 13.72c1.09 4.2 3.815 5.936 6.485 6.496 2.453.224 12.808.14 15.805.14 4.36.084 7.63-1.596 8.993-6.636.272-1.68.545-10.92-.136-13.72-1.445-4.48-5.042-5.88-7.767-5.88z"/></svg>