<svg xmlns="http://www.w3.org/2000/svg" width="115" height="44" fill="none" viewBox="0 0 115 44"><g clip-path="url(#a)"><mask id="b" width="115" height="44" x="0" y="0" maskUnits="userSpaceOnUse" style="mask-type:luminance"><path fill="#fff" d="M0 .5h115v43H0z"/></mask><g mask="url(#b)"><path fill="#1062fe" d="m1.742 35.283 13.828 7.805q.136.08.285.135c.46.186.953.28 1.45.276.605.01 1.201-.13 1.736-.41l13.823-7.806c.236-.087.44-.243.584-.447a1.2 1.2 0 0 0 0-1.383 1.24 1.24 0 0 0-.584-.447l-10.714-6.05a1.56 1.56 0 0 0-.755-.196 1.52 1.52 0 0 0-.968.341c-.27.22-.453.53-.515.872l-2.328 12.7V11.495a3.4 3.4 0 0 0-.503-1.674 3.45 3.45 0 0 0-1.232-1.26L2.02.749A1.4 1.4 0 0 0 .615.641a1.36 1.36 0 0 0-.48.542 1.33 1.33 0 0 0-.13.706v30.452a3.4 3.4 0 0 0 .508 1.678c.294.52.718.954 1.229 1.263z"/><path fill="#0c0d0f" d="M51.834 28.642a3 3 0 0 1-.428.065c-.339.04-.682.03-1.017-.03a.6.6 0 0 1-.306-.166 1.1 1.1 0 0 1-.244-.445 3.4 3.4 0 0 1-.106-.968V12.893a.38.38 0 0 0-.089-.25.4.4 0 0 0-.233-.134 7 7 0 0 0-.66-.077 8 8 0 0 0-1.287 0c-.24 0-.463.042-.656.077a.4.4 0 0 0-.232.134.38.38 0 0 0-.09.25v14.743c-.016.61.087 1.217.303 1.79.183.465.48.88.868 1.204.363.302.791.521 1.252.642.476.128.967.192 1.46.188.295 0 .617 0 .959-.039.325-.019.648-.08.957-.18a.39.39 0 0 0 .264-.36 7.8 7.8 0 0 0-.24-1.967.39.39 0 0 0-.18-.23.4.4 0 0 0-.295-.042m7.46-11.02q-1.027.003-2.042.154c-.665.09-1.322.234-1.963.43a.4.4 0 0 0-.204.146.38.38 0 0 0-.07.238c-.018.745.165 1.48.53 2.135a.4.4 0 0 0 .198.165.4.4 0 0 0 .26.007q.715-.214 1.45-.345a9 9 0 0 1 1.57-.127c.69-.05 1.38.12 1.963.484.393.3.6.875.6 1.712v.035l-.447-.038q-.672-.041-1.346-.039a8.5 8.5 0 0 0-2.164.273 5.9 5.9 0 0 0-1.86.844c-.546.382-.993.88-1.308 1.46a4.15 4.15 0 0 0-.487 2.034 4.5 4.5 0 0 0 .416 2.012c.27.556.675 1.035 1.178 1.393a5 5 0 0 0 1.826.768c.76.161 1.535.238 2.312.23a16 16 0 0 0 2.627-.214c.836-.139 1.57-.277 2.16-.41a.4.4 0 0 0 .222-.14.38.38 0 0 0 .083-.245v-7.886c0-1.743-.487-3.044-1.44-3.862-.955-.818-2.29-1.214-4.064-1.214m2.297 7.702v3.36a10.085 10.085 0 0 1-2.812.107c-.274-.023-.54-.1-.785-.226a1.47 1.47 0 0 1-.55-.51 1.74 1.74 0 0 1-.215-.949c-.022-.27.026-.54.14-.785.115-.246.29-.46.512-.62a3.83 3.83 0 0 1 2.147-.496c.255 0 .573 0 .946.05zm18.311-7.479a7 7 0 0 0-2.003.273c-.436.126-.854.31-1.24.545a6.4 6.4 0 0 0-1.437-.699 6.6 6.6 0 0 0-2.187-.34 7.1 7.1 0 0 0-2.356.383 5.1 5.1 0 0 0-1.777 1.025c-.476.426-.855.95-1.111 1.535a4.7 4.7 0 0 0-.393 1.893 4.45 4.45 0 0 0 .55 2.212c.27.486.626.922 1.052 1.286-.32.285-.6.611-.828.971a3.3 3.3 0 0 0-.471 1.774c-.02.498.116.99.392 1.41q.21.298.483.544c-.42.298-.785.666-1.076 1.086a3.48 3.48 0 0 0-.62 2.02 3 3 0 0 0 .371 1.631c.277.5.691.913 1.195 1.195.962.556 2.356.84 4.146.84.958.007 1.912-.1 2.843-.318a8 8 0 0 0 2.316-.933 5.15 5.15 0 0 0 1.567-1.509c.392-.599.597-1.3.589-2.016a3.4 3.4 0 0 0-.261-1.48 3.5 3.5 0 0 0-.874-1.238c-.75-.656-1.892-.994-3.494-1.029l-3.341-.05c-.9 0-1.131-.188-1.178-.238a.7.7 0 0 1-.216-.506.97.97 0 0 1 .251-.634q.198-.244.452-.43c.588.132 1.19.197 1.794.192a7.2 7.2 0 0 0 2.206-.326 5.3 5.3 0 0 0 1.779-.956c.504-.42.906-.945 1.178-1.536a4.6 4.6 0 0 0 .392-1.977c.006-.419-.05-.837-.164-1.24a6 6 0 0 0-.153-.415h1.61a.4.4 0 0 0 .256-.088.38.38 0 0 0 .136-.23 8 8 0 0 0 .106-1.222 5.4 5.4 0 0 0-.11-1.11.4.4 0 0 0-.135-.21.4.4 0 0 0-.239-.085m-8.021 13.753 2.862.05c.942 0 1.343.188 1.515.326a1.03 1.03 0 0 1 .338.837c0 .514-.31.94-.938 1.305a6 6 0 0 1-2.94.595 8 8 0 0 1-1.179-.08 2.9 2.9 0 0 1-.86-.258 1.2 1.2 0 0 1-.49-.418 1.2 1.2 0 0 1-.165-.676 1.7 1.7 0 0 1 .467-1.217 1.7 1.7 0 0 1 1.307-.465zm-.534-10.827c.35-.41.907-.61 1.696-.61a2.13 2.13 0 0 1 1.712.614c.39.473.588 1.07.557 1.677a2.35 2.35 0 0 1-.557 1.644c-.362.407-.935.59-1.72.59s-1.347-.195-1.7-.602a2.38 2.38 0 0 1-.546-1.643 2.46 2.46 0 0 1 .558-1.67m21.107-1.076a5.8 5.8 0 0 0-2.018-1.535 7.39 7.39 0 0 0-5.622 0 5.8 5.8 0 0 0-2.007 1.535 6.2 6.2 0 0 0-1.178 2.227 9.85 9.85 0 0 0 0 5.425c.234.813.635 1.57 1.178 2.227a5.7 5.7 0 0 0 2.007 1.474 7.57 7.57 0 0 0 5.602 0c.778-.34 1.47-.85 2.026-1.493a6.1 6.1 0 0 0 1.178-2.227 9.85 9.85 0 0 0 0-5.425 6 6 0 0 0-1.166-2.208m-4.822 9.215a2.5 2.5 0 0 1-1.256-.232 2.4 2.4 0 0 1-.966-.82c-.498-.768-.754-1.832-.754-3.206s.256-2.45.754-3.194c.499-.745 1.178-1.045 2.222-1.045.434-.033.87.047 1.261.231.393.184.728.466.974.817.506.742.765 1.817.765 3.19 0 1.375-.259 2.45-.765 3.203-.25.35-.587.626-.977.804a2.5 2.5 0 0 1-1.258.217zm26.274-9.917c-.754-.91-1.963-1.37-3.561-1.37a4.35 4.35 0 0 0-2.564.767q-.494.346-.887.8-.136.155-.255.306a3.9 3.9 0 0 0-1.068-1.213 4.3 4.3 0 0 0-2.564-.68 4.7 4.7 0 0 0-1.453.215c-.418.131-.814.322-1.177.568a4.3 4.3 0 0 0-.84.745q-.056-.466-.146-.925a.4.4 0 0 0-.11-.199.4.4 0 0 0-.204-.104c-.196-.035-.392-.058-.546-.077a6 6 0 0 0-1.134 0c-.185 0-.393.042-.573.077a.4.4 0 0 0-.234.134.38.38 0 0 0-.088.25v12.62a.38.38 0 0 0 .322.383q.334.06.67.08a8.2 8.2 0 0 0 1.96-.08.4.4 0 0 0 .233-.134.38.38 0 0 0 .089-.25v-6.438a6.5 6.5 0 0 1 .224-1.8c.118-.445.317-.863.589-1.237.217-.292.501-.53.828-.699.314-.15.657-.23 1.005-.23.252-.022.505.026.73.14.226.111.413.284.542.497.346.708.5 1.49.448 2.273v7.494c-.002.091.03.18.089.25s.141.118.233.134c.862.14 1.741.14 2.603 0a.4.4 0 0 0 .233-.134.38.38 0 0 0 .089-.25v-7.124c0-1.08.235-1.897.699-2.43a2.23 2.23 0 0 1 1.774-.769c.272-.028.547.017.796.132.248.114.459.293.61.517.361.727.524 1.536.471 2.346v7.33c-.002.09.03.18.089.25s.141.117.233.133q.326.06.655.08c.236 0 .452.028.644.028.193 0 .413 0 .656-.027q.338-.02.671-.08a.4.4 0 0 0 .233-.135.38.38 0 0 0 .089-.25v-8.035c0-1.686-.357-2.99-1.103-3.878"/></g></g><defs><clipPath id="a"><path fill="#fff" d="M0 0h115v44H0z"/></clipPath></defs></svg>