<svg xmlns="http://www.w3.org/2000/svg" width="241" height="290" fill="none" viewBox="0 0 241 290"><g clip-path="url(#a)"><mask id="b" width="241" height="290" x="0" y="0" maskUnits="userSpaceOnUse" style="mask-type:luminance"><path fill="#fff" d="M241 0H0v290h241z"/></mask><g mask="url(#b)"><path fill="url(#c)" d="M228.358 149.91h-45.381l-50.516-29.164c-6.506-3.756-17.87-3.285-25.383 1.055L58.385 149.91H13.029v149.874h.015c-.187 2.54 1.233 4.993 4.357 6.8l91.5 52.83c6.507 3.755 17.871 3.285 25.383-1.055l87.858-50.726c3.9-2.251 5.979-5.1 6.182-7.852h.033z"/><path fill="#f2f5fc" d="m108.903 209.542-91.5-52.829c-6.506-3.756-5.688-10.319 1.823-14.654l87.856-50.726c7.513-4.335 18.875-4.806 25.383-1.055l91.5 52.829c6.507 3.756 5.69 10.316-1.823 14.654l-87.855 50.725c-7.513 4.34-18.872 4.81-25.384 1.056"/><path fill="#3a456e" d="m184.38 149.588-54.656 31.351a12.21 12.21 0 0 1-12.33 0l-58.719-33.672a2.114 2.114 0 0 1-.777-2.645 1.87 1.87 0 0 1 .777-.892l55.605-31.889a10.34 10.34 0 0 1 10.428 0l59.672 34.212a2.12 2.12 0 0 1 .773 2.65 1.86 1.86 0 0 1-.773.887z"/><path fill="#e0e3ed" d="m184.382 149.589-5.577 3.2-54.09-31.013a10.34 10.34 0 0 0-10.428 0l-50.03 28.692-5.582-3.2a2.114 2.114 0 0 1-.777-2.645c.156-.373.428-.686.777-.892l55.61-31.894a10.34 10.34 0 0 1 10.428 0l59.673 34.213a2.12 2.12 0 0 1 .761 2.655 1.85 1.85 0 0 1-.766.876z"/><path fill="url(#d)" d="M64-41.793v205.418l.014.005a.8.8 0 0 0 .226.328c.108.095.243.172.395.223l55.158 22.561c.585.187 1.22.274 1.857.255a5.4 5.4 0 0 0 1.823-.364l54.627-22.346a1.7 1.7 0 0 0 .531-.286c.149-.121.263-.263.334-.418l.035-.014V-42.277L121.503-65z" opacity=".4"/><path fill="#f2f5fc" d="m58.038 174.47-19.12-11.048c-1.36-.785-1.189-2.158.38-3.064l18.36-10.608c1.57-.906 3.944-1.005 5.304-.221l19.12 11.048c1.36.786 1.19 2.157-.38 3.065l-18.36 10.607c-1.57.908-3.943 1.006-5.304.221"/><path fill="#f2f5fc" d="m76.483 185.47-19.545-11.048c-1.39-.785-1.215-2.158.39-3.064l18.766-10.608c1.605-.906 4.032-1.005 5.422-.221l19.546 11.048c1.39.786 1.215 2.157-.39 3.065l-18.766 10.607c-1.605.908-4.032 1.006-5.423.221M177.483 178.47l-19.545-11.048c-1.39-.785-1.215-2.158.389-3.064l18.767-10.608c1.605-.906 4.032-1.005 5.422-.221l19.546 11.048c1.39.786 1.215 2.157-.39 3.065l-18.766 10.607c-1.605.908-4.032 1.006-5.423.221"/><path fill="#f2f5fc" d="m156.483 190.47-19.545-11.048c-1.39-.785-1.215-2.158.389-3.064l18.767-10.608c1.605-.906 4.032-1.005 5.422-.221l19.546 11.048c1.39.786 1.215 2.157-.39 3.065l-18.766 10.607c-1.605.908-4.032 1.006-5.423.221"/><path fill="#f2f5fc" d="m146.483 196.47-19.545-11.048c-1.39-.785-1.215-2.158.389-3.064l18.767-10.608c1.605-.906 4.032-1.005 5.422-.221l19.546 11.048c1.39.786 1.215 2.157-.39 3.065l-18.766 10.607c-1.605.908-4.032 1.006-5.423.221M95.929 196.47l-19.97-11.048c-1.42-.785-1.242-2.158.397-3.064l19.175-10.608c1.64-.906 4.12-1.005 5.54-.221l19.97 11.048c1.42.786 1.242 2.157-.398 3.065l-19.174 10.607c-1.64.908-4.12 1.006-5.54.221"/><path fill="#f2f5fc" d="m118.527 187.898-.041-5.464c-.003-.388.348-.616.783-.508l5.093 1.261c.435.107.79.51.793.898l.041 5.463c.003.389-.347.616-.783.509l-5.092-1.261c-.436-.107-.791-.51-.794-.898"/><path fill="#f2f5fc" d="m121.836 188.934-1.699-5.193c-.121-.369.144-.692.591-.722l5.235-.347c.447-.03.908.246 1.029.615l1.7 5.192c.12.369-.144.692-.592.722l-5.235.347c-.447.03-.908-.245-1.029-.614"/><path fill="#f2f5fc" d="m128.478 188.417-3.637-4.077c-.259-.29-.145-.692.253-.899l4.657-2.414c.399-.206.931-.139 1.19.151l3.636 4.077c.259.29.146.693-.252.899l-4.658 2.414c-.398.207-.93.139-1.189-.151"/><path fill="#01a8fb" d="M177.175 105.387c0-12.046-8.613-26.378-19.307-32.253-4.043-15.02-14.957-30.044-27.824-36.853-6.047-3.2-11.651-4.1-16.325-3.073v-.023l-9.261 2.083s-5.837 7.377-6.56 9.3c-2.031-1.4-4.974-2.9-7.008-2.534l-9.93 1.9s6.436 39.171 17.3 44.92c4.625 2.445 63.378 32.46 63.378 32.46l6.653-2.176-.023-.009c5.356-1.103 8.907-6.014 8.907-13.742"/><path fill="#6ab0ff" d="M150.216 75.392c-4.277-15.021-15.824-30.044-29.439-36.853s-25.16-3.334-29.439 7.407c-11.314-5.442-20.428-.225-20.428 11.82 0 12.183 9.316 26.717 20.807 32.463l58.12 29.067c11.49 5.746 20.806.53 20.806-11.652.006-12.046-9.107-26.378-20.427-32.252"/></g></g><defs><linearGradient id="c" x1="135.12" x2="146.152" y1="392.417" y2="104.167" gradientUnits="userSpaceOnUse"><stop stop-color="#fff"/><stop offset="1" stop-color="#c8cede"/></linearGradient><linearGradient id="d" x1="121.615" x2="120.511" y1="155.5" y2="10.355" gradientUnits="userSpaceOnUse"><stop stop-color="#73bbee"/><stop offset="1" stop-color="#fff" stop-opacity="0"/></linearGradient><clipPath id="a"><path fill="#fff" d="M0 0h241v290H0z"/></clipPath></defs></svg>