<svg width="69" height="81" viewBox="0 0 69 81" fill="none" xmlns="http://www.w3.org/2000/svg">
<g clip-path="url(#clip0_945_1073)">
<path fill-rule="evenodd" clip-rule="evenodd" d="M58.4799 0.770017L66.4629 5.38102C66.5072 5.39962 66.55 5.42169 66.5909 5.44702C66.9195 5.67269 67.1849 5.97852 67.3622 6.33552C67.5395 6.69252 67.6227 7.08886 67.6039 7.48701V11.887V11.882V43.782C67.522 44.9168 67.175 46.0166 66.5909 46.993C66.007 48.0519 65.1622 48.9441 64.1369 49.585L12.0529 79.654C11.7029 79.9086 11.2913 80.0652 10.8606 80.1076C10.4299 80.1499 9.99572 80.0766 9.60286 79.895C9.56786 79.874 9.52687 79.849 9.49586 79.828L1.50685 75.217C1.2144 74.98 0.980948 74.6784 0.824783 74.3358C0.668618 73.9933 0.594037 73.6192 0.606888 73.243V36.943C0.702837 35.7761 1.06471 34.6467 1.66481 33.6413C2.26491 32.6359 3.08729 31.7813 4.06886 31.143L56.1528 1.06901C56.489 0.837829 56.8755 0.690119 57.2802 0.63812C57.6849 0.586121 58.0962 0.631336 58.4799 0.770017Z" fill="white"/>
<path fill-rule="evenodd" clip-rule="evenodd" d="M57.672 1.20309C57.2341 1.22988 56.8101 1.36751 56.44 1.60308L4.36597 31.6631C3.46937 32.2512 2.71839 33.0357 2.16986 33.9571C1.62134 34.8784 1.2897 35.9126 1.20001 36.9811L1.20496 73.2481C1.19022 73.5304 1.2422 73.8123 1.35669 74.0708C1.47118 74.3293 1.64502 74.5573 1.86401 74.7361L9.79095 79.3111C10.102 79.4646 10.4493 79.5295 10.7949 79.4988C11.1404 79.4681 11.4708 79.343 11.75 79.1371L63.834 49.0681C64.7653 48.4781 65.5337 47.6639 66.069 46.7001C66.6044 45.8061 66.9232 44.7993 67 43.7601L67.005 11.9721C67.0006 11.945 66.9989 11.9175 67 11.8901V7.49009C67.0172 7.1965 66.9607 6.90326 66.8357 6.63708C66.7106 6.3709 66.521 6.14024 66.284 5.96609L58.214 1.31408C58.042 1.24335 57.8579 1.207 57.672 1.20708V1.20309ZM10.508 80.7371C10.0847 80.7401 9.66814 80.6307 9.30096 80.4201C9.28496 80.4101 9.16298 80.3331 9.15198 80.3281L1.20496 75.7381C0.827684 75.4505 0.522779 75.0788 0.314453 74.6526C0.106127 74.2264 0.000180253 73.7575 0.00500488 73.2831L0 36.9441C0.0946837 35.6727 0.482956 34.4406 1.13434 33.3447C1.78572 32.2488 2.68242 31.3189 3.75397 30.6281L55.854 0.548088C56.2709 0.269683 56.748 0.094384 57.246 0.0366588C57.7439 -0.0210663 58.2484 0.0404356 58.718 0.216087C58.7399 0.222533 58.7605 0.232678 58.779 0.246086L66.767 4.85709C67.2156 5.124 67.5852 5.50548 67.8378 5.96239C68.0903 6.41931 68.2167 6.93518 68.204 7.45708V11.8091C68.2082 11.8345 68.2099 11.8603 68.209 11.8861L68.204 43.7861C68.1233 45.0275 67.748 46.2317 67.109 47.2991C66.4751 48.45 65.556 49.4186 64.44 50.1121L12.351 80.1811C11.796 80.5247 11.1604 80.7165 10.508 80.7371Z" fill="#2979E4"/>
<path fill-rule="evenodd" clip-rule="evenodd" d="M8.58954 41.5553L0.601562 36.9453V41.3533L8.58954 45.9643V41.5553Z" fill="white"/>
<path fill-rule="evenodd" clip-rule="evenodd" d="M1.20789 41.0022L7.98889 44.9172V41.9002L1.20789 37.9852V41.0022ZM8.5929 46.5592C8.48808 46.5586 8.38499 46.5322 8.29285 46.4822L0.303894 41.8722C0.213403 41.8182 0.13828 41.7418 0.0857544 41.6504C0.0332284 41.559 0.00506898 41.4556 0.00390625 41.3502V36.9422C0.00438969 36.8367 0.0322464 36.7331 0.0848389 36.6416C0.137431 36.5501 0.212942 36.4738 0.303894 36.4202C0.395106 36.3676 0.49856 36.3398 0.603882 36.3398C0.709204 36.3398 0.812658 36.3676 0.90387 36.4202L8.89191 41.0312C8.98332 41.084 9.05914 41.16 9.11182 41.2514C9.16449 41.3429 9.19214 41.4467 9.19189 41.5522V45.9602C9.19214 46.0658 9.16449 46.1695 9.11182 46.261C9.05914 46.3525 8.98332 46.4285 8.89191 46.4812C8.80094 46.5333 8.69772 46.5603 8.5929 46.5592Z" fill="#2979E4"/>
<path fill-rule="evenodd" clip-rule="evenodd" d="M66.4675 5.38202L58.4796 0.771008C58.0946 0.634301 57.6829 0.590224 57.2777 0.642346C56.8725 0.694467 56.4854 0.841325 56.1476 1.07101L4.06354 31.145C3.08108 31.7824 2.25805 32.6367 1.65784 33.6423C1.05762 34.6478 0.696258 35.7778 0.601562 36.945L8.58954 41.555C8.66915 40.4215 9.01596 39.3228 9.60156 38.349C10.1842 37.2905 11.0275 36.3983 12.0516 35.757L64.1356 5.682C64.4554 5.46869 64.8175 5.32676 65.1971 5.26585C65.5767 5.20494 65.965 5.22647 66.3356 5.32901L66.4675 5.38202Z" fill="#F2F5FC"/>
<path fill-rule="evenodd" clip-rule="evenodd" d="M1.23641 36.6171L8.11043 40.5831C8.2907 39.6896 8.61889 38.8325 9.08144 38.0471C9.71553 36.899 10.633 35.9323 11.7464 35.2391L63.8354 5.16411C64.0197 5.05885 64.2112 4.96664 64.4084 4.88812L58.1844 1.28812C57.8888 1.20817 57.5791 1.19459 57.2776 1.24835C56.9761 1.30212 56.6902 1.42191 56.4404 1.59912L4.36641 31.6591C3.52207 32.2147 2.80609 32.9441 2.26631 33.7986C1.72653 34.6531 1.37538 35.613 1.23641 36.6141V36.6171ZM8.59041 42.1581C8.48524 42.1555 8.3823 42.1274 8.29042 42.0761L0.301409 37.4651C0.203842 37.4099 0.123905 37.3282 0.0708177 37.2294C0.0177303 37.1307 -0.0063276 37.019 0.00142075 36.9071C0.101355 35.6413 0.492084 34.4156 1.14321 33.3255C1.79433 32.2354 2.6883 31.3102 3.75545 30.6221L55.8494 0.54712C56.2697 0.260367 56.754 0.0814533 57.2598 0.0261693C57.7655 -0.0291147 58.2771 0.0409293 58.7494 0.230118L66.7684 4.85611C66.9018 4.93273 67.0006 5.05762 67.0445 5.205C67.0884 5.35238 67.0741 5.51101 67.0044 5.64812C66.9355 5.78587 66.8167 5.89222 66.6722 5.94553C66.5277 5.99884 66.3683 5.99512 66.2264 5.93512L66.1034 5.87912C65.8171 5.81754 65.5213 5.81478 65.2338 5.87099C64.9464 5.9272 64.6734 6.04121 64.4314 6.20612L12.3474 36.2711C11.4166 36.8607 10.651 37.6773 10.1225 38.6441C9.58211 39.538 9.26131 40.5473 9.18642 41.5891C9.18261 41.6924 9.1518 41.793 9.09706 41.8807C9.04232 41.9684 8.96555 42.0403 8.87441 42.0891C8.78668 42.1337 8.68985 42.1573 8.59145 42.1581H8.59041Z" fill="#2979E4"/>
<path fill-rule="evenodd" clip-rule="evenodd" d="M8.58569 45.9626L0.597656 41.3516C0.597656 51.9782 0.599328 62.6099 0.602661 73.2466C0.589811 73.6228 0.664392 73.9969 0.820557 74.3394C0.976721 74.6819 1.21024 74.9835 1.50269 75.2206L9.4917 79.8315C9.19875 79.5947 8.96456 79.2932 8.80756 78.9507C8.65055 78.6083 8.57496 78.2341 8.58667 77.8575C8.58934 67.2255 8.58903 56.5939 8.58569 45.9626Z" fill="#F2F5FC"/>
<path fill-rule="evenodd" clip-rule="evenodd" d="M1.20081 42.3895L1.20582 73.2465C1.19108 73.5288 1.24306 73.8107 1.35755 74.0692C1.47204 74.3277 1.64582 74.5556 1.86481 74.7345L8.02778 78.2915C8.01278 78.1535 7.99683 78.0205 7.99183 77.8975L7.98182 46.3035L1.20081 42.3895ZM9.5008 80.4295C9.39603 80.4285 9.29309 80.4021 9.20081 80.3525L1.21283 75.7375C0.835563 75.4499 0.530596 75.0782 0.32227 74.652C0.113944 74.2258 0.00799749 73.7568 0.0128221 73.2825L0.00781723 41.3515C0.00739749 41.2457 0.0349082 41.1418 0.0875902 41.0501C0.140272 40.9584 0.216242 40.8823 0.307805 40.8295C0.399212 40.7774 0.50259 40.75 0.607793 40.75C0.712995 40.75 0.816374 40.7774 0.907781 40.8295L8.89081 45.4405C8.98293 45.4925 9.05935 45.5682 9.11213 45.6599C9.1649 45.7516 9.19209 45.8557 9.1908 45.9615L9.19581 77.8565C9.18072 78.1394 9.23313 78.422 9.34876 78.6807C9.46439 78.9394 9.63989 79.1669 9.86078 79.3445C9.98413 79.4359 10.0678 79.5712 10.0944 79.7225C10.121 79.8737 10.0885 80.0294 10.0038 80.1575C9.94828 80.2413 9.8728 80.3101 9.78412 80.3576C9.69545 80.4051 9.59638 80.4298 9.49579 80.4295H9.5008Z" fill="#2979E4"/>
<path fill-rule="evenodd" clip-rule="evenodd" d="M66.5928 46.9977C67.1769 46.0213 67.5239 44.9215 67.6058 43.7867L49.3338 38.3867L40.7638 50.8187C40.0718 51.863 39.1606 52.7441 38.0938 53.4007C37.7071 53.6608 37.2714 53.8393 36.8133 53.9253C36.3553 54.0113 35.8845 54.0029 35.4298 53.9007L26.8598 51.3647L8.59281 77.8597C8.57268 78.2581 8.65518 78.655 8.83237 79.0123C9.00957 79.3697 9.27555 79.6756 9.60484 79.9007C9.9977 80.0823 10.4319 80.1556 10.8626 80.1133C11.2933 80.0709 11.7048 79.9143 12.0548 79.6597L64.1388 49.5907C65.1643 48.9495 66.009 48.057 66.5928 46.9977Z" fill="white"/>
<path fill-rule="evenodd" clip-rule="evenodd" d="M9.20228 78.0245C9.20402 78.2888 9.26835 78.5489 9.39003 78.7836C9.5117 79.0183 9.68727 79.2207 9.9023 79.3744C10.2044 79.4981 10.5334 79.5411 10.8571 79.499C11.1807 79.4569 11.4879 79.3313 11.7482 79.1345L63.8323 49.0655C64.7636 48.4754 65.532 47.6613 66.0673 46.6975C66.5177 45.9343 66.8197 45.0929 66.9573 44.2175L49.5803 39.0875L41.2553 51.1565C40.5127 52.2757 39.5354 53.2199 38.3912 53.9235C37.9344 54.2253 37.4202 54.4297 36.8808 54.5238C36.3414 54.618 35.7884 54.5998 35.2563 54.4705L27.1053 52.0625L9.20528 78.0254L9.20228 78.0245ZM10.5023 80.7345C10.079 80.7375 9.6625 80.6281 9.2953 80.4174C8.8776 80.1428 8.53771 79.7652 8.30842 79.321C8.07914 78.8768 7.96819 78.381 7.98628 77.8815C7.97765 77.7511 8.01283 77.6215 8.08626 77.5135L26.3533 51.0195C26.4271 50.916 26.5311 50.8378 26.651 50.7956C26.7709 50.7533 26.9009 50.7491 27.0233 50.7835L35.5933 53.3205C35.9689 53.3994 36.3567 53.4011 36.733 53.3255C37.1093 53.2498 37.4663 53.0984 37.7823 52.8805C38.7725 52.271 39.617 51.4517 40.2563 50.4805L48.8273 38.0495C48.8989 37.9451 49.0017 37.8661 49.121 37.8237C49.2402 37.7813 49.3699 37.7777 49.4913 37.8135L67.7633 43.2135C67.8914 43.2514 68.0032 43.3311 68.0809 43.4398C68.1586 43.5484 68.1978 43.68 68.1923 43.8135C68.1108 45.0428 67.74 46.2355 67.1102 47.2945C66.4763 48.4454 65.5573 49.414 64.4413 50.1075L12.3522 80.1764C11.7979 80.5213 11.1627 80.7145 10.5103 80.7364L10.5023 80.7345Z" fill="#2979E4"/>
<path fill-rule="evenodd" clip-rule="evenodd" d="M8.58594 45.9648V73.4648L8.59094 73.4548V77.8629L26.858 51.3679L24.337 50.6208L8.58594 45.9648Z" fill="white"/>
<path fill-rule="evenodd" clip-rule="evenodd" d="M9.18536 73.372C9.18963 73.397 9.19131 73.4225 9.19037 73.4479V75.928L25.8904 51.708L9.18341 46.7679V73.3749L9.18536 73.372ZM8.59241 78.4599C8.53148 78.46 8.47095 78.4499 8.41339 78.4299C8.29074 78.3923 8.18337 78.3164 8.10706 78.2132C8.03075 78.1101 7.98951 77.9852 7.98938 77.8569V73.5279C7.98938 73.5069 7.98438 73.4819 7.98438 73.4559V45.9559C7.98492 45.8614 8.00742 45.7683 8.05011 45.6839C8.0928 45.5996 8.15455 45.5264 8.23041 45.4699C8.30464 45.4139 8.39115 45.3763 8.48279 45.3603C8.57443 45.3443 8.66855 45.3503 8.75739 45.3779L27.0344 50.7779C27.1256 50.8049 27.209 50.8535 27.2776 50.9194C27.3462 50.9854 27.3979 51.0668 27.4284 51.1569C27.4614 51.2463 27.472 51.3424 27.4595 51.4369C27.4469 51.5313 27.4115 51.6213 27.3564 51.6989L9.08942 78.1889C9.03527 78.2715 8.96158 78.3394 8.87488 78.3867C8.78818 78.434 8.69115 78.4591 8.59241 78.4599Z" fill="#2979E4"/>
<path fill-rule="evenodd" clip-rule="evenodd" d="M67.6041 43.7828V11.8828L51.8541 34.7258L49.3281 38.3878L67.6041 43.7828Z" fill="white"/>
<path fill-rule="evenodd" clip-rule="evenodd" d="M50.2995 38.0483L66.9995 42.9823L67.0045 13.8183L50.2975 38.0473L50.2995 38.0483ZM67.6045 44.3893C67.5456 44.3883 67.4871 44.3796 67.4305 44.3633L49.1635 38.9683C49.0724 38.9401 48.9889 38.8913 48.9196 38.8258C48.8503 38.7603 48.7968 38.6797 48.7635 38.5903C48.7328 38.5006 48.7233 38.4049 48.7358 38.3109C48.7483 38.2169 48.7824 38.127 48.8355 38.0483L67.1115 11.5483C67.1823 11.4415 67.2861 11.3607 67.407 11.3183C67.528 11.2759 67.6594 11.2741 67.7815 11.3133C67.9043 11.3508 68.0119 11.4267 68.0884 11.5298C68.1649 11.6329 68.2063 11.7579 68.2065 11.8863L68.2015 43.7863C68.202 43.8796 68.1805 43.9716 68.1388 44.055C68.0971 44.1384 68.0363 44.2108 67.9615 44.2663C67.8591 44.3445 67.7343 44.3876 67.6055 44.3893H67.6045Z" fill="#2979E4"/>
<path fill-rule="evenodd" clip-rule="evenodd" d="M64.1359 5.6796L12.0518 35.7546C11.0279 36.3961 10.1847 37.2882 9.60187 38.3466C9.01599 39.3203 8.66916 40.419 8.58984 41.5526V45.9606C35.2428 53.8406 9.32582 46.1806 35.4268 53.8976C35.8815 53.9998 36.3523 54.0081 36.8104 53.9222C37.2684 53.8362 37.7041 53.6577 38.0908 53.3976C39.1577 52.7409 40.0688 51.8599 40.7609 50.8156C68.2319 10.9736 41.2828 50.0526 67.6028 11.8836V7.4836C67.6216 7.08545 67.5384 6.6891 67.3611 6.3321C67.1839 5.9751 66.9184 5.66928 66.5898 5.44361C66.1965 5.26224 65.7621 5.18853 65.3309 5.22999C64.8998 5.27145 64.4874 5.4266 64.1359 5.6796Z" fill="white"/>
<path fill-rule="evenodd" clip-rule="evenodd" d="M9.19318 45.512L35.6061 53.321C35.9818 53.3999 36.3696 53.4016 36.7459 53.326C37.1222 53.2504 37.4792 53.099 37.7952 52.881C38.7854 52.2715 39.6299 51.4523 40.2692 50.481C53.3862 31.458 54.0972 30.429 54.1232 30.394L54.1692 30.425C54.4042 29.98 54.9312 29.218 55.8972 27.811L67.0052 11.711V7.492C67.0224 7.19841 66.9659 6.90517 66.8409 6.63899C66.7158 6.37281 66.5262 6.14215 66.2892 5.968C65.9866 5.84694 65.6581 5.80543 65.3349 5.84744C65.0117 5.88946 64.7047 6.01359 64.4432 6.20799L12.3542 36.277C11.4251 36.8684 10.6602 37.6845 10.1302 38.65C9.59173 39.5411 9.27101 40.5467 9.19415 41.585V45.513L9.19318 45.512ZM36.1531 54.599C35.8519 54.5984 35.5523 54.5553 35.2632 54.471L8.42114 46.54C8.29749 46.5017 8.18926 46.4251 8.11212 46.3212C8.03498 46.2172 7.99299 46.0914 7.99219 45.962V41.554C8.07324 40.3147 8.44824 39.1126 9.08618 38.047C9.7221 36.8972 10.6411 35.929 11.7562 35.234L63.8401 5.16499V5.16C64.2817 4.85177 64.7977 4.66741 65.3346 4.62608C65.8715 4.58475 66.4097 4.68797 66.8932 4.925C67.3107 5.19923 67.6507 5.57606 67.8808 6.01941C68.1109 6.46275 68.2232 6.95776 68.2072 7.457V11.891C68.2077 12.0123 68.173 12.1311 68.1072 12.233C55.8282 30.039 55.1442 31.033 55.1182 31.067L55.0671 31.037C54.8221 31.497 54.2671 32.305 53.2261 33.814L41.2651 51.16C40.5225 52.2792 39.5453 53.2234 38.4012 53.927C37.724 54.3464 36.9475 54.5784 36.1512 54.599H36.1531Z" fill="#2979E4"/>
<path fill-rule="evenodd" clip-rule="evenodd" d="M67.6038 11.8883V7.48828L39.8558 47.7243C39.4001 48.4164 38.7975 48.9995 38.0908 49.4323C37.8358 49.6047 37.548 49.7228 37.2454 49.7793C36.9428 49.8357 36.6319 49.8292 36.3318 49.7603L8.58984 41.5603V45.9683C32.6548 53.0813 14.3588 47.6763 35.4268 53.9053C35.8815 54.0075 36.3523 54.0158 36.8104 53.9299C37.2684 53.8439 37.7041 53.6654 38.0908 53.4053C39.1577 52.7486 40.0688 51.8675 40.7608 50.8233C68.2288 10.9783 41.2838 50.0573 67.6038 11.8883Z" fill="#F2F5FC"/>
<path fill-rule="evenodd" clip-rule="evenodd" d="M9.19318 45.5137L35.6061 53.3227C35.9818 53.4016 36.3696 53.4033 36.7459 53.3277C37.1222 53.2521 37.4792 53.1007 37.7952 52.8827C38.7854 52.2732 39.6299 51.454 40.2692 50.4827C53.3862 31.4597 54.0972 30.4307 54.1232 30.3957L54.1692 30.4267C54.4042 29.9817 54.9312 29.2197 55.8972 27.8127L67.0052 11.7127V9.4217L40.3572 48.0717C39.8509 48.8367 39.1824 49.481 38.3992 49.9587C38.0736 50.1717 37.7078 50.3156 37.3244 50.3815C36.941 50.4474 36.5481 50.4338 36.1702 50.3417L9.19318 42.3627V45.5127V45.5137ZM36.1531 54.6007C35.8519 54.6001 35.5523 54.557 35.2632 54.4727L8.42114 46.5417C8.29749 46.5035 8.18926 46.4268 8.11212 46.3229C8.03498 46.2189 7.99299 46.0931 7.99219 45.9637V41.5557C7.99277 41.4621 8.0152 41.37 8.05774 41.2866C8.10028 41.2033 8.16174 41.1311 8.23718 41.0757C8.31124 41.0193 8.39742 40.9809 8.48889 40.9635C8.58036 40.9462 8.67458 40.9503 8.76416 40.9757L36.5121 49.1757C36.7329 49.2198 36.9603 49.219 37.1807 49.1733C37.4012 49.1276 37.6101 49.0379 37.7952 48.9097C38.4253 48.5226 38.9616 48.0004 39.3652 47.3807L67.1122 7.1397C67.1856 7.03439 67.2903 6.95497 67.4116 6.91277C67.5328 6.87057 67.6642 6.86774 67.7872 6.9047C67.9097 6.94346 68.0165 7.02055 68.092 7.12461C68.1674 7.22866 68.2075 7.35419 68.2062 7.4827V11.8827C68.2067 12.004 68.172 12.1228 68.1061 12.2247C55.8271 30.0307 55.1432 31.0247 55.1172 31.0587L55.0662 31.0287C54.8212 31.4887 54.2662 32.2967 53.2252 33.8057L41.2642 51.1517C40.5216 52.2709 39.5443 53.2151 38.4001 53.9187C37.7242 54.3415 36.9481 54.5769 36.1512 54.6007H36.1531Z" fill="#2979E4"/>
<path fill-rule="evenodd" clip-rule="evenodd" d="M9.35156 38.8113L1.36359 34.1953C0.924833 35.0494 0.665489 35.9842 0.601562 36.9423L8.58954 41.5523C8.65475 40.5964 8.91404 39.6637 9.35156 38.8113Z" fill="#F2F5FC"/>
<path fill-rule="evenodd" clip-rule="evenodd" d="M1.23617 36.6093L8.10421 40.5803C8.20878 40.0574 8.36796 39.5469 8.57919 39.0573L1.64016 35.0493C1.43883 35.5494 1.30437 36.074 1.2402 36.6093H1.23617ZM8.59017 42.1553C8.48501 42.1527 8.38206 42.1245 8.29019 42.0733L0.301173 37.4623C0.204087 37.4065 0.124575 37.3247 0.0715586 37.2261C0.0185425 37.1275 -0.00585001 37.016 0.00118506 36.9043C0.0682012 35.8663 0.348356 34.8532 0.824183 33.9283C0.860372 33.854 0.911878 33.7883 0.975306 33.7354C1.03873 33.6825 1.11263 33.6436 1.19216 33.6213C1.26991 33.5966 1.35197 33.5884 1.43307 33.5972C1.51417 33.6059 1.59252 33.6315 1.66317 33.6723L9.65121 38.2883C9.78271 38.3641 9.88054 38.4869 9.92507 38.6321C9.96961 38.7772 9.95753 38.9338 9.8912 39.0703C9.48675 39.8521 9.24775 40.709 9.18917 41.5873C9.18536 41.6906 9.15456 41.7911 9.09982 41.8789C9.04508 41.9666 8.9683 42.0385 8.87716 42.0873C8.78853 42.1323 8.69063 42.156 8.59121 42.1563L8.59017 42.1553Z" fill="#2979E4"/>
</g>
<defs>
<clipPath id="clip0_945_1073">
<rect width="68.219" height="80.739" fill="white"/>
</clipPath>
</defs>
</svg>
