<svg xmlns="http://www.w3.org/2000/svg" width="69" height="81" fill="none" viewBox="0 0 69 81"><g fill-rule="evenodd" clip-path="url(#a)" clip-rule="evenodd"><path fill="#fff" d="m58.48.77 7.983 4.611q.066.028.128.066a2.34 2.34 0 0 1 1.013 2.04v4.4-.005 31.9a7.3 7.3 0 0 1-1.013 3.211 7.1 7.1 0 0 1-2.454 2.592L12.053 79.654a2.43 2.43 0 0 1-2.45.241l-.107-.067-7.99-4.611a2.43 2.43 0 0 1-.9-1.974v-36.3a7.67 7.67 0 0 1 3.463-5.8L56.153 1.069A2.57 2.57 0 0 1 58.48.77"/><path fill="#2979e4" d="M57.672 1.203a2.6 2.6 0 0 0-1.232.4L4.366 31.663A7.07 7.07 0 0 0 1.2 36.981l.005 36.267a1.8 1.8 0 0 0 .659 1.488l7.927 4.575a1.89 1.89 0 0 0 1.959-.174l52.084-30.069a6.6 6.6 0 0 0 2.235-2.368A6.7 6.7 0 0 0 67 43.76l.005-31.788A.4.4 0 0 1 67 11.89v-4.4a1.76 1.76 0 0 0-.716-1.524l-8.07-4.652a1.4 1.4 0 0 0-.542-.107zM10.508 80.737a2.4 2.4 0 0 1-1.207-.317c-.016-.01-.138-.087-.149-.092l-7.947-4.59a3.05 3.05 0 0 1-1.2-2.455L0 36.944a8.24 8.24 0 0 1 3.754-6.316l52.1-30.08a3.16 3.16 0 0 1 2.864-.332.2.2 0 0 1 .061.03l7.988 4.611a2.94 2.94 0 0 1 1.437 2.6v4.352a.4.4 0 0 1 .005.077l-.005 31.9a7.8 7.8 0 0 1-1.095 3.513 7.67 7.67 0 0 1-2.669 2.813l-52.089 30.07a3.7 3.7 0 0 1-1.843.555"/><path fill="#fff" d="m8.59 41.555-7.988-4.61v4.408l7.988 4.611z"/><path fill="#2979e4" d="m1.208 41.002 6.78 3.915V41.9l-6.78-3.915zm7.385 5.557a.64.64 0 0 1-.3-.077l-7.99-4.61a.62.62 0 0 1-.3-.522v-4.408a.61.61 0 0 1 .3-.522.6.6 0 0 1 .6 0l7.989 4.611a.6.6 0 0 1 .3.521v4.408a.6.6 0 0 1-.6.6"/><path fill="#f2f5fc" d="M66.468 5.382 58.48.771a2.6 2.6 0 0 0-2.332.3L4.064 31.145a7.65 7.65 0 0 0-3.462 5.8l7.988 4.61a7.2 7.2 0 0 1 1.012-3.206 7.1 7.1 0 0 1 2.45-2.592L64.136 5.682a2.68 2.68 0 0 1 2.2-.353z"/><path fill="#2979e4" d="m1.236 36.617 6.874 3.966c.18-.893.509-1.75.971-2.536a7.7 7.7 0 0 1 2.665-2.808l52.09-30.075q.276-.158.572-.276l-6.224-3.6a2.08 2.08 0 0 0-1.744.311L4.366 31.66a7.1 7.1 0 0 0-3.13 4.955zm7.354 5.541a.65.65 0 0 1-.3-.082l-7.989-4.61a.59.59 0 0 1-.3-.559 8.25 8.25 0 0 1 3.754-6.285L55.85.547a3.1 3.1 0 0 1 2.9-.317l8.02 4.626a.6.6 0 0 1 .235.792.606.606 0 0 1-.778.287l-.123-.056a2.16 2.16 0 0 0-1.672.327L12.347 36.271a6.5 6.5 0 0 0-2.224 2.373 6.6 6.6 0 0 0-.937 2.945.59.59 0 0 1-.595.57"/><path fill="#f2f5fc" d="M8.586 45.963.598 41.352q0 15.94.005 31.895a2.43 2.43 0 0 0 .9 1.974l7.989 4.61a2.44 2.44 0 0 1-.905-1.974q.003-15.948-.001-31.894"/><path fill="#2979e4" d="m1.2 42.39.006 30.856a1.8 1.8 0 0 0 .659 1.489l6.163 3.557c-.015-.139-.031-.272-.036-.395l-.01-31.594zm8.3 38.04a.65.65 0 0 1-.3-.078l-7.987-4.615a3.05 3.05 0 0 1-1.2-2.454L.008 41.352a.6.6 0 0 1 .9-.522l7.983 4.61a.59.59 0 0 1 .3.522l.005 31.894a1.79 1.79 0 0 0 .665 1.489.6.6 0 0 1-.077 1.013.6.6 0 0 1-.288.072z"/><path fill="#fff" d="M66.593 46.998a7.3 7.3 0 0 0 1.013-3.211l-18.272-5.4-8.57 12.432a8.6 8.6 0 0 1-2.67 2.582 3.43 3.43 0 0 1-2.664.5l-8.57-2.536L8.593 77.86a2.33 2.33 0 0 0 1.012 2.04 2.43 2.43 0 0 0 2.45-.24l52.084-30.07a7.1 7.1 0 0 0 2.454-2.592"/><path fill="#2979e4" d="M9.202 78.025a1.67 1.67 0 0 0 .7 1.35 1.88 1.88 0 0 0 1.846-.24l52.084-30.07a6.6 6.6 0 0 0 2.235-2.367c.45-.764.753-1.605.89-2.48l-17.377-5.13-8.325 12.069a9.26 9.26 0 0 1-2.864 2.767 3.98 3.98 0 0 1-3.135.547l-8.15-2.408-17.9 25.962zm1.3 2.71a2.4 2.4 0 0 1-1.207-.318 2.91 2.91 0 0 1-1.309-2.535.6.6 0 0 1 .1-.369L26.353 51.02a.62.62 0 0 1 .67-.236l8.57 2.538a2.83 2.83 0 0 0 2.19-.44 7.95 7.95 0 0 0 2.473-2.4l8.571-12.431a.6.6 0 0 1 .664-.236l18.272 5.4a.6.6 0 0 1 .43.6 7.8 7.8 0 0 1-1.083 3.48 7.67 7.67 0 0 1-2.669 2.814L12.352 80.176a3.7 3.7 0 0 1-1.842.56z"/><path fill="#fff" d="M8.586 45.965v27.5l.005-.01v4.408l18.267-26.495-2.521-.747z"/><path fill="#2979e4" d="M9.185 73.372a.4.4 0 0 1 .005.076v2.48l16.7-24.22-16.707-4.94v26.607zm-.593 5.088a.5.5 0 0 1-.179-.03.6.6 0 0 1-.424-.573v-4.33c0-.02-.005-.045-.005-.071v-27.5a.61.61 0 0 1 .499-.596.6.6 0 0 1 .274.018l18.277 5.4a.6.6 0 0 1 .394.379.59.59 0 0 1-.072.542L9.09 78.189a.6.6 0 0 1-.497.27"/><path fill="#fff" d="M67.604 43.783v-31.9l-15.75 22.843-2.526 3.662z"/><path fill="#2979e4" d="M50.3 38.048 67 42.982l.004-29.164-16.707 24.23zm17.305 6.341a.7.7 0 0 1-.175-.026l-18.267-5.395a.62.62 0 0 1-.4-.378.61.61 0 0 1 .073-.542l18.276-26.5a.59.59 0 0 1 .67-.235.6.6 0 0 1 .425.573l-.005 31.9a.6.6 0 0 1-.24.48.6.6 0 0 1-.356.123z"/><path fill="#fff" d="M64.136 5.68 12.052 35.755a7.1 7.1 0 0 0-2.45 2.592 7.2 7.2 0 0 0-1.012 3.206v4.408c26.653 7.88.736.22 26.837 7.937a3.43 3.43 0 0 0 2.664-.5 8.6 8.6 0 0 0 2.67-2.582c27.47-39.842.522-.763 26.842-38.932v-4.4a2.34 2.34 0 0 0-1.013-2.04 2.45 2.45 0 0 0-2.454.236"/><path fill="#2979e4" d="m9.193 45.512 26.413 7.809a2.83 2.83 0 0 0 2.19-.44 7.95 7.95 0 0 0 2.473-2.4 23894 23894 0 0 1 13.854-20.087l.046.031c.235-.445.762-1.207 1.728-2.614l11.108-16.1V7.492a1.76 1.76 0 0 0-.716-1.524 1.91 1.91 0 0 0-1.846.24L12.354 36.277a6.55 6.55 0 0 0-2.224 2.373 6.6 6.6 0 0 0-.936 2.935v3.928zm26.96 9.087q-.453-.001-.89-.128L8.421 46.54a.61.61 0 0 1-.429-.578v-4.408a7.8 7.8 0 0 1 1.094-3.507 7.7 7.7 0 0 1 2.67-2.813L63.84 5.165V5.16a3.02 3.02 0 0 1 3.053-.235 2.92 2.92 0 0 1 1.314 2.532v4.434c0 .121-.034.24-.1.342-12.279 17.806-12.963 18.8-12.989 18.834l-.05-.03c-.246.46-.8 1.268-1.842 2.777L41.266 51.16a9.26 9.26 0 0 1-2.865 2.767 4.5 4.5 0 0 1-2.25.672z"/><path fill="#f2f5fc" d="M67.604 11.888v-4.4L39.856 47.724a5.6 5.6 0 0 1-1.765 1.708 2.25 2.25 0 0 1-1.76.328L8.59 41.56v4.408c24.065 7.113 5.769 1.708 26.837 7.937a3.43 3.43 0 0 0 2.664-.5 8.6 8.6 0 0 0 2.67-2.582c27.468-39.845.523-.766 26.843-38.935"/><path fill="#2979e4" d="m9.193 45.514 26.413 7.809a2.83 2.83 0 0 0 2.19-.44 7.95 7.95 0 0 0 2.473-2.4 23894 23894 0 0 1 13.854-20.087l.046.03c.235-.444.762-1.206 1.728-2.613l11.108-16.1V9.422l-26.648 38.65a6.25 6.25 0 0 1-1.958 1.887 2.84 2.84 0 0 1-2.229.383l-26.977-7.98v3.152m26.96 9.087q-.453-.001-.89-.128L8.421 46.542a.61.61 0 0 1-.429-.578v-4.408a.6.6 0 0 1 .245-.48.6.6 0 0 1 .527-.1l27.748 8.2a1.68 1.68 0 0 0 1.283-.266 5 5 0 0 0 1.57-1.53L67.112 7.14a.61.61 0 0 1 .675-.235.6.6 0 0 1 .42.578v4.4c0 .121-.035.24-.1.342-12.28 17.806-12.964 18.8-12.99 18.834l-.05-.03c-.246.46-.8 1.268-1.842 2.777l-11.96 17.346a9.26 9.26 0 0 1-2.865 2.767 4.5 4.5 0 0 1-2.249.682z"/><path fill="#f2f5fc" d="m9.352 38.811-7.988-4.616a7 7 0 0 0-.762 2.747l7.988 4.61a7.1 7.1 0 0 1 .762-2.74"/><path fill="#2979e4" d="m1.236 36.61 6.868 3.97a7.6 7.6 0 0 1 .475-1.523L1.64 35.05a6.1 6.1 0 0 0-.4 1.56zm7.354 5.545a.65.65 0 0 1-.3-.082l-7.989-4.61a.6.6 0 0 1-.3-.559 7.6 7.6 0 0 1 .823-2.976.58.58 0 0 1 .368-.307.59.59 0 0 1 .471.051l7.988 4.616a.6.6 0 0 1 .24.782 6.4 6.4 0 0 0-.702 2.517.59.59 0 0 1-.598.57z"/></g><defs><clipPath id="a"><path fill="#fff" d="M0 0h68.219v80.739H0z"/></clipPath></defs></svg>