<svg xmlns="http://www.w3.org/2000/svg" width="105" height="90" fill="none" viewBox="0 0 105 90"><g clip-path="url(#a)"><path fill="#fdfdfd" d="M58.764 98.939q-29.106 0-58.212.011c-.45 0-.55-.098-.55-.547Q.018 44.417 0-9.57c0-.447.099-.547.55-.547q58.212.018 116.424 0c.449 0 .551.098.55.547q-.018 53.985 0 107.973c0 .446-.099.547-.55.547q-29.106-.02-58.21-.011"/><path fill="#535353" d="M.88 20.426c.14-1.487.75-2.513 2.562-3.07 2.155-.664 4.319-1.298 6.474-1.96 2.271-.696 4.528-1.412 6.794-2.112 1.34-.415 2.83.21 3.555 1.413 1.648 2.735 3.341 5.442 4.999 8.171.176.295.34.29.62.202 3.566-1.102 7.136-2.187 10.702-3.29 3.509-1.086 7.012-2.192 10.52-3.278q5.014-1.553 10.033-3.085 5.988-1.844 11.975-3.693l11.643-3.589c3.345-1.029 6.684-2.073 10.038-3.072.987-.295 1.95-.702 2.993-.838C95.511 2 97.116 3.559 97.09 5.272c-.022 1.475.107 2.944.186 4.416q.165 3.117.36 6.233c.216 3.54.45 7.088.66 10.633.117 1.966.198 3.94.306 5.91.151 2.753.334 5.505.448 8.267.029.689.177 1.365.045 2.07-.242 1.288-1.031 2.075-2.218 2.447-4.398 1.376-8.811 2.71-13.217 4.064q-6.579 2.024-13.158 4.051L51.929 59.08c-1.12.345-2.228.73-3.358 1.034-.445.119-.453.32-.275.611a877 877 0 0 0 3.635 5.908c.235.381.534.738.69 1.15.158.41.414.415.737.315 1.768-.549 3.531-1.11 5.3-1.656q7.546-2.33 15.093-4.65 9.275-2.856 18.549-5.718c1.715-.527 3.442-1.013 5.142-1.581 1.316-.44 2.789.117 3.474 1.099.808 1.155.691 2.733-.276 3.81a3.07 3.07 0 0 1-1.432.858 1182 1182 0 0 0-11.96 3.69c-4.818 1.51-9.657 2.955-14.483 4.439a8841 8841 0 0 0-16.988 5.24c-1.06.326-2.127.625-3.183.962-1.635.52-2.925-.078-3.743-1.41q-3.17-5.157-6.32-10.32c-2.173-3.57-4.314-7.153-6.486-10.716-1.627-2.67-3.308-5.308-4.919-7.99a684 684 0 0 0-4.392-7.222c-1.903-3.105-3.759-6.24-5.653-9.351-1.322-2.17-2.687-4.316-4.003-6.488-.267-.44-.425-1.082-.837-1.257-.428-.18-.978.233-1.481.388-3.243 1.005-6.495 1.985-9.738 2.991-1.96.602-4.004-.546-4.141-2.79m88.607 50.457c-.072-3.516 2.879-6.063 5.87-6.078 3.679-.019 6.212 2.74 6.197 6.018-.015 3.516-2.765 6.168-6.384 6.004-3.182-.144-5.636-2.675-5.683-5.944m-23.25 10.864c-.198 3.368-2.626 5.996-6.161 5.957a5.98 5.98 0 0 1-4.222-1.773 5.92 5.92 0 0 1-1.704-4.233c.033-3.373 2.742-6.06 6.05-6.002 3.373.06 5.958 2.66 6.037 6.05"/><path fill="#fefefe" d="M91.907 20.982c.198.547-.197.689-.79.867a418 418 0 0 0-8.718 2.696c-.468.15-.623.059-.708-.404-.663-3.616-1.342-7.228-2.016-10.843-.056-.305-.018-.534.351-.647q5.423-1.655 10.84-3.342c.296-.091.38-.01.395.275q.198 3.973.403 7.946c.06 1.103.154 2.2.243 3.452M45.101 35.86c.01.191-.12.197-.26.238-1.917.59-3.83 1.187-5.743 1.782l-3.294 1.02c-.395.124-.665.221-.972-.315-1.388-2.411-2.867-4.77-4.314-7.15-.507-.832-1.027-1.655-1.542-2.482-.18-.295-.377-.458.21-.622 2.16-.603 4.293-1.308 6.435-1.976q2.085-.651 4.166-1.307c.257-.081.348-.037.474.244.948 2.128 1.943 4.237 2.91 6.357.617 1.355 1.208 2.721 1.814 4.08q.047.075.116.131m.813-12.686q3.208-.982 6.394-1.966c1.466-.453 2.928-.917 4.393-1.376.234-.073.395-.07.494.242a2140 2140 0 0 0 3.34 10.715c.089.284.115.436-.296.558q-4.455 1.32-8.88 2.743c-.405.13-.457-.046-.582-.318-1.19-2.597-2.395-5.19-3.59-7.784-.424-.922-.835-1.846-1.273-2.814M75.929 26.2c.137.276-.039.332-.251.398-2.98.914-5.962 1.825-8.937 2.753-.494.155-.42-.256-.483-.448-.593-1.845-1.155-3.697-1.726-5.549-.52-1.687-1.032-3.378-1.573-5.06-.099-.294-.064-.337.25-.432 3.045-.923 6.08-1.88 9.119-2.826a7 7 0 0 0 .82-.258c.637-.295.697-.028.797.532.634 3.577 1.317 7.144 1.983 10.715a1 1 0 0 1 0 .174m16.334 1.598c.225 3.572.45 7.122.67 10.671 0 .038-.025.077-.026.115-.021.52.284 1.17-.018 1.517-.302.348-.951.354-1.45.51l-5.956 1.857c-.26.081-.408.08-.47-.275q-.98-5.55-2.014-11.092c-.063-.332-.02-.484.271-.573q3.933-1.2 7.869-2.396zM38.395 44.38c2.532-.779 5.042-1.55 7.552-2.325.441-.137.877-.295 1.316-.434.297-.098.44-.041.593.301 1.536 3.392 3.11 6.765 4.669 10.146q.093.24.155.491c-2.396.734-4.8 1.445-7.183 2.216-.525.17-.79.082-1.06-.37-1.822-3.02-3.664-6.03-5.495-9.043-.19-.313-.359-.642-.547-.981m15.097-4.649c2.754-.851 5.49-1.684 8.214-2.55.538-.17.79-.17.978.476a600 600 0 0 0 3.168 10.24c.143.452.022.627-.395.753-2.124.635-4.252 1.26-6.358 1.951-.504.165-.68-.036-.837-.381a2039 2039 0 0 1-3.647-8.022c-.366-.814-.74-1.63-1.123-2.467m25.734 4.375c.13.326-.11.318-.197.342-2.308.705-4.623 1.385-6.927 2.1-.296.092-.333.065-.42-.215q-1.669-5.4-3.384-10.785c-.118-.37.113-.43.296-.492 2.108-.651 4.222-1.278 6.332-1.923.61-.186 1.21-.403 1.821-.581.171-.05.35-.12.414.234.559 3.116 1.157 6.226 1.734 9.338.138.692.234 1.386.331 1.982"/></g><defs><clipPath id="a"><path fill="#fff" d="M0 0h105v90H0z"/></clipPath></defs></svg>