<svg xmlns="http://www.w3.org/2000/svg" width="120" height="103" fill="none" viewBox="0 0 120 103"><g fill-rule="evenodd" clip-path="url(#a)" clip-rule="evenodd"><path fill="#fff" d="m73.939.973 10.093 5.83q.084.035.16.084a2.96 2.96 0 0 1 1.282 2.579v5.572l.005-.007-.005 40.33a9.2 9.2 0 0 1-1.282 4.06 9 9 0 0 1-3.1 3.279l-65.85 38.016a3.1 3.1 0 0 1-1.509.572 3.1 3.1 0 0 1-1.59-.272 2 2 0 0 1-.136-.084l-10.1-5.83a3.08 3.08 0 0 1-1.144-2.5v-45.9a9.7 9.7 0 0 1 4.378-7.331L70.99 1.349a3.25 3.25 0 0 1 2.948-.376"/><path fill="#2979e4" d="M72.917 1.523a3.3 3.3 0 0 0-1.558.5l-65.837 38a8.93 8.93 0 0 0-4 6.723l.007 45.853a2.28 2.28 0 0 0 .833 1.882l10.022 5.784a2.39 2.39 0 0 0 2.476-.22l65.849-38.006a8.34 8.34 0 0 0 2.825-3 8.45 8.45 0 0 0 1.177-3.717l.007-40.19a.5.5 0 0 1-.007-.1V9.467a2.23 2.23 0 0 0-.905-1.926l-10.2-5.881a1.8 1.8 0 0 0-.686-.136zM13.286 102.077a3 3 0 0 1-1.713-.516l-10.047-5.8a3.85 3.85 0 0 1-1.519-3.1L0 46.718a10.42 10.42 0 0 1 4.745-7.985L70.614.703a4 4 0 0 1 3.621-.418.3.3 0 0 1 .077.039l10.1 5.829a3.72 3.72 0 0 1 1.817 3.284v5.5a.5.5 0 0 1 .006.1l-.006 40.33a9.9 9.9 0 0 1-1.384 4.442 9.7 9.7 0 0 1-3.375 3.556l-65.856 38.017a4.7 4.7 0 0 1-2.328.695"/><path fill="#fff" d="m10.866 52.54-10.1-5.83v5.574l10.1 5.829z"/><path fill="#2979e4" d="m1.526 51.844 8.573 4.949v-3.814L1.526 48.03zm9.336 7.025a.8.8 0 0 1-.381-.1L.381 52.94A.78.78 0 0 1 0 52.28v-5.573a.77.77 0 0 1 .381-.66.76.76 0 0 1 .757 0l10.1 5.829a.75.75 0 0 1 .381.659v5.573a.75.75 0 0 1-.381.659.75.75 0 0 1-.376.103z"/><path fill="#f2f5fc" d="M84.04 6.803 73.94.973a3.29 3.29 0 0 0-2.947.382L5.143 39.378a9.67 9.67 0 0 0-4.377 7.331l10.1 5.83a9.1 9.1 0 0 1 1.28-4.055 9 9 0 0 1 3.1-3.278l65.85-38.023a3.4 3.4 0 0 1 2.786-.446z"/><path fill="#2979e4" d="m1.564 46.297 8.69 5.014a10.4 10.4 0 0 1 1.229-3.206 9.7 9.7 0 0 1 3.368-3.55L80.708 6.532q.35-.2.724-.35l-7.868-4.548a2.63 2.63 0 0 0-2.2.394l-65.838 38a8.98 8.98 0 0 0-3.957 6.265zm9.3 7.006a.8.8 0 0 1-.38-.1l-10.1-5.83a.75.75 0 0 1-.375-.7 10.43 10.43 0 0 1 4.746-7.945L70.618.705a3.92 3.92 0 0 1 3.666-.4L84.42 6.154a.763.763 0 0 1-.683 1.363l-.156-.075a2.73 2.73 0 0 0-2.114.413l-65.85 38.01a8.2 8.2 0 0 0-2.812 3 8.36 8.36 0 0 0-1.183 3.724.75.75 0 0 1-.395.627.8.8 0 0 1-.365.086z"/><path fill="#f2f5fc" d="m10.858 58.114-10.1-5.829q0 20.154.007 40.325a3.08 3.08 0 0 0 1.144 2.5l10.1 5.829a3.08 3.08 0 0 1-1.145-2.5q0-20.162-.006-40.325"/><path fill="#2979e4" d="m1.52 53.596.007 39.012a2.28 2.28 0 0 0 .833 1.882l7.792 4.5c-.019-.174-.039-.343-.045-.5l-.013-39.944-8.573-4.949m10.488 48.094a.8.8 0 0 1-.382-.1l-10.1-5.835a3.85 3.85 0 0 1-1.519-3.1L0 52.285a.755.755 0 0 1 1.138-.66l10.093 5.83a.75.75 0 0 1 .381.659l.007 40.325a2.26 2.26 0 0 0 .841 1.881.762.762 0 0 1-.452 1.369z"/><path fill="#fff" d="M84.192 59.42a9.2 9.2 0 0 0 1.281-4.06l-23.1-6.82-10.836 15.716a10.9 10.9 0 0 1-3.375 3.265 4.33 4.33 0 0 1-3.368.627l-10.836-3.207-23.095 33.5a2.95 2.95 0 0 0 1.28 2.58 3.07 3.07 0 0 0 3.1-.3l65.85-38.016a9 9 0 0 0 3.1-3.285"/><path fill="#2979e4" d="M11.64 98.65a2.11 2.11 0 0 0 .886 1.707 2.37 2.37 0 0 0 2.334-.3L80.71 62.04a8.34 8.34 0 0 0 2.825-2.993 8.9 8.9 0 0 0 1.125-3.135l-21.97-6.486-10.524 15.258a11.7 11.7 0 0 1-3.621 3.5 5.04 5.04 0 0 1-3.963.691L34.277 65.83 11.642 98.655zm1.649 3.427a3 3 0 0 1-1.525-.4 3.68 3.68 0 0 1-1.656-3.207.74.74 0 0 1 .13-.466l23.094-33.5a.78.78 0 0 1 .847-.3l10.836 3.207a3.58 3.58 0 0 0 2.768-.556 10.05 10.05 0 0 0 3.128-3.039L61.748 48.1a.76.76 0 0 1 .84-.3l23.1 6.821a.765.765 0 0 1 .543.763 9.9 9.9 0 0 1-1.384 4.41 9.7 9.7 0 0 1-3.375 3.555l-65.856 38.017c-.7.437-1.502.683-2.327.712"/><path fill="#fff" d="M10.86 58.113v34.764l.006-.013v5.574l23.094-33.5-3.188-.944z"/><path fill="#2979e4" d="M11.61 92.766a.5.5 0 0 1 .007.1v3.13l21.116-30.621-21.123-6.249zm-.75 6.433a.7.7 0 0 1-.227-.039.76.76 0 0 1-.536-.724v-5.469c0-.026-.007-.058-.007-.091V58.111a.77.77 0 0 1 .629-.752.74.74 0 0 1 .347.022l23.107 6.827a.75.75 0 0 1 .5.479.74.74 0 0 1-.091.685L11.488 98.863a.77.77 0 0 1-.624.336z"/><path fill="#fff" d="m85.472 55.358.006-40.33-19.913 28.88-3.194 4.63z"/><path fill="#2979e4" d="m63.594 48.104 21.116 6.239.007-36.871zm21.88 8.017a1 1 0 0 1-.22-.032l-23.095-6.821a.79.79 0 0 1-.5-.478.78.78 0 0 1 .09-.685l23.107-33.5a.74.74 0 0 1 .847-.3.755.755 0 0 1 .537.724l-.007 40.33a.75.75 0 0 1-.3.608.75.75 0 0 1-.459.154"/><path fill="#fff" d="M81.09 7.186 15.24 45.21a9 9 0 0 0-3.1 3.278 9.1 9.1 0 0 0-1.28 4.054v5.573c33.7 9.963.93.278 33.93 10.034a4.33 4.33 0 0 0 3.367-.627c1.349-.83 2.5-1.944 3.375-3.265 34.732-50.372.66-.964 33.937-49.22v-5.57a2.96 2.96 0 0 0-1.28-2.579 3.1 3.1 0 0 0-3.1.297"/><path fill="#2979e4" d="m11.622 57.544 33.393 9.873a3.58 3.58 0 0 0 2.768-.556 10.05 10.05 0 0 0 3.128-3.04c16.584-24.05 17.483-25.35 17.515-25.4l.059.04c.3-.563.964-1.527 2.185-3.3L84.713 14.8V9.469a2.23 2.23 0 0 0-.905-1.927 2.41 2.41 0 0 0-2.334.3L15.618 45.858a8.3 8.3 0 0 0-2.812 3 8.4 8.4 0 0 0-1.183 3.71v4.973zm34.085 11.49c-.381 0-.76-.055-1.126-.161L10.645 58.846a.77.77 0 0 1-.543-.731v-5.58a9.9 9.9 0 0 1 1.383-4.434 9.75 9.75 0 0 1 3.375-3.556l65.847-38.01v-.007a3.81 3.81 0 0 1 3.86-.3 3.69 3.69 0 0 1 1.662 3.2v5.607a.8.8 0 0 1-.13.433A69967 69967 0 0 1 69.677 39.28l-.065-.04c-.31.583-1.013 1.6-2.328 3.512l-15.121 21.93a11.7 11.7 0 0 1-3.621 3.5 5.7 5.7 0 0 1-2.836.853"/><path fill="#f2f5fc" d="M85.47 15.036V9.469l-35.08 50.87a7.1 7.1 0 0 1-2.232 2.159 2.84 2.84 0 0 1-2.224.414L10.86 52.54v5.573c30.426 8.993 7.293 2.159 33.93 10.034a4.33 4.33 0 0 0 3.368-.627 10.9 10.9 0 0 0 3.375-3.265c34.733-50.371.666-.963 33.938-49.22"/><path fill="#2979e4" d="m11.622 57.545 33.393 9.873a3.58 3.58 0 0 0 2.768-.556 10.05 10.05 0 0 0 3.128-3.04c16.584-24.05 17.483-25.35 17.515-25.4l.059.04c.3-.563.964-1.528 2.185-3.3l14.043-20.36v-2.9L51.022 60.769a7.9 7.9 0 0 1-2.476 2.386 3.6 3.6 0 0 1-2.82.485l-34.1-10.08v3.983zm34.085 11.489a4 4 0 0 1-1.126-.163L10.645 58.846a.77.77 0 0 1-.543-.731V52.54a.75.75 0 0 1 .31-.607.76.76 0 0 1 .666-.123L46.16 62.18a2.12 2.12 0 0 0 1.623-.337 6.3 6.3 0 0 0 1.985-1.933l35.08-50.875a.77.77 0 0 1 .855-.3.765.765 0 0 1 .53.73v5.568a.8.8 0 0 1-.13.432L69.68 39.28l-.064-.04c-.31.583-1.014 1.6-2.328 3.512L52.167 64.68a11.7 11.7 0 0 1-3.621 3.5 5.7 5.7 0 0 1-2.84.853"/><path fill="#f2f5fc" d="m11.829 49.07-10.1-5.836a8.9 8.9 0 0 0-.963 3.473l10.1 5.83a8.9 8.9 0 0 1 .963-3.467"/><path fill="#2979e4" d="m1.564 46.288 8.683 5.021a9.6 9.6 0 0 1 .6-1.926l-8.773-5.067a7.8 7.8 0 0 0-.51 1.972m9.3 7.012a.8.8 0 0 1-.381-.1l-10.1-5.829a.76.76 0 0 1-.374-.7 9.6 9.6 0 0 1 1.041-3.763.74.74 0 0 1 .465-.388.74.74 0 0 1 .6.065l10.1 5.836a.754.754 0 0 1 .3.989 8.1 8.1 0 0 0-.892 3.181.75.75 0 0 1-.394.627.8.8 0 0 1-.367.082z"/><path fill="#1b69ff" d="M65.202 100.463c-6.53 3.776-11.874.707-11.874-6.857 0-6.869 4.394-15.08 10.093-19.36 1.07-10.213 8.194-21.725 16.8-26.689 5.641-3.289 10.688-2.938 13.774.291a19.2 19.2 0 0 1 3.385-2.512c5.224-3 9.617-1.674 11.221 2.791 5.937-2.707 10.568.434 10.568 7.5 0 7.564-5.284 16.761-11.875 20.537z"/></g><defs><clipPath id="a"><path fill="#fff" d="M0 0h119.17v102.078H0z"/></clipPath></defs></svg>