<svg xmlns="http://www.w3.org/2000/svg" width="45" height="39" fill="none" viewBox="0 0 45 39"><g stroke="#1b69ff" stroke-linecap="round" stroke-linejoin="round" stroke-width="3" clip-path="url(#a)"><path d="m34.228 13.152-8.94 7.2a4.66 4.66 0 0 1-5.755 0l-9.015-7.2"/><path d="M12.475 1.496h19.758a10.39 10.39 0 0 1 7.511 3.332 10.5 10.5 0 0 1 2.78 7.754v13.68a10.5 10.5 0 0 1-2.78 7.754 10.39 10.39 0 0 1-7.5 3.332H12.475c-6.119.017-10.243-4.96-10.243-11.078V12.596c0-6.119 4.124-11.1 10.243-11.1"/></g><defs><clipPath id="a"><path fill="#fff" d="M.732 0h43.312v38.852H.732z"/></clipPath></defs></svg>