<svg xmlns="http://www.w3.org/2000/svg" width="257" height="78" fill="none" viewBox="0 0 257 78"><g clip-path="url(#a)"><mask id="b" width="219" height="47" x="19" y="16" maskUnits="userSpaceOnUse" style="mask-type:luminance"><path fill="#fff" d="M237.103 16H19v46.574h218.103z"/></mask><g mask="url(#b)"><path fill="#f25022" d="M41.158 16H19v22.156h22.158z"/><mask id="c" width="219" height="47" x="19" y="16" maskUnits="userSpaceOnUse" style="mask-type:luminance"><path fill="#fff" d="M237.103 16H19v46.574h218.103z"/></mask><g mask="url(#c)"><path fill="#80ba01" d="M43.422 16h22.156v22.155H43.424V16"/><path fill="#777" d="M218.802 24.44a8.7 8.7 0 0 1 6.983-.818c.019 1.367 0 2.737.009 4.107a4.57 4.57 0 0 0-3.533-.324 2.8 2.8 0 0 0-1.6 2.236 30 30 0 0 0-.087 3.588c2.336.005 4.671 0 7.009 0 .017-1.518-.02-3.035.019-4.552 1.591-.454 3.162-.961 4.744-1.436.011 2-.02 4 .017 6 1.577-.023 3.161-.006 4.74-.011v3.89c-1.587-.064-3.171-.015-4.761-.023.007 2.238 0 4.474 0 6.713.026 1.239-.067 2.484.078 3.719a2.41 2.41 0 0 0 1.036 1.912 3.57 3.57 0 0 0 3.643-.343v3.93a9.36 9.36 0 0 1-4.38.67 5.33 5.33 0 0 1-3.777-1.73 7.15 7.15 0 0 1-1.356-4.574c-.011-3.432 0-6.866 0-10.3h-7.012q-.004 8.082 0 16.163h-4.793V37.099c-1.112-.021-2.223.005-3.336-.017.006-1.277.01-2.56 0-3.84 1.106-.024 2.212-.014 3.322-.006.081-1.7-.178-3.45.328-5.107a6.55 6.55 0 0 1 2.706-3.69M116.201 24.72a2.94 2.94 0 0 1 2.653.94 2.73 2.73 0 0 1 .333 3.114 2.975 2.975 0 0 1-3.186 1.335 2.71 2.71 0 0 1-2.228-2.665 2.776 2.776 0 0 1 2.428-2.72M79.484 25.315h6.97q3.255 8.26 6.525 16.517c.555 1.377 1.073 2.772 1.655 4.138 2.792-6.883 5.621-13.748 8.39-20.639 2.236-.036 4.472-.009 6.708-.014q-.009 13.97 0 27.941c-1.612 0-3.223.014-4.834-.01.014-6.872 0-13.745.006-20.62 0-.309-.006-.617-.028-.926a4 4 0 0 0-.253.446c-2.769 7.037-5.59 14.052-8.344 21.094-1.146.041-2.3 0-3.443.022-2.858-7.037-5.679-14.088-8.522-21.128a5 5 0 0 0-.239-.426c-.06 3.012-.01 6.026-.027 9.037q.006 6.255 0 12.512h-4.563V25.314M129.395 33.212a13.1 13.1 0 0 1 7.119.02c.478.13.937.322 1.367.569-.026 1.527 0 3.056-.014 4.583a7.62 7.62 0 0 0-5.47-1.681 5.63 5.63 0 0 0-3.981 2.21 7.72 7.72 0 0 0-1.269 5.548 6 6 0 0 0 1.934 3.984 6.06 6.06 0 0 0 4.484 1.334 9.14 9.14 0 0 0 4.3-1.765c.011 1.447-.008 2.894.01 4.339a11.66 11.66 0 0 1-6.551 1.356 9.72 9.72 0 0 1-6.244-2.6 9.98 9.98 0 0 1-2.9-6.7 12.14 12.14 0 0 1 1.894-7.434 9.64 9.64 0 0 1 5.317-3.756M181.737 32.907a12.7 12.7 0 0 1 6.634.69v4.406a8.43 8.43 0 0 0-5.031-1.487 2.58 2.58 0 0 0-2.291 1.266 2.07 2.07 0 0 0 .7 2.45c1.361.91 2.979 1.295 4.387 2.11a6.3 6.3 0 0 1 2.746 2.611 5.84 5.84 0 0 1-1.246 6.742 9.17 9.17 0 0 1-6.669 2.025 14.3 14.3 0 0 1-4.872-1.118c.007-1.546-.01-3.088.007-4.633a10.5 10.5 0 0 0 4.347 1.876 5.58 5.58 0 0 0 3.308-.3 1.914 1.914 0 0 0 .573-2.722 5.7 5.7 0 0 0-2.094-1.37 20 20 0 0 1-4.134-2.117 4.96 4.96 0 0 1-1.79-2.718 6.13 6.13 0 0 1 .661-4.78 7.14 7.14 0 0 1 4.768-2.93M148.595 33.54a5.4 5.4 0 0 1 4.447-.376c-.006 1.6 0 3.2-.005 4.793a5.1 5.1 0 0 0-3.237-.76 3.98 3.98 0 0 0-3 2.4 8.8 8.8 0 0 0-.683 4.09v9.576h-4.723q-.006-10.006 0-20.017c1.574-.02 3.151-.012 4.731 0-.007 1.146 0 2.292-.006 3.44a6.14 6.14 0 0 1 2.476-3.138M114.212 33.238c1.588-.006 3.181-.024 4.767.009-.019 6.67 0 13.343-.007 20.013h-4.756q-.01-10.011 0-20.022M172.899 37.907a8.47 8.47 0 0 0-4.185-4.23 12.7 12.7 0 0 0-6.859-.809 9.57 9.57 0 0 0-6.3 3.367 10.68 10.68 0 0 0-2.212 6.12c-.29 2.62.33 5.26 1.756 7.478a9.07 9.07 0 0 0 5.537 3.612 13.8 13.8 0 0 0 5.608 0 9.27 9.27 0 0 0 5.5-3.4 10.63 10.63 0 0 0 2.1-5.83 13.1 13.1 0 0 0-.953-6.317m-4.628 9.193a4.36 4.36 0 0 1-2.354 2.312 6.45 6.45 0 0 1-3.9.173 4.8 4.8 0 0 1-3-2.479 9.23 9.23 0 0 1-.728-5.01 6.37 6.37 0 0 1 1.851-4.18 5.02 5.02 0 0 1 3.152-1.245 5.16 5.16 0 0 1 4.009 1.361 6.46 6.46 0 0 1 1.654 4.174 10.5 10.5 0 0 1-.675 4.894M211.278 38.487a8.56 8.56 0 0 0-4.117-4.66 12.43 12.43 0 0 0-7.113-.966 9.95 9.95 0 0 0-5.3 2.272 9.8 9.8 0 0 0-3.158 6.15 13.25 13.25 0 0 0 .753 6.957 8.88 8.88 0 0 0 4.867 4.722c2.159.789 4.49.986 6.751.57a9.36 9.36 0 0 0 5.889-3.443 10.96 10.96 0 0 0 2.169-6.821c.06-1.627-.193-3.25-.744-4.782m-4.324 6.789a6.2 6.2 0 0 1-1.238 2.939 4.47 4.47 0 0 1-2.8 1.507 6.34 6.34 0 0 1-3.429-.372 4.85 4.85 0 0 1-2.526-2.645 9.5 9.5 0 0 1-.569-4.365 6.93 6.93 0 0 1 1.452-3.987 4.9 4.9 0 0 1 3.5-1.678 5.24 5.24 0 0 1 3.837 1.132 5.5 5.5 0 0 1 1.736 3.188c.265 1.413.278 2.862.038 4.28"/><path fill="#02a4ef" d="M19 40.417h22.157v22.156H19z"/><path fill="#ffb902" d="M43.423 40.42h22.154v22.156H43.422V40.422"/></g></g></g><defs><clipPath id="a"><path fill="#fff" d="M0 0h257v78H0z"/></clipPath></defs></svg>