<svg width="110" height="112" viewBox="0 0 110 112" fill="none" xmlns="http://www.w3.org/2000/svg">
<path d="M55 0C24.8888 0 0.5 11.1378 0.5 24.8889C0.5 38.64 24.8888 49.7778 55 49.7778C85.1113 49.7778 109.5 38.64 109.5 24.8889C109.5 11.1378 85.1113 0 55 0ZM0.5 37.3333V56C0.5 69.7511 24.8888 80.8889 55 80.8889C85.1113 80.8889 109.5 69.7511 109.5 56V37.3333C109.5 51.0844 85.1113 62.2222 55 62.2222C24.8888 62.2222 0.5 51.0844 0.5 37.3333ZM0.5 68.4444V87.1111C0.5 100.862 24.8888 112 55 112C85.1113 112 109.5 100.862 109.5 87.1111V68.4444C109.5 82.1956 85.1113 93.3333 55 93.3333C24.8888 93.3333 0.5 82.1956 0.5 68.4444Z" fill="#265597"/>
</svg>
