<svg xmlns="http://www.w3.org/2000/svg" width="50" height="91" fill="none" viewBox="0 0 50 91"><path fill="#fff" fill-rule="evenodd" stroke="#d3e5fb" d="M1.377 35.297v54.317l42.242-24.19V11.104q-21.12 12.09-42.242 24.192Z" clip-rule="evenodd"/><path fill="#345be4" fill-rule="evenodd" d="M8.576 48.638q-.143.037-.273.105a2.6 2.6 0 0 0-1.11 1.92.6.6 0 0 0 .06.303 3 3 0 0 0 .273-.113 2.58 2.58 0 0 0 1.118-1.92.45.45 0 0 0-.067-.296zM7.24 52.502a1.5 1.5 0 0 1-.777-.203 1.8 1.8 0 0 1-.832-1.637 4.1 4.1 0 0 1 .547-1.857 4.1 4.1 0 0 1 1.346-1.4 1.694 1.694 0 0 1 2.51.587c.148.291.207.619.17.943a4.06 4.06 0 0 1-.55 1.859 4.1 4.1 0 0 1-1.352 1.399 2.13 2.13 0 0 1-1.062.31M8.304 58.016a2.6 2.6 0 0 0-1.11 1.92.6.6 0 0 0 .06.303q.145-.036.273-.112a2.56 2.56 0 0 0 1.117-1.913c0-.198-.046-.289-.067-.303a1.2 1.2 0 0 0-.273.105m-1.064 3.76a1.54 1.54 0 0 1-.777-.205 1.783 1.783 0 0 1-.831-1.636 4.1 4.1 0 0 1 .547-1.857c.33-.566.79-1.047 1.345-1.4a1.695 1.695 0 0 1 2.512.592c.148.292.206.62.168.944a4.06 4.06 0 0 1-.552 1.855 4.1 4.1 0 0 1-1.35 1.395c-.32.195-.686.303-1.062.312M8.576 67.767q-.143.035-.273.105a2.6 2.6 0 0 0-1.11 1.919.6.6 0 0 0 .06.304q.145-.037.273-.112a2.58 2.58 0 0 0 1.118-1.92.47.47 0 0 0-.067-.296zM7.24 71.63a1.5 1.5 0 0 1-.777-.204 1.784 1.784 0 0 1-.831-1.636 4.1 4.1 0 0 1 .547-1.857c.33-.567.79-1.047 1.345-1.401a1.693 1.693 0 0 1 2.51.588c.147.29.207.618.17.942a4.06 4.06 0 0 1-.55 1.86 4.1 4.1 0 0 1-1.352 1.398 2.13 2.13 0 0 1-1.063.31zM13.795 47.703a.78.78 0 0 1-.678-.39.777.777 0 0 1 .287-1.061L37.88 32.236a.785.785 0 0 1 1.064.284.77.77 0 0 1-.286 1.055L14.182 47.597a.8.8 0 0 1-.387.105M13.795 57.55a.77.77 0 0 1-.678-.383.777.777 0 0 1 .287-1.062L37.88 42.084a.79.79 0 0 1 1.047.298.77.77 0 0 1-.269 1.047L14.182 57.45a.8.8 0 0 1-.387.099M13.796 66.829a.776.776 0 0 1-.753-.98.79.79 0 0 1 .362-.472l17.444-9.991a.79.79 0 0 1 1.064.287.77.77 0 0 1-.28 1.058l-17.45 9.992a.74.74 0 0 1-.387.106" clip-rule="evenodd"/><path fill="#fff" d="m44.552 1.099 3.988 2.284a.56.56 0 0 1 .236.511v20.067c0 9.308-13.854 24.449-14.446 25.091q-.14.153-.318.26a.7.7 0 0 1-.316.103c-.384.023-6.369.338-10.513-1.999l-4.035-2.31a7.17 7.17 0 0 1-2.886-2.705 7.1 7.1 0 0 1-1-3.812V18.52a1.82 1.82 0 0 1 .828-1.362c5.533-3.166 10.688-7.65 13.46-11.7.28-.41.673-.63.954-.545 2.767.873 7.922-.546 13.498-3.74a.52.52 0 0 1 .557-.073z"/><path fill="#4069fa" d="M16.086 17.159c5.533-3.166 10.687-7.65 13.46-11.7.28-.41.673-.63.954-.546 2.766.874 7.921-.546 13.498-3.74a.52.52 0 0 1 .556-.072l3.988 2.284a.52.52 0 0 0-.55.072c-5.58 3.195-10.73 4.615-13.5 3.74-.282-.087-.673.138-.954.545-2.773 4.053-7.928 8.535-13.46 11.7a1.82 1.82 0 0 0-.827 1.362v20.071a7.1 7.1 0 0 0 1.016 3.838 7.2 7.2 0 0 0 2.923 2.707h-.005l-4.035-2.31a7.17 7.17 0 0 1-2.887-2.705 7.1 7.1 0 0 1-.999-3.812V18.52a1.82 1.82 0 0 1 .822-1.361"/><path fill="#345be4" d="M32.663 49.765c.61 0 .994-.022 1.055-.026.164-.012.323-.063.464-.148q.22-.13.392-.317c.598-.65 14.537-15.875 14.535-25.314V3.895a.87.87 0 0 0-.401-.794L44.72.816l-.02-.01a.85.85 0 0 0-.883.093c-5.456 3.126-10.53 4.55-13.216 3.701a1.29 1.29 0 0 0-1.326.672c-2.749 4.016-7.863 8.462-13.353 11.603a2.15 2.15 0 0 0-.994 1.644V38.59a7.4 7.4 0 0 0 1.033 3.968 7.46 7.46 0 0 0 2.997 2.82l.023.015 4.036 2.311a.4.4 0 0 0 .05.024c3.251 1.81 7.611 2.037 9.596 2.037M44.407 1.39l3.97 2.275c.036.02.073.098.073.226v20.069c0 9.187-13.774 24.235-14.361 24.87q-.106.115-.24.197a.4.4 0 0 1-.171.06c-.254.015-6.249.345-10.332-1.956l-.044-.02-3.971-2.276-.023-.015a6.85 6.85 0 0 1-2.765-2.585 6.78 6.78 0 0 1-.958-3.648V18.517a1.5 1.5 0 0 1 .666-1.084c5.567-3.188 10.766-7.71 13.566-11.8.218-.318.483-.446.582-.418 2.855.902 8.129-.542 13.76-3.77.117-.072.196-.088.224-.072l.02.015z"/><path fill="#345be4" d="M34.016 31.641 42.97 16.13l-1.211-.692-7.744 13.434-4.776-2.73-1.212 2.076z"/></svg>