<svg xmlns="http://www.w3.org/2000/svg" width="46" height="69" fill="none" viewBox="0 0 46 69"><path fill="#0d034a" d="M36.052 64.642c.496.005.985-.12 1.417-.362 1.078-.61 1.676-1.898 1.676-3.622V26.143a11.27 11.27 0 0 0-4.928-8.864L12.263 4.082c-1.397-.84-2.742-.975-3.787-.384-1.078.611-1.674 1.897-1.674 3.622v34.513a11.27 11.27 0 0 0 4.93 8.864L33.68 63.893a4.7 4.7 0 0 0 2.371.75M9.895 4.374a3.66 3.66 0 0 1 1.835.598l21.95 13.197a10.28 10.28 0 0 1 4.43 7.977V60.66c0 1.336-.408 2.302-1.15 2.724a2.75 2.75 0 0 1-2.746-.371L12.263 49.814a10.28 10.28 0 0 1-4.429-7.976V7.323c0-1.337.409-2.303 1.15-2.723a1.83 1.83 0 0 1 .912-.229z"/><path fill="#0d034a" d="M42.396 61.304c.496.005.984-.12 1.417-.363 1.078-.61 1.676-1.898 1.676-3.623V22.807a11.27 11.27 0 0 0-4.93-8.865L18.604.746c-1.397-.84-2.742-.975-3.786-.384-1.078.61-1.674 1.897-1.674 3.622v34.514a11.27 11.27 0 0 0 4.928 8.865l21.954 13.196a4.7 4.7 0 0 0 2.369.745M16.238 1.035a3.65 3.65 0 0 1 1.834.598l21.955 13.198a10.28 10.28 0 0 1 4.429 7.976v34.512c0 1.337-.41 2.305-1.151 2.724a2.75 2.75 0 0 1-2.747-.371L18.605 46.475a10.28 10.28 0 0 1-4.429-7.978V3.99c0-1.337.408-2.304 1.15-2.724.279-.155.593-.235.912-.23" opacity=".43"/><path fill="#fff" d="M28.002 21.741a10.82 10.82 0 0 1 4.68 8.42v34.512c0 3.106-2.088 4.352-4.68 2.795L6.048 54.271a10.81 10.81 0 0 1-4.678-8.42V11.34c0-3.106 2.087-4.353 4.678-2.795z"/><path fill="#27292b" d="M30.106 68.999c.555.004 1.1-.136 1.584-.408 1.19-.673 1.847-2.064 1.847-3.916V30.163a11.63 11.63 0 0 0-5.094-9.154L6.486 7.815C4.98 6.91 3.515 6.772 2.358 7.427 1.168 8.1.512 9.49.512 11.344v34.508a11.63 11.63 0 0 0 5.092 9.153l21.958 13.2a5 5 0 0 0 2.544.794m-2.544-46.52a9.91 9.91 0 0 1 4.264 7.688v34.508c0 1.192-.357 2.073-.978 2.428a2.44 2.44 0 0 1-2.405-.366L6.486 53.54a9.91 9.91 0 0 1-4.264-7.688V11.343c0-1.191.357-2.073.979-2.429a2.44 2.44 0 0 1 2.404.366l21.957 13.196z"/><path fill="#27292b" d="M16.15 27.56c4.484 3.337 8.144 11.01 8.144 17.074s-3.66 8.292-8.144 4.952C11.69 46.27 8.007 38.6 8.007 32.512c-.001-6.065 3.659-8.29 8.143-4.953m2.416 3.654q.56 1.407.928 2.876c.322.01.643-.026.954-.11a20.3 20.3 0 0 0-1.882-2.766m2.62 4.177c-.438.14-.9.196-1.36.165.365 1.833.569 3.693.61 5.56l2.887 2.148a21 21 0 0 0-2.137-7.874m2.137 9.166-2.886-2.148a19 19 0 0 1-.61 4.651q.737 1.06 1.36 2.192c1.225-.714 2.016-2.33 2.137-4.695m-2.875 5.004a21 21 0 0 0-.955-1.528 7 7 0 0 1-.217.477c-.18.376-.42.72-.71 1.019a3.67 3.67 0 0 0 1.882.032m-3.82-1.02c.654.186 1.289-.243 1.795-1.244q.104-.209.2-.44a14.6 14.6 0 0 0-1.995-2.059zm0-5.033c.852.713 1.63 1.51 2.321 2.38a17.8 17.8 0 0 0 .536-4.19l-2.856-2.125zm0-5.224 2.855 2.125a30 30 0 0 0-.535-4.986 7.5 7.5 0 0 1-2.322-1.074zm0-5.224a6.6 6.6 0 0 0 1.995.912 13.1 13.1 0 0 0-1.995-4.651zm-7.65-.467 2.886 2.147c.01-1.57.215-3.132.61-4.65a24 24 0 0 1-1.36-2.192c-1.222.71-2.018 2.326-2.135 4.692zm2.875-5.005q.454.8.955 1.529a4.5 4.5 0 0 1 .928-1.493 3.66 3.66 0 0 0-1.884-.04zm3.82 1.021c-.935-.267-1.608.738-1.994 1.682.596.75 1.264 1.439 1.994 2.058zm0 5.033a16.5 16.5 0 0 1-2.321-2.38 17.8 17.8 0 0 0-.536 4.19l2.856 2.124zm0 5.224-2.855-2.125a30 30 0 0 0 .535 4.99 7.5 7.5 0 0 1 2.322 1.074v-3.94zm0 8.971v-3.74a6.6 6.6 0 0 0-1.994-.912q.095.375.2.738c.344 1.405.953 2.73 1.793 3.907zm-1.938-1.898q-.409-1.018-.71-2.073a27 27 0 0 1-.218-.8 3.3 3.3 0 0 0-.955.11c.551.968 1.18 1.89 1.882 2.757zm-2.62-4.177c.438-.14.9-.196 1.36-.166a32.3 32.3 0 0 1-.61-5.564l-2.887-2.147a21 21 0 0 0 2.136 7.87z"/></svg>