<svg xmlns="http://www.w3.org/2000/svg" width="187" height="168" fill="none" viewBox="0 0 187 168"><g clip-path="url(#a)"><path fill="#eef5ff" d="M23.117 125.611v-5.861c0-1.592 1.05-3.188 3.168-4.408l65.881-38.19a16.89 16.89 0 0 1 15.292.004l62.046 35.825c2.108 1.215 3.17 2.811 3.17 4.424v5.66l-.034.01c.1 1.671-.929 3.347-3.13 4.62l-65.885 38.2a16.92 16.92 0 0 1-15.286-.011l-62.047-35.825c-2.119-1.219-3.174-2.848-3.166-4.44z"/><path fill="#2b1f51" d="M26.285 115.344c-4.213 2.44-4.213 6.392.006 8.836l62.047 35.819a16.89 16.89 0 0 0 15.292 0l65.879-38.186c2.109-1.22 3.166-2.811 3.163-4.407v5.66l-.034.01c.1 1.671-.929 3.347-3.13 4.62l-65.885 38.2a16.92 16.92 0 0 1-15.286-.011L26.29 130.06c-2.119-1.219-3.174-2.848-3.166-4.439h-.007v-5.861c0-1.6 1.05-3.197 3.168-4.416"/><path fill="#2b1f51" d="m92.35 48.982 9.651 5.324v67.213l-13.97-7.708v-52.34l-11.218-3.323-2.942-13.636z"/><path fill="#d3e5fb" fill-rule="evenodd" d="M93.05 34.117a1.773 1.773 0 0 1-1.76-1.778V1.769a1.757 1.757 0 1 1 3.513 0v30.57a1.77 1.77 0 0 1-1.754 1.778" clip-rule="evenodd"/><path fill="#2b1f51" fill-rule="evenodd" d="M47.813 49.288a1.74 1.74 0 0 1-1.243-.517L25.317 27.35a1.78 1.78 0 0 1 0-2.5 1.75 1.75 0 0 1 2.486 0L49.05 46.26a1.782 1.782 0 0 1-.567 2.895c-.213.09-.44.135-.671.134" clip-rule="evenodd"/><path fill="#d3e5fb" fill-rule="evenodd" d="M31.482 94.76H1.754a1.773 1.773 0 0 1 0-3.545h29.728a1.773 1.773 0 0 1 0 3.545" clip-rule="evenodd"/><path fill="#2b1f51" fill-rule="evenodd" d="M138.304 49.288a1.7 1.7 0 0 1-1.238-.528 1.774 1.774 0 0 1 0-2.5l21.252-21.41a1.74 1.74 0 0 1 1.914-.383 1.773 1.773 0 0 1 .57 2.883l-21.255 21.423a1.75 1.75 0 0 1-1.243.515" clip-rule="evenodd"/><path fill="#d3e5fb" fill-rule="evenodd" d="M184.368 94.76h-29.727a1.77 1.77 0 0 1-1.731-1.773 1.77 1.77 0 0 1 1.731-1.772h29.727a1.77 1.77 0 0 1 1.731 1.772 1.77 1.77 0 0 1-1.731 1.773" clip-rule="evenodd"/></g><defs><clipPath id="a"><path fill="#fff" d="M0 0h186.125v167.713H0z"/></clipPath></defs></svg>