<svg xmlns="http://www.w3.org/2000/svg" width="93" height="92" fill="none" viewBox="0 0 93 92"><path fill="#3bc5f0" d="M1.883 45.51C1.863 20.989 21.852 1.123 46.54 1.126s44.737 19.882 44.748 44.347C91.298 69.938 71.3 89.8 46.573 89.82a44.9 44.9 0 0 1-17.114-3.34 44.6 44.6 0 0 1-14.51-9.6 44.2 44.2 0 0 1-9.687-14.391 43.9 43.9 0 0 1-3.38-16.978"/><path fill="#fefefe" d="M29.44 30.574c4.3.526 8.606 1.05 12.934 1.204 8.17.292 16.343.405 24.519.493 3.964.041 7.934.182 11.782 1.336a5.7 5.7 0 0 1 2.03 1.13c.99.826 1.11 1.798.518 2.944-1.24 2.438-3.264 4.2-5.26 5.952-4.567 4.005-9.209 7.922-13.82 11.875-.278.234-.522.55-.997.3 2.205-3.305 5.192-5.928 7.835-8.842 1.171-1.292 2.412-2.528 3.248-4.085 1.03-1.928.619-3.228-1.336-4.132-2.298-1.08-4.786-1.31-7.267-1.506-5.858-.463-11.732-.143-17.593-.328-6.049-.187-12.068-.733-17.914-2.427-.703-.203-1.452-.305-2.054-.776-.18-.356.016-.631.244-.84.94-.897 1.992-1.67 3.131-2.298M30.928 60.816c2.84 0 4.836 1.929 4.853 4.683.017 2.755-2.132 4.98-4.822 4.958a4.88 4.88 0 0 1-3.404-1.42 4.8 4.8 0 0 1-1.418-3.381c-.009-2.881 1.915-4.829 4.791-4.84M48.512 65.555c0-2.774 2.01-4.763 4.791-4.754 2.782.008 4.997 2.203 4.945 4.853-.053 2.617-2.38 4.837-5.04 4.812-2.6-.03-4.702-2.228-4.696-4.91"/><path fill="#fdfefe" d="M29.44 30.577c-.8 1.377-2.626 1.683-3.373 3.123-5.633-1.71-9.611-5.338-12.348-10.428.466-.29.716.05.974.275 4.02 3.67 8.826 5.716 14.117 6.773q.326.1.63.257"/></svg>