<svg xmlns="http://www.w3.org/2000/svg" width="93" height="125" fill="none" viewBox="0 0 93 125"><g fill-rule="evenodd" clip-path="url(#a)" clip-rule="evenodd"><path fill="#1b69ff" d="M42.12 26.292C22.859 37.684 7.47 62.573 5.562 85.472c-.277 3.263-.846 10.053 1.83 12.641a65 65 0 0 0 6.293 3.821 10.3 10.3 0 0 1-.846-3.533c-1.56-18.934 9.047-40.605 20.239-53.689 9.467-11.07 24.1-21.638 37.315-19.426l-2.737-1.576c-6.934-3.916-15.538-3.047-25.537 2.582zM16.563 104.96a.7.7 0 0 1-.332-.083c-.327-.193-.863-.5-1.521-.868a78 78 0 0 1-8.217-4.955c-3.141-3.025-2.55-9.959-2.24-13.692 1.963-23.292 17.59-48.608 37.2-60.193v-.01c10.435-5.867 19.482-6.736 26.836-2.577l8.66 5a.633.633 0 0 1 .238.884.65.65 0 0 1-.88.25c-13.962-7.7-31.481 4.262-42.248 16.842-11.027 12.874-21.462 34.174-19.924 52.738.222 2.687 1.068 4.374 2.77 5.463a.652.652 0 0 1-.348 1.2z"/><path fill="#f1f4fb" d="M50.43 30.72c10.237-5.9 19.5-6.452 26.2-2.576 6.714 3.876 10.86 12.182 10.86 24 0 1.156-.054 2.4-.132 3.594a23.1 23.1 0 0 1-3.451 10.109 21.44 21.44 0 0 1-7.26 7.482l-11.613 6.7a45.6 45.6 0 0 1-5.707 8.787 33.8 33.8 0 0 1-8.915 7.775 16.4 16.4 0 0 1-8.913 2.516 9.2 9.2 0 0 1-5.691-2.218l-11.612 6.7c-2.8 1.609-5.358 1.852-7.283.918s-3.191-3.058-3.428-6.15a54 54 0 0 1-.133-3.45c.022-11.817 4.169-24.912 10.882-36.525 6.699-11.63 15.978-21.76 26.197-27.661"/><path fill="#1b69ff" d="M66.96 26.305c-4.95 0-10.457 1.675-16.2 4.982-9.8 5.652-19.023 15.39-25.98 27.417-6.933 12.022-10.765 24.88-10.765 36.2 0 1.078.039 2.251.127 3.4.205 2.753 1.283 4.75 3.047 5.613 1.8.868 4.164.553 6.675-.9l11.613-6.7a.66.66 0 0 1 .758.073c1.48 1.271 3.35 1.999 5.3 2.061a15.95 15.95 0 0 0 8.549-2.433 33.2 33.2 0 0 0 8.754-7.626 45.3 45.3 0 0 0 5.612-8.658.65.65 0 0 1 .255-.278l11.612-6.7a20.95 20.95 0 0 0 7.045-7.255 22.1 22.1 0 0 0 3.34-9.81c.094-1.217.127-2.444.127-3.556 0-11.187-3.721-19.509-10.512-23.44a18.5 18.5 0 0 0-9.357-2.4zm-47.567 79.392a6.2 6.2 0 0 1-2.77-.614c-2.2-1.073-3.54-3.451-3.782-6.686a47 47 0 0 1-.128-3.495c0-11.54 3.893-24.63 10.955-36.85s16.457-22.126 26.455-27.893c10.092-5.828 19.63-6.746 26.836-2.576s11.176 12.9 11.176 24.563c0 1.145-.04 2.4-.133 3.64a23.9 23.9 0 0 1-3.517 10.4 22.3 22.3 0 0 1-7.526 7.708l-11.425 6.6a45.8 45.8 0 0 1-5.707 8.742 34.7 34.7 0 0 1-9.086 7.92 17.4 17.4 0 0 1-9.28 2.6 10 10 0 0 1-5.722-2.085l-11.226 6.475a10.37 10.37 0 0 1-5.121 1.551"/><path fill="#fff" d="M72.009 36.164c-5.524-3.19-13.155-2.737-21.578 2.124s-16.052 13.2-21.571 22.766-8.936 20.34-8.936 30.072c0 1.006.016 1.908.094 2.87a2.72 2.72 0 0 0 1.316 2.394 3.07 3.07 0 0 0 2.865-.376l13.266-7.653v.017c1.062-.613 2.107-.613 2.732.133a6 6 0 0 0 4.423 2.173 10.7 10.7 0 0 0 5.8-1.665 21.9 21.9 0 0 0 5.8-5.02 30 30 0 0 0 4.3-6.969 7.14 7.14 0 0 1 2.859-3.61l13.283-7.654a8.4 8.4 0 0 0 2.842-2.92 8.9 8.9 0 0 0 1.338-3.932c.077-1.045.094-1.98.094-2.986.004-9.733-3.408-16.574-8.927-19.764"/><path fill="#1b69ff" d="M64.047 34.77c-4.054 0-8.588 1.37-13.283 4.08-8.051 4.646-15.633 12.648-21.334 22.53s-8.865 20.443-8.865 29.745c0 .99.039 1.875.094 2.82a2.1 2.1 0 0 0 .973 1.858 2.44 2.44 0 0 0 2.234-.354l13.266-7.653q.062-.03.128-.05a2.65 2.65 0 0 1 3.45.349 5.32 5.32 0 0 0 3.943 1.94 10.04 10.04 0 0 0 5.43-1.581 21.4 21.4 0 0 0 5.635-4.872 29.4 29.4 0 0 0 4.2-6.812 7.76 7.76 0 0 1 3.14-3.915L76.32 65.2a7.9 7.9 0 0 0 2.626-2.693 8.26 8.26 0 0 0 1.228-3.638c.072-1.03.11-1.953.11-2.942 0-9.175-3.046-15.987-8.6-19.2a15 15 0 0 0-7.63-1.957zM22.29 97.246a2.8 2.8 0 0 1-1.228-.271 3.29 3.29 0 0 1-1.686-2.931c-.077-.98-.111-1.9-.111-2.92 0-9.528 3.208-20.322 9.025-30.4 5.834-10.076 13.576-18.25 21.832-23 8.344-4.817 16.236-5.574 22.213-2.118 5.967 3.45 9.246 10.667 9.246 20.323 0 1.023-.033 1.974-.111 3.03a9.7 9.7 0 0 1-1.41 4.225 9.3 9.3 0 0 1-3.08 3.14l-13.283 7.66a6.53 6.53 0 0 0-2.588 3.273 30.1 30.1 0 0 1-4.4 7.156 22.6 22.6 0 0 1-5.967 5.17 11.45 11.45 0 0 1-6.16 1.753 6.65 6.65 0 0 1-4.877-2.406c-.553-.668-1.526-.215-1.908.012-.04.016-.077.038-.111.049l-13.155 7.587a4.54 4.54 0 0 1-2.241.668"/><path fill="#1b69ff" d="M49.164 81.59a2.73 2.73 0 0 1-1.89-.73c-.935-.9-1.26-2.477-.88-4.334.641-3.164 3.08-6.155 5.541-6.813a2.74 2.74 0 0 1 2.676.658 4.61 4.61 0 0 1 1.068 4.275c-.664 3.163-3.1 6.155-5.558 6.813-.312.085-.634.13-.957.13M74.131 60.662a.652.652 0 0 1-.326-1.216l3.54-2.04a.647.647 0 0 1 .641 1.122l-3.539 2.046a.63.63 0 0 1-.316.088M67.196 45.303a.6.6 0 0 1-.326-.088.64.64 0 0 1-.244-.885l2.516-4.341a.647.647 0 1 1 1.118.653l-2.511 4.336a.62.62 0 0 1-.553.325M50.43 46.95a.635.635 0 0 1-.64-.646v-4.092a.652.652 0 1 1 1.304 0v4.092a.65.65 0 0 1-.664.647M33.664 64.644a.74.74 0 0 1-.332-.089l-2.494-1.45a.644.644 0 0 1-.238-.884.635.635 0 0 1 .879-.237l2.51 1.448a.64.64 0 0 1 .002 1.122.7.7 0 0 1-.327.09M23.17 90.045a.61.61 0 0 1-.547-.32.65.65 0 0 1 .237-.89l3.539-2.048a.643.643 0 0 1 .88.244.637.637 0 0 1-.238.884l-3.54 2.046a.73.73 0 0 1-.331.084"/><path fill="#1b69ff" d="M54.489 71.848a.63.63 0 0 1-.4-.143.653.653 0 0 1-.111-.918l19.005-23.524a.651.651 0 1 1 1.012.818L54.989 71.605a.63.63 0 0 1-.5.243"/></g><defs><clipPath id="a"><path fill="#fff" d="M0 0h93v125H0z"/></clipPath></defs></svg>