<svg xmlns="http://www.w3.org/2000/svg" width="89" height="88" fill="none" viewBox="0 0 89 88"><g stroke="#23356b" stroke-linecap="round" stroke-linejoin="round" stroke-width="2" clip-path="url(#a)"><path fill="#23356b" fill-rule="evenodd" d="M74.02 87.116c1.41-.176 2.728-.697 3.784-1.497 1.057-.8 1.805-1.843 2.151-2.997a5.08 5.08 0 0 0-.207-3.489c-.48-1.12-1.349-2.096-2.495-2.805s-2.518-1.12-3.943-1.178a8.4 8.4 0 0 0-4.064.847c-1.225.61-2.204 1.51-2.815 2.586-.612 1.075-.827 2.277-.62 3.455a5.4 5.4 0 0 0 .947 2.215 6.6 6.6 0 0 0 1.893 1.744c.763.472 1.63.813 2.55 1.005a8.6 8.6 0 0 0 2.818.114" clip-rule="evenodd"/><path d="M22.586 48.606c2.527.752 4.827 1.955 6.74 3.526 4.837 3.756 8.684 9.773 9.226 15.283.274 1.967-.06 3.96-.974 5.787a6.5 6.5 0 0 1-1.586 1.9M71.844 24.6c2.279.838 4.365 2 6.165 3.436 5.196 4.055 9.345 10.532 9.934 16.472.287 2.117-.066 4.26-1.025 6.233a7.1 7.1 0 0 1-1.728 2.053m.004-.001-.417.313-3.528 1.705-2.127 1.03-1.802.855m0-.001q.324-.227.618-.48c.133-.133.291-.264.417-.396q.046-.043.097-.082c.12-.147.253-.313.39-.48.117-.166.241-.324.357-.514q.15-.199.234-.425m.027 0a.07.07 0 0 0 .018-.05q.12-.184.201-.382c.097-.195.174-.383.257-.577a.6.6 0 0 0 .042-.154q.148-.365.235-.743.134-.458.194-.927a7 7 0 0 0 .097-.855c.034-.348.058-.716.058-1.091v-.155c0-.324-.024-.674-.058-1.008 0-.097-.026-.18-.026-.278m.008-.015c-.032-.397-.09-.78-.159-1.161a1 1 0 0 0-.032-.23 19 19 0 0 0-.3-1.26 6 6 0 0 0-.16-.59m.002-.022c-.042-.145-.075-.278-.117-.41q-.098-.269-.183-.55c-.017-.028-.017-.062-.034-.097a1 1 0 0 1-.066-.166 21 21 0 0 0-.493-1.225c-.2-.446-.39-.87-.617-1.308-.133-.257-.275-.542-.434-.807a23 23 0 0 0-1.353-2.232c-.194-.279-.375-.544-.591-.807-.243-.334-.475-.662-.734-.982a25 25 0 0 0-2.754-2.969c-.224-.216-.441-.431-.675-.634q-.75-.666-1.526-1.238a11 11 0 0 0-.78-.578 23 23 0 0 0-1.702-1.078 21 21 0 0 0-1.192-.65m-.251-.129q-1.196-.562-2.478-.974a1 1 0 0 1-.157-.047 1 1 0 0 0-.26-.063.8.8 0 0 0-.183-.07c-.033 0-.058-.02-.075-.02a3 3 0 0 0-.276-.064 8 8 0 0 0-.717-.146 8 8 0 0 0-1.009-.146.25.25 0 0 0-.117-.021 8 8 0 0 0-.891-.049 8.6 8.6 0 0 0-1.828.132q-.28.042-.551.111c-.167.035-.325.07-.441.105m-5.062 5.935c.574-3.04 2.394-5.092 4.996-5.906l.025-.014c.017 0 .017 0 .034-.014m.007-.002 3.67-1.773h.016"/><path d="M68.852 57.379a.1.1 0 0 1 .059.013c3.37 1.043 6.323.73 8.409-.696q.322-.227.616-.48c.133-.132.292-.264.417-.396a1 1 0 0 1 .098-.081c.119-.147.251-.314.39-.48.116-.166.24-.325.357-.515q.147-.205.258-.424a.07.07 0 0 0 .017-.05q.12-.184.201-.382a5.5 5.5 0 0 0 .3-.73q.147-.366.234-.745.134-.457.195-.926.075-.425.097-.855c.033-.348.057-.716.057-1.091v-.155c0-.43-.04-.855-.083-1.286m.016-.015a10 10 0 0 0-.194-1.392 19 19 0 0 0-.3-1.259 6 6 0 0 0-.158-.59c-.098-.37-.217-.718-.335-1.079a1 1 0 0 1-.066-.166 21 21 0 0 0-.493-1.225c-.2-.446-.39-.87-.617-1.308-.133-.258-.275-.542-.434-.807a23 23 0 0 0-1.352-2.233c-.195-.278-.376-.543-.592-.806a12 12 0 0 0-.734-.982 25 25 0 0 0-2.754-2.969c-.224-.216-.441-.431-.675-.634-.5-.445-1.008-.854-1.526-1.238a11 11 0 0 0-.779-.578c-.56-.382-1.11-.743-1.703-1.078a21 21 0 0 0-1.192-.65m-.258-.131a23 23 0 0 0-1.468-.626 5 5 0 0 0-.433-.146 2 2 0 0 0-.284-.105c-.308-.111-.609-.196-.893-.278-.033 0-.057-.02-.075-.02a3 3 0 0 0-.433-.098 5 5 0 0 0-.559-.11 8 8 0 0 0-1.01-.148 2 2 0 0 0-.416-.055 3.4 3.4 0 0 0-.592-.014 8.6 8.6 0 0 0-1.827.132q-.279.042-.552.111a3 3 0 0 0-.475.119l-.025.014c-2.602.811-4.422 2.866-4.997 5.905M22.664 49.998a24.2 24.2 0 0 1 4.245 2.65c5.197 4.063 9.325 10.532 9.918 16.486.285 2.05-.036 4.128-.934 6.052-.042.069-.059.118-.098.182-.424.755-1 1.444-1.703 2.037"/><path d="m34.092 77.404-.442.306-7.431 3.59M9.663 52a3 3 0 0 0-.358-.013 7.5 7.5 0 0 0-1.11.014q-.21.001-.418.035a5 5 0 0 0-.75.11 2 2 0 0 0-.316.05m-.005 0-.3.082-.234.07 5.79-2.783"/><path d="M15.216 81.002C7.358 77.217.976 68.012.976 60.438c0-7.575 6.382-10.644 14.24-6.86 7.857 3.785 14.23 13.002 14.23 20.57 0 7.57-6.366 10.636-14.23 6.852" clip-rule="evenodd"/><path d="M57.227 9.164c5.256.98 8.842 4.91 9.418 11.122.059.568.076 5.738.076 6.358a20 20 0 0 1-.134 2.399"/><path d="M63.87 4.92c-3.847-1.683-6.917-1.785-11.145-1.136-11.537 2.4-20.229 10.234-26.368 18.332-4.805 6.705-7.816 13.14-8.792 20.938-.06 3.033-.276 6.227-.06 9.273a15.5 15.5 0 0 0-5.548-1.586c-.068-3.019-.068-5.94-.043-8.98.559-7.277 2.995-13.224 7.025-19.652 5.688-8.458 13.404-16.062 24.29-19.97"/><path d="M64.475 55.995c-7.123-3.431-12.897-11.763-12.897-18.63s5.774-9.641 12.897-6.212S77.38 42.93 77.38 49.79s-5.79 9.635-12.905 6.206" clip-rule="evenodd"/><path fill="#f2f5fc" fill-rule="evenodd" d="M64.472 52.737c-5.257-2.532-9.527-8.674-9.527-13.738s4.273-7.117 9.527-4.584 9.518 8.68 9.518 13.746c0 5.064-4.275 7.102-9.518 4.576" clip-rule="evenodd"/><path d="M66.593 29.1a21 21 0 0 0 .134-2.456c0-.62-.017-5.788-.076-6.358-.968-10.435-10.452-14.42-22.014-8.855C32.9 17.086 23.308 30.526 22.59 42.004c-.026.446-.043 5.461-.043 5.907 0 .724.043 1.418.118 2.087m-.002-.002-.375.222-4.78 2.111"/><path d="M17.511 52.327a22 22 0 0 1-.073-1.956c0-.71.016-6.007.073-6.733 1.136-14.017 12.85-30.26 27.128-37.134"/><path fill="#f2f5fc" fill-rule="evenodd" d="M14.515 77.21c-5.505-2.65-9.968-9.084-9.968-14.392 0-5.309 4.463-7.451 9.968-4.801s9.96 9.1 9.96 14.4-4.463 7.444-9.96 4.793" clip-rule="evenodd"/><path d="M79.123 55.84c2.486 6.58 3.294 13.954-1.443 20.751"/><path d="M81.242 54.81c2.694 7.409 3.228 15.728-2.101 23.2M66.595 29.093l-.26-.132M60.48 14.416c-.569-1.941-1.684-3.742-3.253-5.252m9.103 19.803a15.5 15.5 0 0 0-5.572-1.586m.001-.001h-.017m.001 0c.792-2.963.576-9.877-.259-12.966M43.234 2.137c5.288-1.642 9.936-2.15 15.09.104m.004-.001 5.549 2.68m-2.167-.807c6.167 1.833 10.136 7.26 10.136 15.491m-.001 0-.025 5.537m.006.002c0 .528-.034.946-.092 1.481m-.001-.001-5.14 2.477"/></g><defs><clipPath id="a"><path fill="#fff" d="M0 0h89v88H0z"/></clipPath></defs></svg>