<svg xmlns="http://www.w3.org/2000/svg" width="82" height="82" fill="none" viewBox="0 0 82 82"><g clip-path="url(#a)"><path fill="#f07281" d="M43.403 81.042 73.65 52.37a3.5 3.5 0 0 0 1.068-2.14L80.004 3.89A3.493 3.493 0 0 0 76.534 0H5.466a3.493 3.493 0 0 0-3.47 3.889L7.282 50.23a3.5 3.5 0 0 0 1.067 2.139l30.248 28.672a3.493 3.493 0 0 0 4.806 0"/><path fill="#eb5569" d="M76.534 0h-3.21a3.493 3.493 0 0 1 3.47 3.889L71.507 50.23a3.5 3.5 0 0 1-1.067 2.139L40.192 81.042a3.5 3.5 0 0 1-.797.566 3.49 3.49 0 0 0 4.008-.566L73.65 52.37a3.5 3.5 0 0 0 1.068-2.14L80.004 3.89A3.493 3.493 0 0 0 76.534 0"/><path fill="#f5f8f9" d="M13.984 48.07 9.501 8.77a1.34 1.34 0 0 1 1.332-1.493h60.329c.8 0 1.422.697 1.331 1.493l-4.483 39.3a1.34 1.34 0 0 1-.41.821L41.92 73.235a1.34 1.34 0 0 1-1.845 0L14.394 48.891a1.34 1.34 0 0 1-.41-.82"/><path fill="#e8edf2" d="M71.164 7.277h-4.085c.8 0 1.422.697 1.332 1.493l-4.483 39.3a1.34 1.34 0 0 1-.41.821L38.957 72.173l1.12 1.062a1.34 1.34 0 0 0 1.845 0l25.68-24.344a1.34 1.34 0 0 0 .41-.82L72.497 8.77a1.34 1.34 0 0 0-1.332-1.493"/><path fill="#7a8c98" d="M35.529 29.852c-.39 0-.774-.184-1.015-.528l-2.868-4.094a1.24 1.24 0 0 1 0-1.42l2.868-4.095a1.237 1.237 0 1 1 2.027 1.42l-2.37 3.385 2.37 3.384a1.238 1.238 0 0 1-1.012 1.948M46.475 29.852a1.237 1.237 0 0 1-1.012-1.948l2.37-3.384-2.37-3.385a1.237 1.237 0 1 1 2.026-1.42l2.869 4.094c.299.427.299.994 0 1.42l-2.869 4.095c-.24.344-.624.528-1.014.528M39.124 29.655a1.237 1.237 0 0 1-1.113-1.777l3.772-7.796a1.237 1.237 0 1 1 2.227 1.078l-3.772 7.796a1.24 1.24 0 0 1-1.114.7M49.116 14.967H32.882a1.237 1.237 0 1 1 0-2.475h16.234a1.237 1.237 0 1 1 0 2.475"/><path fill="#f07281" d="M41 68.915a1.237 1.237 0 0 1-1.238-1.238v-1.444a1.237 1.237 0 1 1 2.474 0v1.444c0 .684-.553 1.238-1.237 1.238"/><path fill="#f6b2bb" d="M41 61.789c22.644 0 41-6.263 41-13.988 0-7.726-18.356-13.989-41-13.989S0 40.076 0 47.802c0 7.725 18.356 13.988 41 13.988"/><path fill="#f8a6af" d="M41.003 33.813q-1.38 0-2.737.031c21.367.48 38.263 6.545 38.263 13.957 0 7.411-16.896 13.476-38.263 13.956a122 122 0 0 0 2.737.032c22.643 0 41-6.263 41-13.988 0-7.726-18.357-13.989-41-13.989"/><path fill="#7a8c98" d="M36.788 54.801a1.237 1.237 0 0 1-1.237-1.237V42.042a1.237 1.237 0 1 1 2.474 0v11.522c0 .683-.553 1.237-1.237 1.237M44.76 54.801a1.237 1.237 0 0 1-1.237-1.237V42.042a1.237 1.237 0 1 1 2.475 0v11.522c0 .683-.554 1.237-1.237 1.237"/><path fill="#7a8c98" d="M44.761 48.842h-7.973a1.237 1.237 0 0 1 0-2.475h7.973a1.237 1.237 0 1 1 0 2.475M25.925 54.801a1.237 1.237 0 0 1-1.238-1.237V42.042a1.237 1.237 0 1 1 2.475 0v11.522c0 .683-.554 1.237-1.237 1.237"/><path fill="#7a8c98" d="M25.948 49.797a1.24 1.24 0 0 1-1.238-1.23s-.015-2.366-.015-3.273c0-.743-.008-3.248-.008-3.248a1.237 1.237 0 0 1 1.238-1.241h3.208c2.51 0 4.553 2.013 4.553 4.489s-2.043 4.488-4.553 4.488c-.888 0-3.177.015-3.178.015zm1.218-6.517.005 2.014c0 .463.003 1.308.007 2.021.692-.003 1.504-.007 1.955-.007 1.127 0 2.078-.922 2.078-2.014s-.951-2.014-2.078-2.014zM49.55 54.801a1.237 1.237 0 0 1-1.237-1.237V42.042a1.237 1.237 0 1 1 2.474 0v11.522c0 .683-.554 1.237-1.237 1.237"/><path fill="#7a8c98" d="M49.572 49.797a1.24 1.24 0 0 1-1.237-1.23s-.015-2.366-.015-3.273c0-.743-.008-3.248-.008-3.248a1.237 1.237 0 0 1 1.238-1.241h3.208c2.51 0 4.553 2.013 4.553 4.489s-2.042 4.488-4.553 4.488c-.888 0-3.178.015-3.178.015zm1.22-6.517.003 2.014c0 .463.004 1.308.008 2.021.692-.003 1.504-.007 1.955-.007 1.126 0 2.078-.922 2.078-2.014s-.952-2.014-2.078-2.014z"/><path fill="#f07281" d="M13.564 49.041H11.23a1.237 1.237 0 1 1 0-2.475h2.334a1.237 1.237 0 0 1 0 2.475M70.771 49.041h-2.334a1.237 1.237 0 1 1 0-2.475h2.334a1.237 1.237 0 1 1 0 2.475"/></g><defs><clipPath id="a"><path fill="#fff" d="M0 0h82v82H0z"/></clipPath></defs></svg>