<svg xmlns="http://www.w3.org/2000/svg" width="321" height="98" fill="none" viewBox="0 0 321 98"><g clip-path="url(#a)"><path fill="#000" d="M89.499 80.376h-4.561V32.33a38.4 38.4 0 0 1 11.276-1.807 20.1 20.1 0 0 1 7.29 1.264 16.1 16.1 0 0 1 5.638 3.504 14.7 14.7 0 0 1 3.591 5.383 18 18 0 0 1 1.257 6.755 17.7 17.7 0 0 1-1.509 7.623 15.4 15.4 0 0 1-3.987 5.238 15.75 15.75 0 0 1-5.638 3 21.7 21.7 0 0 1-6.465.974 22 22 0 0 1-3.484-.251 36 36 0 0 1-3.412-.723zm19.285-33.055a13.52 13.52 0 0 0-3.196-9.32 11.55 11.55 0 0 0-4.105-2.757 11.5 11.5 0 0 0-4.873-.783q-1.817 0-3.623.217a16.3 16.3 0 0 0-3.483.83v23.447q1.612.533 3.269.903c1.072.247 2.169.369 3.268.362 1.695.089 3.39-.162 4.987-.74a12.8 12.8 0 0 0 4.315-2.62q3.441-3.306 3.441-9.538m14.404 16.617v-46.35h4.596v46.315h-4.596zm42.263-4.842a15.4 15.4 0 0 1-5.315 3.793 18.4 18.4 0 0 1-7.29 1.3 16.4 16.4 0 0 1-6.931-1.373 13.4 13.4 0 0 1-4.92-3.685 15.1 15.1 0 0 1-2.945-5.311 19.7 19.7 0 0 1-1.006-6.282 21.8 21.8 0 0 1 1.186-7.586 15.1 15.1 0 0 1 3.232-5.346 13.15 13.15 0 0 1 4.747-3.141 16.3 16.3 0 0 1 5.71-1.012c4.813 0 8.476 1.482 10.918 4.48q3.663 4.443 3.556 13.004h-24.68a13.52 13.52 0 0 0 3.233 8.92 10.65 10.65 0 0 0 3.752 2.563c1.419.573 2.944.833 4.471.761a13.3 13.3 0 0 0 5.28-.975 11.7 11.7 0 0 0 4.274-3.07zm-3.7-15.028a12.6 12.6 0 0 0-.61-3.83 8.9 8.9 0 0 0-1.76-3.034 8 8 0 0 0-2.982-2.023 12.52 12.52 0 0 0-8.583 0 7.8 7.8 0 0 0-2.873 1.951 12.6 12.6 0 0 0-1.939 3 12.4 12.4 0 0 0-1.15 3.937zm34.771-5.418a11.5 11.5 0 0 0-3.734-3.215 9.86 9.86 0 0 0-4.747-1.011 7.47 7.47 0 0 0-4.92 1.264 3.98 3.98 0 0 0-1.4 3.178 3.8 3.8 0 0 0 .647 2.24 5.6 5.6 0 0 0 1.724 1.59 13 13 0 0 0 2.478 1.156c.934.325 1.903.65 2.945.975a76 76 0 0 1 3.735 1.3 13.5 13.5 0 0 1 3.412 1.807 9.2 9.2 0 0 1 2.514 2.745 8 8 0 0 1 .97 4.082 8.4 8.4 0 0 1-.97 4.046 9.1 9.1 0 0 1-2.623 2.999 11.5 11.5 0 0 1-3.914 1.842 19.2 19.2 0 0 1-11.741-.651 16.3 16.3 0 0 1-5.71-4.263l3.59-3.179a11.25 11.25 0 0 0 4.088 3.458 11.2 11.2 0 0 0 5.214 1.166 9 9 0 0 0 5.531-1.408 4.2 4.2 0 0 0 1.796-3.36 4.63 4.63 0 0 0-.647-2.565 6 6 0 0 0-1.796-1.77c-.82-.518-1.702-.93-2.623-1.229a170 170 0 0 0-3.123-.974 61 61 0 0 1-3.7-1.193 12.8 12.8 0 0 1-3.268-1.697 7.55 7.55 0 0 1-2.52-2.888 7.6 7.6 0 0 1-.784-3.76 7.94 7.94 0 0 1 .737-3.777 7.9 7.9 0 0 1 2.423-2.979 13.32 13.32 0 0 1 8.224-2.387c2.18-.03 4.342.389 6.356 1.229a15.1 15.1 0 0 1 5.351 4.19l-3.373 3.107zm12.212 25.289V17.663h4.597V63.94zm4.633-17.087 15.801-16.04h6.178L219.149 46.71l16.125 17.195h-6.393z"/><path fill="#53bce6" d="M139.205 80.376h-27.728v-4.37h27.728z"/></g><defs><clipPath id="a"><path fill="#fff" d="M0 0h321v98H0z"/></clipPath></defs></svg>