<svg xmlns="http://www.w3.org/2000/svg" width="88" height="88" fill="none" viewBox="0 0 88 88"><g clip-path="url(#a)"><path fill="#a0dbe8" d="M28.503 67.523c.703-.322 1.407-.586 2.139-.879l2.46-.85a38 38 0 0 1 3.135-.82c1.055-.234 2.87-.527 4.306-.674-.82 2.55-1.699 5.098-2.695 7.617l.088 1.465a31.7 31.7 0 0 1 12.128 0q0-.736.088-1.465a147 147 0 0 1-2.695-7.617 36 36 0 0 1 4.306.674 42 42 0 0 1 3.135.82c1.054.323 1.64.528 2.46.85s1.436.557 2.139.879a38.1 38.1 0 0 1 13.24 9.784 44 44 0 1 0-57.475 0 38.1 38.1 0 0 1 13.241-9.784"/><path fill="#525353" d="M31.404 75.491a30.6 30.6 0 0 1 6.504-2.05q0-.736-.088-1.465c.966-2.52 1.874-5.068 2.695-7.617a36 36 0 0 0-4.306.674c-1.055.234-2.08.498-3.135.82a30 30 0 0 0-2.46.85l3.192.79zm-7.557 4.715a23 23 0 0 0 .117-2.49.91.91 0 0 1 .908-.908h.791l2.812-9.316a38.1 38.1 0 0 0-13.24 9.784 44 44 0 0 0 6.62 4.746zm35.622-12.683 2.812 9.316h.79a.91.91 0 0 1 .91.908c0 .85.058 1.67.116 2.49.674.586 1.348 1.172 1.963 1.816a42.5 42.5 0 0 0 6.62-4.745 37.8 37.8 0 0 0-13.211-9.785m-5.362-.088 3.193-.79-2.46-.85a38 38 0 0 0-3.135-.82c-1.055-.235-2.871-.528-4.307-.674.82 2.548 1.7 5.097 2.695 7.616l-.087 1.465a30 30 0 0 1 6.503 2.05z"/><path fill="#000" d="M43.972 76.84h6.21a27 27 0 0 1-.146-3.398 31.7 31.7 0 0 0-12.128 0 26 26 0 0 1-.146 3.398zm-22.089 5.183 1.552.88q.273-1.338.41-2.696a58 58 0 0 0-1.962 1.816"/><path fill="#000" d="M30.994 76.84h6.796q.182-1.695.147-3.399a30 30 0 0 0-6.503 2.051zm33.131 3.367q.137 1.358.41 2.695a21 21 0 0 0 1.553-.879c-.645-.615-1.29-1.23-1.963-1.816m-7.147-3.367-.41-1.348a30.6 30.6 0 0 0-6.503-2.05c-.025 1.134.024 2.27.146 3.398z"/><path fill="#aa9678" d="m30.994 76.839.41-1.348 2.431-8.055-3.193-.792c-.732.264-1.435.557-2.138.88l-2.813 9.315zm25.574-1.348.41 1.348h5.303l-2.813-9.316c-.703-.322-1.406-.585-2.138-.879l-3.193.791z"/><path fill="#c0b098" d="m25.78 78.715.087-.059h-.088z"/><path fill="#c0b098" d="M43.971 78.656H25.867l-.088.059a26 26 0 0 1-.674 5.038 43.7 43.7 0 0 0 18.866 4.248z"/><path fill="#aa9678" d="M62.191 78.656h-.088l.088.059z"/><path fill="#aa9678" d="M62.104 78.656H43.97v9.345a43.8 43.8 0 0 0 18.865-4.248 26.4 26.4 0 0 1-.674-5.038.06.06 0 0 0-.058-.059"/><path fill="#8b7460" d="M64.125 80.207a23 23 0 0 1-.117-2.49.91.91 0 0 0-.908-.908H24.842a.91.91 0 0 0-.909.908c0 .85-.058 1.67-.117 2.49a27 27 0 0 1-.41 2.695l1.67.85a26.4 26.4 0 0 0 .674-5.04v-.058h36.413v.059c.06 1.697.285 3.385.673 5.038l1.67-.85a27 27 0 0 1-.38-2.694"/><path fill="#525353" d="M56.566 70.541c-.146-.147-.263-.322-.41-.498z"/><path fill="#bbbcbd" d="M73.265 34.217a15 15 0 0 0-1.142-1.407l-.527-.556-.205-.176-.352-.293v4.101l1.553 7.177c.029.059.029.118.058.176l1.084 1.23h1.143v-.322a31.1 31.1 0 0 0-1.553-9.696 1.3 1.3 0 0 0-.059-.234"/><path fill="#676a6a" d="M72.768 43.734q.036.262.029.528v.175q.009.251-.03.498l-.087.528 1.084-1.201-1.084-1.23z"/><path fill="#000" d="M72.738 45.113v-.059q.034-.248.03-.498v-.234a3 3 0 0 0-.03-.527v-.059l-.088-.527c-.03-.059-.03-.117-.059-.176a3.7 3.7 0 0 0-.41-.908l-.058-.088-.147-.176a.8.8 0 0 0-.234-.205l-.088-.058-.205-.117h-.088l-.322-.06-.322.06h-.088l-.205.117-.088.058-.234.205-.147.176c-.03.03-.059.059-.059.088a2.9 2.9 0 0 0-.41.908 2.5 2.5 0 0 0-.117.498c0 .059-.03.088-.03.147s-.028.38-.058.585v.088c0 1.67.791 3.047 1.758 3.047.171-.011.34-.05.498-.117h.088l.176-.117.087-.088.235-.235.146-.205.088-.146.147-.293.058-.117c.059-.147.088-.293.147-.44.058-.146.029-.351.029-.527M71.098 44c-.381 0-.674-.498-.674-1.143 0-.644.293-1.142.673-1.142s.674.498.674 1.142c0 .645-.322 1.143-.674 1.143"/><path fill="#fff" d="M71.098 44c.372 0 .673-.512.673-1.143 0-.63-.301-1.142-.673-1.142s-.674.511-.674 1.142.301 1.143.674 1.143"/><path fill="#909393" d="M69.457 43.033c.095-.32.233-.626.41-.909l.059-.087.146-.176a.8.8 0 0 1 .235-.205l.087-.059.206-.117h.087l.323-.059.322.059h.088l.205.117.088.059.234.205.147.176c.029.029.058.058.058.087.189.277.328.584.41.909l-1.552-7.178z"/><path fill="#000" d="M50.269 44.353a2.2 2.2 0 0 0-.03-.44c-.029-.146-.029-.263-.058-.41a1.5 1.5 0 0 0-.117-.38 2 2 0 0 0-.147-.381l-.175-.352a3.8 3.8 0 0 0-.733-.937 4.7 4.7 0 0 0-1.289-.85l-.732-.234h-.03a3.6 3.6 0 0 0-1.581 0h-.03l-.732.205h-.03a3 3 0 0 0-.673.352 4.6 4.6 0 0 0-.586.468h-.03c-.294.289-.55.614-.76.967l-.177.352h-.029q-.078.154-.117.322v.059l-.088.322v.088c-.03.117-.03.205-.059.322a.12.12 0 0 1-.029.088c0 .146-.03.293-.03.44q.001.399.089.79.077.394.234.762c.21.473.497.909.85 1.289.288.294.613.55.966.761l.352.176h.03l.321.117h.059l.322.088h.088l.322.059h.528c.553 0 1.1-.109 1.61-.322l.704-.381c.44-.294.82-.673 1.113-1.113a8 8 0 0 0 .38-.703 4.3 4.3 0 0 0 .323-1.612v-.058zm-4.13-.498a1.553 1.553 0 1 1 0-3.105 1.553 1.553 0 0 1 0 3.105"/><path fill="#fff" d="M46.139 43.855a1.553 1.553 0 1 0 0-3.105 1.553 1.553 0 0 0 0 3.105"/><path fill="#bbbcbd" d="m43.267 41.392 2.871-8.76v-2.02a24.5 24.5 0 0 0-4.892-.499l-1.67.059h-.234c-2.871.218-5.68.953-8.29 2.168a26.8 26.8 0 0 0-6.181 3.954 32 32 0 0 0-1.465 1.348l-.264.264c-.44.439-.879.908-1.289 1.376l-.264.323-1.2 1.494-.088.117-1.055 1.523-.205.293c-.264.44-.527.879-.762 1.318h13.007z"/><path fill="#e2dddb" d="M54.253 40.427c.03-.352.059-.674.059-1.025 0-.352.03-.909.058-1.377v-1.406c0-.938-.058-1.846-.087-2.783h-.03a.03.03 0 0 1-.03-.03l-.966-.556h-.03l-.263-.147-.175-.117h-.03l-.146-.088c-.586-.322-1.201-.586-1.816-.85a32 32 0 0 0-4.6-1.435v2.05l2.842 8.73c.3.265.548.583.732.938l.176.351q.1.18.146.381l.118.381q.05.202.058.41.036.219.03.44h3.456q.36-1.905.498-3.838z"/><path fill="#fbb040" d="m50.299 56.83 2.226-2.256 1.23-1.289c2.9-3.134 5.01-6.093 6.299-9.872l.087-.351v-.059l.088-.469c0-.117.03-.234.03-.351-.322-1.64-.938-3.252-1.494-4.834h-.03l-.322-.293-.996-.878a27 27 0 0 0-3.193-2.315c.059.938.088 1.846.088 2.783v1.406c0 .47-.03.938-.059 1.377s-.029.674-.058 1.026v.117c-.117 1.289-.264 2.578-.498 3.837l-.41 1.934c-.85 3.456-2.578 6.562-3.984 9.784-.381.85-.733 1.728-1.055 2.607l-.088.264 1.143-1.172z"/><path fill="#909393" d="M43.297 41.394q.273-.258.586-.469c.208-.146.435-.264.673-.351h.03q.352-.15.732-.206h.03a3.6 3.6 0 0 1 1.581 0h.03q.381.071.732.235c.48.199.917.487 1.289.85l-2.842-8.73z"/><path fill="#676a6a" d="M42.302 45.963a6 6 0 0 1-.235-.762 3.6 3.6 0 0 1-.087-.791 2.2 2.2 0 0 1 .029-.44.12.12 0 0 1 .03-.087q.007-.165.058-.323v-.088l.088-.322v-.088c.029-.117.087-.234.117-.322h.029l.176-.351a4.8 4.8 0 0 1 .762-.967L31.258 44.38h-.03l11.894 2.9c-.384-.36-.684-.8-.879-1.29z"/><path fill="#e2dddb" d="M69.312 43.708q.01-.075.029-.147.033-.255.117-.498v-.058l1.553-7.177v-4.102c-1.29-1.054-2.637-1.64-4.072-1.64s-3.486.996-4.746 2.226-2.431 3.047-3.31 4.746c-.03.088-.088.146-.117.234l.79.703 1.729 1.64.79.792.821.85c.352.38.703.732 1.025 1.112l.44.47 1.23 1.376.147.147h3.544v-.088a4 4 0 0 1 .03-.586"/><path fill="#525353" d="M16.142 48.894v-.088a45 45 0 0 1 .733-1.758q.09-.247.234-.468c.205-.47.44-.908.674-1.348l.293-.556.176-.294.79-1.318.206-.293a18 18 0 0 1 1.054-1.523l.088-.117c.38-.527.791-1.025 1.201-1.494l.264-.322c.41-.47.85-.938 1.289-1.377l.263-.264c.47-.469.938-.908 1.465-1.347 1.963-6.62 8.027-11.454 15.175-11.454a15.67 15.67 0 0 1 8.202 2.343 16.1 16.1 0 0 1 5.888 6.416q0 .011.009.02a.03.03 0 0 0 .02.009l.118.205a27 27 0 0 1 3.193 2.314l.996.879.322.293.117-.234c.996-6.357 3.808-10.957 7.119-10.957 2.49 0 4.716 2.608 6.063 6.621.381.41.762.879 1.143 1.377h.03c.029.058.029.117.058.176l-.059-.206a30.847 30.847 0 0 0-60.082 9.931 30.6 30.6 0 0 0 1.523 9.609c.205-.908.44-1.816.703-2.695.264-.88.469-1.406.732-2.08"/><path fill="#fff" d="m73.734 44.41-1.084 1.201q-.054.226-.147.44c0 .029-.029.058-.058.117l-.147.293-.088.146-.146.205a.9.9 0 0 1-.234.235l-.088.088-.176.117h-.088a.97.97 0 0 1-.498.117c-.967 0-1.758-1.348-1.758-3.047h-3.544a48 48 0 0 1 1.933 2.314h.03l1.845 2.285.088.118 1.699 2.197.176.205 1.757 2.343a30.4 30.4 0 0 0 1.611-9.55l-1.083.088z"/><path fill="#000" d="M39.343 30.144h.234l1.67-.058c1.643.001 3.282.168 4.892.498v-.03c1.564.372 3.101.851 4.599 1.436l1.816.85.147.087h.029l.176.117.263.147h.03l.966.556a.03.03 0 0 1 .03.03h.029l-.117-.206h-.03a15.88 15.88 0 0 0-14.09-8.758c-7.148 0-13.212 4.833-15.175 11.454a25.5 25.5 0 0 1 6.182-3.955 24.8 24.8 0 0 1 8.349-2.168m22.879 2.197c1.26-1.23 2.93-2.226 4.746-2.226s2.812.586 4.072 1.64l.351.293.206.176.527.557c-1.377-4.014-3.574-6.62-6.064-6.62-3.31 0-6.123 4.57-7.119 10.955a17 17 0 0 1 3.281-4.775"/><path fill="#fff" d="m32.987 72.853.85.293a30.9 30.9 0 0 0 21.706-.498l.557-.234.908-.41.79-.381h-.175c-1.09.136-2.193.126-3.28-.03-6.358-.908-7.764-3.984-7.559-7.148a16 16 0 0 1-1.406-.908 41 41 0 0 1-7.792-7.323 42.2 42.2 0 0 0 9.403 5.097l.352.147c.264-.909.586-1.788.85-2.55l.087-.263c.322-.879.674-1.757 1.055-2.607 1.406-3.222 3.134-6.357 3.984-9.784l.41-1.934H50.27a4.2 4.2 0 0 1-.322 1.611q-.164.366-.38.704c-.295.44-.673.819-1.114 1.113l-.703.38a4.3 4.3 0 0 1-1.611.323h-.528l-.322-.059h-.088l-.322-.088h-.058l-.323-.117h-.029l-.352-.176a4 4 0 0 1-.966-.761l-11.894-2.9H18.281l-.176.292c-.088.176-.205.352-.293.557l-.674 1.348-.234.468a45 45 0 0 0-.732 1.758v.088a25 25 0 0 0-.703 2.08 50 50 0 0 0-.703 2.695 30.7 30.7 0 0 0 11.22 15.35l.468.322a26 26 0 0 0 2.724 1.7 24.6 24.6 0 0 0 3.809 1.845"/><path fill="#9f2255" d="M54.281 63.248a5.4 5.4 0 0 0-.088.967 7.2 7.2 0 0 0 .117 1.61q.078.504.205.997.196.678.498 1.318.28.572.616 1.113l.205.322.322.44.41.498q.464.548 1.025.996a.12.12 0 0 0 .03.088h.175a21.3 21.3 0 0 0 4.13-1.026l2.08-.82.616-.293c7.06-3.427 12.977-9.462 12.977-9.462-8.847 4.365-17.547 4.19-23.318 3.252"/><path fill="#e2066f" d="m71.333 51.354-1.7-2.197-.087-.117-1.846-2.285h-.03l-1.933-2.314-.117-.147-1.23-1.376-.44-.47-1.025-1.112-.82-.85-.791-.79-1.728-1.641-.791-.703c.556 1.61 1.2 3.222 1.523 4.892.088.44.146.85.205 1.26.79 5.77-1.084 9.55-4.013 14.53l-.645 1.083a11.2 11.2 0 0 0-1.347 3.193c-.088.322-.147.645-.206.967 5.772.937 14.443 1.113 23.319-3.252 0 0-1.729-2.548-4.365-6.064l-1.758-2.343z"/><path fill="#000" d="M57.594 71.568a10 10 0 0 1-1.025-.996c-.147-.147-.264-.323-.41-.498l-.323-.44-.205-.322c-.205-.352-.41-.703-.615-1.113a14 14 0 0 1-.498-1.318 5.5 5.5 0 0 1-.205-.996 9.5 9.5 0 0 1-.117-1.612q0-.487.088-.966c.058-.323.117-.645.205-.967a12.5 12.5 0 0 1 1.347-3.193c.205-.38.44-.732.645-1.084 2.93-4.98 4.804-8.73 4.013-14.53-.059-.41-.117-.85-.205-1.26a4.4 4.4 0 0 1-.147.762v.059l-.087.351c-1.29 3.78-3.398 6.738-6.299 9.872-.38.44-.79.85-1.23 1.29L50.3 56.861l-.967.937-1.142 1.172c-.264.762-.586 1.64-.85 2.549l-.352-.147a40.8 40.8 0 0 1-9.403-5.097 41 41 0 0 0 7.792 7.324q.673.5 1.406.908c-.205 3.193 1.201 6.24 7.558 7.148 1.089.141 2.19.151 3.281.029 0-.059-.03-.088-.03-.117"/></g><defs><clipPath id="a"><path fill="#fff" d="M0 0h88v88H0z"/></clipPath></defs></svg>