<svg width="88" height="88" viewBox="0 0 88 88" fill="none" xmlns="http://www.w3.org/2000/svg">
<g clip-path="url(#clip0_9_96322)">
<path d="M28.5033 67.5228C29.2064 67.2006 29.9095 66.937 30.6418 66.644L33.1025 65.7945C34.1278 65.4722 35.1824 65.2086 36.237 64.9742C37.2916 64.7399 39.1079 64.4469 40.5433 64.3005C39.723 66.8491 38.8442 69.3977 37.8482 71.917L37.9361 73.3817C41.941 72.6003 46.0591 72.6003 50.0639 73.3817C50.0631 72.8921 50.0925 72.403 50.1518 71.917C49.1851 69.3977 48.277 66.8491 47.4567 64.3005C48.9046 64.4368 50.3427 64.6618 51.763 64.9742C52.8176 65.2086 53.8429 65.4722 54.8975 65.7945C55.9521 66.1167 56.538 66.3218 57.3582 66.644C58.1784 66.9663 58.7936 67.2006 59.4967 67.5228C64.57 69.7814 69.089 73.1206 72.7377 77.3071C79.5368 71.4429 84.3791 63.6389 86.6145 54.9429C88.8499 46.247 88.3715 37.0752 85.2434 28.659C82.1153 20.2429 76.4873 12.9851 69.1149 7.86013C61.7425 2.73515 52.9787 -0.0117187 44 -0.0117188C35.0213 -0.0117188 26.2575 2.73515 18.8851 7.86013C11.5128 12.9851 5.88476 20.2429 2.75665 28.659C-0.371457 37.0752 -0.849915 46.247 1.38551 54.9429C3.62093 63.6389 8.46323 71.4429 15.2623 77.3071C18.9111 73.1206 23.43 69.7814 28.5033 67.5228Z" fill="#A0DBE8"/>
<path d="M31.4042 75.4912C33.4887 74.5672 35.6701 73.8793 37.9076 73.4406C37.9084 72.951 37.879 72.4619 37.8197 71.9759C38.7864 69.4566 39.6945 66.908 40.5147 64.3594C39.0669 64.4957 37.6288 64.7207 36.2085 65.0331C35.1539 65.2675 34.1286 65.5311 33.074 65.8534C32.0194 66.1756 31.4335 66.3807 30.6133 66.7029L33.8064 67.4939L31.4042 75.4912Z" fill="#525353"/>
<path d="M23.8469 80.2059C23.9304 79.3786 23.9695 78.5474 23.9641 77.7159C23.9641 77.475 24.0597 77.2441 24.2301 77.0738C24.4004 76.9034 24.6313 76.8078 24.8722 76.8078H25.6631L28.4754 67.4922C23.402 69.7508 18.8831 73.09 15.2344 77.2765C17.2896 79.0598 19.506 80.6485 21.8549 82.0222L23.8469 80.2059Z" fill="#525353"/>
<path d="M59.4688 67.5234L62.281 76.839H63.0719C63.3128 76.839 63.5438 76.9347 63.7141 77.105C63.8844 77.2753 63.9801 77.5063 63.9801 77.7471C63.9801 78.5967 64.0387 79.4169 64.0972 80.2372C64.771 80.823 65.4448 81.4089 66.06 82.0534C68.4135 80.6869 70.6305 79.0978 72.6805 77.3077C69.0486 73.1155 64.5378 69.775 59.4688 67.5234Z" fill="#525353"/>
<path d="M54.1068 67.4353L57.2999 66.6443L54.8392 65.7948C53.8139 65.4726 52.7593 65.2089 51.7047 64.9746C50.6501 64.7402 48.8339 64.4473 47.3984 64.3008C48.2187 66.8494 49.0975 69.398 50.0935 71.9173L50.0056 73.382C52.2442 73.8166 54.426 74.5046 56.509 75.4326L54.1068 67.4353Z" fill="#525353"/>
<path d="M43.9721 76.8396H50.1825C50.0612 75.7112 50.0123 74.5762 50.036 73.4415C46.0312 72.6601 41.913 72.6601 37.9082 73.4415C37.9325 74.5762 37.8836 75.7112 37.7617 76.8396H43.9721Z" fill="black"/>
<path d="M21.8828 82.0233L23.4354 82.9021C23.6172 82.0112 23.754 81.1117 23.8455 80.207C23.1718 80.7929 22.5273 81.4081 21.8828 82.0233Z" fill="black"/>
<path d="M30.9941 76.8395H37.7904C37.9117 75.7111 37.9606 74.5761 37.9369 73.4414C35.6983 73.876 33.5165 74.564 31.4336 75.492L30.9941 76.8395Z" fill="black"/>
<path d="M64.125 80.207C64.2165 81.1117 64.3534 82.0112 64.5351 82.9021C65.0624 82.6385 65.5604 82.3455 66.0877 82.0233C65.4432 81.4081 64.7988 80.7929 64.125 80.207Z" fill="black"/>
<path d="M56.9781 76.8395L56.568 75.492C54.4835 74.568 52.3021 73.8801 50.0646 73.4414C50.0404 74.5761 50.0893 75.7112 50.2111 76.8395H56.9781Z" fill="black"/>
<path d="M30.9937 76.8389L31.4038 75.4914L33.8352 67.4355L30.6421 66.6445C29.9098 66.9082 29.2067 67.2011 28.5037 67.5234L25.6914 76.8389H30.9937Z" fill="#AA9678"/>
<path d="M56.5681 75.4914L56.9783 76.8389H62.2805L59.4683 67.5234C58.7652 67.2011 58.0622 66.9375 57.3298 66.6445L54.1367 67.4355L56.5681 75.4914Z" fill="#AA9678"/>
<path d="M25.7793 78.7148L25.8672 78.6562H25.7793V78.7148Z" fill="#C0B098"/>
<path d="M43.971 78.6562H25.8671L25.7792 78.7148C25.7193 80.4123 25.4936 82.0999 25.1055 83.7535C30.9976 86.5611 37.4441 88.0126 43.971 88.0011V78.6562Z" fill="#C0B098"/>
<path d="M62.1914 78.6562H62.1035L62.1914 78.7148V78.6562Z" fill="#AA9678"/>
<path d="M62.1039 78.6562H43.9707V88.0011C50.4973 88.0096 56.9431 86.5583 62.8362 83.7535C62.45 82.0995 62.2244 80.4121 62.1624 78.7148C62.1624 78.6993 62.1563 78.6844 62.1453 78.6734C62.1343 78.6624 62.1194 78.6562 62.1039 78.6562Z" fill="#AA9678"/>
<path d="M64.1253 80.2067C64.0418 79.3794 64.0026 78.5482 64.0081 77.7167C64.0081 77.4759 63.9124 77.2449 63.7421 77.0746C63.5718 76.9043 63.3408 76.8086 63.1 76.8086H24.8417C24.6008 76.8086 24.3698 76.9043 24.1995 77.0746C24.0292 77.2449 23.9335 77.4759 23.9335 77.7167C23.9335 78.5662 23.875 79.3865 23.8164 80.2067C23.7249 81.1114 23.588 82.0109 23.4062 82.9018L25.076 83.7513C25.4622 82.0974 25.6878 80.41 25.7498 78.7127V78.6541H62.1626V78.7127C62.2225 80.4102 62.4482 82.0977 62.8363 83.7513L64.5061 82.9018C64.3342 82.0104 64.2071 81.1109 64.1253 80.2067Z" fill="#8B7460"/>
<path d="M56.5664 70.541C56.4199 70.3945 56.3027 70.2187 56.1562 70.043L56.5664 70.541Z" fill="#525353"/>
<path d="M73.2654 34.2166C72.9137 33.725 72.5321 33.2554 72.1229 32.8105L71.5957 32.2539L71.3906 32.0781L71.0391 31.7852V35.8864L72.5917 43.0635C72.621 43.122 72.621 43.1806 72.6502 43.2392L73.7341 44.4696H74.8766V44.1473C74.8757 40.8534 74.3516 37.5805 73.324 34.4509C73.3117 34.3712 73.2921 34.2927 73.2654 34.2166Z" fill="#BBBCBD"/>
<path d="M72.7676 43.7343C72.7919 43.909 72.8017 44.0853 72.7969 44.2616V44.3495V44.4374C72.8027 44.6039 72.7929 44.7707 72.7676 44.9354L72.6797 45.4627L73.7636 44.2616L72.6797 43.0312L72.7676 43.7343Z" fill="#676A6A"/>
<path d="M72.738 45.113V45.0544C72.7615 44.8895 72.7713 44.7229 72.7673 44.5564V44.322C72.7721 44.1457 72.7623 43.9694 72.738 43.7947V43.7361L72.6501 43.2088C72.6208 43.1502 72.6208 43.0916 72.5915 43.0331C72.4965 42.7132 72.3585 42.4077 72.1814 42.1249L72.1228 42.0371L71.9763 41.8613C71.9126 41.7781 71.8329 41.7084 71.742 41.6562L71.6541 41.5976L71.449 41.4805H71.3611L71.0389 41.4219L70.7167 41.4805H70.6288L70.4237 41.5976L70.3358 41.6562L70.1015 41.8613L69.955 42.0371C69.9257 42.0664 69.8964 42.0956 69.8964 42.1249C69.7078 42.4014 69.569 42.7088 69.4863 43.0331C69.4303 43.1946 69.391 43.3615 69.3691 43.5311C69.3691 43.5897 69.3398 43.6189 69.3398 43.6775C69.3398 43.7361 69.3105 44.0584 69.2812 44.2634V44.3513C69.2812 46.0211 70.0722 47.3979 71.0389 47.3979C71.2102 47.3867 71.3785 47.3471 71.5369 47.2807H71.6248L71.8006 47.1636L71.8884 47.0757L72.1228 46.8413L72.2693 46.6363L72.3571 46.4898L72.5036 46.1968L72.5622 46.0797C72.6208 45.9332 72.6501 45.7867 72.7087 45.6403C72.7673 45.4938 72.738 45.2887 72.738 45.113ZM71.0975 43.9998C70.7167 43.9998 70.4237 43.5018 70.4237 42.8573C70.4237 42.2128 70.7167 41.7148 71.0975 41.7148C71.4783 41.7148 71.7713 42.2128 71.7713 42.8573C71.7713 43.5018 71.449 43.9998 71.0975 43.9998Z" fill="black"/>
<path d="M71.0976 43.9998C71.4697 43.9998 71.7714 43.4883 71.7714 42.8573C71.7714 42.2264 71.4697 41.7148 71.0976 41.7148C70.7255 41.7148 70.4238 42.2264 70.4238 42.8573C70.4238 43.4883 70.7255 43.9998 71.0976 43.9998Z" fill="white"/>
<path d="M69.457 43.0326C69.5521 42.7127 69.69 42.4072 69.8671 42.1244L69.9257 42.0366L70.0722 41.8608C70.136 41.7776 70.2156 41.7079 70.3066 41.6557L70.3944 41.5971L70.5995 41.48H70.6874L71.0096 41.4214L71.3319 41.48H71.4197L71.6248 41.5971L71.7127 41.6557L71.947 41.8608L72.0935 42.0366C72.1228 42.0659 72.1521 42.0951 72.1521 42.1244C72.3407 42.4009 72.4795 42.7083 72.5622 43.0326L71.0096 35.8555L69.457 43.0326Z" fill="#909393"/>
<path d="M50.2688 44.3532C50.2736 44.2061 50.2638 44.0589 50.2395 43.9137C50.2102 43.7673 50.2102 43.6501 50.1809 43.5036C50.1594 43.3719 50.12 43.2438 50.0637 43.1228C50.0279 42.9912 49.9788 42.8636 49.9173 42.742L49.7415 42.3904C49.5476 42.0418 49.3005 41.7255 49.0091 41.453C48.6294 41.1005 48.1938 40.8135 47.7202 40.6035L46.9878 40.3691H46.9585C46.4378 40.252 45.8974 40.252 45.3767 40.3691H45.3474L44.615 40.5742H44.5857C44.3469 40.6619 44.1205 40.7801 43.9119 40.9257C43.7041 41.0656 43.5082 41.2224 43.3261 41.3944H43.2968C43.0025 41.6827 42.7465 42.0076 42.5351 42.3611L42.3593 42.7127H42.3301C42.2783 42.815 42.2389 42.9232 42.2129 43.0349V43.0935L42.125 43.4157V43.5036C42.0957 43.6208 42.0957 43.7087 42.0664 43.8259C42.0678 43.8417 42.0658 43.8577 42.0608 43.8728C42.0558 43.8879 42.0477 43.9018 42.0371 43.9137C42.0371 44.0602 42.0078 44.2067 42.0078 44.3532C42.0081 44.6192 42.0375 44.8845 42.0957 45.1441C42.1468 45.4055 42.2253 45.6608 42.3301 45.9057C42.54 46.3794 42.8271 46.815 43.1796 47.1947C43.4678 47.489 43.7927 47.745 44.1463 47.9563L44.4978 48.1321H44.5271L44.8494 48.2493H44.9079L45.2302 48.3372H45.3181L45.6403 48.3958H46.1676C46.7207 48.3965 47.2685 48.287 47.7788 48.0735L48.4818 47.6927C48.9228 47.3988 49.3011 47.0204 49.595 46.5795C49.7415 46.3452 49.8587 46.1108 49.9759 45.8765C50.1864 45.3653 50.2958 44.8181 50.2981 44.2653V44.2067L50.2688 44.3532ZM46.1383 43.8551C45.8312 43.8551 45.5311 43.7641 45.2757 43.5935C45.0204 43.4229 44.8214 43.1804 44.7039 42.8967C44.5864 42.613 44.5556 42.3008 44.6155 41.9997C44.6754 41.6985 44.8233 41.4218 45.0405 41.2047C45.2576 40.9876 45.5342 40.8397 45.8354 40.7798C46.1366 40.7199 46.4488 40.7506 46.7325 40.8681C47.0162 40.9857 47.2586 41.1847 47.4292 41.44C47.5998 41.6953 47.6909 41.9955 47.6909 42.3026C47.6909 42.7143 47.5273 43.1092 47.2362 43.4004C46.945 43.6916 46.5501 43.8551 46.1383 43.8551Z" fill="black"/>
<path d="M46.1385 43.8552C46.996 43.8552 47.6911 43.1601 47.6911 42.3026C47.6911 41.4451 46.996 40.75 46.1385 40.75C45.2811 40.75 44.5859 41.4451 44.5859 42.3026C44.5859 43.1601 45.2811 43.8552 46.1385 43.8552Z" fill="white"/>
<path d="M43.2673 41.3916L46.1382 32.6326V30.6113C44.5282 30.2818 42.8893 30.1149 41.246 30.1133L39.5762 30.1719H39.3419C36.4707 30.3905 33.6623 31.1248 31.0516 32.3396C28.8193 33.3676 26.7394 34.6984 24.8705 36.2944C24.3725 36.7338 23.8745 37.1732 23.4058 37.6419L23.1421 37.9056C22.7027 38.345 22.2633 38.8137 21.8532 39.2824L21.5895 39.6046L20.3885 41.0986L20.3006 41.2158L19.246 42.7391L19.0409 43.0321C18.7773 43.4715 18.5137 43.9109 18.2793 44.3503H31.286L43.2673 41.3916Z" fill="#BBBCBD"/>
<path d="M54.2532 40.4269C54.2825 40.0753 54.3118 39.7531 54.3118 39.4016C54.3118 39.05 54.3411 38.4934 54.3704 38.0247V36.6186C54.3704 35.6812 54.3118 34.7731 54.2825 33.8357H54.2532C54.2454 33.8357 54.238 33.8326 54.2325 33.8271C54.227 33.8216 54.2239 33.8141 54.2239 33.8064L53.2572 33.2498H53.2279L52.9642 33.1033L52.7885 32.9861H52.7592L52.6127 32.8982C52.0268 32.576 51.4116 32.3123 50.7965 32.0487C49.3014 31.4561 47.764 30.9763 46.1973 30.6133V32.6639L49.0388 41.3936C49.3385 41.6584 49.5868 41.9761 49.7712 42.331L49.9469 42.6825C50.0133 42.802 50.0626 42.9302 50.0934 43.0633L50.2106 43.4442C50.2443 43.5785 50.2639 43.7159 50.2692 43.8543C50.2934 43.9994 50.3032 44.1466 50.2985 44.2937H53.7552C53.995 43.0252 54.1612 41.7439 54.2532 40.4562V40.4269Z" fill="#E2DDDB"/>
<path d="M50.2986 56.83L52.525 54.5743L53.7554 53.2854C56.6555 50.1509 58.7647 47.1922 60.0536 43.4132L60.1415 43.0617V43.0031L60.2294 42.5344C60.2294 42.4172 60.2587 42.3 60.2587 42.1829C59.9365 40.5424 59.3213 38.9312 58.7647 37.3493H58.7354L58.4132 37.0564L57.4171 36.1775C56.4111 35.3287 55.3439 34.5552 54.2241 33.8633C54.2827 34.8007 54.312 35.7088 54.312 36.6462V38.0524C54.312 38.5211 54.2827 38.9898 54.2534 39.4292C54.2241 39.8686 54.2241 40.103 54.1948 40.4545V40.5717C54.0776 41.8606 53.9311 43.1496 53.6968 44.4092L53.2867 46.3426C52.4371 49.7994 50.7088 52.9046 49.3026 56.1269C48.9218 56.9765 48.5703 57.8553 48.248 58.7341L48.1602 58.9978L49.3026 57.826L50.2986 56.83Z" fill="#FBB040"/>
<path d="M43.2969 41.3938C43.479 41.2217 43.6749 41.065 43.8828 40.9251C44.0913 40.7794 44.3178 40.6612 44.5565 40.5735H44.5858C44.8203 40.4746 45.0664 40.4057 45.3182 40.3685H45.3475C45.8683 40.2513 46.4086 40.2513 46.9294 40.3685H46.9587C47.2117 40.4153 47.4578 40.4941 47.691 40.6028C48.1706 40.8019 48.608 41.0901 48.98 41.4524L46.1384 32.7227L43.2969 41.3938Z" fill="#909393"/>
<path d="M42.3018 45.9625C42.2063 45.7143 42.128 45.4598 42.0674 45.2008C42.0092 44.9412 41.9798 44.676 41.9795 44.4099C41.9747 44.2628 41.9845 44.1156 42.0088 43.9705C42.0075 43.9546 42.0094 43.9386 42.0144 43.9235C42.0194 43.9084 42.0275 43.8945 42.0381 43.8826C42.0435 43.7731 42.0632 43.6648 42.0967 43.5604V43.4725L42.1846 43.1502V43.0624C42.2139 42.9452 42.2725 42.828 42.3018 42.7401H42.331L42.5068 42.3886C42.7182 42.035 42.9742 41.7101 43.2685 41.4219L31.2578 44.3806H31.2285L43.122 47.2807C42.7384 46.9204 42.4385 46.4805 42.2432 45.9918L42.3018 45.9625Z" fill="#676A6A"/>
<path d="M69.3116 43.7078C69.3184 43.6584 69.3282 43.6095 69.3409 43.5613C69.3627 43.3917 69.402 43.2248 69.458 43.0633V43.0047L71.0106 35.8276V31.7264C69.7217 30.6718 68.3741 30.0859 66.9387 30.0859C65.5033 30.0859 63.4527 31.0819 62.1931 32.3123C60.9334 33.5427 59.7616 35.3589 58.8828 37.058C58.8535 37.1459 58.7949 37.2044 58.7656 37.2923L59.5566 37.9954L61.2849 39.6359L62.0759 40.4268L62.8961 41.2764C63.2476 41.6572 63.5992 42.0087 63.9214 42.3895L64.3608 42.8582L65.5912 44.2351L65.7377 44.3815H69.2823V44.2937C69.2781 44.0979 69.2879 43.9021 69.3116 43.7078Z" fill="#E2DDDB"/>
<path d="M16.1425 48.8938V48.806C16.3768 48.2201 16.6112 47.6342 16.8748 47.0483C16.9352 46.8838 17.0138 46.7266 17.1092 46.5796C17.3142 46.1109 17.5486 45.6715 17.7829 45.2321L18.0759 44.6755L18.2516 44.3825L19.0426 43.0643L19.2476 42.7713C19.5723 42.2455 19.9243 41.737 20.3022 41.248L20.3901 41.1309C20.7709 40.6036 21.1811 40.1056 21.5912 39.6369L21.8548 39.3146C22.265 38.8459 22.7044 38.3772 23.1438 37.9378L23.4074 37.6741C23.8761 37.2054 24.3449 36.766 24.8721 36.3266C26.8349 29.7061 32.8988 24.8725 40.0466 24.8725C42.9448 24.8803 45.7841 25.6915 48.249 27.2161C50.7633 28.7736 52.8005 30.9931 54.1371 33.6315C54.1371 33.6393 54.1402 33.6468 54.1457 33.6522C54.1512 33.6577 54.1586 33.6608 54.1664 33.6608L54.2836 33.8659C55.4034 34.5578 56.4706 35.3313 57.4767 36.1801L58.4727 37.059L58.7949 37.3519L58.9121 37.1175C59.9081 30.7607 62.7203 26.1615 66.0306 26.1615C68.5206 26.1615 70.747 28.7687 72.0945 32.782C72.4753 33.1921 72.8562 33.6608 73.237 34.1588H73.2663C73.2956 34.2174 73.2956 34.276 73.3249 34.3346L73.2663 34.1295C70.93 27.1872 66.1995 21.3027 59.9214 17.5293C53.6432 13.7558 46.2271 12.3396 39.0002 13.5341C31.7733 14.7286 25.2073 18.4558 20.4773 24.0488C15.7472 29.6417 13.1618 36.7354 13.1837 44.0603C13.1751 47.3239 13.6894 50.5679 14.707 53.6688C14.9121 52.7607 15.1464 51.8526 15.4101 50.9737C15.6737 50.0949 15.8788 49.5676 16.1425 48.8938Z" fill="#525353"/>
<path d="M73.7337 44.4101L72.6498 45.6112C72.6142 45.7618 72.5652 45.9088 72.5033 46.0506C72.5033 46.0799 72.474 46.1092 72.4447 46.1678L72.2982 46.4607L72.2104 46.6072L72.0639 46.8123C72.0013 46.9045 71.9218 46.9841 71.8295 47.0466L71.7416 47.1345L71.5659 47.2517H71.478C71.3255 47.3348 71.1535 47.3752 70.98 47.3689C70.0133 47.3689 69.2223 46.0213 69.2223 44.3223H65.6777C66.3515 45.0839 66.996 45.8456 67.6112 46.6365H67.6405L69.486 48.9215L69.5739 49.0386L71.2729 51.2357L71.4487 51.4408L73.2064 53.7843C74.2507 50.7076 74.7946 47.4834 74.8175 44.2344L73.7337 44.3223V44.4101Z" fill="white"/>
<path d="M39.3425 30.1441H39.5768L41.2466 30.0855C42.8899 30.0871 44.5288 30.254 46.1387 30.5835V30.5542C47.7032 30.9255 49.24 31.4051 50.7379 31.9896L52.5542 32.8391L52.7006 32.927H52.7299L52.9057 33.0442L53.1694 33.1907H53.1987L54.1654 33.7473C54.1731 33.7473 54.1806 33.7503 54.1861 33.7558C54.1916 33.7613 54.1947 33.7688 54.1947 33.7766H54.224L54.1068 33.5715H54.0775C52.7648 30.9542 50.754 28.7509 48.2673 27.2051C45.7806 25.6594 42.9149 24.8313 39.9869 24.8125C32.8391 24.8125 26.7752 29.6461 24.8125 36.2666C26.6713 34.6571 28.7532 33.325 30.9936 32.3118C33.6288 31.1079 36.4544 30.3743 39.3425 30.1441Z" fill="black"/>
<path d="M62.2224 32.3412C63.482 31.1109 65.1518 30.1149 66.968 30.1149C68.7843 30.1149 69.7803 30.7008 71.0399 31.7554L71.3915 32.0483L71.5965 32.2241L72.1238 32.7807C70.747 28.7673 68.5499 26.1602 66.0599 26.1602C62.7497 26.1602 59.9374 30.7301 58.9414 37.1162C59.7536 35.3485 60.8634 33.7333 62.2224 32.3412Z" fill="black"/>
<path d="M32.9867 72.8529L33.8362 73.1459C40.894 75.6107 48.606 75.4338 55.5433 72.6479L56.0998 72.4135L57.008 72.0034L57.7989 71.6226H57.6231C56.5331 71.7593 55.4296 71.7495 54.3422 71.5933C47.9853 70.6852 46.5792 67.6093 46.7843 64.4455C46.3001 64.1673 45.8308 63.8642 45.3781 63.5374C42.4729 61.4459 39.8533 58.9839 37.5859 56.2138C40.4912 58.3052 43.6511 60.0181 46.9893 61.311L47.3409 61.4575C47.6045 60.5493 47.9267 59.6705 48.1904 58.9089L48.2783 58.6452C48.6005 57.7664 48.952 56.8876 49.3329 56.038C50.739 52.8157 52.4674 49.6812 53.3169 46.2537L53.727 44.3203H50.2703C50.2711 44.8735 50.1615 45.4212 49.9481 45.9315C49.8388 46.175 49.7115 46.41 49.5672 46.6346C49.2733 47.0755 48.895 47.4538 48.454 47.7477L47.751 48.1286C47.2398 48.3391 46.6926 48.4485 46.1398 48.4508H45.6125L45.2903 48.3922H45.2024L44.8801 48.3043H44.8216L44.4993 48.1872H44.47L44.1185 48.0114C43.7585 47.8095 43.4323 47.5525 43.1518 47.2497L31.2583 44.3496H18.2809L18.1052 44.6425C18.0173 44.8183 17.9001 44.9941 17.8122 45.1991L17.1385 46.5467L16.9041 47.0154C16.6405 47.6013 16.4061 48.1872 16.1718 48.773V48.8609C15.9081 49.5347 15.6737 50.2378 15.4687 50.9408C15.2636 51.6439 14.9707 52.7278 14.7656 53.6359C16.7869 59.811 20.7153 65.1856 25.9853 68.9861L26.454 69.3083C27.3268 69.9295 28.2366 70.4969 29.1784 71.0074C30.3925 71.7308 31.6666 72.3483 32.9867 72.8529Z" fill="white"/>
<path d="M54.2811 63.2478C54.2228 63.5667 54.1933 63.8902 54.1932 64.2145C54.1717 64.7542 54.211 65.2947 54.3104 65.8257C54.3617 66.1609 54.4302 66.4934 54.5154 66.8217C54.6459 67.2737 54.8124 67.7145 55.0134 68.1399C55.1997 68.521 55.405 68.8926 55.6286 69.2531L55.8337 69.5753L56.1559 70.0147L56.566 70.5127C56.8746 70.8773 57.218 71.2108 57.5913 71.5087C57.59 71.5246 57.5919 71.5406 57.5969 71.5557C57.602 71.5708 57.61 71.5847 57.6206 71.5966H57.7964C59.204 71.3936 60.5877 71.0501 61.9269 70.5713L64.0068 69.7511L64.6219 69.4581C71.6819 66.0307 77.5993 59.9961 77.5993 59.9961C68.7524 64.3609 60.052 64.1852 54.2811 63.2478Z" fill="#9F2255"/>
<path d="M71.3325 51.3542L69.6334 49.1572L69.5455 49.04L67.7 46.755H67.6707L65.7373 44.4408L65.6201 44.2943L64.3897 42.9175L63.9503 42.4488L62.925 41.3356L62.1048 40.486L61.3138 39.6951L59.5855 38.0546L58.7945 37.3516C59.3511 38.9627 59.9956 40.5739 60.3178 42.2437C60.4057 42.6831 60.4643 43.0932 60.5229 43.5034C61.3138 49.2743 59.439 53.0533 56.5096 58.0333L55.8651 59.1172C55.2524 60.1049 54.7977 61.1823 54.5176 62.3103C54.4297 62.6325 54.3711 62.9548 54.3125 63.277C60.0835 64.2144 68.7546 64.3902 77.6307 60.0253C77.6307 60.0253 75.9024 57.4767 73.2659 53.9614L71.5082 51.6179L71.3325 51.3542Z" fill="#E2066F"/>
<path d="M57.5939 71.5677C57.2288 71.2606 56.8862 70.9278 56.5686 70.5717C56.4222 70.4252 56.305 70.2495 56.1585 70.0737L55.8363 69.6343L55.6312 69.3121C55.4261 68.9605 55.2211 68.609 55.016 68.1989C54.8276 67.7682 54.6614 67.3283 54.518 66.8806C54.4188 66.5557 54.3501 66.2223 54.313 65.8846C54.2282 65.3519 54.189 64.8129 54.1958 64.2734C54.196 63.9492 54.2254 63.6257 54.2837 63.3067C54.3423 62.9845 54.4009 62.6623 54.4887 62.34C54.7872 61.2182 55.2408 60.1434 55.8363 59.1469C56.0413 58.7661 56.2757 58.4146 56.4807 58.0631C59.4102 53.083 61.285 49.3334 60.4941 43.5331C60.4355 43.123 60.3769 42.6836 60.289 42.2734C60.2627 42.5311 60.2137 42.786 60.1425 43.0351V43.0937L60.0546 43.4452C58.7657 47.2242 56.6565 50.1829 53.7564 53.3174C53.3756 53.7568 52.9654 54.1669 52.526 54.6063L50.2997 56.862L49.3329 57.7994L48.1905 58.9712C47.9268 59.7328 47.6046 60.6117 47.3409 61.5198L46.9894 61.3733C43.6448 60.0942 40.4832 58.3804 37.5859 56.2761C39.8533 59.0462 42.4729 61.5082 45.3782 63.5997C45.8264 63.9331 46.2961 64.2364 46.7843 64.5078C46.5793 67.7009 47.9854 70.7475 54.3423 71.6556C55.4308 71.7972 56.5324 71.8071 57.6232 71.6849C57.6232 71.6263 57.5939 71.597 57.5939 71.5677Z" fill="black"/>
</g>
<defs>
<clipPath id="clip0_9_96322">
<rect width="88" height="88" fill="white"/>
</clipPath>
</defs>
</svg>
