<svg xmlns="http://www.w3.org/2000/svg" width="58" height="107" fill="none" viewBox="0 0 58 107"><g clip-path="url(#a)"><path fill="#fff" d="M11.959 103.913c0 2.17 1.512 3.048 3.378 1.964l38.637-22.494a7.5 7.5 0 0 0 2.387-2.54 7.56 7.56 0 0 0 .987-3.353l.005-63.963c0-2.165-1.515-3.046-3.379-1.961L15.337 34.065a7.46 7.46 0 0 0-2.388 2.534 7.5 7.5 0 0 0-.985 3.353z"/><path fill="#005bea" d="M13.826 107.001a3.7 3.7 0 0 0 1.836-.555l38.637-22.494a8.1 8.1 0 0 0 2.628-2.777 8.2 8.2 0 0 0 1.07-3.684l.006-63.962c.082-.54 0-1.094-.235-1.587a2.7 2.7 0 0 0-1.083-1.177 2.68 2.68 0 0 0-3.032.236L15.016 33.5a8.1 8.1 0 0 0-2.63 2.773 8.14 8.14 0 0 0-1.07 3.682l-.003 63.961a3.03 3.03 0 0 0 1.312 2.769c.366.21.78.319 1.201.316M55.48 11.759c.194-.004.385.043.554.137a1.8 1.8 0 0 1 .667 1.634l-.005 63.962a6.95 6.95 0 0 1-.904 3.024 6.9 6.9 0 0 1-2.145 2.302L15.01 105.311a1.42 1.42 0 0 1-1.736.239 1.456 1.456 0 0 1-.667-1.634l.005-63.962a6.9 6.9 0 0 1 .9-3.022 6.85 6.85 0 0 1 2.146-2.298l38.637-22.5a2.44 2.44 0 0 1 1.185-.375"/><path fill="#1b69ff" d="M16.905 82.368c0 .516.365.732.813.468l30.614-17.823a1.8 1.8 0 0 0 .814-1.415c0-.516-.365-.727-.814-.466L17.717 80.955a1.82 1.82 0 0 0-.813 1.413zm5.63 4.259c0 .522.36.732.809.473l24.988-14.55a1.78 1.78 0 0 0 .81-1.415c0-.516-.36-.727-.81-.47l-24.99 14.549a1.8 1.8 0 0 0-.807 1.413m5.629-7.044a1.8 1.8 0 0 1 .807-1.41l19.36-11.277c.453-.258.814-.046.814.471a1.8 1.8 0 0 1-.813 1.412L28.97 80.056c-.445.258-.81.047-.807-.473M16.905 69.182c0 .516.363.73.81.469l30.62-17.822a1.8 1.8 0 0 0 .806-1.413c0-.522-.362-.732-.813-.473L17.714 67.765a1.81 1.81 0 0 0-.81 1.417zm5.63 4.259c0 .522.362.732.806.471l24.996-14.55a1.79 1.79 0 0 0 .807-1.411c0-.516-.361-.732-.813-.472L23.346 72.028a1.8 1.8 0 0 0-.811 1.413m5.629-7.043a1.8 1.8 0 0 1 .807-1.413L48.33 53.71c.45-.258.81-.043.814.468a1.83 1.83 0 0 1-.813 1.42L28.97 66.865c-.447.264-.807.052-.807-.467"/><path fill="#fff" d="m43.352.559 5.836 3.397a.83.83 0 0 1 .346.76V34.56c0 13.846-20.274 36.364-21.14 37.318a2 2 0 0 1-.466.386 1 1 0 0 1-.462.154c-.562.034-9.318.503-15.384-2.972v.005l-5.91-3.44a10.56 10.56 0 0 1-4.225-4.023 10.7 10.7 0 0 1-1.463-5.67V26.469a2.73 2.73 0 0 1 1.213-2.026C9.79 19.734 17.336 13.065 21.394 7.037c.41-.608.982-.938 1.396-.81 4.051 1.3 11.594-.812 19.752-5.563a.75.75 0 0 1 .814-.104z"/><path fill="#1b69ff" d="M1.692 24.443c8.094-4.709 15.64-11.377 19.697-17.405.41-.61.983-.939 1.397-.81 4.051 1.3 11.593-.813 19.751-5.564a.75.75 0 0 1 .815-.104l5.835 3.397a.75.75 0 0 0-.807.108c-8.163 4.751-15.7 6.864-19.755 5.563-.412-.13-.986.204-1.395.811-4.056 6.027-11.6 12.696-19.697 17.406a2.7 2.7 0 0 0-1.211 2.027v29.847a10.7 10.7 0 0 0 1.487 5.709 10.57 10.57 0 0 0 4.278 4.027h-.007l-5.91-3.44a10.56 10.56 0 0 1-4.224-4.023 10.7 10.7 0 0 1-1.464-5.67V26.47a2.73 2.73 0 0 1 1.21-2.026"/><path fill="#005bea" d="M25.952 72.945c.892 0 1.454-.032 1.544-.039.241-.017.475-.092.682-.22q.322-.193.574-.472c.872-.96 21.272-23.612 21.27-37.652V4.72a1.3 1.3 0 0 0-.587-1.182L43.6.14l-.03-.015a1.22 1.22 0 0 0-1.292.138c-7.987 4.65-15.41 6.765-19.339 5.505a1.86 1.86 0 0 0-1.13.186 1.9 1.9 0 0 0-.81.814c-4.022 5.973-11.51 12.585-19.541 17.257-.413.267-.76.626-1.011 1.05a3.2 3.2 0 0 0-.44 1.395v29.853a11.1 11.1 0 0 0 1.512 5.9 11 11 0 0 0 4.385 4.194l.033.022 5.91 3.44.072.035c4.747 2.693 11.128 3.032 14.033 3.032M43.136.995l5.811 3.383c.053.031.107.148.106.338v29.849c0 13.665-20.155 36.046-21.016 36.991a1.6 1.6 0 0 1-.352.293.6.6 0 0 1-.25.086c-.37.024-9.144.516-15.118-2.907l-.065-.031-5.811-3.385-.035-.022a10.1 10.1 0 0 1-4.046-3.845 10.2 10.2 0 0 1-1.4-5.426V26.47a2.26 2.26 0 0 1 .973-1.606c8.147-4.74 15.755-11.466 19.852-17.552.319-.472.707-.665.853-.62 4.18 1.34 11.894-.808 20.137-5.607.17-.115.287-.131.327-.106q.018.007.034.016"/><path fill="#1b69ff" d="m27.93 45.987 12.654-23.213-1.774-1.032-10.882 20.125-6.988-4.06-1.774 3.09z"/></g><defs><clipPath id="a"><path fill="#fff" d="M0 0h58v107H0z"/></clipPath></defs></svg>