<svg xmlns="http://www.w3.org/2000/svg" width="43" height="76" fill="none" viewBox="0 0 43 76"><g clip-path="url(#a)"><g fill="#1b69ff" style="mix-blend-mode:color-dodge"><path d="M17.742 41.273c0 3.357 1.499 5.455 3.767 5.886-2.16-.512-3.576-2.578-3.576-5.837"/><path d="M17.742 41.273c0 3.357 1.499 5.455 3.767 5.886-2.16-.512-3.576-2.578-3.576-5.837m2.09-6.092v.126l.747.673.085-.05z"/><path d="M20.023 35.23v.126l.747.673.085-.05z"/></g><path fill="#fff" d="M10.242 24.452c-2.734-2.955-5.844-2.986-6.946-.073L.389 31.3c-1.102 2.915.217 7.674 2.953 10.628l29.415 31.838c2.734 2.954 5.845 2.986 6.947.072l2.906-6.92c1.103-2.915-.217-7.673-2.953-10.627m-15.116-9.106a3.87 3.87 0 0 1-1.759-3.028c0-1.113.788-1.561 1.76-1.001a3.87 3.87 0 0 1 1.757 3.028c-.002 1.108-.787 1.557-1.758.997z"/><path fill="#1b69ff" d="M6.124 23.727c.87 0 1.992.654 3.006 1.75L23.843 41.4h-.091a2.54 2.54 0 0 0-2.362 1.729 2.5 2.5 0 0 0-.12 1.024 5.38 5.38 0 0 0 2.514 4.34c.467.282 1 .435 1.546.444a2.54 2.54 0 0 0 2.362-1.729c.11-.33.151-.678.12-1.024q0-.261-.034-.521l10.768 11.653a11.6 11.6 0 0 1 2.569 4.707 7.4 7.4 0 0 1 .089 4.34l-2.898 6.893-.02.05c-.449 1.19-1.175 1.19-1.413 1.19-.87 0-1.992-.652-3.005-1.751L4.452 40.91a11.6 11.6 0 0 1-2.569-4.707 7.4 7.4 0 0 1-.09-4.34l2.898-6.893.02-.05c.45-1.189 1.176-1.189 1.414-1.189m4.117.723c-1.376-1.49-2.853-2.236-4.117-2.236A2.98 2.98 0 0 0 3.3 24.384l-2.907 6.92c-1.102 2.915.217 7.674 2.954 10.628l29.41 31.834c1.377 1.49 2.854 2.236 4.118 2.236a2.98 2.98 0 0 0 2.825-2.166l2.907-6.92c1.103-2.915-.217-7.673-2.953-10.627m-14.327-8.865a1.6 1.6 0 0 1-.79-.24 3.87 3.87 0 0 1-1.758-3.03c0-.787.395-1.241.97-1.241.279.01.55.093.788.24a3.87 3.87 0 0 1 1.758 3.03c0 .787-.394 1.241-.968 1.241"/><path fill="#1b69ff" d="M10.242 24.451c-1.853-2.001-3.876-2.657-5.332-1.967 1.387-.305 3.135.411 4.752 2.16l29.416 31.834c2.734 2.955 4.056 7.713 2.953 10.628l-2.907 6.92a3.27 3.27 0 0 1-1.614 1.896 3.08 3.08 0 0 0 2.194-2.09l2.907-6.92c1.102-2.914-.218-7.672-2.954-10.627M5.03 35.701l2.328-.072-2.151-3.09.959-.93 1.78 3.498.674-2.928 1.387 1.498-1.29 2.262 2.625 1.264-.096 1.863-2.562-2.006.936 3.605-1.438-.328-.347-3.5-2.028.937z"/><path fill="#1b69ff" d="m6.167 31.608-.959.93 2.151 3.09-2.328.072.78 2.07 2.028-.936.347 3.5 1.439.327-.938-3.604 2.562 2.005.097-1.863-2.625-1.264 1.29-2.262-1.387-1.498-.674 2.928-1.78-3.498zm5.364 11.117 2.33-.073-2.152-3.089.96-.93 1.78 3.497.673-2.928 1.386 1.498-1.289 2.263 2.625 1.263-.097 1.863-2.561-2.004.937 3.604-1.439-.328-.346-3.5-2.029.937z"/><path fill="#1b69ff" d="m12.667 38.632-.959.93 2.151 3.09-2.328.072.78 2.07 2.028-.937.347 3.5 1.438.327-.936-3.604 2.561 2.004.097-1.862-2.625-1.263 1.29-2.263-1.387-1.498-.674 2.928-1.78-3.497zm5.363 11.12 2.328-.072-2.151-3.09.96-.93 1.78 3.498.673-2.929 1.386 1.498-1.289 2.263 2.625 1.264-.097 1.862-2.562-2.005.937 3.605-1.438-.328-.348-3.5-2.028.936z"/><path fill="#1b69ff" d="m19.166 45.66-.96.93 2.152 3.089-2.329.072.78 2.07 2.028-.936.347 3.5 1.438.327-.937-3.605 2.562 2.005.097-1.862-2.625-1.264 1.29-2.262-1.387-1.498-.674 2.928-1.78-3.498zm5.364 11.116 2.328-.073-2.151-3.09.959-.93 1.78 3.498.673-2.928 1.387 1.498-1.29 2.263 2.625 1.263-.097 1.862-2.562-2.004.937 3.604-1.439-.328-.347-3.5-2.028.937z"/><path fill="#1b69ff" d="m25.666 52.683-.96.93 2.152 3.09-2.329.072.78 2.069 2.028-.936.347 3.5 1.438.327-.937-3.604 2.562 2.004.097-1.862-2.625-1.263 1.29-2.263-1.387-1.498-.674 2.928-1.78-3.497zm5.365 11.116 2.33-.072-2.152-3.09.959-.93 1.78 3.497.673-2.928 1.387 1.498-1.29 2.263 2.625 1.264-.097 1.861-2.562-2.005.938 3.605-1.439-.328-.348-3.5-2.028.937z"/><path fill="#1b69ff" d="m32.167 59.706-.959.93 2.151 3.09-2.328.072.78 2.07 2.028-.936.347 3.499 1.438.328-.937-3.605 2.562 2.005.097-1.862-2.625-1.264 1.29-2.263-1.387-1.498-.674 2.928-1.78-3.497z"/><g fill="#1b69ff" style="mix-blend-mode:color-dodge"><path d="M17.742 41.242c0 2.774 1.028 4.679 2.663 5.504-1.51-.88-2.446-2.749-2.446-5.396"/><path d="M17.742 41.242c0 2.774 1.028 4.679 2.663 5.504-1.51-.88-2.446-2.749-2.446-5.396"/></g><path fill="#1b69ff" d="M39.889 9.353q.001-.032-.005-.063a3 3 0 0 0-.018-.182q.001-.021-.005-.042a3 3 0 0 0-.036-.206c0-.016-.007-.031-.01-.046a3 3 0 0 0-.04-.157l-.014-.048a3 3 0 0 0-.063-.18l-.008-.02a2 2 0 0 0-.068-.145L39.6 8.22a2 2 0 0 0-.078-.134l-.01-.018a2 2 0 0 0-.099-.137l-.027-.032a2 2 0 0 0-.088-.099l-.026-.027a2 2 0 0 0-.116-.11l-.024-.018a1 1 0 0 0-.109-.072l-.036-.022-.072-.04.021-.016-.946-.485q-.053-.036-.107-.068l-.038-.02-.073-.04-.047-.02q-.032-.016-.066-.027V-.004L35.571 1.2v5.623l-.026.37a4 4 0 0 0-.38.254 6 6 0 0 0-.66.567 8 8 0 0 0-.217.232 6 6 0 0 0-.341.402 7.6 7.6 0 0 0-.765 1.184q-.075.141-.145.285a7.4 7.4 0 0 0-.443 1.191 7 7 0 0 0-.094.4q-.099.483-.102.976-.001.331.057.656c.07.524.345.999.765 1.32l.836.439q.182.16.404.257l.026.014v15.971c0 4.024-2.857 8.944-6.368 10.968a4.93 4.93 0 0 1-3.896.716l-.092-.08-.048-.045a4 4 0 0 1-.155-.161l-.02-.022a2 2 0 0 1-.129-.157l-.043-.056-.11-.157-.027-.04a4 4 0 0 1-.123-.202l-.033-.06a4 4 0 0 1-.087-.171l-.03-.063a3 3 0 0 1-.1-.232l-.017-.045a3 3 0 0 1-.072-.208l-.025-.072a6 6 0 0 1-.068-.234l-.009-.032a6 6 0 0 1-.063-.276l-.015-.078-.04-.23c0-.024-.007-.048-.01-.073a7 7 0 0 1-.06-.625q0-.044-.004-.089a8 8 0 0 1-.008-.33V34.56l.193-.11 1.521.398 1.697-1.025-1.112-.808-4.386-3.187v.187l-1.087-.789V39.89c0 3.008 1.203 5.008 3.086 5.7q.09.072.185.135l.05.032q.1.068.205.129l.072.04a4 4 0 0 0 .535.248l.076.028q.117.042.235.076l.057.018q.144.039.294.072l.072.013q.12.022.244.04l.083.01q.155.018.314.026h.037c.072 0 .139.005.21.005h.153q.16-.005.325-.019l.057-.005a6 6 0 0 0 .701-.11l.058-.013q.172-.038.348-.087l.068-.02q.177-.05.362-.111l.043-.015q.176-.062.356-.133l.041-.016q.185-.075.372-.16l.072-.032q.186-.086.373-.182l.064-.034q.196-.103.393-.217a13.8 13.8 0 0 0 2.513-1.885q.596-.556 1.15-1.184c2.834-3.2 4.792-7.654 4.792-11.494V14.391q.5-.473.9-1.034A6.8 6.8 0 0 0 39.9 9.589z"/></g><defs><clipPath id="a"><path fill="#fff" d="M0 0h43v76H0z"/></clipPath></defs></svg>