<svg xmlns="http://www.w3.org/2000/svg" width="61" height="43" fill="none" viewBox="0 0 61 43"><path fill="#d3e5fb" fill-rule="evenodd" d="M60.458 12.606v6.056l-20.216 6.387v-6.06z" clip-rule="evenodd"/><path fill="#345be4" fill-rule="evenodd" d="M40.702 19.337v5.073l19.299-6.089v-5.077zm-.458 6.18a.44.44 0 0 1-.273-.09.43.43 0 0 1-.197-.375v-6.057a.47.47 0 0 1 .328-.45l20.227-6.384a.45.45 0 0 1 .403.068.49.49 0 0 1 .198.379v6.056a.47.47 0 0 1-.328.45l-20.227 6.384a.4.4 0 0 1-.133.02z" clip-rule="evenodd"/><path fill="#d3e5fb" fill-rule="evenodd" d="M57.275 28.914v6.057l-8.195 4.767v-6.057z" clip-rule="evenodd"/><path fill="#345be4" fill-rule="evenodd" d="M49.536 33.953v4.977l7.278-4.225v-4.978zm-.459 6.256a.47.47 0 0 1-.47-.47v-6.057a.46.46 0 0 1 .233-.402l8.207-4.771a.47.47 0 0 1 .459 0 .47.47 0 0 1 .237.406v6.057a.47.47 0 0 1-.237.407l-8.191 4.767a.5.5 0 0 1-.237.063" clip-rule="evenodd"/><path fill="#345be4" fill-rule="evenodd" d="M49.077 33.682v6.057l-17.042-9.924v-6.057z" clip-rule="evenodd"/><path fill="#345be4" fill-rule="evenodd" d="m32.497 29.545 16.11 9.381V33.95l-16.11-9.382zm16.58 10.66a.5.5 0 0 1-.237-.064L31.8 30.217a.46.46 0 0 1-.225-.406v-6.057a.46.46 0 0 1 .695-.406l17.042 9.928a.45.45 0 0 1 .222.402v6.057a.46.46 0 0 1-.221.406.5.5 0 0 1-.237.064" clip-rule="evenodd"/><path fill="#d3e5fb" fill-rule="evenodd" d="M32.036 23.758v6.057L21.054 41.58v-6.057z" clip-rule="evenodd"/><path fill="#345be4" fill-rule="evenodd" d="M21.512 35.703v4.695L31.577 29.63v-4.694zm-.458 6.343a.49.49 0 0 1-.39-.205.47.47 0 0 1-.084-.263V35.52a.5.5 0 0 1 .13-.323L31.696 23.44a.46.46 0 0 1 .8.318v6.057a.47.47 0 0 1-.118.323l-10.984 11.76a.49.49 0 0 1-.34.15" clip-rule="evenodd"/><path fill="#345be4" fill-rule="evenodd" d="M21.054 35.522v6.057L1.204 7.084V1.027z" clip-rule="evenodd"/><path fill="#345be4" fill-rule="evenodd" d="M1.665 6.957 20.58 39.835v-4.193L1.665 2.767v4.193zm19.389 35.087a.48.48 0 0 1-.41-.235L.8 7.315a.5.5 0 0 1-.068-.235V1.023a.48.48 0 0 1 .344-.45.45.45 0 0 1 .522.216l19.85 34.494a.38.38 0 0 1 .068.236v6.056a.48.48 0 0 1-.344.454.6.6 0 0 1-.117.018z" clip-rule="evenodd"/><path fill="#fff" fill-rule="evenodd" d="m1.207 1.027 59.25 11.581-20.226 6.387 17.042 9.92-8.195 4.767-17.043-9.924-10.98 11.764z" clip-rule="evenodd"/><path fill="#345be4" fill-rule="evenodd" d="M2.11 1.683 21.144 34.74l10.55-11.301a.47.47 0 0 1 .576-.087l16.805 9.792 7.263-4.23-16.334-9.517a.49.49 0 0 1-.234-.454.47.47 0 0 1 .328-.398l18.47-5.83zM21.053 35.99h-.056a.5.5 0 0 1-.358-.231L.796 1.264A.48.48 0 0 1 .819.758a.45.45 0 0 1 .458-.187l59.265 11.58a.46.46 0 0 1 .379.432.47.47 0 0 1-.328.472l-19.216 6.067 16.124 9.389a.46.46 0 0 1 .237.406.47.47 0 0 1-.237.406l-8.19 4.767a.48.48 0 0 1-.475 0l-16.71-9.74L21.39 35.842a.5.5 0 0 1-.337.147" clip-rule="evenodd"/></svg>