<svg xmlns="http://www.w3.org/2000/svg" width="393" height="636" fill="none" viewBox="0 0 393 636"><g clip-path="url(#a)" opacity=".71"><path fill="#f2f6fe" d="M330.305 134.66 468 71.988 330.305 0 192.61 71.988z"/><path fill="url(#b)" d="M192.61 71.988v355.484l137.695 62.432V134.658z"/><path fill="url(#c)" d="M468 71.988 330.305 134.66v355.242L468 409.631"/><path fill="url(#d)" d="m275.391 218.09-137.696 62.671v355.242l137.696-80.27"/><path fill="#f2f6fe" d="m137.695 280.76 137.696-62.67-137.696-71.988L.003 218.09z"/><path fill="url(#e)" d="M0 218.09v355.483l137.695 62.432V280.761z"/><path fill="url(#f)" d="m275.391 218.09-137.696 62.671v355.242l137.696-80.27"/></g><defs><linearGradient id="b" x1="268.204" x2="156.896" y1="547.158" y2="70.798" gradientUnits="userSpaceOnUse"><stop stop-color="#fff" stop-opacity="0"/><stop offset="1" stop-color="#e0e7fd"/></linearGradient><linearGradient id="c" x1="380.564" x2="562.528" y1="287.631" y2="271.179" gradientUnits="userSpaceOnUse"><stop stop-color="#fff"/><stop offset="1" stop-color="#e0e7fd"/></linearGradient><linearGradient id="d" x1="187.954" x2="369.918" y1="433.733" y2="417.281" gradientUnits="userSpaceOnUse"><stop stop-color="#fff"/><stop offset="1" stop-color="#e0e7fd"/></linearGradient><linearGradient id="e" x1="75.595" x2="-35.713" y1="693.26" y2="216.899" gradientUnits="userSpaceOnUse"><stop stop-color="#fff" stop-opacity="0"/><stop offset="1" stop-color="#e0e7fd"/></linearGradient><linearGradient id="f" x1="187.954" x2="369.918" y1="433.733" y2="417.28" gradientUnits="userSpaceOnUse"><stop stop-color="#fff" stop-opacity="0"/><stop offset="1" stop-color="#e0e7fd"/></linearGradient><clipPath id="a"><path fill="#fff" d="M468 0H0v636h468z"/></clipPath></defs></svg>