<svg xmlns="http://www.w3.org/2000/svg" width="255" height="213" fill="none" viewBox="0 0 255 213"><g opacity=".24"><path fill="url(#a)" d="M.556 173.731c0-28.763 20.623-62.984 46.231-77.01 9.681-35.866 35.815-71.738 66.627-87.996 14.48-7.64 27.898-9.795 39.092-7.336l.007-.055 22.176 4.975s13.978 17.615 15.708 22.205c4.864-3.341 11.912-6.929 16.782-6.051l23.775 4.532s-15.408 93.531-41.414 107.254c-11.071 5.838-151.76 77.508-151.76 77.508l-15.93-5.195.055-.021c-12.847-2.63-21.35-14.356-21.35-32.81"/><path fill="url(#b)" d="M65.1 102.116c10.24-35.865 37.892-71.737 70.492-87.995s60.249-7.96 70.493 17.687C233.176 18.813 255 31.27 255 60.031c0 29.089-22.307 63.791-49.823 77.511-11.712 5.842-127.46 63.563-139.17 69.404-27.515 13.721-49.821 1.264-49.821-27.821 0-28.761 21.82-62.982 48.914-77.009"/></g><defs><linearGradient id="a" x1="183.723" x2="81.738" y1="-106.302" y2="84.803" gradientUnits="userSpaceOnUse"><stop stop-color="#fff"/><stop offset="1" stop-color="#b6d4ff"/></linearGradient><linearGradient id="b" x1="135.593" x2="135.593" y1="5.766" y2="212.525" gradientUnits="userSpaceOnUse"><stop stop-color="#fff"/><stop offset="1" stop-color="#b6d4ff"/></linearGradient></defs></svg>