<svg xmlns="http://www.w3.org/2000/svg" width="435" height="551" fill="none" viewBox="0 0 435 551"><g opacity=".79"><path fill="url(#a)" d="M528.461 553.735s-1.074-296.684-2.854-304.09-7.112-3.951-7.112-3.951c-2.01 12.119-16.292 5.514-28.229 7.172l-81.31 47.482-35.481 12.791-113.265-58.367 2.615-1.51c-9.682-4.516-15.225-1.461-20.463-10.879l-7.624 4.538-4.531 1.275 3.185 305.949c0 5.031 3.321 10.061 9.964 13.887l108.455 62.531 5.018 2.893c13.285 7.657 34.905 7.657 48.192 0l113.472-65.424c6.533-3.765 9.855-8.698 9.959-13.643.005-.219-.005-.439-.013-.664z"/><path fill="url(#b)" d="m520.01 242.135-111.908-64.467a63.99 63.99 0 0 0-64.326.262l-107.259 62.956a11.5 11.5 0 0 0-5.683 9.94 11.5 11.5 0 0 0 1.538 5.72 11.5 11.5 0 0 0 4.184 4.198l114.198 66.413a52.88 52.88 0 0 0 53.169 0l116.123-67.536a10.11 10.11 0 0 0 5.026-8.754 10.1 10.1 0 0 0-5.062-8.732"/></g><g opacity=".45"><path fill="url(#c)" d="M296.587 712.987s.97-576.614-.805-584.018-7.112-3.951-7.112-3.951c-2.01 12.119-16.292 5.514-28.229 7.172l-81.308 47.483-35.48 12.791-113.265-58.368 2.614-1.509c-9.681-4.517-15.224-1.462-20.463-10.88l-7.623 4.538-4.531 1.275 1.14 585.877c0 5.032 3.322 10.062 9.965 13.887l108.455 62.531 5.018 2.893c13.285 7.657 34.906 7.657 48.192 0l113.472-65.424c6.533-3.765 9.855-8.698 9.959-13.643.005-.219-.004-.438-.013-.664z"/><path fill="url(#d)" d="M290.18 121.463 178.272 56.997a63.99 63.99 0 0 0-64.326.261L6.686 120.214a11.5 11.5 0 0 0-5.682 9.94 11.5 11.5 0 0 0 1.538 5.72 11.5 11.5 0 0 0 4.184 4.198l114.198 66.413a52.88 52.88 0 0 0 53.169 0l116.123-67.536a10.11 10.11 0 0 0 5.026-8.753 10.1 10.1 0 0 0-5.062-8.733"/></g><path fill="url(#e)" d="M204.767 50.022c-15.255-8.618-30.168-23.316-42.668-42.05l-.169-.097c-12.5 4.316-27.414 1.821-42.673-7.15l-.585-.342.823 28.461c2.894 44.119 17.964 63.321 42.217 104.34l.591.34c24.253-13.051 39.321-14.879 42.216-55.661l.824-27.512z"/><path fill="url(#f)" d="M158.999 114.512c-18.827-31.186-28.298-46.876-30.581-81.103l-.52-17.968c12.088 5.459 23.677 7.198 34.119 5.123 10.437 14.112 22.027 25.735 34.114 34.216l-.52 17.368c-2.284 31.599-11.755 36.367-30.584 45.847l-3.01 1.521z"/><g opacity=".79"><g style="mix-blend-mode:multiply"><path fill="#fff" d="M364.352 277.977a4.56 4.56 0 0 0 2.209-.544l24.264-13.271a3.06 3.06 0 0 0 1.654-2.616 2.98 2.98 0 0 0-1.56-2.6l-49.772-28.585a4.4 4.4 0 0 0-2.211-.564 4.54 4.54 0 0 0-2.212.548l-24.261 13.268a3.06 3.06 0 0 0-1.654 2.616c.004.533.151 1.055.426 1.512a3 3 0 0 0 1.135 1.088l49.772 28.586a4.4 4.4 0 0 0 2.211.562z"/><path fill="#fefefe" d="M312.481 243.646a3.02 3.02 0 0 0-1.635 2.585 2.95 2.95 0 0 0 1.543 2.569l49.772 28.585a4.34 4.34 0 0 0 2.211.553 4.6 4.6 0 0 0 2.202-.551l24.235-13.255a3.02 3.02 0 0 0 1.636-2.583 2.95 2.95 0 0 0-1.542-2.569l-49.741-28.567a4.66 4.66 0 0 0-4.418-.033z"/><path fill="#fdfdfd" d="M312.498 243.678a2.98 2.98 0 0 0-1.617 2.552 2.91 2.91 0 0 0 1.525 2.538l49.772 28.585a4.3 4.3 0 0 0 2.21.544 4.66 4.66 0 0 0 2.196-.559l24.206-13.239a2.98 2.98 0 0 0 1.617-2.551 2.91 2.91 0 0 0-1.525-2.537l-49.711-28.55a4.5 4.5 0 0 0-2.202-.581 4.43 4.43 0 0 0-2.21.53z"/><path fill="#fcfcfc" d="M312.516 243.706a2.95 2.95 0 0 0-1.598 2.52 2.88 2.88 0 0 0 1.508 2.506l49.772 28.585a4.24 4.24 0 0 0 2.209.535 4.7 4.7 0 0 0 2.191-.566l24.176-13.223a2.95 2.95 0 0 0 1.598-2.52 2.88 2.88 0 0 0-1.506-2.505l-49.681-28.533a4.6 4.6 0 0 0-2.196-.589 4.4 4.4 0 0 0-2.209.522z"/><path fill="#fbfbfb" d="M312.535 243.738a2.91 2.91 0 0 0-1.58 2.485 2.84 2.84 0 0 0 1.489 2.474l49.772 28.585a4.2 4.2 0 0 0 2.208.527 4.8 4.8 0 0 0 2.185-.574l24.146-13.207a2.9 2.9 0 0 0 1.58-2.485 2.84 2.84 0 0 0-1.488-2.474l-49.649-28.515a4.6 4.6 0 0 0-2.196-.598 4.33 4.33 0 0 0-2.208.512z"/><path fill="#fafafb" d="M312.553 243.771a2.86 2.86 0 0 0-1.561 2.456c.005.501.144.992.402 1.422.259.429.628.782 1.069 1.021l49.773 28.585a4.15 4.15 0 0 0 2.206.518 4.85 4.85 0 0 0 2.18-.585l24.115-13.193a2.87 2.87 0 0 0 1.561-2.456 2.8 2.8 0 0 0-1.469-2.442l-49.619-28.498a4.7 4.7 0 0 0-2.189-.607 4.3 4.3 0 0 0-2.207.505z"/><path fill="#f9f9fa" d="M312.573 243.806a2.83 2.83 0 0 0-1.542 2.424 2.77 2.77 0 0 0 1.453 2.412l49.772 28.585a4.1 4.1 0 0 0 2.205.512 4.9 4.9 0 0 0 2.175-.589l24.087-13.175a2.83 2.83 0 0 0 1.542-2.423 2.77 2.77 0 0 0-1.451-2.412l-49.589-28.481a4.76 4.76 0 0 0-2.184-.615 4.2 4.2 0 0 0-2.206.496z"/><path fill="#f8f8f9" d="M312.588 243.837a2.8 2.8 0 0 0-1.088.99 2.8 2.8 0 0 0-.436 1.403 2.73 2.73 0 0 0 1.434 2.38l49.772 28.585a4.05 4.05 0 0 0 2.204.5 5 5 0 0 0 2.169-.597l24.057-13.156a2.79 2.79 0 0 0 1.524-2.392 2.73 2.73 0 0 0-1.434-2.379l-49.558-28.463a4.8 4.8 0 0 0-2.179-.623 4.2 4.2 0 0 0-2.205.487z"/><path fill="#f7f7f8" d="M312.606 243.868a2.77 2.77 0 0 0-1.504 2.36 2.69 2.69 0 0 0 1.416 2.349l49.772 28.585a4 4 0 0 0 2.203.49 5.05 5.05 0 0 0 2.164-.603l24.028-13.142a2.77 2.77 0 0 0 1.504-2.36 2.69 2.69 0 0 0-1.415-2.348l-49.527-28.445a4.9 4.9 0 0 0-2.175-.633 4.1 4.1 0 0 0-2.203.479z"/><path fill="#f6f6f7" d="M312.623 243.9a2.73 2.73 0 0 0-1.486 2.329 2.65 2.65 0 0 0 1.397 2.317l49.772 28.585c.672.37 1.437.537 2.202.481a5.1 5.1 0 0 0 2.158-.611l23.998-13.126a2.73 2.73 0 0 0 1.486-2.328 2.65 2.65 0 0 0-.382-1.348 2.65 2.65 0 0 0-1.015-.968l-49.497-28.428a5 5 0 0 0-2.17-.641 4.1 4.1 0 0 0-2.202.47z"/><path fill="#f5f5f6" d="M312.642 243.933a2.69 2.69 0 0 0-1.464 2.297 2.62 2.62 0 0 0 1.379 2.285l49.772 28.585a3.9 3.9 0 0 0 2.201.472 5.2 5.2 0 0 0 2.152-.619l23.969-13.11a2.68 2.68 0 0 0 1.464-2.296 2.62 2.62 0 0 0-1.378-2.284l-49.467-28.411a5.05 5.05 0 0 0-2.165-.649 4.04 4.04 0 0 0-2.201.461z"/><path fill="#f4f4f5" d="M312.659 243.962a2.66 2.66 0 0 0-1.448 2.266c.004.463.133.916.373 1.312.239.397.581.722.988.941l49.773 28.586a3.9 3.9 0 0 0 2.199.463 5.3 5.3 0 0 0 2.147-.626l23.94-13.094a2.65 2.65 0 0 0 1.448-2.266 2.59 2.59 0 0 0-1.36-2.253l-49.437-28.393a5.14 5.14 0 0 0-2.161-.658 4 4 0 0 0-2.199.453z"/><path fill="#f3f3f4" d="M312.675 243.997a2.62 2.62 0 0 0-1.429 2.233 2.55 2.55 0 0 0 1.343 2.222l49.772 28.585a3.84 3.84 0 0 0 2.196.455 5.4 5.4 0 0 0 2.141-.634l23.91-13.078a2.61 2.61 0 0 0 1.43-2.232 2.55 2.55 0 0 0-1.342-2.221l-49.407-28.375a5.2 5.2 0 0 0-2.156-.667 3.94 3.94 0 0 0-2.196.444z"/><path fill="#f2f2f3" d="M312.698 244.031a2.59 2.59 0 0 0-1.411 2.202 2.51 2.51 0 0 0 1.325 2.193l49.772 28.585c.67.366 1.436.521 2.196.445a5.5 5.5 0 0 0 2.136-.641l23.88-13.062a2.58 2.58 0 0 0 1.411-2.2 2.51 2.51 0 0 0-1.324-2.192l-49.376-28.36a5.3 5.3 0 0 0-2.152-.675 3.9 3.9 0 0 0-2.196.439z"/><path fill="#f1f1f3" d="M312.711 244.058a2.56 2.56 0 0 0-.991.896 2.55 2.55 0 0 0-.4 1.274 2.48 2.48 0 0 0 1.307 2.158l49.772 28.585c.67.367 1.436.52 2.196.439a5.55 5.55 0 0 0 2.131-.649l23.85-13.046a2.54 2.54 0 0 0 1.39-2.168 2.47 2.47 0 0 0-1.305-2.158l-49.345-28.341a5.4 5.4 0 0 0-2.147-.684 3.85 3.85 0 0 0-2.196.427z"/><path fill="#f0f0f2" d="M312.728 244.09a2.51 2.51 0 0 0-1.373 2.137 2.45 2.45 0 0 0 1.288 2.128l49.772 28.585c.67.365 1.437.514 2.196.427a5.6 5.6 0 0 0 2.122-.657l23.822-13.03a2.5 2.5 0 0 0 1.373-2.136 2.44 2.44 0 0 0-1.288-2.127l-49.315-28.323a5.5 5.5 0 0 0-2.142-.692 3.8 3.8 0 0 0-2.196.418z"/><path fill="#eff0f1" d="M312.748 244.124a2.47 2.47 0 0 0-1.353 2.105 2.4 2.4 0 0 0 1.27 2.095l49.772 28.585a3.66 3.66 0 0 0 2.196.418 5.7 5.7 0 0 0 2.123-.663l23.788-13.01a2.47 2.47 0 0 0 1.354-2.105 2.4 2.4 0 0 0-1.269-2.095l-49.284-28.305a5.6 5.6 0 0 0-2.138-.701 3.76 3.76 0 0 0-2.195.409z"/><path fill="#eeeff0" d="M312.765 244.156a2.43 2.43 0 0 0-1.335 2.074 2.37 2.37 0 0 0 1.252 2.064l49.772 28.585a3.63 3.63 0 0 0 2.196.409 5.8 5.8 0 0 0 2.113-.671l23.763-12.997a2.43 2.43 0 0 0 1.335-2.072 2.37 2.37 0 0 0-1.251-2.063l-49.253-28.286a5.7 5.7 0 0 0-2.134-.709 3.7 3.7 0 0 0-2.196.401z"/><path fill="#edeeef" d="M312.784 244.188a2.4 2.4 0 0 0-1.317 2.041 2.32 2.32 0 0 0 1.234 2.033l49.772 28.585a3.6 3.6 0 0 0 2.191.401 6 6 0 0 0 2.108-.679l23.733-12.98a2.4 2.4 0 0 0 1.317-2.041 2.33 2.33 0 0 0-1.233-2.032l-49.222-28.271a5.8 5.8 0 0 0-2.129-.718 3.7 3.7 0 0 0-2.191.393z"/><path fill="#ecedee" d="M312.802 244.221a2.35 2.35 0 0 0-.922.829 2.35 2.35 0 0 0-.376 1.181 2.3 2.3 0 0 0 1.216 2.001l49.772 28.585a3.55 3.55 0 0 0 2.191.392 6.1 6.1 0 0 0 2.102-.687l23.704-12.964a2.36 2.36 0 0 0 1.297-2.008 2.3 2.3 0 0 0-1.215-2.001l-49.192-28.253a6 6 0 0 0-2.123-.727 3.64 3.64 0 0 0-2.19.384z"/><path fill="#ebeced" d="M312.818 244.252a2.32 2.32 0 0 0-1.279 1.978 2.26 2.26 0 0 0 1.198 1.969l49.772 28.585a3.5 3.5 0 0 0 2.189.383 6.2 6.2 0 0 0 2.097-.694l23.674-12.948a2.33 2.33 0 0 0 1.279-1.973 2.26 2.26 0 0 0-.327-1.149 2.26 2.26 0 0 0-.869-.82l-49.162-28.236a6.1 6.1 0 0 0-2.123-.736 3.6 3.6 0 0 0-2.189.376z"/><path fill="#eaebec" d="M312.837 244.289a2.28 2.28 0 0 0-1.261 1.945 2.23 2.23 0 0 0 1.18 1.938l49.772 28.586c.669.36 1.437.491 2.188.373a6.3 6.3 0 0 0 2.091-.701l23.642-12.932a2.29 2.29 0 0 0 1.26-1.945 2.21 2.21 0 0 0-1.178-1.937l-49.132-28.218a6.2 6.2 0 0 0-2.114-.744 3.56 3.56 0 0 0-2.189.366z"/><path fill="#e9eaeb" d="M312.854 244.314c-.359.18-.664.452-.883.788a2.27 2.27 0 0 0-.362 1.126 2.19 2.19 0 0 0 1.16 1.906l49.773 28.586a3.44 3.44 0 0 0 2.187.365 6.5 6.5 0 0 0 2.085-.709l23.615-12.916a2.25 2.25 0 0 0 1.244-1.913 2.19 2.19 0 0 0-1.16-1.906l-49.101-28.2a6.4 6.4 0 0 0-2.11-.753 3.52 3.52 0 0 0-2.187.359z"/><path fill="#e8e9eb" d="M312.873 244.348a2.23 2.23 0 0 0-1.223 1.882 2.16 2.16 0 0 0 1.143 1.875l49.772 28.586a3.4 3.4 0 0 0 2.186.355 6.6 6.6 0 0 0 2.08-.716l23.585-12.9a2.22 2.22 0 0 0 1.223-1.881 2.15 2.15 0 0 0-1.142-1.874l-49.07-28.183a6.5 6.5 0 0 0-2.105-.761 3.48 3.48 0 0 0-2.187.349z"/><path fill="#e7e8ea" d="M312.891 244.379a2.18 2.18 0 0 0-1.203 1.85 2.1 2.1 0 0 0 1.125 1.843l49.772 28.586a3.38 3.38 0 0 0 2.184.346 6.7 6.7 0 0 0 2.075-.724l23.556-12.883a2.18 2.18 0 0 0 1.204-1.849 2.1 2.1 0 0 0-1.123-1.843l-49.041-28.166a6.7 6.7 0 0 0-2.1-.769 3.45 3.45 0 0 0-2.185.34z"/><path fill="#e6e7e9" d="M312.907 244.409a2.15 2.15 0 0 0-1.184 1.817 2.08 2.08 0 0 0 1.106 1.812l49.772 28.586a3.34 3.34 0 0 0 2.183.337 6.9 6.9 0 0 0 2.069-.731l23.527-12.864a2.14 2.14 0 0 0 1.185-1.817 2.08 2.08 0 0 0-1.105-1.811l-49.009-28.148a6.8 6.8 0 0 0-2.097-.778 3.4 3.4 0 0 0-2.183.333z"/><path fill="#e5e6e8" d="M312.925 244.441a2.11 2.11 0 0 0-1.167 1.785 2.04 2.04 0 0 0 1.088 1.78l49.772 28.586a3.3 3.3 0 0 0 2.182.328 7 7 0 0 0 2.064-.739l23.495-12.852a2.1 2.1 0 0 0 1.167-1.785 2.05 2.05 0 0 0-1.087-1.78l-48.979-28.13a7 7 0 0 0-2.092-.787 3.37 3.37 0 0 0-2.182.324z"/><path fill="#e4e5e7" d="M312.944 244.475c-.33.164-.61.413-.811.722a2.07 2.07 0 0 0-.336 1.032 2 2 0 0 0 1.07 1.749l49.772 28.585a3.28 3.28 0 0 0 2.181.32 7.2 7.2 0 0 0 2.058-.746l23.467-12.836c.33-.164.611-.413.812-.722.202-.308.318-.664.336-1.032a2.01 2.01 0 0 0-1.069-1.749l-48.949-28.112a7.2 7.2 0 0 0-2.087-.796 3.34 3.34 0 0 0-2.181.315z"/><path fill="#e3e4e6" d="M312.961 244.505a2.03 2.03 0 0 0-1.129 1.722 1.96 1.96 0 0 0 1.052 1.717l49.772 28.585c.668.355 1.44.465 2.18.31a7.4 7.4 0 0 0 2.05-.754l23.437-12.819a2.03 2.03 0 0 0 1.129-1.721 1.96 1.96 0 0 0-1.051-1.716l-48.918-28.095a7.3 7.3 0 0 0-2.082-.804 3.3 3.3 0 0 0-2.181.306z"/><path fill="#e2e3e5" d="M312.979 244.538a2 2 0 0 0-1.11 1.689 1.93 1.93 0 0 0 1.034 1.686l49.772 28.586a3.2 3.2 0 0 0 2.179.302 7.6 7.6 0 0 0 2.049-.762l23.408-12.803a1.99 1.99 0 0 0 1.111-1.689 1.92 1.92 0 0 0-1.033-1.685l-48.887-28.077a7.6 7.6 0 0 0-2.078-.812 3.26 3.26 0 0 0-2.179.297z"/><path fill="#e1e2e4" d="M312.997 244.569a1.96 1.96 0 0 0-1.091 1.658 1.9 1.9 0 0 0 1.016 1.653l49.772 28.586c.668.353 1.44.457 2.178.293.713-.16 1.4-.419 2.041-.769l23.379-12.787a1.97 1.97 0 0 0 1.092-1.658 1.9 1.9 0 0 0-1.015-1.653l-48.856-28.06a7.8 7.8 0 0 0-2.073-.821 3.23 3.23 0 0 0-2.179.292z"/><path fill="#e0e1e3" d="M313.016 244.601a1.94 1.94 0 0 0-1.073 1.626 1.87 1.87 0 0 0 .998 1.622l49.772 28.586c.668.352 1.44.453 2.176.283a8 8 0 0 0 2.036-.776l23.349-12.771a1.94 1.94 0 0 0 1.073-1.626 1.86 1.86 0 0 0-.996-1.621l-48.827-28.043a8 8 0 0 0-2.068-.83 3.2 3.2 0 0 0-2.177.281z"/><path fill="#e0e0e3" d="M313.032 244.635a1.9 1.9 0 0 0-1.053 1.595 1.83 1.83 0 0 0 .979 1.591l49.772 28.585c.668.352 1.44.45 2.175.275a8.3 8.3 0 0 0 2.03-.785l23.32-12.754a1.9 1.9 0 0 0 1.053-1.593 1.82 1.82 0 0 0-.978-1.591l-48.796-28.026a8.2 8.2 0 0 0-2.064-.837 3.17 3.17 0 0 0-2.176.271z"/><path fill="#dfdfe2" d="M313.049 244.666a1.85 1.85 0 0 0-1.035 1.563 1.78 1.78 0 0 0 .961 1.559l49.772 28.586a3.1 3.1 0 0 0 2.174.265 8.5 8.5 0 0 0 2.024-.791l23.291-12.739a1.86 1.86 0 0 0 1.035-1.561 1.78 1.78 0 0 0-.96-1.559l-48.766-28.008a8.5 8.5 0 0 0-2.059-.847 3.14 3.14 0 0 0-2.175.263z"/><path fill="#dedee1" d="M313.067 244.696a1.82 1.82 0 0 0-1.016 1.531 1.75 1.75 0 0 0 .943 1.527l49.772 28.586a3.06 3.06 0 0 0 2.173.257 8.8 8.8 0 0 0 2.019-.799l23.261-12.722a1.82 1.82 0 0 0 1.016-1.53 1.74 1.74 0 0 0-.942-1.527l-48.735-27.994a8.8 8.8 0 0 0-2.054-.855 3.1 3.1 0 0 0-2.174.254z"/><path fill="#dddde0" d="M313.085 244.73a1.78 1.78 0 0 0-.997 1.499 1.7 1.7 0 0 0 .924 1.495l49.772 28.586c.668.35 1.443.439 2.172.248a9 9 0 0 0 2.014-.804l23.232-12.706a1.78 1.78 0 0 0 .997-1.498 1.7 1.7 0 0 0-.923-1.495l-48.705-27.974a9 9 0 0 0-2.049-.864 3.07 3.07 0 0 0-2.173.247z"/><path fill="#dcdcdf" d="M313.104 244.76a1.75 1.75 0 0 0-.979 1.467 1.68 1.68 0 0 0 .906 1.462l49.772 28.585c.668.35 1.443.435 2.17.239a9.4 9.4 0 0 0 2.008-.814l23.203-12.69a1.75 1.75 0 0 0 .978-1.466 1.67 1.67 0 0 0-.905-1.462l-48.674-27.956a9.5 9.5 0 0 0-2.046-.872 3.04 3.04 0 0 0-2.171.238z"/><path fill="#dbdbde" d="M313.122 244.792a1.71 1.71 0 0 0-.96 1.435 1.64 1.64 0 0 0 .888 1.432l49.772 28.586a2.97 2.97 0 0 0 2.17.23 9.7 9.7 0 0 0 2.002-.822l23.172-12.674a1.72 1.72 0 0 0 .96-1.434 1.64 1.64 0 0 0-.887-1.432l-48.644-27.939a9.8 9.8 0 0 0-2.041-.877 3 3 0 0 0-2.17.229z"/><path fill="#dadadd" d="M313.14 244.824a1.68 1.68 0 0 0-.941 1.403 1.6 1.6 0 0 0 .87 1.401l49.772 28.586a2.94 2.94 0 0 0 2.168.219 10 10 0 0 0 1.997-.828l23.142-12.658a1.67 1.67 0 0 0 .941-1.402 1.59 1.59 0 0 0-.868-1.401l-48.613-27.921a10 10 0 0 0-2.036-.89 2.98 2.98 0 0 0-2.169.22z"/><path fill="#d9d9dc" d="M313.157 244.857a1.64 1.64 0 0 0-.923 1.371 1.57 1.57 0 0 0 .852 1.37l49.773 28.585a2.92 2.92 0 0 0 2.167.212c.69-.21 1.358-.49 1.991-.836l23.113-12.645a1.64 1.64 0 0 0 .922-1.371 1.56 1.56 0 0 0-.85-1.369l-48.582-27.903a10.6 10.6 0 0 0-2.032-.898 2.95 2.95 0 0 0-2.167.212z"/><path fill="#d8d8db" d="M313.175 244.89a1.6 1.6 0 0 0-.904 1.339 1.53 1.53 0 0 0 .834 1.337l49.772 28.586c.668.347 1.445.42 2.166.203a11 11 0 0 0 1.986-.844l23.084-12.626a1.6 1.6 0 0 0 .903-1.338 1.52 1.52 0 0 0-.833-1.338l-48.552-27.886a11 11 0 0 0-2.027-.906 2.93 2.93 0 0 0-2.167.203z"/><path fill="#d7d7db" d="M313.193 244.921a1.56 1.56 0 0 0-.884 1.307 1.49 1.49 0 0 0 .815 1.306l49.772 28.585a2.87 2.87 0 0 0 2.164.194 11.3 11.3 0 0 0 1.981-.851l23.056-12.609a1.58 1.58 0 0 0 .885-1.306 1.5 1.5 0 0 0-.225-.767 1.5 1.5 0 0 0-.589-.54l-48.522-27.868a11.5 11.5 0 0 0-2.022-.915 2.9 2.9 0 0 0-2.166.195z"/><path fill="#d6d6da" d="M313.211 244.954a1.53 1.53 0 0 0-.865 1.275 1.45 1.45 0 0 0 .797 1.275l49.772 28.586a2.85 2.85 0 0 0 2.163.184 12 12 0 0 0 1.977-.859l23.024-12.593a1.53 1.53 0 0 0 .866-1.275 1.45 1.45 0 0 0-.796-1.274l-48.491-27.848a12 12 0 0 0-2.018-.924 2.87 2.87 0 0 0-2.164.187z"/><path fill="#d5d5d9" d="M313.23 244.985a1.49 1.49 0 0 0-.847 1.242 1.42 1.42 0 0 0 .778 1.243l49.772 28.585a2.8 2.8 0 0 0 2.163.176c.68-.232 1.339-.521 1.969-.866l22.995-12.577a1.5 1.5 0 0 0 .847-1.243 1.42 1.42 0 0 0-.777-1.242l-48.461-27.833a12.6 12.6 0 0 0-2.013-.932 2.84 2.84 0 0 0-2.163.177z"/><path fill="#d4d4d8" d="M313.247 245.019a1.46 1.46 0 0 0-.829 1.211 1.38 1.38 0 0 0 .761 1.212l49.772 28.586a2.8 2.8 0 0 0 2.162.166 13 13 0 0 0 1.963-.877l22.965-12.561a1.46 1.46 0 0 0 .829-1.21 1.38 1.38 0 0 0-.76-1.211l-48.43-27.816a13 13 0 0 0-2.009-.941 2.82 2.82 0 0 0-2.162.169z"/><path fill="#d3d3d7" d="M313.265 245.049a1.43 1.43 0 0 0-.81 1.179 1.34 1.34 0 0 0 .743 1.18l49.772 28.586a2.77 2.77 0 0 0 2.16.157q1.014-.364 1.958-.881l22.936-12.545a1.42 1.42 0 0 0 .81-1.178 1.34 1.34 0 0 0-.742-1.18l-48.399-27.798a14 14 0 0 0-2.004-.951 2.79 2.79 0 0 0-2.161.161z"/><path fill="#d2d2d6" d="M313.283 245.082a1.39 1.39 0 0 0-.791 1.148 1.31 1.31 0 0 0 .724 1.149l49.772 28.586a2.75 2.75 0 0 0 2.159.146 14.5 14.5 0 0 0 1.952-.889l22.91-12.529a1.38 1.38 0 0 0 .791-1.146 1.31 1.31 0 0 0-.723-1.149l-48.369-27.781a15 15 0 0 0-2-.958 2.77 2.77 0 0 0-2.159.151z"/><path fill="#d1d1d5" d="M313.303 245.114a1.35 1.35 0 0 0-.772 1.115 1.27 1.27 0 0 0 .707 1.117l49.772 28.586a2.7 2.7 0 0 0 2.158.14 15.5 15.5 0 0 0 1.946-.896l22.877-12.512a1.36 1.36 0 0 0 .772-1.115 1.27 1.27 0 0 0-.706-1.117l-48.338-27.764a16 16 0 0 0-1.995-.966 2.75 2.75 0 0 0-2.159.146z"/><path fill="#d0d1d4" d="M313.317 245.146a1.31 1.31 0 0 0-.753 1.083 1.25 1.25 0 0 0 .688 1.086l49.773 28.586a2.7 2.7 0 0 0 2.156.13q1-.388 1.941-.903l22.848-12.499a1.32 1.32 0 0 0 .753-1.082 1.24 1.24 0 0 0-.687-1.086l-48.308-27.746a17 17 0 0 0-1.991-.975 2.72 2.72 0 0 0-2.157.135z"/><path fill="#cfd0d3" d="M313.335 245.176a1.28 1.28 0 0 0-.731 1.052 1.2 1.2 0 0 0 .669 1.054l49.772 28.587a2.7 2.7 0 0 0 2.156.121q.996-.397 1.936-.911l22.818-12.481a1.28 1.28 0 0 0 .732-1.051 1.19 1.19 0 0 0-.669-1.054l-48.277-27.728a18 18 0 0 0-1.986-.984 2.7 2.7 0 0 0-2.156.126z"/><path fill="#cecfd3" d="M313.354 245.209a1.24 1.24 0 0 0-.715 1.023c.004.214.067.422.181.603.115.18.278.326.47.42l49.772 28.586a2.66 2.66 0 0 0 2.154.112q.991-.404 1.93-.918l22.79-12.464a1.25 1.25 0 0 0 .715-1.019 1.17 1.17 0 0 0-.65-1.023l-48.247-27.711q-.962-.553-1.982-.992a2.67 2.67 0 0 0-2.155.116z"/><path fill="#cdced2" d="M313.372 245.24a1.21 1.21 0 0 0-.696.988 1.12 1.12 0 0 0 .633.99l49.772 28.587a2.64 2.64 0 0 0 2.153.103 21 21 0 0 0 1.924-.926l22.759-12.448a1.22 1.22 0 0 0 .697-.987 1.12 1.12 0 0 0-.633-.991l-48.216-27.693a21 21 0 0 0-1.977-1 2.64 2.64 0 0 0-2.154.108z"/><path fill="#cccdd1" d="M313.389 245.272a1.18 1.18 0 0 0-.678.956 1.09 1.09 0 0 0 .616.959l49.772 28.586a2.62 2.62 0 0 0 2.152.094c.139 0 1.806-.871 1.918-.933l22.73-12.431a1.18 1.18 0 0 0 .678-.956 1.09 1.09 0 0 0-.615-.958l-48.186-27.676c-.11-.065-1.829-1.01-1.976-1.01a2.6 2.6 0 0 0-1.087-.181 2.6 2.6 0 0 0-1.065.281z"/><path fill="#cbccd0" d="M313.407 245.305a1.14 1.14 0 0 0-.659.924 1.06 1.06 0 0 0 .597.927l49.772 28.586a2.6 2.6 0 0 0 2.15.086c.127 0 1.812-.885 1.913-.942l22.701-12.415a1.14 1.14 0 0 0 .659-.923 1.06 1.06 0 0 0-.595-.928l-48.156-27.658c-.1-.058-1.838-1.018-1.967-1.018a2.6 2.6 0 0 0-2.151.091z"/><path fill="#cacbcf" d="M313.424 245.336a1.1 1.1 0 0 0-.641.893 1.03 1.03 0 0 0 .579.896l49.772 28.585a2.58 2.58 0 0 0 2.15.074c.115 0 1.816-.898 1.908-.951l22.671-12.399a1.1 1.1 0 0 0 .64-.891 1.01 1.01 0 0 0-.578-.896l-48.126-27.635c-.091-.052-1.847-1.023-1.963-1.023a2.58 2.58 0 0 0-2.151.083z"/><path fill="#c9cace" d="M313.442 245.369a1.07 1.07 0 0 0-.622.86.99.99 0 0 0 .561.864l49.772 28.587a2.55 2.55 0 0 0 2.148.067c.103 0 1.822-.911 1.903-.956l22.642-12.383a1.07 1.07 0 0 0 .622-.86 1 1 0 0 0-.158-.51.97.97 0 0 0-.401-.353l-48.095-27.624c-.08-.046-1.855-1.035-1.959-1.035a2.56 2.56 0 0 0-2.149.073z"/><path fill="#c8c9cd" d="M313.462 245.398a1.04 1.04 0 0 0-.603.828.95.95 0 0 0 .542.833l49.772 28.586a2.53 2.53 0 0 0 2.148.059c.089 0 1.825-.925 1.896-.964l22.612-12.367a1.04 1.04 0 0 0 .603-.827.95.95 0 0 0-.542-.833l-48.063-27.606c-.073-.041-1.864-1.044-1.955-1.044a2.54 2.54 0 0 0-2.148.065z"/><path fill="#c7c8cc" d="M313.478 245.431a.99.99 0 0 0-.585.796.9.9 0 0 0 .524.804l49.772 28.587a2.52 2.52 0 0 0 2.146.05c.073 0 1.83-.937 1.89-.972l22.583-12.352a1 1 0 0 0 .586-.795.91.91 0 0 0-.524-.804l-48.033-27.588c-.06-.036-1.872-1.053-1.95-1.053a2.5 2.5 0 0 0-1.079-.212 2.5 2.5 0 0 0-1.067.269z"/><path fill="#c6c7cb" d="M313.495 245.463a.97.97 0 0 0-.565.764.87.87 0 0 0 .506.77l49.772 28.586a2.49 2.49 0 0 0 2.144.04c.064 0 1.835-.95 1.886-.978l22.552-12.335a.96.96 0 0 0 .566-.764.87.87 0 0 0-.505-.77l-48.003-27.57c-.05-.029-1.88-1.061-1.944-1.061a2.5 2.5 0 0 0-2.146.048z"/><path fill="#c5c6cb" d="M313.514 245.494a.93.93 0 0 0-.547.731.84.84 0 0 0 .488.738l49.772 28.587a2.46 2.46 0 0 0 2.143.031c.051 0 1.84-.963 1.881-.986l22.523-12.318a.93.93 0 0 0 .547-.731.84.84 0 0 0-.487-.739l-47.972-27.555c-.041-.023-1.889-1.069-1.941-1.069a2.48 2.48 0 0 0-2.144.039z"/><path fill="#c4c5ca" d="M313.528 245.527a.9.9 0 0 0-.528.701.81.81 0 0 0 .47.706l49.772 28.587a2.45 2.45 0 0 0 2.142.023c.038 0 1.844-.977 1.875-.994l22.493-12.302a.89.89 0 0 0 .529-.7.81.81 0 0 0-.469-.707l-47.942-27.535c-.03-.018-1.897-1.078-1.936-1.078a2.45 2.45 0 0 0-2.143.03z"/><path fill="#c3c4c9" d="M313.548 245.562a.86.86 0 0 0-.513.668.76.76 0 0 0 .451.675l49.772 28.587a2.43 2.43 0 0 0 2.142.013c.025 0 1.848-.99 1.868-1.001l22.465-12.287a.86.86 0 0 0 .512-.668.76.76 0 0 0-.451-.675l-47.912-27.518c-.02-.012-1.903-1.087-1.931-1.087a2.43 2.43 0 0 0-2.142.022z"/><path fill="#c2c3c8" d="M313.568 245.591a.82.82 0 0 0-.49.636.74.74 0 0 0 .433.644l49.773 28.586a2.42 2.42 0 0 0 2.14.005c.013 0 1.853-1.003 1.863-1.009l22.435-12.27a.83.83 0 0 0 .49-.636.73.73 0 0 0-.431-.643L341.9 233.403c-.01-.006-1.914-1.096-1.927-1.096a2.4 2.4 0 0 0-2.141.013z"/><path fill="#c1c2c7" d="m389.759 260.935-49.772-28.587a2.38 2.38 0 0 0-2.14.005l-24.262 13.269c-.607.338-.631.883-.056 1.217l49.772 28.586a2.4 2.4 0 0 0 2.139-.004l24.263-13.271c.606-.337.63-.88.056-1.215"/></g><path fill="#cbd3fa" d="M313.781 245.665h3.31v.593l19.704-10.656c1.525-.883 4.194-.776 5.959.238l43.442 24.131v-.473h3.31v2.552h-.008a.35.35 0 0 1-.177.278l-23.49 13.01c-1.43.828-3.929.731-5.585-.224l-46.282-26.531a.35.35 0 0 1-.138-.157.33.33 0 0 1-.019-.209h-.028z"/><path fill="#f3f1f6" d="M313.964 245.296a.35.35 0 0 0-.132.134.36.36 0 0 0 .132.497l46.282 26.532c1.655.95 4.155 1.051 5.585.224l23.49-13.011a.35.35 0 0 0 .183-.284.36.36 0 0 0-.137-.309l-46.611-25.892c-1.766-1.014-4.434-1.12-5.959-.237l-22.825 12.34z"/><path fill="#cbd3fa" d="M364.657 186.973c-10.414-5.898-21.645-.146-21.543 11.042l29.977 58.938 2.095-1.17-.489-52.502c-.061-6.449-4.034-12.905-10.04-16.308"/><path fill="#e6e6eb" d="M362.561 188.141c-10.413-5.898-21.642-.146-21.539 11.037l.366 39.816 31.698 17.954-.488-52.502c-.055-6.447-4.031-12.902-10.037-16.305"/><path fill="#cbd3fa" d="m434.641 160.281-8.044 65.449-4.035 32.776c-.323 2.622-1.797 6.586-6.841 6.586-.025-.013-.04 0-.052 0a10.5 10.5 0 0 1-2.094-.232.11.11 0 0 1-.117-.04l-38.396-23.023-.014-.013-2.108-1.279h-.012l-11.795-7.09h-.025l-19.877-11.934-52.7-31.639a3.59 3.59 0 0 1-1.94-3.512l.854-8.279 2.87-27.622 6.376-61.522a4.16 4.16 0 0 1 1.305-2.519c.039-.039.078-.064.118-.102q.184-.168.388-.31c2.122-1.627 5.573-1.963 7.564-.827l24.766 14 56.992 32.245 2.574 1.462 17.626 9.97 24.676 13.947a3.57 3.57 0 0 1 1.941 3.508"/><path fill="#f3f1f6" d="m432.21 161.96-12.235 99.477c-.244 2.014-2.147 3.422-4.253 3.654-.026-.013-.041 0-.054 0a5.1 5.1 0 0 1-2.094-.231.1.1 0 0 1-.064-.003.1.1 0 0 1-.053-.037 3.5 3.5 0 0 1-.878-.373l-37.504-21.489-2.123-1.213h-.012l-10.696-6.135-.026-.013-20.976-12.023-55.105-31.576a3.57 3.57 0 0 1-1.926-3.551l1.409-11.429 3.362-27.336 7.466-60.722a3.77 3.77 0 0 1 1.551-2.57c.039-.04.078-.065.117-.103q.212-.154.439-.285a5.46 5.46 0 0 1 5.289-.051l86.245 49.422 40.184 23.023a3.61 3.61 0 0 1 1.937 3.564"/><path fill="#ededed" d="M426.705 165.179 415.5 256.217c-.202 1.653-2.439 2.579-4.06 1.664l-6.286-3.552h-.012l-14.528-8.197h-.011l-9.911-5.585-27.594-15.568-60.766-34.255a5.17 5.17 0 0 1-2.819-5.116l11.197-91.049c.213-1.653 2.449-2.568 4.07-1.664l23.846 13.448 27.581 15.548 9.933 5.606 13.767 7.763 43.978 24.795a5.19 5.19 0 0 1 2.82 5.124"/><path fill="#7ca7f0" d="m420.166 243.492-.155.362a11.2 11.2 0 0 1-2.754-1.925c-4.423-4.119-4.954-11.183-5.459-18.04-.323-4.313-.646-8.717-1.952-12.385-1.098-3.086-2.909-5.643-5.988-7.206-6.75-3.421-13.074 1.292-19.19 5.848-6.208 4.623-12.637 9.414-19.617 5.875-6.979-3.538-7.617-11.894-8.197-19.978-.543-7.193-1.098-14.606-6.196-18.492-.233-.168-.477-.348-.724-.503l-.073-.04c-.311-.193-.621-.386-.958-.555-.063-.026-.128-.064-.194-.09l-.064-.026a10 10 0 0 0-1.383-.555c-6.143-1.974-11.924 2.35-17.549 6.522-6.208 4.635-12.623 9.429-19.617 5.889-6.971-3.539-7.604-11.894-8.197-19.966-.57-7.568-1.125-15.355-6.985-19.061a13 13 0 0 0-.854-.491c-.038-.012-.064-.038-.103-.051l.155-.362c.325.155.635.336.919.503 6.131 3.784 6.712 11.739 7.281 19.462.595 7.955 1.203 16.169 7.953 19.589 6.749 3.419 13.076-1.292 19.177-5.848 5.444-4.054 11.045-8.225 17.032-6.818a.1.1 0 0 1 .052.013q.428.076.839.219c.208.064.402.142.609.219l.052.026c.349.129.685.284 1.034.452q.89.452 1.694 1.046a.3.3 0 0 1 .065.039q.617.463 1.164 1.007l.026.025c4.255 4.171 4.758 11.11 5.25 17.861.608 7.955 1.202 16.181 7.953 19.603 6.764 3.409 13.089-1.291 19.192-5.863 6.208-4.623 12.634-9.414 19.616-5.877a12.47 12.47 0 0 1 6.028 6.935c1.499 3.823 1.836 8.472 2.172 13.031.492 6.651 1.009 13.495 5.108 17.562a11 11 0 0 0 2.837 2.047z"/><path fill="#7ca7f0" d="m374.711 190.347-.073.323-.35-.194-22.308-12.308-1.294-.71-.749-.413-.073-.038-1.152-.646-.064-.026-1.333-.735v-.013l-.788-.427-23.564-12.994-.428-.246.073-.322.439.245 24.327 13.417.595.336.052.026 2.728 1.497v.013l.066.027 23.561 12.992z"/><path fill="#7ca7f0" d="M323.042 161.847a.6.6 0 0 1-.025.168.4.4 0 0 1-.063.155.884.884 0 0 1-.97.53.9.9 0 0 1-.363-.156 1.71 1.71 0 0 1-.841-1.769.89.89 0 0 1 .555-.643.9.9 0 0 1 .842.113 1.74 1.74 0 0 1 .865 1.602m53.515 29.702a.91.91 0 0 1-1 .691.9.9 0 0 1-.409-.162 1.72 1.72 0 0 1-.868-1.601.6.6 0 0 1 .028-.168.4.4 0 0 1 .064-.155.87.87 0 0 1 1.333-.366 1.71 1.71 0 0 1 .852 1.761m-25.426-15.974-.388 1.55v.013l-.065.323-.026.09-.361 1.462-3.377-1.86.337-1.369.051-.18v-.013l.051-.206.014-.117.388-1.549z"/><path fill="url(#g)" d="m426.68 165.128-1.109 8.973-125.919-71.273 1.025-8.326c.226-1.649 2.453-2.568 4.081-1.66l23.846 13.448 27.574 15.546 9.93 5.606 13.776 7.761 43.975 24.802a5.18 5.18 0 0 1 2.821 5.123"/><path fill="#fff" d="m403.003 158.719-7.595-4.44a.7.7 0 0 1-.351-.611c.026-.208.226-.273.447-.146l7.595 4.441a.69.69 0 0 1 .352.611c-.027.21-.227.275-.448.145m17.964 10.501a.76.76 0 0 1-.293-.314l-4.163-8.347c-.119-.243-.067-.467.12-.5a.61.61 0 0 1 .557.377l4.162 8.347c.122.242.068.466-.119.5a.4.4 0 0 1-.264-.063"/><path fill="#fff" d="M416.109 166.379a.75.75 0 0 1-.245-.236c-.153-.233-.146-.484.016-.562l5.553-2.665c.165-.074.418.05.569.28.152.23.147.484-.015.562l-5.553 2.666a.36.36 0 0 1-.325-.045m-3.854-9.043a5.9 5.9 0 0 0-2.677-1.937 2.85 2.85 0 0 0-2.715.336 2.78 2.78 0 0 0-.918 2.518 6.11 6.11 0 0 0 3.97 4.947 3.7 3.7 0 0 0 1.14.193 2.5 2.5 0 0 0 1.577-.517 2.78 2.78 0 0 0 .919-2.518 5.7 5.7 0 0 0-1.296-3.022m-.194 4.831a1.95 1.95 0 0 1-1.862.181 5.27 5.27 0 0 1-3.362-4.171 1.9 1.9 0 0 1 .595-1.731 1.6 1.6 0 0 1 1.024-.323c.291.002.58.051.855.146a5.23 5.23 0 0 1 3.348 4.171 1.9 1.9 0 0 1-.598 1.727"/></g><defs><linearGradient id="a" x1="203.662" x2="266.368" y1="567.772" y2="269.405" gradientUnits="userSpaceOnUse"><stop stop-color="#fff" stop-opacity="0"/><stop offset="1" stop-color="#e8e8e8"/></linearGradient><linearGradient id="b" x1="259.081" x2="433.17" y1="155.253" y2="412.216" gradientUnits="userSpaceOnUse"><stop stop-color="#fff"/><stop offset="1" stop-color="#dbdbdb"/></linearGradient><linearGradient id="c" x1="-26.001" x2="143.54" y1="676.637" y2="206.45" gradientUnits="userSpaceOnUse"><stop stop-color="#fff"/><stop offset="1" stop-color="#e9e9e9" stop-opacity=".631"/></linearGradient><linearGradient id="d" x1="29.251" x2="203.34" y1="34.581" y2="291.544" gradientUnits="userSpaceOnUse"><stop stop-color="#fff"/><stop offset="1" stop-color="#e0e2e9"/></linearGradient><linearGradient id="e" x1="78.456" x2="563.274" y1="-37.696" y2="144.051" gradientUnits="userSpaceOnUse"><stop stop-color="#fff"/><stop offset="1" stop-color="#c0cbd5"/></linearGradient><linearGradient id="f" x1="112.341" x2="199.333" y1="-12.555" y2="86.861" gradientUnits="userSpaceOnUse"><stop stop-color="#ffe06a"/><stop offset="1" stop-color="#fff3c7"/></linearGradient><linearGradient id="g" x1="299.652" x2="426.704" y1="133.293" y2="133.293" gradientUnits="userSpaceOnUse"><stop stop-color="#5e98f7"/><stop offset="1" stop-color="#4670ba"/></linearGradient></defs></svg>