<svg xmlns="http://www.w3.org/2000/svg" width="48" height="87" fill="none" viewBox="0 0 48 87"><g fill-rule="evenodd" clip-path="url(#a)" clip-rule="evenodd"><path fill="#f0f3fa" d="M5.121 86.398 1.892 84.56l-.177-.123-.16-.149-.14-.18-.115-.21-.095-.235-.067-.262-.043-.288-.01-.31V27.67l.01-.33.043-.334.067-.334.095-.345.115-.34.14-.339.16-.33.177-.324.199-.313.209-.304.23-.282.238-.273.25-.247.267-.234.272-.201.282-.175 5.904-3.365 3.519-1.991L30.896 7.576l3.072-1.745 6.353-3.613.276-.145.278-.108.266-.072.252-.041h.238l.23.025.209.062.198.093 3.23 1.832-.199-.087-.214-.062-.225-.026h-.239l-.257.04-.26.073-.271.112-.283.144-6.354 3.612-3.072 1.745-17.634 10.03-3.515 1.997-5.905 3.36-.282.175-.272.2-.262.235-.256.247-.238.268-.23.288-.209.304-.199.313-.178.324-.159.329-.135.34-.12.339-.095.34-.068.339-.041.335-.016.33v55.136l.016.31.041.287.068.258.094.234.121.21.135.175.16.157z"/><path fill="#1b69ff" d="m42.454 1.22-.75.186-.233.12L3.057 23.06l-.864 1.011-.734 1.516-.187 1.188.048 56.312.41.687 1.62.907-.01-.23V28.61l.14-1.136.571-1.506.912-1.36.865-.838.653-.438L44.437 2.19zM4.806 86.811a.65.65 0 0 1-.318-.083L.68 84.505l-.378-.537-.223-.641-.08-.735V26.75l.14-1.137.576-1.505.912-1.36.862-.838.653-.438L41.516.162l.675-.151.334-.011.636.115.303.124 3.38 1.878a.601.601 0 0 1 .248.818.653.653 0 0 1-.83.272l-.469-.128-.745.188-.238.119L6.394 24.92l-.865 1.011-.735 1.516-.19 1.188.05 56.306.513.756a.592.592 0 0 1 .173.828.632.632 0 0 1-.534.287"/><path fill="#f0f3fa" d="M44.518 65.008 6.82 86.01c-1.571.875-2.851.162-2.851-1.584V28.609c.058-.959.346-1.89.842-2.719a6.1 6.1 0 0 1 2.009-2.043l6.101-3.402 3.634-2.022L34.778 8.27l3.175-1.766 6.566-3.657c1.565-.875 2.845-.162 2.845 1.583v55.816a6 6 0 0 1-.841 2.718 6.1 6.1 0 0 1-2.004 2.045"/><path fill="#1b69ff" d="M45.79 3.078c-.337.02-.665.12-.954.292L7.132 24.38a5.5 5.5 0 0 0-1.772 1.82 5.4 5.4 0 0 0-.754 2.41v55.817a1.36 1.36 0 0 0 .518 1.245 1.47 1.47 0 0 0 1.376-.193l37.698-21.002a5.5 5.5 0 0 0 1.777-1.82c.44-.734.698-1.56.755-2.41V4.427a1.35 1.35 0 0 0-.093-.69 1.4 1.4 0 0 0-.425-.556.9.9 0 0 0-.426-.104M5.55 87c-.373.004-.74-.09-1.064-.27a2.5 2.5 0 0 1-.9-.994 2.45 2.45 0 0 1-.25-1.31V28.61a6.56 6.56 0 0 1 .923-3.029 6.7 6.7 0 0 1 2.242-2.264L44.199 2.313a2.68 2.68 0 0 1 2.647-.193c.387.245.7.59.903.996s.29.86.252 1.312v55.817a6.56 6.56 0 0 1-.925 3.03 6.7 6.7 0 0 1-2.244 2.264L7.132 86.54a3.3 3.3 0 0 1-1.581.458"/><path fill="#fff" d="M9.184 27.781v53.145L43.49 61.814V8.676A74094 74094 0 0 0 9.184 27.78"/><path fill="#1b69ff" d="M9.822 28.14v51.728l33.033-18.403V9.733zm-.636 53.4a.6.6 0 0 1-.313-.083.61.61 0 0 1-.318-.531V27.78a.6.6 0 0 1 .318-.526l34.3-19.111a.66.66 0 0 1 .637 0 .62.62 0 0 1 .312.532V61.81a.6.6 0 0 1-.312.531L9.503 81.456a.6.6 0 0 1-.318.083"/><path fill="#1b69ff" d="M21.182 23.5v-5.446q6.302-3.509 12.602-7.023v5.45zm14.466-6.284V8.223L19.32 17.32v8.987z"/><path fill="#1b69ff" d="M21.821 18.406v4.033l11.333-6.315V12.09zm-.636 5.706a.65.65 0 0 1-.549-.307.6.6 0 0 1-.087-.308v-5.446a.61.61 0 0 1 .318-.531l12.6-7.023a.68.68 0 0 1 .637 0 .61.61 0 0 1 .318.532v5.45a.6.6 0 0 1-.318.526l-12.6 7.023a.64.64 0 0 1-.319.084m-1.226-6.44 15.06-8.389v7.576l-15.061 8.388zm-.636 9.248a.7.7 0 0 1-.314-.083.61.61 0 0 1-.318-.531v-8.989a.6.6 0 0 1 .318-.532l16.328-9.097a.68.68 0 0 1 .636 0 .61.61 0 0 1 .318.532v8.993a.6.6 0 0 1-.318.526l-16.334 9.097a.7.7 0 0 1-.318.083"/><path fill="#1b69ff" d="m19.317 17.32 16.328-9.098L33.41 6.98l-1.34-.746-16.328 9.095z"/><path fill="#1b69ff" d="m17.011 15.328 2.306 1.282 15.058-8.388L32.07 6.94zm2.306 2.606a.7.7 0 0 1-.314-.083l-3.578-1.995a.61.61 0 0 1-.323-.527.6.6 0 0 1 .323-.531L31.757 5.7a.65.65 0 0 1 .636 0l3.578 1.991a.61.61 0 0 1 .318.531.6.6 0 0 1-.318.532L19.636 17.85a.7.7 0 0 1-.319.083M4.808 86.202l-3.339-1.86-.183-.125-.159-.151-.145-.183-.12-.213-.097-.235-.07-.265-.044-.292-.01-.313V26.748l.01-.333.043-.336.07-.344.098-.343.119-.343.145-.344.16-.333.182-.329.01-.016 3.34 1.86-.01.016-.184.328-.16.333-.14.34-.13.344-.092.344-.07.343-.044.339-.016.333v55.817l.016.313.043.291.071.26.092.241.13.214.14.177.159.156z"/><path fill="#1b69ff" d="m1.74 24.878-.368 1.017-.1.879.048 56.312.41.687 1.62.907-.01-.23V28.608l.14-1.135.495-1.354zM4.806 86.81a.6.6 0 0 1-.314-.083L.68 84.504l-.378-.537-.223-.646-.08-.73V26.749l.14-1.136.576-1.506.2-.36a.61.61 0 0 1 .389-.302.69.69 0 0 1 .497.047l3.334 1.861a.63.63 0 0 1 .296.376.59.59 0 0 1-.07.464l-.567 1.252-.19 1.187.05 56.307.513.756a.59.59 0 0 1 .178.828.64.64 0 0 1-.54.286M15.745 17.101l1.59.886v7.216l1.98 1.105v-8.986l-3.577-1.99z"/><path fill="#1b69ff" d="m17.977 24.853.715.396v-7.576l-2.305-1.286v.359l1.272.708a.62.62 0 0 1 .324.531zm1.344 2.068a.7.7 0 0 1-.314-.083l-1.979-1.105a.62.62 0 0 1-.323-.53V18.34l-1.272-.714a.61.61 0 0 1-.324-.526V15.33a.6.6 0 0 1 .324-.532.64.64 0 0 1 .631 0l3.578 1.99a.61.61 0 0 1 .318.532v8.984a.6.6 0 0 1-.318.531.7.7 0 0 1-.318.083M31.8 12.135v3.052l1.982 1.292v-5.452z"/><path fill="#1b69ff" d="m32.44 14.86.715.464v-3.231l-.716.396zm1.344 2.23a.64.64 0 0 1-.352-.104l-1.987-1.292a.62.62 0 0 1-.28-.505v-3.051a.6.6 0 0 1 .323-.532l1.98-1.105a.67.67 0 0 1 .632 0 .61.61 0 0 1 .318.532v5.45a.6.6 0 0 1-.34.537.6.6 0 0 1-.297.072"/><path fill="#1b69ff" d="m21.184 21.1 10.62-5.913 1.982 1.292-12.602 7.018z"/><path fill="#1b69ff" d="M21.819 21.454v.985l10.772-6.001-.815-.533zm-.636 2.66a.64.64 0 0 1-.55-.307.6.6 0 0 1-.086-.307v-2.4a.61.61 0 0 1 .318-.532l10.625-5.914a.64.64 0 0 1 .67.02l1.98 1.293a.61.61 0 0 1 .282.53.6.6 0 0 1-.32.507l-12.601 7.024a.64.64 0 0 1-.318.083M34.835 23.414a5 5 0 0 0-1.616 1.662c-.4.67-.636 1.423-.69 2.198a1.2 1.2 0 0 0 .454 1.11 1.3 1.3 0 0 0 1.22-.176 5 5 0 0 0 1.617-1.661c.4-.67.636-1.424.688-2.2a1.2 1.2 0 0 0-.449-1.11 1.31 1.31 0 0 0-1.224.177m-1.491 6.284a2.05 2.05 0 0 1-.999-.25 2.36 2.36 0 0 1-.852-.937 2.3 2.3 0 0 1-.239-1.236c.052-.994.348-1.96.86-2.818a6.2 6.2 0 0 1 2.088-2.105 2.5 2.5 0 0 1 2.49-.177c.365.23.66.554.852.936.192.383.274.81.238 1.235a6.1 6.1 0 0 1-.86 2.817 6.2 6.2 0 0 1-2.088 2.107 3.1 3.1 0 0 1-1.49.428M18.18 65.31a5.04 5.04 0 0 0-1.619 1.661 4.95 4.95 0 0 0-.692 2.2 1.22 1.22 0 0 0 .453 1.114 1.35 1.35 0 0 0 1.226-.176 5 5 0 0 0 1.62-1.662c.4-.67.637-1.423.69-2.2a1.2 1.2 0 0 0-.452-1.109 1.31 1.31 0 0 0-1.226.172m-1.49 6.29c-.352 0-.698-.088-1.005-.256a2.37 2.37 0 0 1-.847-.94 2.3 2.3 0 0 1-.236-1.233c.052-.994.348-1.96.86-2.816a6.2 6.2 0 0 1 2.088-2.103 2.5 2.5 0 0 1 2.495-.177c.364.231.657.555.848.938s.273.81.237 1.234a6.1 6.1 0 0 1-.861 2.816 6.2 6.2 0 0 1-2.09 2.103c-.449.27-.963.42-1.49.432M18.465 63.524a.64.64 0 0 1-.444-.174.62.62 0 0 1-.192-.43c-.07-8.957 4.34-13.506 8.606-17.896 3.801-3.919 7.394-7.617 7.632-14.27a.6.6 0 0 1 .147-.37.655.655 0 0 1 1.046.098l1.776 3.152a.593.593 0 0 1-.254.829.655.655 0 0 1-.863-.245l-.767-1.37c-.865 5.869-4.38 9.498-7.792 13.01-4.098 4.22-8.33 8.586-8.26 17.053a.62.62 0 0 1-.19.434.64.64 0 0 1-.442.181z"/><path fill="#1b69ff" d="M32.342 35a.64.64 0 0 1-.543-.317.61.61 0 0 1 .01-.621l2.359-3.621a.645.645 0 0 1 .874-.187.6.6 0 0 1 .28.38.6.6 0 0 1-.08.461l-2.359 3.616a.64.64 0 0 1-.54.287M18.27 40.239a.619.619 0 0 1-.612-.45.6.6 0 0 1 .062-.467l4.444-7.425a.645.645 0 0 1 .863-.224.61.61 0 0 1 .3.37.6.6 0 0 1-.06.469l-4.444 7.424a.63.63 0 0 1-.551.303"/><path fill="#1b69ff" d="M22.803 37.814a.7.7 0 0 1-.318-.078l-4.443-2.475a.62.62 0 0 1-.294-.372.6.6 0 0 1 .061-.467.658.658 0 0 1 .869-.23l4.444 2.476a.607.607 0 0 1-.001 1.064.64.64 0 0 1-.317.081M26.029 64.066a.63.63 0 0 1-.313-.083.6.6 0 0 1-.296-.368.6.6 0 0 1 .064-.466l4.379-7.32a.65.65 0 0 1 1.05-.068.605.605 0 0 1 .046.682l-4.379 7.32a.64.64 0 0 1-.551.303"/><path fill="#1b69ff" d="M30.503 61.677a.7.7 0 0 1-.313-.083l-4.379-2.438a.6.6 0 0 1-.297-.37.6.6 0 0 1 .065-.469.65.65 0 0 1 .864-.224l4.38 2.439a.62.62 0 0 1 .292.372.6.6 0 0 1-.295.692.64.64 0 0 1-.317.081M35.052 49.011a.64.64 0 0 1-.543-.303.61.61 0 0 1-.008-.614l2.99-5.008a.658.658 0 0 1 .87-.224.62.62 0 0 1 .294.372.6.6 0 0 1-.062.467l-2.996 5.002a.63.63 0 0 1-.545.308"/><path fill="#1b69ff" d="M38.102 47.38a.7.7 0 0 1-.313-.083l-2.996-1.672a.6.6 0 0 1-.295-.37.6.6 0 0 1 .063-.464.653.653 0 0 1 .869-.224l2.991 1.667a.61.61 0 0 1 .297.371.6.6 0 0 1-.065.468.64.64 0 0 1-.55.307M15.868 52.133a.7.7 0 0 1-.318-.083.62.62 0 0 1-.294-.372.6.6 0 0 1 .062-.467l2.997-5.001a.645.645 0 0 1 .863-.224.6.6 0 0 1 .298.367.59.59 0 0 1-.066.466l-2.99 5.008a.64.64 0 0 1-.55.307"/><path fill="#1b69ff" d="M18.926 50.498a.64.64 0 0 1-.318-.083l-2.992-1.667a.6.6 0 0 1-.298-.371.6.6 0 0 1 .066-.468.655.655 0 0 1 .863-.224l2.998 1.675a.61.61 0 0 1 .293.369.6.6 0 0 1-.061.465.63.63 0 0 1-.551.306"/></g><defs><clipPath id="a"><path fill="#fff" d="M0 0h48v87H0z"/></clipPath></defs></svg>