<svg xmlns="http://www.w3.org/2000/svg" width="46" height="69" fill="none" viewBox="0 0 46 69"><path fill="#0d034a" d="M36.052 64.642c.496.006.984-.12 1.417-.362 1.078-.61 1.675-1.897 1.675-3.622V26.143a11.26 11.26 0 0 0-4.928-8.864L12.263 4.082c-1.397-.84-2.742-.975-3.787-.384-1.078.611-1.674 1.897-1.674 3.622v34.513a11.26 11.26 0 0 0 4.93 8.864L33.68 63.893c.709.459 1.528.718 2.372.75M9.895 4.374a3.66 3.66 0 0 1 1.834.598L33.68 18.169a10.28 10.28 0 0 1 4.429 7.977V60.66c0 1.337-.408 2.303-1.15 2.724a2.75 2.75 0 0 1-2.745-.37L12.263 49.815a10.28 10.28 0 0 1-4.429-7.977V7.323c0-1.337.409-2.303 1.15-2.723.279-.154.593-.233.912-.229z"/><path fill="#0d034a" d="M42.396 61.304c.496.005.985-.12 1.417-.363 1.078-.61 1.676-1.898 1.676-3.623V22.807a11.26 11.26 0 0 0-4.93-8.865L18.606.746c-1.397-.84-2.742-.975-3.786-.384-1.078.61-1.674 1.897-1.674 3.622v34.514a11.26 11.26 0 0 0 4.928 8.865L40.027 60.56a4.7 4.7 0 0 0 2.37.744M16.24 1.035a3.65 3.65 0 0 1 1.834.598l21.954 13.198a10.28 10.28 0 0 1 4.429 7.976v34.512c0 1.337-.409 2.305-1.15 2.724a2.75 2.75 0 0 1-2.747-.371L18.606 46.475a10.28 10.28 0 0 1-4.429-7.978V3.99c0-1.337.408-2.304 1.15-2.724.279-.155.593-.235.912-.23" opacity=".43"/><path fill="#fff" d="M28.002 21.741a10.82 10.82 0 0 1 4.679 8.42v34.512c0 3.106-2.087 4.352-4.68 2.795L6.049 54.271a10.81 10.81 0 0 1-4.678-8.42V11.34c0-3.106 2.087-4.353 4.678-2.795z"/><path fill="#27292b" d="M30.106 68.999c.554.004 1.1-.136 1.583-.408 1.191-.673 1.847-2.064 1.847-3.916V30.163a11.63 11.63 0 0 0-5.094-9.154L6.486 7.815C4.98 6.91 3.515 6.772 2.358 7.427 1.168 8.1.512 9.49.512 11.344v34.508a11.63 11.63 0 0 0 5.092 9.153l21.957 13.2c.761.49 1.64.764 2.545.794m-2.545-46.52a9.91 9.91 0 0 1 4.265 7.688v34.508c0 1.192-.357 2.073-.979 2.428a2.44 2.44 0 0 1-2.405-.366L6.486 53.54a9.91 9.91 0 0 1-4.264-7.688V11.343c0-1.191.357-2.073.979-2.429a2.44 2.44 0 0 1 2.404.366l21.956 13.196z"/><path fill="#27292b" stroke="#27292b" stroke-width=".2" d="M11.866 33.023c0-.286-.008-.574 0-.848.096-2.794 1.595-4.016 3.72-3.027.237.11.482.284.722.419.206.114.359.022.398-.22a1.16 1.16 0 0 0-.485-1.032c-1.702-1.13-3.086-1.17-4.146-.14a4.43 4.43 0 0 0-1.102 2.942c-.008.103-.007.193-.125.127-1.286-.71-2.373-.73-3.258-.1-1.044.747-1.555 2.144-1.52 4.188a15.83 15.83 0 0 0 4.1 9.719q.546.556 1.182 1.008 4.893 3.396 9.792 6.75c1.502 1.03 2.754 1.097 3.767.35 1.033-.764 1.561-2.16 1.528-4.204a15.76 15.76 0 0 0-4.092-9.773 8 8 0 0 0-.638-.59.44.44 0 0 1-.178-.365 13.6 13.6 0 0 0-.841-3.696 1.05 1.05 0 0 0-.466-.614.228.228 0 0 0-.363.15c-.045.218-.018.444.077.645.33.87.549 1.778.654 2.702.033.312.043.612.055.913a1.32 1.32 0 0 0 .533 1.058 10.57 10.57 0 0 1 3.38 4.688c1.664 4.075 1.134 7.73-1.168 8.178a3.07 3.07 0 0 1-2.296-.673c-3.234-2.224-6.46-4.434-9.69-6.68a10.9 10.9 0 0 1-3.763-5.547c-1.223-3.506-.746-6.544 1.11-7.182a2.86 2.86 0 0 1 2.483.512c.205.127.405.217.63.342Z"/><path fill="#27292b" stroke="#27292b" stroke-width=".2" d="m14.063 39.805 1.855 1.276v-1.233l-1.847-1.272v-1.658l-2.341.716 2.334 3.928zM14.596 44.594l1.327-.835-.668-1.34-1.302.862-.942-1.933-.414 3.55 2.876 1.435zM12.598 31.602l.41 4.094.92-.62 1.32 2.69.655-.432-1.304-2.624.897-.562zM19.312 42.861l2.329 3.92v-1.75l1.865 1.284V45.07l-1.855-1.277v-1.65zM18.026 40.316q-.329-.23-.664-.455c-.172-.116-.26-.066-.26.166q-.006.883 0 1.772a.61.61 0 0 0 .267.538q.663.465 1.335.92.258.176.26-.167.003-.882 0-1.772a.6.6 0 0 0-.267-.535 25 25 0 0 0-.671-.467ZM18.517 31.837c.235.166.415.112.475-.11a1.08 1.08 0 0 0-.193-.807 10.6 10.6 0 0 0-1.35-1.605c-.222-.215-.442-.166-.503.09a1.13 1.13 0 0 0 .278.912q.63.664 1.173 1.4a1 1 0 0 0 .12.12Z"/></svg>