<svg xmlns="http://www.w3.org/2000/svg" width="183" height="194" fill="none" viewBox="0 0 183 194"><g clip-path="url(#a)"><mask id="b" width="183" height="194" x="0" y="0" maskUnits="userSpaceOnUse" style="mask-type:luminance"><path fill="#fff" d="M183 0H0v194h183z"/></mask><g mask="url(#b)"><mask id="c" width="1296" height="324" x="-1076" y="-129" maskUnits="userSpaceOnUse" style="mask-type:luminance"><path fill="#fff" d="M210-128.738h-1276c-5.52 0-10 4.477-10 10v303c0 5.523 4.48 10 10 10H210c5.523 0 10-4.477 10-10v-303c0-5.523-4.477-10-10-10"/></mask><g mask="url(#c)"><path fill="url(#d)" d="M161.132 102.641 21.02 118.962l10.006 85.885h.035c.082 1.523 1.087 2.888 3.072 3.745l64.415 27.809c4.169 1.8 10.958.723 15.165-2.407l54.254-40.356c2.172-1.614 3.208-3.455 3.153-5.112h.014z"/><path fill="url(#e)" d="m88.552 150.553-64.414-27.816c-4.169-1.8-4.139-5.8.068-8.927l54.246-40.356c4.207-3.13 11-4.206 15.167-2.406l64.416 27.816c4.169 1.799 4.137 5.799-.07 8.926l-54.254 40.356c-4.203 3.13-10.994 4.208-15.159 2.407"/><path fill="url(#f)" d="M89.666 133.051 53.612 117.48c-2.333-1.006-2.314-3.244.039-4.994l30.366-22.589c2.355-1.752 6.157-2.355 8.489-1.346l36.054 15.564c2.333 1.006 2.314 3.244-.038 5l-30.366 22.587c-2.356 1.752-6.158 2.355-8.49 1.349"/><path fill="#fff" d="m157.67 105.195-54.256 40.356c-4.207 3.13-11 4.207-15.165 2.407l-64.42-27.815a5.15 5.15 0 0 1-2.65-2.292c-.478 1.974.482 3.82 2.955 4.887l64.414 27.816c4.168 1.8 10.96.723 15.166-2.407l54.256-40.356c2.872-2.138 3.749-4.665 2.72-6.635a7.46 7.46 0 0 1-3.02 4.039"/><path fill="url(#g)" d="M147.747 72.335 20.354 11.77l-7.431 15.46.034.015c-.74 1.335-.614 3.022.614 4.8l39.816 57.778c2.575 3.74 8.9 6.43 14.129 6.014l67.4-5.392c2.7-.214 4.554-1.225 5.386-2.656h.011z"/><path fill="url(#h)" d="M60.8 74.397 20.986 16.623c-2.577-3.738-.428-7.109 4.8-7.526l67.4-5.39c5.227-.419 11.554 2.274 14.129 6.012l39.817 57.774c2.575 3.74.428 7.109-4.8 7.528l-67.4 5.39c-5.228.417-11.555-2.274-14.132-6.014"/><path fill="url(#i)" d="m143.455 72.66-67.4 5.391c-5.227.417-11.552-2.276-14.129-6.014L22.108 14.262a5.14 5.14 0 0 1-1.029-3.348c-1.455 1.42-1.623 3.491-.093 5.708L60.8 74.4c2.577 3.74 8.9 6.431 14.13 6.014l67.399-5.39c3.57-.286 5.653-1.963 5.828-4.18a7.46 7.46 0 0 1-4.702 1.816"/><path fill="url(#j)" d="M77.085 65.148 53.8 31.36c-1.508-2.187-.252-4.157 2.806-4.4l39.42-3.153c3.056-.245 6.755 1.331 8.263 3.518l23.285 33.787c1.507 2.188.252 4.157-2.806 4.4l-39.42 3.153c-3.056.245-6.755-1.33-8.263-3.516" opacity=".7"/><path fill="url(#k)" d="m127.096 47.482-74.5-35.42-4.343 9.04.018.011a2.6 2.6 0 0 0 .36 2.81L71.916 57.71c1.507 2.188 5.207 3.76 8.263 3.517l39.42-3.152a3.8 3.8 0 0 0 3.149-1.556h.009z"/><path fill="url(#l)" d="M76.248 48.691 52.963 14.898c-1.507-2.185-.252-4.156 2.8-4.4l39.42-3.153c3.058-.245 6.757 1.328 8.265 3.516l23.285 33.79c1.507 2.184.249 4.156-2.806 4.4l-39.42 3.15c-3.052.248-6.751-1.325-8.259-3.51"/></g></g></g><defs><linearGradient id="d" x1="284.169" x2="425.276" y1="184.766" y2="184.766" gradientUnits="userSpaceOnUse"><stop stop-color="#5e98f7"/><stop offset="1" stop-color="#4670ba"/></linearGradient><linearGradient id="e" x1="91.086" x2="91.086" y1="70.176" y2="151.425" gradientUnits="userSpaceOnUse"><stop stop-color="#5e98f7"/><stop offset="1" stop-color="#4670ba"/></linearGradient><linearGradient id="f" x1="52.58" x2="124.47" y1="115.53" y2="89.338" gradientUnits="userSpaceOnUse"><stop stop-color="#7aacff"/><stop offset=".456" stop-color="#5386dc"/><stop offset="1" stop-color="#7ca4eb"/></linearGradient><linearGradient id="g" x1="-777.747" x2="-636.55" y1="1266.01" y2="1266.01" gradientUnits="userSpaceOnUse"><stop stop-color="#5e98f7"/><stop offset="1" stop-color="#4670ba"/></linearGradient><linearGradient id="h" x1="-769.302" x2="-710.189" y1="1143.22" y2="1392.04" gradientUnits="userSpaceOnUse"><stop stop-color="#5e98f7"/><stop offset="1" stop-color="#4670ba"/></linearGradient><linearGradient id="i" x1="84.034" x2="84.034" y1="10.914" y2="80.457" gradientUnits="userSpaceOnUse"><stop stop-color="#5e98f7"/><stop offset="1" stop-color="#4670ba"/></linearGradient><linearGradient id="j" x1="90.687" x2="90.687" y1="23.781" y2="68.689" gradientUnits="userSpaceOnUse"><stop stop-color="#5e98f7"/><stop offset="1" stop-color="#4670ba"/></linearGradient><linearGradient id="k" x1="-748.264" x2="-665.702" y1="1240.38" y2="1240.38" gradientUnits="userSpaceOnUse"><stop stop-color="#5e98f7"/><stop offset="1" stop-color="#4670ba"/></linearGradient><linearGradient id="l" x1="-743.452" x2="-708.917" y1="1168.56" y2="1314.05" gradientUnits="userSpaceOnUse"><stop stop-color="#5e98f7"/><stop offset="1" stop-color="#4670ba"/></linearGradient><clipPath id="a"><path fill="#fff" d="M0 0h183v194H0z"/></clipPath></defs></svg>