<svg xmlns="http://www.w3.org/2000/svg" width="195" height="373" fill="none" viewBox="0 0 195 373"><mask id="a" width="195" height="135" x="0" y="239" maskUnits="userSpaceOnUse" style="mask-type:luminance"><path fill="#fff" d="M195 239.078H0v133.925h195z"/></mask><g mask="url(#a)"><path fill="url(#b)" d="M189.567 313.179 63.329 252.641l-36.998 77.608.034.017c-.737 1.326-.616 3.005.598 4.78l39.369 57.569c2.548 3.726 8.818 6.418 14.003 6.013l66.873-5.215c2.676-.208 4.519-1.208 5.348-2.631l.012.007z"/><path fill="url(#c)" d="M103.315 315.039 63.952 257.47c-2.549-3.726-.41-7.074 4.775-7.478l66.873-5.214c5.182-.4 11.46 2.286 14.004 6.013l39.368 57.569c2.548 3.726.41 7.074-4.775 7.478l-66.875 5.214c-5.19.405-11.454-2.286-14.007-6.013"/><path fill="url(#d)" d="m185.31 313.49-66.873 5.214c-5.182.4-11.461-2.288-14.003-6.012l-39.37-57.57a5.14 5.14 0 0 1-1.014-3.333c-1.444 1.409-1.616 3.469-.1 5.68l39.369 57.569c2.548 3.726 8.816 6.418 14.002 6.013l66.876-5.214c3.541-.277 5.611-1.939 5.789-4.144a7.4 7.4 0 0 1-4.676 1.797"/></g><path fill="#f9cf2d" d="m99.843 114.23-77.376 32.883 20.098 47.575.02-.01a2.65 2.65 0 0 0 2.383 1.631l41.487 5.136c2.684.332 6.386-1.427 8.271-3.926l24.264-32.253a3.9 3.9 0 0 0 .946-3.459h.008z"/><path fill="#ffe06a" d="m66.363 153.893-41.487-5.135c-2.686-.332-3.337-2.628-1.454-5.129l24.263-32.253c1.882-2.498 5.58-4.257 8.271-3.926l41.485 5.137c2.686.331 3.337 2.628 1.456 5.129l-24.263 32.251c-1.882 2.5-5.58 4.258-8.27 3.926"/><path fill="#fff" d="m98.289 116.276-24.263 32.252c-1.882 2.499-5.58 4.26-8.271 3.926l-41.487-5.134a3.07 3.07 0 0 1-1.899-.87c.058 1.213.914 2.109 2.507 2.306l41.488 5.135c2.685.332 6.386-1.426 8.271-3.926l24.264-32.251c1.284-1.709 1.363-3.305.444-4.261a4.48 4.48 0 0 1-1.054 2.823"/><path fill="url(#e)" d="M149.275 31.6 110.136.54 91.155 24.6l.01.007a1.58 1.58 0 0 0-.169 1.71l9.156 23.144a6.05 6.05 0 0 0 4.398 3.198l23.671 3.487a2.3 2.3 0 0 0 2.068-.492z"/><path fill="url(#f)" d="M119.128 25.412 109.972 2.27c-.598-1.5.414-2.5 2.249-2.223l23.673 3.487c.931.151 1.814.52 2.577 1.075a6.06 6.06 0 0 1 1.819 2.123l9.157 23.144c.598 1.5-.415 2.492-2.249 2.223l-23.674-3.482a6.04 6.04 0 0 1-4.396-3.204"/><path fill="#fff" d="m147.77 31.373-23.67-3.488a6 6 0 0 1-2.577-1.075 6.06 6.06 0 0 1-1.819-2.123L110.547 1.54a1.83 1.83 0 0 1-.091-1.24 1.48 1.48 0 0 0-.482 1.967l9.156 23.144a6.04 6.04 0 0 0 4.396 3.199l23.673 3.487c1.252.186 2.105-.23 2.34-.983a2.63 2.63 0 0 1-1.769.26"/><defs><linearGradient id="b" x1="286.617" x2="480.226" y1="288.125" y2="288.125" gradientUnits="userSpaceOnUse"><stop stop-color="#5e98f7"/><stop offset="1" stop-color="#4670ba"/></linearGradient><linearGradient id="c" x1="91.872" x2="298.969" y1="254.053" y2="452.875" gradientUnits="userSpaceOnUse"><stop stop-color="#93bbfe"/><stop offset="1" stop-color="#4670ba"/></linearGradient><linearGradient id="d" x1="126.437" x2="126.437" y1="251.789" y2="321.091" gradientUnits="userSpaceOnUse"><stop stop-color="#5e98f7"/><stop offset="1" stop-color="#4670ba"/></linearGradient><linearGradient id="e" x1="128.173" x2="178.094" y1="39.346" y2="39.346" gradientUnits="userSpaceOnUse"><stop stop-color="#5e98f7"/><stop offset="1" stop-color="#4670ba"/></linearGradient><linearGradient id="f" x1="131.103" x2="168.755" y1="-16.521" y2="70.813" gradientUnits="userSpaceOnUse"><stop stop-color="#91bbff"/><stop offset="1" stop-color="#4670ba"/></linearGradient></defs></svg>