<svg xmlns="http://www.w3.org/2000/svg" width="81" height="125" fill="none" viewBox="0 0 81 125"><g clip-path="url(#a)"><path fill="#1b69ff" d="M7.143 113.809a.765.765 0 0 1-.766-.766v-.019a.77.77 0 0 1 .527-.728l47.839-27.6a.767.767 0 1 1 .765 1.327L7.526 113.707a.77.77 0 0 1-.383.102"/><path fill="#1b69ff" d="M7.142 113.792a.76.76 0 0 1-.486-.174 4 4 0 0 1-.362-.338 2.9 2.9 0 0 1-.786-1.213 6 6 0 0 1-.229-1.369.767.767 0 0 1 1.525-.142c.088.944.13 1.208.57 1.637l.026.026q.107.115.228.214a.77.77 0 0 1 .235.851.765.765 0 0 1-.722.507zM50.373 37.077a.77.77 0 0 1-.385-.1l-4.578-2.666a.77.77 0 0 1-.38-.662V24.52a.766.766 0 1 1 1.531 0v8.688l3.05 1.772.016-10.933a.766.766 0 0 1 1.532 0L51.14 36.31a.766.766 0 0 1-.766.765z"/><path fill="#1b69ff" d="M50.392 24.815a.766.766 0 0 1-.752-.629 11 11 0 0 0-.695-2.325l-.014-.035a5.5 5.5 0 0 0-.324-.727 6 6 0 0 0-.344-.655l-.019-.033q-.375-.686-.83-1.32l-.154-.215a.765.765 0 1 1 1.24-.9l.156.216q.505.705.921 1.465.233.383.416.791.211.402.37.827c.357.846.62 1.73.785 2.633a.767.767 0 0 1-.756.9z"/><path fill="#1b69ff" d="M50.377 37.077a.765.765 0 0 1-.766-.767l.02-12.263a.766.766 0 0 1 1.531 0l-.017 10.933 5.545-3.205a.766.766 0 0 1 .767 1.326l-6.7 3.871a.77.77 0 0 1-.38.105"/><path fill="#1b69ff" d="M57.073 33.206a.766.766 0 0 1-.375-1.434c.529-.3 1.137-.646 1.636-.994l.01-.006c1.018-.687 1.52-1.263 1.537-1.76.016-.515-.491-1.186-1.47-1.94a.766.766 0 0 1 .937-1.213c.591.43 1.11.954 1.537 1.549a2.586 2.586 0 0 1-.175 3.34 7.1 7.1 0 0 1-1.5 1.29c-.553.386-1.2.758-1.758 1.07a.76.76 0 0 1-.38.098M50.373 24.782a.766.766 0 0 1-.753-.631 13.67 13.67 0 0 0-7.459-9.51c-4.174-1.981-5.957-1.15-9.939 1.093a.766.766 0 1 1-.752-1.335 17 17 0 0 1 5.3-2.285 9.78 9.78 0 0 1 6.047 1.145 15.6 15.6 0 0 1 5.292 4.2 14.2 14.2 0 0 1 3.013 6.423.767.767 0 0 1-.754.9zM29.77 49.17a3.5 3.5 0 0 1-1.755-.453h-.006a3.65 3.65 0 0 1-1.441-1.63 5.8 5.8 0 0 1-.492-2.466v-.029a11.7 11.7 0 0 1 1.654-5.558 11.5 11.5 0 0 1 4.014-4.23l.017-.01a5.46 5.46 0 0 1 2.743-.829 3.5 3.5 0 0 1 1.766.454 4.44 4.44 0 0 1 1.938 4.1v.027a11.57 11.57 0 0 1-1.661 5.57 12.3 12.3 0 0 1-3.136 3.638 6.2 6.2 0 0 1-3.641 1.416m-.99-1.779c.302.168.644.253.99.247 1.745 0 3.988-1.768 5.455-4.3l.008-.013a10.03 10.03 0 0 0 1.443-4.822 3.01 3.01 0 0 0-1.17-2.758 2 2 0 0 0-1-.25 4 4 0 0 0-1.961.614 9.93 9.93 0 0 0-3.475 3.671l-.017.028a10.17 10.17 0 0 0-1.443 4.825 3.07 3.07 0 0 0 1.17 2.758"/><path fill="#1b69ff" d="M22.347 65.69h-.046a.766.766 0 0 1-.72-.81 21.6 21.6 0 0 1 2.953-9.22 20.76 20.76 0 0 1 7.234-7.617 10.3 10.3 0 0 1 4-1.4 6 6 0 0 1 3.718.707.766.766 0 0 1 .283 1.046c-.21.367-16.5 13.879-16.658 16.578a.766.766 0 0 1-.764.716M58.75 79.867a.766.766 0 0 1-.766-.766l.02-47.694a.766.766 0 0 1 1.531 0L59.516 79.1a.766.766 0 0 1-.766.766"/><path fill="#1b69ff" d="M55.126 86.132a.766.766 0 0 1-.383-1.43 7.27 7.27 0 0 0 3.241-5.6.766.766 0 1 1 1.532 0 8.77 8.77 0 0 1-4.009 6.929.76.76 0 0 1-.38.101M6.042 111.395a.764.764 0 0 1-.765-.766l.045-71.446a.766.766 0 0 1 1.531.001l-.045 71.445a.77.77 0 0 1-.766.766"/><path fill="#1b69ff" d="M6.087 39.948h-.039a.766.766 0 0 1-.727-.8 8.95 8.95 0 0 1 4.066-7.063.765.765 0 0 1 1.182.8.77.77 0 0 1-.349.485 7.43 7.43 0 0 0-3.37 5.854.766.766 0 0 1-.763.724"/><path fill="#1b69ff" d="M9.802 33.489a.765.765 0 0 1-.384-1.43l24.898-14.378a.766.766 0 0 1 .766 1.326L10.185 33.386a.76.76 0 0 1-.383.103"/><path fill="#1b69ff" d="M45.798 25.287h-.02a.764.764 0 0 1-.747-.784 6.69 6.69 0 0 0-3.105-5.471c-1.4-.883-3.727-1.6-6.882 0a.766.766 0 1 1-.692-1.367 9.5 9.5 0 0 1 4.3-1.106q.15-.001.3.005a7.54 7.54 0 0 1 3.79 1.175 8.36 8.36 0 0 1 2.842 3.04 7.5 7.5 0 0 1 .978 3.764.766.766 0 0 1-.764.744M58.876 27.233a.76.76 0 0 1-.47-.162l-12.39-9.656a.766.766 0 1 1 .943-1.21l12.389 9.658a.766.766 0 0 1-.471 1.37zM7.143 113.81a.76.76 0 0 1-.382-.1l-4.272-2.464a.77.77 0 0 1-.281-1.046.763.763 0 0 1 1.046-.281l4.272 2.458a.764.764 0 0 1 .084 1.272.77.77 0 0 1-.467.158z"/><path fill="#1b69ff" d="M2.88 111.348a.77.77 0 0 1-.49-.178 3.53 3.53 0 0 1-1.386-2.923.766.766 0 1 1 1.523-.164c.119 1.1.143 1.325.845 1.911a.765.765 0 0 1-.491 1.354"/><path fill="#1b69ff" d="M1.766 108.934a.76.76 0 0 1-.542-.224.77.77 0 0 1-.224-.542l.026-71.457a.766.766 0 1 1 1.534 0l-.028 71.457a.77.77 0 0 1-.766.766"/><path fill="#1b69ff" d="M1.792 37.476H1.75a.764.764 0 0 1-.723-.807 9.03 9.03 0 0 1 4.063-7.057.765.765 0 1 1 .84 1.28 7.53 7.53 0 0 0-3.374 5.86.766.766 0 0 1-.764.724"/><path fill="#1b69ff" d="M5.524 31.018a.765.765 0 0 1-.383-1.429l26.321-15.186a.766.766 0 0 1 .766 1.327L5.906 30.915a.76.76 0 0 1-.382.103M14.288 81.113a.767.767 0 0 1-.384-1.429L50.102 58.79a.766.766 0 0 1 .766 1.326L14.671 81.01a.76.76 0 0 1-.383.103M18.312 94.392a.766.766 0 0 1-.385-1.43l28.179-16.277a.766.766 0 0 1 .765 1.326L18.696 94.289a.76.76 0 0 1-.384.103M14.29 88.675a.766.766 0 0 1-.383-1.429l36.197-20.89a.766.766 0 0 1 .765 1.327l-36.196 20.89a.76.76 0 0 1-.383.102M22.347 65.67a.766.766 0 0 1-.384-1.428l19.61-11.32a.766.766 0 0 1 .768 1.328L22.73 65.568a.76.76 0 0 1-.383.103"/><path fill="#1b69ff" d="m41.955 54.352-3.515-6.724a.764.764 0 0 1 1.044-.284c1.9 1.09 3.054 3.29 3.236 6.194a.767.767 0 0 1-.717.812z"/><path fill="#1b69ff" d="m23.617 63.56 11.5-15.02h3.79l2.192 1.2.731 3.987z"/><path fill="#fff" d="m75.124 52.115 5.015 2.9a.7.7 0 0 1 .3.648V81.1c0 11.8-17.424 30.994-18.168 31.808a1.8 1.8 0 0 1-.4.329.9.9 0 0 1-.4.131c-.482.029-8.008.429-13.221-2.533l-5.079-2.933a9.04 9.04 0 0 1-4.889-8.261V74.199a2.32 2.32 0 0 1 1.042-1.727c6.957-4.014 13.441-9.7 16.928-14.835.353-.52.844-.8 1.2-.691 3.482 1.108 9.964-.692 16.975-4.742a.65.65 0 0 1 .7-.09z"/><path fill="#1b69ff" d="M39.32 72.472c6.957-4.014 13.441-9.7 16.928-14.835.353-.52.845-.8 1.2-.691 3.482 1.108 9.964-.692 16.976-4.742a.65.65 0 0 1 .7-.09l5.015 2.9a.65.65 0 0 0-.694.093c-7.015 4.05-13.493 5.85-16.977 4.742-.354-.111-.848.173-1.2.69-3.487 5.138-9.97 10.822-16.928 14.837a2.3 2.3 0 0 0-1.04 1.727v25.441a9.05 9.05 0 0 0 4.954 8.3h-.007l-5.078-2.932a9.04 9.04 0 0 1-4.889-8.261V74.199a2.32 2.32 0 0 1 1.04-1.727"/><path fill="#005bea" d="M60.17 113.81c.766 0 1.25-.027 1.326-.033.207-.016.407-.08.584-.188q.276-.165.492-.401c.75-.819 18.281-20.124 18.28-32.09v-25.44a1.1 1.1 0 0 0-.5-1.007l-5.015-2.9-.025-.012a1.06 1.06 0 0 0-1.11.117c-6.866 3.963-13.245 5.765-16.62 4.692a1.61 1.61 0 0 0-1.67.852c-3.456 5.092-9.89 10.728-16.792 14.71a2.72 2.72 0 0 0-1.25 2.084v25.444a9.41 9.41 0 0 0 5.069 8.6l.027.018 5.078 2.932q.03.018.063.029c4.08 2.303 9.565 2.593 12.062 2.593m14.769-61.324 4.994 2.884c.044.026.091.126.09.288v25.44c0 11.647-17.322 30.722-18.062 31.528a1.4 1.4 0 0 1-.3.25.5.5 0 0 1-.215.075c-.319.021-7.858.439-12.991-2.477a.4.4 0 0 0-.057-.028l-4.994-2.883-.03-.019a8.65 8.65 0 0 1-4.68-7.9V74.198a1.92 1.92 0 0 1 .835-1.368c7-4.04 13.54-9.772 17.062-14.96.273-.4.608-.567.734-.528 3.59 1.142 10.222-.688 17.307-4.78.148-.1.246-.111.281-.09z"/><path fill="#fff" d="m61.87 90.838 5.52-9.557-1.524-.877-4 6.923-5.108-2.941a14.2 14.2 0 0 1 5.108-5.628c3.756-2.168 6.8-.414 6.8 3.915a15 15 0 0 1-6.8 11.763c-3.757 2.166-6.8.417-6.8-3.916.014-1.12.189-2.23.518-3.3z"/></g><defs><clipPath id="a"><path fill="#fff" d="M0 0h81v125H0z"/></clipPath></defs></svg>