<svg xmlns="http://www.w3.org/2000/svg" width="535" height="451" fill="none" viewBox="0 0 535 451"><g clip-path="url(#a)"><mask id="b" width="535" height="451" x="0" y="0" maskUnits="userSpaceOnUse" style="mask-type:luminance"><path fill="#fff" d="M535 0H0v451h535z"/></mask><g mask="url(#b)"><path fill="url(#c)" d="M7.199 259.415s-3.91-8.081 0-24.354 15.64-8.682 15.64-8.682c4.418 26.632 35.826 12.117 62.075 15.762l178.805 104.338 78.021 28.111 123.155-59.465-5.756-3.318c21.283-9.923 33.481-3.207 44.998-23.906l16.764 9.972 8.702 4.461-.731 28.434c0 11.056-6.045 20.452-20.648 28.866l-123.612 74.973c-29.216 16.826-76.758 16.826-105.976 0L29.108 290.843c-14.364-8.274-21.67-19.113-21.899-29.979-.01-.487.01-.973.03-1.46z"/><path fill="#333c5e" d="m384.106 408.136 123.614-74.972c29.217-16.838 29.217-44.224 0-61.05L258.192 128.352c-29.206-16.827-76.749-16.827-105.962.01L28.614 203.325c-29.218 16.836-29.218 44.222-.01 61.049l249.527 143.76c29.217 16.832 76.76 16.832 105.975.002"/><path fill="url(#d)" d="m118.284 389.537.268-.462L529.68 627.221l-.536.923L118.016 390z"/><path fill="url(#e)" d="m71.373 618.533-.118-.181-.462-.713 141.232-91.041a24.93 24.93 0 0 0 10.869-15.701 24.9 24.9 0 0 0-3.44-18.771 25 25 0 0 0-8.442-8.033L81.698 409.186l.268-.46.268-.462 129.318 74.905a26 26 0 0 1 12.102 15.814 25.95 25.95 0 0 1-2.649 19.722 26 26 0 0 1-8.397 8.788z"/><path fill="url(#f)" d="m482.012 347.251-.58-.895-154.367 99.504a40.21 40.21 0 0 1-41.937.997l-129.186-74.833-.268.461-.268.461 129.756 75.161a40.21 40.21 0 0 0 41.936-.995z"/><path stroke="#ffe06a" stroke-width="2" d="M331.12 382.035c15.38 0 30.769-3.378 42.485-10.132l69.04-43.524c11.737-6.764 18.211-15.903 18.216-25.737.006-9.835-6.48-18.972-18.216-25.737l-194.94-112.314c-23.423-13.49-61.538-13.51-84.981 0l-69.038 43.523c-11.747 6.765-18.217 15.903-18.217 25.738s6.47 18.973 18.21 25.746L288.63 371.903c11.711 6.754 27.101 10.132 42.49 10.132Z"/><path fill="#242b43" d="M28.603 264.377 278.131 408.14c29.217 16.827 76.759 16.827 105.974 0l123.619-74.972c13.06-7.533 20.258-17.155 21.651-27.023 1.713 12.198-5.495 24.734-21.651 34.051l-123.618 74.97c-29.215 16.835-76.757 16.835-105.974 0L28.603 271.41c-16.155-9.307-23.354-21.844-21.641-34.042 1.384 9.854 8.59 19.489 21.641 27.009"/><path fill="#eff2fd" d="m381.817 334.752.429-154.23 15.123-8.756-.499 154.225c0 2.775-.998 4.766-2.568 5.623l-15.052 8.756c1.569-.924 2.497-2.843 2.567-5.618"/><path fill="url(#g)" d="m139.377 40.552 15.084-8.746 242.901 139.938-15.084 8.748z"/><path fill="#fff" d="m382.281 180.491-.495 154.28c-.017 5.536-3.901 7.797-8.729 5.016L147.6 209.898c-4.829-2.781-8.732-9.53-8.717-15.065l.494-154.28z"/><path fill="#333c5e" d="M158.865.65c1.568-.926 3.78-.784 6.205.64l223.67 129.33c4.851 2.777 8.703 9.469 8.703 15.021l-.071 26.125-15.124 8.756.072-26.125c.071-5.555-3.782-12.24-8.633-15.091L148.261 9.468c-2.5-1.424-4.637-1.566-6.279-.64z"/><path fill="#384e85" d="M373.678 139.341c4.831 2.783 8.69 9.503 8.674 15.038l-.074 26.113-242.901-139.94.074-26.112c.014-5.536 3.946-7.77 8.776-4.99z"/><path fill="#fff" d="M190.468 52.768c-.009 3.03-2.156 4.303-4.798 2.781a10.58 10.58 0 0 1-4.813-8.318c.009-3.028 2.156-4.302 4.844-2.754a10.58 10.58 0 0 1 4.767 8.29m-15.445-8.895c-.009 3.03-2.157 4.303-4.799 2.781a10.58 10.58 0 0 1-4.812-8.318c.009-3.028 2.157-4.302 4.844-2.753a10.58 10.58 0 0 1 4.767 8.29m-15.436-8.895c-.009 3.03-2.156 4.303-4.798 2.78a10.59 10.59 0 0 1-4.812-8.316c.008-3.029 2.156-4.303 4.843-2.755a10.57 10.57 0 0 1 4.767 8.291"/><path fill="#63ad81" d="M196.964 118.437a29.3 29.3 0 0 1 2.67 13.005v19.911l-5.467-3.313v-18.869a18.7 18.7 0 0 0-1.444-7.739 10.5 10.5 0 0 0-4.112-4.802c-4.097-2.517-6.592-.017-6.517 6.527v17.567l-5.467-3.314V89.136l5.467 3.314v17.567a4.37 4.37 0 0 1 3.347-1.26 9.4 9.4 0 0 1 4.439 1.552 18.83 18.83 0 0 1 7.084 8.128m23.664 43.744a3.25 3.25 0 0 1-2.34.339 8.6 8.6 0 0 1-2.909-1.177 15.53 15.53 0 0 1-5.944-6.596 22.4 22.4 0 0 1-2.1-9.991v-16.72l-3.849-2.331v-6.508l3.849 2.331v-7.937l5.467 3.314v7.937l6.255 3.79v6.508l-6.255-3.79v16.523a10.6 10.6 0 0 0 .831 4.375 6.1 6.1 0 0 0 2.406 2.792c1.218.741 2.264.886 3.062.423zm17.978 10.895a3.25 3.25 0 0 1-2.34.339 8.7 8.7 0 0 1-2.908-1.177 15.5 15.5 0 0 1-5.945-6.598 22.4 22.4 0 0 1-2.099-9.99v-16.719l-3.849-2.331v-6.511l3.849 2.332v-7.938l5.468 3.315v7.937l6.257 3.788v6.507l-6.257-3.783v16.524c-.038 1.5.245 2.991.83 4.373a6.1 6.1 0 0 0 2.406 2.792c1.217.742 2.265.887 3.062.425zm23.555-16.76a31.3 31.3 0 0 1 4.22 8.805 34.5 34.5 0 0 1 1.532 10.23c-.015 3.596-.535 6.45-1.532 8.408a6.19 6.19 0 0 1-4.22 3.72c-1.72.407-3.785-.094-6.102-1.483q-4.725-2.865-7.48-9.217v16.853l-5.468-3.314v-47.372l5.205 3.149v4.556a4.26 4.26 0 0 1 3.348-1.682c1.57.055 3.093.55 4.395 1.429 1.821.928 3.931 2.977 6.102 5.918m-1.748 22.362c1.261-1.08 1.934-3.39 1.948-6.694a21.1 21.1 0 0 0-1.948-9.052 13.3 13.3 0 0 0-4.964-6.001 4.7 4.7 0 0 0-3.543-.812 3.83 3.83 0 0 0-2.493 2.296 12.1 12.1 0 0 0-.919 5.168 21 21 0 0 0 .919 6.283 19 19 0 0 0 2.493 5.315 11.5 11.5 0 0 0 3.543 3.484c2.071 1.217 3.781 1.224 4.962.01zm14.364 17.547a29 29 0 0 1-4.33-5.419l2.1-4.91a28.6 28.6 0 0 0 3.783 4.801 22.2 22.2 0 0 0 4.352 3.578q4.898 2.968 4.899-.872a4.96 4.96 0 0 0-1.246-3.295 35 35 0 0 0-4.003-3.792 51 51 0 0 1-4.702-4.346 17.8 17.8 0 0 1-3.149-4.868 16 16 0 0 1-1.335-6.697c.104-3.543 1.079-5.724 2.78-6.22 2.021-.816 4.576-.276 7.502 1.585a29 29 0 0 1 4.812 3.73 26.2 26.2 0 0 1 3.936 4.563l-2.099 4.908a21.9 21.9 0 0 0-6.693-6.655 5.46 5.46 0 0 0-3.652-1.141c-.727.022-1.168.754-1.248 2.072a5.5 5.5 0 0 0 1.335 3.578 35 35 0 0 0 4.134 4.033 51 51 0 0 1 4.591 4.278c1.276 1.402 2.317 3 3.085 4.732a15.4 15.4 0 0 1 1.291 6.507q0 4.88-2.844 6.09c-2.106.753-4.74.153-7.743-1.77a28.7 28.7 0 0 1-5.556-4.47m20.075-13.045a10.2 10.2 0 0 1-1.047-4.504c.015-1.65.377-2.785 1.032-3.275.62-.584 1.5-.565 2.559.054.73.263 1.698 1.412 2.558 3.045a10.3 10.3 0 0 1 1.032 4.534c-.023 1.637-.387 2.756-1.05 3.234-.612.597-1.485.595-2.536-.008-.729-.274-1.692-1.438-2.548-3.08m0 24.788a10.2 10.2 0 0 1-1.047-4.503c.016-1.651.377-2.786 1.032-3.276.62-.584 1.5-.565 2.559.054.73.264 1.698 1.412 2.558 3.045a10.3 10.3 0 0 1 1.031 4.531c-.023 1.637-.387 2.758-1.05 3.235-.611.597-1.485.594-2.536-.008-.728-.271-1.691-1.438-2.547-3.078m23.186-39.663 4.899 2.968-14.436 52.539-4.899-2.969zm13.164 7.972 4.9 2.969-14.436 52.538-4.9-2.969z"/><path fill="url(#h)" d="M259.512 239.225c-12.5-7.062-24.721-19.097-34.964-34.433l-.138-.08c-10.243 3.535-22.465 1.491-34.966-5.855l-.477-.282.672 23.307c2.373 36.128 14.719 51.852 34.596 85.441l.484.283c19.876-10.691 32.223-12.186 34.595-45.582l.676-22.528z"/><path fill="#f2f5fc" d="M263.716 235.59c-12.501-7.062-24.722-19.097-34.966-34.434l-.139-.08c-10.241 3.537-22.464 1.493-34.964-5.853l-.478-.283-4.069 3.715.344.201c12.5 7.344 24.721 9.391 34.966 5.855l.137.079c10.244 15.338 22.466 27.376 34.967 34.434l.477.268-.675 22.531c-1.548 21.796-7.349 30.002-16.715 36.045 11.7-6.896 19.179-15.181 20.918-39.681l.673-22.528z"/><path fill="#f2f5fc" d="m264.194 235.86-.478-.271c-12.501-7.061-24.721-19.096-34.965-34.433l-.139-.08-4.202 3.635.138.08c10.243 15.337 22.464 27.377 34.966 34.434l.477.268z"/><path fill="url(#i)" d="m259.993 239.495-.675 22.53c-1.548 21.796-7.349 30.003-16.714 36.046 11.7-6.895 19.179-15.182 20.917-39.68l.673-22.529z"/><path fill="#63ad81" d="M258.218 240.126c-12.223-6.899-24.173-18.671-34.187-33.667l-.137-.078c-10.015 3.458-21.964 1.459-34.187-5.724l-.467-.275-3.978 3.63.337.197c12.222 7.183 24.174 9.182 34.187 5.725l.137.079c10.014 14.996 21.964 26.766 34.187 33.666l.467.264-.661 22.032c-1.509 21.311-7.185 29.335-16.342 35.244 11.44-6.742 18.749-14.843 20.452-38.798l.66-22.032z"/><path fill="#63ad81" d="m258.682 240.389-.467-.263c-12.222-6.9-24.172-18.671-34.187-33.668l-.137-.078-4.11 3.555.137.078c10.015 14.997 21.964 26.766 34.187 33.667l.467.264z"/><path fill="#63ad81" d="m254.572 243.944-.66 22.032c-1.516 21.311-7.185 29.334-16.344 35.244 11.441-6.743 18.75-14.844 20.452-38.799l.661-22.032z"/><path fill="url(#j)" d="M251.528 246.459c-12.502-7.057-24.722-19.097-34.967-34.433l-.137-.079c-10.244 3.534-22.465 1.491-34.966-5.855l-.478-.282.672 23.306c2.373 36.128 14.72 51.851 34.597 85.441l.484.283c19.875-10.689 32.223-12.186 34.595-45.582l.675-22.528z"/><path fill="#f2f5fc" d="M255.73 242.826c-12.5-7.057-24.721-19.097-34.965-34.434l-.138-.079c-10.242 3.535-22.465 1.492-34.965-5.854l-.477-.283-4.07 3.714.344.201c12.5 7.344 24.721 9.39 34.965 5.855l.138.079c10.243 15.338 22.464 27.376 34.967 34.433l.477.27-.675 22.531c-1.547 21.796-7.348 30.002-16.714 36.047 11.7-6.898 19.18-15.183 20.919-39.682l.675-22.529z"/><path fill="#f2f5fc" d="m256.209 243.092-.479-.27c-12.5-7.057-24.721-19.097-34.966-34.433l-.138-.079-4.202 3.635.138.079c10.243 15.338 22.465 27.376 34.966 34.433l.478.27z"/><path fill="url(#k)" d="m252.005 246.729-.676 22.53c-1.547 21.795-7.348 30.001-16.714 36.045 11.7-6.897 19.18-15.181 20.918-39.681l.676-22.529z"/><path fill="#ffe48d" d="M214.021 299.268c-15.428-25.536-23.189-38.384-25.06-66.412l-.426-14.714c9.908 4.47 19.403 5.894 27.958 4.195 8.553 11.556 18.05 21.073 27.956 28.018l-.426 14.222c-1.872 25.876-9.633 29.779-25.063 37.542q-1.211.61-2.467 1.246z"/><path fill="#f9d150" d="M216.488 222.337c8.554 11.556 18.051 21.074 27.956 28.018l-.425 14.222c-1.872 25.876-9.633 29.781-25.063 37.543l-2.468 1.249z"/><path fill="url(#l)" d="m71.5 401.969 75.537-41.573c.18-.099.329-.244.433-.421.105-.176.16-.377.16-.582v-22.172l78.341-46.834-1.156-1.989-78.913 47.172a1.15 1.15 0 0 0-.574.993v22.156l-75.806 41.725c.659.503 1.316 1.019 1.977 1.525"/><path fill="url(#m)" d="m59.385 396.446 75.538-41.572a1.15 1.15 0 0 0 .592-1.004v-22.172l78.341-46.834-1.155-1.989-78.913 47.171a1.15 1.15 0 0 0-.575.995v22.155l-75.807 41.725c.66.506 1.318 1.018 1.979 1.525"/><path fill="url(#n)" d="M211.217 287.059a2.636 2.636 0 0 0 2.639-2.633 2.637 2.637 0 0 0-2.639-2.634 2.637 2.637 0 0 0-2.639 2.634 2.636 2.636 0 0 0 2.639 2.633"/><path fill="url(#o)" d="M224.411 292.326a2.637 2.637 0 0 0 2.639-2.634 2.636 2.636 0 0 0-2.639-2.633 2.637 2.637 0 0 0-2.64 2.633 2.637 2.637 0 0 0 2.64 2.634"/></g></g><defs><linearGradient id="c" x1="924.806" x2="726.229" y1="142.243" y2="1057.5" gradientUnits="userSpaceOnUse"><stop stop-color="#333c5e"/><stop offset="1" stop-color="#4f5982"/></linearGradient><linearGradient id="d" x1="-317.525" x2="-317.365" y1="902.356" y2="901.804" gradientUnits="userSpaceOnUse"><stop stop-color="#77abd4"/><stop offset=".955" stop-color="#bac3de" stop-opacity=".01"/><stop offset="1" stop-color="#fff" stop-opacity="0"/></linearGradient><linearGradient id="e" x1="-321.073" x2="-320.535" y1="901.975" y2="901.713" gradientUnits="userSpaceOnUse"><stop stop-color="#77abd4"/><stop offset=".955" stop-color="#bac3de" stop-opacity=".01"/><stop offset="1" stop-color="#fff" stop-opacity="0"/></linearGradient><linearGradient id="f" x1="-317.845" x2="-317.808" y1="899.756" y2="899.303" gradientUnits="userSpaceOnUse"><stop stop-color="#77abd4"/><stop offset=".955" stop-color="#bac3de" stop-opacity=".01"/><stop offset="1" stop-color="#fff" stop-opacity="0"/></linearGradient><linearGradient id="g" x1="7.805" x2="8.836" y1="900.876" y2="900.876" gradientUnits="userSpaceOnUse"><stop stop-color="#a0cce0"/><stop offset="1" stop-color="#69a1e3"/></linearGradient><linearGradient id="h" x1="2.958" x2="3.384" y1="855.922" y2="855.922" gradientUnits="userSpaceOnUse"><stop stop-color="#fff"/><stop offset=".506" stop-color="#cad1e0"/><stop offset="1" stop-color="#c8cede"/></linearGradient><linearGradient id="i" x1="-8.797" x2="-8.387" y1="854.031" y2="854.031" gradientUnits="userSpaceOnUse"><stop stop-color="#fff"/><stop offset=".506" stop-color="#cad1e0"/><stop offset="1" stop-color="#c8cede"/></linearGradient><linearGradient id="j" x1="3.849" x2="2.426" y1="855.628" y2="855.921" gradientUnits="userSpaceOnUse"><stop stop-color="#fff"/><stop offset=".506" stop-color="#cad1e0"/><stop offset="1" stop-color="#c8cede"/></linearGradient><linearGradient id="k" x1="-8.635" x2="-8.225" y1="854.127" y2="854.127" gradientUnits="userSpaceOnUse"><stop stop-color="#fff"/><stop offset=".506" stop-color="#cad1e0"/><stop offset="1" stop-color="#c8cede"/></linearGradient><linearGradient id="l" x1="57.944" x2="143.534" y1="421.617" y2="287.544" gradientUnits="userSpaceOnUse"><stop stop-color="#fff" stop-opacity="0"/><stop offset=".268" stop-color="#fff" stop-opacity="0"/><stop offset="1" stop-color="#4975c2"/></linearGradient><linearGradient id="m" x1="45.829" x2="131.419" y1="416.094" y2="282.02" gradientUnits="userSpaceOnUse"><stop stop-color="#fff" stop-opacity="0"/><stop offset=".268" stop-color="#fff" stop-opacity="0"/><stop offset="1" stop-color="#4975c2"/></linearGradient><linearGradient id="n" x1="-56.73" x2="-56.307" y1="808.129" y2="808.129" gradientUnits="userSpaceOnUse"><stop stop-color="#5e98f7"/><stop offset="1" stop-color="#4670ba"/></linearGradient><linearGradient id="o" x1="-57.867" x2="-57.445" y1="808.581" y2="808.581" gradientUnits="userSpaceOnUse"><stop stop-color="#5e98f7"/><stop offset="1" stop-color="#4670ba"/></linearGradient><clipPath id="a"><path fill="#fff" d="M0 0h535v451H0z"/></clipPath></defs></svg>