<svg xmlns="http://www.w3.org/2000/svg" width="102" height="125" fill="none" viewBox="0 0 102 125"><path fill="#f2f5fc" d="M9.487 106.429V59.082L2.662 55.14v47.565c.048 2.671 1.024 5.69 3.43 7.18l.124.075 6.826 3.94z"/><path fill="#1b69ff" d="m14.556 115.542-8.809-5.089c-2.286-1.416-3.686-4.307-3.747-7.734V53.992l8.152 4.706v47.581zm-11.23-59.25v46.4c.053 2.974 1.218 5.453 3.115 6.628l.111.067 4.975 2.872-2.7-5.682V59.465zm58.959-41.071c3.245-1.874 6.185-2.046 8.307-.813l-6.825-3.94c-2.122-1.234-5.04-1.1-8.285.772L14.256 35.057l6.826 3.94z"/><path fill="#1b69ff" d="m21.086 39.771-8.152-4.706 42.22-24.392c3.326-1.92 6.5-2.193 8.949-.772l6.8 3.923.03.017-.665 1.147-.026-.015c-2-1.147-4.7-.853-7.617.828zm-5.5-4.706 5.5 3.175 40.87-23.587a11.9 11.9 0 0 1 4.846-1.663l-3.363-1.94c-2.02-1.174-4.725-.9-7.622.772z"/><path fill="#1b69ff" d="M9.486 59.085 21.08 39.002l-6.826-3.94q-1.123.646-2.14 1.452-.056.047-.11.1a26.57 26.57 0 0 0-8.946 15.018 18.5 18.5 0 0 0-.4 3.517z"/><path fill="#1b69ff" d="M9.73 59.989 2 55.526v-.382a19 19 0 0 1 .41-3.645 27.36 27.36 0 0 1 9.18-15.407c.052-.048.083-.077.116-.1a18 18 0 0 1 2.219-1.5l.331-.191 7.732 4.464zm-6.4-5.226 5.914 3.415 10.931-18.933-5.916-3.415q-.904.545-1.73 1.2a2 2 0 0 1-.109.095A25.96 25.96 0 0 0 3.711 51.75c-.207.992-.335 2-.38 3.012"/><path fill="#fff" d="m62.285 15.22-41.2 23.778c-5.56 3.21-10.208 10.418-11.331 17.08l63.956-36.91c-1.157-5.348-5.836-7.174-11.425-3.948"/><path fill="#1b69ff" d="m8.863 57.357.234-1.388c1.171-6.943 6.072-14.322 11.653-17.544l41.2-23.778c3.048-1.759 6.017-2.158 8.357-1.12a7.42 7.42 0 0 1 4.045 5.5l.1.473zM67.52 14.286c-1.736.07-3.425.59-4.9 1.509l-41.2 23.778c-4.89 2.823-9.23 9.047-10.717 15.194l62.25-35.924a5.87 5.87 0 0 0-3.174-4.1 5.5 5.5 0 0 0-2.26-.457z"/><path fill="#fff" d="M9.486 106.433c.021 7.4 5.385 10.41 11.8 6.71l41.212-23.794c6.441-3.72 11.511-12.734 11.491-20.135v-47.36a13 13 0 0 0-.279-2.682L9.754 56.08a18 18 0 0 0-.263 3z"/><path fill="#1b69ff" d="M16.066 115.395a6.83 6.83 0 0 1-3.446-.891c-2.44-1.4-3.789-4.271-3.8-8.072v-47.35c.003-1.044.094-2.085.272-3.112l.052-.31.271-.155L74.16 18.14l.192.89c.197.927.295 1.873.294 2.82v47.36c.022 7.642-5.282 16.934-11.823 20.71L21.61 113.714a11.25 11.25 0 0 1-5.544 1.681m-5.919-8.966c.01 3.308 1.123 5.767 3.135 6.926 2.035 1.171 4.757.891 7.665-.788L62.16 88.773c6.173-3.565 11.18-12.34 11.16-19.56v-47.36q-.002-.82-.108-1.633l-62.86 36.276a17 17 0 0 0-.205 2.583z"/><path fill="#1b69ff" d="m33.03 80.186-.98-.085.976-1.206a.85.85 0 0 0 .186-.9c-.094-.134-.264-.138-.44-.037a1 1 0 0 0-.251.22l-.976 1.214V78.1c0-.321-.225-.457-.5-.3a1.11 1.11 0 0 0-.5.876v1.292l-.98-.085a.47.47 0 0 0-.251.07 1.1 1.1 0 0 0-.438.545c-.14.354-.054.666.184.69l.98.078-.976 1.214a.85.85 0 0 0-.18.9c.093.133.267.135.442.035a.9.9 0 0 0 .25-.225l.977-1.206v1.292c0 .32.225.448.5.287a1.1 1.1 0 0 0 .5-.868v-1.292l.979.077a.4.4 0 0 0 .252-.065c.2-.13.354-.32.439-.543.136-.361.052-.666-.193-.686m6.998-4.04-.973-.09.97-1.2a.85.85 0 0 0 .185-.9c-.094-.134-.264-.14-.44-.037a1 1 0 0 0-.252.22l-.976 1.214V74.06c0-.321-.225-.457-.5-.3a1.11 1.11 0 0 0-.5.876v1.292l-.979-.086a.47.47 0 0 0-.252.07 1.1 1.1 0 0 0-.438.546c-.139.353-.054.666.191.685l.973.082-.969 1.21a.85.85 0 0 0-.186.9.32.32 0 0 0 .44.035.9.9 0 0 0 .251-.225l.976-1.207v1.292c0 .32.225.449.5.288a1.1 1.1 0 0 0 .5-.868v-1.292l.98.078a.43.43 0 0 0 .252-.065c.2-.13.355-.32.44-.543.137-.36.051-.663-.193-.683"/><path fill="#1b69ff" d="m65.278 54.895-40.51 23.389.034 12.029 40.51-23.39zm-39.7 34.079-.03-10.247 38.954-22.49.029 10.247z"/><path fill="#1b69ff" d="m47.031 72.104-.98-.086.976-1.206a.85.85 0 0 0 .18-.9c-.095-.135-.265-.138-.44-.037a1 1 0 0 0-.252.22l-.969 1.21v-1.292c0-.321-.232-.453-.51-.292a1.11 1.11 0 0 0-.5.876v1.292l-.98-.086a.45.45 0 0 0-.25.069 1.07 1.07 0 0 0-.435.542c-.139.354-.06.67.184.689l.98.078-.977 1.214a.84.84 0 0 0-.179.9c.091.132.26.14.434.039a.9.9 0 0 0 .252-.226l.976-1.206v1.292c0 .321.225.449.5.288a1.11 1.11 0 0 0 .508-.872v-1.292l.972.082a.42.42 0 0 0 .252-.064 1.1 1.1 0 0 0 .44-.543c.14-.361.055-.666-.182-.689m6.996-4.042-.979-.086.976-1.206a.85.85 0 0 0 .18-.9c-.096-.135-.266-.138-.439-.039a.9.9 0 0 0-.247.217l-.976 1.214V65.97c0-.32-.232-.453-.512-.292a1.13 1.13 0 0 0-.5.876v1.292l-.979-.085a.44.44 0 0 0-.247.068 1.1 1.1 0 0 0-.437.543c-.138.354-.054.666.184.69l.98.078-.976 1.214a.85.85 0 0 0-.179.9c.091.133.26.14.434.039a.9.9 0 0 0 .251-.226l.976-1.206v1.292c0 .321.232.445.5.287a1.11 1.11 0 0 0 .507-.872v-1.292l.98.078a.4.4 0 0 0 .251-.065c.2-.127.352-.317.432-.539.143-.36.058-.665-.18-.688m6.995-4.039-.98-.086.977-1.206a.87.87 0 0 0 .186-.9c-.094-.135-.265-.14-.44-.037a1 1 0 0 0-.252.22l-.976 1.214v-1.292c0-.321-.225-.457-.5-.3a1.13 1.13 0 0 0-.508.88v1.292l-.973-.09a.5.5 0 0 0-.252.072c-.202.128-.356.32-.438.544-.14.354-.054.666.184.69l.98.078-.976 1.214a.85.85 0 0 0-.18.9c.092.132.268.136.442.035a.9.9 0 0 0 .25-.225l.97-1.2v1.29c0 .322.232.446.51.285a1.1 1.1 0 0 0 .5-.868V65.24l.98.078a.4.4 0 0 0 .252-.065c.2-.13.354-.32.439-.543.13-.36.054-.668-.195-.688"/><path fill="#fff" d="m85.788 90.526.017 5.879-11.766-6.838-.017-5.88z"/><path fill="#1b69ff" d="m86.471 97.561-13.094-7.61-.021-7.416 13.1 7.61zm-11.77-8.374 10.438 6.066-.012-4.343-10.437-6.065z"/><path fill="#fff" d="m74.037 89.57 11.766 6.838-5.821 3.361-11.767-6.838z"/><path fill="#1b69ff" d="m79.982 100.536-13.09-7.606 7.147-4.125 13.087 7.606zm-10.442-7.6 10.444 6.07 4.5-2.6-10.444-6.07z"/><path fill="#fff" d="m73.883 77.602 12.077 6.687c2.065 1.2 1.284 4.575-.145 6.188a.2.2 0 0 0-.026.049l-11.766-6.838c.082.05.799-5.537-.14-6.086"/><path fill="#1b69ff" d="m86.045 91.445-.591-.344-11.765-6.837.332-.575-.255-.61a.64.64 0 0 0-.368.4c.185-.71.518-4.754.083-5.353q.029.033.067.054l.653-1.153 12.086 6.691a3.17 3.17 0 0 1 1.537 2.335 6.37 6.37 0 0 1-1.462 4.808zm-11.3-8.1 10.867 6.314a5.08 5.08 0 0 0 .9-3.4 1.86 1.86 0 0 0-.891-1.4l-10.635-5.888c.089 1.463.01 2.931-.238 4.375z"/><path fill="#1b69ff" d="M66.108 94.03c-.23-.133 32.676-24.944 32.875-24.83l-11.767-6.837a3.27 3.27 0 0 0-3.135.307L61.349 75.793c-3.675 2.122-7.49 4.563-7.635 9.326v19.561a3.17 3.17 0 0 0 1.288 2.839l11.767 6.838c-.816-.473-1.172-15.9-1.264-20.751z"/><path fill="#1b69ff" d="M66.436 114.931h-.01l-11.756-6.832a3.72 3.72 0 0 1-1.62-3.411V85.103c.15-4.967 3.854-7.509 7.966-9.883l22.73-13.124a3.92 3.92 0 0 1 3.8-.306l.33.191 11.436 6.645-.666 1.147a.65.65 0 0 0 .617.022c-1.4.791-31.618 23.607-32.66 24.66a.64.64 0 0 0 .157-.516l-.588.078c.22 11.243.648 19.046 1.1 19.926a.45.45 0 0 0-.17-.161zm19.647-52.189a3.5 3.5 0 0 0-1.67.5L61.68 76.367c-3.92 2.263-7.174 4.485-7.3 8.772v19.541a2.6 2.6 0 0 0 .959 2.265L65.758 113c-.34-2.3-.686-7.471-.913-19.38l-.025-1.307 1.25.878c1.112-.927 4.642-3.692 16.12-12.352 4.237-3.2 8.222-6.185 11.222-8.416 2.2-1.637 3.517-2.613 4.33-3.178l-9.018-5.24c-.992-.578-1.531-.89-1.822-1.1l-.016.026a1.6 1.6 0 0 0-.803-.189"/><path fill="#fff" d="m69.823 84.532 26.023-15.025c2.435-1.406 4.418-.276 4.426 2.532v19.36a9.63 9.63 0 0 1-4.342 7.626L69.906 114.05c-2.434 1.406-4.418.276-4.425-2.532v-19.36a9.64 9.64 0 0 1 4.342-7.626m10.143 9.356v5.879l5.84-3.361-.017-5.88a7.74 7.74 0 0 0 1-3.577c-.008-2.487-1.769-3.481-3.933-2.231a8.6 8.6 0 0 0-3.906 6.757 2.8 2.8 0 0 0 1.016 2.413"/><path fill="#1b69ff" d="M67.927 115.321a2.93 2.93 0 0 1-1.48-.385 3.72 3.72 0 0 1-1.63-3.416V92.159a10.26 10.26 0 0 1 4.673-8.2l26.025-15.025a3.341 3.341 0 0 1 5.42 3.1V91.4a10.26 10.26 0 0 1-4.674 8.2l-26.023 15.02a4.7 4.7 0 0 1-2.31.7m2.226-30.214a8.95 8.95 0 0 0-4.01 7.049v19.365a2.053 2.053 0 0 0 3.431 1.957L95.6 98.453a8.95 8.95 0 0 0 4.01-7.05V72.04a2.054 2.054 0 0 0-3.432-1.957zm9.15 15.808v-6.71a3.63 3.63 0 0 1-1.017-2.729 9.2 9.2 0 0 1 4.237-7.333 3.4 3.4 0 0 1 3.449-.28 3.36 3.36 0 0 1 1.478 3.084 8.3 8.3 0 0 1-1 3.744l.017 6.1zm5.317-16.072a2.96 2.96 0 0 0-1.434.449 7.88 7.88 0 0 0-3.575 6.18 2.2 2.2 0 0 0 .731 1.871l.287.2v5.08l4.51-2.6-.015-5.663.08-.148a7.1 7.1 0 0 0 .92-3.262 2.12 2.12 0 0 0-.815-1.938 1.37 1.37 0 0 0-.688-.168z"/><path fill="#f2f5fc" d="m73.621 57.672 4.514-2.606c4.138-2.39 7.512-.466 7.526 4.28v10.389l-4.593 2.663v-10.39c-.005-1.824-1.323-2.564-2.918-1.643l-4.514 2.607a6.33 6.33 0 0 0-2.865 4.979v10.392l-4.627 2.663V70.614c-.09-7.486 3.34-10.553 7.477-12.942"/><path fill="#1b69ff" d="M65.482 82.153v-11.54c-.1-7.86 3.7-11.141 7.808-13.515l4.514-2.607c2.222-1.283 4.35-1.47 5.987-.527 1.639.943 2.526 2.847 2.533 5.38V70.12l-5.918 3.432V62.009a1.41 1.41 0 0 0-.519-1.27 1.47 1.47 0 0 0-1.4.2l-4.513 2.607a5.7 5.7 0 0 0-2.535 4.4v10.777zm8.472-23.906c-3.5 2.024-7.237 4.814-7.146 12.359v9.253l3.3-1.9V67.952a6.97 6.97 0 0 1 3.2-5.553l4.515-2.606a2.71 2.71 0 0 1 2.73-.2 2.63 2.63 0 0 1 1.183 2.417v9.243L85 69.359v-10.01c-.005-2.038-.669-3.542-1.868-4.232s-2.867-.51-4.662.527zM46.33 42.14c-.014 0-.014.017-.014 0-1.747 1.068-3.365 4.4-3.6 7.424-.213 3.023 1 4.6 2.73 3.583.016 0 .017-.015.032-.015 1.746-1.068 3.365-4.4 3.6-7.424.213-3.007-1-4.606-2.747-3.566m-1.078 12.767c-.016.017-.032.016-.032.033h-.018a10.4 10.4 0 0 0-3.188 3.519 18.9 18.9 0 0 0-2.53 7.42 6 6 0 0 0-.053.515l-.038.5c-.026.266.092.4.266.3l9.95-6.027c.195-.173.317-.415.34-.676.372-4.855-1.728-7.346-4.7-5.583"/></svg>