<svg xmlns="http://www.w3.org/2000/svg" width="102" height="125" fill="none" viewBox="0 0 102 125"><g clip-path="url(#a)"><g clip-path="url(#b)"><path fill="#1b69ff" fill-rule="evenodd" d="M52.863 5.756 21.94 22.903a10.94 10.94 0 0 0-5.211 8.716l-.043 73.879c.166 1.53.188 1.962 1.346 2.873l1.816 1c-.065-.355-.094-.744-.138-1.183l.022-74a12.62 12.62 0 0 1 6.02-10.073L55.866 7.42l-3-1.67zM22.2 112.432a.9.9 0 0 1-.428-.111l-4.7-2.616c-1.73-1.356-1.9-2.295-2.07-4.131l.03-74a12.62 12.62 0 0 1 6.02-10.072l31.38-17.4a.91.91 0 0 1 .868 0L58 6.71a.818.818 0 0 1 0 1.419L26.65 25.513a10.92 10.92 0 0 0-5.218 8.709l-.021 73.885c.144 1.531.2 1.961 1.324 2.873a.76.76 0 0 1 .315.51.77.77 0 0 1-.15.581.86.86 0 0 1-.7.361" clip-rule="evenodd"/><path fill="#1b69ff" fill-rule="evenodd" d="M57.568 8.372 26.654 25.518a11.15 11.15 0 0 0-5.218 8.675l-.021 73.92a3.02 3.02 0 0 0 1.222 2.8 3.26 3.26 0 0 0 3.119-.375l45.426-25.174a11.24 11.24 0 0 0 5.21-8.681l.023-57.832L57.57 8.376zM23.67 112.8a3.87 3.87 0 0 1-1.9-.48 4.5 4.5 0 0 1-2.062-4.208l.022-73.92a12.79 12.79 0 0 1 6.07-10.094l31.33-17.383a.92.92 0 0 1 .868 0l19.684 10.949a.81.81 0 0 1 .434.708l-.022 58.3a12.81 12.81 0 0 1-6.078 10.093l-45.4 25.18a6.2 6.2 0 0 1-2.947.855" clip-rule="evenodd"/><path fill="#f2f5fc" fill-rule="evenodd" d="m21.67 29.91-2.465-1.367L16.97 27.3a10.3 10.3 0 0 0-1.1 4.278l-.022 73.92c.166 1.7.239 2.393 1.65 3.505l4.7 2.616c-1.412-1.113-1.484-1.808-1.651-3.506l.022-73.92c.054-1.49.43-2.952 1.1-4.284" clip-rule="evenodd"/><path fill="#1b69ff" fill-rule="evenodd" d="M17.377 28.462a9 9 0 0 0-.651 3.15l-.043 73.879c.166 1.53.188 1.96 1.346 2.872l1.816 1c-.065-.355-.094-.743-.138-1.182l.022-74c.049-1.354.34-2.687.861-3.937zm4.82 83.964a.9.9 0 0 1-.428-.111l-4.7-2.616c-1.729-1.356-1.9-2.296-2.069-4.132l.029-74c.04-1.612.44-3.195 1.172-4.632a.82.82 0 0 1 .507-.425.84.84 0 0 1 .673.07l4.7 2.615a.806.806 0 0 1 .361 1.055 9.05 9.05 0 0 0-1.013 3.967l-.021 73.886c.144 1.53.2 1.961 1.324 2.873a.765.765 0 0 1 .166 1.09.86.86 0 0 1-.697.365z" clip-rule="evenodd"/><path fill="#1b69ff" d="M65.035 62.132a1.88 1.88 0 0 0-.845 1.478v13.755l-34 19.583V57.866c0-.547-.378-.773-.845-.5a1.88 1.88 0 0 0-.845 1.478v40.073c0 .548.378.774.845.5L65.037 78.86a1.88 1.88 0 0 0 .845-1.478V62.636c.003-.542-.38-.77-.847-.504"/><path fill="#1b69ff" d="M73.378 33a1.33 1.33 0 0 1-.365-1.105c.07-1.871-.96-2.951-2.465-2.561a.88.88 0 0 1-.954-.263c-.834-1.02-2.384-.717-3.715.512V19.89c0-.548-.378-.773-.845-.5L38.318 34.777a1.7 1.7 0 0 0-.6.635c-9.591 16.778-9.045 15.78-9.143 16.078-.22.673.025 1.179.519 1.072.185-.042-.3.217 9.22-5.268a1.88 1.88 0 0 0 .846-1.478v-3.95c0-.546-.378-.773-.845-.5a1.88 1.88 0 0 0-.845 1.479v2.958L31.385 49.3l7.286-12.747 25.52-14.7v8.716c-1.354.294-2.9 1.777-3.737 3.74a3.9 3.9 0 0 1-.967 1.395 7.53 7.53 0 0 0-2.466 5.4c0 .51-.117 1.013-.343 1.47l-.055.127c-.944 1.968-.933 4 .034 4.85a1.35 1.35 0 0 1 .366 1.059c-.12 1.785.874 3.019 2.462 2.61a.87.87 0 0 1 .953.263c.619.756 1.666.819 2.8.166.94-.542 1.187-1.067 1.778-1.407.59-.34.833-.1 1.779-.642a6.4 6.4 0 0 0 1.969-1.886v7.789l-3.312.067c-.192-.021-.482.07-.878.51-.1.113-2 2.267-3.306 3.739V55.5c0-.548-.378-.773-.845-.5a1.88 1.88 0 0 0-.845 1.478v5.882c0 .726.645.835 1.2.2 2.042-2.3 4.12-4.66 4.232-4.786l4.233-.086c.558-.011 1.206-.863 1.206-1.591V44.94l.093-.09a7.54 7.54 0 0 0 2.465-5.42 3.2 3.2 0 0 1 .365-1.5c.985-1.997.985-4.067.006-4.93m-8.853 24.758c-.068-.021-.065-.02 0 0"/></g></g><defs><clipPath id="a"><path fill="#fff" d="M0 0h102v125H0z"/></clipPath><clipPath id="b"><path fill="#fff" d="M15-4h63.12v125H15z"/></clipPath></defs></svg>