<svg xmlns="http://www.w3.org/2000/svg" width="102" height="125" fill="none" viewBox="0 0 102 125"><g fill-rule="evenodd" clip-path="url(#a)" clip-rule="evenodd"><path fill="#4069fa" d="M66.183 72.465v8.385l29.21-10.057v-8.391zm-.694 10.214a.64.64 0 0 1-.413-.157.74.74 0 0 1-.298-.619V71.898a.77.77 0 0 1 .497-.743L95.89 60.604a.64.64 0 0 1 .61.111.83.83 0 0 1 .298.63v10.01a.78.78 0 0 1-.497.742l-30.615 10.55a.5.5 0 0 1-.197.032"/><path fill="#f0f3fa" d="M91.268 88.293v10.011l-12.405 7.872V96.172z"/><path fill="#4069fa" d="M79.555 96.616v8.228l11.017-6.983v-8.229zm-.694 10.34a.75.75 0 0 1-.36-.105.8.8 0 0 1-.353-.671V96.168a.78.78 0 0 1 .354-.665l12.42-7.885a.66.66 0 0 1 .694 0 .78.78 0 0 1 .36.67v10.013a.79.79 0 0 1-.36.67l-12.399 7.878a.74.74 0 0 1-.358.105"/><path fill="#1b69ff" d="M78.865 96.168v10.012l-25.79-16.404v-10.01z"/><path fill="#4069fa" d="m53.765 89.34 24.383 15.507v-8.226L53.765 81.113zm25.096 17.619a.74.74 0 0 1-.358-.105l-25.79-16.4a.77.77 0 0 1-.341-.672V79.771a.78.78 0 0 1 .34-.671.66.66 0 0 1 .711 0L79.22 95.508a.76.76 0 0 1 .334.665v10.012a.79.79 0 0 1-.334.671.75.75 0 0 1-.36.105"/><path fill="#f0f3fa" d="M53.068 79.77v10.01l-16.619 19.444V99.208z"/><path fill="#4069fa" d="M37.14 99.512v7.76l15.232-17.796V81.71zm-.695 10.485a.7.7 0 0 1-.264-.058.77.77 0 0 1-.454-.718v-10.01a.85.85 0 0 1 .197-.535l16.628-19.435a.66.66 0 0 1 .78-.192.76.76 0 0 1 .437.717v10.011a.82.82 0 0 1-.18.533l-16.628 19.437a.7.7 0 0 1-.514.25"/><path fill="#1b69ff" d="M36.448 99.21v10.012L6.406 52.209V42.2z"/><path fill="#4069fa" d="m7.094 52.008 28.63 54.34v-6.935L7.094 45.078zm29.347 57.986a.72.72 0 0 1-.625-.388L5.789 52.601a.9.9 0 0 1-.101-.389V42.201a.78.78 0 0 1 .52-.743.66.66 0 0 1 .789.355l30.042 57.011a.67.67 0 0 1 .102.39v10.01a.78.78 0 0 1-.52.749.7.7 0 0 1-.174.027"/><path fill="#fff" d="m6.406 42.2 89.688 19.14-30.622 10.558 25.795 16.394-12.404 7.88-25.794-16.403-16.62 19.443z"/><path fill="#4069fa" d="m7.773 43.286 28.81 54.636 15.968-18.68a.67.67 0 0 1 .874-.144l25.436 16.185 10.992-6.99-24.723-15.73a.84.84 0 0 1-.353-.75.76.76 0 0 1 .496-.658l27.955-9.636zM36.45 99.982h-.084a.76.76 0 0 1-.54-.382L5.788 42.589a.85.85 0 0 1 .038-.836.66.66 0 0 1 .694-.315l89.706 19.14a.75.75 0 0 1 .575.717.79.79 0 0 1-.497.776L67.217 72.108 91.62 87.62a.8.8 0 0 1 .358.672.81.81 0 0 1-.358.672l-12.4 7.878a.67.67 0 0 1-.717 0l-25.294-16.1-16.25 18.996a.73.73 0 0 1-.514.244"/></g><defs><clipPath id="a"><path fill="#fff" d="M1 0h100v110H1z"/></clipPath></defs></svg>