<svg xmlns="http://www.w3.org/2000/svg" width="73" height="95" fill="none" viewBox="0 0 73 95"><g clip-path="url(#a)"><path fill="#0c5ae5" d="m54.129 71.652 17.554-9.706-17.4-10.467-18.47 9.6z"/><path fill="#0c5ae5" d="M54.133 72.354a.7.7 0 0 1-.35-.094l-18.32-10.57a.7.7 0 0 1 .027-1.232l18.471-9.6a.7.7 0 0 1 .685.022l17.4 10.467a.7.7 0 0 1-.022 1.216l-17.554 9.7a.7.7 0 0 1-.337.091m-16.86-11.24 16.867 9.733 16.143-8.926-16.024-9.637z"/><path fill="#fff" d="M59.172 16.514 47.616 23.23l-11.632-6.716L47.54 9.798z"/><path fill="#0c5ae5" d="M47.616 23.932a.7.7 0 0 1-.351-.094l-11.632-6.715a.7.7 0 0 1 0-1.214L47.19 9.193a.7.7 0 0 1 .7 0l11.63 6.716a.7.7 0 0 1 0 1.214l-11.555 6.715a.7.7 0 0 1-.35.094m-10.231-7.42 10.23 5.907 10.158-5.9-10.23-5.907z"/><path fill="#d4e6fc" d="m59.172 16.513-.17 44.566-11.557 6.716.171-44.566z"/><path fill="#0c5ae5" d="M47.444 68.496a.71.71 0 0 1-.609-.352.7.7 0 0 1-.093-.353l.171-44.566a.7.7 0 0 1 .35-.6l11.555-6.715a.7.7 0 0 1 1.054.61l-.17 44.565a.7.7 0 0 1-.35.6L47.794 68.4a.7.7 0 0 1-.35.096m.872-44.863-.166 42.94 10.151-5.9.164-42.94z"/><path fill="#fff" d="m47.616 23.23-.172 44.566-11.632-6.716.172-44.566z"/><path fill="#0c5ae5" d="M47.443 68.497a.7.7 0 0 1-.35-.094L35.46 61.688a.7.7 0 0 1-.35-.611l.17-44.566a.7.7 0 0 1 1.053-.6l11.632 6.715a.7.7 0 0 1 .351.611l-.17 44.566a.7.7 0 0 1-.703.694m-10.929-7.824 10.231 5.906.166-42.949-10.23-5.907zM19.02 91.064l17.553-9.706-17.4-10.467-18.47 9.6z"/><path fill="#0c5ae5" d="M19.023 91.766a.7.7 0 0 1-.351-.094L.353 81.1a.7.7 0 0 1 .028-1.231l18.469-9.6a.7.7 0 0 1 .685.022l17.4 10.466a.7.7 0 0 1-.022 1.216L19.359 91.68a.7.7 0 0 1-.336.085M2.164 80.524l16.866 9.734 16.143-8.926-16.024-9.637z"/><path fill="#0c5ae5" d="m36.574 81.358 17.554-9.706-17.4-10.467-18.47 9.6z"/><path fill="#0c5ae5" d="M36.57 82.059a.7.7 0 0 1-.35-.094L17.9 71.393a.7.7 0 0 1 .028-1.231l18.47-9.6a.7.7 0 0 1 .686.022l17.4 10.466a.7.7 0 0 1-.022 1.216l-17.554 9.706a.7.7 0 0 1-.337.087M19.714 70.818l16.868 9.734 16.143-8.926L36.7 61.989z"/><path fill="#fff" d="m41.62 42.73-11.556 6.715L18.43 42.73l11.556-6.716z"/><path fill="#0c5ae5" d="M30.06 50.147a.7.7 0 0 1-.35-.094l-11.632-6.716a.7.7 0 0 1 0-1.214l11.558-6.715a.7.7 0 0 1 .7 0l11.63 6.715a.7.7 0 0 1 0 1.214l-11.555 6.716a.7.7 0 0 1-.35.094m-10.23-7.42 10.23 5.907 10.158-5.9-10.23-5.907z"/><path fill="#d4e6fc" d="m41.618 42.73-.171 28.056L29.89 77.5l.17-28.056z"/><path fill="#0c5ae5" d="M29.888 78.203a.7.7 0 0 1-.7-.706l.17-28.056a.7.7 0 0 1 .35-.6l11.556-6.715a.7.7 0 0 1 1.053.611l-.17 28.056a.7.7 0 0 1-.35.6L30.24 78.111a.7.7 0 0 1-.352.092m.87-28.354-.162 26.428 10.15-5.9.16-26.428z"/><path fill="#fff" d="m30.06 49.447-.17 28.055-11.632-6.715.17-28.057z"/><path fill="#0c5ae5" d="M29.889 78.204a.7.7 0 0 1-.351-.094l-11.632-6.716a.7.7 0 0 1-.351-.612l.17-28.055a.7.7 0 0 1 1.054-.6l11.632 6.715a.7.7 0 0 1 .35.613l-.17 28.056a.7.7 0 0 1-.7.7zm-10.927-7.82 10.233 5.907.16-26.442-10.232-5.908z"/><path fill="#fff" d="m24.06 66.006-11.556 6.716L.875 66.006l11.556-6.716z"/><path fill="#0c5ae5" d="M12.507 73.425a.7.7 0 0 1-.35-.094L.522 66.615a.7.7 0 0 1 0-1.214l11.553-6.717a.7.7 0 0 1 .7 0L24.407 65.4a.7.7 0 0 1 0 1.214L12.852 73.33a.7.7 0 0 1-.345.095m-10.23-7.42 10.23 5.907 10.157-5.9-10.23-5.907z"/><path fill="#d4e6fc" d="m24.063 66.007-.171 14.484-11.556 6.716.17-14.484z"/><path fill="#0c5ae5" d="M12.335 87.905a.7.7 0 0 1-.352-.1.7.7 0 0 1-.35-.613l.173-14.484a.7.7 0 0 1 .35-.6l11.555-6.715a.7.7 0 0 1 1.054.615l-.17 14.484a.7.7 0 0 1-.35.6l-11.558 6.716a.7.7 0 0 1-.352.097m.87-14.78-.153 12.85 10.143-5.894.15-12.85z"/><path fill="#fff" d="m12.506 72.723-.17 14.484L.702 80.491l.171-14.484z"/><path fill="#0c5ae5" d="M12.333 87.905a.7.7 0 0 1-.35-.094L.35 81.095a.7.7 0 0 1-.35-.616l.17-14.484a.7.7 0 0 1 1.052-.6l11.633 6.716a.7.7 0 0 1 .351.615l-.173 14.486a.7.7 0 0 1-.7.693m-10.925-7.82 10.238 5.92.153-12.876-10.237-5.91zM2.124 36.844a.823.823 0 0 1-.583-1.408L31.788 5.262a.825.825 0 0 1 1.165 1.17L2.706 36.603a.83.83 0 0 1-.582.24"/><path fill="#0c5ae5" d="M31.544 13.949a.826.826 0 0 1-.806-1.004l1.575-7.052-7.359 1.519a.824.824 0 0 1-.335-1.613l8.61-1.778a.8.8 0 0 1 .755.229.82.82 0 0 1 .218.758l-1.853 8.3a.826.826 0 0 1-.805.641"/></g><defs><clipPath id="a"><path fill="#fff" d="M0 0h72.385v95H0z"/></clipPath></defs></svg>