<svg xmlns="http://www.w3.org/2000/svg" width="58" height="72" fill="none" viewBox="0 0 58 72"><path fill="#1b69ff" fill-rule="evenodd" d="M57.075 44.388 28.472 27.831a.99.99 0 0 0-.97.096L1.896 42.758c-.406.256-.74.612-.97 1.034l28.603 16.553c.226-.41.543-.764.926-1.034l25.65-14.83a.97.97 0 0 1 .97-.092" clip-rule="evenodd"/><path fill="#1b69ff" fill-rule="evenodd" d="m1.676 43.622 27.678 16.031c.234-.305.517-.57.838-.782l25.43-14.719L28.207 28.28c-.088-.038-.177-.049-.485.11L2.16 43.203a2.3 2.3 0 0 0-.485.42zM29.53 60.865a.6.6 0 0 1-.264-.072L.662 44.242a.55.55 0 0 1-.264-.323.65.65 0 0 1 .089-.402c.26-.5.657-.916 1.145-1.198l25.606-14.842a1.51 1.51 0 0 1 1.455-.115L57.34 43.937a.525.525 0 0 1 .177.689.496.496 0 0 1-.662.229c-.132-.066-.22-.07-.528.084L30.72 59.759a2 2 0 0 0-.75.858.56.56 0 0 1-.44.248" clip-rule="evenodd"/><path fill="#e6f2fd" fill-rule="evenodd" d="M57.473 45.282a.93.93 0 0 0-.397-.893.95.95 0 0 0-.97.093l-25.65 14.83a2.7 2.7 0 0 0-.925 1.033v.005c-.266.407-.418.879-.441 1.365v8.774a.97.97 0 0 0 .44.897.87.87 0 0 0 .926-.097l25.65-14.824a3.1 3.1 0 0 0 1.367-2.406z" clip-rule="evenodd"/><path fill="#1b69ff" fill-rule="evenodd" d="M56.72 44.813a.7.7 0 0 0-.352.119l-25.651 14.83c-.322.207-.58.499-.75.843a2.3 2.3 0 0 0-.352 1.11v8.773c0 .226.044.394.132.447.088.044.22.038.485-.093L55.84 56.013a2.63 2.63 0 0 0 1.101-1.953V45.28c0-.267-.044-.402-.132-.442-.044-.017-.044-.026-.088-.026M29.88 72a1.2 1.2 0 0 1-.617-.163 1.48 1.48 0 0 1-.706-1.348v-8.774a3.34 3.34 0 0 1 .485-1.627 3.46 3.46 0 0 1 1.19-1.228L55.84 44.03a1.48 1.48 0 0 1 1.498-.092 1.53 1.53 0 0 1 .661 1.343v8.779a3.57 3.57 0 0 1-1.63 2.85l-25.651 14.83c-.25.163-.54.253-.838.26" clip-rule="evenodd"/><path fill="#1b69ff" fill-rule="evenodd" d="m53.414 53.937 2.468-1.433v-2.86l-2.468 1.433z" clip-rule="evenodd"/><path fill="#1b69ff" fill-rule="evenodd" d="M53.943 51.376v1.662l1.455-.832v-1.661zm-.529 3.08a.6.6 0 0 1-.264-.07.55.55 0 0 1-.22-.45v-2.861a.56.56 0 0 1 .22-.45l2.468-1.428a.52.52 0 0 1 .53 0 .49.49 0 0 1 .263.446v2.86a.49.49 0 0 1-.264.45l-2.468 1.432a.6.6 0 0 1-.265.071" clip-rule="evenodd"/><path fill="#fff" fill-rule="evenodd" d="M29.527 60.342.923 43.79v.005c-.26.407-.398.881-.396 1.366v8.774a.9.9 0 0 0 .396.896l28.604 16.554a1.03 1.03 0 0 1-.441-.898v-8.774a3 3 0 0 1 .44-1.365z" clip-rule="evenodd"/><path fill="#1b69ff" fill-rule="evenodd" d="M1.147 44.525a3 3 0 0 0-.133.66v8.75c.045.319.089.385.221.47L28.56 70.25v-8.535c.032-.398.122-.79.267-1.162L1.149 44.527zM29.53 71.903a.53.53 0 0 1-.264-.066L.662 55.283A1.43 1.43 0 0 1 0 53.958v-8.796c-.002-.57.15-1.129.44-1.618a.56.56 0 0 1 .353-.252.53.53 0 0 1 .397.049l28.557 16.553a.51.51 0 0 1 .22.698c-.211.346-.332.74-.352 1.146v8.751c0 .323.088.385.177.47a.56.56 0 0 1 .175.706.63.63 0 0 1-.438.238M49.32 56.307l2.468-1.427v-2.864l-2.468 1.432z" clip-rule="evenodd"/><path fill="#1b69ff" fill-rule="evenodd" d="M49.847 53.749v1.662l1.454-.831v-1.662zm-.53 3.08a.54.54 0 0 1-.263-.07.59.59 0 0 1-.265-.451v-2.86a.6.6 0 0 1 .265-.45l2.513-1.428a.46.46 0 0 1 .485 0 .49.49 0 0 1 .264.446v2.864a.5.5 0 0 1-.264.451l-2.468 1.428a.54.54 0 0 1-.265.07zM57.075 30.908 28.472 14.359a.96.96 0 0 0-.97.093L1.896 29.28c-.407.255-.741.611-.97 1.034l28.603 16.553a3.1 3.1 0 0 1 .926-1.034l25.65-14.83a.98.98 0 0 1 .97-.097" clip-rule="evenodd"/><path fill="#1b69ff" fill-rule="evenodd" d="m1.676 30.144 27.678 16.03c.235-.304.518-.569.838-.782l25.43-14.723-27.415-15.867c-.088-.039-.177-.049-.485.106L2.16 29.724a2.3 2.3 0 0 0-.485.42zM29.53 47.386a.54.54 0 0 1-.264-.07L.662 30.762a.56.56 0 0 1-.264-.323.65.65 0 0 1 .089-.402c.261-.5.658-.915 1.145-1.197l25.606-14.843a1.5 1.5 0 0 1 1.455-.115l28.647 16.57a.532.532 0 0 1-.108.942.5.5 0 0 1-.377-.018c-.132-.062-.22-.07-.528.088L30.72 46.28a2.05 2.05 0 0 0-.75.858.56.56 0 0 1-.44.25z" clip-rule="evenodd"/><path fill="#e6f2fd" fill-rule="evenodd" d="M57.473 31.807a.95.95 0 0 0-.397-.902.96.96 0 0 0-.97.097l-25.65 14.83a2.7 2.7 0 0 0-.925 1.033c-.265.41-.418.883-.441 1.37v8.775a.97.97 0 0 0 .44.897.87.87 0 0 0 .926-.093l25.65-14.834a3.2 3.2 0 0 0 .97-1.034c.253-.41.39-.883.397-1.366z" clip-rule="evenodd"/><path fill="#1b69ff" fill-rule="evenodd" d="M56.72 31.334a.66.66 0 0 0-.352.12L30.717 46.281c-.322.209-.58.5-.75.845-.21.332-.331.714-.352 1.107v8.774c0 .225.045.393.132.446.088.044.22.038.485-.092l25.607-14.83c.322-.22.593-.508.793-.844.199-.336.305-.719.308-1.11v-8.773c0-.225-.043-.398-.132-.451-.044-.013-.044-.022-.088-.022zM29.88 58.522a1.2 1.2 0 0 1-.617-.163 1.47 1.47 0 0 1-.706-1.349v-8.773a3.4 3.4 0 0 1 .485-1.631c.29-.501.698-.922 1.19-1.225L55.84 30.552a1.48 1.48 0 0 1 1.498-.097 1.55 1.55 0 0 1 .661 1.352v8.774a3.68 3.68 0 0 1-1.63 2.85l-25.651 14.83c-.25.164-.54.255-.838.261" clip-rule="evenodd"/><path fill="#1b69ff" fill-rule="evenodd" d="m53.414 40.46 2.468-1.428v-2.864L53.414 37.6z" clip-rule="evenodd"/><path fill="#1b69ff" fill-rule="evenodd" d="M53.943 37.897v1.657l1.455-.826v-1.662zm-.529 3.08a.6.6 0 0 1-.264-.07.56.56 0 0 1-.22-.451v-2.86a.56.56 0 0 1 .22-.45l2.468-1.428a.51.51 0 0 1 .53 0 .48.48 0 0 1 .263.446v2.864a.5.5 0 0 1-.264.447l-2.468 1.432a.6.6 0 0 1-.265.073z" clip-rule="evenodd"/><path fill="#fff" fill-rule="evenodd" d="M29.527 46.865.923 30.312c-.26.408-.397.882-.396 1.366v8.778a.91.91 0 0 0 .396.898l28.604 16.553a1.03 1.03 0 0 1-.441-.898v-8.773c.036-.486.187-.956.44-1.371" clip-rule="evenodd"/><path fill="#1b69ff" fill-rule="evenodd" d="M1.147 31.046a3 3 0 0 0-.132.659v8.752c.044.323.088.384.22.468L28.56 56.772v-8.535c.033-.398.122-.79.267-1.162L1.149 31.047zM29.53 58.43a.54.54 0 0 1-.264-.071L.662 41.805A1.43 1.43 0 0 1 0 40.478v-8.8a3.13 3.13 0 0 1 .44-1.613.55.55 0 0 1 .353-.252.49.49 0 0 1 .397.053l28.557 16.55a.51.51 0 0 1 .279.503.5.5 0 0 1-.059.194c-.211.346-.332.74-.352 1.146v8.751a.51.51 0 0 0 .177.473.55.55 0 0 1 .175.703.64.64 0 0 1-.438.242M49.32 42.83l2.468-1.427v-2.864l-2.468 1.432z" clip-rule="evenodd"/><path fill="#1b69ff" fill-rule="evenodd" d="M49.847 40.273v1.661l1.454-.83v-1.662zm-.53 3.08a.53.53 0 0 1-.263-.07.6.6 0 0 1-.265-.451v-2.86a.6.6 0 0 1 .265-.45l2.513-1.429a.46.46 0 0 1 .485 0 .49.49 0 0 1 .264.447v2.864a.5.5 0 0 1-.264.45l-2.468 1.428a.54.54 0 0 1-.265.071z" clip-rule="evenodd"/><path fill="#fff" fill-rule="evenodd" d="M57.075 17.165 28.472.608a.99.99 0 0 0-.97.097L1.896 15.534c-.406.256-.74.612-.97 1.034l28.603 16.553a3.1 3.1 0 0 1 .926-1.034l25.65-14.83a.97.97 0 0 1 .97-.092" clip-rule="evenodd"/><path fill="#1b69ff" fill-rule="evenodd" d="M1.677 16.398 29.354 32.43a3.5 3.5 0 0 1 .838-.783l25.43-14.718L28.207 1.056c-.088-.038-.176-.048-.484.11L2.16 15.979q-.271.177-.485.42zM29.53 33.64a.54.54 0 0 1-.265-.071L.663 17.017a.55.55 0 0 1-.265-.322.63.63 0 0 1 .089-.398c.26-.502.657-.92 1.145-1.203L27.24.256a1.49 1.49 0 0 1 1.454-.114l28.647 16.57a.525.525 0 0 1 .177.69.51.51 0 0 1-.662.229c-.132-.062-.22-.07-.528.084L30.72 32.535c-.324.21-.584.507-.749.858a.56.56 0 0 1-.44.25z" clip-rule="evenodd"/><path fill="#e6f2fd" fill-rule="evenodd" d="M57.473 18.062a.94.94 0 0 0-.397-.897.96.96 0 0 0-.97.093l-25.65 14.829a2.7 2.7 0 0 0-.925 1.034v.005c-.266.408-.418.879-.441 1.365v8.774a.97.97 0 0 0 .44.897.88.88 0 0 0 .926-.092l25.65-14.83c.397-.269.728-.624.97-1.038.253-.411.39-.883.397-1.366z" clip-rule="evenodd"/><path fill="#1b69ff" fill-rule="evenodd" d="M56.72 17.59a.66.66 0 0 0-.352.118l-25.651 14.83c-.32.209-.58.5-.75.844-.21.333-.331.715-.352 1.11v8.773c-.015.16.032.32.132.447.088.038.22.038.485-.094L55.84 28.79a2.6 2.6 0 0 0 .793-.844c.198-.336.305-.719.308-1.11v-8.773c0-.27-.043-.407-.132-.447-.044-.017-.044-.026-.088-.026M29.88 44.777a1.2 1.2 0 0 1-.617-.164 1.48 1.48 0 0 1-.706-1.348v-8.774a3.34 3.34 0 0 1 .485-1.627c.29-.502.698-.924 1.19-1.228l25.607-14.83a1.49 1.49 0 0 1 1.498-.093 1.54 1.54 0 0 1 .661 1.349v8.773a3.68 3.68 0 0 1-1.63 2.851l-25.651 14.83c-.25.164-.54.254-.838.26" clip-rule="evenodd"/><path fill="#1b69ff" fill-rule="evenodd" d="m53.414 26.714 2.468-1.428v-2.864l-2.468 1.432z" clip-rule="evenodd"/><path fill="#1b69ff" fill-rule="evenodd" d="M53.943 24.15v1.663l1.455-.831V23.32zm-.529 3.082a.54.54 0 0 1-.264-.071.55.55 0 0 1-.22-.451v-2.86a.56.56 0 0 1 .22-.45l2.468-1.428a.51.51 0 0 1 .53 0 .49.49 0 0 1 .263.446v2.864a.5.5 0 0 1-.264.451l-2.468 1.428a.54.54 0 0 1-.265.07" clip-rule="evenodd"/><path fill="#fff" fill-rule="evenodd" d="M29.527 33.12.923 16.565v.005c-.26.407-.398.881-.396 1.365v8.774a.91.91 0 0 0 .396.898L29.527 44.16a1.03 1.03 0 0 1-.441-.898V34.49c.035-.485.187-.953.44-1.366z" clip-rule="evenodd"/><path fill="#1b69ff" fill-rule="evenodd" d="M1.147 17.303a3 3 0 0 0-.133.658v8.752c.045.318.089.384.221.468L28.56 43.03v-8.536c.033-.398.122-.79.267-1.162L1.149 17.304zM29.53 44.685a.54.54 0 0 1-.264-.07L.662 28.06A1.43 1.43 0 0 1 0 26.735V17.94c-.002-.57.15-1.128.44-1.618a.56.56 0 0 1 .353-.251.5.5 0 0 1 .397.053l28.557 16.552a.504.504 0 0 1 .22.695c-.211.346-.332.74-.352 1.145v8.752a.51.51 0 0 0 .177.473.55.55 0 0 1 .175.702.64.64 0 0 1-.438.243M49.32 29.091l2.468-1.432v-2.858l-2.468 1.427z" clip-rule="evenodd"/><path fill="#1b69ff" fill-rule="evenodd" d="M49.847 26.526v1.662l1.454-.83v-1.659zm-.53 3.08a.54.54 0 0 1-.263-.07.59.59 0 0 1-.265-.446v-2.864a.58.58 0 0 1 .265-.446l2.513-1.433a.46.46 0 0 1 .485 0 .5.5 0 0 1 .264.452v2.859a.5.5 0 0 1-.264.45l-2.468 1.429a.54.54 0 0 1-.265.07zM31.6 37.948a.49.49 0 0 1-.44-.26.55.55 0 0 1 .176-.708l15.426-8.929a.52.52 0 0 1 .705.191.556.556 0 0 1-.177.712l-15.425 8.924a.54.54 0 0 1-.264.07M31.6 51.693a.5.5 0 0 1-.44-.26.55.55 0 0 1 .176-.708L46.762 41.8a.514.514 0 0 1 .705.186.556.556 0 0 1-.176.711l-15.426 8.924a.54.54 0 0 1-.264.07M31.6 65.17a.5.5 0 0 1-.44-.26.55.55 0 0 1 .176-.707l15.426-8.929a.52.52 0 0 1 .705.194.55.55 0 0 1-.176.707L31.865 65.1a.54.54 0 0 1-.264.07" clip-rule="evenodd"/></svg>