<svg width="58" height="72" viewBox="0 0 58 72" fill="none" xmlns="http://www.w3.org/2000/svg">
<path fill-rule="evenodd" clip-rule="evenodd" d="M57.0746 44.388L28.4716 27.8305C28.3154 27.7614 28.144 27.734 27.974 27.751C27.8041 27.768 27.6415 27.8288 27.5019 27.9275L1.89563 42.7567C1.48996 43.0131 1.15614 43.369 0.925781 43.7908L29.5291 60.3441C29.7553 59.9334 30.0718 59.5797 30.4547 59.31L56.1051 44.4804C56.2441 44.3804 56.4071 44.3191 56.5774 44.3029C56.7477 44.2867 56.9193 44.316 57.0746 44.388Z" fill="#1B69FF"/>
<path fill-rule="evenodd" clip-rule="evenodd" d="M1.67638 43.6219L29.354 59.6532C29.5884 59.3481 29.8714 59.0839 30.1916 58.8712L55.622 44.1523L28.2071 28.2799C28.1188 28.2417 28.0305 28.2314 27.7224 28.3906L2.15996 43.2019C1.97986 43.3188 1.81676 43.4602 1.67527 43.6219H1.67638ZM29.5303 60.8645C29.4379 60.8621 29.3473 60.8377 29.266 60.7935L0.662382 44.2409C0.535315 44.1725 0.440397 44.0565 0.398191 43.9182C0.383265 43.778 0.414249 43.6367 0.486502 43.5158C0.746974 43.0153 1.14445 42.5997 1.63223 42.3179L27.2385 27.4757C27.4517 27.3353 27.6967 27.2513 27.9509 27.2312C28.2051 27.2112 28.4603 27.2559 28.6927 27.3611L57.3404 43.9366C57.4507 44.0083 57.5301 44.119 57.5627 44.2467C57.5954 44.3744 57.579 44.5097 57.5167 44.6258C57.4593 44.7441 57.3573 44.8347 57.2333 44.8777C57.1093 44.9207 56.9733 44.9125 56.8553 44.8549C56.7232 44.7885 56.6353 44.7843 56.3265 44.9389L30.7202 59.7594C30.3935 59.9671 30.1334 60.2647 29.9709 60.6167C29.9219 60.6897 29.8565 60.7502 29.78 60.7932C29.7035 60.8363 29.618 60.8607 29.5303 60.8645Z" fill="#1B69FF"/>
<path fill-rule="evenodd" clip-rule="evenodd" d="M57.4728 45.2821C57.4959 45.111 57.471 44.9368 57.4009 44.7791C57.3308 44.6214 57.2183 44.4864 57.076 44.3893C56.9212 44.3153 56.7492 44.2849 56.5785 44.3011C56.4078 44.3174 56.2447 44.3798 56.1066 44.4817L30.4561 59.3113C30.0634 59.5696 29.7444 59.926 29.5305 60.3454V60.3496C29.2652 60.7575 29.113 61.229 29.0896 61.7155V70.4891C29.0742 70.6649 29.1072 70.8414 29.1849 70.9997C29.2627 71.1579 29.3822 71.2917 29.5305 71.3865C29.6784 71.4592 29.8436 71.4886 30.0073 71.4713C30.171 71.4541 30.3266 71.391 30.4561 71.2891L56.1066 56.4645C56.5046 56.1971 56.8352 55.8406 57.0723 55.4231C57.3094 55.0056 57.4465 54.5385 57.4728 54.0588V45.2821Z" fill="#E6F2FD"/>
<path fill-rule="evenodd" clip-rule="evenodd" d="M56.7198 44.8128C56.5939 44.8204 56.4723 44.8615 56.3676 44.932L30.7168 59.7612C30.3955 59.9694 30.1365 60.261 29.9674 60.6051C29.7571 60.9386 29.6357 61.3207 29.6148 61.7148V70.4885C29.6148 70.7141 29.6593 70.8821 29.7469 70.9348C29.8353 70.9795 29.9674 70.973 30.2321 70.8421L55.8387 56.0132C56.1544 55.789 56.4168 55.4976 56.6072 55.1599C56.7976 54.8222 56.9113 54.4465 56.9402 54.0596V45.2814C56.9402 45.0141 56.8964 44.8789 56.8081 44.8392C56.7639 44.8216 56.764 44.8128 56.7198 44.8128ZM29.8791 72.0014C29.6628 72.0029 29.4499 71.9465 29.2626 71.8379C29.0343 71.6983 28.8482 71.4991 28.7239 71.2616C28.5996 71.0242 28.542 70.7573 28.557 70.4896V61.7159C28.576 61.1408 28.7432 60.5804 29.0422 60.0892C29.33 59.5863 29.7392 59.1639 30.2321 58.8607L55.8387 44.0312C56.0575 43.8831 56.3118 43.7964 56.5752 43.7801C56.8387 43.7639 57.1017 43.8187 57.3369 43.9388C57.5527 44.0872 57.7269 44.2887 57.8426 44.524C57.9584 44.7593 58.0119 45.0205 57.998 45.2825V54.0608C57.9744 54.6323 57.8139 55.1897 57.5301 55.6859C57.2463 56.182 56.8476 56.6024 56.3676 56.9113L30.7168 71.7405C30.4674 71.9043 30.1771 71.9943 29.8791 72.0002V72.0014Z" fill="#1B69FF"/>
<path fill-rule="evenodd" clip-rule="evenodd" d="M53.4141 53.9367L55.8822 52.5043V49.6445L53.4141 51.0769V53.9367Z" fill="#1B69FF"/>
<path fill-rule="evenodd" clip-rule="evenodd" d="M53.9434 51.3759V53.0377L55.3978 52.2064V50.5446L53.9434 51.3759ZM53.4144 54.4568C53.322 54.4541 53.2315 54.4297 53.1502 54.3853C53.0808 54.333 53.0246 54.2649 52.9863 54.1867C52.948 54.1084 52.9286 54.0223 52.9297 53.9351V51.075C52.9285 50.9878 52.9479 50.9015 52.9862 50.8232C53.0245 50.7449 53.0807 50.6768 53.1502 50.6244L55.6183 49.1966C55.6986 49.1497 55.7899 49.125 55.8828 49.125C55.9757 49.125 56.0669 49.1497 56.1472 49.1966C56.2285 49.2385 56.2965 49.3026 56.3432 49.3815C56.39 49.4604 56.4136 49.5509 56.4114 49.6426V52.5027C56.4144 52.5952 56.3911 52.6866 56.3443 52.7664C56.2976 52.8461 56.2292 52.911 56.1472 52.9534L53.6791 54.3853C53.5976 54.4294 53.5069 54.4536 53.4144 54.456V54.4568Z" fill="#1B69FF"/>
<path fill-rule="evenodd" clip-rule="evenodd" d="M29.5266 60.3424L0.923365 43.7891V43.7936C0.662442 44.201 0.524651 44.6754 0.526613 45.1596V53.9336C0.499577 54.1055 0.522692 54.2816 0.593079 54.4406C0.663466 54.5997 0.778124 54.735 0.923365 54.8302L29.5266 71.3835C29.3832 71.2838 29.2675 71.149 29.1903 70.992C29.1132 70.835 29.0772 70.661 29.0857 70.4861V61.7125C29.1208 61.2282 29.2721 60.7596 29.5266 60.3466V60.3424Z" fill="white"/>
<path fill-rule="evenodd" clip-rule="evenodd" d="M1.14706 44.5254C1.07832 44.7392 1.03381 44.9602 1.0145 45.1841V53.9359C1.05867 54.2536 1.10287 54.3201 1.23537 54.4041L28.56 70.2514V61.7163C28.592 61.3179 28.6818 60.9264 28.8266 60.554L1.14892 44.5268L1.14706 44.5254ZM29.5298 71.9029C29.4375 71.9042 29.3465 71.8814 29.2656 71.8368L0.661907 55.2835C0.441154 55.1445 0.262834 54.9473 0.14626 54.7135C0.0296872 54.4797 -0.0205933 54.2182 0.000964639 53.9577V45.1619C-0.00110841 44.5926 0.151294 44.0334 0.441872 43.5443C0.480933 43.4809 0.532178 43.426 0.592652 43.3828C0.653126 43.3395 0.721634 43.3087 0.794095 43.2923C0.92756 43.2555 1.0701 43.2729 1.19085 43.3408L29.748 59.8937C29.8088 59.9244 29.8628 59.967 29.907 60.019C29.9511 60.071 29.9845 60.1313 30.0051 60.1964C30.0256 60.2614 30.0329 60.33 30.0266 60.398C30.0203 60.4659 30.0005 60.532 29.9684 60.5922C29.757 60.9383 29.6358 61.3323 29.6159 61.7377V70.4892C29.6159 70.8123 29.7042 70.8742 29.7925 70.9582C29.9016 71.0352 29.9794 71.149 30.0117 71.2787C30.044 71.4085 30.0286 71.5456 29.9684 71.665C29.9151 71.7324 29.8488 71.7882 29.7733 71.8291C29.6978 71.87 29.6153 71.8951 29.5298 71.9029Z" fill="#1B69FF"/>
<path fill-rule="evenodd" clip-rule="evenodd" d="M49.3203 56.3073L51.7884 54.8796V52.0156L49.3203 53.4476V56.3073Z" fill="#1B69FF"/>
<path fill-rule="evenodd" clip-rule="evenodd" d="M49.8468 53.7488V55.411L51.3013 54.5797V52.9179L49.8468 53.7488ZM49.3179 56.8297C49.2252 56.8292 49.1342 56.8049 49.0536 56.759C48.9778 56.7094 48.9145 56.6429 48.8685 56.5647C48.8226 56.4864 48.7955 56.3986 48.7891 56.308V53.4483C48.796 53.3579 48.8233 53.2702 48.8692 53.192C48.9151 53.1139 48.9782 53.0473 49.0536 52.9973L51.5667 51.5699C51.6394 51.5242 51.7234 51.5 51.8092 51.5C51.895 51.5 51.9791 51.5242 52.0518 51.5699C52.1332 51.6119 52.2012 51.676 52.2479 51.755C52.2946 51.8339 52.3182 51.9245 52.316 52.0163V54.8803C52.3182 54.9726 52.2946 55.0638 52.2479 55.1435C52.2012 55.2232 52.1333 55.2881 52.0518 55.3312L49.5837 56.759C49.5028 56.8048 49.4116 56.8292 49.3187 56.8297H49.3179Z" fill="#1B69FF"/>
<path fill-rule="evenodd" clip-rule="evenodd" d="M57.0746 30.9075L28.4716 14.3592C28.3163 14.2871 28.1447 14.2576 27.9743 14.2739C27.8039 14.2901 27.6409 14.3514 27.5019 14.4516L1.89563 29.2808C1.48895 29.5362 1.15485 29.8925 0.925781 30.3153L29.5291 46.8678C29.7554 46.4572 30.0719 46.1035 30.4547 45.8337L56.1051 31.0049C56.2441 30.9051 56.4068 30.8437 56.5768 30.8266C56.7469 30.8095 56.9186 30.8374 57.0746 30.9075Z" fill="#1B69FF"/>
<path fill-rule="evenodd" clip-rule="evenodd" d="M1.67638 30.1435L29.354 46.1748C29.5886 45.8698 29.8716 45.6054 30.1916 45.3924L55.622 30.6694L28.2071 14.8015C28.1188 14.7633 28.0305 14.753 27.7224 14.9076L2.15996 29.7239C1.97993 29.8409 1.81685 29.9823 1.67527 30.1439L1.67638 30.1435ZM29.5303 47.3861C29.4377 47.3857 29.3466 47.3614 29.266 47.3155L0.662382 30.7622C0.536101 30.6928 0.441484 30.5772 0.398191 30.4395C0.383265 30.2992 0.414249 30.158 0.486502 30.037C0.748189 29.5376 1.14539 29.1225 1.63223 28.8398L27.2385 13.9969C27.4512 13.8555 27.6963 13.7708 27.9508 13.7507C28.2052 13.7307 28.4605 13.776 28.6927 13.8823L57.3404 30.4528C57.4506 30.5257 57.5298 30.6372 57.5624 30.7656C57.595 30.8939 57.5787 31.0298 57.5167 31.1467C57.4572 31.263 57.3551 31.3518 57.2319 31.3945C57.1087 31.4372 56.9737 31.4305 56.8553 31.3758C56.7232 31.3143 56.6353 31.3052 56.3265 31.464L30.7202 46.2802C30.3945 46.4892 30.1346 46.7866 29.9709 47.1379C29.9221 47.2112 29.8567 47.2719 29.7802 47.3152C29.7037 47.3586 29.6181 47.3832 29.5303 47.3873V47.3861Z" fill="#1B69FF"/>
<path fill-rule="evenodd" clip-rule="evenodd" d="M57.4728 31.8066C57.4952 31.6343 57.47 31.4591 57.4001 31.3002C57.3301 31.1412 57.218 31.0045 57.076 30.905C56.9205 30.833 56.7485 30.8041 56.578 30.8212C56.4075 30.8383 56.2447 30.9009 56.1065 31.0024L30.4561 45.8312C30.0635 46.0898 29.7446 46.4461 29.5305 46.8653C29.2656 47.2752 29.1135 47.748 29.0896 48.2358V57.0095C29.0743 57.1852 29.1072 57.3619 29.185 57.5201C29.2627 57.6784 29.3822 57.8123 29.5305 57.9072C29.6779 57.9805 29.8429 58.0106 30.0066 57.9941C30.1704 57.9776 30.3261 57.9152 30.4561 57.814L56.1065 42.9803C56.5031 42.7131 56.8346 42.3597 57.076 41.9462C57.3291 41.5353 57.4662 41.0632 57.4728 40.5803V31.8066Z" fill="#E6F2FD"/>
<path fill-rule="evenodd" clip-rule="evenodd" d="M56.7199 31.3338C56.5936 31.3393 56.4714 31.3807 56.3677 31.4533L30.7169 46.2825C30.3955 46.4907 30.1365 46.7825 29.9676 47.1268C29.757 47.4593 29.6355 47.8407 29.615 48.2342V57.0078C29.615 57.2331 29.6595 57.4011 29.7471 57.4542C29.8354 57.4985 29.9676 57.4924 30.2322 57.3618L55.8389 42.5322C56.1615 42.3122 56.4322 42.024 56.632 41.6879C56.8309 41.3521 56.9372 40.9692 56.9403 40.5786V31.805C56.9403 31.5797 56.8966 31.4071 56.8082 31.354C56.7641 31.3406 56.7641 31.3318 56.7199 31.3318V31.3338ZM29.8793 58.5223C29.6629 58.5235 29.4501 58.467 29.2628 58.3585C29.0341 58.2192 28.8477 58.0201 28.7234 57.7825C28.5991 57.545 28.5416 57.2779 28.5572 57.0101V48.2365C28.5767 47.6601 28.7439 47.0985 29.0423 46.6056C29.3316 46.1048 29.7405 45.6839 30.2322 45.3809L55.8389 30.5521C56.0576 30.4041 56.3115 30.3171 56.5748 30.3C56.8381 30.2829 57.1012 30.3363 57.3371 30.4547C57.553 30.605 57.7271 30.8082 57.8428 31.0449C57.9585 31.2816 58.0119 31.544 57.9981 31.8073V40.5809C57.9655 41.1504 57.8012 41.7044 57.5182 42.1992C57.2352 42.6941 56.8414 43.1161 56.3677 43.4319L30.7169 58.2611C30.4677 58.4252 30.1774 58.516 29.8793 58.5223Z" fill="#1B69FF"/>
<path fill-rule="evenodd" clip-rule="evenodd" d="M53.4141 40.4593L55.8822 39.0319V36.168L53.4141 37.5999V40.4593Z" fill="#1B69FF"/>
<path fill-rule="evenodd" clip-rule="evenodd" d="M53.9434 37.8967V39.5544L55.3978 38.7277V37.0658L53.9434 37.8967ZM53.4144 40.9776C53.3221 40.9749 53.2317 40.9507 53.1502 40.907C53.0807 40.8545 53.0246 40.7862 52.9863 40.7079C52.948 40.6295 52.9286 40.5432 52.9297 40.456V37.5962C52.9286 37.509 52.948 37.4227 52.9863 37.3444C53.0246 37.2662 53.0807 37.1981 53.1502 37.1456L55.6183 35.7179C55.6982 35.6699 55.7896 35.6445 55.8828 35.6445C55.9759 35.6445 56.0673 35.6699 56.1472 35.7179C56.2289 35.7594 56.2973 35.8235 56.344 35.9025C56.3908 35.9816 56.4142 36.0723 56.4114 36.1642V39.0282C56.4131 39.1199 56.3892 39.2102 56.3426 39.2891C56.2959 39.3679 56.2282 39.4322 56.1472 39.4746L53.6791 40.9066C53.5977 40.9512 53.5071 40.9761 53.4144 40.9795V40.9776Z" fill="#1B69FF"/>
<path fill-rule="evenodd" clip-rule="evenodd" d="M29.5266 46.865L0.923346 30.3125C0.663553 30.7204 0.525861 31.1944 0.526595 31.6784V40.4563C0.499598 40.6283 0.522684 40.8044 0.593061 40.9636C0.663438 41.1228 0.778113 41.2582 0.923346 41.3536L29.5266 57.9069C29.3832 57.8072 29.2674 57.6724 29.1902 57.5153C29.1131 57.3583 29.0772 57.1841 29.0857 57.0092V48.2355C29.1215 47.7499 29.2727 47.28 29.5266 46.865Z" fill="white"/>
<path fill-rule="evenodd" clip-rule="evenodd" d="M1.14707 31.0463C1.07834 31.2602 1.03383 31.4812 1.01451 31.705V40.4565C1.05868 40.7796 1.10288 40.8411 1.23538 40.9251L28.56 56.7724V48.237C28.5925 47.8386 28.6823 47.4471 28.8266 47.0746L1.14893 31.0475L1.14707 31.0463ZM29.5299 58.4285C29.4372 58.428 29.3462 58.4037 29.2656 58.3578L0.661917 41.8049C0.441133 41.6657 0.262746 41.4684 0.146178 41.2344C0.0296095 41.0005 -0.0205979 40.7389 0.000974893 40.4783V31.6787C-0.00102062 31.1106 0.151401 30.5527 0.441882 30.0649C0.480321 30.0011 0.531434 29.9458 0.592012 29.9025C0.65259 29.8592 0.721366 29.8289 0.794106 29.8133C0.860232 29.7936 0.929775 29.7881 0.998152 29.7973C1.06653 29.8064 1.13219 29.83 1.19086 29.8664L29.748 46.4151C29.8089 46.4457 29.8629 46.4882 29.9071 46.5402C29.9512 46.5921 29.9846 46.6524 30.0052 46.7174C30.0257 46.7825 30.033 46.851 30.0267 46.919C30.0204 46.987 30.0006 47.053 29.9684 47.1131C29.7569 47.4593 29.6357 47.8532 29.6159 48.2587V57.0102C29.602 57.0977 29.6109 57.1873 29.6419 57.2702C29.6728 57.3531 29.7248 57.4266 29.7926 57.4834C29.9019 57.5592 29.98 57.6724 30.0123 57.8017C30.0447 57.931 30.0291 58.0677 29.9684 58.1864C29.9152 58.2542 29.8489 58.3106 29.7735 58.3522C29.6981 58.3938 29.6155 58.4197 29.5299 58.4285Z" fill="#1B69FF"/>
<path fill-rule="evenodd" clip-rule="evenodd" d="M49.3203 42.8308L51.7884 41.403V38.5391L49.3203 39.9714V42.8308Z" fill="#1B69FF"/>
<path fill-rule="evenodd" clip-rule="evenodd" d="M49.8468 40.273V41.9344L51.3013 41.1035V39.4417L49.8468 40.273ZM49.3179 43.353C49.2252 43.3528 49.1341 43.3285 49.0536 43.2824C48.9782 43.2325 48.9152 43.166 48.8693 43.0879C48.8234 43.0098 48.796 42.9222 48.7891 42.8318V39.9721C48.7959 39.8817 48.8233 39.7941 48.8692 39.7159C48.9151 39.6378 48.9781 39.5713 49.0536 39.5215L51.5667 38.0933C51.6394 38.0476 51.7234 38.0234 51.8092 38.0234C51.895 38.0234 51.9791 38.0476 52.0518 38.0933C52.1328 38.1358 52.2005 38.2 52.2472 38.2789C52.2938 38.3577 52.3177 38.448 52.316 38.5397V41.4036C52.3182 41.496 52.2946 41.5872 52.2479 41.6669C52.2012 41.7466 52.1333 41.8116 52.0518 41.8546L49.5837 43.2821C49.5029 43.3282 49.4116 43.3526 49.3187 43.353H49.3179Z" fill="#1B69FF"/>
<path fill-rule="evenodd" clip-rule="evenodd" d="M57.0746 17.1648L28.4716 0.607667C28.3153 0.538626 28.1439 0.511314 27.9739 0.528377C27.804 0.54544 27.6414 0.606299 27.5019 0.705044L1.89563 15.5339C1.48984 15.7903 1.15599 16.1464 0.925781 16.5683L29.5291 33.1213C29.7554 32.7105 30.0719 32.3568 30.4547 32.0868L56.1051 17.2576C56.244 17.1575 56.407 17.0961 56.5773 17.0798C56.7476 17.0635 56.9192 17.0928 57.0746 17.1648Z" fill="white"/>
<path fill-rule="evenodd" clip-rule="evenodd" d="M1.67656 16.3979L29.3541 32.4296C29.5886 32.1244 29.8716 31.8601 30.1918 31.6472L55.6222 16.9287L28.2073 1.05624C28.119 1.01806 28.0307 1.00772 27.7226 1.16658L2.16014 15.9783C1.98011 16.0953 1.81702 16.2366 1.67544 16.3983L1.67656 16.3979ZM29.5305 33.6408C29.4378 33.6405 29.3467 33.616 29.2662 33.5699L0.662558 17.0169C0.535461 16.9487 0.440511 16.8329 0.398367 16.6946C0.383006 16.5558 0.414055 16.4159 0.486678 16.2967C0.746925 15.7948 1.14434 15.3775 1.6324 15.0938L27.2387 0.256253C27.451 0.11389 27.6962 0.0285584 27.9508 0.00849938C28.2054 -0.0115597 28.461 0.0343079 28.6928 0.141675L57.3405 16.7122C57.4509 16.784 57.5303 16.8947 57.5629 17.0225C57.5956 17.1503 57.5792 17.2856 57.5169 17.4018C57.4566 17.5174 57.3546 17.6055 57.2316 17.6481C57.1087 17.6907 56.9741 17.6846 56.8555 17.631C56.7234 17.5691 56.6354 17.5603 56.3266 17.715L30.7204 32.5358C30.3957 32.7456 30.1361 33.0424 29.971 33.3927C29.9223 33.4661 29.857 33.5269 29.7805 33.5703C29.7039 33.6137 29.6183 33.6384 29.5305 33.6424V33.6408Z" fill="#1B69FF"/>
<path fill-rule="evenodd" clip-rule="evenodd" d="M57.4728 18.0622C57.4959 17.8904 57.471 17.7156 57.4009 17.5572C57.3309 17.3988 57.2185 17.263 57.076 17.1648C56.9209 17.092 56.7492 17.0623 56.5787 17.0786C56.4082 17.0949 56.2452 17.1567 56.1066 17.2576L30.4562 32.0868C30.0634 32.3453 29.7444 32.7018 29.5306 33.1213V33.1258C29.2651 33.5336 29.1129 34.005 29.0896 34.4914V43.265C29.0742 43.4408 29.1071 43.6174 29.1848 43.7756C29.2626 43.9338 29.3822 44.0676 29.5306 44.1624C29.6782 44.2347 29.843 44.2643 30.0065 44.2479C30.17 44.2315 30.3257 44.1698 30.4562 44.0696L56.1066 29.2404C56.5032 28.9713 56.8345 28.6164 57.076 28.2017C57.3291 27.7908 57.4663 27.3188 57.4728 26.8358V18.0622Z" fill="#E6F2FD"/>
<path fill-rule="evenodd" clip-rule="evenodd" d="M56.7199 17.5892C56.5936 17.5944 56.4714 17.6357 56.3677 17.7083L30.7169 32.5379C30.3964 32.747 30.1376 33.0384 29.9676 33.3818C29.7572 33.7152 29.6358 34.0972 29.615 34.4912V43.2648C29.5998 43.4252 29.6472 43.5854 29.7471 43.7116C29.8354 43.7498 29.9676 43.7498 30.2322 43.6184L55.8389 28.7892C56.1625 28.5705 56.4335 28.2822 56.632 27.9452C56.8304 27.609 56.9367 27.2263 56.9404 26.8356V18.0619C56.9404 17.7923 56.8966 17.6549 56.8083 17.6155C56.7641 17.5976 56.7641 17.5892 56.7199 17.5892ZM29.8793 44.7777C29.6629 44.779 29.4501 44.7224 29.2628 44.6139C29.0341 44.4746 28.8476 44.2755 28.7233 44.038C28.599 43.8004 28.5416 43.5334 28.5572 43.2656V34.4919C28.5762 33.9168 28.7434 33.3563 29.0424 32.8652C29.3315 32.3632 29.7403 31.9411 30.2322 31.6367L55.8389 16.8075C56.058 16.6602 56.3121 16.5739 56.5754 16.5575C56.8387 16.5412 57.1015 16.5953 57.3371 16.7144C57.5529 16.8638 57.7271 17.0661 57.8428 17.3022C57.9585 17.5382 58.012 17.8001 57.9981 18.0627V26.8363C57.9655 27.4058 57.8012 27.9599 57.5182 28.4547C57.2352 28.9495 56.8414 29.3715 56.3677 29.6873L30.7169 44.5166C30.4676 44.6806 30.1773 44.7708 29.8793 44.7769V44.7777Z" fill="#1B69FF"/>
<path fill-rule="evenodd" clip-rule="evenodd" d="M53.4141 26.7136L55.8822 25.2858V22.4219L53.4141 23.8539V26.7136Z" fill="#1B69FF"/>
<path fill-rule="evenodd" clip-rule="evenodd" d="M53.9434 24.1507V25.8125L55.3978 24.9816V23.3197L53.9434 24.1507ZM53.4144 27.2315C53.3217 27.2312 53.2308 27.2069 53.1502 27.1609C53.0807 27.1084 53.0246 27.0402 52.9863 26.9618C52.948 26.8835 52.9286 26.7971 52.9297 26.7099V23.8501C52.9286 23.7629 52.9481 23.6766 52.9864 23.5983C53.0246 23.5199 53.0808 23.4517 53.1502 23.3992L55.6183 21.9718C55.6982 21.9238 55.7896 21.8984 55.8828 21.8984C55.9759 21.8984 56.0673 21.9238 56.1472 21.9718C56.2286 22.0137 56.2967 22.0779 56.3434 22.1568C56.3901 22.2358 56.4137 22.3263 56.4114 22.4181V25.2821C56.4136 25.3745 56.3901 25.4657 56.3434 25.5453C56.2967 25.625 56.2287 25.69 56.1472 25.7331L53.6791 27.1609C53.5984 27.2069 53.5072 27.2312 53.4144 27.2315Z" fill="#1B69FF"/>
<path fill-rule="evenodd" clip-rule="evenodd" d="M29.5266 33.1194L0.923346 16.5664V16.5706C0.662444 16.978 0.524654 17.4524 0.526595 17.9365V26.7102C0.499598 26.8822 0.522684 27.0583 0.593061 27.2175C0.663438 27.3767 0.778113 27.5122 0.923346 27.6076L29.5266 44.1605C29.3832 44.0607 29.2674 43.926 29.1903 43.769C29.1132 43.612 29.0772 43.4379 29.0857 43.2631V34.4895C29.1214 34.0054 29.2726 33.537 29.5266 33.1239V33.1194Z" fill="white"/>
<path fill-rule="evenodd" clip-rule="evenodd" d="M1.14706 17.3027C1.07836 17.5166 1.03386 17.7376 1.0145 17.9614V26.7129C1.05867 27.0314 1.10287 27.0975 1.23537 27.1815L28.56 43.0287V34.4933C28.5925 34.095 28.6823 33.7035 28.8266 33.331L1.14892 17.3038L1.14706 17.3027ZM29.5298 44.6849C29.4372 44.6844 29.3462 44.6601 29.2656 44.6142L0.661907 28.0609C0.441154 27.9219 0.262834 27.7247 0.14626 27.4909C0.0296872 27.257 -0.0205933 26.9956 0.000964639 26.7351V17.9393C-0.000986043 17.3699 0.151405 16.8106 0.441872 16.3213C0.481019 16.258 0.532281 16.2032 0.592745 16.16C0.653209 16.1168 0.721689 16.0861 0.794095 16.0697C0.860354 16.051 0.929647 16.0461 0.997863 16.0552C1.06608 16.0644 1.13178 16.0874 1.19085 16.1228L29.748 32.6753C29.8088 32.7054 29.863 32.7475 29.9072 32.7991C29.9514 32.8507 29.9848 32.9107 30.0053 32.9755C30.0259 33.0403 30.0332 33.1086 30.0269 33.1763C30.0206 33.244 30.0007 33.3097 29.9684 33.3695C29.7569 33.7157 29.6357 34.1096 29.6159 34.5151V43.2667C29.602 43.3541 29.6109 43.4437 29.6419 43.5266C29.6728 43.6096 29.7248 43.683 29.7925 43.7397C29.9016 43.8157 29.9796 43.9288 30.0119 44.058C30.0443 44.1872 30.0288 44.3238 29.9684 44.4424C29.9153 44.5103 29.849 44.5668 29.7736 44.6085C29.6982 44.6501 29.6155 44.6761 29.5298 44.6849Z" fill="#1B69FF"/>
<path fill-rule="evenodd" clip-rule="evenodd" d="M49.3203 29.0914L51.7884 27.6594V24.8008L49.3203 26.2281V29.0914Z" fill="#1B69FF"/>
<path fill-rule="evenodd" clip-rule="evenodd" d="M49.8468 26.5261V28.188L51.3013 27.3575V25.6994L49.8468 26.5261ZM49.3179 29.6066C49.2253 29.6063 49.1342 29.5822 49.0536 29.5364C48.9783 29.4873 48.9152 29.4214 48.8693 29.344C48.8234 29.2665 48.796 29.1794 48.7891 29.0896V26.2256C48.7955 26.1358 48.8228 26.0486 48.8687 25.9712C48.9147 25.8938 48.9779 25.8282 49.0536 25.7796L51.5667 24.3472C51.6394 24.3015 51.7234 24.2773 51.8092 24.2773C51.895 24.2773 51.9791 24.3015 52.0518 24.3472C52.1334 24.3903 52.2013 24.4554 52.248 24.5352C52.2947 24.6149 52.3183 24.7061 52.316 24.7986V27.658C52.3181 27.7503 52.2945 27.8414 52.2478 27.921C52.2011 28.0006 52.1332 28.0656 52.0518 28.1086L49.5837 29.5368C49.5027 29.5823 49.4115 29.6064 49.3187 29.6066H49.3179Z" fill="#1B69FF"/>
<path fill-rule="evenodd" clip-rule="evenodd" d="M31.6007 37.9476C31.5105 37.9486 31.4219 37.9249 31.3442 37.879C31.2664 37.8331 31.2027 37.7668 31.1598 37.6872C31.0978 37.5681 31.0815 37.4302 31.114 37.2999C31.1465 37.1695 31.2255 37.0555 31.3361 36.9796L46.7616 28.0513C46.8807 27.9843 47.0211 27.9668 47.153 28.0025C47.2848 28.0382 47.3974 28.1243 47.4667 28.2422C47.5287 28.362 47.545 28.5004 47.5125 28.6313C47.4801 28.7623 47.4011 28.8769 47.2904 28.9536L31.865 37.8777C31.7844 37.9234 31.6933 37.9475 31.6007 37.9476Z" fill="#1B69FF"/>
<path fill-rule="evenodd" clip-rule="evenodd" d="M31.6008 51.6926C31.5107 51.6933 31.422 51.6695 31.3443 51.6237C31.2667 51.5778 31.2029 51.5116 31.1599 51.4321C31.0979 51.313 31.0815 51.1753 31.114 51.045C31.1465 50.9146 31.2255 50.8007 31.3362 50.7249L46.7617 41.8008C46.8798 41.7318 47.0204 41.7126 47.1526 41.7475C47.2848 41.7823 47.3978 41.8684 47.4668 41.9868C47.5289 42.1065 47.5453 42.2449 47.5129 42.3759C47.4804 42.5069 47.4013 42.6216 47.2905 42.6982L31.8651 51.6219C31.7845 51.6679 31.6935 51.6922 31.6008 51.6926Z" fill="#1B69FF"/>
<path fill-rule="evenodd" clip-rule="evenodd" d="M31.6008 65.1705C31.5107 65.1713 31.422 65.1475 31.3443 65.1016C31.2667 65.0557 31.2029 64.9895 31.1599 64.9101C31.0978 64.7909 31.0815 64.6531 31.114 64.5227C31.1465 64.3923 31.2255 64.2784 31.3362 64.2025L46.7617 55.2742C46.881 55.2067 47.0221 55.1892 47.1542 55.2256C47.2863 55.262 47.3986 55.3494 47.4668 55.4685C47.5287 55.5876 47.545 55.7253 47.5125 55.8555C47.48 55.9858 47.4011 56.0996 47.2905 56.1754L31.8651 65.0999C31.7845 65.1456 31.6935 65.1699 31.6008 65.1705Z" fill="#1B69FF"/>
</svg>
