<svg width="325" height="349" viewBox="0 0 325 349" fill="none" xmlns="http://www.w3.org/2000/svg">
<path d="M25.4737 346.226L261.702 209.574C266.087 207.042 269.728 203.401 272.26 199.016C274.792 194.631 276.125 189.657 276.125 184.593L275.561 44.8672L0.0276343 187.623V323.793C0.013593 325.983 0.508605 328.146 1.47368 330.112C2.43875 332.078 3.84752 333.792 5.58867 335.12C9.92167 338.449 25.4737 346.226 25.4737 346.226Z" fill="url(#paint0_linear_9_85628)"/>
<path d="M280.119 54.2416L276.987 9.93665C276.987 9.93665 261.787 3.51965 256.995 1.31765C254.922 0.354376 252.647 -0.0923046 250.365 0.0158467C248.082 0.123998 245.859 0.78376 243.887 1.93865L14.4219 134.421C10.037 136.952 6.39584 140.594 3.86426 144.979C1.33268 149.364 -3.66113e-05 154.338 7.54426e-10 159.402L0.0288086 187.623L18.729 197.146L280.119 54.2416Z" fill="url(#paint1_linear_9_85628)"/>
<path d="M18.7344 196.945V334.091C18.7319 336.603 19.3914 339.072 20.6465 341.249C21.9016 343.425 23.708 345.233 25.8838 346.489C28.0596 347.745 30.5281 348.406 33.0405 348.405C35.553 348.404 38.0208 347.741 40.1956 346.483L269.667 213.998C274.052 211.467 277.692 207.825 280.223 203.441C282.754 199.056 284.086 194.083 284.084 189.02V43.5039L18.7344 196.945Z" fill="url(#paint2_linear_9_85628)"/>
<path d="M18.7344 167.363V197.144L284.084 44.0632V22.2942C284.085 19.7824 283.424 17.3148 282.169 15.1393C280.913 12.9639 279.107 11.1574 276.932 9.90139C274.757 8.6454 272.289 7.98424 269.778 7.98438C267.266 7.98451 264.799 8.64594 262.624 9.90217L33.1594 142.387C28.7745 144.918 25.1329 148.558 22.6008 152.943C20.0687 157.327 18.7352 162.3 18.7344 167.363Z" fill="url(#paint3_linear_9_85628)"/>
<path d="M268.945 23.7605C268.861 25.313 268.412 26.8238 267.634 28.1701C266.857 29.5165 265.773 30.6606 264.47 31.5095C261.999 32.9355 259.996 31.7795 259.996 28.9265C260.08 27.374 260.529 25.8631 261.306 24.5165C262.084 23.1699 263.167 22.0257 264.47 21.1765C266.942 19.7515 268.945 20.9075 268.945 23.7605Z" fill="url(#paint4_linear_9_85628)"/>
<path d="M253.442 32.6469C253.358 34.1993 252.909 35.71 252.132 37.0564C251.354 38.4027 250.271 39.5469 248.968 40.3959C246.497 41.8229 244.494 40.6659 244.494 37.8129C244.578 36.2605 245.027 34.7498 245.805 33.4034C246.582 32.0571 247.666 30.9129 248.968 30.0639C251.439 28.6379 253.442 29.7939 253.442 32.6469Z" fill="url(#paint5_linear_9_85628)"/>
<path d="M237.936 41.5348C237.852 43.0872 237.403 44.5978 236.626 45.9442C235.849 47.2906 234.765 48.4347 233.462 49.2838C230.991 50.7098 228.988 49.5538 228.988 46.7008C229.072 45.1482 229.521 43.6373 230.299 42.2907C231.076 40.9442 232.16 39.7999 233.462 38.9508C235.932 37.5248 237.936 38.6798 237.936 41.5348Z" fill="url(#paint6_linear_9_85628)"/>
<path d="M197.616 82.8875L39.2917 174.295C36.5587 175.872 34.3438 174.936 34.3438 172.204C34.3438 169.472 36.5587 165.978 39.2917 164.404L197.616 72.9965C200.348 71.4195 202.564 72.3555 202.564 75.0875C202.564 77.8195 200.349 81.3095 197.616 82.8875Z" fill="url(#paint7_linear_9_85628)"/>
<path d="M278.707 190.28L274.588 192.658V75.8585L278.707 73.4805V190.28Z" fill="#F8F9FD"/>
<path d="M278.512 131L275.468 132.758C275.31 132.85 275.13 132.898 274.947 132.898C274.764 132.898 274.585 132.85 274.426 132.759C274.267 132.668 274.136 132.537 274.044 132.379C273.952 132.221 273.903 132.041 273.902 131.858V87.8882C273.902 87.5328 273.996 87.1838 274.174 86.8761C274.351 86.5684 274.607 86.3128 274.914 86.1352L277.958 84.3781C278.117 84.2867 278.296 84.2385 278.479 84.2383C278.662 84.2381 278.842 84.286 279 84.3771C279.159 84.4682 279.291 84.5995 279.383 84.7576C279.475 84.9157 279.524 85.0952 279.524 85.2781V129.243C279.525 129.599 279.432 129.949 279.254 130.258C279.076 130.566 278.821 130.822 278.512 131Z" fill="url(#paint8_linear_9_85628)"/>
<path d="M248 140.806L125.594 211.442V190.158L247.994 119.523L248 140.806Z" fill="white"/>
<path d="M248 169.81L125.594 240.446V219.162L247.994 148.527L248 169.81Z" fill="white"/>
<path d="M248 199.412L125.594 270.047V248.764L247.994 178.129L248 199.412Z" fill="white"/>
<path d="M183.272 127.289V148.572L125.598 181.842V160.56L183.272 127.289Z" fill="white"/>
<path d="M186.941 125.083L247.994 89.9219V111.201L186.941 146.366V125.083Z" fill="white"/>
<path d="M248 199.41L125.594 270.045V268.08L247.994 197.445L248 199.41Z" fill="#AFB6E5"/>
<path d="M186.941 144.398L247.994 109.238V111.203L186.941 146.363V144.398Z" fill="#AFB6E5"/>
<path d="M248 169.813L125.594 240.449V238.484L247.994 167.848L248 169.813Z" fill="#AFB6E5"/>
<path d="M183.272 148.57L125.598 181.84V179.875L183.271 146.605L183.272 148.57Z" fill="#AFB6E5"/>
<path d="M248 140.805L125.594 211.441V209.476L247.994 138.84L248 140.805Z" fill="#AFB6E5"/>
<path d="M240.494 272.565L240.508 277.901C240.473 278.312 240.545 278.724 240.715 279.099C240.886 279.474 241.15 279.799 241.483 280.042C232.236 274.156 233.039 277.742 233.048 268.242L240.494 272.565Z" fill="#3D9AFF"/>
<path d="M280.443 191.513C280.784 191.271 281.183 191.123 281.6 191.082C282.016 191.041 282.436 191.109 282.818 191.28L290.263 195.606C289.881 195.435 289.461 195.367 289.045 195.408C288.628 195.449 288.23 195.597 287.888 195.839L283.246 198.519L275.801 194.193L280.443 191.513Z" fill="#3D9AFF"/>
<path d="M233.307 254.849C232.591 254.643 225.445 250.349 224.613 249.905C228.991 252.456 234.445 251.372 238.748 249.186C245.972 245.498 251.548 239.162 255.635 232.257C259.653 225.303 262.435 217.338 262.152 209.228C261.966 204.314 260.241 198.896 255.766 196.301C258.141 198.001 264.648 200.772 266.249 203.272C269.892 207.972 270.049 214.384 269.2 220.038C267.113 231.795 260.896 242.419 251.669 249.999C246.622 253.932 239.705 257.378 233.307 254.849Z" fill="#3D9AFF"/>
<path d="M205.682 272.608C205.547 270.167 208.908 265.762 209.928 263.664L217.372 267.99C216.243 270.595 210.945 276.511 214.11 279.09L206.666 274.764C206.572 274.71 206.485 274.647 206.405 274.575C206.153 274.316 205.958 274.008 205.833 273.669C205.709 273.33 205.657 272.968 205.682 272.608Z" fill="#3D9AFF"/>
<path d="M263.429 170.998C264.288 169.578 265.666 168.019 267.461 168.061C267.641 167.807 275.3 172.488 275.593 172.599C271.73 171.199 269.314 178.691 267.599 180.999L260.154 176.673L263.429 170.998Z" fill="#3D9AFF"/>
<path d="M204.985 253.804C204.832 253.214 204.696 252.618 204.576 252.016L212.021 256.342C212.769 260.622 214.613 264.636 217.373 267.991C216.9 267.642 209.173 263.508 209.299 262.897C207.25 260.196 205.782 257.1 204.985 253.804Z" fill="#3D9AFF"/>
<path d="M247.33 177.966C251.077 176.59 255.089 176.09 259.059 176.504C259.723 176.077 266.945 180.717 267.6 180.997C263.285 180.328 258.869 180.775 254.776 182.297L247.33 177.966Z" fill="#3D9AFF"/>
<path d="M196.562 243.632C196.918 238.726 200.98 237.506 204.529 235.34L211.974 239.666C209.06 241.474 205.215 242.739 204.259 246.48C203.769 247.41 204.112 255.946 204.03 257.115C203.995 257.525 204.066 257.938 204.237 258.313C204.408 258.688 204.672 259.012 205.004 259.256C193.817 252.597 197.074 256.675 196.562 243.632Z" fill="#3D9AFF"/>
<path d="M232.802 180.86C232.88 179.823 233.175 178.814 233.668 177.9C234.162 176.985 234.842 176.184 235.666 175.55C236.577 175.013 243.921 170.59 244.884 170.339C245.371 170.198 245.893 170.252 246.341 170.49L253.786 174.816C253.404 174.645 252.985 174.577 252.568 174.618C252.152 174.658 251.754 174.807 251.412 175.048C250.376 175.748 242.877 179.695 242.266 180.635C239.522 183.335 240.36 187.269 240.261 190.674L232.816 186.348C232.821 186.18 232.795 181.017 232.802 180.86Z" fill="#3D9AFF"/>
<path d="M216.045 224.816C214.168 229.608 212.802 234.585 211.973 239.665L204.527 235.339C205.54 229.217 207.31 223.244 209.796 217.559L217.242 221.885C216.824 222.854 216.425 223.831 216.045 224.816Z" fill="#3D9AFF"/>
<path d="M220.027 199.841C223.718 194.833 228.014 190.301 232.817 186.348L240.261 190.674C235.458 194.627 231.162 199.159 227.471 204.167L220.027 199.841Z" fill="#3D9AFF"/>
<path d="M207.33 242.347C202.553 244.861 204.303 252.862 204.03 257.116C204.224 262.316 209.963 257.255 212.02 256.344C212.758 260.627 214.603 264.643 217.372 267.994C216.187 270.425 210.933 277.094 214.111 279.094L219.671 282.263C223.542 283.653 225.919 276.222 227.671 273.863C231.986 274.542 236.404 274.094 240.495 272.563L240.51 277.899C240.516 280.018 242.016 280.872 243.859 279.808L251.698 275.282C255.677 273.004 255.039 268.012 255.009 264.182C259.813 260.23 264.109 255.699 267.799 250.691L271.099 252.568C272.93 253.392 274.799 251.557 275.819 249.843C276.858 247 285.019 237.396 281.328 234.85L278.028 232.971C280.515 227.286 282.285 221.313 283.296 215.19C286.596 213.311 291.317 211.284 291.266 206.747L291.241 197.741C291.235 195.622 289.736 194.768 287.892 195.832L283.249 198.512C282.508 194.23 280.664 190.215 277.898 186.863C279.081 184.431 284.338 177.763 281.158 175.763L275.598 172.594C271.729 171.202 269.351 178.637 267.604 180.994C263.289 180.314 258.871 180.762 254.78 182.294L254.765 176.958C254.759 174.839 253.26 173.985 251.417 175.049L243.578 179.575C239.598 181.853 240.236 186.845 240.266 190.675C235.462 194.627 231.166 199.159 227.476 204.168L224.176 202.289C222.344 201.464 220.476 203.301 219.455 205.014C218.415 207.857 210.255 217.459 213.946 220.007L217.246 221.887C214.758 227.572 212.988 233.545 211.977 239.668L207.33 242.347ZM247.703 252.702C235.558 259.714 225.68 254.082 225.641 240.127C225.602 226.172 235.415 209.173 247.56 202.161C259.705 195.149 269.585 200.778 269.624 214.733C269.663 228.688 259.85 245.689 247.703 252.702Z" fill="url(#paint9_linear_9_85628)"/>
<path d="M205.513 213.534C205.549 212.376 205.883 211.247 206.482 210.255C207.73 208.449 212.065 199.599 213.906 198.5C214.278 198.154 214.74 197.921 215.239 197.825C215.738 197.73 216.253 197.777 216.727 197.961C218.908 199.161 225.227 202.879 227.468 204.161C224.241 202.421 222.947 200.547 219.987 204.196C219.555 204.715 214.114 214.262 213.704 214.989C212.982 216.479 212.336 218.876 213.942 220L206.497 215.674C206.403 215.62 206.316 215.556 206.236 215.484C205.986 215.227 205.793 214.921 205.668 214.585C205.543 214.25 205.491 213.891 205.513 213.534Z" fill="#3D9AFF"/>
<path d="M296.41 162.651C296.55 163.525 296.01 166.212 296.952 166.751C292.011 163.58 292.294 165.53 292.332 160.285L296.41 162.651Z" fill="#3D9AFF"/>
<path d="M318.293 118.25C318.48 118.118 318.698 118.037 318.926 118.014C319.154 117.992 319.384 118.029 319.593 118.122L323.671 120.492C323.462 120.399 323.232 120.362 323.004 120.384C322.776 120.406 322.558 120.487 322.371 120.619L319.828 122.087L315.75 119.717L318.293 118.25Z" fill="#3D9AFF"/>
<path d="M292.474 152.946C292.081 152.833 288.168 150.483 287.711 150.238C294.311 153.532 301.674 145.838 304.704 140.571C307.831 135.313 310.945 125.016 304.776 120.871C309.361 123.504 312.052 124.384 312.354 130.35C312.462 137.764 308.587 144.99 303.097 149.825C300.24 152.214 296.23 154.414 292.474 152.946Z" fill="#3D9AFF"/>
<path d="M277.341 162.677C277.267 161.34 279.108 158.927 279.667 157.777L283.745 160.147C283.117 161.633 280.231 164.723 281.959 166.226C281.83 166.138 277.879 163.879 277.768 163.778C277.62 163.638 277.506 163.466 277.432 163.276C277.358 163.085 277.327 162.881 277.341 162.677Z" fill="#3D9AFF"/>
<path d="M308.975 107.015C309.457 106.221 310.261 105.308 311.275 105.42C311.374 105.437 311.469 105.471 311.557 105.52L315.635 107.89C313.467 107.159 312.228 111.202 311.256 112.49L307.178 110.12L308.975 107.015Z" fill="#3D9AFF"/>
<path d="M276.958 152.375C276.875 152.051 276.8 151.725 276.734 151.395L280.812 153.765C281.222 156.109 282.232 158.308 283.744 160.146L279.667 157.776C278.359 156.209 277.432 154.36 276.958 152.375Z" fill="#3D9AFF"/>
<path d="M300.156 110.831C302.254 110.059 304.505 109.79 306.725 110.048C306.785 109.782 311.104 112.423 311.259 112.491C308.895 112.124 306.477 112.368 304.234 113.201L300.156 110.831Z" fill="#3D9AFF"/>
<path d="M272.345 146.8C272.468 144.221 274.833 143.372 276.709 142.258L280.787 144.628C279.201 145.57 276.857 146.495 276.505 148.57C276.343 148.837 276.462 153.764 276.436 154.186C276.417 154.41 276.456 154.636 276.549 154.842C276.643 155.047 276.787 155.225 276.969 155.358C270.838 151.759 272.622 153.8 272.345 146.8Z" fill="#3D9AFF"/>
<path d="M292.198 112.418C292.241 111.799 292.429 111.199 292.745 110.665C293.061 110.131 293.498 109.679 294.02 109.343C294.22 109.249 298.756 106.543 298.82 106.654C299.42 106.254 303.148 108.924 303.696 109.106C303.487 109.013 303.257 108.975 303.029 108.998C302.801 109.02 302.583 109.101 302.396 109.233C302.023 109.48 297.716 111.845 297.55 112.133C295.932 113.468 296.302 115.965 296.287 117.797L292.209 115.427C292.207 115.332 292.194 112.503 292.198 112.418Z" fill="#3D9AFF"/>
<path d="M283.02 136.492C281.991 139.117 281.244 141.843 280.789 144.626L276.711 142.256C277.266 138.902 278.235 135.63 279.597 132.516L283.675 134.886C283.446 135.423 283.228 135.958 283.02 136.492Z" fill="#3D9AFF"/>
<path d="M285.199 122.817C287.221 120.074 289.574 117.591 292.205 115.426L296.283 117.796C293.652 119.961 291.299 122.444 289.277 125.187L285.199 122.817Z" fill="#3D9AFF"/>
<path d="M278.245 146.099C275.628 147.476 276.587 151.859 276.437 154.189C276.543 157.038 279.687 154.265 280.814 153.766C281.219 156.113 282.23 158.313 283.746 160.148C283.097 161.48 280.219 165.132 281.96 166.227L285.006 167.963C287.156 168.714 288.406 164.663 289.386 163.363C291.75 163.736 294.17 163.491 296.411 162.652L296.419 165.575C296.419 166.736 297.244 167.204 298.254 166.621L302.547 164.142C304.726 162.894 304.377 160.16 304.361 158.062C306.993 155.898 309.346 153.415 311.367 150.672C313.367 151.833 314.129 152.644 315.758 150.208C316.327 148.651 320.799 143.39 318.776 141.995L316.97 140.966C318.332 137.852 319.302 134.58 319.855 131.226C321.665 130.197 324.249 129.086 324.22 126.601L324.206 121.668C324.206 120.507 323.382 120.039 322.372 120.622L319.829 122.09C319.423 119.745 318.413 117.546 316.898 115.709C317.546 114.377 320.425 110.724 318.684 109.629L315.638 107.893C313.488 107.14 312.238 111.193 311.259 112.493C308.896 112.12 306.476 112.365 304.234 113.203L304.226 110.28C304.226 109.119 303.402 108.651 302.392 109.234L298.098 111.713C295.918 112.961 296.267 115.695 296.283 117.793C293.652 119.958 291.298 122.441 289.277 125.184C287.277 124.022 286.516 123.211 284.885 125.648C284.315 127.205 279.845 132.465 281.867 133.861L283.674 134.891C282.312 138.006 281.342 141.277 280.788 144.631L278.245 146.099ZM300.36 151.771C293.707 155.612 288.296 152.527 288.275 144.883C288.254 137.239 293.629 127.927 300.282 124.083C306.935 120.239 312.347 123.325 312.369 130.97C312.391 138.615 307.014 147.927 300.36 151.77V151.771Z" fill="url(#paint10_linear_9_85628)"/>
<path d="M277.251 130.313C277.116 128.913 280.245 124.513 280.808 123.275C281.137 122.672 281.631 122.175 282.232 121.842C282.387 121.754 282.558 121.698 282.734 121.677C282.911 121.656 283.09 121.671 283.261 121.721C283.455 121.773 285.023 122.737 285.2 122.812L289.278 125.182C287.552 124.222 286.726 123.225 285.169 125.216C285.12 125.186 281.969 130.723 281.86 130.887C281.386 131.74 280.923 133.173 281.868 133.859L277.79 131.489C277.606 131.357 277.46 131.179 277.365 130.972C277.271 130.766 277.231 130.539 277.251 130.313Z" fill="#3D9AFF"/>
<path d="M126.58 116.387L168.644 174.203L148.144 186.039L106.08 128.224L126.58 116.387Z" fill="white"/>
<path d="M168.642 174.203C168.663 180.73 164.08 188.636 158.425 191.903C152.77 195.17 148.162 192.572 148.141 186.042L168.642 174.203Z" fill="#EAF7FE"/>
<path d="M188.538 81.6094L230.144 138.695L209.644 150.531L167.58 92.7154L188.538 81.6094Z" fill="#FFE06A"/>
<path d="M230.147 138.695C230.165 144.861 226.078 152.249 220.865 155.803C220.557 156.013 220.245 156.209 219.93 156.395C214.275 159.658 209.664 157.06 209.646 150.534L230.147 138.695Z" fill="#F8D44D"/>
<path d="M167.584 92.7148L209.646 150.534L189.146 162.37L147.084 104.551L167.584 92.7148Z" fill="white"/>
<path d="M209.649 150.531C209.666 157.058 205.083 164.964 199.432 168.231C193.781 171.498 189.166 168.9 189.148 162.37L209.649 150.531Z" fill="#EAF7FE"/>
<path d="M147.081 104.551L189.145 162.366L168.645 174.202L126.58 116.39L147.081 104.551Z" fill="#FFE06A"/>
<path d="M189.145 162.367C189.163 168.897 184.579 176.8 178.928 180.067C173.277 183.334 168.662 180.736 168.641 174.209L189.145 162.367Z" fill="#F8D44D"/>
<path d="M106.08 128.223L148.144 186.038L127.644 197.874L85.5801 140.059L106.08 128.223Z" fill="#FFE06A"/>
<path d="M148.141 186.039C148.162 192.569 143.579 200.472 137.924 203.739C132.269 207.006 127.661 204.408 127.641 197.881L148.141 186.039Z" fill="#F8D44D"/>
<path d="M85.5781 140.059L127.642 197.874L107.142 209.71L65.0781 151.895L85.5781 140.059Z" fill="white"/>
<path d="M127.642 197.879C127.663 204.406 123.08 212.312 117.425 215.579C111.77 218.846 107.159 216.248 107.141 209.718L127.642 197.879Z" fill="#EAF7FE"/>
<path d="M65.0762 151.895L107.14 209.712L86.6402 221.548L45.0332 164.463L65.0762 151.895Z" fill="#FFE06A"/>
<path d="M107.142 209.715C107.16 216.245 102.608 224.13 96.9246 227.415C96.6096 227.597 96.2976 227.758 95.9896 227.905C90.7726 230.374 86.6586 227.719 86.6406 221.554L107.142 209.715Z" fill="#F8D44D"/>
<defs>
<linearGradient id="paint0_linear_9_85628" x1="276.125" y1="195.547" x2="0.0273438" y2="195.547" gradientUnits="userSpaceOnUse">
<stop stop-color="white"/>
<stop offset="0.506" stop-color="#CAD1E0"/>
<stop offset="1" stop-color="#C8CEDE"/>
</linearGradient>
<linearGradient id="paint1_linear_9_85628" x1="1347.09" y1="209.369" x2="1180.29" y2="11.9542" gradientUnits="userSpaceOnUse">
<stop stop-color="#AADFF7"/>
<stop offset="1" stop-color="#69A1E3"/>
</linearGradient>
<linearGradient id="paint2_linear_9_85628" x1="-18.4146" y1="110.582" x2="592.449" y2="335.989" gradientUnits="userSpaceOnUse">
<stop stop-color="white"/>
<stop offset="0.506" stop-color="#CAD1E0"/>
<stop offset="1" stop-color="#C8CEDE"/>
</linearGradient>
<linearGradient id="paint3_linear_9_85628" x1="284.084" y1="102.564" x2="18.7344" y2="102.564" gradientUnits="userSpaceOnUse">
<stop stop-color="#AADFF7"/>
<stop offset="1" stop-color="#69A1E3"/>
</linearGradient>
<linearGradient id="paint4_linear_9_85628" x1="390.687" y1="26.0545" x2="205.676" y2="26.311" gradientUnits="userSpaceOnUse">
<stop stop-color="#AADFF7"/>
<stop offset="1" stop-color="#69A1E3"/>
</linearGradient>
<linearGradient id="paint5_linear_9_85628" x1="390.695" y1="34.9066" x2="205.704" y2="35.163" gradientUnits="userSpaceOnUse">
<stop stop-color="#AADFF7"/>
<stop offset="1" stop-color="#69A1E3"/>
</linearGradient>
<linearGradient id="paint6_linear_9_85628" x1="390.714" y1="43.759" x2="205.723" y2="44.0154" gradientUnits="userSpaceOnUse">
<stop stop-color="#AADFF7"/>
<stop offset="1" stop-color="#69A1E3"/>
</linearGradient>
<linearGradient id="paint7_linear_9_85628" x1="420.24" y1="125.188" x2="256.244" y2="122.987" gradientUnits="userSpaceOnUse">
<stop stop-color="#AADFF7"/>
<stop offset="1" stop-color="#69A1E3"/>
</linearGradient>
<linearGradient id="paint8_linear_9_85628" x1="279.524" y1="108.568" x2="273.902" y2="108.568" gradientUnits="userSpaceOnUse">
<stop stop-color="#FFE06A"/>
<stop offset="1" stop-color="#FFCC00"/>
</linearGradient>
<linearGradient id="paint9_linear_9_85628" x1="289.345" y1="117.085" x2="197.698" y2="269.937" gradientUnits="userSpaceOnUse">
<stop stop-color="#A6DEFF"/>
<stop offset="0.996" stop-color="#3D9AFF"/>
</linearGradient>
<linearGradient id="paint10_linear_9_85628" x1="328.765" y1="72.4313" x2="268.787" y2="159.489" gradientUnits="userSpaceOnUse">
<stop stop-color="#A6DEFF"/>
<stop offset="0.996" stop-color="#3D9AFF"/>
</linearGradient>
</defs>
</svg>
