<svg xmlns="http://www.w3.org/2000/svg" width="325" height="349" fill="none" viewBox="0 0 325 349"><path fill="url(#a)" d="m25.474 346.226 236.228-136.652a28.85 28.85 0 0 0 14.423-24.981l-.564-139.726L.028 187.623v136.17a14.13 14.13 0 0 0 5.56 11.327c4.334 3.329 19.886 11.106 19.886 11.106"/><path fill="url(#b)" d="m280.119 54.242-3.132-44.305s-15.2-6.417-19.992-8.62a14.15 14.15 0 0 0-13.108.622L14.422 134.42A28.84 28.84 0 0 0 0 159.402l.029 28.221 18.7 9.523z"/><path fill="url(#c)" d="M18.734 196.945v137.146a14.3 14.3 0 0 0 7.15 12.398 14.3 14.3 0 0 0 14.312-.006l229.471-132.485a28.83 28.83 0 0 0 14.417-24.978V43.504z"/><path fill="url(#d)" d="M18.734 167.363v29.781l265.35-153.08v-21.77a14.31 14.31 0 0 0-14.306-14.31c-2.512 0-4.979.662-7.154 1.918L33.159 142.387a28.84 28.84 0 0 0-14.425 24.976"/><path fill="url(#e)" d="M268.945 23.76a9.88 9.88 0 0 1-4.475 7.75c-2.471 1.425-4.474.27-4.474-2.584a9.9 9.9 0 0 1 4.474-7.75c2.472-1.424 4.475-.268 4.475 2.585"/><path fill="url(#f)" d="M253.442 32.647a9.9 9.9 0 0 1-4.474 7.749c-2.471 1.427-4.474.27-4.474-2.583a9.89 9.89 0 0 1 4.474-7.749c2.471-1.426 4.474-.27 4.474 2.583"/><path fill="url(#g)" d="M237.936 41.535a9.89 9.89 0 0 1-4.474 7.749c-2.471 1.426-4.474.27-4.474-2.583a9.89 9.89 0 0 1 4.474-7.75c2.47-1.426 4.474-.271 4.474 2.584"/><path fill="url(#h)" d="M197.616 82.888 39.292 174.295c-2.733 1.577-4.948.641-4.948-2.091s2.215-6.226 4.948-7.8l158.324-91.407c2.732-1.578 4.948-.641 4.948 2.09 0 2.733-2.215 6.222-4.948 7.8"/><path fill="#f8f9fd" d="m278.707 190.28-4.119 2.378v-116.8l4.119-2.377z"/><path fill="url(#i)" d="m278.512 131-3.044 1.758a1.03 1.03 0 0 1-1.042.001 1.04 1.04 0 0 1-.524-.901v-43.97a2.02 2.02 0 0 1 1.012-1.753l3.044-1.757a1.046 1.046 0 0 1 1.425.38c.092.158.141.337.141.52v43.965a2.02 2.02 0 0 1-1.012 1.757"/><path fill="#fff" d="m248 140.806-122.406 70.636v-21.284l122.4-70.635zm0 29.004-122.406 70.636v-21.284l122.4-70.635zm0 29.602-122.406 70.635v-21.283l122.4-70.635zm-64.728-72.123v21.283l-57.674 33.27V160.56zm3.669-2.206 61.053-35.161V111.2l-61.053 35.165z"/><path fill="#afb6e5" d="m248 199.41-122.406 70.635v-1.965l122.4-70.635zm-61.059-55.012 61.053-35.16v1.965l-61.053 35.16zM248 169.813l-122.406 70.636v-1.965l122.4-70.636zm-64.728-21.243-57.674 33.27v-1.965l57.673-33.27zM248 140.805l-122.406 70.636v-1.965l122.4-70.636z"/><path fill="#3d9aff" d="m240.494 272.565.014 5.336a2.4 2.4 0 0 0 .975 2.141c-9.247-5.886-8.444-2.3-8.435-11.8zm39.949-81.052a2.4 2.4 0 0 1 2.375-.233l7.445 4.326a2.4 2.4 0 0 0-2.375.233l-4.642 2.68-7.445-4.326zm-47.136 63.336c-.716-.206-7.862-4.5-8.694-4.944 4.378 2.551 9.832 1.467 14.135-.719 7.224-3.688 12.8-10.024 16.887-16.929 4.018-6.954 6.8-14.919 6.517-23.029-.186-4.914-1.911-10.332-6.386-12.927 2.375 1.7 8.882 4.471 10.483 6.971 3.643 4.7 3.8 11.112 2.951 16.766a50.1 50.1 0 0 1-17.531 29.961c-5.047 3.933-11.964 7.379-18.362 4.85m-27.625 17.759c-.135-2.441 3.226-6.846 4.246-8.944l7.444 4.326c-1.129 2.605-6.427 8.521-3.262 11.1l-7.444-4.326a1.5 1.5 0 0 1-.261-.189 2.57 2.57 0 0 1-.723-1.967m57.747-101.61c.859-1.42 2.237-2.979 4.032-2.937.18-.254 7.839 4.427 8.132 4.538-3.863-1.4-6.279 6.092-7.994 8.4l-7.445-4.326z"/><path fill="#3d9aff" d="M204.985 253.804a32 32 0 0 1-.409-1.788l7.445 4.326a25.15 25.15 0 0 0 5.352 11.649c-.473-.349-8.2-4.483-8.074-5.094a24.6 24.6 0 0 1-4.314-9.093m42.345-75.838a26.16 26.16 0 0 1 11.729-1.462c.664-.427 7.886 4.213 8.541 4.493a25.56 25.56 0 0 0-12.824 1.3z"/><path fill="#3d9aff" d="M196.562 243.632c.356-4.906 4.418-6.126 7.967-8.292l7.445 4.326c-2.914 1.808-6.759 3.073-7.715 6.814-.49.93-.147 9.466-.229 10.635a2.4 2.4 0 0 0 .974 2.141c-11.187-6.659-7.93-2.581-8.442-15.624m36.24-62.772a7.4 7.4 0 0 1 2.864-5.31c.911-.537 8.255-4.96 9.218-5.211a1.95 1.95 0 0 1 1.457.151l7.445 4.326a2.4 2.4 0 0 0-2.374.232c-1.036.7-8.535 4.647-9.146 5.587-2.744 2.7-1.906 6.634-2.005 10.039l-7.445-4.326c.005-.168-.021-5.331-.014-5.488"/><path fill="#3d9aff" d="M216.045 224.816a73 73 0 0 0-4.072 14.849l-7.446-4.326a75 75 0 0 1 5.269-17.78l7.446 4.326a81 81 0 0 0-1.197 2.931m3.982-24.975a75.5 75.5 0 0 1 12.79-13.493l7.444 4.326a75.5 75.5 0 0 0-12.79 13.493z"/><path fill="url(#j)" d="M207.33 242.347c-4.777 2.514-3.027 10.515-3.3 14.769.194 5.2 5.933.139 7.99-.772a24.94 24.94 0 0 0 5.352 11.65c-1.185 2.431-6.439 9.1-3.261 11.1l5.56 3.169c3.871 1.39 6.248-6.041 8-8.4 4.315.679 8.733.231 12.824-1.3l.015 5.336c.006 2.119 1.506 2.973 3.349 1.909l7.839-4.526c3.979-2.278 3.341-7.27 3.311-11.1a75.3 75.3 0 0 0 12.79-13.491l3.3 1.877c1.831.824 3.7-1.011 4.72-2.725 1.039-2.843 9.2-12.447 5.509-14.993l-3.3-1.879a74.8 74.8 0 0 0 5.268-17.781c3.3-1.879 8.021-3.906 7.97-8.443l-.025-9.006c-.006-2.119-1.505-2.973-3.349-1.909l-4.643 2.68a25 25 0 0 0-5.351-11.649c1.183-2.432 6.44-9.1 3.26-11.1l-5.56-3.169c-3.869-1.392-6.247 6.043-7.994 8.4a25.3 25.3 0 0 0-12.824 1.3l-.015-5.336c-.006-2.119-1.505-2.973-3.348-1.909l-7.839 4.526c-3.98 2.278-3.342 7.27-3.312 11.1a75.3 75.3 0 0 0-12.79 13.493l-3.3-1.879c-1.832-.825-3.7 1.012-4.721 2.725-1.04 2.843-9.2 12.445-5.509 14.993l3.3 1.88a74.7 74.7 0 0 0-5.269 17.781zm40.373 10.355c-12.145 7.012-22.023 1.38-22.062-12.575s9.774-30.954 21.919-37.966 22.025-1.383 22.064 12.572-9.774 30.956-21.921 37.969"/><path fill="#3d9aff" d="M205.513 213.534a6.75 6.75 0 0 1 .969-3.279c1.248-1.806 5.583-10.656 7.424-11.755a2.71 2.71 0 0 1 2.821-.539c2.181 1.2 8.5 4.918 10.741 6.2-3.227-1.74-4.521-3.614-7.481.035-.432.519-5.873 10.066-6.283 10.793-.722 1.49-1.368 3.887.238 5.011l-7.445-4.326a1.5 1.5 0 0 1-.261-.19 2.58 2.58 0 0 1-.723-1.95m90.897-50.883c.14.874-.4 3.561.542 4.1-4.941-3.171-4.658-1.221-4.62-6.466zm21.883-44.401a1.33 1.33 0 0 1 1.3-.128l4.078 2.37a1.33 1.33 0 0 0-1.3.127l-2.543 1.468-4.078-2.37zm-25.819 34.696c-.393-.113-4.306-2.463-4.763-2.708 6.6 3.294 13.963-4.4 16.993-9.667 3.127-5.258 6.241-15.555.072-19.7 4.585 2.633 7.276 3.513 7.578 9.479.108 7.414-3.767 14.64-9.257 19.475-2.857 2.389-6.867 4.589-10.623 3.121m-15.133 9.731c-.074-1.337 1.767-3.75 2.326-4.9l4.078 2.37c-.628 1.486-3.514 4.576-1.786 6.079-.129-.088-4.08-2.347-4.191-2.448a1.38 1.38 0 0 1-.427-1.101m31.634-55.662c.482-.794 1.286-1.707 2.3-1.595a.9.9 0 0 1 .282.1l4.078 2.37c-2.168-.731-3.407 3.312-4.379 4.6l-4.078-2.37zm-32.017 45.36q-.125-.486-.224-.98l4.078 2.37a13.8 13.8 0 0 0 2.932 6.381l-4.077-2.37a13.2 13.2 0 0 1-2.709-5.401"/><path fill="#3d9aff" d="M300.156 110.831a14.26 14.26 0 0 1 6.569-.783c.06-.266 4.379 2.375 4.534 2.443a14 14 0 0 0-7.025.71zM272.345 146.8c.123-2.579 2.488-3.428 4.364-4.542l4.078 2.37c-1.586.942-3.93 1.867-4.282 3.942-.162.267-.043 5.194-.069 5.616a1.32 1.32 0 0 0 .533 1.172c-6.131-3.599-4.347-1.558-4.624-8.558"/><path fill="#3d9aff" d="M292.198 112.418a3.99 3.99 0 0 1 1.822-3.075c.2-.094 4.736-2.8 4.8-2.689.6-.4 4.328 2.27 4.876 2.452a1.32 1.32 0 0 0-1.3.127c-.373.247-4.68 2.612-4.846 2.9-1.618 1.335-1.248 3.832-1.263 5.664l-4.078-2.37c-.002-.095-.015-2.924-.011-3.009m-9.178 24.074a40 40 0 0 0-2.231 8.134l-4.078-2.37a41 41 0 0 1 2.886-9.74l4.078 2.37a55 55 0 0 0-.655 1.606m2.179-13.675a41.3 41.3 0 0 1 7.006-7.391l4.078 2.37a41.3 41.3 0 0 0-7.006 7.391z"/><path fill="url(#k)" d="M278.245 146.099c-2.617 1.377-1.658 5.76-1.808 8.09.106 2.849 3.25.076 4.377-.423a13.67 13.67 0 0 0 2.932 6.382c-.649 1.332-3.527 4.984-1.786 6.079l3.046 1.736c2.15.751 3.4-3.3 4.38-4.6a13.87 13.87 0 0 0 7.025-.711l.008 2.923c0 1.161.825 1.629 1.835 1.046l4.293-2.479c2.179-1.248 1.83-3.982 1.814-6.08a41.2 41.2 0 0 0 7.006-7.39c2 1.161 2.762 1.972 4.391-.464.569-1.557 5.041-6.818 3.018-8.213l-1.806-1.029a41 41 0 0 0 2.885-9.74c1.81-1.029 4.394-2.14 4.365-4.625l-.014-4.933c0-1.161-.824-1.629-1.834-1.046l-2.543 1.468a13.7 13.7 0 0 0-2.931-6.381c.648-1.332 3.527-4.985 1.786-6.08l-3.046-1.736c-2.15-.753-3.4 3.3-4.379 4.6a13.9 13.9 0 0 0-7.025.71l-.008-2.923c0-1.161-.824-1.629-1.834-1.046l-4.294 2.479c-2.18 1.248-1.831 3.982-1.815 6.08a41.3 41.3 0 0 0-7.006 7.391c-2-1.162-2.761-1.973-4.392.464-.57 1.557-5.04 6.817-3.018 8.213l1.807 1.03a41 41 0 0 0-2.886 9.74zm22.115 5.672c-6.653 3.841-12.064.756-12.085-6.888s5.354-16.956 12.007-20.8 12.065-.758 12.087 6.887-5.355 16.957-12.009 20.8z"/><path fill="#3d9aff" d="M277.251 130.313c-.135-1.4 2.994-5.8 3.557-7.038.329-.603.823-1.1 1.424-1.433a1.34 1.34 0 0 1 1.029-.121c.194.052 1.762 1.016 1.939 1.091l4.078 2.37c-1.726-.96-2.552-1.957-4.109.034-.049-.03-3.2 5.507-3.309 5.671-.474.853-.937 2.286.008 2.972l-4.078-2.37a1.3 1.3 0 0 1-.539-1.176"/><path fill="#fff" d="m126.58 116.387 42.064 57.816-20.5 11.836-42.064-57.815z"/><path fill="#eaf7fe" d="M168.642 174.203c.021 6.527-4.562 14.433-10.217 17.7s-10.263.669-10.284-5.861z"/><path fill="#ffe06a" d="m188.538 81.61 41.606 57.085-20.5 11.836-42.064-57.816z"/><path fill="#f8d44d" d="M230.147 138.695c.018 6.166-4.069 13.554-9.282 17.108q-.462.314-.935.592c-5.655 3.263-10.266.665-10.284-5.861z"/><path fill="#fff" d="m167.584 92.715 42.062 57.819-20.5 11.836-42.062-57.819z"/><path fill="#eaf7fe" d="M209.649 150.531c.017 6.527-4.566 14.433-10.217 17.7s-10.266.669-10.284-5.861z"/><path fill="#ffe06a" d="m147.081 104.551 42.064 57.815-20.5 11.836-42.065-57.812z"/><path fill="#f8d44d" d="M189.145 162.367c.018 6.53-4.566 14.433-10.217 17.7s-10.266.669-10.287-5.858z"/><path fill="#ffe06a" d="m106.08 128.223 42.064 57.815-20.5 11.836-42.064-57.815z"/><path fill="#f8d44d" d="M148.141 186.039c.021 6.53-4.562 14.433-10.217 17.7s-10.263.669-10.283-5.858z"/><path fill="#fff" d="m85.578 140.059 42.064 57.815-20.5 11.836-42.064-57.815z"/><path fill="#eaf7fe" d="M127.642 197.879c.021 6.527-4.562 14.433-10.217 17.7s-10.266.669-10.284-5.861z"/><path fill="#ffe06a" d="m65.076 151.895 42.064 57.817-20.5 11.836-41.607-57.085z"/><path fill="#f8d44d" d="M107.142 209.715c.018 6.53-4.534 14.415-10.217 17.7q-.473.271-.935.49c-5.217 2.469-9.331-.186-9.35-6.351z"/><defs><linearGradient id="a" x1="276.125" x2=".027" y1="195.547" y2="195.547" gradientUnits="userSpaceOnUse"><stop stop-color="#fff"/><stop offset=".506" stop-color="#cad1e0"/><stop offset="1" stop-color="#c8cede"/></linearGradient><linearGradient id="b" x1="1347.09" x2="1180.29" y1="209.369" y2="11.954" gradientUnits="userSpaceOnUse"><stop stop-color="#aadff7"/><stop offset="1" stop-color="#69a1e3"/></linearGradient><linearGradient id="c" x1="-18.415" x2="592.449" y1="110.582" y2="335.989" gradientUnits="userSpaceOnUse"><stop stop-color="#fff"/><stop offset=".506" stop-color="#cad1e0"/><stop offset="1" stop-color="#c8cede"/></linearGradient><linearGradient id="d" x1="284.084" x2="18.734" y1="102.564" y2="102.564" gradientUnits="userSpaceOnUse"><stop stop-color="#aadff7"/><stop offset="1" stop-color="#69a1e3"/></linearGradient><linearGradient id="e" x1="390.687" x2="205.676" y1="26.055" y2="26.311" gradientUnits="userSpaceOnUse"><stop stop-color="#aadff7"/><stop offset="1" stop-color="#69a1e3"/></linearGradient><linearGradient id="f" x1="390.695" x2="205.704" y1="34.907" y2="35.163" gradientUnits="userSpaceOnUse"><stop stop-color="#aadff7"/><stop offset="1" stop-color="#69a1e3"/></linearGradient><linearGradient id="g" x1="390.714" x2="205.723" y1="43.759" y2="44.015" gradientUnits="userSpaceOnUse"><stop stop-color="#aadff7"/><stop offset="1" stop-color="#69a1e3"/></linearGradient><linearGradient id="h" x1="420.24" x2="256.244" y1="125.188" y2="122.987" gradientUnits="userSpaceOnUse"><stop stop-color="#aadff7"/><stop offset="1" stop-color="#69a1e3"/></linearGradient><linearGradient id="i" x1="279.524" x2="273.902" y1="108.568" y2="108.568" gradientUnits="userSpaceOnUse"><stop stop-color="#ffe06a"/><stop offset="1" stop-color="#fc0"/></linearGradient><linearGradient id="j" x1="289.345" x2="197.698" y1="117.085" y2="269.937" gradientUnits="userSpaceOnUse"><stop stop-color="#a6deff"/><stop offset=".996" stop-color="#3d9aff"/></linearGradient><linearGradient id="k" x1="328.765" x2="268.787" y1="72.431" y2="159.489" gradientUnits="userSpaceOnUse"><stop stop-color="#a6deff"/><stop offset=".996" stop-color="#3d9aff"/></linearGradient></defs></svg>