<svg xmlns="http://www.w3.org/2000/svg" width="86" height="109" fill="none" viewBox="0 0 86 109"><g clip-path="url(#a)"><path fill="#1b69ff" d="M6.614 108.998a.826.826 0 0 1-.825-.82v-.02a.82.82 0 0 1 .568-.779l51.52-29.542a.827.827 0 0 1 1.245.6.82.82 0 0 1-.42.82l-51.676 29.63a.8.8 0 0 1-.412.111"/><path fill="#1b69ff" d="M6.614 108.981a.82.82 0 0 1-.526-.187 4 4 0 0 1-.39-.361 3.14 3.14 0 0 1-.847-1.299 6.4 6.4 0 0 1-.246-1.465.824.824 0 0 1 .745-.892.82.82 0 0 1 .898.741c.095 1.011.14 1.293.613 1.752l.028.029q.116.122.246.229a.82.82 0 0 1 .253.911.82.82 0 0 1-.779.543zm46.562-82.133a.83.83 0 0 1-.415-.111l-4.929-2.85a.82.82 0 0 1-.41-.71v-9.772a.827.827 0 0 1 1.65 0v9.301l3.282 1.898.017-11.706a.827.827 0 0 1 1.65 0L54 26.026a.82.82 0 0 1-.242.58.83.83 0 0 1-.583.24z"/><path fill="#1b69ff" d="M53.193 13.72a.83.83 0 0 1-.81-.674 11.7 11.7 0 0 0-.749-2.49q-.008-.017-.015-.037a6 6 0 0 0-.353-.779 6 6 0 0 0-.39-.732q-.404-.734-.895-1.414l-.166-.23a.818.818 0 0 1 .795-1.319.83.83 0 0 1 .54.361l.169.231q.544.755.993 1.569.25.41.448.847.228.43.398.885c.385.906.669 1.851.846 2.82a.82.82 0 0 1-.464.889.8.8 0 0 1-.35.077z"/><path fill="#1b69ff" d="M53.177 26.847a.83.83 0 0 1-.763-.506.8.8 0 0 1-.062-.315l.02-13.128c0-.217.087-.426.241-.58a.827.827 0 0 1 1.409.58l-.018 11.706 5.972-3.432a.827.827 0 0 1 1.243.599.815.815 0 0 1-.417.82l-7.212 4.144a.83.83 0 0 1-.414.112"/><path fill="#1b69ff" d="M60.385 22.705a.83.83 0 0 1-.8-.612.815.815 0 0 1 .395-.923c.57-.317 1.228-.692 1.762-1.064l.011-.007c1.097-.736 1.638-1.353 1.655-1.884.017-.552-.526-1.27-1.578-2.078a.819.819 0 0 1 .399-1.462.83.83 0 0 1 .609.164 7.4 7.4 0 0 1 1.655 1.656 2.76 2.76 0 0 1-.187 3.572 7.7 7.7 0 0 1-1.62 1.383c-.596.412-1.292.81-1.894 1.146a.8.8 0 0 1-.407.11m-7.213-9.022a.83.83 0 0 1-.811-.675 14.6 14.6 0 0 0-2.823-6.022 14.7 14.7 0 0 0-5.21-4.16c-4.495-2.121-6.415-1.232-10.704 1.17A.828.828 0 0 1 32.4 3.38a.82.82 0 0 1 .415-.813c2.279-1.276 3.907-2.135 5.71-2.446 1.983-.343 3.992.036 6.513 1.225a16.7 16.7 0 0 1 5.698 4.495 15.2 15.2 0 0 1 3.243 6.876.81.81 0 0 1-.366.835.8.8 0 0 1-.3.116 1 1 0 0 1-.141.016"/><path fill="#1b69ff" d="M62.192 72.659a.83.83 0 0 1-.762-.506.8.8 0 0 1-.063-.314l.02-51.062c0-.217.087-.425.24-.579a.83.83 0 0 1 1.165 0 .82.82 0 0 1 .242.58l-.017 51.06a.82.82 0 0 1-.242.58.83.83 0 0 1-.583.24"/><path fill="#1b69ff" d="M58.291 79.368a.83.83 0 0 1-.798-.608.816.816 0 0 1 .386-.923 7.8 7.8 0 0 0 2.454-2.591 7.75 7.75 0 0 0 1.037-3.406c0-.218.087-.427.241-.58a.827.827 0 0 1 1.408.58 9.35 9.35 0 0 1-1.257 4.227 9.4 9.4 0 0 1-3.06 3.191.8.8 0 0 1-.411.11M5.43 106.415a.83.83 0 0 1-.584-.24.83.83 0 0 1-.24-.581L4.652 29.1a.815.815 0 0 1 .51-.757.827.827 0 0 1 1.14.76l-.049 76.49a.8.8 0 0 1-.24.581.83.83 0 0 1-.585.241"/><path fill="#1b69ff" d="M5.474 29.923h-.042a.826.826 0 0 1-.783-.859 9.54 9.54 0 0 1 1.275-4.306 9.6 9.6 0 0 1 3.108-3.256.828.828 0 0 1 1.264.537.82.82 0 0 1-.366.839 8 8 0 0 0-2.572 2.7A7.9 7.9 0 0 0 6.3 29.145a.83.83 0 0 1-.827.778"/><path fill="#1b69ff" d="M9.482 23.007a.83.83 0 0 1-.819-.714.815.815 0 0 1 .406-.817L35.884 6.082a.83.83 0 0 1 1.231.604.815.815 0 0 1-.408.82L9.894 22.896a.8.8 0 0 1-.412.11"/><path fill="#1b69ff" d="M48.246 14.224h-.02a.83.83 0 0 1-.75-.524.8.8 0 0 1-.054-.316 7.1 7.1 0 0 0-.936-3.344 7.2 7.2 0 0 0-2.408-2.514c-1.506-.945-4.014-1.712-7.412 0a.828.828 0 0 1-1.203-.667.815.815 0 0 1 .458-.796 10.3 10.3 0 0 1 4.636-1.184q.16-.002.32.006a8.16 8.16 0 0 1 4.082 1.258 9 9 0 0 1 3.06 3.254 8 8 0 0 1 1.052 4.03.82.82 0 0 1-.25.565.83.83 0 0 1-.575.232m14.086 2.083a.82.82 0 0 1-.507-.175L48.481 5.795a.82.82 0 0 1-.287-.867.82.82 0 0 1 .696-.594.83.83 0 0 1 .607.168L62.84 14.838a.82.82 0 0 1-.028 1.315.83.83 0 0 1-.48.152zM6.613 109.002a.8.8 0 0 1-.41-.11L1.6 106.26a.818.818 0 0 1 .196-1.505.83.83 0 0 1 .628.08l4.601 2.636a.82.82 0 0 1 .386.923.82.82 0 0 1-.799.608"/><path fill="#1b69ff" d="M2.027 106.364a.82.82 0 0 1-.526-.191c-1.214-1.007-1.34-1.726-1.49-3.129a.82.82 0 0 1 .42-.821.8.8 0 0 1 .31-.097.825.825 0 0 1 .91.743c.128 1.174.154 1.419.91 2.047a.817.817 0 0 1-.053 1.299.83.83 0 0 1-.473.15z"/><path fill="#1b69ff" d="M.825 103.776a.827.827 0 0 1-.825-.82l.028-76.503a.827.827 0 0 1 1.65 0l-.028 76.503a.82.82 0 0 1-.825.82"/><path fill="#1b69ff" d="M.853 27.276H.807a.83.83 0 0 1-.733-.547.8.8 0 0 1-.045-.317 9.6 9.6 0 0 1 1.282-4.296 9.7 9.7 0 0 1 3.093-3.26.83.83 0 0 1 1.123.249.816.816 0 0 1-.219 1.123 8.1 8.1 0 0 0-2.565 2.708 8 8 0 0 0-1.068 3.566.82.82 0 0 1-.257.55.83.83 0 0 1-.565.224"/><path fill="#1b69ff" d="M4.872 20.359a.83.83 0 0 1-.715-.41.816.816 0 0 1 .303-1.12L32.806 2.57a.83.83 0 0 1 1.231.604.82.82 0 0 1-.407.82L5.284 20.248a.8.8 0 0 1-.412.11m9.438 53.635a.83.83 0 0 1-.715-.41.816.816 0 0 1 .302-1.12l38.982-22.369a.83.83 0 0 1 1.23.604.82.82 0 0 1-.405.82L14.72 73.883a.8.8 0 0 1-.411.11m4.337 14.217a.83.83 0 0 1-.819-.713.82.82 0 0 1 .406-.817l30.344-17.43a.828.828 0 0 1 1.233.605.815.815 0 0 1-.407.82l-30.345 17.43a.8.8 0 0 1-.412.105m-4.336-6.12a.83.83 0 0 1-.715-.41.816.816 0 0 1 .302-1.12l38.982-22.364a.83.83 0 0 1 1.23.604.82.82 0 0 1-.405.82L14.72 81.98a.8.8 0 0 1-.411.11"/><path fill="#fff" d="m79.824 42.947 5.402 3.1a.76.76 0 0 1 .32.697v27.235c0 12.636-18.764 33.183-19.566 34.054q-.19.205-.43.348a.96.96 0 0 1-.429.141c-.519.031-8.625.459-14.238-2.712l-5.47-3.138a9.7 9.7 0 0 1-3.911-3.67 9.64 9.64 0 0 1-1.354-5.175V66.594a2.47 2.47 0 0 1 1.122-1.85c7.492-4.297 14.475-10.382 18.233-15.882.38-.556.91-.856 1.292-.739 3.75 1.186 10.73-.741 18.282-5.077a.7.7 0 0 1 .754-.095z"/><path fill="#1b69ff" d="M41.266 64.744c7.492-4.297 14.476-10.382 18.234-15.882.38-.556.91-.856 1.292-.739 3.749 1.186 10.73-.741 18.281-5.077a.7.7 0 0 1 .754-.095l5.4 3.1a.7.7 0 0 0-.747.1c-7.555 4.336-14.531 6.264-18.283 5.076-.382-.12-.914.186-1.292.74-3.756 5.5-10.738 11.585-18.234 15.883a2.47 2.47 0 0 0-1.118 1.85v27.238a9.65 9.65 0 0 0 1.376 5.209 9.73 9.73 0 0 0 3.96 3.675h-.007l-5.469-3.137a9.7 9.7 0 0 1-3.91-3.67 9.64 9.64 0 0 1-1.355-5.175V66.594a2.47 2.47 0 0 1 1.118-1.85"/><path fill="#005bea" d="M63.72 109c.826 0 1.347-.029 1.43-.036a1.4 1.4 0 0 0 .628-.201 2.4 2.4 0 0 0 .531-.43c.807-.877 19.688-21.547 19.686-34.357V46.743a1.18 1.18 0 0 0-.544-1.078l-5.401-3.1-.027-.014a1.15 1.15 0 0 0-1.197.126c-7.393 4.243-14.262 6.172-17.9 5.023a1.745 1.745 0 0 0-1.796.912c-3.722 5.45-10.653 11.484-18.086 15.748a2.92 2.92 0 0 0-1.345 2.231v27.24a10.03 10.03 0 0 0 1.399 5.385 10.1 10.1 0 0 0 4.059 3.827l.03.019 5.47 3.137.067.032C55.126 108.691 61.03 109 63.72 109m15.906-65.655 5.378 3.088c.049.028.099.134.097.308v27.24c0 12.469-18.655 32.891-19.451 33.754a1.5 1.5 0 0 1-.325.267.5.5 0 0 1-.232.081c-.343.021-8.463.469-13.992-2.653l-.06-.029-5.378-3.088-.033-.02a9.3 9.3 0 0 1-3.745-3.51 9.2 9.2 0 0 1-1.296-4.95V66.59a2.05 2.05 0 0 1 .9-1.466C49.03 60.8 56.073 54.663 59.865 49.11c.294-.43.655-.61.79-.566 3.865 1.22 11.008-.737 18.637-5.116.16-.104.263-.12.303-.097z"/><path fill="#fff" d="m65.551 84.403 5.947-10.232-1.642-.94-4.306 7.412-5.502-3.15a15.2 15.2 0 0 1 5.502-6.025c4.045-2.321 7.322-.444 7.322 4.191 0 4.636-3.277 10.276-7.322 12.594-4.046 2.32-7.322.448-7.323-4.191.014-1.198.202-2.389.557-3.534z"/></g><defs><clipPath id="a"><path fill="#fff" d="M0 0h86v109H0z"/></clipPath></defs></svg>