<svg xmlns="http://www.w3.org/2000/svg" width="225" height="271" fill="none" viewBox="0 0 225 271"><mask id="a" width="225" height="271" x="0" y="0" maskUnits="userSpaceOnUse" style="mask-type:luminance"><path fill="#fff" d="M225 0H0v271h225z"/></mask><g mask="url(#a)"><path fill="url(#b)" d="M223.52 158.832h-46.896l-52.201-31.95c-6.722-4.112-18.465-3.599-26.23 1.157l-50.32 30.794H1.004v164.188h.016c-.194 2.783 1.274 5.472 4.503 7.447l94.555 57.876c6.722 4.112 18.466 3.599 26.234-1.156l90.786-55.568c4.031-2.466 6.179-5.591 6.388-8.602h.034z"/><path fill="#dadee9" d="m220.687 179.293-100.696 59.124a13.52 13.52 0 0 1-13.931 0L3.83 178.407a6.17 6.17 0 0 1-2.824-5.361v-31.067l104.052-44.34a15.77 15.77 0 0 1 12.909-.152l105.54 45.379v31.073a6.18 6.18 0 0 1-2.82 5.35z"/><path fill="#f2f5fc" d="m222.4 144.488-102.662 60.291a13.47 13.47 0 0 1-13.868 0L2.119 143.867a2.55 2.55 0 0 1-.903-3.15c.178-.442.495-.814.903-1.061l102.69-60.3a13.44 13.44 0 0 1 13.822 0l103.772 60.928a2.556 2.556 0 0 1 .894 3.157 2.2 2.2 0 0 1-.894 1.05z"/><path fill="#3a456e" d="m197.321 146.129-73.97 43.447a16.2 16.2 0 0 1-16.686 0l-79.464-46.657a2.97 2.97 0 0 1-1.05-3.667 2.57 2.57 0 0 1 1.05-1.236l75.255-44.201a13.71 13.71 0 0 1 14.114 0l80.758 47.411c.577.392.998.974 1.189 1.646a2.97 2.97 0 0 1-.143 2.026 2.57 2.57 0 0 1-1.046 1.226z"/><path fill="#e0e3ed" d="m197.323 146.126-7.549 4.441-73.2-42.978a13.7 13.7 0 0 0-14.115 0l-67.705 39.76-7.553-4.434a2.97 2.97 0 0 1-1.05-3.666 2.58 2.58 0 0 1 1.05-1.236l75.259-44.2a13.7 13.7 0 0 1 14.115 0l80.757 47.411a2.98 2.98 0 0 1 1.027 3.679c-.208.505-.572.93-1.037 1.215z"/><path fill="#ffe06a" d="M207.684 170.658c0 2.43 1.68 3.419 3.753 2.203a8.44 8.44 0 0 0 3.751-6.604c0-2.43-1.681-3.418-3.751-2.201a8.44 8.44 0 0 0-3.753 6.602"/><path fill="#fcfcfc" d="M210.473 171.728a8.44 8.44 0 0 0 3.754-6.604 3.8 3.8 0 0 0-.244-1.378 2.62 2.62 0 0 1 1.213 2.511 8.45 8.45 0 0 1-3.751 6.604c-1.617.95-2.978.55-3.507-.821a2.64 2.64 0 0 0 2.54-.312z"/><path fill="url(#c)" d="M195.117 177.84c0 2.43 1.681 3.421 3.751 2.203a8.47 8.47 0 0 0 3.752-6.604c0-2.429-1.681-3.421-3.752-2.204a8.44 8.44 0 0 0-3.751 6.605"/><path fill="#fff" d="M197.903 178.912a8.46 8.46 0 0 0 3.752-6.611 3.8 3.8 0 0 0-.243-1.379 2.63 2.63 0 0 1 1.207 2.515 8.46 8.46 0 0 1-3.751 6.604c-1.614.942-2.979.542-3.509-.826a2.65 2.65 0 0 0 2.544-.303"/><path fill="url(#d)" d="M106.354 139.682a1.17 1.17 0 0 0-1.027-.024c-1.247.423-2.707 2.149-3.676 4.219q-.42.868-.699 1.792c-.61 2.022-.445 3.523.322 3.98l-38.053-22.673-.132-.081c-.723-.467-.88-1.962-.289-3.955a11 11 0 0 1 .722-1.845c.977-2.037 2.427-3.745 3.662-4.17a1.2 1.2 0 0 1 1.056.067v-.018z"/><path fill="url(#e)" d="M100.945 145.669c-.61 2.021-.445 3.523.322 3.98l-38.058-22.675-.132-.079c-.723-.467-.88-1.962-.288-3.957a10.7 10.7 0 0 1 .722-1.844l38.13 22.781q-.418.87-.693 1.795z"/><path fill="#215bf6" d="M106.711 143.698c-.83 2.773-2.787 5.463-4.382 5.998a1.2 1.2 0 0 1-1.036-.033l-.025-.012c-.764-.455-.934-1.963-.324-3.984.831-2.774 2.788-5.465 4.38-6.013a1.18 1.18 0 0 1 1.027.029c.774.415.968 1.946.36 4.015"/><path fill="url(#f)" d="M97.833 145.47c1.348-6.824 7.425-11.351 13.57-10.11s10.034 7.78 8.684 14.607c-1.349 6.827-7.423 11.345-13.569 10.104s-10.034-7.778-8.686-14.601"/><path fill="url(#g)" d="M157.068 169.77a1.18 1.18 0 0 0-1.021-.034c-1.256.432-2.739 2.203-3.715 4.287a13 13 0 0 0-.662 1.724c-.611 2.021-.445 3.533.323 3.98l-37.655-22.288-.132-.082c-.722-.467-.881-1.962-.287-3.955q.277-.913.687-1.776c.976-2.075 2.449-3.814 3.687-4.239a1.25 1.25 0 0 1 1.065.056v-.01z"/><path fill="url(#h)" d="M157.434 173.778c-.829 2.773-2.786 5.463-4.381 6a1.2 1.2 0 0 1-1.036-.034l-.026-.012c-.765-.455-.934-1.962-.324-3.98.829-2.773 2.786-5.463 4.379-6.013a1.2 1.2 0 0 1 1.027.029c.776.409.973 1.946.361 4.01"/><path fill="url(#i)" d="m151.994 179.727-37.656-22.294-.132-.082c-.722-.467-.881-1.962-.287-3.954q.276-.914.686-1.776l37.725 22.392a13 13 0 0 0-.663 1.724c-.609 2.03-.441 3.541.327 3.99"/><path fill="url(#j)" d="M113.817 105.809v32.27h-.017a2.78 2.78 0 0 1-1.413 2.243 6.98 6.98 0 0 1-6.862.274 2.53 2.53 0 0 1-1.431-2.132v-32.261a2.51 2.51 0 0 0 1.431 2.122 6.92 6.92 0 0 0 6.862-.274 2.75 2.75 0 0 0 1.413-2.236z"/><path fill="url(#k)" d="M113.816 105.809v32.27h-.017a2.77 2.77 0 0 1-1.413 2.243 6.67 6.67 0 0 1-3.433 1.037V109.1a6.67 6.67 0 0 0 3.433-1.051 2.75 2.75 0 0 0 1.413-2.236z"/><path fill="url(#l)" d="M177.664 130.386c0-15.886-10.168-35.167-22.793-43.396-4.773-19.986-17.657-40.284-32.848-49.84-7.141-4.495-13.753-5.933-19.273-4.784v-.03l-10.93 2.336s-6.893 9.465-7.75 11.961c-2.397-1.936-5.872-4.046-8.271-3.656l-11.72 2.056s7.596 51.936 20.416 60.001c5.458 3.432 74.82 45.641 74.82 45.641l7.854-2.57-.027-.012c6.328-1.2 10.522-7.521 10.522-17.707"/><path fill="#f2f5fc" d="M145.845 89.626c-5.05-19.998-18.681-40.323-34.753-49.912-16.07-9.588-29.703-5.524-34.753 8.447-13.36-7.684-24.116-1.215-24.116 14.672 0 16.063 10.998 35.643 24.564 43.733l68.613 40.931c13.565 8.093 24.563 1.631 24.563-14.429 0-15.881-10.761-35.187-24.118-43.442"/><path fill="url(#m)" d="M177.664 130.386c0-15.886-10.168-35.167-22.793-43.396-4.773-19.986-17.657-40.284-32.848-49.84-7.141-4.495-13.753-5.933-19.273-4.784v-.03l-10.93 2.336s-6.893 9.465-7.75 11.961c-2.397-1.936-5.872-4.046-8.271-3.656l-11.72 2.056s7.596 51.936 20.416 60.001c5.458 3.432 74.82 45.641 74.82 45.641l7.854-2.57-.027-.012c6.328-1.2 10.522-7.521 10.522-17.707"/><path fill="#f2f5fc" d="M145.845 89.626c-5.05-19.998-18.681-40.323-34.753-49.912-16.07-9.588-29.703-5.524-34.753 8.447-13.36-7.684-24.116-1.215-24.116 14.672 0 16.063 10.998 35.643 24.564 43.733l68.613 40.931c13.565 8.093 24.563 1.631 24.563-14.429 0-15.881-10.761-35.187-24.118-43.442m-5.314 90.028 19.482-11.443 5.236 8.113-19.262 11.842"/></g><defs><linearGradient id="b" x1="127.171" x2="139.981" y1="424.498" y2="108.777" gradientUnits="userSpaceOnUse"><stop stop-color="#fff"/><stop offset="1" stop-color="#c8cede"/></linearGradient><linearGradient id="c" x1="-958.61" x2="-958.61" y1="471.396" y2="471.446" gradientUnits="userSpaceOnUse"><stop stop-color="#5e98f7"/><stop offset="1" stop-color="#4670ba"/></linearGradient><linearGradient id="d" x1="-1005.44" x2="-1005.44" y1="485.335" y2="485.335" gradientUnits="userSpaceOnUse"><stop stop-color="#fff"/><stop offset="1" stop-color="#c8cede"/></linearGradient><linearGradient id="e" x1="-1004.42" x2="-1004.42" y1="484.256" y2="484.285" gradientUnits="userSpaceOnUse"><stop stop-color="#fff"/><stop offset=".506" stop-color="#cad1e0"/><stop offset="1" stop-color="#c8cede"/></linearGradient><linearGradient id="f" x1="122.486" x2="92.039" y1="183.069" y2="92.757" gradientUnits="userSpaceOnUse"><stop stop-color="#fff"/><stop offset=".506" stop-color="#cad1e0"/><stop offset="1" stop-color="#c8cede"/></linearGradient><linearGradient id="g" x1="-1005.39" x2="-1005.39" y1="485.841" y2="485.873" gradientUnits="userSpaceOnUse"><stop stop-color="#fff"/><stop offset=".506" stop-color="#cad1e0"/><stop offset="1" stop-color="#c8cede"/></linearGradient><linearGradient id="h" x1="-950.296" x2="-950.296" y1="471.967" y2="472.018" gradientUnits="userSpaceOnUse"><stop stop-color="#fff"/><stop offset=".506" stop-color="#cad1e0"/><stop offset="1" stop-color="#c8cede"/></linearGradient><linearGradient id="i" x1="-1004.19" x2="-1004.19" y1="484.868" y2="484.896" gradientUnits="userSpaceOnUse"><stop stop-color="#fff"/><stop offset=".506" stop-color="#cad1e0"/><stop offset="1" stop-color="#c8cede"/></linearGradient><linearGradient id="j" x1="-971.539" x2="-971.539" y1="485.678" y2="485.714" gradientUnits="userSpaceOnUse"><stop stop-color="#fff"/><stop offset=".506" stop-color="#cad1e0"/><stop offset="1" stop-color="#c8cede"/></linearGradient><linearGradient id="k" x1="-927.766" x2="-927.766" y1="485.666" y2="485.666" gradientUnits="userSpaceOnUse"><stop stop-color="#fff"/><stop offset=".506" stop-color="#cad1e0"/><stop offset="1" stop-color="#c8cede"/></linearGradient><linearGradient id="l" x1="-1011.35" x2="-1011.35" y1="490.475" y2="490.475" gradientUnits="userSpaceOnUse"><stop stop-color="#5e98f7"/><stop offset="1" stop-color="#4670ba"/></linearGradient><linearGradient id="m" x1="-1011.35" x2="-1011.35" y1="490.475" y2="490.475" gradientUnits="userSpaceOnUse"><stop stop-color="#5e98f7"/><stop offset="1" stop-color="#4670ba"/></linearGradient></defs></svg>