<svg xmlns="http://www.w3.org/2000/svg" width="129" height="125" fill="none" viewBox="0 0 129 125"><g clip-path="url(#a)"><mask id="b" width="105" height="121" x="19" y="0" maskUnits="userSpaceOnUse" style="mask-type:luminance"><path fill="#fff" d="M123.105 0H19v120.121h104.105z"/></mask><g fill-rule="evenodd" clip-rule="evenodd" mask="url(#b)"><path fill="#f0f3fa" d="M30.143 64.712v50.974a4 4 0 0 0 1.408 3.406l-9.69-5.594a4.02 4.02 0 0 1-1.417-3.415V59.102z"/><path fill="#4069fa" d="M21.33 60.644v49.437a3.1 3.1 0 0 0 1.076 2.7l6.935 4a9 9 0 0 1-.084-1.075V65.225zm10.222 59.332a1 1 0 0 1-.44-.113l-9.691-5.6a4.94 4.94 0 0 1-1.87-4.171v-51a.893.893 0 0 1 1.34-.765l9.7 5.6a.9.9 0 0 1 .448.772v50.973a3.05 3.05 0 0 0 1.06 2.7.887.887 0 0 1-.545 1.6"/><path fill="#fff" d="M94.503 26.852v50.974a12.14 12.14 0 0 1-5.466 9.479l-54.024 31.19c-3.006 1.734-5.474.311-5.474-3.164V64.357z"/><path fill="#4069fa" d="M30.431 64.868v50.458a3 3 0 0 0 1.166 2.764 3.04 3.04 0 0 0 2.975-.371l54.021-31.192a10.15 10.15 0 0 0 3.531-3.759 10.3 10.3 0 0 0 1.484-4.944v-49.43zm2.15 55.25a3.73 3.73 0 0 1-1.877-.484 4.67 4.67 0 0 1-2.052-4.308V64.354a.88.88 0 0 1 .447-.765l64.964-37.513a.88.88 0 0 1 1.212.327.9.9 0 0 1 .12.445v50.973a13 13 0 0 1-5.92 10.25l-54.018 31.185a5.8 5.8 0 0 1-2.877.863"/><path fill="#f0f3fa" d="M35.618 38.746c26.3-15.187 46-26.567 54.017-31.192a3.84 3.84 0 0 1 3.868-.378 3.85 3.85 0 0 1 1.603 3.536v16.5L30.145 64.714v-16.5a12.1 12.1 0 0 1 5.473-9.47"/><path fill="#4069fa" d="M36.056 39.507a10.44 10.44 0 0 0-3.535 3.764 10.26 10.26 0 0 0-1.484 4.943v14.951L94.215 26.69V10.71a3.01 3.01 0 0 0-1.158-2.765 3.02 3.02 0 0 0-2.976.38zm-5.912 26.088a.84.84 0 0 1-.44-.12.87.87 0 0 1-.446-.766v-16.5a12.94 12.94 0 0 1 5.916-10.238L89.196 6.78a4.67 4.67 0 0 1 4.754-.38 4.67 4.67 0 0 1 2.052 4.308v16.5a.88.88 0 0 1-.447.765L30.59 65.471a.85.85 0 0 1-.447.121"/><path fill="#1b69ff" d="M25.36 32.813Q52.379 17.22 79.387 1.628a4 4 0 0 1 3.672-.477l10.258 5.92a4.03 4.03 0 0 0-3.68.477l-.787.447-.848.5A99738 99738 0 0 0 35.62 38.742a12.04 12.04 0 0 0-5.473 9.47v16.5l-10.26-5.923v-16.5a12.08 12.08 0 0 1 5.475-9.48"/><path fill="#4069fa" d="m20.779 58.276 8.479 4.89V48.214a12.92 12.92 0 0 1 5.9-10.235L89.2 6.78q.485-.27 1-.477l-7.591-4.384a3.18 3.18 0 0 0-2.8.492L25.814 33.58a11.23 11.23 0 0 0-5.035 8.72zm9.365 7.324a.84.84 0 0 1-.44-.121l-10.257-5.924a.89.89 0 0 1-.447-.764v-16.5a12.9 12.9 0 0 1 5.9-10.233c.009-.008.009-.008.023-.008L78.937.86A4.9 4.9 0 0 1 83.4.337L93.753 6.3a.89.89 0 0 1-.795 1.59 3.12 3.12 0 0 0-2.892.439L36.057 39.508a11.2 11.2 0 0 0-5.019 8.713v16.49a.89.89 0 0 1-.446.765.85.85 0 0 1-.447.121m13.077 34.212a1.55 1.55 0 0 1-.8-.213 1.73 1.73 0 0 1-.818-1.56v-11.78a3.19 3.19 0 0 1 1.522-2.626l16.058-9.266a1.16 1.16 0 0 0 .454-.78V62.448l-16.43 9.486a1.069 1.069 0 0 1-1.074-1.847l17.05-9.842a1.651 1.651 0 0 1 2.588 1.49v11.85a3.22 3.22 0 0 1-1.521 2.635l-16.066 9.26a1.14 1.14 0 0 0-.454.779v11.06l16.436-9.477a1.067 1.067 0 1 1 1.067 1.847L44.192 99.53a1.94 1.94 0 0 1-.977.28m38.297-49.983-15.452 8.91a1.16 1.16 0 0 0-.454.787v11.092l15.906-9.176zM65.606 73.085 81.512 63.9V75a1.14 1.14 0 0 1-.462.78l-15.444 8.918zm-.613 11.969q-.002.009-.016.007l.553.917zm.09 2.128a1.5 1.5 0 0 1-.787-.212 1.73 1.73 0 0 1-.817-1.56V59.525a3.21 3.21 0 0 1 1.514-2.635l16.057-9.275a1.75 1.75 0 0 1 1.77-.067 1.73 1.73 0 0 1 .819 1.559v25.892a3.21 3.21 0 0 1-1.522 2.634L66.059 86.9a1.9 1.9 0 0 1-.977.28"/><path fill="#4069fa" d="M72.053 36.518a1 1 0 0 1-.523-.144 1.1 1.1 0 0 1-.545-.977V24.991a1.6 1.6 0 0 1 .772-1.325l6.057-3.49a.887.887 0 0 1 1.317.656.885.885 0 0 1-.44.88l-5.92 3.43v9.09l5.09-2.94a.892.892 0 1 1 .893 1.544l-6.11 3.52a1.1 1.1 0 0 1-.59.166"/><path fill="#4069fa" d="M71.881 30.802a.89.89 0 0 1-.446-1.658l6.011-3.475a.89.89 0 1 1 .886 1.544l-6 3.468a.9.9 0 0 1-.447.12m-9.332 11.244a.885.885 0 0 1-.893-.887V30.006a.888.888 0 0 1 1.536-.605l5.24 5.573-.053-8.85a.9.9 0 0 1 .886-.893.89.89 0 0 1 .893.885l.067 11.115a.91.91 0 0 1-.56.84.89.89 0 0 1-.977-.22l-5.257-5.596v8.9a.887.887 0 0 1-.886.886m-8.187 4.25a2.35 2.35 0 0 1-1.2-.31c-.954-.553-1.416-1.71-1.416-3.55v-6.92a.89.89 0 0 1 1.78 0v6.92c0 1.582.4 1.937.53 2.006.325.19 1.044-.008 1.945-.53a6.24 6.24 0 0 0 3.264-5.784v-6.957a.893.893 0 0 1 1.786 0v6.958a8.02 8.02 0 0 1-4.164 7.327 5.2 5.2 0 0 1-2.528.84m-8.505 5.254a1.87 1.87 0 0 1-.969-.25c-1.045-.6-1.166-1.992-1.166-2.983a.888.888 0 0 1 1.237-.85.89.89 0 0 1 .542.85c0 1.233.271 1.438.271 1.438.061.03.387.053 1.175-.4a4.36 4.36 0 0 0 2.283-4.075v-8.137a.89.89 0 0 1 1.78 0v8.138a6.16 6.16 0 0 1-3.18 5.618 4.2 4.2 0 0 1-1.977.65M32.228 42.06l-10.251-5.92a11.6 11.6 0 0 0-2.09 6.156v16.5l10.258 5.92v-16.5a11.6 11.6 0 0 1 2.083-6.155"/><path fill="#4069fa" d="m20.779 58.278 8.479 4.89V48.216a12 12 0 0 1 1.726-5.844l-8.714-5.035a10.35 10.35 0 0 0-1.491 4.966zm9.365 7.32a.84.84 0 0 1-.44-.12l-10.257-5.92a.89.89 0 0 1-.447-.765v-16.5a12.46 12.46 0 0 1 2.241-6.654.877.877 0 0 1 1.173-.273l10.258 5.923a.9.9 0 0 1 .424.568.92.92 0 0 1-.128.7 10.6 10.6 0 0 0-1.931 5.663v16.49a.89.89 0 0 1-.446.765.85.85 0 0 1-.447.12m55.736 37.614-6.4-3.694c7.495 4.217 16.822-2.846 21.591-8.29 6.647-7.594 12.522-20.562 10-30.662a11.1 11.1 0 0 0-4.951-7.192l6.715 3.892c6.738 4.278 5.679 15.1 3.589 21.743-3.1 9.857-11.462 21.766-21.63 24.832a11.16 11.16 0 0 1-8.918-.629"/><path fill="#4069fa" d="M86.319 102.438a10.23 10.23 0 0 0 8.222.544c9.729-2.929 17.95-14.414 21.04-24.24 2.256-7.185 2.771-16.922-3.219-20.729l-1.642-.946a15.2 15.2 0 0 1 1.219 3.285c2.642 10.592-3.43 23.734-10.2 31.465-4.3 4.913-10.644 9.6-16.732 9.864zm4.474 2.922a10.75 10.75 0 0 1-5.352-1.37q0-.003-.003-.005l-.005-.003-6.4-3.695a.89.89 0 0 1-.329-1.215.89.89 0 0 1 1.216-.329c7.086 3.982 16.209-3.218 20.478-8.1 6.677-7.63 12.189-20.334 9.812-29.858a10.18 10.18 0 0 0-4.542-6.64.89.89 0 0 1 .9-1.537l6.715 3.892c6.874 4.361 6.443 14.99 3.99 22.78-3.233 10.273-11.9 22.3-22.22 25.415-1.381.43-2.817.654-4.263.666"/><path fill="#fff" d="M97.186 57.498c-10.27 5.936-18.6 20.358-18.6 32.221s8.33 16.663 18.6 10.735 18.6-20.358 18.6-32.213-8.33-16.671-18.6-10.743"/><path fill="#4069fa" d="M105.49 55.845a16 16 0 0 0-7.859 2.423c-10.008 5.784-18.155 19.888-18.155 31.449 0 5.4 1.78 9.4 5 11.266 3.221 1.866 7.58 1.4 12.266-1.294 10.008-5.784 18.154-19.89 18.154-31.45 0-5.405-1.779-9.41-5-11.272a8.7 8.7 0 0 0-4.406-1.12M88.88 103.89a10.4 10.4 0 0 1-5.285-1.363c-3.807-2.2-5.9-6.745-5.9-12.81 0-12.128 8.548-26.921 19.048-32.986 5.246-3.036 10.235-3.5 14.036-1.3s5.9 6.745 5.9 12.81c0 12.128-8.547 26.922-19.048 32.986a17.8 17.8 0 0 1-8.75 2.665"/><path fill="#1b69ff" d="M92.807 49.864c4.686-2.635 10.789-4.566 15.876-1.825l6.4 3.687c-9.4-4.68-20.555 4-26.361 10.789-7.775 9.092-14.453 23.953-12.067 36 .772 3.921 2.5 7.336 5.882 9.584-1.521-.878-5.958-3.323-7.132-4.209-7.328-5.535-6.132-17.852-3.808-25.544 3.369-11.13 11.092-22.492 21.213-28.48"/><path fill="#4069fa" d="M93.249 50.638c-9.274 5.5-17.246 16.209-20.8 27.966-2.491 8.244-3.073 19.623 3.49 24.574q.916.649 1.893 1.2c-1-1.77-1.696-3.695-2.06-5.694C73.308 86.172 80.4 70.867 88.04 61.942c5.4-6.306 13.574-12.417 21.365-12.417h.083l-1.241-.72c-4.981-2.664-10.9-.476-15 1.833m-10.711 58.348a.9.9 0 0 1-.446-.121l-1.44-.818c-2.043-1.15-4.837-2.732-5.783-3.444-7.284-5.5-6.9-17.306-4.12-26.513 3.68-12.167 11.956-23.273 21.608-28.99a.03.03 0 0 1 .016-.006c4.489-2.53 11.038-4.9 16.738-1.84l6.42 3.7a.896.896 0 0 1 .341 1.193.893.893 0 0 1-1.181.382c-8.4-4.187-18.881 3.073-25.294 10.56-7.366 8.616-14.225 23.318-11.871 35.25.818 4.149 2.62 7.1 5.5 9.009a.89.89 0 0 1 .04 1.459.9.9 0 0 1-.532.176"/><path fill="#4069fa" d="m85.554 103.011-6.39-3.687 6.715 3.884z"/><path fill="#4069fa" d="M85.88 104.101a.94.94 0 0 1-.448-.121l-6.722-3.884a.9.9 0 0 1-.318-1.219.89.89 0 0 1 1.211-.326h.008l6.39 3.687.015.015.317.2a.9.9 0 0 1 .41.54.88.88 0 0 1-.42.991.9.9 0 0 1-.44.117"/><path fill="#f0f3fa" d="M112.524 57.063a10.1 10.1 0 0 0-6.117-1.2 18.3 18.3 0 0 0-7.208 2.521 32.5 32.5 0 0 0-7.206 5.8 45.25 45.25 0 0 0-10.2 17.678 32.3 32.3 0 0 0-1.431 9.144 18.1 18.1 0 0 0 1.43 7.5 9.6 9.6 0 0 0 10.2 5.89 18.1 18.1 0 0 0 7.207-2.514 32.5 32.5 0 0 0 7.208-5.807 45.04 45.04 0 0 0 10.2-17.677 32.5 32.5 0 0 0 1.431-9.146 18.2 18.2 0 0 0-1.431-7.494 10.1 10.1 0 0 0-4.088-4.7m-29.6 13.681c4.163-7.223 9.925-13.52 16.276-17.185s12.113-4.013 16.278-1.613 6.746 7.563 6.746 14.9-2.582 15.475-6.746 22.69-9.918 13.514-16.278 17.186-12.113 4.012-16.276 1.6-6.74-7.556-6.74-14.9 2.58-15.466 6.744-22.673"/><path fill="#4069fa" d="M107.615 56.7c-.363 0-.742.016-1.12.054a17.5 17.5 0 0 0-6.85 2.4 31.7 31.7 0 0 0-7.01 5.648 44.16 44.16 0 0 0-9.987 17.322 31.3 31.3 0 0 0-1.393 8.887 17.3 17.3 0 0 0 1.348 7.132 8.71 8.71 0 0 0 9.3 5.375 17.3 17.3 0 0 0 6.851-2.4 31.4 31.4 0 0 0 7-5.648 44.2 44.2 0 0 0 9.993-17.321 31.2 31.2 0 0 0 1.393-8.89 17.3 17.3 0 0 0-1.347-7.13 9.2 9.2 0 0 0-3.725-4.293 8.8 8.8 0 0 0-4.459-1.135m-16.845 48.65a10.5 10.5 0 0 1-5.337-1.371 10.83 10.83 0 0 1-4.452-5.1 19 19 0 0 1-1.507-7.87c.036-3.185.53-6.35 1.468-9.394a46.1 46.1 0 0 1 10.41-18.041 33.3 33.3 0 0 1 7.411-5.958 19.1 19.1 0 0 1 7.556-2.635 10.93 10.93 0 0 1 6.649 1.313l.001.002.002.001h.003a10.9 10.9 0 0 1 4.452 5.1 19 19 0 0 1 1.508 7.863 33.2 33.2 0 0 1-1.461 9.4 46 46 0 0 1-10.417 18.033 33 33 0 0 1-7.4 5.966 19 19 0 0 1-7.564 2.627q-.653.064-1.309.061m18.701-54.053c1.944-.028 3.86.463 5.55 1.424 4.065 2.339 6.3 7.359 6.3 14.126 0 6.95-2.355 14.846-6.625 22.243s-9.932 13.385-15.944 16.86c-5.867 3.384-11.326 3.952-15.39 1.605-4.066-2.347-6.3-7.359-6.3-14.127 0-6.95 2.354-14.846 6.623-22.243s9.933-13.377 15.952-16.852a20.07 20.07 0 0 1 9.834-3.036m-20.562 59.461a12.65 12.65 0 0 1-6.435-1.657c-4.633-2.672-7.192-8.237-7.192-15.672 0-7.253 2.438-15.467 6.86-23.13 4.42-7.661 10.325-13.886 16.608-17.51 6.428-3.716 12.53-4.284 17.163-1.612s7.185 8.244 7.185 15.67c0 7.254-2.438 15.468-6.859 23.137s-10.318 13.877-16.6 17.5a21.7 21.7 0 0 1-10.727 3.27"/><path fill="#f0f3fa" d="m101.084 79.505-1.666 3.536-11.856-3.384 1.666-3.536z"/><path fill="#4069fa" d="m88.807 79.09 10.122 2.885.894-1.9-10.116-2.885zm10.607 4.837a1 1 0 0 1-.243-.03l-11.853-3.386a.93.93 0 0 1-.568-.483.9.9 0 0 1 .008-.75l1.665-3.536a.88.88 0 0 1 1.045-.477l11.863 3.383a.9.9 0 0 1 .56.491.9.9 0 0 1-.007.744l-1.658 3.535a.89.89 0 0 1-.81.507"/><path fill="#4069fa" d="M96.672 86.213a.84.84 0 0 1-.44-.122.884.884 0 0 1-.334-1.211l13.763-23.818a.88.88 0 0 1 .884-.44.9.9 0 0 1 .327.115.887.887 0 0 1 .326 1.211L97.443 85.765a.89.89 0 0 1-.772.447m-71.968 29.814a.9.9 0 0 1-.538-.182 4.9 4.9 0 0 1-1.772-4.1v-51a.89.89 0 1 1 1.78 0v50.974a3.07 3.07 0 0 0 1.067 2.7.895.895 0 0 1-.14 1.512.9.9 0 0 1-.398.093"/><path fill="#4069fa" d="M27.678 117.745a.9.9 0 0 1-.538-.182 4.94 4.94 0 0 1-1.78-4.1v-51a.89.89 0 1 1 1.78 0v50.973a3.1 3.1 0 0 0 1.075 2.7.89.89 0 0 1 .166 1.25.87.87 0 0 1-.7.355"/></g></g><defs><clipPath id="a"><path fill="#fff" d="M19 0h104.105v120.121H19z"/></clipPath></defs></svg>