<svg xmlns="http://www.w3.org/2000/svg" width="1440" height="986" fill="none" viewBox="0 0 1440 986"><path fill="#f2f5fc" d="M710.348 294.702 569.102 213.29l141.242-81.409 141.247 81.411z"/><path fill="url(#a)" d="M710.344 978.18V294.702l141.245-81.41V978.18z"/><path fill="url(#b)" d="M710.347 978.18V294.702l-141.245-81.41V978.18z"/><g opacity=".4"><path fill="#f2f5fc" d="m1251.15 275.491-70.62-40.706 70.62-40.705 70.63 40.705z"/><path fill="url(#c)" d="M1251.16 805.89V275.489l70.62-40.704v571.106z"/><path fill="url(#d)" d="M1251.15 805.891V275.49l-70.62-40.704v571.106z"/></g><g opacity=".2"><path fill="#f9fafc" d="m1369.38 96.9-70.62-40.707 70.62-40.705L1440 56.194z"/><path fill="url(#e)" d="M1369.38 627.297V96.9L1440 56.193v571.103z"/><path fill="url(#f)" d="M1369.38 627.297V96.899l-70.62-40.705v571.103z"/></g><g opacity=".4"><path fill="#f2f5fc" d="m188.845 260.001 70.623-40.706-70.622-40.705-70.627 40.706z"/><path fill="url(#g)" d="M188.845 790.402V260.001l-70.626-40.705v571.106z"/><path fill="url(#h)" d="M188.844 790.401V260l70.622-40.704v571.106z"/></g><g opacity=".2"><path fill="#f2f5fc" d="m70.621 81.41 70.623-40.706L70.624 0 0 40.706z"/><path fill="url(#i)" d="M70.623 611.808V81.41L0 40.706v571.102z"/><path fill="url(#j)" d="M70.625 611.808V81.41l70.623-40.704v571.102z"/></g><path fill="#f2f5fc" d="m1007.46 417.985-141.249-81.411 141.239-81.409 141.25 81.411z"/><path fill="url(#k)" d="M1007.45 904.611V417.985l141.25-81.408v568.034z"/><path fill="url(#l)" d="M1007.46 904.611V417.985l-141.249-81.408v568.034z"/><path fill="#f2f5fc" d="M413.245 417.985 272 336.574l141.245-81.409 141.246 81.411z"/><path fill="url(#m)" d="M413.242 986.001V417.986l141.245-81.409v649.424z"/><path fill="url(#n)" d="M413.245 904.611V417.985L272 336.577v568.034z"/><path fill="url(#o)" fill-rule="evenodd" d="m758.335 166.427-94.545-56.988c-1.208-.72-2.204-.331-2.226.889l-1.474 79.812c.09 1.456.88 2.75 2.145 3.529l94.545 56.988c1.209.662 2.205.273 2.227-.948l1.474-79.812c-.091-1.397-.88-2.749-2.146-3.47" clip-rule="evenodd"/><path stroke="#fff" stroke-linecap="round" stroke-linejoin="round" stroke-width="4" d="m715.332 174.181 11.31 20.445-11.397 6.302M695.275 186.661l-11.249-20.618 11.341-6.362M701.432 161.713l7.441 37.935"/><path fill="#fff" fill-rule="evenodd" d="M666.955 114.382a2.94 2.94 0 0 1 1.238 2.233.823.823 0 0 1-.657.918.66.66 0 0 1-.636-.186c-.747-.479-1.196-1.36-1.238-2.233a.823.823 0 0 1 .657-.918c.175-.055.464.067.636.186m3.622 2.219a2.93 2.93 0 0 1 1.238 2.232c.051.408-.189.811-.598.92q-.35.08-.694-.188c-.748-.479-1.196-1.359-1.239-2.232a.824.824 0 0 1 .657-.918c.176-.055.465.008.636.186m3.624 2.16a2.94 2.94 0 0 1 1.238 2.233c.05.408-.19.81-.657.918a.66.66 0 0 1-.636-.186c-.747-.479-1.196-1.36-1.238-2.233a.823.823 0 0 1 .657-.918c.175-.055.465.008.636.186" clip-rule="evenodd"/><defs><linearGradient id="a" x1="780.966" x2="780.966" y1="970.531" y2="503.95" gradientUnits="userSpaceOnUse"><stop stop-color="#fff" stop-opacity="0"/><stop offset="1" stop-color="#fff"/></linearGradient><linearGradient id="b" x1="639.724" x2="639.724" y1="1050.08" y2="188.816" gradientUnits="userSpaceOnUse"><stop stop-color="#fff" stop-opacity="0"/><stop offset="1" stop-color="#e0e7fd"/></linearGradient><linearGradient id="c" x1="1286.47" x2="1286.47" y1="816.742" y2="350.72" gradientUnits="userSpaceOnUse"><stop stop-color="#fff" stop-opacity="0"/><stop offset="1" stop-color="#fff"/></linearGradient><linearGradient id="d" x1="1215.84" x2="1215.84" y1="896.126" y2="34.899" gradientUnits="userSpaceOnUse"><stop stop-color="#fff" stop-opacity="0"/><stop offset="1" stop-color="#e0e7fd"/></linearGradient><linearGradient id="e" x1="1404.69" x2="1404.69" y1="816.332" y2="350.312" gradientUnits="userSpaceOnUse"><stop stop-color="#fff" stop-opacity="0"/><stop offset="1" stop-color="#fff"/></linearGradient><linearGradient id="f" x1="1334.07" x2="1334.07" y1="896.286" y2="35.063" gradientUnits="userSpaceOnUse"><stop stop-color="#fff" stop-opacity="0"/><stop offset="1" stop-color="#e0e7fd"/></linearGradient><linearGradient id="g" x1="153.532" x2="153.532" y1="880.637" y2="19.409" gradientUnits="userSpaceOnUse"><stop stop-color="#fff" stop-opacity="0"/><stop offset="1" stop-color="#e0e7fd"/></linearGradient><linearGradient id="h" x1="224.155" x2="224.155" y1="801.253" y2="335.23" gradientUnits="userSpaceOnUse"><stop stop-color="#fff" stop-opacity="0"/><stop offset="1" stop-color="#fff"/></linearGradient><linearGradient id="i" x1="35.311" x2="35.311" y1="880.797" y2="19.575" gradientUnits="userSpaceOnUse"><stop stop-color="#fff" stop-opacity="0"/><stop offset="1" stop-color="#e0e7fd"/></linearGradient><linearGradient id="j" x1="105.936" x2="105.936" y1="800.843" y2="334.824" gradientUnits="userSpaceOnUse"><stop stop-color="#fff" stop-opacity="0"/><stop offset="1" stop-color="#fff"/></linearGradient><linearGradient id="k" x1="1078.08" x2="1078.08" y1="776.235" y2="310.447" gradientUnits="userSpaceOnUse"><stop stop-color="#fff" stop-opacity="0"/><stop offset="1" stop-color="#fff"/></linearGradient><linearGradient id="l" x1="936.834" x2="936.834" y1="855.76" y2="-5.38" gradientUnits="userSpaceOnUse"><stop stop-color="#fff" stop-opacity="0"/><stop offset="1" stop-color="#e0e7fd"/></linearGradient><linearGradient id="m" x1="483.865" x2="483.865" y1="776.237" y2="309.951" gradientUnits="userSpaceOnUse"><stop stop-color="#fff" stop-opacity="0"/><stop offset="1" stop-color="#fff"/></linearGradient><linearGradient id="n" x1="342.622" x2="342.622" y1="855.76" y2="-5.38" gradientUnits="userSpaceOnUse"><stop stop-color="#fff" stop-opacity="0"/><stop offset="1" stop-color="#e0e7fd"/></linearGradient><linearGradient id="o" x1="760.276" x2="660.293" y1="180.925" y2="179.078" gradientUnits="userSpaceOnUse"><stop offset=".01" stop-color="#3f4b75"/><stop offset="1" stop-color="#636f99"/></linearGradient></defs></svg>