<svg xmlns="http://www.w3.org/2000/svg" width="1440" height="550" fill="none" viewBox="0 0 1440 550"><path fill="#e4e9f9" d="M1531.34 139.539h-.03c-.2 2.8-2.32 5.716-6.31 8.016l-259.56 143.6c-7.67 4.427-19.27 4.908-25.91 1.074l-93.39-53.924c-3.19-1.842-4.64-4.346-4.45-6.94h-.02v-31.1h46.3l219.59-120.514c7.67-4.426 19.27-4.907 25.91-1.073L1315.13 200.27l216.21-91.823zM1645.5 240.442h-.04c-.2 2.8-2.32 5.716-6.31 8.015l-259.56 143.6c-7.67 4.427-19.27 4.907-25.91 1.074l-93.39-53.921c-3.19-1.842-4.64-4.346-4.45-6.94h-.02v-31.098h46.29l219.6-120.518c7.67-4.426 19.27-4.907 25.91-1.073l-118.34 121.591 216.22-91.823zM1761.47 341.207h-.03c-.2 2.8-2.33 5.716-6.31 8.016l-259.57 143.6c-7.66 4.427-19.26 4.907-25.9 1.073l-93.4-53.923c-3.19-1.842-4.64-4.346-4.45-6.94h-.01v-31.1h46.29l219.6-120.517c7.67-4.426 19.26-4.908 25.9-1.074l-118.33 121.596 216.21-91.826z" opacity=".71"/><path fill="url(#a)" d="M749.215 256.104 1113.54 44.872a50.25 50.25 0 0 1 24.24-6.676c8.52-.134 16.93 1.9 24.44 5.911l131.71 70.931.95-1.76-131.71-70.932a52.25 52.25 0 0 0-25.42-6.144c-8.86.14-17.53 2.53-25.21 6.944L748.215 254.374z"/><path fill="#f5f8fd" d="m1265.31 259.154 259.56-143.591c7.67-4.426 8.5-11.123 1.86-14.956l-93.39-53.917c-6.64-3.834-18.23-3.353-25.9 1.073l-259.56 143.592c-7.67 4.426-8.5 11.123-1.86 14.956l93.39 53.917c6.63 3.833 18.23 3.352 25.9-1.074M1379.46 360.06l259.56-143.591c7.67-4.427 8.5-11.123 1.86-14.956l-93.39-53.917c-6.64-3.833-18.24-3.353-25.9 1.073L1262.03 292.26c-7.67 4.427-8.5 11.123-1.86 14.957l93.39 53.917c6.64 3.834 18.24 3.353 25.9-1.074M1495.44 460.822 1755 317.231c7.67-4.427 8.5-11.123 1.86-14.956l-93.39-53.917c-6.64-3.834-18.24-3.353-25.91 1.073l-259.55 143.591c-7.67 4.427-8.5 11.123-1.86 14.956l93.38 53.918c6.64 3.833 18.24 3.353 25.91-1.074"/><path fill="#e4e9f9" d="m-97.665 108.446 216.212 91.823L.215 78.679c6.641-3.835 18.24-3.354 25.908 1.072L245.715 200.27h46.294v31.091h-.015c.189 2.594-1.258 5.1-4.449 6.94l-93.394 53.924c-6.64 3.834-18.239 3.353-25.908-1.074L-91.323 147.555c-3.983-2.3-6.1-5.211-6.309-8.016h-.034zM-211.817 209.349 4.395 301.172-113.94 179.581c6.64-3.834 18.239-3.353 25.907 1.073l219.594 120.518h46.294v31.091h-.015c.189 2.594-1.258 5.1-4.449 6.94l-93.394 53.924c-6.64 3.833-18.24 3.353-25.908-1.074l-259.565-143.596c-3.983-2.3-6.1-5.211-6.309-8.015h-.034zM-327.793 310.112l216.212 91.826-118.334-121.592c6.64-3.834 18.239-3.352 25.908 1.074L15.587 401.937h46.294v31.092h-.016c.189 2.594-1.258 5.1-4.449 6.94l-93.394 53.923c-6.64 3.834-18.239 3.354-25.907-1.073l-259.565-143.6c-3.984-2.3-6.1-5.211-6.31-8.016h-.033z" opacity=".71"/><path fill="url(#b)" d="M684.462 256.103 320.135 44.871a50.2 50.2 0 0 0-48.672-.765l-131.717 70.931-.949-1.76 131.719-70.932a52.23 52.23 0 0 1 50.623.795l364.326 211.233z"/><path fill="url(#c)" d="M853.283 105.584H791.19l-69.118-39.9c-8.9-5.14-24.451-4.495-34.73 1.444l-66.624 38.46h-62.06v205.06h.021c-.256 3.475 1.687 6.832 5.962 9.3l125.2 72.285c8.9 5.138 24.452 4.495 34.731-1.444l120.208-69.4c5.337-3.08 8.182-6.983 8.458-10.744h.046z"/><path fill="#f2f5fc" d="m689.837 187.176-125.2-72.284c-8.9-5.139-7.783-14.119 2.494-20.05l120.21-69.407c10.279-5.932 25.826-6.576 34.73-1.443l125.2 72.284c8.9 5.139 7.785 14.115-2.494 20.051l-120.208 69.4c-10.279 5.942-25.827 6.585-34.732 1.449"/><path fill="url(#d)" fill-rule="evenodd" d="M808.813 82.098h-2.883c-4.288-10.263-13.362-19.992-27.226-28-40.145-23.178-105.332-23.178-145.476 0-13.865 8.005-22.938 17.734-27.226 28h-2.889v14c0 15.2 10.036 30.407 30.109 42 40.144 23.178 105.331 23.178 145.476 0 20.072-11.589 30.109-26.792 30.108-42z" clip-rule="evenodd"/><path fill="url(#e)" fill-rule="evenodd" d="M778.702 40.102c40.145 23.18 40.145 60.814 0 83.991s-105.332 23.179-145.476 0-40.145-60.812 0-83.99c40.145-23.18 105.331-23.178 145.476 0" clip-rule="evenodd"/><path fill="#ffe06a" fill-rule="evenodd" d="M757.491 52.352c28.435 16.417 28.435 43.076 0 59.493s-74.61 16.418-103.047 0-28.435-43.076 0-59.493 74.611-16.417 103.047 0" clip-rule="evenodd"/><path fill="#fc0" fill-rule="evenodd" d="M754.459 54.101c26.763 15.453 26.763 40.542 0 55.994s-70.221 15.453-96.984 0-26.763-40.54 0-55.994c26.763-15.453 70.221-15.452 96.984 0" clip-rule="evenodd"/><path fill="#fc0" fill-rule="evenodd" d="M774.529 40.102H637.398v42h137.13z" clip-rule="evenodd"/><path fill="#ffe06a" fill-rule="evenodd" d="M754.459 12.105c26.763 15.453 26.763 40.543 0 55.994-26.763 15.45-70.221 15.453-96.984 0s-26.763-40.541 0-55.994 70.221-15.451 96.984 0" clip-rule="evenodd"/><path fill="#fff" d="M669.087 23.94q.73.434 1.528.72c.408.146.831.242 1.26.288.345.036.694.014 1.031-.067q.458-.117.866-.353a1.06 1.06 0 0 0 .623-1.3 7.7 7.7 0 0 0-1.565-2.33 15 15 0 0 1-1.032-1.4 3.5 3.5 0 0 1-.56-1.47 2.4 2.4 0 0 1 .332-1.484 4.3 4.3 0 0 1 1.642-1.448 9 9 0 0 1 2.66-1.007 11.3 11.3 0 0 1 2.966-.213c1.05.065 2.088.255 3.092.566 1.071.33 2.101.781 3.069 1.345.99.537 1.899 1.21 2.7 2 .511.51.948 1.089 1.3 1.719l-4.276 1.147a7.5 7.5 0 0 0-.967-1.337 7.6 7.6 0 0 0-1.885-1.427 6.9 6.9 0 0 0-2.444-.954 2.83 2.83 0 0 0-1.832.337 1.2 1.2 0 0 0-.587.6c-.065.239-.047.493.052.72q.185.452.483.838.332.44.764.955.76.936 1.388 1.963c.32.492.504 1.06.534 1.646 0 .542-.194 1.065-.547 1.477a6.5 6.5 0 0 1-1.832 1.44 9.57 9.57 0 0 1-5.563 1.214 15.4 15.4 0 0 1-6.581-2.227 17.5 17.5 0 0 1-1.974-1.3 13 13 0 0 1-1.324-1.162 7.4 7.4 0 0 1-.815-.97 6 6 0 0 1-.445-.757l4.278-1.176a7 7 0 0 0 1.17 1.573 11 11 0 0 0 2.495 1.837zM706.286 28.543l-3.386 1.954-5.321-3.072-14.256 8.232-3.971-2.293 14.256-8.231-5.321-3.073 3.386-1.954zM700.936 45.828q.626-.7 1.256-1.456l1.256-1.5-6.892-3.978-2.6.73a151 151 0 0 0-2.508.725l-4.124-2.381a625 625 0 0 1 7.158-1.951 382 382 0 0 1 6.307-1.621q2.995-.741 5.746-1.371t5.479-1.173l3.764 2.174a88 88 0 0 1-2.041 3.157 95 95 0 0 1-2.36 3.326 133 133 0 0 1-2.8 3.642 218 218 0 0 1-3.377 4.136l-4.254-2.456zm8.875-10.633a67 67 0 0 1-1.435.379q-.916.234-2.11.546-1.2.312-2.642.68t-3.007.789l5.045 2.913q.745-.9 1.408-1.72.664-.818 1.192-1.52.526-.698.929-1.228.402-.53.623-.84zM730.469 42.27q3.973 2.293 4.672 4.329.7 2.036-2.278 3.756a9.3 9.3 0 0 1-3.871 1.248c-1.435.11-2.88-.014-4.276-.366a12 12 0 0 1-.4 1.52q-.267.83-.624 1.7t-.827 1.758-.98 1.712l-4.439-2.563q.38-.78.772-1.582.394-.802.709-1.59.317-.788.555-1.517.228-.674.341-1.376l-1.96-1.132-6.441 3.719-3.973-2.293 17.394-10.042q1.553.6 3.042 1.345 1.49.745 2.584 1.375m-3.156 2.088a16 16 0 0 0-.8-.434q-.37-.184-.7-.346l-4.786 2.763 1.119.647a11.5 11.5 0 0 0 3.769 1.529 4.3 4.3 0 0 0 2.876-.543q1.3-.75.866-1.633a5.85 5.85 0 0 0-2.344-1.983M754.911 56.617l-3.386 1.954-5.321-3.071-14.256 8.23-3.971-2.292 14.256-8.231-5.321-3.073 3.386-1.954z"/><path fill="#f5f8fd" d="m194.271 260.228 93.387-53.918c6.639-3.833 5.809-10.531-1.861-14.957L26.241 47.763c-7.668-4.426-19.266-4.907-25.9-1.073l-93.393 53.92c-6.64 3.833-5.809 10.53 1.86 14.956l259.558 143.588c7.666 4.426 19.265 4.907 25.905 1.074M80.12 361.134l93.388-53.922c6.639-3.834 5.809-10.53-1.86-14.957L-87.909 148.669c-7.668-4.426-19.266-4.906-25.9-1.073l-93.393 53.916c-6.64 3.833-5.809 10.529 1.86 14.956L54.215 360.06c7.667 4.427 19.266 4.908 25.906 1.074M-35.855 461.896l93.387-53.918c6.64-3.833 5.81-10.529-1.86-14.956l-259.558-143.591c-7.667-4.426-19.266-4.907-25.905-1.073l-93.388 53.917c-6.64 3.833-5.809 10.529 1.86 14.956l259.56 143.591c7.665 4.427 19.265 4.907 25.904 1.074"/><path fill="url(#f)" d="M-391.5 84.703h2329v465h-2329z"/><defs><linearGradient id="a" x1="-937.162" x2="-390.495" y1="146.15" y2="146.15" gradientUnits="userSpaceOnUse"><stop stop-color="#a0cce0"/><stop offset="1" stop-color="#69a1e3"/></linearGradient><linearGradient id="b" x1="138.797" x2="685.465" y1="36.191" y2="36.191" gradientUnits="userSpaceOnUse"><stop stop-color="#a0cce0"/><stop offset="1" stop-color="#69a1e3"/></linearGradient><linearGradient id="c" x1="-222.401" x2="-222.401" y1="608.8" y2="610.134" gradientUnits="userSpaceOnUse"><stop stop-color="#fff"/><stop offset="1" stop-color="#c8cede"/></linearGradient><linearGradient id="d" x1="499.646" x2="1252.24" y1="111.301" y2="-55.085" gradientUnits="userSpaceOnUse"><stop stop-color="#a0cce0"/><stop offset="1" stop-color="#69a1e3"/></linearGradient><linearGradient id="e" x1="603.117" x2="808.81" y1="22.719" y2="22.719" gradientUnits="userSpaceOnUse"><stop stop-color="#a0cce0"/><stop offset="1" stop-color="#69a1e3"/></linearGradient><linearGradient id="f" x1="773" x2="773" y1="84.703" y2="549.703" gradientUnits="userSpaceOnUse"><stop stop-color="#fcfcfc" stop-opacity="0"/><stop offset="1" stop-color="#fcfcfc"/></linearGradient></defs></svg>