<svg xmlns="http://www.w3.org/2000/svg" width="67" height="80" fill="none" viewBox="0 0 67 80"><path fill="#fff" fill-rule="evenodd" d="m11.414 74.698 8.107 4.7a1.11 1.11 0 0 1-.326-1.148l3.85-22.057a2.33 2.33 0 0 0-.73-2.498L14.207 49l-.13-.074c.985.587 1.01 1.518.857 2.567l-3.837 22.052a1.1 1.1 0 0 0 .317 1.153" clip-rule="evenodd"/><path fill="#1b69ff" fill-rule="evenodd" d="m11.68 74.27 6.998 4.052c0-.056.018-.108.018-.147l3.85-22.069c.154-1.049 0-1.644-.516-1.985l-6.543-3.788q.046.624-.056 1.243l-3.838 22.056c-.069.431 0 .565.086.634zm7.84 5.636a.53.53 0 0 1-.257-.074l-8.095-4.695-.043-.026a1.6 1.6 0 0 1-.529-1.635l3.837-22.07c.168-1.134.013-1.67-.615-2.045a.505.505 0 0 1-.185-.682.52.52 0 0 1 .683-.2l.129.074 8.124 4.708a2.87 2.87 0 0 1 .97 3.012l-3.848 22.065c-.056.452.012.578.11.643a.505.505 0 0 1-.28.925M38.193 16.23l8.112 4.698a1.83 1.83 0 0 0 1.611-.1l17.43-8.203a.83.83 0 0 1 .813-.013l-8.111-4.7a.81.81 0 0 0-.794.017l-17.449 8.203a1.83 1.83 0 0 1-1.612.097" clip-rule="evenodd"/><path fill="#1b69ff" fill-rule="evenodd" d="m39.903 16.639 6.643 3.853a1.35 1.35 0 0 0 1.17-.126l17.004-7.995-6.913-4.018c-.07-.034-.116-.061-.356.042l-17.43 8.196a1 1 0 0 1-.117.047m7.056 4.95a2.1 2.1 0 0 1-.868-.2l-8.154-4.724a.5.5 0 0 1-.185-.67.507.507 0 0 1 .657-.233 1.3 1.3 0 0 0 1.2-.1l17.43-8.195a1.32 1.32 0 0 1 1.267 0l8.112 4.704a.526.526 0 0 1 .185.691.52.52 0 0 1-.701.19c-.056-.04-.1-.065-.353.038l-17.42 8.197c-.365.18-.764.282-1.171.298zM19.095 28.13 1.647 40.14c-.37.262-.666.616-.856 1.029-.258.535-.528 1.454.043 1.894l8.112 4.695c-.602-.453-.29-1.454 0-1.994.195-.365.473-.679.811-.915l17.444-12.01a6.07 6.07 0 0 0 2.238-3.19l6.956-22.692c.24-.678 1.156-2.131 2.066-1.644L30.355.6c-.893-.48-1.825.95-2.053 1.64l-6.956 22.695a6.17 6.17 0 0 1-2.25 3.196" clip-rule="evenodd"/><path fill="#1b69ff" fill-rule="evenodd" d="M29.982 1.014a.4.4 0 0 0-.154.035 2.5 2.5 0 0 0-1.04 1.355L21.815 25.09a6.6 6.6 0 0 1-2.423 3.456h-.013L1.931 40.557a2.2 2.2 0 0 0-.695.842c-.215.461-.343 1.062-.1 1.25l6.983 4.04c.059-.411.19-.809.387-1.174.229-.432.555-.805.954-1.087l17.461-12.02a5.47 5.47 0 0 0 2.037-2.934l6.973-22.682a4.2 4.2 0 0 1 1.152-1.708l-6.97-4.048a.3.3 0 0 0-.129-.026zM8.947 48.264a.5.5 0 0 1-.258-.069l-8.112-4.7c-.683-.518-.755-1.454-.24-2.542.23-.484.576-.903 1.01-1.216l17.448-12.015a5.57 5.57 0 0 0 2.065-2.939l6.957-22.681A3.5 3.5 0 0 1 29.458.108a1.33 1.33 0 0 1 1.139.042l8.124 4.713a.51.51 0 0 1-.496.889.29.29 0 0 0-.27-.013 2.6 2.6 0 0 0-1.07 1.377l-6.957 22.673a6.57 6.57 0 0 1-2.437 3.453L10.044 45.261a2.06 2.06 0 0 0-.657.747c-.254.498-.397 1.147-.142 1.346a.513.513 0 0 1-.063.85.5.5 0 0 1-.234.061z" clip-rule="evenodd"/><path fill="#fff" fill-rule="evenodd" d="M27.19 32.83 9.76 44.84c-1.114.764-1.556 2.646-.714 2.965l13.14 5.822c.76.337 1.07 1.282.858 2.563l-3.847 22.057c-.228 1.39.91 1.695 1.886.491l15.08-19.091a3.43 3.43 0 0 1 2.763-1.61l15.08 1.619c.955.1 2.11-1.546 1.87-2.658l-3.824-17.622a5.05 5.05 0 0 1 .868-3.55L66.063 14.77c.838-1.334.387-2.658-.713-2.14l-17.43 8.203a1.538 1.538 0 0 1-2.256-.587L38.725 5.608c-.442-.924-1.886-.091-2.311 1.337l-6.97 22.695a6.15 6.15 0 0 1-2.254 3.19" clip-rule="evenodd"/><path fill="#1b69ff" fill-rule="evenodd" d="M27.46 33.26 10.043 45.268a2.25 2.25 0 0 0-.924 1.842c0 .057.026.2.099.23l13.168 5.825c.985.44 1.41 1.605 1.157 3.116l-3.85 22.052c-.073.406.03.604.1.639.116.047.472-.022.884-.549l15.08-19.091a3.88 3.88 0 0 1 3.222-1.795l15.077 1.618a1.08 1.08 0 0 0 .743-.44 2.1 2.1 0 0 0 .585-1.61l-3.82-17.62a5.47 5.47 0 0 1 .923-3.931l13.144-21.05c.455-.722.397-1.297.27-1.443-.068-.081-.252-.008-.326.031L48.13 21.286a2.04 2.04 0 0 1-2.922-.816l-6.94-14.647c-.06-.1-.086-.108-.159-.1a1.86 1.86 0 0 0-1.212 1.368l-6.969 22.696a6.62 6.62 0 0 1-2.466 3.47zm-7.583 46.742c-.17 0-.34-.033-.497-.1a1.47 1.47 0 0 1-.682-1.735l3.849-22.056c.168-1.027-.03-1.778-.572-2.016L8.832 48.278a1.19 1.19 0 0 1-.713-1.044 3.26 3.26 0 0 1 1.353-2.806l17.435-12.01a.1.1 0 0 1 .043-.018 5.7 5.7 0 0 0 2.006-2.908l6.973-22.69c.122-.512.384-.979.757-1.347a2.8 2.8 0 0 1 1.353-.738 1.11 1.11 0 0 1 1.138.677l6.949 14.634c.099.207.437.876 1.58.35l17.431-8.204a1.24 1.24 0 0 1 1.526.212 2.32 2.32 0 0 1-.172 2.658L53.347 36.09a4.56 4.56 0 0 0-.8 3.18l3.82 17.617a3.12 3.12 0 0 1-.811 2.504 1.96 1.96 0 0 1-1.611.771l-15.068-1.618a3 3 0 0 0-2.325 1.416L21.459 79.057a2.14 2.14 0 0 1-1.582.945" clip-rule="evenodd"/><path fill="#fff" fill-rule="evenodd" d="M27.918 32.223a6.5 6.5 0 0 0 1.526-2.586l6.968-22.694c.215-.682 1.156-2.124 2.054-1.64L30.356.6c-.859-.462-1.769.863-2.01 1.514l-6.998 22.82a6.6 6.6 0 0 1-1.526 2.585z" clip-rule="evenodd"/><path fill="#1b69ff" fill-rule="evenodd" d="m20.604 27.396 7.215 4.182c.522-.61.91-1.323 1.138-2.094L35.93 6.802a3.93 3.93 0 0 1 1.152-1.705l-6.97-4.052a.34.34 0 0 0-.258 0 2.5 2.5 0 0 0-1.039 1.26l-6.997 22.787a7 7 0 0 1-1.212 2.304zm7.313 5.334a.45.45 0 0 1-.24-.065l-8.112-4.704a.51.51 0 0 1-.223-.59.5.5 0 0 1 .112-.195 6.1 6.1 0 0 0 1.408-2.393l7-22.808A3.4 3.4 0 0 1 29.497.094a1.32 1.32 0 0 1 1.1.065l8.124 4.709a.51.51 0 0 1-.496.888.3.3 0 0 0-.288-.008c-.493.32-.864.8-1.052 1.359L29.93 29.794a6.9 6.9 0 0 1-1.641 2.784.5.5 0 0 1-.372.152" clip-rule="evenodd"/></svg>