<svg xmlns="http://www.w3.org/2000/svg" width="52" height="69" fill="none" viewBox="0 0 52 69"><path fill="#345be4" fill-rule="evenodd" d="m40.838 50.206-9.947-5.746V6.84l9.947 5.746z" clip-rule="evenodd"/><path fill="#345be4" fill-rule="evenodd" d="m31.392 44.172 8.958 5.173V12.873L31.392 7.7zm9.447 6.53a.45.45 0 0 1-.237-.067L30.64 44.89a.49.49 0 0 1-.236-.43V6.839a.49.49 0 0 1 .236-.433.5.5 0 0 1 .5 0l9.952 5.746a.5.5 0 0 1 .248.43v37.62a.5.5 0 0 1-.248.433.6.6 0 0 1-.252.067" clip-rule="evenodd"/><path fill="#d3e5fb" fill-rule="evenodd" d="M40.838 12.585 30.891 6.84l10.018-5.788 9.948 5.746z" clip-rule="evenodd"/><path fill="#345be4" fill-rule="evenodd" d="m31.88 6.84 8.957 5.173 9.038-5.215-8.967-5.173zm8.957 6.243a.4.4 0 0 1-.236-.067l-9.963-5.747a.506.506 0 0 1 0-.86L40.669.622a.48.48 0 0 1 .489 0l9.948 5.747a.492.492 0 0 1 0 .86L41.09 13.014a.5.5 0 0 1-.254.068M30.818 55.994l-9.947-5.747V21.555l9.947 5.746z" clip-rule="evenodd"/><path fill="#345be4" fill-rule="evenodd" d="m21.359 49.963 8.958 5.177V27.589l-8.958-5.173zm9.458 6.53a.54.54 0 0 1-.248-.068l-9.951-5.745a.5.5 0 0 1-.249-.434V21.554a.5.5 0 0 1 .248-.426.47.47 0 0 1 .489 0l9.963 5.746a.48.48 0 0 1 .236.426v28.693a.49.49 0 0 1-.236.433.6.6 0 0 1-.252.064z" clip-rule="evenodd"/><path fill="#d3e5fb" fill-rule="evenodd" d="m30.818 27.3-9.947-5.746 10.02-5.784 9.947 5.746z" clip-rule="evenodd"/><path fill="#345be4" fill-rule="evenodd" d="m21.865 21.554 8.952 5.177 9.026-5.215-8.953-5.174zm8.952 6.244a.5.5 0 0 1-.248-.068l-9.951-5.746a.5.5 0 0 1-.249-.43.5.5 0 0 1 .248-.426l10.02-5.788a.5.5 0 0 1 .5 0l9.953 5.746a.492.492 0 0 1 0 .855L31.07 27.73a.5.5 0 0 1-.253.067" clip-rule="evenodd"/><path fill="#fff" fill-rule="evenodd" d="M30.818 55.993V27.3l10.02-5.784v28.693z" clip-rule="evenodd"/><path fill="#345be4" fill-rule="evenodd" d="M31.306 27.586v27.547l9.042-5.215V22.371zm-.489 28.904a.54.54 0 0 1-.248-.068.5.5 0 0 1-.253-.433V27.296a.49.49 0 0 1 .253-.425l10.033-5.79a.48.48 0 0 1 .488 0 .5.5 0 0 1 .249.434v28.693a.5.5 0 0 1-.249.426l-10.02 5.788a.6.6 0 0 1-.253.068" clip-rule="evenodd"/><path fill="#fff" fill-rule="evenodd" d="M40.838 50.21V12.586l10.018-5.79v37.62z" clip-rule="evenodd"/><path fill="#345be4" fill-rule="evenodd" d="M41.34 12.874v36.478l9.025-5.22V7.66l-9.025 5.216zm-.501 37.83a.4.4 0 0 1-.236-.067.47.47 0 0 1-.253-.426V12.585a.47.47 0 0 1 .252-.433l10.016-5.788a.5.5 0 0 1 .488 0 .5.5 0 0 1 .253.43v37.62a.5.5 0 0 1-.253.433l-10.015 5.788a.5.5 0 0 1-.252.069" clip-rule="evenodd"/><path fill="#d3e5fb" fill-rule="evenodd" d="m30.818 36.23-9.947-5.746-10.02 5.785 9.948 5.746z" clip-rule="evenodd"/><path fill="#345be4" fill-rule="evenodd" d="m11.832 36.268 8.966 5.178 9.03-5.215-8.957-5.177zm8.966 6.244a.43.43 0 0 1-.248-.068l-9.948-5.746a.489.489 0 0 1 0-.855l10.015-5.788a.48.48 0 0 1 .488 0L31.07 35.8a.51.51 0 0 1 0 .86l-10.032 5.784a.44.44 0 0 1-.239.067" clip-rule="evenodd"/><path fill="#345be4" fill-rule="evenodd" d="m20.799 42.016-9.947-5.746v19.766l9.947 5.746z" clip-rule="evenodd"/><path fill="#345be4" fill-rule="evenodd" d="m11.344 55.749 8.953 5.173v-18.62l-8.953-5.174zm9.455 6.525a.43.43 0 0 1-.249-.067l-9.948-5.742a.5.5 0 0 1-.252-.433V36.265a.49.49 0 0 1 .252-.425.48.48 0 0 1 .49 0l9.947 5.747a.5.5 0 0 1 .253.425v19.766a.49.49 0 0 1-.253.425.44.44 0 0 1-.24.07" clip-rule="evenodd"/><path fill="#fff" fill-rule="evenodd" d="M30.818 55.997V36.233l-10.02 5.785v19.765z" clip-rule="evenodd"/><path fill="#345be4" fill-rule="evenodd" d="M21.293 42.305v18.62l9.025-5.216v-18.62zM20.8 62.277a.43.43 0 0 1-.248-.067.49.49 0 0 1-.253-.426V42.02a.5.5 0 0 1 .253-.434l10.018-5.784a.5.5 0 0 1 .501 0 .49.49 0 0 1 .236.433v19.762a.49.49 0 0 1-.236.434L21.04 62.214a.44.44 0 0 1-.24.063" clip-rule="evenodd"/><path fill="#d3e5fb" fill-rule="evenodd" d="m20.8 50.95-9.947-5.747L.826 50.987l9.948 5.75z" clip-rule="evenodd"/><path fill="#345be4" fill-rule="evenodd" d="m1.813 50.987 8.958 5.173 9.038-5.21-8.958-5.178zm8.958 6.244a.44.44 0 0 1-.24-.068L.583 51.418a.49.49 0 0 1-.253-.434.5.5 0 0 1 .253-.425L10.6 44.769a.48.48 0 0 1 .49 0l9.946 5.747a.5.5 0 0 1 .253.434.51.51 0 0 1-.253.43l-10.019 5.783a.47.47 0 0 1-.247.068" clip-rule="evenodd"/><path fill="#345be4" fill-rule="evenodd" d="m10.77 56.735-9.948-5.75v10.838l9.948 5.747z" clip-rule="evenodd"/><path fill="#345be4" fill-rule="evenodd" d="m1.325 61.54 8.953 5.173v-9.694l-8.953-5.173zm9.446 6.525a.5.5 0 0 1-.24-.064L.583 62.255a.51.51 0 0 1-.253-.433V50.988a.505.505 0 0 1 .497-.492q.13 0 .245.066l9.947 5.747a.5.5 0 0 1 .252.434v10.833a.497.497 0 0 1-.5.492z" clip-rule="evenodd"/><path fill="#fff" fill-rule="evenodd" d="M20.799 61.783V50.949l-10.027 5.789V67.57z" clip-rule="evenodd"/><path fill="#345be4" fill-rule="evenodd" d="M11.274 57.023v9.69l9.025-5.216v-9.694zm-.502 11.041a.5.5 0 0 1-.24-.063.51.51 0 0 1-.253-.43V56.738a.5.5 0 0 1 .253-.434l10.02-5.788a.48.48 0 0 1 .488 0 .5.5 0 0 1 .252.433v10.833a.5.5 0 0 1-.253.426L11.02 68a.5.5 0 0 1-.248.063" clip-rule="evenodd"/></svg>