<svg xmlns="http://www.w3.org/2000/svg" width="106" height="115" fill="none" viewBox="0 0 106 115"><g clip-path="url(#a)"><mask id="b" width="106" height="115" x="0" y="0" maskUnits="userSpaceOnUse" style="mask-type:luminance"><path fill="#fff" d="M106 0H0v115h106z"/></mask><g mask="url(#b)"><path stroke="#1b69ff" stroke-width="1.5" d="m73.976 74.672-46.58 27.013c-3.74 2.17-6.771 1.379-6.771-1.765V51.865c0-3.144 3.031-7.449 6.771-9.619l46.58-27.013c3.738-2.168 6.769-1.379 6.769 1.765v48.057c0 3.143-3.031 7.448-6.769 9.617Z"/><path stroke="#1b69ff" stroke-width="1.5" d="m61.224 66.413-46.58 27.013c-3.74 2.17-6.769 1.379-6.769-1.765V43.606c0-3.144 3.03-7.45 6.769-9.62l46.58-27.012c3.74-2.168 6.771-1.38 6.771 1.765v48.057c0 3.142-3.031 7.449-6.771 9.617Z" opacity=".44"/><mask id="c" width="116" height="100" x="34" y="26" maskUnits="userSpaceOnUse" style="mask-type:luminance"><path fill="#fff" d="M34.758 105.245V54.163l51.465-28.067s30.752 7.583 31.511 8.09 32.115 56.439 32.115 57.174-33.885 25.769-36.413 26.527-71.312 7.333-71.312 7.333"/></mask><g mask="url(#c)"><path fill="#fff" d="M52.569 105.842c-1.587 0-3.067-.35-4.168-.986L16.865 86.649c-.936-.54-1.467-1.222-1.494-1.92l-.012-.309V70.022l30.371-4.053.164-.021.14-.089 2.214-1.406c1.1-.631 2.574-.978 4.154-.978 1.587 0 3.068.35 4.17.986l14.305 8.26.221.128.253-.034L89.61 70.38l.005 13.964-.015.358c-.03.695-.56 1.375-1.492 1.914l-31.372 18.243c-1.099.634-2.579.984-4.166.984"/><path fill="#2e3033" d="M52.402 64.225c-1.423 0-2.794.317-3.767.87l-2.2 1.397c-.183.117-.39.192-.605.22L16.11 70.68v13.885q.008.067.01.136c.017.418.435.904 1.12 1.3l31.536 18.207c.974.563 2.357.885 3.793.885s2.819-.322 3.79-.883l31.373-18.243c.682-.395 1.1-.88 1.118-1.297q.003-.08.014-.156l-.004-13.277-17.41 2.323a1.5 1.5 0 0 1-.948-.188l-14.305-8.26c-.976-.564-2.359-.886-3.795-.886m0-1.5c1.645 0 3.29.362 4.544 1.086l14.306 8.261 19.107-2.55.005 15.209-.016.002c-.039.918-.653 1.83-1.866 2.531l-31.37 18.242c-2.508 1.449-6.578 1.449-9.086 0L16.49 87.298c-1.219-.703-1.832-1.618-1.868-2.54l-.013.001V69.365l31.022-4.139 2.229-1.415c1.254-.724 2.898-1.086 4.542-1.086"/><path fill="url(#d)" d="M88.48 66.786 56.941 48.579a10.04 10.04 0 0 0-9.087 0L16.484 66.82c-2.51 1.449-2.51 3.8 0 5.245L48.02 90.274a10.04 10.04 0 0 0 9.087 0l31.37-18.242c2.511-1.45 2.511-3.8.003-5.246"/><path fill="#fff" d="M87.594 66.85 56.831 49.09a9.8 9.8 0 0 0-8.864 0l-30.6 17.795c-2.448 1.413-2.448 3.7 0 5.117l30.761 17.76a9.8 9.8 0 0 0 8.864 0l30.6-17.792c2.45-1.414 2.45-3.706.002-5.12"/><path fill="#2e3033" d="M52.402 49.221a7.6 7.6 0 0 1 3.68.855l31.535 18.208c.751.434 1.017.878 1.017 1.126s-.266.692-1.02 1.129l-31.37 18.237c-1.136.59-2.401.883-3.68.855a7.6 7.6 0 0 1-3.679-.855L17.35 70.568c-.75-.434-1.017-.878-1.017-1.126s.266-.692 1.022-1.128l31.364-18.24a7.6 7.6 0 0 1 3.68-.855m0-1.729a9.3 9.3 0 0 0-4.544 1.087l-31.37 18.242c-2.51 1.449-2.51 3.8 0 5.245L48.02 90.272a9.3 9.3 0 0 0 4.543 1.087 9.3 9.3 0 0 0 4.544-1.087l31.37-18.242c2.51-1.449 2.51-3.8 0-5.246L56.943 48.579a9.3 9.3 0 0 0-4.544-1.087z"/><path fill="#393939" d="m61.352 94.308-1.493.862v-1.724l1.493-.862zM64.477 92.505l-1.493.862v-1.724l1.493-.862zM67.602 90.703l-1.493.861v-1.723l1.493-.862zM65.048 95.67l-1.493.861v-1.724l1.493-.862zM67.798 94.081l-1.493.862V93.22l1.493-.862zM77.618 84.917l-1.493.862v-1.724l1.493-.862zM86.22 79.95l-1.493.863v-1.724l1.493-.862zM70.72 88.898l-1.493.862v-1.724l1.493-.862z"/><path fill="#fff" d="M52.569 83.909c-1.587 0-3.067-.35-4.168-.986L16.865 64.717c-.936-.541-1.467-1.223-1.494-1.92l-.012-.308V48.09l30.371-4.052.164-.022.14-.089 2.214-1.408c1.1-.63 2.574-.978 4.154-.978 1.587 0 3.068.35 4.17.986l14.305 8.26.221.129.253-.034 18.258-2.437.005 13.964-.015.358c-.03.697-.56 1.377-1.492 1.914L56.736 82.924c-1.099.635-2.579.985-4.166.985"/><path fill="#2e3033" d="M52.402 42.291c-1.423 0-2.794.317-3.767.87l-2.478 1.576-30.048 4.01v13.728l.012.293c.016.418.435.904 1.119 1.3l31.536 18.205c.974.563 2.357.886 3.793.886s2.819-.323 3.79-.883L87.732 64.03c.681-.393 1.099-.877 1.117-1.296l.014-.342-.004-13.09-17.916 2.39-14.747-8.516c-.976-.563-2.359-.886-3.795-.886m0-1.5c1.645 0 3.29.362 4.544 1.087l14.306 8.26 19.107-2.55.005 15.21-.016.001c-.039.919-.653 1.832-1.866 2.532l-31.37 18.241c-2.508 1.45-6.578 1.45-9.086 0L16.49 65.366c-1.219-.704-1.832-1.62-1.868-2.54l-.013.002V47.434l31.022-4.14 2.229-1.416c1.254-.725 2.898-1.087 4.542-1.087"/><path fill="url(#e)" d="M88.48 44.85 56.941 26.645a10.04 10.04 0 0 0-9.087 0l-31.37 18.24c-2.51 1.45-2.51 3.8 0 5.247L48.02 68.34a10.04 10.04 0 0 0 9.087 0l31.37-18.242c2.511-1.449 2.511-3.799.003-5.248"/><path fill="#fff" d="M87.594 44.917 56.831 27.155a9.8 9.8 0 0 0-8.864 0l-30.6 17.794c-2.448 1.413-2.448 3.7 0 5.12l30.761 17.76a9.8 9.8 0 0 0 8.864 0l30.6-17.795c2.45-1.413 2.45-3.705.002-5.117"/><path fill="#2e3033" d="M52.402 27.287a7.6 7.6 0 0 1 3.68.855L87.616 46.35c.751.434 1.017.878 1.017 1.126s-.266.692-1.02 1.128l-31.37 18.237c-1.136.59-2.401.885-3.68.855a7.6 7.6 0 0 1-3.679-.855L17.35 48.635c-.75-.434-1.017-.878-1.017-1.126s.266-.692 1.022-1.129l31.364-18.238a7.6 7.6 0 0 1 3.68-.855m0-1.729a9.3 9.3 0 0 0-4.544 1.087l-31.37 18.24c-2.51 1.45-2.51 3.8 0 5.247L48.02 68.34a9.3 9.3 0 0 0 4.543 1.085 9.3 9.3 0 0 0 4.544-1.085l31.37-18.242c2.51-1.449 2.51-3.8 0-5.247L56.943 26.645a9.3 9.3 0 0 0-4.544-1.087zM61.352 72.375l-1.493.862v-1.725l1.493-.862zM64.477 70.572l-1.493.862V69.71l1.493-.862zM67.602 68.769l-1.493.862v-1.724l1.493-.862zM65.048 73.736l-1.493.862v-1.724l1.493-.862zM67.798 72.148l-1.493.862v-1.724l1.493-.862zM77.618 62.984l-1.493.862v-1.724l1.493-.862zM86.22 58.017l-1.493.862v-1.724l1.493-.862zM70.72 66.964l-1.493.862v-1.724l1.493-.862z"/></g></g></g><defs><radialGradient id="d" cx="0" cy="0" r="1" gradientTransform="matrix(119.268 0 0 119.278 75.21 44.597)" gradientUnits="userSpaceOnUse"><stop stop-color="#01c8ef"/><stop offset=".14" stop-color="#03bae4"/><stop offset=".403" stop-color="#0895c7"/><stop offset=".76" stop-color="#105a99"/><stop offset="1" stop-color="#172f78"/></radialGradient><radialGradient id="e" cx="0" cy="0" r="1" gradientTransform="matrix(119.268 0 0 119.278 75.21 22.663)" gradientUnits="userSpaceOnUse"><stop stop-color="#01c8ef"/><stop offset=".14" stop-color="#03bae4"/><stop offset=".403" stop-color="#0895c7"/><stop offset=".76" stop-color="#105a99"/><stop offset="1" stop-color="#172f78"/></radialGradient><clipPath id="a"><path fill="#fff" d="M0 0h106v115H0z"/></clipPath></defs></svg>