<svg xmlns="http://www.w3.org/2000/svg" width="58" height="67" fill="none" viewBox="0 0 58 67"><path fill="#2b1f51" d="m44.33 51.901 12.506-6.915-12.4-7.457-13.159 6.84z"/><path fill="#2b1f51" d="M44.333 52.401a.5.5 0 0 1-.25-.067l-13.052-7.53a.5.5 0 0 1 .02-.878l13.16-6.84a.5.5 0 0 1 .487.015l12.4 7.457a.5.5 0 0 1-.016.866l-12.506 6.914a.5.5 0 0 1-.243.063m-12.012-8.008 12.017 6.934 11.5-6.359-11.416-6.866z"/><path fill="#fff" d="m47.922 12.619-8.233 4.785-8.287-4.785 8.233-4.785z"/><path fill="#2b1f51" d="M39.696 17.904a.5.5 0 0 1-.25-.067l-8.287-4.784a.5.5 0 0 1 0-.865l8.234-4.785a.5.5 0 0 1 .5 0l8.286 4.785a.5.5 0 0 1 0 .865l-8.233 4.784a.5.5 0 0 1-.25.067m-7.289-5.286 7.288 4.208 7.237-4.2-7.288-4.208z"/><path fill="#d4e6fc" d="m47.921 12.621-.122 31.75-8.233 4.785.122-31.75z"/><path fill="#2b1f51" d="M39.566 49.655a.51.51 0 0 1-.433-.251.5.5 0 0 1-.067-.251l.122-31.75a.5.5 0 0 1 .25-.43l8.232-4.784a.5.5 0 0 1 .751.434l-.12 31.75a.5.5 0 0 1-.25.43l-8.234 4.784a.5.5 0 0 1-.25.068m.621-31.962-.118 30.59 7.232-4.2.117-30.59z"/><path fill="#fff" d="m39.694 17.403-.122 31.75-8.287-4.784.121-31.75z"/><path fill="#2b1f51" d="M39.568 49.653a.5.5 0 0 1-.25-.067l-8.287-4.784a.5.5 0 0 1-.25-.435l.122-31.75a.5.5 0 0 1 .75-.43l8.287 4.783a.5.5 0 0 1 .25.435l-.122 31.75a.5.5 0 0 1-.5.498m-7.786-5.572 7.29 4.208.117-30.6-7.294-4.21zM19.319 65.731l12.506-6.915-12.4-7.457-13.16 6.84z"/><path fill="#2b1f51" d="M19.32 66.231a.5.5 0 0 1-.25-.067L6.02 58.632a.5.5 0 0 1 .02-.877l13.158-6.84a.5.5 0 0 1 .488.016l12.4 7.456a.499.499 0 0 1-.016.866L19.564 66.17a.5.5 0 0 1-.244.062M7.31 58.222l12.016 6.935 11.5-6.359-11.416-6.866z"/><path fill="#2b1f51" d="m31.826 58.817 12.507-6.915-12.4-7.457-13.16 6.84z"/><path fill="#2b1f51" d="M31.826 59.317a.5.5 0 0 1-.25-.067l-13.053-7.532a.5.5 0 0 1 .02-.877l13.16-6.84a.5.5 0 0 1 .488.016l12.4 7.456a.499.499 0 0 1-.017.866L32.07 59.254a.5.5 0 0 1-.244.063m-12.012-8.009 12.017 6.935 11.5-6.359-11.417-6.866z"/><path fill="#fff" d="m35.415 31.296-8.233 4.785-8.287-4.784 8.233-4.785z"/><path fill="#2b1f51" d="M27.18 36.58a.5.5 0 0 1-.25-.067l-8.286-4.785a.5.5 0 0 1 0-.865l8.234-4.784a.5.5 0 0 1 .5 0l8.286 4.784a.5.5 0 0 1 0 .865l-8.233 4.785a.5.5 0 0 1-.25.067m-7.288-5.286 7.288 4.208 7.237-4.206-7.288-4.208z"/><path fill="#d4e6fc" d="m35.418 31.295-.123 19.984-8.233 4.785.121-19.988z"/><path fill="#2b1f51" d="M27.063 56.568a.5.5 0 0 1-.5-.5l.122-19.988a.5.5 0 0 1 .248-.43l8.234-4.784a.5.5 0 0 1 .75.435l-.12 19.988a.5.5 0 0 1-.25.43l-8.233 4.784a.5.5 0 0 1-.252.065m.62-20.2-.116 18.828 7.231-4.2.114-18.828z"/><path fill="#fff" d="m27.181 36.078-.12 19.988-8.288-4.785.121-19.988z"/><path fill="#2b1f51" d="M27.06 56.568a.5.5 0 0 1-.25-.067l-8.287-4.785a.5.5 0 0 1-.25-.436l.122-19.987a.5.5 0 0 1 .75-.431l8.287 4.784a.5.5 0 0 1 .25.437L27.56 56.07a.5.5 0 0 1-.5.5zm-7.784-5.572 7.29 4.209.114-18.838-7.29-4.21z"/><path fill="#fff" d="m22.912 47.879-8.233 4.785-8.284-4.785 8.233-4.785z"/><path fill="#2b1f51" d="M14.678 53.165a.5.5 0 0 1-.25-.067L6.14 48.313a.5.5 0 0 1 0-.865l8.234-4.785a.5.5 0 0 1 .5 0l8.286 4.785a.5.5 0 0 1 0 .865l-8.232 4.785a.5.5 0 0 1-.25.067m-7.29-5.287 7.289 4.209 7.236-4.206-7.288-4.208z"/><path fill="#d4e6fc" d="m22.91 47.88-.121 10.32-8.234 4.78.12-10.318z"/><path fill="#2b1f51" d="M14.555 63.48a.5.5 0 0 1-.435-.253.5.5 0 0 1-.065-.252l.123-10.32a.5.5 0 0 1 .249-.427l8.232-4.784a.5.5 0 0 1 .75.438l-.12 10.32a.5.5 0 0 1-.25.425l-8.233 4.785a.5.5 0 0 1-.251.069m.62-10.53-.11 9.155 7.227-4.2.107-9.154z"/><path fill="#fff" d="m14.678 52.663-.122 10.316-8.286-4.785.125-10.315z"/><path fill="#2b1f51" d="M14.556 63.479a.5.5 0 0 1-.25-.067L6.02 58.627a.5.5 0 0 1-.25-.439l.12-10.319a.5.5 0 0 1 .75-.427l8.289 4.785a.5.5 0 0 1 .25.438l-.123 10.32a.5.5 0 0 1-.5.494m-7.783-5.571 7.293 4.211.109-9.173-7.293-4.211zM.5 39.721a.5.5 0 0 1-.353-.854l34.03-38.1a.501.501 0 0 1 .707.71l-34.03 38.1a.5.5 0 0 1-.354.144"/><path fill="#2b1f51" d="M34.028 6.036a.5.5 0 0 1-.288-.09.5.5 0 0 1-.2-.522l.956-4.279-4.465.922a.5.5 0 1 1-.2-.978L35.054.01a.48.48 0 0 1 .458.138.5.5 0 0 1 .132.46L34.52 5.642a.5.5 0 0 1-.49.394"/></svg>