<svg xmlns="http://www.w3.org/2000/svg" width="46" height="69" fill="none" viewBox="0 0 46 69"><path fill="#0d034a" d="M9.95 64.64a2.83 2.83 0 0 1-1.418-.364c-1.081-.61-1.676-1.897-1.676-3.622V26.139a11.26 11.26 0 0 1 4.929-8.863L33.74 4.082c1.396-.84 2.742-.975 3.787-.384 1.08.612 1.675 1.897 1.675 3.623v34.506a11.26 11.26 0 0 1-4.928 8.865L12.319 63.886c-.707.46-1.526.72-2.37.753M36.107 4.37a3.66 3.66 0 0 0-1.834.599L12.318 18.163A10.28 10.28 0 0 0 7.89 26.14v34.516c0 1.336.408 2.303 1.15 2.724a2.75 2.75 0 0 0 2.746-.372L33.74 49.811a10.28 10.28 0 0 0 4.43-7.976V7.32c0-1.336-.41-2.303-1.151-2.723a1.83 1.83 0 0 0-.912-.228z"/><path fill="#0d034a" d="M3.606 61.3a2.83 2.83 0 0 1-1.418-.363c-1.08-.61-1.675-1.897-1.675-3.622V22.803a11.26 11.26 0 0 1 4.93-8.863L27.398.746c1.397-.84 2.743-.975 3.787-.384 1.08.61 1.674 1.897 1.674 3.622v34.514a11.26 11.26 0 0 1-4.926 8.86L5.978 60.552a4.7 4.7 0 0 1-2.372.748M29.766 1.03a3.65 3.65 0 0 0-1.834.598L5.976 14.823A10.28 10.28 0 0 0 1.547 22.8v34.512c0 1.336.41 2.305 1.15 2.724a2.75 2.75 0 0 0 2.747-.371L27.399 46.47a10.28 10.28 0 0 0 4.43-7.978V3.98c0-1.336-.409-2.304-1.151-2.724a1.8 1.8 0 0 0-.912-.226" opacity=".43"/><path fill="#fff" d="M18.004 21.74a10.82 10.82 0 0 0-4.68 8.42v34.507c0 3.106 2.088 4.353 4.68 2.796l21.955-13.194a10.82 10.82 0 0 0 4.679-8.42V11.34c0-3.106-2.087-4.353-4.679-2.795z"/><path fill="#27292b" d="M15.895 69a3.2 3.2 0 0 1-1.584-.406c-1.19-.676-1.846-2.064-1.846-3.917V30.162a11.63 11.63 0 0 1 5.094-9.153L39.514 7.815c1.506-.904 2.971-1.043 4.128-.388 1.19.676 1.846 2.064 1.846 3.916v34.508a11.63 11.63 0 0 1-5.093 9.153L18.439 68.198c-.76.493-1.639.77-2.544.803m2.545-46.522a9.91 9.91 0 0 0-4.264 7.688v34.507c0 1.192.357 2.076.978 2.428a2.44 2.44 0 0 0 2.406-.365l21.955-13.194a9.91 9.91 0 0 0 4.264-7.687V11.348c0-1.192-.357-2.077-.978-2.429a2.44 2.44 0 0 0-2.405.366z"/><path fill="#27292b" stroke="#27292b" d="M38.794 33.63c0 2.675-.009 5.354.005 8.023a4.2 4.2 0 0 1-.7 2.255 10 10 0 0 1-1.469 1.806 19.6 19.6 0 0 1-2.908 2.379 25.5 25.5 0 0 1-5.03 2.68 14.6 14.6 0 0 1-4.364 1.095 4.45 4.45 0 0 1-1.81-.198 1.68 1.68 0 0 1-.92-.721 1.76 1.76 0 0 1-.226-.918V33.593a3.9 3.9 0 0 1 .643-1.985c.449-.724.989-1.388 1.607-1.975a20.3 20.3 0 0 1 2.973-2.386c1.389-.94 2.868-1.74 4.414-2.39a15.5 15.5 0 0 1 4.837-1.284 4.1 4.1 0 0 1 1.953.254 1.55 1.55 0 0 1 .867.865c.09.24.132.495.125.752zm-8.712-1.02v.034c.75-.411 1.5-.802 2.248-1.238a20.4 20.4 0 0 0 3.123-2.237 11.5 11.5 0 0 0 1.745-1.838 4 4 0 0 0 .548-.955 1.05 1.05 0 0 0 0-.957.75.75 0 0 0-.25-.275 3 3 0 0 0-.734-.307 5.8 5.8 0 0 0-2.314.062 17 17 0 0 0-3.587 1.136 24.7 24.7 0 0 0-5.047 2.892 15.3 15.3 0 0 0-2.395 2.159 6 6 0 0 0-.874 1.236c-.325.639-.32 1.1.008 1.43.198.184.441.31.705.367.67.145 1.362.157 2.037.035a17.4 17.4 0 0 0 4.786-1.544zm-7.776 2.538v.16c0 1.059.006 2.115 0 3.178a.97.97 0 0 0 .302.793c.215.173.469.289.74.338a6.1 6.1 0 0 0 2.428-.062c1.266-.255 2.5-.652 3.677-1.184a24.5 24.5 0 0 0 4.945-2.869 15.2 15.2 0 0 0 2.34-2.114q.481-.528.834-1.151c.174-.284.275-.608.291-.94v-3.335c0-.037-.005-.071-.008-.115-.022.024-.032.033-.04.044a12.5 12.5 0 0 1-1.824 1.985 23.6 23.6 0 0 1-4.456 3.109 22 22 0 0 1-4.842 2.008 7.13 7.13 0 0 1-4.388.153zm0 10.972v.163c0 1.05.008 2.096 0 3.15a.89.89 0 0 0 .349.842q.332.209.712.31c.823.15 1.67.125 2.482-.074 1.2-.246 2.37-.621 3.49-1.118a24.4 24.4 0 0 0 5.274-3.083 14.3 14.3 0 0 0 2.24-2.086q.455-.516.776-1.125c.152-.28.234-.594.237-.913-.007-1.078 0-2.16 0-3.241 0-.043 0-.085-.007-.136l-.048.059a11.7 11.7 0 0 1-1.428 1.614 22.5 22.5 0 0 1-4.262 3.142 25 25 0 0 1-3.44 1.674 16 16 0 0 1-3.734 1.028 4.9 4.9 0 0 1-2.59-.208c-.017-.005-.028 0-.052 0zm0-5.491v.163c0 1.05.009 2.095 0 3.15a.98.98 0 0 0 .348.858c.29.202.628.325.98.356.76.08 1.528.033 2.273-.139a18.8 18.8 0 0 0 4.343-1.522 24.6 24.6 0 0 0 3.92-2.334c.86-.614 1.657-1.31 2.382-2.08a7 7 0 0 0 1.007-1.333c.2-.329.306-.706.309-1.09-.011-1.057 0-2.124 0-3.187v-.156c-.106.14-.19.253-.276.363a14.4 14.4 0 0 1-2.256 2.25 25.2 25.2 0 0 1-5.154 3.235 20 20 0 0 1-3.706 1.376 6.86 6.86 0 0 1-4.171.088z"/></svg>