<svg xmlns="http://www.w3.org/2000/svg" width="72" height="97" fill="none" viewBox="0 0 72 97"><g clip-path="url(#a)"><path fill="#1b69ff" d="M13.937 89.107a2.94 2.94 0 0 1-1.523-.41 3.82 3.82 0 0 1-1.637-3.44V36.034a9.14 9.14 0 0 1 4.29-7.427L56.42 5.993a3.52 3.52 0 0 1 3.565-.165 3.82 3.82 0 0 1 1.637 3.441v49.224a9.14 9.14 0 0 1-4.29 7.427L15.98 88.531a4.3 4.3 0 0 1-2.042.576M58.455 7.322a2.4 2.4 0 0 0-1.124.34L15.982 30.27a7.3 7.3 0 0 0-3.3 5.762v49.221a2.04 2.04 0 0 0 .706 1.808 1.75 1.75 0 0 0 1.685-.2l41.352-22.612a7.3 7.3 0 0 0 3.3-5.762V9.27a2.03 2.03 0 0 0-.705-1.807 1.1 1.1 0 0 0-.562-.14z"/><path fill="#1b69ff" d="M3.242 83.683a2.95 2.95 0 0 1-1.524-.41 3.82 3.82 0 0 1-1.636-3.44V30.61a9.13 9.13 0 0 1 4.294-7.427L45.726.571A3.52 3.52 0 0 1 49.29.407a3.82 3.82 0 0 1 1.637 3.44V53.07a9.14 9.14 0 0 1-4.29 7.427L5.284 83.107a4.3 4.3 0 0 1-2.042.576M47.76 1.898a2.4 2.4 0 0 0-1.124.34L5.284 24.85a7.29 7.29 0 0 0-3.3 5.761v49.221a2.04 2.04 0 0 0 .705 1.808 1.74 1.74 0 0 0 1.686-.2l41.35-22.609a7.3 7.3 0 0 0 3.3-5.76V3.846a2.03 2.03 0 0 0-.705-1.807 1.1 1.1 0 0 0-.56-.143z" opacity=".35"/><path fill="#fff" d="M66.512 72.441 25.16 95.05c-2.1 1.147-3.8.053-3.8-2.443V43.388a8.21 8.21 0 0 1 3.8-6.6l41.353-22.612c2.1-1.147 3.8-.053 3.8 2.442V65.85a8.22 8.22 0 0 1-3.8 6.592"/><path fill="#000" d="M23.571 96.46a2.95 2.95 0 0 1-1.525-.411 3.82 3.82 0 0 1-1.636-3.44V43.388a9.14 9.14 0 0 1 4.291-7.427L66.052 13.35a3.52 3.52 0 0 1 3.565-.165 3.82 3.82 0 0 1 1.637 3.44v49.222a9.14 9.14 0 0 1-4.291 7.427L25.612 95.885a4.3 4.3 0 0 1-2.041.575m44.52-81.784a2.4 2.4 0 0 0-1.125.34l-41.354 22.61a7.29 7.29 0 0 0-3.3 5.762v49.22a2.04 2.04 0 0 0 .705 1.808 1.74 1.74 0 0 0 1.687-.2l41.352-22.612a7.3 7.3 0 0 0 3.3-5.76v-49.22a2.03 2.03 0 0 0-.706-1.805 1.1 1.1 0 0 0-.559-.144"/><path fill="#000" d="M70.564 57.36a.69.69 0 0 0-.692.048L49.562 69.39a1.9 1.9 0 0 0-.855-1.1 2 2 0 0 0-1.457-.163V62.94c7.823-5.037 13.891-16.142 13.55-24.83-.161-4.088-1.714-7.107-4.375-8.5-2.874-1.506-6.809-.92-10.792 1.61-7.878 5-14.008 16.175-13.665 24.9.156 3.961 1.632 6.938 4.157 8.382s5.84 1.236 9.392-.566v5.128a7.44 7.44 0 0 0-2.38 4.09L21.843 85.218a1.62 1.62 0 0 0-.74 1.275.67.67 0 0 0 .3.6.6.6 0 0 0 .283.073.8.8 0 0 0 .4-.12l21.112-11.96a1.85 1.85 0 0 0 1.12 1.23 3.04 3.04 0 0 0 2.831-.817 7.4 7.4 0 0 0 2.476-4.175l20.493-12.09a1.62 1.62 0 0 0 .74-1.275.66.66 0 0 0-.294-.6M46.51 39.27a3.6 3.6 0 0 1 1.769-.559 1.87 1.87 0 0 1 .939.237 2.57 2.57 0 0 1 1.053 2.37 8.9 8.9 0 0 1-4.014 6.893 2.71 2.71 0 0 1-2.707.321 2.57 2.57 0 0 1-1.053-2.369 8.89 8.89 0 0 1 4.013-6.894m3.249 7.658c2.289-3.239 2.933-7.266 1.4-9.206a2.83 2.83 0 0 0-2.308-1.09h-.006c-1.759 0-3.8 1.271-5.461 3.392-2.594 3.314-3.393 7.673-1.783 9.716.368.476.882.82 1.462.978a21.7 21.7 0 0 0-6.006 11.717c-2.151-1.344-3.375-4.143-3.373-7.752 0-8.006 5.744-17.893 12.814-22.04a11.74 11.74 0 0 1 5.815-1.824 6.36 6.36 0 0 1 3.2.811c2.3 1.315 3.563 4.11 3.565 7.868a25.65 25.65 0 0 1-3.443 11.922 5.77 5.77 0 0 0-2.2-3.694 5.08 5.08 0 0 0-3.676-.8zm-3.032 3.044c2-1.107 3.853-1.284 5.227-.5 1.311.751 2.069 2.326 2.139 4.44a25.6 25.6 0 0 1-7.836 7.637c-2.735 1.6-5.418 2.158-7.579 1.577.207-4.928 3.783-10.794 8.049-13.157zm1.256 21.19a3.82 3.82 0 0 1-1.726 2.961 1.1 1.1 0 0 1-1.071.144 1.02 1.02 0 0 1-.4-.94 3.82 3.82 0 0 1 1.726-2.963c.217-.137.466-.216.722-.228a.7.7 0 0 1 .35.086 1.02 1.02 0 0 1 .399.936z"/></g><defs><clipPath id="a"><path fill="#fff" d="M.07 0h71.194v96.459H.07z"/></clipPath></defs></svg>