<svg width="194" height="66" viewBox="0 0 194 66" fill="none" xmlns="http://www.w3.org/2000/svg">
<g clip-path="url(#clip0_9_33537)">
<path d="M59.6322 18.0396C59.6322 12.905 59.6456 7.76859 59.6168 2.63213C59.6168 1.90667 59.757 1.64092 60.5477 1.64868C64.4786 1.69394 68.4107 1.69394 72.3442 1.64868C73.1484 1.63898 73.2731 1.92024 73.2712 2.63989C73.2495 12.5895 73.2495 22.5385 73.2712 32.4868C73.2712 33.1056 73.1657 33.4567 72.5035 33.6856C63.6014 36.7194 54.9585 40.3952 46.4653 44.4357C46.2015 44.5769 45.9106 44.659 45.6125 44.6764C45.3144 44.6938 45.0161 44.6461 44.7379 44.5366C39.0623 42.4882 36.3407 38.2246 35.6919 32.3646C35.4789 30.4249 35.5192 28.4851 35.5173 26.559C35.5173 18.5808 35.5173 10.6026 35.5 2.62243C35.5 1.89115 35.6459 1.63898 36.4309 1.65256C40.3618 1.69782 44.2939 1.69782 48.2273 1.65256C48.9951 1.65256 49.1659 1.88145 49.164 2.62243C49.1397 11.4405 49.1345 20.2586 49.1486 29.0767C49.1486 29.4647 49.1371 29.8526 49.164 30.2406C49.3655 33.1405 50.8319 34.702 53.7455 34.9872C55.4352 35.1542 57.1404 35.0442 58.7954 34.6613C59.4287 34.5158 59.6571 34.2404 59.6533 33.5498C59.6188 28.3746 59.6322 23.2071 59.6322 18.0396Z" fill="#65666A"/>
<path d="M14.6259 46.0225C9.81402 45.9701 5.16148 45.1477 0.714303 43.2273C0.0137338 42.9266 -0.176283 42.6745 0.165364 41.8986C1.41487 39.0762 2.59144 36.217 3.76034 33.3637C3.98107 32.8244 4.14421 32.7216 4.70275 32.9951C7.8697 34.5275 11.2036 35.478 14.7621 35.4217C15.9349 35.4043 17.0443 35.1288 18.0116 34.4267C18.396 34.1611 18.7178 33.8131 18.954 33.4076C19.1902 33.0021 19.3351 32.5489 19.3784 32.0804C19.4216 31.6118 19.3622 31.1394 19.2042 30.6967C19.0463 30.254 18.7938 29.8519 18.4646 29.5191C17.718 28.7296 16.7736 28.2582 15.7967 27.847C13.409 26.8461 10.9119 26.1265 8.59522 24.9374C6.75075 24.0349 5.0839 22.8013 3.67589 21.2965C-0.533286 16.6915 -0.600464 5.95306 8.27085 1.90868C11.3649 0.498485 14.6355 -3.12869e-05 17.9809 0.0154867C22.6277 0.029065 27.1306 0.816604 31.4031 2.76605C32.1075 3.08805 32.2687 3.33634 31.9155 4.0909C30.7639 6.53887 29.6852 9.01981 28.6353 11.5124C28.3551 12.1777 28.1133 12.1835 27.5298 11.8809C24.5452 10.3291 21.4147 9.40388 18.0212 10.0246C15.814 10.4281 14.6124 11.8674 14.7794 13.7722C14.8984 15.13 15.7391 15.9777 16.8005 16.6702C18.2899 17.6401 19.9982 18.1192 21.6412 18.7341C23.4991 19.4285 25.3436 20.1462 27.0749 21.1335C31.5432 23.6843 33.6814 27.5347 33.3954 32.7274C33.1209 37.6893 30.8599 41.3651 26.453 43.6385C23.7314 45.0429 20.7966 45.6229 17.7852 45.8731C16.7372 45.9585 15.6796 45.972 14.6259 46.0225Z" fill="#65666A"/>
<path d="M148.309 31.3097C148.309 34.7663 148.292 38.221 148.327 41.6776C148.327 42.3469 148.104 42.6281 147.501 42.8551C143.309 44.4321 138.954 45.1711 134.515 45.5184C131.491 45.788 128.449 45.7802 125.427 45.4951C121.325 45.0625 117.421 44.0713 114.337 41.0686C111.717 38.5159 110.655 35.2357 110.352 31.6744C110.16 29.4921 110.221 29.4611 112.34 28.8346C115.768 27.824 119.216 26.8754 122.64 25.8435C123.452 25.5991 123.569 25.8706 123.551 26.5864C123.523 27.8123 123.525 29.0421 123.576 30.2719C123.674 32.5802 125.112 34.2096 127.354 34.615C129.235 34.9545 131.102 34.743 132.974 34.5064C133.724 34.4113 133.977 34.0971 133.968 33.3193C133.926 30.1555 133.968 26.9899 133.933 23.8242C133.933 23.1298 134.095 22.8078 134.812 22.6603C139.035 21.8224 143.252 20.9521 147.463 20.0494C148.187 19.8923 148.329 20.0494 148.323 20.7477C148.296 24.2684 148.309 27.789 148.309 31.3097Z" fill="#9D9DA0"/>
<path d="M96.8693 -1.33747e-05C100.708 0.0601189 104.422 0.707995 107.856 2.59149C108.487 2.93677 108.549 3.22385 108.266 3.85233C107.067 6.52337 105.906 9.21186 104.762 11.9081C104.531 12.4512 104.361 12.556 103.814 12.2282C101.963 11.1186 99.9096 10.8102 97.8059 11.0178C95.1495 11.2777 93.2359 12.7441 91.9979 15.0912C90.307 18.2957 90.1745 21.7582 90.4835 25.2769C90.5027 25.5019 90.5699 25.723 90.5738 25.9461C90.5834 26.5784 91.1745 27.3039 90.7657 27.7617C90.3933 28.1729 89.5987 28.1904 88.9903 28.3824C85.4548 29.5049 81.9245 30.628 78.3992 31.7518C78 31.8778 77.6526 32.1223 77.4856 31.4278C75.6161 23.7018 75.7486 16.1484 79.8445 9.12069C83.1305 3.49542 88.2897 0.686658 94.6678 0.108613C95.2436 0.0562394 95.8194 0.0310226 96.3952 -0.00195312C96.5468 -1.33747e-05 96.71 -1.33747e-05 96.8693 -1.33747e-05Z" fill="#65666A"/>
<path d="M192.643 29.4842C192.643 34.4248 192.628 39.3672 192.66 44.3078C192.66 45.0992 192.468 45.3514 191.658 45.3436C187.761 45.3009 183.861 45.3009 179.96 45.3436C179.192 45.3436 179 45.1186 179 44.364C179.023 34.8696 179.023 25.3745 179 15.8788C179 15.1553 179.167 14.9089 179.935 14.8294C183.677 14.4415 187.42 13.9837 191.15 13.5492C191.307 13.5317 191.47 13.5492 191.626 13.5104C192.405 13.3571 192.666 13.6287 192.658 14.4686C192.624 19.4712 192.643 24.4777 192.643 29.4842Z" fill="#9D9DA0"/>
<path d="M165.772 31.0648C165.772 35.4914 165.758 39.9179 165.787 44.3444C165.787 45.0757 165.639 45.3511 164.845 45.3433C160.91 45.3007 156.975 45.3065 153.042 45.3433C152.327 45.3433 152.123 45.1494 152.125 44.4181C152.151 36.244 152.151 28.0692 152.125 19.8938C152.125 19.1858 152.34 18.9957 153.019 18.8813C156.858 18.2392 160.683 17.5234 164.515 16.8407C165.718 16.6253 165.772 16.6777 165.772 17.8842C165.774 22.2771 165.774 26.6707 165.772 31.0648Z" fill="#9D9DA0"/>
<path d="M152.123 9.06621C152.123 7.45234 152.165 5.83652 152.104 4.21683C152.075 3.44093 152.296 3.08208 153.041 2.82797C157.609 1.27617 162.311 0.449837 167.106 0.141417C170.199 -0.0821664 173.305 -0.0250384 176.388 0.312115C177.816 0.476994 177.824 0.438199 177.518 1.81348C176.868 4.73669 176.196 7.65601 175.572 10.585C175.426 11.2698 175.229 11.4249 174.505 11.2174C172.033 10.5231 169.431 10.4426 166.922 10.9827C166.085 11.1514 165.565 11.4579 165.755 12.4375C165.925 13.322 165.563 13.6324 164.645 13.7197C160.768 14.0863 156.901 14.5382 153.033 15.0038C152.323 15.0891 152.073 14.9747 152.106 14.1968C152.164 12.4879 152.123 10.7771 152.123 9.06621Z" fill="#65666A"/>
<path d="M109.895 12.1039C109.895 8.90521 109.914 5.70268 109.88 2.50791C109.88 1.8193 110.072 1.64667 110.743 1.65248C114.74 1.68223 118.737 1.68223 122.736 1.65248C123.39 1.65248 123.534 1.86586 123.532 2.47882C123.513 7.97219 123.513 13.4681 123.532 18.9667C123.532 19.5991 123.3 19.793 122.743 19.9075C118.805 20.7299 114.874 21.5407 110.945 22.4485C109.953 22.6774 109.864 22.369 109.876 21.5175C109.92 18.3712 109.895 15.2385 109.895 12.1039Z" fill="#65666A"/>
<path d="M97.3815 45.7178C91.6234 45.7178 86.9977 44.2281 83.111 40.6744C82.944 40.5231 82.7828 40.366 82.61 40.2244C82.1148 39.8151 82.0553 39.5513 82.7597 39.2701C87.1244 37.5359 91.5101 35.86 95.9323 34.2849C96.2255 34.164 96.5478 34.135 96.8575 34.2015C99.2132 34.762 101.692 34.4002 103.794 33.1889C104.339 32.8844 104.518 32.9717 104.754 33.5265C105.905 36.3262 107.081 39.1136 108.28 41.8887C108.543 42.492 108.449 42.8101 107.878 43.1243C105.541 44.3966 102.984 45.2027 100.345 45.4986C99.1645 45.6363 97.988 45.7527 97.3815 45.7178Z" fill="#9D9DA0"/>
<path d="M133.955 9.66165C133.955 7.27382 133.971 4.88598 133.955 2.50009C133.955 1.91817 134.02 1.64466 134.711 1.65048C138.99 1.6841 143.269 1.6841 147.548 1.65048C148.22 1.65048 148.325 1.90459 148.316 2.49427C148.297 6.59103 148.291 10.6897 148.316 14.7865C148.316 15.4266 148.145 15.6943 147.51 15.7816C143.221 16.3816 138.928 16.9971 134.631 17.6282C134.04 17.7174 133.94 17.5623 133.946 17.0172C133.974 14.5653 133.955 12.1135 133.955 9.66165Z" fill="#65666A"/>
<path d="M185.204 12.1116C183.699 12.197 181.689 12.292 179.683 12.4414C179.179 12.4782 179.004 12.3793 179.008 11.8594C179.026 8.66662 179.026 5.47314 179.008 2.27902C179.008 1.81736 179.154 1.668 179.611 1.66994C183.76 1.68417 187.911 1.68417 192.063 1.66994C192.543 1.66994 192.639 1.86392 192.639 2.30424C192.628 5.24102 192.618 8.17586 192.639 11.1126C192.639 11.6946 192.413 11.7974 191.91 11.8148C189.85 11.8788 187.779 11.9914 185.204 12.1116Z" fill="#63A946"/>
<path d="M103.33 62.3647C102.497 62.3647 101.837 62.3433 101.177 62.3647C100.764 62.3821 100.643 62.0892 100.474 61.8177C99.8639 60.8342 99.2094 59.8779 98.6527 58.8596C98.3399 58.2893 97.9042 58.1748 97.3821 58.2951C96.8159 58.427 97.1192 58.9391 97.0981 59.265C97.0578 60.072 97.0578 60.8806 97.0981 61.6877C97.1153 62.1746 96.981 62.353 96.4608 62.3705C94.8025 62.4209 94.8025 62.4442 94.8025 60.8012C94.8025 58.0235 94.8198 55.2439 94.7891 52.4603C94.7891 51.8357 94.9426 51.6068 95.5837 51.6495C96.9829 51.7445 98.3936 51.5215 99.7852 51.8435C100.969 52.1209 101.845 52.7416 102.088 54.0063C102.351 55.3486 102.073 56.5532 100.849 57.3039C100.238 57.6744 100.353 57.9401 100.683 58.4095C101.547 59.6587 102.369 60.9273 103.33 62.3647ZM97.0213 54.9354C97.3725 55.3932 96.4762 56.4077 97.789 56.3941C99.2074 56.3767 99.8351 55.9713 99.8524 54.9781C99.8696 53.985 99.2055 53.5097 97.7315 53.5175C96.4935 53.5214 97.3706 54.5068 97.0213 54.9354Z" fill="#66AA49"/>
<path d="M65.8596 55.1104C66.8404 54.0357 67.9978 53.7254 69.2819 54.2452C70.5659 54.7651 71.04 55.96 71.182 57.2615C71.2559 57.9352 71.2559 58.615 71.182 59.2886C70.8481 62.2835 68.3702 63.4086 65.8462 61.6163C65.8462 62.85 65.8136 64.0157 65.8596 65.1777C65.8865 65.81 65.6984 66.0195 65.0612 66.0021C63.3146 65.9516 63.6005 66.1281 63.5929 64.491C63.5801 61.3951 63.5839 58.2993 63.6044 55.2035C63.6044 54.8601 63.305 54.2336 63.9883 54.2336C64.5909 54.2336 65.4719 53.7777 65.6696 54.9067C65.6792 54.9494 65.7464 54.9862 65.8596 55.1104ZM68.9306 58.0316C68.9181 57.697 68.8815 57.3638 68.8212 57.0346C68.6581 56.3014 68.2147 55.8106 67.4297 55.8242C66.6447 55.8378 66.1283 56.2238 65.9556 57.0579C65.7628 57.9424 65.7985 58.8623 66.0593 59.7289C66.2512 60.3496 66.7138 60.6386 67.3625 60.6619C67.6502 60.6939 67.9401 60.6258 68.1843 60.4689C68.4286 60.312 68.6126 60.0756 68.7061 59.7987C68.9076 59.3099 68.9287 58.7978 68.9383 58.0316H68.9306Z" fill="#66AA49"/>
<path d="M8.55923 62.2232C6.74159 62.8051 5.65523 62.1301 4.97961 60.5337C4.71858 59.9188 4.22914 59.4047 3.93739 58.7976C3.64565 58.1904 3.20803 58.2273 2.73203 58.2932C2.11399 58.3805 2.41342 58.9004 2.38654 59.2263C2.33856 59.8082 2.37311 60.3901 2.37311 60.972C2.37311 62.2969 1.71861 62.7547 0.442226 62.3628C0.133208 62.2659 0.148563 62.0719 0.148563 61.8469C0.148563 58.6502 0.148563 55.4522 0.148563 52.2529C0.148563 51.9406 0.165837 51.6709 0.588098 51.6806C2.08328 51.7427 3.58999 51.5313 5.07942 51.863C6.31165 52.1365 7.19072 52.8096 7.43832 54.0976C7.68592 55.3856 7.35579 56.5746 6.18881 57.304C5.613 57.6628 5.64755 57.9208 5.98536 58.4038C6.86251 59.6608 7.70127 60.9449 8.55923 62.2232ZM2.32896 54.9123C2.61111 55.4185 1.80306 56.4641 3.17349 56.3981C4.58806 56.3322 5.20993 55.9209 5.19266 54.9064C5.17538 53.9482 4.51704 53.5331 3.08136 53.5118C1.85296 53.4962 2.59959 54.4448 2.32896 54.9123Z" fill="#63A946"/>
<path d="M36.2949 57.0285C36.2949 55.4767 36.316 53.9249 36.2853 52.3731C36.2738 51.828 36.4389 51.636 36.9878 51.6573C38.1394 51.6981 39.291 51.6418 40.4427 51.6981C42.4772 51.7989 43.648 52.9628 43.7152 54.8812C43.7843 56.8501 42.5732 58.2428 40.5866 58.4775C40.4906 58.4891 40.3947 58.493 40.2987 58.5008C38.5866 58.6269 38.5866 58.6269 38.5866 60.3338C38.5664 60.5921 38.5664 60.8515 38.5866 61.1097C38.7363 62.0796 38.4254 62.4462 37.3832 62.3939C36.5521 62.3512 36.2143 62.2115 36.2719 61.2843C36.3602 59.878 36.2949 58.4523 36.2949 57.0285ZM38.5828 55.0558C38.6039 55.2796 38.6039 55.505 38.5828 55.7289C38.3909 56.6988 38.9302 56.8074 39.6692 56.6891C39.8265 56.6638 39.982 56.6347 40.1356 56.5959C41.0952 56.3515 41.5521 55.6707 41.3774 54.7532C41.2027 53.8357 40.4177 53.3624 39.1183 53.5234C38.103 53.6495 38.7997 54.4933 38.5905 54.9588C38.5822 54.9904 38.5796 55.0233 38.5828 55.0558Z" fill="#66AA49"/>
<path d="M186.372 59.6941C186.91 58.0705 187.443 56.6972 187.812 55.2792C188.042 54.385 188.451 54.0475 189.334 54.1872C189.751 54.2169 190.17 54.2169 190.587 54.1872C190.24 55.1221 189.933 55.9601 189.628 56.7961C188.793 59.0268 187.979 61.2575 187.111 63.4824C186.401 65.298 184.912 66.1593 183.219 65.9401C182.326 65.8237 182.643 65.2127 182.572 64.7297C182.486 64.0915 182.862 64.107 183.328 64.1032C184.787 64.0896 185.553 62.8947 185.012 61.5291C184.148 59.3825 183.287 57.2358 182.428 55.0891C182.325 54.8253 182.152 54.579 182.194 54.2706C184.476 54.0242 184.476 54.0242 185.186 56.1579C185.551 57.2442 185.914 58.3382 186.372 59.6941Z" fill="#66AA49"/>
<path d="M133.585 62.5376C132.701 62.5354 131.823 62.4047 130.976 62.1497C130.535 62.0158 130.306 61.8044 130.301 61.271C130.285 59.7948 130.255 59.7929 131.625 60.2546C132.393 60.5125 133.16 60.7104 133.972 60.5901C134.466 60.5164 134.899 60.3108 135.032 59.7541C135.164 59.1974 134.871 58.8017 134.439 58.5456C133.696 58.1092 132.903 57.7445 132.164 57.3139C131.268 56.796 130.608 56.0763 130.491 54.9862C130.299 53.2404 131.128 52.0766 132.834 51.6576C134.195 51.3201 135.487 51.5916 136.767 52.0707C137.178 52.2259 137.191 52.4063 137.051 52.7885C136.612 54.0008 136.631 54.0047 135.45 53.6633C134.994 53.5152 134.519 53.4386 134.04 53.4363C133.464 53.4499 132.94 53.5488 132.755 54.2025C132.571 54.8562 132.93 55.2481 133.441 55.5351C134.304 56.0201 135.214 56.4332 136.034 56.9803C137.21 57.7562 137.608 59.1528 137.124 60.4718C136.74 61.5018 135.94 62.0508 134.938 62.3184C134.492 62.42 134.04 62.4932 133.585 62.5376Z" fill="#66AA49"/>
<path d="M23.3821 61.2963C22.3438 62.4078 21.171 62.7492 19.8217 62.3961C18.7757 62.1246 18.219 61.3972 18.0943 60.2178C17.983 59.0966 18.4494 58.2063 19.4186 57.764C20.3111 57.3567 21.2689 57.3198 22.2305 57.2868C22.576 57.2868 23.1729 57.5448 23.1595 56.8271C23.1595 56.2704 22.8889 55.8301 22.2727 55.7408C21.5717 55.6378 20.8561 55.7408 20.2113 56.0376C19.267 56.4721 19.3323 55.5915 19.0789 55.1841C18.7315 54.6216 19.2709 54.544 19.5991 54.4257C20.8291 53.9426 22.1788 53.8652 23.4551 54.2046C24.6777 54.5479 25.2977 55.2753 25.3495 56.5594C25.4147 58.2024 25.4071 59.857 25.3956 61.4961C25.3956 61.7909 25.6355 62.3263 25.0789 62.3321C24.5779 62.3321 23.8888 62.7104 23.6221 61.8705C23.5798 61.723 23.505 61.5834 23.3821 61.2963ZM22.3514 58.6311C21.029 58.6854 20.3649 59.1257 20.4071 59.9326C20.4455 60.695 20.9561 60.8676 21.6125 60.8346C21.829 60.8356 22.0434 60.7916 22.2424 60.7052C22.4413 60.6189 22.6206 60.492 22.7689 60.3326C22.9173 60.1732 23.0316 59.9847 23.1047 59.7787C23.1779 59.5727 23.2083 59.3538 23.194 59.1354C23.1844 58.3964 22.672 58.6796 22.3514 58.633V58.6311Z" fill="#66AA49"/>
<path d="M120.106 59.2224C120.106 59.9654 120.135 60.7102 120.093 61.4512C120.075 61.7713 120.363 62.3396 119.718 62.3416C119.212 62.3416 118.517 62.681 118.294 61.8256C118.137 61.2262 117.897 61.4241 117.596 61.7228C116.849 62.4618 115.907 62.6073 114.926 62.4987C113.682 62.359 112.933 61.5637 112.826 60.365C112.695 58.8927 113.158 58.1052 114.423 57.6493C115.25 57.3467 116.11 57.3351 116.974 57.3002C117.292 57.2866 117.82 57.5368 117.832 56.8715C117.841 56.3342 117.64 55.9016 117.079 55.7813C116.352 55.629 115.595 55.721 114.924 56.0432C113.918 56.4952 113.991 55.5583 113.741 55.1257C113.386 54.5108 114.049 54.5438 114.331 54.4332C115.499 53.9697 116.78 53.8803 118.001 54.1772C119.379 54.5224 120.025 55.341 120.091 56.8113C120.127 57.6163 120.091 58.4252 120.091 59.2321L120.106 59.2224ZM116.187 60.8363C117.252 60.8363 117.96 60.0701 117.843 59.0556C117.814 58.8015 117.774 58.6075 117.473 58.6211C116.872 58.6483 116.258 58.594 115.697 58.8908C115.137 59.1875 115.035 59.655 115.15 60.204C115.265 60.7529 115.709 60.8421 116.187 60.8363Z" fill="#66AA49"/>
<path d="M160.958 61.4103C159.972 62.4248 158.803 62.7274 157.458 62.3977C156.454 62.1513 155.801 61.5248 155.638 60.5122C155.321 58.5608 155.557 56.5881 155.5 54.6231C155.5 54.2759 155.701 54.2255 155.993 54.1906C157.667 53.9869 157.745 54.0529 157.747 55.754C157.747 56.8829 157.72 58.0119 157.768 59.1389C157.801 59.9148 157.983 60.6344 158.98 60.6907C159.91 60.7392 160.458 60.3532 160.671 59.362C160.974 57.9615 160.791 56.5338 160.793 55.1197C160.793 54.4447 160.897 54.1498 161.667 54.1809C163.365 54.2662 163.066 54.0063 163.081 55.6241C163.099 57.5638 163.099 59.499 163.081 61.4297C163.081 61.7711 163.363 62.388 162.638 62.3492C162.087 62.3201 161.275 62.7468 161.154 61.6819C161.135 61.5985 161.041 61.5287 160.958 61.4103Z" fill="#66AA49"/>
<path d="M57.7697 54.0259C60.2649 54.0143 61.7889 55.6262 61.8004 58.2682C61.8004 60.8791 60.3187 62.5007 57.8907 62.5259C55.4627 62.5511 53.9022 60.9159 53.8907 58.2585C53.8792 55.601 55.2918 54.0356 57.7697 54.0259ZM59.4972 58.1693C59.5057 57.746 59.4407 57.3245 59.3052 56.9239C59.0442 56.0801 58.43 55.7756 57.6162 55.8551C56.7102 55.9444 56.2861 56.5243 56.1959 57.7056C56.0673 59.399 56.4243 60.3631 57.2765 60.6153C57.3684 60.6386 57.4622 60.6542 57.5567 60.6618C58.8657 60.819 59.4972 60.0392 59.4972 58.1693Z" fill="#66AA49"/>
<path d="M49.9857 58.8561C49.3158 58.8561 48.6421 58.889 47.9742 58.8464C47.3063 58.8037 47.264 59.1257 47.4445 59.6087C47.5549 59.949 47.7663 60.2468 48.0499 60.4615C48.3335 60.6763 48.6756 60.7978 49.0299 60.8094C49.7643 60.8499 50.5001 60.7646 51.2064 60.5572C51.4886 60.4835 51.9262 60.0218 52.0529 60.5068C52.1795 60.9917 52.4252 61.7346 51.8379 62.0043C51.1019 62.3658 50.2964 62.5596 49.4782 62.572C48.6601 62.5844 47.8492 62.4151 47.1028 62.076C45.79 61.4941 45.1412 60.3652 45.0779 58.9259C45.0303 58.2823 45.056 57.6354 45.1547 56.9978C45.5692 54.8214 47.5193 53.6265 49.8053 54.0881C51.7381 54.4761 52.907 56.3324 52.5845 58.4177C52.5193 58.8386 52.3024 58.8522 51.9991 58.8522C51.3273 58.8522 50.6575 58.8541 49.9857 58.8561ZM48.8629 57.3256C49.0216 57.3451 49.1821 57.3451 49.3408 57.3256C49.7016 57.2325 50.3005 57.6204 50.3926 57.0695C50.4847 56.5187 50.1335 56.0182 49.5673 55.7777C48.9166 55.5022 48.3043 55.5837 47.8091 56.1016C47.5423 56.379 47.3005 56.7631 47.4406 57.1471C47.5807 57.5312 47.9992 57.2771 48.2909 57.3256C48.4813 57.3411 48.6725 57.3411 48.8629 57.3256Z" fill="#66AA49"/>
<path d="M145.542 60.2678C145.782 61.9961 145.688 62.1358 144.114 62.4016C143.769 62.4689 143.419 62.5104 143.068 62.5257C141.464 62.5451 139.951 62.2425 139.112 60.6849C138.245 59.0729 138.295 57.3718 139.147 55.7637C139.974 54.2003 142.11 53.5834 143.963 54.2759C145.498 54.8462 146.345 56.5842 146.074 58.4231C145.999 58.9294 145.7 58.8557 145.393 58.8576C144.114 58.8576 142.832 58.8925 141.554 58.846C140.786 58.8188 140.755 59.1195 141.007 59.7034C141.322 60.4424 141.89 60.7586 142.654 60.8226C143.663 60.9079 144.6 60.5762 145.542 60.2678ZM142.377 57.3252C142.536 57.3476 142.697 57.3476 142.855 57.3252C143.208 57.2166 143.796 57.6472 143.894 57.0459C143.986 56.4776 143.633 56.0004 143.064 55.7695C142.408 55.5038 141.805 55.5911 141.316 56.1265C141.053 56.4155 140.809 56.8093 140.947 57.17C141.086 57.5308 141.508 57.2884 141.803 57.3272C141.994 57.3391 142.186 57.3385 142.377 57.3252Z" fill="#66AA49"/>
<path d="M84.1763 60.2485C84.2953 62.1437 84.2953 62.1475 82.5371 62.4288C82.1915 62.4885 81.8417 62.5203 81.4911 62.5238C79.8788 62.5141 78.3932 62.1359 77.6293 60.5414C77.2297 59.7628 77.0415 58.891 77.084 58.0149C77.1265 57.1388 77.3981 56.2897 77.8712 55.5543C78.7694 54.0937 80.9249 53.5913 82.6696 54.3265C84.1264 54.9375 84.9613 56.7143 84.66 58.4426C84.5717 58.9508 84.2531 58.85 83.9575 58.8519C82.6811 58.8519 81.4047 58.8888 80.1303 58.8519C79.3625 58.8247 79.3433 59.1312 79.589 59.7112C79.9038 60.4483 80.47 60.7645 81.232 60.8285C82.2512 60.908 83.1859 60.586 84.1763 60.2485ZM80.994 57.3253C81.153 57.3399 81.3129 57.3399 81.4719 57.3253C81.8174 57.2574 82.351 57.5562 82.4757 57.11C82.6254 56.5843 82.2953 56.0975 81.8078 55.8395C81.1571 55.4942 80.5045 55.5272 79.9575 56.0742C79.6562 56.3748 79.3913 56.7938 79.5468 57.1895C79.6638 57.4883 80.1226 57.2962 80.4182 57.3273C80.6101 57.3408 80.802 57.3253 80.994 57.3253Z" fill="#66AA49"/>
<path d="M111.022 60.2449C111.183 62.1013 111.153 62.144 109.423 62.4252C109.106 62.4826 108.785 62.5157 108.463 62.5241C106.893 62.5241 105.412 62.2293 104.581 60.7202C103.677 59.0792 103.738 57.347 104.617 55.7156C105.456 54.1638 107.619 53.5819 109.452 54.2919C110.957 54.8738 111.867 56.767 111.517 58.472C111.414 58.9783 111.076 58.8464 110.79 58.8503C109.51 58.8619 108.231 58.8813 106.951 58.8503C106.258 58.8309 106.195 59.1141 106.421 59.6611C106.545 59.9968 106.765 60.2873 107.054 60.4949C107.343 60.7024 107.687 60.8174 108.041 60.8249C109.062 60.9083 110.009 60.6174 111.022 60.2449ZM107.855 57.3256C108.014 57.3402 108.174 57.3402 108.333 57.3256C108.678 57.2577 109.216 57.5564 109.341 57.1142C109.488 56.5905 109.149 56.1016 108.669 55.8398C108.018 55.4926 107.362 55.5294 106.815 56.0687C106.513 56.3654 106.25 56.7922 106.408 57.1898C106.527 57.4905 106.984 57.2946 107.279 57.3276C107.469 57.3431 107.663 57.3256 107.855 57.3256Z" fill="#66AA49"/>
<path d="M16.2999 60.2507C16.4726 62.1148 16.4496 62.1361 14.7644 62.4309C13.9128 62.5871 13.0386 62.5639 12.1962 62.3631C10.8066 62.0197 9.86998 61.1682 9.50914 59.7638C9.21377 58.6644 9.25189 57.5008 9.61854 56.4235C10.2711 54.5032 12.2346 53.6051 14.417 54.1792C16.5993 54.7534 16.9812 56.7455 16.8891 58.4467C16.8603 58.9646 16.486 58.8502 16.1905 58.854C14.9122 58.854 13.6319 58.8909 12.3517 58.854C11.5686 58.8249 11.5648 59.2148 11.797 59.7386C12.1118 60.4505 12.6895 60.7899 13.465 60.8326C14.4342 60.8733 15.3574 60.627 16.2999 60.2507ZM13.2461 57.3255C13.3737 57.3393 13.5024 57.3393 13.63 57.3255C14.0005 57.2441 14.6166 57.5874 14.701 57.0908C14.7989 56.5186 14.4285 55.9929 13.8124 55.7504C13.5634 55.6373 13.2885 55.5955 13.0177 55.6298C12.7469 55.664 12.4906 55.7728 12.2769 55.9444C11.9083 56.2315 11.6281 56.6641 11.7567 57.1083C11.8853 57.5525 12.3613 57.2499 12.6761 57.3139C12.8653 57.3361 13.0562 57.34 13.2461 57.3255Z" fill="#66AA49"/>
<path d="M176.969 58.2294C176.969 57.6804 176.969 57.1295 176.969 56.5806C176.969 56.2043 176.981 55.8493 176.445 55.8881C176.163 55.9075 175.935 55.8357 175.94 55.4749C175.94 55.1859 175.889 54.86 176.228 54.7243C177.025 54.4081 177.391 53.766 177.572 52.9785C177.75 52.2239 178.34 52.4761 178.817 52.4625C179.426 52.4451 179.255 52.9591 179.201 53.2384C179.027 54.2626 179.645 54.1928 180.328 54.218C180.785 54.2354 181.53 53.8009 181.539 54.8853C181.539 55.6767 181.347 55.9366 180.535 55.9114C179.019 55.8629 179.24 55.6825 179.221 57.2265C179.212 57.9701 179.212 58.713 179.221 59.4553C179.234 60.5028 179.51 60.7161 180.564 60.6832C180.902 60.6832 181.508 60.173 181.556 61.0498C181.593 61.7151 181.65 62.3455 180.689 62.4076C180.113 62.4483 179.537 62.5705 178.973 62.4813C177.708 62.2873 177.079 61.5735 176.967 60.1536C176.917 59.5116 176.967 58.8617 176.967 58.2139L176.969 58.2294Z" fill="#66AA49"/>
<path d="M153.647 60.0703C153.803 62.1148 153.576 62.4096 151.684 62.5066C150.192 62.5842 148.722 62.4019 147.96 60.8986C147.062 59.1314 147.041 57.2538 148.114 55.5526C149.104 53.9795 150.737 53.9096 152.388 54.09C152.546 54.1156 152.702 54.1525 152.855 54.2006C153.213 54.2995 153.764 54.2937 153.814 54.67C153.887 55.1569 153.586 55.6554 153.315 56.088C153.123 56.3789 152.849 56.15 152.624 56.088C151.714 55.8319 150.793 55.5584 150.091 56.4895C149.49 57.2829 149.515 59.337 150.104 60.0897C150.762 60.9179 151.651 60.6988 152.494 60.53C152.864 60.4563 153.204 60.2526 153.647 60.0703Z" fill="#66AA49"/>
<path d="M29.9288 56.7299C29.9288 58.3437 29.9 59.9595 29.9441 61.5792C29.9595 62.2155 29.7694 62.4676 29.1418 62.3784C28.9197 62.3464 28.6941 62.3464 28.472 62.3784C27.8654 62.4579 27.6428 62.2543 27.6485 61.5928C27.6805 58.3004 27.6805 55.0087 27.6485 51.7175C27.6485 51.1259 27.8136 50.8757 28.4067 50.9552C28.5977 50.9825 28.7915 50.9825 28.9825 50.9552C29.7234 50.8408 29.9767 51.1123 29.9422 51.8979C29.8846 53.5021 29.9288 55.116 29.9288 56.7299Z" fill="#66AA49"/>
<path d="M167.443 55.5352C168.21 54.5906 168.978 54.0028 170.064 54.0184C170.552 54.0184 170.786 54.1522 170.667 54.6934C170.609 54.9791 170.589 55.2713 170.606 55.5624C170.625 56.0202 170.444 56.1443 169.988 56.1598C168.183 56.2355 167.671 56.7961 167.663 58.5923C167.663 59.5932 167.636 60.5941 167.673 61.5931C167.696 62.1614 167.554 62.466 166.938 62.369C166.906 62.367 166.874 62.367 166.842 62.369C165.406 62.3923 165.406 62.3923 165.406 60.9762C165.406 59.0365 165.389 57.0967 165.422 55.157C165.422 54.8253 165.101 54.2104 165.832 54.2085C166.408 54.2085 167.176 53.8768 167.291 54.9068C167.33 55.1188 167.381 55.3286 167.443 55.5352Z" fill="#66AA49"/>
<path d="M75.2971 56.6408C75.2971 58.2837 75.2683 59.9286 75.3105 61.5697C75.3278 62.2078 75.1301 62.4503 74.5063 62.3708C74.2204 62.3417 73.9323 62.3417 73.6464 62.3708C73.2395 62.4038 73.084 62.2525 73.086 61.8257C73.0975 58.4105 73.0975 54.9946 73.086 51.578C73.086 51.1319 73.2088 50.9069 73.681 50.9554C73.9034 50.9825 74.1283 50.9825 74.3508 50.9554C75.0994 50.8428 75.3431 51.1357 75.3105 51.9078C75.2568 53.479 75.2971 55.0599 75.2971 56.6408Z" fill="#63A946"/>
<path d="M124.571 56.6951C124.571 58.3361 124.546 59.9791 124.585 61.6201C124.598 62.2176 124.41 62.5085 123.838 62.3495C123.347 62.2137 122.431 62.8286 122.41 61.8568C122.335 58.4137 122.383 54.9668 122.375 51.5199C122.375 51.1164 122.515 50.9263 122.932 50.9515C123.251 50.9789 123.572 50.9789 123.892 50.9515C124.454 50.8894 124.592 51.1455 124.585 51.675C124.571 53.3432 124.571 55.0192 124.571 56.6951Z" fill="#63A946"/>
<path d="M174.432 58.3536C174.432 59.4457 174.397 60.5416 174.447 61.6337C174.476 62.2505 174.255 62.4562 173.679 62.365C173.648 62.363 173.616 62.363 173.585 62.365C171.858 62.3359 172.174 62.5745 172.157 60.9664C172.138 59.0053 172.188 57.0404 172.134 55.0793C172.113 54.3325 172.353 54.1579 173.052 54.1812C174.424 54.2239 174.424 54.1812 174.424 55.5545C174.433 56.4875 174.432 57.4167 174.432 58.3536Z" fill="#66AA49"/>
<path d="M194.003 61.2959C194.003 62.0543 193.521 62.5373 192.745 62.5509C191.97 62.5645 191.461 62.1125 191.438 61.3541C191.415 60.5335 191.909 60.035 192.734 60.0486C193.513 60.0661 194.003 60.5471 194.003 61.2959Z" fill="#66AA49"/>
<path d="M87.4904 60.0545C88.2715 60.0777 88.7111 60.5433 88.6976 61.3366C88.6842 62.13 88.2178 62.5626 87.4289 62.5567C86.6094 62.5567 86.1295 62.0466 86.166 61.228C86.2006 60.4676 86.6919 60.0331 87.4904 60.0545Z" fill="#66AA49"/>
<path d="M174.518 52.096C174.499 52.8719 174.004 53.2017 173.273 53.1803C172.603 53.1609 172.121 52.8855 172.109 52.0863C172.109 51.2309 172.624 50.9613 173.342 50.971C174.023 50.9807 174.511 51.2736 174.518 52.096Z" fill="#66AA49"/>
</g>
<defs>
<clipPath id="clip0_9_33537">
<rect width="194" height="66" fill="white"/>
</clipPath>
</defs>
</svg>
