<svg xmlns="http://www.w3.org/2000/svg" width="194" height="66" fill="none" viewBox="0 0 194 66"><g clip-path="url(#a)"><path fill="#65666a" d="M59.632 18.04c0-5.135.014-10.271-.015-15.408 0-.725.14-.991.93-.983q5.898.068 11.797 0c.804-.01.93.271.927.99q-.033 14.926 0 29.848c0 .619-.105.97-.767 1.199-8.903 3.033-17.546 6.71-26.039 10.75a2.06 2.06 0 0 1-1.727.1c-5.676-2.048-8.397-6.311-9.046-12.171-.213-1.94-.173-3.88-.175-5.806 0-7.978 0-15.956-.017-23.937 0-.73.146-.983.93-.97q5.898.069 11.797 0c.768 0 .939.23.937.97q-.037 13.228-.015 26.455c0 .388-.012.776.015 1.164.201 2.9 1.668 4.461 4.581 4.746 1.69.167 3.395.057 5.05-.326.634-.145.862-.42.858-1.111-.034-5.175-.02-10.343-.02-15.51M14.626 46.023C9.814 45.97 5.16 45.148.714 43.227c-.7-.3-.89-.552-.549-1.328 1.25-2.823 2.426-5.682 3.595-8.535.221-.54.384-.642.943-.369 3.167 1.533 6.5 2.483 10.06 2.427 1.172-.018 2.281-.293 3.249-.995a3.2 3.2 0 0 0 .942-1.02 3.23 3.23 0 0 0-.49-3.888c-.746-.79-1.69-1.26-2.667-1.672-2.388-1-4.885-1.72-7.202-2.91a16.9 16.9 0 0 1-4.92-3.64C-.532 16.692-.6 5.953 8.272 1.909 11.365.499 14.636 0 17.98.015c4.647.014 9.15.802 13.422 2.751.705.322.866.57.513 1.325a198 198 0 0 0-3.28 7.421c-.28.666-.523.672-1.106.369-2.985-1.552-6.115-2.477-9.509-1.856-2.207.403-3.409 1.842-3.242 3.747.12 1.358.96 2.206 2.021 2.898 1.49.97 3.198 1.45 4.841 2.064 1.858.694 3.703 1.412 5.434 2.4 4.468 2.55 6.606 6.4 6.32 11.593-.274 4.962-2.535 8.638-6.942 10.912-2.722 1.404-5.656 1.984-8.668 2.234-1.048.086-2.105.099-3.16.15"/><path fill="#9d9da0" d="M148.309 31.31c0 3.456-.017 6.911.018 10.368 0 .669-.223.95-.826 1.177-4.192 1.577-8.547 2.316-12.986 2.663-3.024.27-6.066.262-9.088-.023-4.102-.432-8.006-1.424-11.09-4.426-2.62-2.553-3.682-5.833-3.985-9.395-.192-2.182-.131-2.213 1.988-2.84 3.428-1.01 6.876-1.959 10.3-2.99.812-.245.929.027.911.742a57 57 0 0 0 .025 3.686c.098 2.308 1.536 3.938 3.778 4.343 1.881.34 3.748.128 5.62-.109.75-.095 1.003-.409.994-1.187-.042-3.164 0-6.33-.035-9.495 0-.694.162-1.016.879-1.164q6.334-1.257 12.651-2.61c.724-.158.866 0 .86.698-.027 3.52-.014 7.041-.014 10.562"/><path fill="#65666a" d="M96.87 0c3.838.06 7.552.708 10.986 2.591.631.346.693.633.41 1.261a425 425 0 0 0-3.504 8.056c-.231.543-.401.648-.948.32-1.851-1.11-3.904-1.418-6.008-1.21-2.656.26-4.57 1.726-5.808 4.073-1.691 3.205-1.824 6.667-1.514 10.186.019.225.086.446.09.67.01.631.6 1.357.192 1.815-.373.41-1.167.428-1.776.62a9507 9507 0 0 0-10.59 3.37c-.4.126-.747.37-.914-.324-1.87-7.726-1.737-15.28 2.358-22.307C83.132 3.495 88.29.687 94.669.109c.576-.053 1.151-.078 1.727-.111.152.002.315.002.474.002"/><path fill="#9d9da0" d="M192.643 29.484c0 4.94-.015 9.883.017 14.824 0 .791-.192 1.043-1.002 1.036a534 534 0 0 0-11.698 0c-.768 0-.96-.225-.96-.98q.034-14.242 0-28.485c0-.724.167-.97.935-1.05 3.742-.388 7.485-.845 11.215-1.28.157-.017.32 0 .476-.039.779-.153 1.04.119 1.032.959-.034 5.002-.015 10.009-.015 15.015M165.772 31.065c0 4.426-.014 8.853.015 13.28 0 .73-.148 1.006-.942.998-3.935-.042-7.87-.037-11.803 0-.715 0-.919-.194-.917-.925q.039-12.261 0-24.524c0-.708.215-.898.894-1.013 3.839-.642 7.664-1.358 11.496-2.04 1.203-.216 1.257-.163 1.257 1.043q.003 6.59 0 13.18"/><path fill="#65666a" d="M152.123 9.066c0-1.614.042-3.23-.019-4.85-.029-.775.192-1.134.937-1.388 4.568-1.552 9.27-2.378 14.065-2.687a51.3 51.3 0 0 1 9.282.171c1.428.165 1.436.126 1.13 1.501-.65 2.924-1.322 5.843-1.946 8.772-.146.685-.343.84-1.067.632a15.8 15.8 0 0 0-7.583-.234c-.837.168-1.357.475-1.167 1.454.17.885-.192 1.195-1.11 1.283-3.877.366-7.744.818-11.612 1.284-.71.085-.96-.03-.927-.807.058-1.71.017-3.42.017-5.13M109.895 12.104c0-3.199.019-6.401-.015-9.596 0-.689.192-.861.863-.856q5.995.045 11.993 0c.654 0 .798.214.796.827q-.028 8.24 0 16.488c0 .632-.232.826-.789.94-3.938.823-7.869 1.634-11.798 2.541-.992.23-1.081-.079-1.069-.93.044-3.147.019-6.28.019-9.414"/><path fill="#9d9da0" d="M97.382 45.718c-5.759 0-10.384-1.49-14.271-5.044-.167-.15-.328-.308-.501-.45-.495-.409-.555-.673.15-.954a391 391 0 0 1 13.172-4.985c.293-.121.616-.15.925-.083a9.5 9.5 0 0 0 6.937-1.013c.545-.305.724-.217.96.337q1.727 4.2 3.526 8.363c.263.603.169.921-.402 1.235a20.5 20.5 0 0 1-7.533 2.375c-1.18.137-2.357.254-2.963.219"/><path fill="#65666a" d="M133.955 9.662c0-2.388.016-4.776 0-7.162 0-.582.065-.855.756-.85q6.418.051 12.837 0c.672 0 .777.255.768.844-.019 4.097-.025 8.196 0 12.293 0 .64-.171.907-.806.995q-6.433.9-12.879 1.846c-.591.09-.691-.066-.685-.61.028-2.453.009-4.905.009-7.356"/><path fill="#63a946" d="M185.204 12.112c-1.505.085-3.515.18-5.521.33-.504.036-.679-.063-.675-.583q.027-4.789 0-9.58c0-.462.146-.611.603-.61q6.224.022 12.452 0c.48 0 .576.195.576.635a808 808 0 0 0 0 8.809c0 .582-.226.684-.729.702-2.06.064-4.131.176-6.706.297"/><path fill="#66aa49" d="M103.33 62.365c-.833 0-1.493-.022-2.153 0-.413.017-.534-.276-.703-.547-.61-.984-1.265-1.94-1.821-2.958-.313-.57-.749-.685-1.27-.565-.567.132-.264.644-.285.97a24 24 0 0 0 0 2.423c.017.487-.117.665-.637.682-1.659.05-1.659.074-1.659-1.569 0-2.778.018-5.557-.013-8.34 0-.625.154-.854.795-.811 1.399.095 2.81-.128 4.201.194 1.184.277 2.06.898 2.303 2.162.263 1.343-.015 2.547-1.239 3.298-.611.37-.496.636-.166 1.105.864 1.25 1.686 2.518 2.647 3.956m-6.309-7.43c.352.458-.545 1.473.768 1.46 1.418-.018 2.046-.424 2.063-1.417s-.647-1.468-2.12-1.46c-1.239.003-.361.989-.71 1.417M65.86 55.11c.98-1.074 2.138-1.385 3.422-.865s1.758 1.715 1.9 3.017a9.3 9.3 0 0 1 0 2.027c-.334 2.994-2.812 4.12-5.336 2.327 0 1.234-.032 2.4.014 3.562.026.632-.162.841-.799.824-1.746-.05-1.46.126-1.468-1.511q-.02-4.644.011-9.288c0-.343-.299-.97.384-.97.603 0 1.484-.455 1.682.674.01.042.076.08.19.203m3.07 2.922a7 7 0 0 0-.109-.997c-.163-.734-.606-1.224-1.391-1.21-.785.013-1.302.399-1.474 1.233a5.33 5.33 0 0 0 .103 2.67c.192.622.655.91 1.303.934.288.032.578-.036.822-.193.245-.157.429-.393.522-.67.202-.49.223-1.001.232-1.767z"/><path fill="#63a946" d="M8.56 62.223c-1.818.582-2.905-.093-3.58-1.69-.261-.614-.75-1.128-1.043-1.735-.291-.608-.729-.57-1.205-.505-.618.087-.319.607-.345.933-.048.582-.014 1.164-.014 1.746 0 1.325-.654 1.783-1.93 1.39-.31-.096-.294-.29-.294-.515v-9.594c0-.312.017-.582.44-.572 1.494.062 3.001-.15 4.49.182 1.233.273 2.112.947 2.36 2.235s-.083 2.477-1.25 3.206c-.576.359-.541.617-.204 1.1.878 1.257 1.716 2.54 2.574 3.82m-6.231-7.31c.282.506-.526 1.551.844 1.485 1.415-.066 2.037-.477 2.02-1.492-.018-.958-.676-1.373-2.112-1.394-1.228-.016-.481.933-.752 1.4"/><path fill="#66aa49" d="M36.295 57.029c0-1.552.021-3.104-.01-4.656-.011-.545.154-.737.703-.716 1.151.041 2.303-.015 3.455.041 2.034.1 3.205 1.265 3.272 3.183.07 1.97-1.142 3.362-3.128 3.596-.096.012-.192.016-.288.024-1.712.126-1.712.126-1.712 1.833q-.03.387 0 .776c.15.97-.162 1.336-1.204 1.284-.83-.043-1.169-.182-1.111-1.11.088-1.406.023-2.832.023-4.255m2.288-1.973q.03.336 0 .673c-.192.97.347 1.078 1.086.96q.236-.036.467-.093c.96-.244 1.416-.925 1.241-1.843s-.96-1.39-2.259-1.23c-1.015.127-.318.97-.528 1.436a.3.3 0 0 0-.007.097M186.372 59.694c.538-1.623 1.071-2.997 1.44-4.415.23-.894.639-1.232 1.522-1.092q.627.045 1.253 0c-.347.935-.654 1.773-.959 2.61-.835 2.23-1.649 4.46-2.517 6.685-.71 1.816-2.199 2.677-3.892 2.458-.893-.116-.576-.727-.647-1.21-.086-.639.29-.623.756-.627 1.459-.013 2.225-1.208 1.684-2.574q-1.296-3.22-2.584-6.44c-.103-.264-.276-.51-.234-.818 2.282-.247 2.282-.247 2.992 1.887.365 1.086.728 2.18 1.186 3.536M133.585 62.538a9.1 9.1 0 0 1-2.609-.388c-.441-.134-.67-.346-.675-.879-.016-1.476-.046-1.478 1.324-1.016.768.258 1.535.455 2.347.335.494-.074.927-.28 1.06-.836.132-.557-.161-.952-.593-1.208-.743-.437-1.536-.801-2.275-1.232-.896-.518-1.556-1.238-1.673-2.328-.192-1.746.637-2.91 2.343-3.328 1.361-.338 2.653-.066 3.933.413.411.155.424.335.284.718-.439 1.212-.42 1.216-1.601.874a4.6 4.6 0 0 0-1.41-.227c-.576.014-1.1.113-1.285.767-.184.653.175 1.045.686 1.332.863.485 1.773.898 2.593 1.445 1.176.776 1.574 2.173 1.09 3.492-.384 1.03-1.184 1.579-2.186 1.846q-.67.153-1.353.22M23.382 61.296c-1.038 1.112-2.211 1.453-3.56 1.1-1.046-.271-1.603-.999-1.728-2.178-.111-1.121.355-2.012 1.325-2.454.892-.407 1.85-.444 2.811-.477.346 0 .943.258.93-.46 0-.557-.271-.997-.887-1.086a3.66 3.66 0 0 0-2.062.297c-.944.434-.879-.446-1.132-.854-.348-.562.192-.64.52-.758a6.2 6.2 0 0 1 3.856-.221c1.223.343 1.843 1.07 1.895 2.354.065 1.643.057 3.298.046 4.937 0 .295.24.83-.317.836-.501 0-1.19.378-1.457-.462-.042-.147-.117-.287-.24-.574m-1.03-2.665c-1.323.054-1.987.495-1.945 1.302.038.762.55.935 1.206.902a1.56 1.56 0 0 0 1.156-.502 1.6 1.6 0 0 0 .425-1.198c-.01-.739-.522-.455-.843-.502zM120.106 59.222c0 .743.029 1.488-.013 2.23-.018.32.27.888-.375.89-.506 0-1.201.339-1.424-.516-.157-.6-.397-.402-.698-.103-.747.739-1.689.884-2.67.776-1.244-.14-1.993-.935-2.1-2.134-.131-1.472.332-2.26 1.597-2.716.827-.302 1.687-.314 2.551-.349.318-.013.846.237.858-.428.009-.538-.192-.97-.753-1.09a3.38 3.38 0 0 0-2.155.261c-1.006.452-.933-.485-1.183-.917-.355-.615.308-.582.59-.693a6.06 6.06 0 0 1 3.67-.256c1.378.345 2.024 1.164 2.09 2.634.036.805 0 1.614 0 2.421zm-3.919 1.614c1.065 0 1.773-.766 1.656-1.78-.029-.255-.069-.448-.37-.435-.601.027-1.215-.027-1.776.27s-.662.764-.547 1.313.559.638 1.037.632M160.958 61.41c-.986 1.015-2.155 1.317-3.5.988-1.004-.247-1.657-.873-1.82-1.886-.317-1.951-.081-3.924-.138-5.889 0-.347.201-.398.493-.432 1.674-.204 1.752-.138 1.754 1.563 0 1.129-.027 2.258.021 3.385.033.776.215 1.495 1.212 1.552.93.048 1.478-.338 1.691-1.329.303-1.4.12-2.828.122-4.242 0-.675.104-.97.874-.94 1.698.086 1.399-.174 1.414 1.444q.027 2.91 0 5.806c0 .341.282.958-.443.92-.551-.03-1.363.397-1.484-.668-.019-.084-.113-.153-.196-.272M57.77 54.026c2.495-.012 4.019 1.6 4.03 4.242 0 2.611-1.481 4.233-3.91 4.258-2.427.025-3.988-1.61-4-4.268-.01-2.657 1.402-4.222 3.88-4.232m1.727 4.143a3.7 3.7 0 0 0-.192-1.245c-.26-.844-.875-1.148-1.689-1.069-.906.09-1.33.67-1.42 1.85-.129 1.694.228 2.658 1.08 2.91q.139.036.28.047c1.31.157 1.941-.623 1.941-2.493M49.986 58.856c-.67 0-1.344.033-2.012-.01-.668-.042-.71.28-.53.763.11.34.322.638.606.852.284.215.626.337.98.348.734.04 1.47-.044 2.176-.252.283-.074.72-.535.847-.05s.372 1.228-.215 1.497a5.54 5.54 0 0 1-4.735.072c-1.313-.582-1.962-1.71-2.025-3.15a8.5 8.5 0 0 1 .077-1.928c.414-2.177 2.364-3.371 4.65-2.91 1.933.388 3.102 2.244 2.78 4.33-.066.42-.283.434-.586.434q-1.007 0-2.013.004m-1.123-1.53q.24.03.478 0c.36-.093.96.294 1.052-.257s-.26-1.05-.826-1.291c-.65-.276-1.263-.194-1.758.324-.267.277-.508.661-.368 1.045s.558.13.85.179q.286.023.572 0M145.542 60.268c.24 1.728.146 1.868-1.428 2.134a7 7 0 0 1-1.046.124c-1.604.02-3.117-.284-3.956-1.841-.867-1.612-.817-3.313.035-4.921.827-1.564 2.963-2.18 4.816-1.488 1.535.57 2.382 2.308 2.111 4.147-.075.506-.374.433-.681.435-1.279 0-2.561.035-3.839-.012-.768-.027-.799.274-.547.857.315.74.883 1.056 1.647 1.12 1.009.085 1.946-.247 2.888-.555m-3.165-2.943q.24.035.478 0c.353-.108.941.322 1.039-.28.092-.567-.261-1.045-.83-1.276-.656-.265-1.259-.178-1.748.358-.263.288-.507.682-.369 1.043.139.36.561.118.856.157q.287.018.574-.002M84.176 60.249c.12 1.895.12 1.898-1.639 2.18q-.52.09-1.046.095c-1.612-.01-3.098-.388-3.862-1.983a5 5 0 0 1 .242-4.987c.898-1.46 3.054-1.963 4.799-1.227 1.456.61 2.291 2.387 1.99 4.116-.088.508-.407.407-.703.409-1.276 0-2.552.037-3.827 0-.767-.027-.787.28-.541.86.315.736.881 1.052 1.643 1.116 1.02.08 1.954-.242 2.944-.58m-3.182-2.924q.239.022.478 0c.345-.068.879.231 1.004-.215.15-.526-.18-1.013-.668-1.27-.65-.346-1.304-.313-1.85.234-.302.3-.567.72-.411 1.116.117.298.576.106.871.137.192.014.384-.002.576-.002M111.022 60.245c.161 1.856.131 1.899-1.599 2.18q-.476.086-.96.1c-1.57 0-3.051-.296-3.882-1.805-.904-1.64-.843-3.373.036-5.004.839-1.552 3.002-2.134 4.835-1.424 1.505.582 2.415 2.475 2.065 4.18-.103.506-.441.374-.727.378-1.28.012-2.559.031-3.839 0-.693-.02-.756.264-.53.811.124.336.344.626.633.834s.633.322.987.33c1.021.083 1.968-.208 2.981-.58m-3.167-2.92q.239.023.478 0c.345-.067.883.231 1.008-.21.147-.525-.192-1.013-.672-1.275-.651-.347-1.307-.31-1.854.229-.302.296-.565.723-.407 1.12.119.301.576.106.871.139.19.015.384-.002.576-.002M16.3 60.25c.173 1.865.15 1.886-1.536 2.18a6.2 6.2 0 0 1-2.568-.067c-1.39-.343-2.326-1.195-2.687-2.6a5.75 5.75 0 0 1 .11-3.34c.652-1.92 2.616-2.818 4.798-2.244s2.564 2.566 2.472 4.268c-.029.518-.403.403-.698.407-1.279 0-2.56.037-3.84 0-.782-.03-.786.36-.554.885.315.712.893 1.05 1.668 1.094.97.04 1.892-.206 2.835-.582m-3.054-2.925q.192.021.384 0c.37-.08.987.262 1.071-.234.098-.572-.273-1.098-.889-1.34a1.47 1.47 0 0 0-1.535.193c-.369.287-.649.72-.52 1.164.128.445.604.142.92.206q.284.033.57.011M176.969 58.23v-1.65c0-.376.012-.73-.524-.692-.282.02-.51-.052-.505-.413 0-.29-.051-.615.288-.75.797-.317 1.163-.959 1.344-1.747.178-.754.768-.502 1.245-.516.609-.017.438.497.384.776-.174 1.025.444.955 1.127.98.457.017 1.202-.417 1.211.667 0 .792-.192 1.052-1.004 1.026-1.516-.048-1.295-.229-1.314 1.316a92 92 0 0 0 0 2.228c.013 1.048.289 1.261 1.343 1.228.338 0 .944-.51.992.367.037.665.094 1.296-.867 1.358-.576.04-1.152.163-1.716.073-1.265-.194-1.894-.907-2.006-2.327-.05-.642 0-1.292 0-1.94zM153.647 60.07c.156 2.045-.071 2.34-1.963 2.437-1.492.077-2.962-.105-3.724-1.608-.898-1.768-.919-3.645.154-5.346.99-1.573 2.623-1.643 4.274-1.463q.237.04.467.11c.358.1.909.094.959.47.073.487-.228.985-.499 1.418-.192.29-.466.062-.691 0-.91-.256-1.831-.53-2.533.401-.601.794-.576 2.848.013 3.6.658.829 1.547.61 2.39.441.37-.074.71-.277 1.153-.46M29.929 56.73c0 1.614-.029 3.23.015 4.85.015.636-.175.888-.802.798a2.4 2.4 0 0 0-.67 0c-.607.08-.83-.124-.824-.785q.048-4.939 0-9.876c0-.591.166-.841.759-.762q.287.042.576 0c.74-.114.994.157.96.943-.058 1.604-.014 3.218-.014 4.832M167.443 55.535c.767-.944 1.535-1.532 2.621-1.517.488 0 .722.134.603.675a3.4 3.4 0 0 0-.061.87c.019.457-.162.581-.618.597-1.805.076-2.317.636-2.325 2.432 0 1.001-.027 2.002.01 3.001.023.568-.119.873-.735.776a1 1 0 0 0-.096 0c-1.436.023-1.436.023-1.436-1.393 0-1.94-.017-3.88.016-5.819 0-.332-.321-.947.41-.948.576 0 1.344-.332 1.459.698q.059.319.152.628"/><path fill="#63a946" d="M75.297 56.64c0 1.644-.029 3.289.014 4.93.017.638-.18.88-.805.8a4.3 4.3 0 0 0-.86 0c-.406.034-.562-.117-.56-.544q.016-5.123 0-10.248c0-.446.123-.671.595-.623q.334.042.67 0c.748-.112.992.18.96.953-.054 1.571-.014 3.152-.014 4.733M124.571 56.695c0 1.641-.025 3.284.014 4.925.013.598-.175.889-.747.73-.491-.136-1.407.479-1.428-.493-.075-3.443-.027-6.89-.035-10.337 0-.404.14-.594.557-.569q.48.042.96 0c.562-.062.7.194.693.724-.014 1.668-.014 3.344-.014 5.02"/><path fill="#66aa49" d="M174.432 58.354c0 1.092-.035 2.188.015 3.28.029.617-.192.822-.768.731a1 1 0 0 0-.094 0c-1.727-.03-1.411.21-1.428-1.399-.019-1.96.031-3.926-.023-5.887-.021-.746.219-.921.918-.898 1.372.043 1.372 0 1.372 1.374.009.932.008 1.862.008 2.799M194.003 61.296c0 .758-.482 1.241-1.258 1.255-.775.014-1.284-.439-1.307-1.197-.023-.82.471-1.319 1.296-1.305.779.017 1.269.498 1.269 1.247M87.49 60.055c.782.023 1.221.488 1.208 1.282-.014.793-.48 1.226-1.27 1.22-.819 0-1.299-.51-1.262-1.329.035-.76.526-1.195 1.324-1.174M174.518 52.096c-.019.776-.514 1.106-1.245 1.084-.67-.02-1.152-.294-1.164-1.094 0-.855.515-1.125 1.233-1.115.681.01 1.169.303 1.176 1.125"/></g><defs><clipPath id="a"><path fill="#fff" d="M0 0h194v66H0z"/></clipPath></defs></svg>