<svg xmlns="http://www.w3.org/2000/svg" width="102" height="83" fill="none" viewBox="0 0 102 83"><path fill="#005bea" d="M95.9 45.61a1.6 1.6 0 0 1-.8-.216l-40.48-24a1.6 1.6 0 0 1-.8-1.39V6.957a1.606 1.606 0 0 1 2.408-1.39l40.48 24a1.61 1.61 0 0 1 .8 1.39v13.048a1.606 1.606 0 0 1-1.606 1.606zM57.025 19.077l37.27 22.145v-9.345L57.024 9.733zM100.3 70.638c-.28 0-.556-.074-.8-.215L54.62 44.511a1.6 1.6 0 0 1-.8-1.39V30.073a1.606 1.606 0 0 1 2.408-1.39l44.88 25.911a1.6 1.6 0 0 1 .8 1.39v13.048a1.6 1.6 0 0 1-.991 1.484c-.195.081-.404.122-.615.122zM57.025 42.2l41.67 24.057v-9.34L57.024 32.86zM70.611 76.91a1.6 1.6 0 0 1-.8-.214l-15.19-9.07a1.61 1.61 0 0 1-.8-1.39v-13.05a1.606 1.606 0 0 1 2.407-1.39l15.191 9.07a1.6 1.6 0 0 1 .8 1.39v13.049a1.606 1.606 0 0 1-1.606 1.606zm-13.585-11.6 11.98 7.216v-9.34l-11.98-7.216z"/><path fill="#1b69ff" d="M19.038 50.89c.28 0 .556.075.8.216L47.281 66.95a1.6 1.6 0 0 1 .8 1.39v13.048a1.606 1.606 0 0 1-2.408 1.39L18.237 66.936a1.6 1.6 0 0 1-.8-1.39v-13.05a1.606 1.606 0 0 1 1.607-1.605zm25.84 18.379L20.642 55.278v9.34l24.234 13.99zM1.602 17.71c.281.001.557.075.8.216l44.88 25.912a1.6 1.6 0 0 1 .8 1.39v13.048a1.607 1.607 0 0 1-2.408 1.39L.794 33.755a1.6 1.6 0 0 1-.8-1.391V19.317A1.606 1.606 0 0 1 1.6 17.711zm43.275 28.445L3.208 22.098v9.34l41.67 24.057zM10.965 0c.281 0 .557.074.8.215l35.517 20.5a1.6 1.6 0 0 1 .8 1.391v13.049a1.607 1.607 0 0 1-2.408 1.39l-35.509-20.5a1.6 1.6 0 0 1-.8-1.39V1.605A1.606 1.606 0 0 1 10.971 0zM44.88 23.038 12.574 4.387v9.34L44.88 32.38z"/></svg>