<svg xmlns="http://www.w3.org/2000/svg" width="65" height="113" fill="none" viewBox="0 0 65 113"><path fill="#cee7fd" stroke="#005bea" stroke-width="2" d="M6.934 34.188c.996-4.899 3.602-6.357 7.22-5.685.248.046.528-.244.55-.6.115-1.866.15-3.803.218-5.878l-4.798-3.788v-6.83l5.357 4.229 1.016-5.206 4.819 5.897-.562 3.377 4.794 3.785v6.82l-5.456-4.307-.27 4.886 5.329 4.207.527-2.6 4.72 5.042q.087.226.123.467c-.78 2.135.08 4.16 1.66 7.067 6.12 11.25 5.612 23.06-.847 23.656-2.427.224-5.965-1.341-8.762-3.917v-7.024a42 42 0 0 0 4.05 2.145c.799.344 1.684.43 2.533.248 3.272-.825 2.87-7.337-.646-12.712a48 48 0 0 1-3.507 5.258c-2.316 2.64-5.379 3.049-9.281.672-4.361-2.653-7.406-7.936-8.626-15.027a5 5 0 0 0-.161-.56zm8.58 11.508-.739-9.178a9 9 0 0 0-1.977 1.285c-.718.782-1.097 2.041-.447 4.212a5.8 5.8 0 0 0 3.158 3.681zm4.735-.427.37.475 2.929-4.37-3.712-2.93c.144 2.44.276 4.635.41 6.825z"/><path fill="#1b69ff" d="m58.61 103.122-5.507-4.346c-.613-2.966-1.276-5.998-1.839-8.992a3.26 3.26 0 0 0-1.295-2.32 317 317 0 0 1-7.914-6.254c-.764-.625-1.136-.617-1.376.279-.557 2.077-1.214 4.03-1.828 6.032l-5.45-4.304c.412-1.267.797-2.467 1.19-3.658 2.83-8.593 5.67-17.172 8.478-25.795.236-.73.503-.915 1.213-.299 1.247 1.085 2.503 1.961 3.753 3.024.378.377.658.84.816 1.35q4.926 22.512 9.788 45.006 0 .14-.029.277M49.443 80.87c-1.126-5.617-2.233-11.097-3.438-17.078l-3.442 11.647z"/></svg>