<svg xmlns="http://www.w3.org/2000/svg" width="155" height="130" fill="none" viewBox="0 0 155 130"><g clip-path="url(#a)"><path fill="#fff" d="M37.902 72.66v.605c-.012-.006-.019-.013-.03-.019q.033-.291.03-.586"/><path fill="#cee7fd" d="M37.872 73.247c-.281 2.527-2.033 5.026-5.383 6.96-7.216 4.168-18.924 4.168-26.14 0-2.925-1.683-4.662-3.8-5.22-5.987a6.3 6.3 0 0 1-.193-1.56c0-2.731 1.8-5.463 5.414-7.546 7.217-4.168 18.924-4.168 26.14 0 3.6 2.082 5.414 4.814 5.414 7.546q0 .294-.032.587"/><path fill="#fff" d="m1.129 74.22-.193.112V72.66c0 .526.064 1.05.193 1.56"/><path fill="#005bea" d="M19.419 92.981A27.7 27.7 0 0 1 5.88 89.75c-3.792-2.194-5.882-5.162-5.882-8.357a.936.936 0 1 1 1.87 0c0 2.5 1.758 4.892 4.948 6.737 6.948 4.011 18.255 4.011 25.2 0 3.19-1.848 4.946-4.24 4.946-6.737a.935.935 0 1 1 1.87 0c0 3.191-2.087 6.16-5.88 8.356a27.7 27.7 0 0 1-13.535 3.233"/><path fill="#005bea" d="M19.42 84.25a27.7 27.7 0 0 1-13.538-3.232C2.832 79.262.874 76.99.223 74.453A7.3 7.3 0 0 1 0 72.66c0-3.2 2.09-6.17 5.882-8.358 7.465-4.31 19.611-4.31 27.076 0 3.793 2.192 5.882 5.16 5.882 8.358q.003.354-.039.706c-.271 2.9-2.347 5.633-5.843 7.65A27.7 27.7 0 0 1 19.42 84.25m0-21.335a25.8 25.8 0 0 0-12.6 3.009c-3.189 1.84-4.946 4.233-4.946 6.738 0 .448.055.895.165 1.33.523 2.036 2.176 3.906 4.781 5.406 6.95 4.012 18.258 4.012 25.206 0 2.956-1.707 4.7-3.922 4.92-6.238a4 4 0 0 0 .026-.5c0-2.5-1.756-4.894-4.947-6.738a25.8 25.8 0 0 0-12.605-3.007"/><path fill="#005bea" d="M37.903 82.312a.92.92 0 0 1-.936-.917v-8.732a.936.936 0 0 1 1.87 0v8.694a.953.953 0 0 1-.934.955m-36.967 0A.92.92 0 0 1 0 81.395v-8.732a.936.936 0 0 1 1.871 0v8.694a.95.95 0 0 1-.935.955M16.82 68.2l9.032 5.212-2.555 1.475-7.056-4.074-1.677.968-1.974-1.139z"/><path fill="#fff" d="M120.603 87.055v.6c-.012-.006-.019-.012-.031-.02a5 5 0 0 0 .031-.58"/><path fill="#fff" d="M120.572 87.64c-.281 2.527-2.033 5.027-5.383 6.961-7.216 4.166-18.923 4.166-26.14 0-2.926-1.684-4.663-3.8-5.221-5.988a6.3 6.3 0 0 1-.193-1.559c0-2.732 1.8-5.464 5.414-7.547 7.217-4.166 18.924-4.166 26.14 0 3.605 2.083 5.414 4.815 5.414 7.547q0 .294-.031.586"/><path fill="#fff" d="m83.828 88.615-.193.112v-1.672c0 .526.064 1.05.193 1.56"/><path fill="#005bea" d="M102.118 107.381a27.7 27.7 0 0 1-13.537-3.232c-3.793-2.194-5.882-5.163-5.882-8.357a.937.937 0 0 1 1.871 0c0 2.5 1.757 4.892 4.947 6.738 6.948 4.01 18.255 4.01 25.2 0 3.189-1.849 4.947-4.242 4.947-6.738a.935.935 0 0 1 1.871 0c0 3.19-2.089 6.159-5.881 8.357a27.7 27.7 0 0 1-13.536 3.232"/><path fill="#005bea" d="M102.119 98.645a27.7 27.7 0 0 1-13.538-3.233c-3.05-1.756-5.008-4.026-5.659-6.565a7.3 7.3 0 0 1-.223-1.792c0-3.2 2.089-6.171 5.883-8.358 7.463-4.309 19.61-4.31 27.075 0 3.793 2.191 5.882 5.16 5.882 8.357q.003.355-.04.706c-.271 2.9-2.347 5.633-5.843 7.651a27.7 27.7 0 0 1-13.537 3.234m0-21.336a25.8 25.8 0 0 0-12.6 3.009c-3.189 1.84-4.947 4.233-4.947 6.738 0 .448.055.895.165 1.33.522 2.036 2.176 3.906 4.78 5.406 6.95 4.01 18.258 4.012 25.206 0 2.956-1.707 4.7-3.921 4.919-6.238q.03-.25.027-.5c0-2.5-1.757-4.894-4.947-6.738a25.8 25.8 0 0 0-12.603-3.007"/><path fill="#005bea" d="M120.604 96.703a.92.92 0 0 1-.936-.917v-8.732a.94.94 0 0 1 .935-.906.935.935 0 0 1 .936.906v8.694a.95.95 0 0 1-.935.955m-13.211-11.221 2.026 1.17-7.031 4.059-1.6-.923.22-3.777a1.57 1.57 0 0 0-.135-.838 1.3 1.3 0 0 0-.5-.48 1.73 1.73 0 0 0-.979-.224 2.5 2.5 0 0 0-1.11.358 1.7 1.7 0 0 0-.7.663.9.9 0 0 0-.039.774l-2.954.485a1.82 1.82 0 0 1 .1-1.653 4.4 4.4 0 0 1 1.755-1.594 8 8 0 0 1 2.161-.86 6.7 6.7 0 0 1 2.2-.16 4.6 4.6 0 0 1 1.9.58c.435.232.804.57 1.071.984.245.48.335 1.024.258 1.557l-.129 1.892z"/><path fill="#1b69ff" d="M153.231 34.59v.6c-.012-.006-.019-.012-.032-.02q.035-.288.032-.58"/><path fill="#1b69ff" d="M153.202 35.172c-.281 2.527-2.033 5.027-5.382 6.961-7.217 4.166-18.924 4.166-26.14 0-2.925-1.684-4.663-3.8-5.221-5.988a6.3 6.3 0 0 1-.193-1.559c0-2.732 1.8-5.464 5.414-7.547 7.216-4.167 18.924-4.167 26.14 0 3.6 2.083 5.414 4.815 5.414 7.547q0 .295-.032.586"/><path fill="#1b69ff" d="m116.453 36.146-.193.112v-1.672c-.001.526.064 1.05.193 1.56"/><path fill="#005bea" d="M134.748 54.911a27.7 27.7 0 0 1-13.538-3.232c-3.793-2.194-5.881-5.162-5.881-8.357a.94.94 0 0 1 .263-.681.93.93 0 0 1 .672-.285.93.93 0 0 1 .873.599.9.9 0 0 1 .063.367c0 2.5 1.756 4.892 4.946 6.736 6.948 4.012 18.255 4.011 25.2 0 3.189-1.848 4.946-4.24 4.946-6.736a.94.94 0 0 1 .262-.681.94.94 0 0 1 1.038-.211.94.94 0 0 1 .508.525.9.9 0 0 1 .063.367c0 3.191-2.087 6.159-5.88 8.356a27.7 27.7 0 0 1-13.535 3.233"/><path fill="#005bea" d="M134.748 46.18a27.7 27.7 0 0 1-13.539-3.233c-3.05-1.755-5.008-4.026-5.659-6.565a7.3 7.3 0 0 1-.222-1.792c0-3.2 2.088-6.17 5.882-8.358 7.464-4.309 19.612-4.31 27.076 0 3.793 2.192 5.881 5.16 5.881 8.357q.003.354-.039.705c-.271 2.905-2.348 5.634-5.842 7.651a27.7 27.7 0 0 1-13.538 3.235m0-21.335a25.8 25.8 0 0 0-12.6 3.01c-3.189 1.84-4.946 4.231-4.946 6.736 0 .448.055.895.164 1.33.523 2.036 2.177 3.906 4.781 5.405 6.95 4.013 18.257 4.012 25.206 0 2.955-1.706 4.7-3.92 4.918-6.237q.03-.25.027-.5c0-2.5-1.757-4.894-4.946-6.737a25.8 25.8 0 0 0-12.604-3.008z"/><path fill="#005bea" d="M153.233 44.237a.92.92 0 0 1-.864-.561.9.9 0 0 1-.072-.355v-8.732a.94.94 0 0 1 .935-.905.935.935 0 0 1 .936.905v8.694a.954.954 0 0 1-.935.954m-36.969 0a.92.92 0 0 1-.936-.916v-8.732a.935.935 0 0 1 1.871 0v8.694a.95.95 0 0 1-.935.954"/><path fill="#fff" d="M138.032 32.287c.796.017 1.576.23 2.271.619a2.28 2.28 0 0 1 1.051 1.106 1.52 1.52 0 0 1-.212 1.4 4.94 4.94 0 0 1-1.769 1.5c-.675.385-1.386.706-2.122.957-.738.261-1.5.447-2.276.555l-.994-1.646a9 9 0 0 0 1.748-.369 7.5 7.5 0 0 0 1.5-.645c.34-.156.62-.417.8-.744q.143-.365-.31-.626a2.23 2.23 0 0 0-2.258.291l-1.071.618-1.612-.931-.129-1.937-3.561 2.057-1.973-1.141 6.527-3.769 1.6.924.141 2.242a6.7 6.7 0 0 1 2.649-.461"/><path fill="#005bea" d="M83.636 96.701a.92.92 0 0 1-.936-.917V87.89l-47.626-5.3a.935.935 0 0 1 .208-1.86l48.458 5.391a.936.936 0 0 1 .832.93v8.694a.95.95 0 0 1-.936.956m28.379-17.808a.933.933 0 0 1-.815-1.393l16.068-28.635a.935.935 0 1 1 1.633.916l-16.069 28.633a.94.94 0 0 1-.817.479"/></g><defs><clipPath id="a"><path fill="#fff" d="M0 0h154.169v130H0z"/></clipPath></defs></svg>