<svg xmlns="http://www.w3.org/2000/svg" width="138" height="110" fill="none" viewBox="0 0 138 110"><g clip-path="url(#a)"><path fill="#fff" d="M131.966 36.868a3.34 3.34 0 0 1 1.935 2.817c0 1.277-.925 2.623-2.734 3.671L63.219 82.805 12.926 53.607l67.949-39.449c3.306-1.919 8.308-2.128 11.176-.465zm-17.203 4.315c1.389-.807 1.54-2.023.337-2.72L86.668 21.955a4.1 4.1 0 0 0-2.04-.47 5.4 5.4 0 0 0-2.65.665c-1.384.803-1.535 2.023-.337 2.722l28.432 16.506a4.1 4.1 0 0 0 2.036.47c.926.01 1.84-.219 2.654-.663zm-9.689 5.624c1.389-.807 1.54-2.023.337-2.722L76.975 27.574a4.14 4.14 0 0 0-2.032-.47 5.43 5.43 0 0 0-2.654.67c-1.389.802-1.54 2.023-.337 2.722l28.431 16.506a4.1 4.1 0 0 0 2.036.47 5.4 5.4 0 0 0 2.655-.665m-9.683 5.623c1.388-.807 1.54-2.03.337-2.72L67.296 33.197a4.1 4.1 0 0 0-2.035-.47 5.4 5.4 0 0 0-2.655.665c-1.39.807-1.535 2.03-.337 2.726l28.432 16.506a4.1 4.1 0 0 0 2.035.47c.927.01 1.84-.217 2.655-.661zM62.723 71.397 84.39 58.815l-32.787-19.03-21.667 12.582z"/><path fill="#fff" d="M115.098 38.464c1.204.698 1.053 1.914-.337 2.72a5.4 5.4 0 0 1-2.654.666 4.1 4.1 0 0 1-2.036-.47L81.64 24.872c-1.2-.698-1.049-1.919.336-2.722a5.4 5.4 0 0 1 2.65-.665 4.1 4.1 0 0 1 2.04.47zm-9.683 5.624c1.2.698 1.049 1.914-.336 2.722a5.4 5.4 0 0 1-2.65.666 4.1 4.1 0 0 1-2.036-.47L71.962 30.498c-1.205-.698-1.054-1.919.336-2.722a5.43 5.43 0 0 1 2.655-.67 4.14 4.14 0 0 1 2.032.47z"/><path fill="#1b69ff" d="M95.727 49.713c1.205.694 1.053 1.914-.337 2.722a5.4 5.4 0 0 1-2.655.665 4.1 4.1 0 0 1-2.035-.47L62.269 36.124c-1.2-.698-1.054-1.92.336-2.727a5.4 5.4 0 0 1 2.655-.665 4.1 4.1 0 0 1 2.035.47z"/><path fill="#cee7fd" d="m63.215 82.808-5.272 3.058c-3.306 1.924-8.309 2.133-11.171.47L6.848 63.157a3.3 3.3 0 0 1-1.355-1.14 3.35 3.35 0 0 1-.58-1.676c0-1.27.925-2.618 2.734-3.672l5.272-3.059z"/><path fill="#005bea" d="M51.633 88.178a10.54 10.54 0 0 1-5.218-1.229L6.492 63.77a4 4 0 0 1-1.613-1.4 4.05 4.05 0 0 1-.673-2.033c0-1.58 1.126-3.144 3.09-4.287l73.22-42.508c3.555-2.063 8.775-2.268 11.885-.466l39.919 23.175a4.03 4.03 0 0 1 2.289 3.433c0 1.587-1.129 3.15-3.092 4.29L63.57 83.417l-5.272 3.06a13.56 13.56 0 0 1-6.666 1.7m35.56-74.904a12.2 12.2 0 0 0-5.967 1.5L8.006 57.283c-1.515.882-2.381 1.995-2.381 3.054a2.72 2.72 0 0 0 1.578 2.2l39.923 23.18c2.664 1.546 7.357 1.336 10.462-.47l5.271-3.06 67.949-39.448c1.515-.879 2.384-1.992 2.384-3.056a2.74 2.74 0 0 0-.499-1.312 2.7 2.7 0 0 0-1.082-.888L91.693 14.307a9.15 9.15 0 0 0-4.5-1.035z"/><path fill="#005bea" d="M63.214 83.515a.7.7 0 0 1-.354-.096l-50.292-29.2a.71.71 0 0 1-.361-.713.713.713 0 0 1 .806-.616.7.7 0 0 1 .263.096L63.57 82.183a.71.71 0 0 1 .33.802.71.71 0 0 1-.685.527z"/><path fill="#fff" d="M37.262 74.835a.7.7 0 0 1-.354-.096l-9.385-5.448a.713.713 0 0 1 .708-1.235l9.386 5.449a.71.71 0 0 1 .33.802.71.71 0 0 1-.685.528"/><path fill="#005bea" d="M51.636 98.151a10.55 10.55 0 0 1-5.217-1.228L6.495 73.743a4 4 0 0 1-1.614-1.4 4.04 4.04 0 0 1-.672-2.034v-9.975a.714.714 0 0 1 .709-.712.707.707 0 0 1 .708.712v9.975c.045.475.215.929.492 1.316.277.386.651.692 1.085.885l39.924 23.18c2.662 1.546 7.356 1.338 10.463-.466l73.221-42.511c1.514-.88 2.383-1.993 2.383-3.056v-9.976a.715.715 0 0 1 .709-.712.707.707 0 0 1 .708.712v9.975c0 1.584-1.126 3.148-3.092 4.289l-73.22 42.511a13.6 13.6 0 0 1-6.663 1.695"/><path fill="#005bea" d="M62.723 72.111a.7.7 0 0 1-.354-.096L29.586 52.982a.71.71 0 0 1-.259-.973.7.7 0 0 1 .26-.26l21.666-12.583a.7.7 0 0 1 .709 0L84.749 58.2a.71.71 0 0 1 .354.616.72.72 0 0 1-.354.617L63.082 72.015a.7.7 0 0 1-.359.096m-31.37-19.746 31.37 18.21 20.25-11.761-31.37-18.211zm61.384 1.447a4.83 4.83 0 0 1-2.391-.567l-28.43-16.506a2.1 2.1 0 0 1-1.165-1.802 2.63 2.63 0 0 1 1.5-2.158 6.16 6.16 0 0 1 3.008-.762 4.84 4.84 0 0 1 2.393.567l28.429 16.51a2.08 2.08 0 0 1 1.168 1.793 2.63 2.63 0 0 1-.462 1.285c-.264.38-.623.682-1.04.877a6.2 6.2 0 0 1-3.01.763M65.26 33.444a4.7 4.7 0 0 0-2.3.57c-.584.338-.792.7-.792.923 0 .263.287.47.457.569l28.431 16.507c.52.266 1.1.395 1.683.373a4.7 4.7 0 0 0 2.3-.569c.59-.338.795-.702.795-.926 0-.26-.286-.462-.457-.56L66.943 33.817a3.4 3.4 0 0 0-1.683-.374m37.167 14.747a4.75 4.75 0 0 1-2.392-.567l-28.43-16.51a2.1 2.1 0 0 1-1.167-1.802 2.63 2.63 0 0 1 1.503-2.154 6.16 6.16 0 0 1 3.008-.761c.83-.02 1.65.175 2.383.565l28.442 16.512a2.1 2.1 0 0 1 1.164 1.798c-.04.46-.2.903-.464 1.282a2.6 2.6 0 0 1-1.039.876 6.1 6.1 0 0 1-3.008.761M74.949 27.822a4.7 4.7 0 0 0-2.3.575c-.59.338-.794.698-.794.92 0 .263.286.468.458.567l28.433 16.507c.52.267 1.1.395 1.683.374.8.01 1.59-.185 2.294-.568.589-.339.796-.702.797-.925 0-.26-.285-.466-.456-.564l-28.436-16.51a3.4 3.4 0 0 0-1.678-.38zm37.16 14.738a4.84 4.84 0 0 1-2.389-.565L81.285 25.489a2.08 2.08 0 0 1-1.164-1.802c.04-.46.199-.901.462-1.28.263-.378.621-.68 1.038-.874a6.06 6.06 0 0 1 3.004-.761 4.76 4.76 0 0 1 2.397.567l28.429 16.505a2.1 2.1 0 0 1 1.168 1.797 2.63 2.63 0 0 1-1.503 2.157 6.16 6.16 0 0 1-3.007.762M84.627 22.197c-.8-.008-1.59.188-2.295.57-.584.34-.791.698-.791.922 0 .262.286.467.456.567l28.431 16.507c.52.266 1.099.395 1.683.374a4.7 4.7 0 0 0 2.301-.569c.589-.338.794-.7.794-.923 0-.26-.288-.465-.459-.564L86.315 22.574a3.4 3.4 0 0 0-1.688-.377"/><path fill="#005bea" d="m84.392 59.53-.084-.005-54.454-6.45a.71.71 0 0 1-.613-.79.714.714 0 0 1 .781-.624l54.454 6.45a.71.71 0 0 1 .623.75.714.714 0 0 1-.707.67"/><path fill="#005bea" d="M62.722 72.111a.71.71 0 0 1-.668-.475L50.935 40.02a.717.717 0 0 1 .432-.909.705.705 0 0 1 .904.434l11.12 31.616a.715.715 0 0 1-.669.95"/></g><defs><clipPath id="a"><path fill="#fff" d="M0 0h138v110H0z"/></clipPath></defs></svg>