<svg xmlns="http://www.w3.org/2000/svg" width="128" height="107" fill="none" viewBox="0 0 128 107"><g clip-path="url(#a)" opacity=".71"><path fill="#f2f6fe" d="M37.66 70.138 0 87.294 37.66 107l37.66-19.706z"/><path fill="url(#b)" d="M75.32 87.293v-97.312l-37.66-17.09v97.246z"/><path fill="url(#c)" d="m0 87.293 37.66-17.156v-97.245L0-5.135"/><path fill="url(#d)" d="m52.68 47.3 37.66-17.155v-97.246L52.68-45.127"/><path fill="#f2f6fe" d="M90.34 30.142 52.68 47.298l37.66 19.706 37.659-19.707z"/><path fill="url(#e)" d="M128 47.3V-50.01l-37.66-17.09v97.246z"/><path fill="url(#f)" d="m52.68 47.3 37.66-17.155v-97.246L52.68-45.127"/></g><defs><linearGradient id="b" x1="54.645" x2="85.139" y1="-42.782" y2="87.607" gradientUnits="userSpaceOnUse"><stop stop-color="#fff" stop-opacity="0"/><stop offset="1" stop-color="#e0e7fd"/></linearGradient><linearGradient id="c" x1="23.914" x2="-25.854" y1="28.262" y2="32.758" gradientUnits="userSpaceOnUse"><stop stop-color="#fff"/><stop offset="1" stop-color="#e0e7fd"/></linearGradient><linearGradient id="d" x1="76.594" x2="26.825" y1="-11.73" y2="-7.234" gradientUnits="userSpaceOnUse"><stop stop-color="#fff"/><stop offset="1" stop-color="#e0e7fd"/></linearGradient><linearGradient id="e" x1="107.325" x2="137.819" y1="-82.775" y2="47.615" gradientUnits="userSpaceOnUse"><stop stop-color="#fff" stop-opacity="0"/><stop offset="1" stop-color="#e0e7fd"/></linearGradient><linearGradient id="f" x1="76.594" x2="26.825" y1="-11.73" y2="-7.234" gradientUnits="userSpaceOnUse"><stop stop-color="#fff" stop-opacity="0"/><stop offset="1" stop-color="#e0e7fd"/></linearGradient><clipPath id="a"><path fill="#fff" d="M0 107h128V0H0z"/></clipPath></defs></svg>