<svg xmlns="http://www.w3.org/2000/svg" width="76" height="74" fill="none" viewBox="0 0 76 74"><g fill-rule="evenodd" clip-path="url(#a)" clip-rule="evenodd"><path fill="#035be8" d="M45.568 33.51a1.52 1.52 0 0 1-.685 1.187l11.728 6.774a1.53 1.53 0 0 0 .684-1.187v-6.932l-11.727-6.774zm11.614 20.343L45.455 47.08a.8.8 0 0 1 .113.374v6.957l11.727 6.774v-6.957a.66.66 0 0 0-.113-.374"/><path fill="#035be8" d="m45.812 34.567 10.728 6.194c.106-.157.168-.338.182-.527v-6.548l-10.585-6.1v5.977c-.03.357-.141.702-.325 1.01zm10.8 7.484a.6.6 0 0 1-.3-.079l-11.727-6.775a.64.64 0 0 1-.3-.478.6.6 0 0 1 .261-.5.91.91 0 0 0 .423-.739v-6.907a.59.59 0 0 1 .3-.5.57.57 0 0 1 .571 0l11.742 6.774a.57.57 0 0 1 .281.5v6.932a2.07 2.07 0 0 1-.93 1.664.6.6 0 0 1-.326.1zm-10.475 12.02 10.585 6.1v-5.923l-10.585-6.11zm11.156 7.685a.6.6 0 0 1-.3-.078l-11.727-6.775a.57.57 0 0 1-.3-.5v-6.957a.6.6 0 0 1 .07-.744.555.555 0 0 1 .684-.133l11.727 6.774a.5.5 0 0 1 .2.187c.137.177.212.393.212.616v7.03a.56.56 0 0 1-.28.5.6.6 0 0 1-.285.083z"/><path fill="#035be8" d="M75.198 36.936 63.47 30.162l-17.9-3.584 11.727 6.774z"/><path fill="#035be8" d="m57.507 32.8 14.357 2.876-8.606-4.968-14.357-2.87zm17.69 4.712a1 1 0 0 1-.113-.01l-17.9-3.584a.6.6 0 0 1-.182-.064l-11.727-6.775a.58.58 0 0 1-.261-.7.6.6 0 0 1 .67-.364l17.9 3.584a.5.5 0 0 1 .162.064l11.742 6.775a.58.58 0 0 1-.29 1.078zM56.611 41.47l-11.728-6.775-31.868 18.4a5.7 5.7 0 0 0-1.945 2.043l11.727 6.775a5.64 5.64 0 0 1 1.944-2.043z"/><path fill="#035be8" d="m11.89 54.943 10.732 6.2a5.84 5.84 0 0 1 1.811-1.758L55.45 41.474l-10.566-6.1-31.588 18.23a4.7 4.7 0 0 0-1.409 1.345zm10.91 7.552a.54.54 0 0 1-.277-.078l-11.742-6.775a.587.587 0 0 1-.2-.807 6.3 6.3 0 0 1 2.122-2.225L44.59 34.2a.57.57 0 0 1 .571-.004l11.742 6.775a.574.574 0 0 1 0 1L25.04 60.373a4.8 4.8 0 0 0-1.733 1.846.6.6 0 0 1-.508.276"/><path fill="#035be8" d="m22.798 61.912-11.727-6.775v.005a5.6 5.6 0 0 0-.8 2.7v6.03a2.1 2.1 0 0 0 .62 1.65l11.742 6.775a2.09 2.09 0 0 1-.64-1.65v-6.03c.045-.952.32-1.878.8-2.7z"/><path fill="#035be8" d="M11.317 55.947a4.54 4.54 0 0 0-.473 1.92v6.007a1.5 1.5 0 0 0 .458 1.236l10.142 5.839a1.3 1.3 0 0 1-.02-.271v-6.06a5.7 5.7 0 0 1 .625-2.477l-10.733-6.194m11.318 16.93a.53.53 0 0 1-.3-.077l-11.728-6.774a2.73 2.73 0 0 1-.93-2.122v-6.061a6.4 6.4 0 0 1 .88-2.973.55.55 0 0 1 .58-.303q.12.015.224.076l11.728 6.77a.58.58 0 0 1 .246.719v.005a5.1 5.1 0 0 0-.753 2.506v6.006a1.52 1.52 0 0 0 .438 1.235.57.57 0 0 1-.13.93.6.6 0 0 1-.25.064z"/><path fill="#eff3fa" d="m51.037.948-31.864 18.4c-.246.1-.38.148-.571-.02l11.727 6.774c.212.167.339.123.57.02l31.865-18.4a1.82 1.82 0 0 1 2.107-.069L52.97.76a1.94 1.94 0 0 0-1.934.188"/><path fill="#035be8" d="m20.054 19.504 10.565 6.1L62.473 7.226c.094-.044.177-.094.275-.133L52.67 1.263c-.374-.182-.7-.142-1.354.2l-31.263 18.05zm10.536 7.287a.9.9 0 0 1-.62-.247l-11.454-6.592a1.3 1.3 0 0 1-.3-.177.574.574 0 0 1-.094-.777.555.555 0 0 1 .748-.174h.015L50.74.445s.015 0 .015-.015a2.55 2.55 0 0 1 2.447-.2l11.96 6.918a.578.578 0 0 1-.573 1h-.02v-.005c-.57-.329-.832-.285-1.55.084L31.175 26.624c-.18.099-.38.156-.586.167"/><path fill="#eff3fa" d="m30.213 18.79-11.727-6.77-17.9 24.247 11.727 6.774z"/><path fill="#035be8" d="m1.435 36.094 10.713 6.19L29.365 18.97l-10.733-6.193-17.2 23.317zm10.875 7.528a.6.6 0 0 1-.291-.079L.292 36.77a.56.56 0 0 1-.279-.62.6.6 0 0 1 .099-.222l17.9-24.252a.58.58 0 0 1 .753-.158l11.742 6.775a.62.62 0 0 1 .28.384.61.61 0 0 1-.118.463l-17.9 24.247a.56.56 0 0 1-.46.236"/><path fill="#fff" d="m30.903 38.484 31.864-18.4a5.7 5.7 0 0 0 1.945-2.043v-.005c.49-.819.765-1.747.8-2.7V9.305c0-1.743-1.24-2.452-2.742-1.58l-31.864 18.4c-.374.217-.69.04-.69-.394v-6.937l-17.9 24.252 17.9 3.579v-6.957a1.53 1.53 0 0 1 .687-1.184"/><path fill="#035be8" d="m13.326 42.651 16.3 3.26v-6.249a2.09 2.09 0 0 1 .98-1.684l31.87-18.4a5.46 5.46 0 0 0 2.446-4.249V9.3A1.107 1.107 0 0 0 63.06 8.22l-31.883 18.4a.988.988 0 0 1-1.55-.9v-5.174l-16.3 22.1zm16.887 4.55a.5.5 0 0 1-.113-.016l-17.9-3.574a.56.56 0 0 1-.423-.36.6.6 0 0 1 .064-.55l17.9-24.256a.6.6 0 0 1 .654-.206.59.59 0 0 1 .394.546v6.72l31.686-18.29a2.238 2.238 0 0 1 3.61 2.083v6.031a6.7 6.7 0 0 1-3.024 5.248l-31.883 18.4a.95.95 0 0 0-.389.684v6.957a.55.55 0 0 1-.217.448.56.56 0 0 1-.359.134"/><path fill="#eff3fa" d="m24.74 72.233 31.87-18.4c.373-.221.683-.044.683.394v6.957l17.9-24.248-17.9-3.584v6.932a1.52 1.52 0 0 1-.684 1.187L24.74 59.87a5.8 5.8 0 0 0-1.944 2.043 5.67 5.67 0 0 0-.8 2.7v6.03a1.676 1.676 0 0 0 2.747 1.586z"/><path fill="#035be8" d="M57.866 34.063v6.222a2.09 2.09 0 0 1-.965 1.69l-31.864 18.4a5.04 5.04 0 0 0-1.732 1.83 5.1 5.1 0 0 0-.718 2.413v6.032a1.4 1.4 0 0 0 .506 1.27 1.39 1.39 0 0 0 1.353-.187L56.32 53.334a1.04 1.04 0 0 1 1.057-.05 1.01 1.01 0 0 1 .494.947v5.194l16.316-22.1-16.317-3.26zm-34.35 39.122a1.95 1.95 0 0 1-.995-.261 2.45 2.45 0 0 1-1.1-2.276v-6.03a6.7 6.7 0 0 1 3.023-5.248l31.869-18.4a.92.92 0 0 0 .408-.684v-6.933a.54.54 0 0 1 .212-.447.58.58 0 0 1 .474-.118l17.9 3.579a.576.576 0 0 1 .344.91L57.765 61.526a.59.59 0 0 1-.655.206.57.57 0 0 1-.389-.547v-6.74l-31.686 18.29a3.1 3.1 0 0 1-1.515.45z"/></g><defs><clipPath id="a"><path fill="#fff" d="M0 0h75.771v73.184H0z"/></clipPath></defs></svg>