<svg width="42" height="42" viewBox="0 0 42 42" fill="none" xmlns="http://www.w3.org/2000/svg">
<g clip-path="url(#clip0_9_109955)">
<path d="M21 42C32.598 42 42 32.598 42 21C42 9.40202 32.598 0 21 0C9.40202 0 0 9.40202 0 21C0 32.598 9.40202 42 21 42Z" fill="#F0F0F0"/>
<path d="M4.34422 8.21484C2.69466 10.361 1.45082 12.8347 0.726562 15.5219H11.6513L4.34422 8.21484Z" fill="#0052B4"/>
<path d="M41.2762 15.5219C40.5519 12.8347 39.308 10.361 37.6585 8.21484L30.3516 15.5219H41.2762Z" fill="#0052B4"/>
<path d="M0.726562 26.4766C1.4509 29.1637 2.69474 31.6374 4.34422 33.7835L11.6511 26.4766H0.726562Z" fill="#0052B4"/>
<path d="M33.7914 4.3404C31.6452 2.69083 29.1716 1.44699 26.4844 0.722656V11.6473L33.7914 4.3404Z" fill="#0052B4"/>
<path d="M8.21875 37.6584C10.3649 39.308 12.8386 40.5518 15.5258 41.2762V30.3516L8.21875 37.6584Z" fill="#0052B4"/>
<path d="M15.5257 0.722656C12.8385 1.44699 10.3649 2.69083 8.21875 4.34032L15.5257 11.6473V0.722656Z" fill="#0052B4"/>
<path d="M26.4844 41.2762C29.1716 40.5518 31.6452 39.308 33.7913 37.6585L26.4844 30.3516V41.2762Z" fill="#0052B4"/>
<path d="M30.3516 26.4766L37.6585 33.7836C39.308 31.6375 40.5519 29.1637 41.2762 26.4766H30.3516Z" fill="#0052B4"/>
<path d="M41.8222 18.2609H23.7393H23.7392V0.177762C22.8425 0.0610313 21.9283 0 21 0C20.0715 0 19.1575 0.0610313 18.2609 0.177762V18.2607V18.2608H0.177762C0.0610313 19.1575 0 20.0717 0 21C0 21.9285 0.0610313 22.8425 0.177762 23.7391H18.2607H18.2608V41.8222C19.1575 41.939 20.0715 42 21 42C21.9283 42 22.8425 41.9391 23.7391 41.8222V23.7393V23.7392H41.8222C41.939 22.8425 42 21.9285 42 21C42 20.0717 41.939 19.1575 41.8222 18.2609Z" fill="#D80027"/>
<path d="M26.4766 26.4766L35.8475 35.8476C36.2785 35.4167 36.6896 34.9663 37.0819 34.4994L29.0591 26.4766H26.4766V26.4766Z" fill="#D80027"/>
<path d="M15.5194 26.4766H15.5193L6.14844 35.8474C6.57927 36.2784 7.0297 36.6895 7.49662 37.0818L15.5194 29.0588V26.4766Z" fill="#D80027"/>
<path d="M15.5194 15.5235V15.5233L6.14847 6.15234C5.71748 6.58317 5.30634 7.03361 4.91406 7.50053L12.937 15.5234L15.5194 15.5235Z" fill="#D80027"/>
<path d="M26.4766 15.5234L35.8476 6.15229C35.4167 5.7213 34.9663 5.31016 34.4994 4.91797L26.4766 12.9409V15.5234Z" fill="#D80027"/>
</g>
<defs>
<clipPath id="clip0_9_109955">
<rect width="42" height="42" fill="white"/>
</clipPath>
</defs>
</svg>
