<svg xmlns="http://www.w3.org/2000/svg" width="42" height="42" fill="none" viewBox="0 0 42 42"><g clip-path="url(#a)"><path fill="#f0f0f0" d="M21 42c11.598 0 21-9.402 21-21S32.598 0 21 0 0 9.402 0 21s9.402 21 21 21"/><path fill="#0052b4" d="M4.344 8.215a20.9 20.9 0 0 0-3.617 7.307H11.65zm36.932 7.307a20.9 20.9 0 0 0-3.618-7.307l-7.306 7.307zM.727 26.477a20.9 20.9 0 0 0 3.617 7.306l7.307-7.306zM33.791 4.34A20.9 20.9 0 0 0 26.484.723v10.924zM8.219 37.658a20.9 20.9 0 0 0 7.307 3.618V30.352zM15.526.723A20.9 20.9 0 0 0 8.219 4.34l7.307 7.307zm10.958 40.553a20.9 20.9 0 0 0 7.307-3.618l-7.307-7.306zm3.868-14.799 7.306 7.307a20.9 20.9 0 0 0 3.618-7.307z"/><path fill="#d80027" d="M41.822 18.26H23.74V.179a21.2 21.2 0 0 0-5.478 0V18.26H.178a21.2 21.2 0 0 0 0 5.478H18.26v18.083a21.2 21.2 0 0 0 5.478 0V23.74h18.083a21.2 21.2 0 0 0 0-5.478"/><path fill="#d80027" d="m26.477 26.477 9.37 9.37q.647-.645 1.235-1.348l-8.023-8.022zm-10.957 0-9.372 9.37q.648.647 1.349 1.235l8.022-8.023zm0-10.953L6.147 6.151q-.646.648-1.234 1.349l8.023 8.022zm10.957-.001 9.37-9.37q-.645-.648-1.348-1.235l-8.022 8.023z"/></g><defs><clipPath id="a"><path fill="#fff" d="M0 0h42v42H0z"/></clipPath></defs></svg>