<svg xmlns="http://www.w3.org/2000/svg" width="108" height="109" fill="none" viewBox="0 0 108 109"><g clip-path="url(#a)"><path fill="#1b69ff" d="M10.105 94.467h-.008l1.909 1.102c3.74 2.164 8.907 1.852 14.615-1.448l62.428-36.087c8.956-5.174 16.219-17.764 16.219-28.106 0-5.61-2.147-9.39-5.531-10.866q.398.161.777.364l-1.896-1.096v.009c-2.943-1.759-7.038-1.537-11.565 1.079a27.3 27.3 0 0 0-5.77 4.6c-1.239-4.342-3.579-7.51-6.707-9.31l-1.9-1.1-.017-.01-.361-.206-.014.017c-4.713-2.543-11.115-2.101-18.194 1.99-9.42 5.444-17.652 15.968-22.274 27.245-2.54.423-4.98 1.32-7.19 2.644-11.403 6.59-20.648 22.607-20.642 35.775-.01 6.63 2.336 11.267 6.12 13.404"/><path fill="#005bea" d="M17.392 97.454A11.1 11.1 0 0 1 11.761 96l-1.909-1.102a.5.5 0 0 1-.068-.047c-4.066-2.345-6.304-7.238-6.3-13.788 0-13.303 9.369-29.544 20.892-36.202a21.3 21.3 0 0 1 7.086-2.66c4.89-11.783 13.238-21.948 22.378-27.23 6.914-3.995 13.5-4.724 18.552-2.06q.077.015.145.054l.343.196.038.02 1.9 1.102a15.27 15.27 0 0 1 6.691 8.807 27 27 0 0 1 5.29-4.098c4.508-2.605 8.759-3.002 11.984-1.124q.042.015.08.037l1.896 1.096q.07.04.123.1c3.116 1.872 4.878 5.748 4.878 10.83 0 10.49-7.386 23.29-16.466 28.536L26.867 94.554a19.26 19.26 0 0 1-9.475 2.9m-6.968-3.369 1.83 1.058c3.745 2.166 8.759 1.65 14.12-1.448L88.8 57.608c8.806-5.088 15.971-17.504 15.971-27.678 0-5.165-1.907-8.96-5.234-10.412a.5.5 0 0 1-.236-.218l-.852-.492a.5.5 0 0 1-.087-.042c-2.913-1.744-6.844-1.357-11.06 1.082a26.8 26.8 0 0 0-5.662 4.518.495.495 0 0 1-.83-.21c-1.18-4.139-3.42-7.256-6.478-9.015l-1.885-1.092h-.007l-.267-.152a.5.5 0 0 1-.122-.045c-4.761-2.571-11.051-1.867-17.71 1.982-9.023 5.213-17.271 15.31-22.065 27.005a.5.5 0 0 1-.384.301 20.1 20.1 0 0 0-7.018 2.583C13.625 52.225 4.475 68.08 4.48 81.07c0 6.22 2.084 10.827 5.877 12.97q.036.02.067.049z"/><path fill="#fff" d="M39.714 63.355c0-3.096-.615-4.484-1.546-5.14-.988-.693-2.012-.697-3.763.168a9.23 9.23 0 0 0-4.975 7.935c0 3.186 1.829 4.155 4.657 2.756a6.7 6.7 0 0 0 2.647-2.376c-.187 2.187-1.046 4.057-2.647 4.849a2.94 2.94 0 0 1-2.85.071l-1.509 3.35a4.5 4.5 0 0 0 4.285-.268c3.707-1.83 5.701-6.266 5.701-11.345m-2.925-.806a3.92 3.92 0 0 1-2.236 3.444c-1.416.698-2.273.165-2.273-1.238a3.9 3.9 0 0 1 2.217-3.479c1.434-.709 2.292-.13 2.292 1.273m15.26-5.287c0-3.096-.615-4.484-1.546-5.14-.988-.692-2.012-.697-3.763.167a9.23 9.23 0 0 0-4.975 7.936c0 3.185 1.83 4.155 4.658 2.756a6.7 6.7 0 0 0 2.646-2.376c-.186 2.187-1.045 4.057-2.646 4.849a2.94 2.94 0 0 1-2.85.072l-1.51 3.35a4.51 4.51 0 0 0 4.284-.268c3.71-1.83 5.702-6.266 5.702-11.346m-2.926-.805a3.92 3.92 0 0 1-2.236 3.443c-1.416.698-2.273.165-2.273-1.238a3.9 3.9 0 0 1 2.217-3.478c1.435-.71 2.292-.131 2.292 1.273m7.919 6.603v-3.564l-3.018 1.49v3.565zM71.21 48.153c0-3.097-.615-4.484-1.546-5.14-.988-.693-2.013-.698-3.764.166a9.23 9.23 0 0 0-4.975 7.935c0 3.185 1.83 4.155 4.658 2.756a6.7 6.7 0 0 0 2.646-2.376c-.186 2.187-1.045 4.058-2.646 4.85a2.94 2.94 0 0 1-2.85.07l-1.51 3.353a4.5 4.5 0 0 0 4.285-.27c3.708-1.83 5.702-6.268 5.702-11.346zm-2.925-.805a3.92 3.92 0 0 1-2.236 3.442c-1.415.698-2.272.165-2.272-1.238a3.9 3.9 0 0 1 2.217-3.479c1.434-.709 2.291-.13 2.291 1.275m11.983-7.983c0-2.205-1.267-3.34-3.149-2.41a6.44 6.44 0 0 0-3.186 5.581c0 2.205 1.267 3.339 3.15 2.41a6.44 6.44 0 0 0 3.184-5.58m6.706-7.1L84.76 33.36l-9.522 20.297 2.218-1.096zm1.307 11.119c0-2.206-1.268-3.34-3.149-2.41a6.44 6.44 0 0 0-3.186 5.58c0 2.206 1.267 3.34 3.149 2.41a6.44 6.44 0 0 0 3.186-5.58m-9.968-3.008a2.81 2.81 0 0 1-1.193 2.529c-.745.369-1.23-.306-1.23-1.375A2.81 2.81 0 0 1 77.084 39c.744-.364 1.229.306 1.229 1.38zm8.013 4.018a2.8 2.8 0 0 1-1.192 2.53c-.746.367-1.23-.307-1.23-1.376a2.81 2.81 0 0 1 1.192-2.529c.743-.371 1.228.306 1.228 1.373z"/><path fill="#fff" d="M56.954 17.43c-9.416 5.444-17.645 15.968-22.267 27.245a20.6 20.6 0 0 0-7.196 2.644c-11.4 6.59-20.642 22.608-20.642 35.774 0 6.582 2.31 11.21 6.046 13.361l-1.923-1.11h.008c-3.784-2.138-6.132-6.775-6.128-13.402 0-13.167 9.24-29.185 20.642-35.774a20.6 20.6 0 0 1 7.19-2.644c4.621-11.277 12.854-21.8 22.273-27.246 7.079-4.09 13.481-4.534 18.194-1.989l.014-.017.361.206.018.009 1.977 1.147c-4.738-2.777-11.303-2.398-18.567 1.796m44.433 2.873-1.896-1.096v.009c-2.943-1.759-7.038-1.538-11.565 1.078A27.3 27.3 0 0 0 82.15 24.9c-.064-.226-.146-.436-.217-.65a24 24 0 0 1 .82 3.293 29 29 0 0 1 7.168-6.093c4.47-2.586 8.528-2.834 11.466-1.147"/></g><defs><clipPath id="a"><path fill="#fff" d="M0 0h108v109H0z"/></clipPath></defs></svg>