<svg xmlns="http://www.w3.org/2000/svg" width="42" height="42" fill="none" viewBox="0 0 42 42"><g clip-path="url(#a)"><path fill="#f0f0f0" d="M21 42c11.598 0 21-9.402 21-21S32.598 0 21 0 0 9.402 0 21s9.402 21 21 21"/><path fill="#d80027" d="M20.094 21.002h21.913c0-1.896-.253-3.732-.724-5.479h-21.19zm0-10.957h18.83a21.1 21.1 0 0 0-4.845-5.479H20.094zm.908 31.958a20.9 20.9 0 0 0 13.072-4.565H7.93a20.9 20.9 0 0 0 13.072 4.565M3.085 31.959h35.836a20.9 20.9 0 0 0 2.359-5.478H.727a20.9 20.9 0 0 0 2.358 5.478"/><path fill="#0052b4" d="M9.728 3.28h1.913l-1.78 1.293.68 2.092-1.78-1.293-1.78 1.293.588-1.808a21.1 21.1 0 0 0-4.073 4.54h.613l-1.133.823q-.265.442-.509.897l.542 1.666-1.01-.734q-.376.798-.687 1.63l.596 1.835h2.2l-1.78 1.294.68 2.092-1.78-1.293-1.066.774A21 21 0 0 0 0 21h21V0A20.9 20.9 0 0 0 9.728 3.28m.813 15.62-1.78-1.293-1.78 1.293.68-2.092-1.78-1.294h2.2l.68-2.092.68 2.092h2.2l-1.78 1.294zm-.68-8.21.68 2.093-1.78-1.294-1.78 1.294.68-2.093-1.78-1.293h2.2l.68-2.093.68 2.093h2.2zm8.213 8.21-1.78-1.293-1.78 1.293.68-2.092-1.78-1.294h2.2l.68-2.092.68 2.092h2.2l-1.78 1.294zm-.68-8.21.68 2.093-1.78-1.294-1.78 1.294.68-2.093-1.78-1.293h2.2l.68-2.093.68 2.093h2.2zm0-6.117.68 2.092-1.78-1.293-1.78 1.293.68-2.092-1.78-1.294h2.2l.68-2.092.68 2.092h2.2z"/></g><defs><clipPath id="a"><path fill="#fff" d="M0 0h42v42H0z"/></clipPath></defs></svg>