<svg xmlns="http://www.w3.org/2000/svg" width="46" height="69" fill="none" viewBox="0 0 46 69"><path fill="#0d034a" d="M9.951 64.644a2.84 2.84 0 0 1-1.418-.363c-1.085-.61-1.676-1.897-1.676-3.622V26.144a11.26 11.26 0 0 1 4.93-8.86L33.744 4.085c1.397-.84 2.742-.975 3.787-.384 1.08.611 1.675 1.897 1.675 3.621v34.512a11.26 11.26 0 0 1-4.93 8.863L12.318 63.894a4.7 4.7 0 0 1-2.368.75m26.16-60.267a3.66 3.66 0 0 0-1.836.597L12.321 18.17a10.28 10.28 0 0 0-4.43 7.977V60.66c0 1.335.408 2.303 1.15 2.724a2.75 2.75 0 0 0 2.746-.371l21.957-13.197a10.28 10.28 0 0 0 4.43-7.977V7.324c0-1.335-.41-2.303-1.151-2.722a1.83 1.83 0 0 0-.911-.229z"/><path fill="#0d034a" d="M3.607 61.303a2.84 2.84 0 0 1-1.419-.363C1.103 60.33.513 59.043.513 57.32V22.807a11.26 11.26 0 0 1 4.93-8.863L27.399.745c1.398-.84 2.743-.975 3.787-.384 1.08.61 1.675 1.898 1.675 3.622v34.514a11.26 11.26 0 0 1-4.929 8.865L5.976 60.558a4.67 4.67 0 0 1-2.37.744m26.16-60.267a3.65 3.65 0 0 0-1.835.597L5.977 14.831a10.28 10.28 0 0 0-4.43 7.976V57.32c0 1.335.41 2.305 1.15 2.724a2.75 2.75 0 0 0 2.748-.37l21.953-13.198a10.28 10.28 0 0 0 4.43-7.978V3.987c0-1.335-.408-2.305-1.15-2.724a1.8 1.8 0 0 0-.91-.227" opacity=".43"/><path fill="#fff" d="M18.005 21.744a10.82 10.82 0 0 0-4.679 8.42v34.512c0 3.106 2.086 4.353 4.68 2.796l21.956-13.198a10.81 10.81 0 0 0 4.68-8.42V11.345c0-3.106-2.087-4.353-4.68-2.796z"/><path fill="#27292b" d="M15.897 69a3.2 3.2 0 0 1-1.586-.408c-1.19-.673-1.846-2.065-1.846-3.917v-34.51a11.63 11.63 0 0 1 5.092-9.154L39.514 7.815c1.502-.904 2.971-1.043 4.127-.388 1.191.673 1.847 2.065 1.847 3.917v34.51a11.63 11.63 0 0 1-5.09 9.153L18.441 68.204c-.76.49-1.64.765-2.544.795m2.545-46.523a9.91 9.91 0 0 0-4.265 7.689v34.51c0 1.19.356 2.076.979 2.427a2.44 2.44 0 0 0 2.405-.365L39.518 53.54a9.91 9.91 0 0 0 4.264-7.687V11.347c0-1.191-.356-2.076-.978-2.428a2.44 2.44 0 0 0-2.405.365z"/><path fill="#27292b" d="m38.495 40.522.388-14.653c.01-.349-.093-.608-.27-.68l-7.39-2.99c-.175-.071-.397.056-.583.334l-7.773 11.66a2 2 0 0 0-.313 1.013l-.388 14.653c-.01.349.093.608.27.68l7.39 2.99c.175.071.397-.057.583-.334l7.778-11.663c.19-.304.297-.652.308-1.01m-7.611-16.186 6.254 2.53-6.588 9.87-6.247-2.534zm-7.204 11.89 6.247 2.535-.328 12.397-6.247-2.534zm7.086 14.268.327-12.397 6.582-9.869-.328 12.398z"/></svg>