<svg xmlns="http://www.w3.org/2000/svg" width="241" height="290" fill="none" viewBox="0 0 241 290"><g clip-path="url(#a)"><mask id="b" width="241" height="290" x="0" y="0" maskUnits="userSpaceOnUse" style="mask-type:luminance"><path fill="#fff" d="M241 0H0v290h241z"/></mask><g mask="url(#b)"><path fill="url(#c)" d="M240.359 154.373h-50.23l-55.913-33.866c-7.2-4.361-19.779-3.815-28.095 1.226l-53.9 32.641H2.02v174.035h.017c-.207 2.95 1.365 5.8 4.823 7.894l101.279 61.348c7.2 4.36 19.78 3.815 28.1-1.226l97.242-58.9c4.317-2.614 6.618-5.926 6.842-9.118h.037z"/><path fill="#d9dde8" d="m237.063 190.553-107.734 62.878a14.54 14.54 0 0 1-14.905 0L5.038 189.613a6.55 6.55 0 0 1-3.02-5.7v-33.038l111.32-47.158a16.95 16.95 0 0 1 13.809-.163l112.917 48.255v33.042a6.57 6.57 0 0 1-3.005 5.7z"/><path fill="#f2f5fc" d="m239.169 153.616-109.836 64.116a14.48 14.48 0 0 1-14.839 0l-111-64.776a2.71 2.71 0 0 1-.96-3.354c.19-.467.528-.86.96-1.12l109.865-64.13a14.44 14.44 0 0 1 14.787 0l111.025 64.791a2.7 2.7 0 0 1 .962 3.352c-.191.467-.529.86-.962 1.121z"/><path fill="#333c5e" d="m212.062 155.291-79.144 46.2a17.42 17.42 0 0 1-17.85 0l-85.019-49.617a3.15 3.15 0 0 1-1.124-3.9 2.74 2.74 0 0 1 1.124-1.311l80.513-47a14.74 14.74 0 0 1 15.1 0l86.4 50.42a3.15 3.15 0 0 1 1.12 3.906 2.74 2.74 0 0 1-1.12 1.307z"/><path fill="#e0e3ed" d="m212.131 155.382-8.147 4.629-78.317-45.705a14.75 14.75 0 0 0-15.1 0L38.012 156.68l-7.966-4.8a3.15 3.15 0 0 1-1.124-3.9c.193-.539.56-.999 1.044-1.306l80.608-47.308a14.9 14.9 0 0 1 15.187.093l86.459 50.628a3.23 3.23 0 0 1 1.084 3.965 2.9 2.9 0 0 1-1.173 1.334z"/><path fill="url(#d)" d="M223.148 181.377c0 2.589 1.8 3.635 4.015 2.341a8.97 8.97 0 0 0 4.014-7.025c0-2.589-1.8-3.635-4.014-2.341a8.97 8.97 0 0 0-4.015 7.025"/><path fill="#a0a6ba" d="M226.132 182.514a8.95 8.95 0 0 0 4.016-7.025c.006-.5-.083-.998-.262-1.466a2.79 2.79 0 0 1 1.294 2.67 8.96 8.96 0 0 1-4.013 7.025c-1.729 1.01-3.186.583-3.753-.873a2.83 2.83 0 0 0 2.718-.331"/><path fill="url(#e)" d="M209.699 189.016c0 2.588 1.8 3.637 4.014 2.344a8.97 8.97 0 0 0 4.014-7.025c0-2.589-1.8-3.637-4.014-2.344a8.97 8.97 0 0 0-4.014 7.025"/><path fill="#a0a6ba" d="M212.684 190.161a8.97 8.97 0 0 0 4.014-7.031 4 4 0 0 0-.26-1.466 2.79 2.79 0 0 1 1.29 2.675 8.97 8.97 0 0 1-4.013 7.025c-1.728 1-3.188.579-3.754-.878a2.85 2.85 0 0 0 2.723-.325"/><path fill="url(#f)" d="M171.609 163.42c0-12.315-8.353-27.267-18.725-33.645-3.921-15.5-14.506-31.235-26.985-38.644-5.866-3.484-11.3-4.6-15.833-3.71V87.4l-8.98 1.808s-5.663 7.339-6.364 9.278c-1.97-1.5-4.825-3.138-6.8-2.835l-9.629 1.6s6.241 40.269 16.774 46.524c4.484 2.661 61.466 35.388 61.466 35.388l6.453-1.993-.022-.01c5.199-.939 8.645-5.839 8.645-13.739"/><path fill="#f2f5fc" d="M145.792 131.811c-4.141-15.5-15.322-31.265-28.5-38.7s-24.363-4.284-28.5 6.549c-10.957-5.958-19.78-.941-19.78 11.374 0 12.455 9.02 27.636 20.148 33.911l56.276 31.737c11.126 6.275 20.147 1.265 20.147-11.188-.009-12.314-8.832-27.282-19.791-33.683"/><path fill="#333c5e" d="m110.73 119.807-6.772 17.168-3.575-2.272-6.75-25.765 3.91 2.485 4.762 18.367 4.827-12.27zm8.067 5.13a14.5 14.5 0 0 1 3.608 3.245 14.8 14.8 0 0 1 2.358 4.199 13.5 13.5 0 0 1 .825 4.667 6.54 6.54 0 0 1-.827 3.6 2.59 2.59 0 0 1-2.358 1.201 7.45 7.45 0 0 1-3.608-1.359l-3.15-2v5.921l-3.622-2.3v-21.474zm-.2 11.375a2.73 2.73 0 0 0 2.48.61 2.3 2.3 0 0 0 .851-2.199 6.6 6.6 0 0 0-.851-3.317 7.1 7.1 0 0 0-2.479-2.543l-2.949-1.877v7.454zm14.928 19.829a19.8 19.8 0 0 1-3.586-2.969 19.3 19.3 0 0 1-2.782-3.563l1.229-2.962a19.6 19.6 0 0 0 2.391 3.146c.818.907 1.75 1.705 2.771 2.375a3.66 3.66 0 0 0 2.279.821c.452-.04.736-.501.738-1.201a3.2 3.2 0 0 0-.437-1.55 8 8 0 0 0-1.117-1.524 41 41 0 0 0-1.843-1.847 48 48 0 0 1-2.927-3.023 12.6 12.6 0 0 1-1.955-3.115 9.4 9.4 0 0 1-.816-3.953 5 5 0 0 1 .738-2.922 2.41 2.41 0 0 1 2.224-.995 7.8 7.8 0 0 1 3.631 1.417 18 18 0 0 1 2.927 2.353 19 19 0 0 1 2.5 3l-1.116 3.063a16.4 16.4 0 0 0-4.336-4.443 3.26 3.26 0 0 0-2.245-.754c-.455.086-.731.588-.728 1.317a3.5 3.5 0 0 0 .838 2.174 25.6 25.6 0 0 0 2.559 2.688 48 48 0 0 1 2.928 3.026 12.8 12.8 0 0 1 1.955 3.085 9.2 9.2 0 0 1 .816 3.923 4.87 4.87 0 0 1-.748 2.882 2.44 2.44 0 0 1-2.245.98 7.9 7.9 0 0 1-3.638-1.429z"/></g></g><defs><linearGradient id="c" x1="137.159" x2="150.597" y1="435.973" y2="101.303" gradientUnits="userSpaceOnUse"><stop stop-color="#fff"/><stop offset="1" stop-color="#c8cede"/></linearGradient><linearGradient id="d" x1="-514.534" x2="-513.923" y1="433.511" y2="433.511" gradientUnits="userSpaceOnUse"><stop stop-color="#ffe06a"/><stop offset="1" stop-color="#fc0"/></linearGradient><linearGradient id="e" x1="-514.494" x2="-513.876" y1="433.448" y2="433.448" gradientUnits="userSpaceOnUse"><stop stop-color="#5e98f7"/><stop offset="1" stop-color="#4670ba"/></linearGradient><linearGradient id="f" x1="-805.223" x2="-805.223" y1="442.652" y2="442.652" gradientUnits="userSpaceOnUse"><stop stop-color="#5e98f7"/><stop offset="1" stop-color="#4670ba"/></linearGradient><clipPath id="a"><path fill="#fff" d="M0 0h241v290H0z"/></clipPath></defs></svg>