<svg xmlns="http://www.w3.org/2000/svg" width="1440" height="1058" fill="none" viewBox="0 0 1440 1058"><path fill="#f2f5fc" d="M710.348 366.702 569.102 285.29l141.242-81.408 141.247 81.411z"/><path fill="url(#a)" d="M710.344 1050.18V366.702l141.245-81.409v764.887z"/><path fill="url(#b)" d="M710.347 1050.18V366.702l-141.245-81.409v764.887z"/><g opacity=".4"><path fill="#f2f5fc" d="m1251.15 347.491-70.62-40.706 70.62-40.705 70.63 40.705z"/><path fill="url(#c)" d="M1251.16 877.89V347.489l70.62-40.704v571.106z"/><path fill="url(#d)" d="M1251.15 877.891V347.49l-70.62-40.704v571.106z"/></g><g opacity=".2"><path fill="#f9fafc" d="m1369.38 168.9-70.62-40.706 70.62-40.705 70.62 40.705z"/><path fill="url(#e)" d="M1369.38 699.297V168.899l70.62-40.705v571.103z"/><path fill="url(#f)" d="M1369.38 699.297V168.899l-70.62-40.705v571.103z"/></g><g opacity=".4"><path fill="#f2f5fc" d="m188.845 332.001 70.623-40.706-70.622-40.705-70.627 40.706z"/><path fill="url(#g)" d="M188.845 862.402V332.001l-70.626-40.705v571.106z"/><path fill="url(#h)" d="M188.844 862.402V332.001l70.622-40.705v571.106z"/></g><g opacity=".2"><path fill="#f2f5fc" d="m70.621 153.41 70.623-40.705L70.624 72 0 112.706z"/><path fill="url(#i)" d="M70.623 683.808V153.41L0 112.706v571.102z"/><path fill="url(#j)" d="M70.625 683.808V153.41l70.623-40.704v571.102z"/></g><path fill="#f2f5fc" d="m1007.46 489.985-141.249-81.411 141.239-81.409 141.25 81.411z"/><path fill="url(#k)" d="M1007.45 976.611V489.985l141.25-81.408v568.034z"/><path fill="url(#l)" d="M1007.46 976.611V489.985l-141.249-81.408v568.034z"/><path fill="#f2f5fc" d="M413.245 489.985 272 408.574l141.245-81.409 141.246 81.411z"/><path fill="url(#m)" d="M413.242 1058V489.986l141.245-81.409V1058z"/><path fill="url(#n)" d="M413.245 976.611V489.985L272 408.577v568.034z"/><path fill="#f2f5fc" d="M708.192 118.773s-49.078 4.674-78.637 6.945l78.401 223.288 103.703-59.813.052-.03.182-.106v-.009c1.298-.817 2.118-2.6 2.118-5.119V65.684a15.8 15.8 0 0 0-1.801-6.966z"/><path fill="url(#o)" d="M807.584 53.413 716.384.76a4.13 4.13 0 0 0-4.155-.36l-104.12 60.068 4.905 18.156 26.107 74.351 4.915 2.837L812.21 58.715c-1.018-2.164-2.62-4-4.626-5.302"/><path fill="#f2f5fc" d="m703.545 348.803-91.201-52.655c-3.547-2.047-6.422-7.541-6.422-12.27V65.633c0-4.729 2.875-6.903 6.422-4.855l91.201 52.654c3.547 2.048 6.422 7.542 6.422 12.271v218.246c0 4.728-2.875 6.906-6.422 4.854"/><path fill="#fff" d="m705.495 112.336-91.201-52.655c-2.053-1.187-3.876-.949-5.052.371a4.74 4.74 0 0 1 3.097.726l91.2 52.654c3.548 2.048 6.423 7.542 6.423 12.271v218.246a6.67 6.67 0 0 1-1.37 4.483c1.983-.314 3.326-2.349 3.326-5.58V124.603c-.001-4.725-2.877-10.219-6.423-12.267"/><path fill="url(#p)" d="m697.809 335.664-79.727-46.03c-3.104-1.789-5.613-6.592-5.613-10.726V76.219c0-4.133 2.513-6.034 5.613-4.243l79.727 46.03c3.104 1.789 5.613 6.592 5.613 10.726v202.689c0 4.134-2.512 6.034-5.613 4.243"/><path fill="url(#q)" d="m697.809 335.664-79.727-46.03c-3.104-1.789-5.613-6.592-5.613-10.726V76.219c0-4.133 2.513-6.034 5.613-4.243l79.727 46.03c3.104 1.789 5.613 6.592 5.613 10.726v202.689c0 4.134-2.512 6.034-5.613 4.243"/><path fill="url(#r)" d="m700.414 334.132-79.727-46.03c-3.104-1.79-5.613-6.592-5.613-10.726V74.687a6.5 6.5 0 0 1 .805-3.383c-2.004-.016-3.41 1.826-3.41 4.915v202.688c0 4.134 2.513 8.937 5.613 10.726l79.727 46.03c2.044 1.18 3.826.749 4.808-.86a4.5 4.5 0 0 1-2.203-.671"/><path fill="url(#s)" d="m697.794 242.607-29.633-17.108-47.263 27.287 82.509 47.637v-47.088c0-4.135-2.512-8.941-5.613-10.728"/><path fill="url(#t)" d="m697.794 201.074-29.633-17.108-47.263 27.287 82.509 47.636v-47.09c0-4.133-2.512-8.935-5.613-10.725"/><path fill="url(#u)" d="m697.794 159.539-29.633-17.108-47.263 27.287 82.509 47.637v-47.088c0-4.134-2.512-8.937-5.613-10.728"/><path fill="url(#v)" d="m697.794 118.006-29.633-17.108-47.263 27.287 82.509 47.636v-47.088c0-4.13-2.512-8.937-5.613-10.727"/><path fill="url(#w)" d="M697.794 118.006 632.191 80.13l-11.293 6.52 82.509 47.637v-5.554c0-4.13-2.512-8.937-5.613-10.727"/><path fill="#fff" d="m703.407 134.287-82.509-47.638v26.252l82.509 47.636zm0 41.538-82.509-47.637v26.251l82.509 47.637zm0 41.529-82.509-47.637v26.252l82.509 47.637zm0 41.535-82.509-47.638v26.252l82.509 47.637zm0 41.533-82.509-47.637v26.252l82.509 47.637z"/><path fill="url(#x)" d="m696.136 151.183-62.147-35.882a7.6 7.6 0 0 1-3.177-6.071v-7.031c0-2.34 1.422-3.415 3.177-2.402l62.147 35.883c1.755 1.012 3.178 3.73 3.178 6.07v7.03c0 2.34-1.423 3.416-3.178 2.403"/><path fill="url(#y)" d="m676.633 131.914-37.398-21.592a2.67 2.67 0 0 1-1.118-2.135c0-.822.501-1.202 1.118-.845l37.398 21.591a2.68 2.68 0 0 1 1.118 2.136c-.002.823-.501 1.203-1.118.845"/><path fill="url(#z)" d="m696.136 192.46-62.147-35.882a7.62 7.62 0 0 1-3.177-6.071v-7.031c0-2.339 1.422-3.414 3.177-2.401l62.147 35.883a7.6 7.6 0 0 1 3.178 6.071v7.03c0 2.339-1.423 3.415-3.178 2.401"/><path fill="url(#A)" d="M676.633 173.191 639.235 151.6a2.67 2.67 0 0 1-1.118-2.135c0-.822.501-1.202 1.118-.845l37.398 21.591a2.68 2.68 0 0 1 1.118 2.136c-.002.823-.501 1.201-1.118.844"/><path fill="url(#B)" d="m696.136 234.122-62.147-35.882c-1.755-1.013-3.177-3.731-3.177-6.07v-7.031c0-2.339 1.422-3.415 3.177-2.401l62.147 35.882a7.61 7.61 0 0 1 3.178 6.071v7.031c0 2.338-1.423 3.414-3.178 2.4"/><path fill="url(#C)" d="m676.633 214.853-37.398-21.591a2.67 2.67 0 0 1-1.118-2.135c0-.822.501-1.201 1.118-.845l37.398 21.591a2.68 2.68 0 0 1 1.118 2.136c-.002.823-.501 1.201-1.118.844"/><path fill="url(#D)" d="m696.136 276.168-62.147-35.883c-1.755-1.013-3.177-3.731-3.177-6.07v-7.031c0-2.339 1.422-3.415 3.177-2.401l62.147 35.883c1.755 1.012 3.178 3.73 3.178 6.069v7.031c0 2.341-1.423 3.416-3.178 2.402"/><path fill="url(#E)" d="M637.13 238.943a7.6 7.6 0 0 1-2.311-2.657 7.6 7.6 0 0 1-.866-3.414v-7.03q.002-.512.116-1.01l-.08-.045c-1.754-1.014-3.177.062-3.177 2.401v7.03a7.62 7.62 0 0 0 3.177 6.071l62.147 35.883c1.474.851 2.702.215 3.061-1.393z"/><path fill="url(#F)" d="m676.633 256.903-37.398-21.592a2.66 2.66 0 0 1-.813-.934 2.7 2.7 0 0 1-.305-1.201c0-.821.501-1.201 1.118-.845l37.398 21.592a2.68 2.68 0 0 1 1.118 2.135c-.002.82-.501 1.199-1.118.845"/><path fill="url(#G)" d="M696.136 317.382 633.989 281.5c-1.755-1.013-3.177-3.731-3.177-6.071v-7.03c0-2.341 1.422-3.415 3.177-2.403l62.147 35.883a7.6 7.6 0 0 1 3.178 6.071v7.03c0 2.34-1.423 3.415-3.178 2.402"/><path fill="url(#H)" d="m676.633 298.113-37.398-21.591a2.67 2.67 0 0 1-1.118-2.136c0-.822.501-1.202 1.118-.845l37.398 21.592a2.68 2.68 0 0 1 1.118 2.136c-.002.822-.501 1.2-1.118.844"/><path fill="#fff" d="m620.906 86.65 6.497 3.751v26.252l-6.497-3.751zm0 41.534 6.497 3.752v26.251l-6.497-3.75zm0 41.533 6.497 3.751v26.252l-6.497-3.752zm0 41.534 6.497 3.752v26.251l-6.497-3.751zm0 41.534 6.497 3.752v26.252l-6.497-3.752z"/><path fill="url(#I)" d="M683.61 135.358c.514-.297.514-1.258 0-2.148-.514-.889-1.346-1.37-1.86-1.074-.513.297-.513 1.258 0 2.148.514.89 1.346 1.37 1.86 1.074"/><path fill="url(#J)" d="M689.576 137.726c0 .839-.589 1.18-1.315.76a2.9 2.9 0 0 1-1.316-2.279c0-.839.589-1.178 1.316-.759a2.91 2.91 0 0 1 1.315 2.278"/><path fill="url(#K)" d="M695.155 140.947c0 .839-.589 1.178-1.316.759a2.91 2.91 0 0 1-1.316-2.283c0-.838.589-1.178 1.316-.758a2.9 2.9 0 0 1 1.316 2.282"/><path fill="url(#L)" d="M683.999 176.019c0 .839-.589 1.179-1.316.76a2.9 2.9 0 0 1-1.316-2.278c0-.839.59-1.18 1.316-.76a2.9 2.9 0 0 1 1.316 2.278"/><path fill="url(#M)" d="M689.576 179.239c0 .84-.589 1.179-1.315.76a2.91 2.91 0 0 1-1.316-2.282c0-.84.589-1.179 1.316-.76a2.9 2.9 0 0 1 .93.984c.229.396.361.841.385 1.298"/><path fill="url(#N)" d="M695.155 182.459c0 .839-.589 1.179-1.316.759a2.9 2.9 0 0 1-1.316-2.278c0-.839.589-1.178 1.316-.759a2.9 2.9 0 0 1 1.316 2.278"/><path fill="url(#O)" d="M683.999 217.845c0 .839-.589 1.179-1.316.76a2.91 2.91 0 0 1-1.316-2.283c0-.838.59-1.178 1.316-.758a2.91 2.91 0 0 1 1.316 2.281"/><path fill="url(#P)" d="M689.576 221.066c0 .839-.589 1.178-1.315.759a2.91 2.91 0 0 1-1.316-2.282c0-.839.589-1.179 1.316-.76a2.9 2.9 0 0 1 1.315 2.283"/><path fill="url(#Q)" d="M695.155 224.285c0 .839-.589 1.18-1.316.76a2.9 2.9 0 0 1-1.316-2.278c0-.839.589-1.179 1.316-.76a2.9 2.9 0 0 1 1.316 2.278"/><path fill="url(#R)" d="M683.999 259.063c0 .838-.589 1.179-1.316.76a2.91 2.91 0 0 1-1.316-2.283c0-.839.59-1.179 1.316-.759a2.92 2.92 0 0 1 1.316 2.282"/><path fill="url(#S)" d="M689.576 262.283c0 .839-.589 1.179-1.315.759a2.9 2.9 0 0 1-1.316-2.278c0-.839.589-1.178 1.316-.759a2.9 2.9 0 0 1 1.315 2.278"/><path fill="url(#T)" d="M695.155 265.503c0 .839-.589 1.178-1.316.759a2.92 2.92 0 0 1-1.316-2.282c0-.838.589-1.179 1.316-.759a2.9 2.9 0 0 1 1.316 2.282"/><path fill="url(#U)" d="M683.999 300.842c0 .839-.589 1.179-1.316.76a2.91 2.91 0 0 1-1.316-2.283c0-.838.59-1.178 1.316-.758a2.91 2.91 0 0 1 1.316 2.281"/><path fill="url(#V)" d="M689.576 304.063c0 .839-.589 1.178-1.315.759a2.91 2.91 0 0 1-1.316-2.282c0-.839.589-1.179 1.316-.76a2.91 2.91 0 0 1 1.315 2.283"/><path fill="url(#W)" d="M695.155 307.283c0 .838-.589 1.178-1.316.758a2.9 2.9 0 0 1-1.316-2.278c0-.839.589-1.178 1.316-.759a2.9 2.9 0 0 1 1.316 2.279"/><defs><linearGradient id="a" x1="780.966" x2="780.966" y1="1042.53" y2="575.95" gradientUnits="userSpaceOnUse"><stop stop-color="#fff" stop-opacity="0"/><stop offset="1" stop-color="#fff"/></linearGradient><linearGradient id="b" x1="639.724" x2="639.724" y1="1122.08" y2="260.817" gradientUnits="userSpaceOnUse"><stop stop-color="#fff" stop-opacity="0"/><stop offset="1" stop-color="#e0e7fd"/></linearGradient><linearGradient id="c" x1="1286.47" x2="1286.47" y1="888.742" y2="422.72" gradientUnits="userSpaceOnUse"><stop stop-color="#fff" stop-opacity="0"/><stop offset="1" stop-color="#fff"/></linearGradient><linearGradient id="d" x1="1215.84" x2="1215.84" y1="968.126" y2="106.899" gradientUnits="userSpaceOnUse"><stop stop-color="#fff" stop-opacity="0"/><stop offset="1" stop-color="#e0e7fd"/></linearGradient><linearGradient id="e" x1="1404.69" x2="1404.69" y1="888.332" y2="422.312" gradientUnits="userSpaceOnUse"><stop stop-color="#fff" stop-opacity="0"/><stop offset="1" stop-color="#fff"/></linearGradient><linearGradient id="f" x1="1334.07" x2="1334.07" y1="968.287" y2="107.064" gradientUnits="userSpaceOnUse"><stop stop-color="#fff" stop-opacity="0"/><stop offset="1" stop-color="#e0e7fd"/></linearGradient><linearGradient id="g" x1="153.532" x2="153.532" y1="952.637" y2="91.409" gradientUnits="userSpaceOnUse"><stop stop-color="#fff" stop-opacity="0"/><stop offset="1" stop-color="#e0e7fd"/></linearGradient><linearGradient id="h" x1="224.155" x2="224.155" y1="873.253" y2="407.231" gradientUnits="userSpaceOnUse"><stop stop-color="#fff" stop-opacity="0"/><stop offset="1" stop-color="#fff"/></linearGradient><linearGradient id="i" x1="35.311" x2="35.311" y1="952.797" y2="91.575" gradientUnits="userSpaceOnUse"><stop stop-color="#fff" stop-opacity="0"/><stop offset="1" stop-color="#e0e7fd"/></linearGradient><linearGradient id="j" x1="105.936" x2="105.936" y1="872.843" y2="406.824" gradientUnits="userSpaceOnUse"><stop stop-color="#fff" stop-opacity="0"/><stop offset="1" stop-color="#fff"/></linearGradient><linearGradient id="k" x1="1078.08" x2="1078.08" y1="848.235" y2="382.447" gradientUnits="userSpaceOnUse"><stop stop-color="#fff" stop-opacity="0"/><stop offset="1" stop-color="#fff"/></linearGradient><linearGradient id="l" x1="936.834" x2="936.834" y1="927.76" y2="66.62" gradientUnits="userSpaceOnUse"><stop stop-color="#fff" stop-opacity="0"/><stop offset="1" stop-color="#e0e7fd"/></linearGradient><linearGradient id="m" x1="483.865" x2="483.865" y1="848.237" y2="381.951" gradientUnits="userSpaceOnUse"><stop stop-color="#fff" stop-opacity="0"/><stop offset="1" stop-color="#fff"/></linearGradient><linearGradient id="n" x1="342.622" x2="342.622" y1="927.76" y2="66.62" gradientUnits="userSpaceOnUse"><stop stop-color="#fff" stop-opacity="0"/><stop offset="1" stop-color="#e0e7fd"/></linearGradient><linearGradient id="o" x1="608.109" x2="812.21" y1="77.906" y2="77.906" gradientUnits="userSpaceOnUse"><stop stop-color="#fff"/><stop offset=".506" stop-color="#cad1e0"/><stop offset="1" stop-color="#c8cede"/></linearGradient><linearGradient id="p" x1="316.505" x2="419.561" y1="1310.61" y2="1307.85" gradientUnits="userSpaceOnUse"><stop stop-color="#3919bb"/><stop offset="1" stop-color="#6507fa"/></linearGradient><linearGradient id="q" x1="530.338" x2="655.897" y1="375.299" y2="355.434" gradientUnits="userSpaceOnUse"><stop stop-color="#fff"/><stop offset=".506" stop-color="#cad1e0"/><stop offset="1" stop-color="#c8cede"/></linearGradient><linearGradient id="r" x1="612.469" x2="702.617" y1="203.819" y2="203.819" gradientUnits="userSpaceOnUse"><stop stop-color="#fff"/><stop offset=".506" stop-color="#cad1e0"/><stop offset="1" stop-color="#c8cede"/></linearGradient><linearGradient id="s" x1="620.898" x2="703.407" y1="262.961" y2="262.961" gradientUnits="userSpaceOnUse"><stop stop-color="#fff"/><stop offset=".506" stop-color="#cad1e0"/><stop offset="1" stop-color="#c8cede"/></linearGradient><linearGradient id="t" x1="620.898" x2="703.407" y1="221.427" y2="221.427" gradientUnits="userSpaceOnUse"><stop stop-color="#fff"/><stop offset=".506" stop-color="#cad1e0"/><stop offset="1" stop-color="#c8cede"/></linearGradient><linearGradient id="u" x1="620.898" x2="703.407" y1="179.893" y2="179.893" gradientUnits="userSpaceOnUse"><stop stop-color="#fff"/><stop offset=".506" stop-color="#cad1e0"/><stop offset="1" stop-color="#c8cede"/></linearGradient><linearGradient id="v" x1="620.898" x2="703.407" y1="138.359" y2="138.359" gradientUnits="userSpaceOnUse"><stop stop-color="#fff"/><stop offset=".506" stop-color="#cad1e0"/><stop offset="1" stop-color="#c8cede"/></linearGradient><linearGradient id="w" x1="620.898" x2="703.407" y1="107.208" y2="107.208" gradientUnits="userSpaceOnUse"><stop stop-color="#fff"/><stop offset=".506" stop-color="#cad1e0"/><stop offset="1" stop-color="#c8cede"/></linearGradient><linearGradient id="x" x1="441.886" x2="1068.55" y1="182.853" y2="-95" gradientUnits="userSpaceOnUse"><stop stop-color="#fff"/><stop offset=".506" stop-color="#cad1e0"/><stop offset="1" stop-color="#c8cede"/></linearGradient><linearGradient id="y" x1="638.117" x2="677.751" y1="119.628" y2="119.628" gradientUnits="userSpaceOnUse"><stop stop-color="#5e98f7"/><stop offset="1" stop-color="#4670ba"/></linearGradient><linearGradient id="z" x1="451.888" x2="1078.47" y1="221.575" y2="-56.274" gradientUnits="userSpaceOnUse"><stop stop-color="#fff"/><stop offset=".506" stop-color="#cad1e0"/><stop offset="1" stop-color="#c8cede"/></linearGradient><linearGradient id="A" x1="638.117" x2="677.751" y1="160.906" y2="160.906" gradientUnits="userSpaceOnUse"><stop stop-color="#5e98f7"/><stop offset="1" stop-color="#4670ba"/></linearGradient><linearGradient id="B" x1="461.889" x2="1088.54" y1="260.629" y2="-17.227" gradientUnits="userSpaceOnUse"><stop stop-color="#fff"/><stop offset=".506" stop-color="#cad1e0"/><stop offset="1" stop-color="#c8cede"/></linearGradient><linearGradient id="C" x1="638.117" x2="677.751" y1="202.568" y2="202.568" gradientUnits="userSpaceOnUse"><stop stop-color="#5e98f7"/><stop offset="1" stop-color="#4670ba"/></linearGradient><linearGradient id="D" x1="472.027" x2="1098.69" y1="300.069" y2="22.218" gradientUnits="userSpaceOnUse"><stop stop-color="#fff"/><stop offset=".506" stop-color="#cad1e0"/><stop offset="1" stop-color="#c8cede"/></linearGradient><linearGradient id="E" x1="472.024" x2="1099.1" y1="300.068" y2="22.94" gradientUnits="userSpaceOnUse"><stop stop-color="#fff"/><stop offset=".506" stop-color="#cad1e0"/><stop offset="1" stop-color="#c8cede"/></linearGradient><linearGradient id="F" x1="638.117" x2="677.751" y1="244.617" y2="244.617" gradientUnits="userSpaceOnUse"><stop stop-color="#5e98f7"/><stop offset="1" stop-color="#4670ba"/></linearGradient><linearGradient id="G" x1="481.96" x2="1108.62" y1="338.727" y2="60.875" gradientUnits="userSpaceOnUse"><stop stop-color="#fff"/><stop offset=".506" stop-color="#cad1e0"/><stop offset="1" stop-color="#c8cede"/></linearGradient><linearGradient id="H" x1="638.117" x2="677.751" y1="285.827" y2="285.827" gradientUnits="userSpaceOnUse"><stop stop-color="#5e98f7"/><stop offset="1" stop-color="#4670ba"/></linearGradient><linearGradient id="I" x1="681.542" x2="683.818" y1="134.404" y2="133.09" gradientUnits="userSpaceOnUse"><stop stop-color="#5e98f7"/><stop offset="1" stop-color="#4670ba"/></linearGradient><linearGradient id="J" x1="686.945" x2="689.576" y1="136.967" y2="136.967" gradientUnits="userSpaceOnUse"><stop stop-color="#5e98f7"/><stop offset="1" stop-color="#4670ba"/></linearGradient><linearGradient id="K" x1="692.523" x2="695.155" y1="140.185" y2="140.185" gradientUnits="userSpaceOnUse"><stop stop-color="#5e98f7"/><stop offset="1" stop-color="#4670ba"/></linearGradient><linearGradient id="L" x1="681.367" x2="683.999" y1="175.26" y2="175.26" gradientUnits="userSpaceOnUse"><stop stop-color="#5e98f7"/><stop offset="1" stop-color="#4670ba"/></linearGradient><linearGradient id="M" x1="686.945" x2="689.576" y1="178.478" y2="178.478" gradientUnits="userSpaceOnUse"><stop stop-color="#5e98f7"/><stop offset="1" stop-color="#4670ba"/></linearGradient><linearGradient id="N" x1="692.523" x2="695.155" y1="181.7" y2="181.7" gradientUnits="userSpaceOnUse"><stop stop-color="#5e98f7"/><stop offset="1" stop-color="#4670ba"/></linearGradient><linearGradient id="O" x1="681.367" x2="683.999" y1="217.084" y2="217.084" gradientUnits="userSpaceOnUse"><stop stop-color="#5e98f7"/><stop offset="1" stop-color="#4670ba"/></linearGradient><linearGradient id="P" x1="686.945" x2="689.576" y1="220.304" y2="220.304" gradientUnits="userSpaceOnUse"><stop stop-color="#5e98f7"/><stop offset="1" stop-color="#4670ba"/></linearGradient><linearGradient id="Q" x1="692.523" x2="695.155" y1="223.526" y2="223.526" gradientUnits="userSpaceOnUse"><stop stop-color="#5e98f7"/><stop offset="1" stop-color="#4670ba"/></linearGradient><linearGradient id="R" x1="681.367" x2="683.999" y1="258.302" y2="258.302" gradientUnits="userSpaceOnUse"><stop stop-color="#5e98f7"/><stop offset="1" stop-color="#4670ba"/></linearGradient><linearGradient id="S" x1="686.945" x2="689.576" y1="261.524" y2="261.524" gradientUnits="userSpaceOnUse"><stop stop-color="#5e98f7"/><stop offset="1" stop-color="#4670ba"/></linearGradient><linearGradient id="T" x1="692.523" x2="695.155" y1="264.741" y2="264.741" gradientUnits="userSpaceOnUse"><stop stop-color="#5e98f7"/><stop offset="1" stop-color="#4670ba"/></linearGradient><linearGradient id="U" x1="681.367" x2="683.999" y1="300.081" y2="300.081" gradientUnits="userSpaceOnUse"><stop stop-color="#5e98f7"/><stop offset="1" stop-color="#4670ba"/></linearGradient><linearGradient id="V" x1="686.945" x2="689.576" y1="303.301" y2="303.301" gradientUnits="userSpaceOnUse"><stop stop-color="#5e98f7"/><stop offset="1" stop-color="#4670ba"/></linearGradient><linearGradient id="W" x1="692.523" x2="695.155" y1="306.523" y2="306.523" gradientUnits="userSpaceOnUse"><stop stop-color="#5e98f7"/><stop offset="1" stop-color="#4670ba"/></linearGradient></defs></svg>