<svg xmlns="http://www.w3.org/2000/svg" width="42" height="39" fill="none" viewBox="0 0 42 39"><g clip-path="url(#a)"><path fill="#1b69ff" d="M19.488 27.748a1.583 1.583 0 0 1 2.171-1.468 1.56 1.56 0 0 1 .973 1.44v.028a1.572 1.572 0 1 1-3.144 0"/><path stroke="#1b69ff" stroke-linecap="round" stroke-linejoin="round" stroke-width="3" d="M5.962 36.443h30.35a4.354 4.354 0 0 0 3.811-5.992L24.877 3.761a4.361 4.361 0 0 0-7.626 0L2.001 30.45a4.36 4.36 0 0 0 3.817 5.99m15.223-14.71v-6.5"/></g><defs><clipPath id="a"><path fill="#fff" d="M.16 0h41.786v38.018H.16z"/></clipPath></defs></svg>