<svg width="583" height="346" viewBox="0 0 583 346" fill="none" xmlns="http://www.w3.org/2000/svg">
<g opacity="0.71">
<path d="M99.2578 191.605H201.202L314.685 126.085C329.299 117.647 354.829 118.706 371.706 128.449L481.095 191.606H582.988V205.614H582.956C583.372 211.324 580.187 216.836 573.164 220.891L367.604 339.569C352.991 348.007 327.459 346.949 310.582 337.205L113.218 223.259C104.451 218.197 99.7831 211.789 99.3327 205.614H99.2578V191.605Z" fill="#F0F4FC"/>
<path d="M367.401 325.784L572.961 207.106C587.575 198.668 585.743 183.928 568.867 174.186L371.503 60.2373C354.626 50.4934 329.097 49.4351 314.481 57.8736L108.921 176.552C94.307 184.991 96.1386 199.73 113.015 209.472L310.379 323.418C327.256 333.163 352.785 334.221 367.401 325.784Z" fill="#FBFDFF"/>
</g>
<path d="M0.84597 181.317C0.84597 181.317 -1.05746 177.374 0.84597 169.434C2.7494 161.495 8.46021 165.195 8.46021 165.195C10.6117 178.188 25.9021 171.106 38.6816 172.885L125.731 223.791L163.716 237.506L284.976 174.93L282.175 173.311C292.537 168.47 298.475 171.747 304.083 161.647L312.244 166.513L317.095 167.88L316.739 181.754C316.739 187.148 313.181 192.542 306.072 196.647L184.589 266.789C170.365 274.999 147.219 274.999 132.995 266.789L11.513 196.648C4.51917 192.611 0.962457 187.324 0.851683 182.022C0.846483 181.785 0.856372 181.547 0.866253 181.31L0.84597 181.317Z" fill="url(#paint0_linear_9_36801)"/>
<path d="M184.335 253.877L305.817 183.737C320.041 175.52 320.041 162.161 305.817 153.951L184.335 83.8105C170.117 75.6008 146.97 75.6008 132.745 83.8152L11.2625 153.951C-2.96175 162.168 -2.96171 175.527 11.2579 183.737L132.739 253.877C146.966 262.087 170.112 262.087 184.335 253.877Z" fill="#333C5E"/>
<path d="M250.021 223.929L250.152 223.704L450.307 339.894L450.047 340.343L249.891 224.154L250.021 223.929Z" fill="url(#paint1_linear_9_36801)"/>
<path d="M227.189 335.653L227.131 335.565L226.906 335.217L295.665 290.799C297.413 289.669 298.842 288.11 299.816 286.271C300.79 284.431 301.275 282.372 301.225 280.292C301.176 278.211 300.593 276.177 299.533 274.386C298.473 272.595 296.971 271.106 295.171 270.061L232.215 233.515L232.346 233.29L232.476 233.065L295.432 269.61C297.309 270.7 298.875 272.253 299.98 274.121C301.086 275.989 301.693 278.109 301.745 280.279C301.796 282.449 301.29 284.595 300.275 286.514C299.26 288.432 297.77 290.058 295.947 291.236L227.189 335.653Z" fill="url(#paint2_linear_9_36801)"/>
<path d="M427.107 203.297L426.824 202.861L351.675 251.408C348.648 253.363 345.139 254.444 341.535 254.53C337.932 254.616 334.376 253.703 331.259 251.894L268.363 215.383L268.232 215.608L268.102 215.833L331.273 252.504C334.39 254.313 337.946 255.226 341.549 255.14C345.152 255.055 348.662 253.975 351.689 252.019L427.107 203.297Z" fill="url(#paint3_linear_9_36801)"/>
<path d="M232.424 235.377C233.573 235.377 234.504 234.446 234.504 233.297C234.504 232.148 233.573 231.217 232.424 231.217C231.275 231.217 230.344 232.148 230.344 233.297C230.344 234.446 231.275 235.377 232.424 235.377Z" fill="url(#paint4_linear_9_36801)"/>
<path d="M250.049 225.548C251.198 225.548 252.129 224.617 252.129 223.468C252.129 222.319 251.198 221.388 250.049 221.388C248.9 221.388 247.969 222.319 247.969 223.468C247.969 224.617 248.9 225.548 250.049 225.548Z" fill="url(#paint5_linear_9_36801)"/>
<path d="M267.783 216.655C268.932 216.655 269.864 215.724 269.864 214.575C269.864 213.426 268.932 212.495 267.783 212.495C266.634 212.495 265.703 213.426 265.703 214.575C265.703 215.724 266.634 216.655 267.783 216.655Z" fill="url(#paint6_linear_9_36801)"/>
<path d="M158.544 241.142C166.033 241.142 173.522 239.494 179.228 236.199L274.143 181.402C279.857 178.101 283.007 173.643 283.012 168.845C283.016 164.047 279.857 159.588 274.143 156.288L179.231 101.49C167.828 94.9089 149.272 94.8996 137.859 101.49L42.9473 156.288C37.2266 159.588 34.0781 164.047 34.0781 168.845C34.0781 173.643 37.2282 178.102 42.9421 181.406L137.854 236.199C143.559 239.494 151.052 241.142 158.544 241.142Z" stroke="#6FA6E3" stroke-width="2"/>
<path d="M11.2578 183.737L132.74 253.878C146.964 262.087 170.11 262.087 184.333 253.878L305.816 183.737C312.175 180.063 315.679 175.367 316.357 170.555C317.189 176.506 313.682 182.62 305.816 187.168L184.335 257.304C170.111 265.519 146.965 265.519 132.742 257.304L11.2578 187.169C3.39237 182.628 -0.112356 176.512 0.721826 170.561C1.39531 175.367 4.90419 180.069 11.2578 183.737Z" fill="#242B43"/>
<path opacity="0.56" d="M221.087 133.703L96.6091 205.57C88.6001 210.194 76.5835 203.258 84.5956 198.633L209.073 126.766C217.082 122.14 229.097 129.078 221.087 133.703Z" fill="#242B43"/>
<path d="M88.7985 176.607L209.639 106.707C211.882 105.412 213.745 103.549 215.04 101.306C216.335 99.063 217.016 96.5186 217.016 93.9285L216.728 22.4546L76.7658 94.9868V165.399C76.7586 166.519 77.0119 167.625 77.5056 168.631C77.9992 169.636 78.7198 170.513 79.6105 171.193C81.827 172.896 88.7985 176.607 88.7985 176.607Z" fill="#F2F5FC"/>
<path d="M219.059 27.2475L217.456 4.5842C217.456 4.5842 210.677 1.80031 208.227 0.673856C207.167 0.181211 206.003 -0.0472271 204.835 0.00811194C203.667 0.063451 202.53 0.400915 201.522 0.991611L84.1432 68.7606C81.9 70.0555 80.0372 71.9182 78.7421 74.1613C77.447 76.4044 76.7651 78.9489 76.7651 81.539L76.7422 95.4351L85.3513 100.347L219.059 27.2475Z" fill="url(#paint7_linear_9_36801)"/>
<path d="M85.3516 100.244V170.398C85.3506 171.683 85.6882 172.946 86.3305 174.059C86.9727 175.173 87.897 176.097 89.0101 176.74C90.1232 177.383 91.386 177.721 92.6713 177.72C93.9566 177.72 95.219 177.38 96.3317 176.737L213.71 108.967C215.953 107.672 217.815 105.81 219.11 103.567C220.404 101.324 221.086 98.7797 221.085 96.19V21.7539L85.3516 100.244Z" fill="#F7F9FC"/>
<path d="M85.3516 85.113V100.347L221.088 22.0423V10.9046C221.088 9.61984 220.75 8.35765 220.108 7.24501C219.465 6.13237 218.541 5.20849 217.428 4.56626C216.315 3.92403 215.053 3.58609 213.768 3.58643C212.484 3.58676 211.221 3.92536 210.109 4.56818L92.7307 72.3382C90.4878 73.6326 88.6251 75.4946 87.3298 77.7371C86.0345 79.9795 85.3522 82.5234 85.3516 85.113Z" fill="url(#paint8_linear_9_36801)"/>
<path d="M85.3516 85.113V100.347L221.088 22.0423V10.9046C221.088 9.61984 220.75 8.35765 220.108 7.24501C219.465 6.13237 218.541 5.20849 217.428 4.56626C216.315 3.92403 215.053 3.58609 213.768 3.58643C212.484 3.58676 211.221 3.92536 210.109 4.56818L92.7307 72.3382C90.4878 73.6326 88.6251 75.4946 87.3298 77.7371C86.0345 79.9795 85.3522 82.5234 85.3516 85.113Z" fill="url(#paint9_linear_9_36801)"/>
<path d="M182.432 38.6101L100.793 85.7465C95.8712 88.5882 95.8712 81.2059 100.793 78.3642L182.432 31.2293C187.354 28.3877 187.354 35.7705 182.432 38.6101Z" fill="url(#paint10_linear_9_36801)"/>
<path d="M199.979 19.8413C199.979 21.1316 198.932 22.7822 197.641 23.5275C196.351 24.2727 195.305 23.8301 195.305 22.5394C195.305 21.2486 196.351 19.5984 197.641 18.8532C198.932 18.1079 199.979 18.5505 199.979 19.8413Z" fill="white"/>
<path d="M206.682 16.0322C206.682 17.323 205.636 18.9731 204.345 19.7184C203.054 20.4636 202.008 20.0211 202.008 18.7303C202.008 17.4395 203.054 15.7893 204.345 15.0441C205.636 14.2988 206.682 14.7414 206.682 16.0322Z" fill="white"/>
<path d="M213.385 12.2235C213.385 13.5143 212.339 15.1644 211.048 15.9097C209.757 16.6549 208.711 16.2124 208.711 14.9216C208.711 13.6308 209.757 11.9806 211.048 11.2354C212.339 10.4901 213.385 10.9332 213.385 12.2235Z" fill="#FFE06A"/>
<g style="mix-blend-mode:multiply">
<path d="M178.142 82.6469L176.617 77.1108L171.377 80.5521L170.489 87.6728C169.708 88.4529 168.831 89.389 167.982 90.412C167.202 91.3481 166.462 92.3319 165.761 93.3633L161.04 92.8464L157.603 99.7258L160.745 103.404C160.426 104.415 160.081 105.602 159.799 106.79C159.5 108.045 159.272 109.315 159.118 110.596L153.961 115.412L154.341 121.7L159.672 119.78C159.956 120.644 160.311 121.484 160.734 122.289C161.112 123 161.57 123.665 162.098 124.271L159.526 131.589L163.499 133.602L167.898 127.21C168.666 127.231 169.434 127.188 170.195 127.082C171.136 126.941 172.06 126.701 172.951 126.366L174.476 131.901L179.717 128.46L180.605 121.34C181.385 120.56 182.263 119.623 183.112 118.6C183.891 117.664 184.631 116.681 185.332 115.65L190.053 116.166L193.49 109.287L190.35 105.608C190.669 104.596 191.014 103.41 191.296 102.222C191.596 100.967 191.823 99.6964 191.977 98.4158L197.133 93.6L196.754 87.3119L191.423 89.2309C191.14 88.3664 190.784 87.5271 190.361 86.7221C189.983 86.0116 189.525 85.3465 188.997 84.7397L191.569 77.4224L187.595 75.4092L183.197 81.8013C182.429 81.7795 181.661 81.8223 180.9 81.9292C179.958 82.07 179.033 82.3106 178.142 82.6469ZM185.371 98.0533C185.764 104.566 181.683 112.733 176.257 116.297C170.83 119.86 166.112 117.47 165.719 110.958C165.326 104.446 169.407 96.2783 174.834 92.7148C180.261 89.1513 184.98 91.5416 185.373 98.0533H185.371Z" fill="#DCE4F2"/>
</g>
<g style="mix-blend-mode:multiply" opacity="0.42">
<path d="M121.472 100.365L120.77 97.8171L118.356 99.4023L117.947 102.682C117.588 103.041 117.184 103.474 116.793 103.944C116.434 104.375 116.093 104.828 115.77 105.303L113.595 105.065L112.012 108.234L113.459 109.928C113.312 110.396 113.153 110.941 113.024 111.489C112.886 112.066 112.782 112.652 112.712 113.242L110.336 115.46L110.511 118.356L112.967 117.472C113.097 117.87 113.261 118.256 113.456 118.627C113.63 118.955 113.841 119.261 114.085 119.54L112.9 122.911L114.73 123.838L116.758 120.893C117.112 120.903 117.466 120.884 117.816 120.835C118.25 120.77 118.675 120.659 119.086 120.504L119.788 123.053L122.202 121.468L122.611 118.188C122.97 117.83 123.374 117.396 123.766 116.926C124.124 116.495 124.465 116.042 124.789 115.567L126.963 115.805L128.546 112.636L127.099 110.941C127.246 110.473 127.405 109.929 127.535 109.381C127.673 108.803 127.777 108.218 127.847 107.628L130.222 105.41L130.047 102.514L127.592 103.398C127.461 103 127.297 102.613 127.102 102.242C126.928 101.915 126.718 101.609 126.474 101.329L127.659 97.9586L125.829 97.0312L123.8 99.9753C123.447 99.9655 123.093 99.9853 122.743 100.035C122.309 100.1 121.883 100.21 121.472 100.365ZM124.8 107.462C124.981 110.462 123.102 114.223 120.602 115.865C118.102 117.508 115.929 116.406 115.748 113.407C115.567 110.407 117.447 106.646 119.947 105.003C122.446 103.361 124.622 104.462 124.803 107.462L124.8 107.462Z" fill="#D5DEEF"/>
</g>
<path d="M133.313 103.473L129.992 101.826L132.448 100.942L135.768 102.589L133.313 103.473Z" fill="url(#paint11_linear_9_36801)"/>
<path d="M125.507 123.127L122.187 121.48L121.484 118.932L124.804 120.579L125.507 123.127Z" fill="url(#paint12_linear_9_36801)"/>
<path d="M130.525 107.536C130.706 110.536 128.826 114.297 126.326 115.939C125.084 116.755 123.923 116.894 123.047 116.459L119.727 114.812C120.603 115.247 121.764 115.108 123.006 114.292C125.505 112.651 127.385 108.889 127.205 105.889C127.114 104.381 126.518 103.351 125.63 102.911L128.951 104.558C129.838 104.999 130.434 106.028 130.525 107.536Z" fill="url(#paint13_linear_9_36801)"/>
<path d="M129.522 100.051L126.203 98.4036L128.231 95.4595L131.552 97.1065L129.522 100.051Z" fill="url(#paint14_linear_9_36801)"/>
<path d="M118.625 122.983L115.305 121.336L116.489 117.966L119.809 119.613L118.625 122.983Z" fill="url(#paint15_linear_9_36801)"/>
<path d="M128.465 100.11C128.031 100.175 127.606 100.285 127.196 100.44L123.875 98.793C124.285 98.6383 124.711 98.5276 125.144 98.4628C125.495 98.4135 125.849 98.3938 126.202 98.404L129.522 100.051C129.169 100.041 128.815 100.061 128.465 100.11Z" fill="url(#paint16_linear_9_36801)"/>
<path d="M119.177 118.7C119.351 119.027 119.562 119.334 119.805 119.613L116.485 117.966C116.241 117.686 116.031 117.38 115.857 117.053C115.662 116.682 115.498 116.296 115.367 115.897L118.688 117.544C118.818 117.943 118.982 118.329 119.177 118.7Z" fill="url(#paint17_linear_9_36801)"/>
<path d="M122.515 104.017C122.156 104.448 121.815 104.901 121.492 105.376L118.172 103.729C118.495 103.255 118.836 102.802 119.195 102.37C119.586 101.902 119.991 101.466 120.349 101.108L123.669 102.755C123.311 103.113 122.907 103.546 122.515 104.017Z" fill="url(#paint18_linear_9_36801)"/>
<path d="M118.745 111.561C118.607 112.138 118.503 112.724 118.433 113.313L115.109 111.666C115.18 111.077 115.284 110.491 115.421 109.914C115.551 109.367 115.71 108.822 115.857 108.354L119.177 110.001C119.033 110.467 118.875 111.014 118.745 111.561Z" fill="url(#paint19_linear_9_36801)"/>
<path d="M124.078 99.4749L120.758 97.8278L123.171 96.2427L126.492 97.8897L124.078 99.4749Z" fill="url(#paint20_linear_9_36801)"/>
<path d="M123.672 102.755L120.352 101.108L120.761 97.8281L124.081 99.4752L123.672 102.755Z" fill="url(#paint21_linear_9_36801)"/>
<path d="M116.054 115.535L112.734 113.888L115.11 111.669L118.43 113.316L116.054 115.535Z" fill="url(#paint22_linear_9_36801)"/>
<path d="M116.229 118.428L112.909 116.781L112.734 113.885L116.054 115.532L116.229 118.428Z" fill="url(#paint23_linear_9_36801)"/>
<path d="M119.312 105.138L115.992 103.491L118.167 103.729L121.487 105.376L119.312 105.138Z" fill="url(#paint24_linear_9_36801)"/>
<path d="M119.181 110.001L115.861 108.353L114.414 106.66L117.735 108.307L119.181 110.001Z" fill="url(#paint25_linear_9_36801)"/>
<path d="M127.191 100.44L126.489 97.8917L124.076 99.4769L123.666 102.757C123.307 103.115 122.903 103.548 122.512 104.019C122.153 104.45 121.812 104.903 121.489 105.378L119.314 105.14L117.731 108.309L119.178 110.003C119.031 110.471 118.872 111.016 118.742 111.563C118.605 112.141 118.501 112.726 118.43 113.316L116.055 115.535L116.229 118.431L118.685 117.547C118.816 117.945 118.979 118.332 119.174 118.703C119.348 119.03 119.559 119.336 119.803 119.615L118.618 122.986L120.448 123.913L122.476 120.969C122.83 120.979 123.184 120.959 123.534 120.91C123.968 120.845 124.393 120.735 124.803 120.58L125.506 123.128L127.919 121.544L128.329 118.264C128.688 117.905 129.092 117.472 129.483 117.002C129.842 116.571 130.183 116.118 130.506 115.643L132.681 115.88L134.264 112.711L132.817 111.017C132.964 110.549 133.123 110.004 133.253 109.457C133.39 108.879 133.495 108.294 133.565 107.704L135.94 105.486L135.765 102.589L133.309 103.474C133.179 103.075 133.015 102.689 132.82 102.318C132.646 101.991 132.435 101.684 132.192 101.405L133.376 98.0342L131.546 97.1069L129.518 100.051C129.164 100.041 128.811 100.061 128.46 100.11C128.027 100.175 127.601 100.285 127.191 100.44ZM130.52 107.537C130.701 110.536 128.821 114.298 126.321 115.94C123.821 117.582 121.648 116.481 121.467 113.481C121.287 110.481 123.166 106.72 125.666 105.078C128.166 103.436 130.341 104.537 130.522 107.536L130.52 107.537Z" fill="url(#paint26_linear_9_36801)"/>
<path d="M117.735 108.307L114.414 106.659L115.997 103.491L119.317 105.138L117.735 108.307Z" fill="url(#paint27_linear_9_36801)"/>
<g style="mix-blend-mode:multiply" opacity="0.42">
<path d="M200.759 32.5807L199.765 28.9673L196.344 31.2135L195.764 35.8613C195.256 36.3689 194.682 36.9825 194.128 37.6487C193.619 38.2593 193.136 38.9007 192.679 39.573L189.597 39.2355L187.354 43.7257L189.404 46.1263C189.196 46.7868 188.971 47.5611 188.787 48.3366C188.592 49.1554 188.443 49.9847 188.343 50.8204L184.977 53.9637L185.224 58.068L188.704 56.8151C188.889 57.3794 189.121 57.9272 189.398 58.4529C189.644 58.9165 189.943 59.3505 190.288 59.7463L188.609 64.523L191.203 65.8372L194.073 61.6648C194.575 61.6788 195.076 61.651 195.573 61.5815C196.187 61.4894 196.79 61.3325 197.372 61.1135L198.367 64.7264L201.788 62.4807L202.367 57.8329C202.876 57.3253 203.449 56.7111 204.004 56.0455C204.512 55.4342 204.995 54.7928 205.453 54.1213L208.535 54.4582L210.778 49.968L208.727 47.5669C208.935 46.9064 209.161 46.1325 209.345 45.3566C209.541 44.5379 209.689 43.7086 209.789 42.8728L213.155 39.7296L212.908 35.6252L209.427 36.8775C209.242 36.3134 209.011 35.7657 208.734 35.2403C208.488 34.7763 208.189 34.342 207.844 33.9459L209.523 29.1696L206.929 27.856L204.058 32.0279C203.557 32.0138 203.055 32.0418 202.559 32.1116C201.944 32.2038 201.341 32.361 200.759 32.5807ZM205.479 42.6372C205.736 46.8877 203.072 52.2194 199.529 54.5467C195.987 56.8739 192.908 55.3127 192.651 51.0622C192.394 46.8117 195.058 41.4801 198.601 39.1528C202.143 36.8255 205.222 38.3872 205.479 42.6372Z" fill="#D5DEEF"/>
</g>
<path d="M217.541 36.9848L212.836 34.6508L216.316 33.3979L221.021 35.732L217.541 36.9848Z" fill="url(#paint28_linear_9_36801)"/>
<path d="M206.474 64.8361L201.769 62.5021L200.773 58.8892L205.478 61.2232L206.474 64.8361Z" fill="url(#paint29_linear_9_36801)"/>
<path d="M213.591 42.7433C213.847 46.9938 211.183 52.3255 207.641 54.6528C205.881 55.8089 204.236 56.005 202.994 55.3887L198.289 53.0546C199.531 53.6704 201.177 53.4743 202.936 52.3187C206.478 49.9925 209.142 44.6613 208.885 40.4093C208.756 38.2708 207.912 36.8125 206.654 36.189L211.36 38.5256C212.618 39.1471 213.462 40.6059 213.591 42.7433Z" fill="url(#paint30_linear_9_36801)"/>
<path d="M212.164 32.1354L207.461 29.8019L210.332 25.6294L215.037 27.9635L212.164 32.1354Z" fill="url(#paint31_linear_9_36801)"/>
<path d="M196.721 64.6328L192.016 62.2988L193.695 57.5225L198.4 59.8565L196.721 64.6328Z" fill="url(#paint32_linear_9_36801)"/>
<path d="M210.668 32.2193C210.054 32.3113 209.451 32.4682 208.869 32.6873L204.164 30.3533C204.745 30.134 205.348 29.9771 205.963 29.8852C206.459 29.8152 206.961 29.7872 207.462 29.8015L212.167 32.135C211.666 32.1211 211.164 32.1493 210.668 32.2193Z" fill="url(#paint33_linear_9_36801)"/>
<path d="M197.508 58.5625C197.754 59.0261 198.053 59.4601 198.399 59.856L193.693 57.5219C193.348 57.1261 193.049 56.6921 192.803 56.2285C192.526 55.7028 192.294 55.1551 192.109 54.5908L196.814 56.9248C196.999 57.4891 197.231 58.0369 197.508 58.5625Z" fill="url(#paint34_linear_9_36801)"/>
<path d="M202.233 37.7548C201.724 38.3654 201.241 39.0068 200.783 39.6791L196.078 37.345C196.535 36.6727 197.019 36.0313 197.528 35.4208C198.082 34.7546 198.655 34.1404 199.164 33.6328L203.869 35.9669C203.361 36.475 202.787 37.0892 202.233 37.7548Z" fill="url(#paint35_linear_9_36801)"/>
<path d="M196.891 48.4462C196.695 49.2649 196.547 50.0942 196.447 50.93L191.742 48.5959C191.843 47.7602 191.991 46.9309 192.186 46.1121C192.37 45.3367 192.596 44.5618 192.804 43.9019L197.509 46.2359C197.302 46.8959 197.077 47.6708 196.891 48.4462Z" fill="url(#paint36_linear_9_36801)"/>
<path d="M204.447 31.3194L199.742 28.9854L203.163 26.7393L207.868 29.0733L204.447 31.3194Z" fill="url(#paint37_linear_9_36801)"/>
<path d="M203.877 35.9672L199.172 33.6332L199.752 28.9854L204.457 31.3194L203.877 35.9672Z" fill="url(#paint38_linear_9_36801)"/>
<path d="M193.088 54.0759L188.383 51.7419L191.749 48.5986L196.454 50.9327L193.088 54.0759Z" fill="url(#paint39_linear_9_36801)"/>
<path d="M193.335 58.1776L188.63 55.8436L188.383 51.7393L193.088 54.0733L193.335 58.1776Z" fill="url(#paint40_linear_9_36801)"/>
<path d="M197.705 39.3447L193 37.0107L196.081 37.3482L200.786 39.6823L197.705 39.3447Z" fill="url(#paint41_linear_9_36801)"/>
<path d="M197.513 46.2351L192.808 43.9011L190.758 41.5005L195.463 43.8346L197.513 46.2351Z" fill="url(#paint42_linear_9_36801)"/>
<path d="M208.87 32.6873L207.874 29.0733L204.454 31.3195L203.874 35.9673C203.366 36.4749 202.792 37.0886 202.238 37.7548C201.729 38.3653 201.246 39.0067 200.789 39.679L197.707 39.3414L195.464 43.8317L197.514 46.2323C197.306 46.8928 197.081 47.6672 196.896 48.4431C196.701 49.2619 196.553 50.0912 196.452 50.9269L193.086 54.0707L193.334 58.175L196.814 56.9222C196.999 57.4865 197.231 58.0342 197.508 58.5598C197.754 59.0235 198.053 59.4574 198.398 59.8533L196.72 64.6295L199.313 65.9438L202.184 61.7713C202.685 61.7853 203.187 61.7574 203.683 61.688C204.298 61.5959 204.9 61.439 205.482 61.22L206.477 64.8329L209.898 62.5872L210.477 57.9394C210.985 57.4318 211.559 56.8177 212.113 56.152C212.622 55.5408 213.105 54.8993 213.562 54.2277L216.644 54.5648L218.888 50.0745L216.837 47.6734C217.045 47.0129 217.27 46.2385 217.455 45.4631C217.651 44.6442 217.799 43.8148 217.899 42.9788L221.265 39.8355L221.017 35.7311L217.537 36.984C217.352 36.4197 217.12 35.8718 216.844 35.3463C216.597 34.8824 216.299 34.4481 215.954 34.0519L217.633 29.2756L215.039 27.9614L212.168 32.1334C211.667 32.1192 211.166 32.1472 210.669 32.2171C210.055 32.3096 209.451 32.4672 208.87 32.6873ZM213.59 42.7427C213.846 46.9931 211.183 52.3248 207.64 54.6521C204.098 56.9794 201.018 55.4187 200.762 51.1677C200.506 46.9167 203.169 41.5856 206.712 39.2583C210.254 36.931 213.333 38.4932 213.59 42.7427Z" fill="url(#paint43_linear_9_36801)"/>
<path d="M195.463 43.8346L190.758 41.5005L193.001 37.0098L197.706 39.3438L195.463 43.8346Z" fill="url(#paint44_linear_9_36801)"/>
<g style="mix-blend-mode:multiply">
<path d="M133.722 71.0624L133.67 74.3908C133.67 75.847 134.459 77.2231 135.921 78.3808L135.926 83.3786C135.926 84.9388 137.007 86.384 138.966 87.4699C139.379 88.216 139.833 88.9389 140.326 89.6355C140.374 89.6999 140.422 89.7676 140.472 89.8367C140.892 90.4888 141.471 91.0227 142.155 91.3881C143.541 92.0338 145.051 92.3679 146.58 92.3667C148.109 92.3655 149.618 92.0292 151.003 91.3813C151.962 90.8563 152.759 90.0794 153.308 89.1346C153.314 89.1252 153.32 89.1155 153.325 89.1055L154.279 87.3399C156.103 86.2654 157.101 84.8644 157.1 83.3624L157.095 78.3797C158.567 77.2169 159.361 75.8314 159.359 74.37L159.281 71.0416C159.279 70.5446 159.185 70.0522 159.005 69.5891C160.03 63.7977 166.332 57.8003 169.008 53.1618C171.631 48.6181 173.523 43.8226 173.579 39.3131C173.579 39.2091 173.579 39.0999 173.579 38.9927C173.577 37.8186 173.492 36.6461 173.322 35.4844L128.172 61.5557C130.685 64.3339 133.045 67.1916 133.91 69.8611C133.8 70.2127 133.738 70.578 133.727 70.9465C133.723 70.9855 133.722 71.025 133.722 71.0624Z" fill="#DCE4F2"/>
</g>
<path d="M144.102 84.0798L159.187 84.0684L158.054 86.1663C157.538 87.0587 156.788 87.7929 155.885 88.2897C153.54 89.542 149.736 89.5446 147.389 88.2959C146.687 87.9049 146.099 87.3375 145.684 86.6499C145.11 85.8228 144.582 84.9648 144.102 84.0798Z" fill="url(#paint45_linear_9_36801)"/>
<path d="M161.763 70.5771L157.082 70.5855C157.082 70.5803 153.875 70.5829 153.875 70.5829H150.454L141.336 70.5896L141.347 80.6139C141.347 82.0071 142.346 83.3993 144.341 84.4623C146.252 85.4076 148.34 85.9379 150.47 86.0184C151.611 86.0819 152.756 86.0426 153.891 85.9008C154.982 85.7707 156.056 85.5281 157.098 85.1769C157.678 84.9789 158.242 84.7355 158.785 84.4488C160.778 83.3842 161.773 81.9905 161.772 80.5972L161.763 70.5771Z" fill="url(#paint46_linear_9_36801)"/>
<path d="M164.02 68.2798L158.306 68.2902C158.306 68.284 154.39 68.2871 154.39 68.2871L150.212 68.2902L139.078 68.2985L139.092 71.6269C139.092 73.3281 140.312 75.0286 142.748 76.3246C145.081 77.4791 147.631 78.1268 150.231 78.225C151.625 78.3027 153.023 78.2549 154.409 78.082C155.741 77.9229 157.053 77.6267 158.324 77.1978C159.033 76.9577 159.722 76.662 160.384 76.3137C162.818 75.0136 164.034 73.3119 164.032 71.6108L164.02 68.2798Z" fill="url(#paint47_linear_9_36801)"/>
<path d="M121.852 36.2732C121.839 21.7957 134.541 10.0495 150.222 10.0381C165.903 10.0267 178.626 21.7536 178.638 36.2311C178.638 36.3379 178.638 36.4447 178.638 36.5514C178.583 41.0609 176.69 45.8564 174.068 50.4002C171.117 55.514 163.76 62.28 163.927 68.6024C164.088 74.7532 139.512 75.1121 139.317 68.9623C139.157 63.8719 131.854 57.7856 127.898 52.8086C124.49 48.5212 121.937 42.0844 121.858 36.6087C121.854 36.4967 121.852 36.3848 121.852 36.2732Z" fill="url(#paint48_linear_9_36801)"/>
<path d="M151.557 74.937C158.444 74.937 164.027 71.9608 164.027 68.2895C164.027 64.6183 158.444 61.6421 151.557 61.6421C144.669 61.6421 139.086 64.6183 139.086 68.2895C139.086 71.9608 144.669 74.937 151.557 74.937Z" fill="#FBCB21"/>
<path d="M151.539 75.247C148.443 75.3103 145.376 74.6328 142.594 73.2708C140.132 71.9608 138.775 70.1951 138.773 68.2995C138.772 66.4039 140.126 64.6372 142.586 63.3235C145.392 62.015 148.451 61.3358 151.548 61.3335C154.644 61.3312 157.704 62.0057 160.513 63.31C162.975 64.6201 164.332 66.3857 164.334 68.2813C164.335 70.177 162.981 71.9436 160.521 73.2573C157.736 74.6265 154.663 75.3089 151.559 75.2475L151.539 75.247ZM151.563 61.9511C148.416 61.9511 145.271 62.5903 142.876 63.8691C140.627 65.0699 139.391 66.6431 139.391 68.2985C139.391 69.9538 140.633 71.526 142.884 72.7237C145.271 73.9937 148.406 74.6287 151.54 74.6292C154.687 74.6292 157.833 73.9895 160.228 72.7107C162.476 71.5099 163.713 69.9367 163.713 68.2813C163.713 66.626 162.471 65.0538 160.22 63.8566C157.833 62.5856 154.698 61.9511 151.564 61.9511H151.563Z" fill="url(#paint49_linear_9_36801)"/>
<path d="M151.548 72.4376C149.024 72.4895 146.523 71.9482 144.246 70.8572C142.79 70.0833 141.923 69.1259 141.922 68.2964C141.921 67.4669 142.788 66.5084 144.241 65.7325C146.537 64.6853 149.031 64.1425 151.555 64.1406C154.079 64.1387 156.574 64.6778 158.872 65.7215C160.328 66.4954 161.195 67.4528 161.196 68.2823C161.196 69.1118 160.33 70.0703 158.877 70.8463C156.593 71.9448 154.083 72.4899 151.549 72.4376H151.548Z" fill="#FBDA21"/>
<path d="M151.546 72.7478C148.971 72.7995 146.419 72.2457 144.097 71.1309C142.517 70.29 141.61 69.2587 141.609 68.2966C141.609 67.3344 142.514 66.3027 144.092 65.4596C146.433 64.3887 148.978 63.8334 151.552 63.8315C154.127 63.8297 156.672 64.3812 159.014 65.4487C160.595 66.2896 161.502 67.3209 161.502 68.283C161.503 69.2452 160.598 70.2775 159.02 71.1205C156.691 72.2425 154.13 72.8 151.546 72.7478ZM151.546 72.1284C154.029 72.1809 156.49 71.6482 158.729 70.5734C160.059 69.863 160.884 68.9857 160.884 68.2851C160.883 67.5846 160.056 66.7057 158.724 65.9968C156.471 64.9771 154.026 64.4505 151.553 64.4524C149.08 64.4543 146.636 64.9846 144.384 66.0078C143.055 66.7182 142.229 67.5955 142.229 68.296C142.23 68.9966 143.057 69.8755 144.389 70.5843C146.621 71.6515 149.072 72.1804 151.545 72.1284H151.546Z" fill="#FBEC21"/>
<g style="mix-blend-mode:multiply">
<path d="M147.099 68.8914C146.978 68.8915 146.86 68.8529 146.762 68.7813C146.663 68.7097 146.591 68.6087 146.554 68.493C146.492 68.2995 140.348 49.0848 138.296 42.8398C138.069 42.2697 138.025 41.643 138.17 41.0467C138.314 40.4504 138.641 39.9139 139.104 39.5114C139.53 39.2004 140.043 39.0339 140.57 39.0365C141.097 39.039 141.609 39.2104 142.031 39.5255C142.169 39.6139 142.331 39.7189 142.508 39.8339C143.372 40.4232 144.27 40.9588 145.199 41.4377C145.429 41.524 145.677 41.556 145.921 41.5312C146.166 41.5064 146.402 41.4255 146.61 41.2947C146.926 41.0855 147.186 40.8008 147.365 40.4664C147.544 40.1319 147.637 39.7582 147.636 39.3788C147.752 38.0516 147.766 36.1081 147.779 34.393C147.782 33.8906 147.786 33.4048 147.792 32.9623C147.814 31.2892 148.853 30.1914 149.868 29.9709C150.325 29.878 150.799 29.9503 151.208 30.1747C151.616 30.3992 151.932 30.7613 152.099 31.1967C152.49 32.0288 152.89 32.9222 153.277 33.7881C153.658 34.6431 154.019 35.4523 154.369 36.1887C154.467 36.3968 154.73 36.8789 155.027 36.8648C155.404 36.8445 156.029 36.1737 156.445 34.9707C156.985 33.4074 157.953 30.5544 158.398 29.1024C158.613 28.3807 159.085 27.763 159.725 27.3661C160.365 26.9693 161.128 26.821 161.87 26.9493C162.097 26.9954 162.313 27.0871 162.504 27.2187C162.696 27.3503 162.858 27.5192 162.983 27.7152C163.107 27.9112 163.19 28.1303 163.228 28.3594C163.266 28.5885 163.257 28.8228 163.202 29.0483C161.633 38.4614 156.363 66.2489 156.31 66.5287C156.282 66.6779 156.195 66.8098 156.07 66.8953C155.944 66.9808 155.79 67.0129 155.641 66.9846C155.491 66.9562 155.36 66.8697 155.274 66.7442C155.189 66.6186 155.157 66.4642 155.185 66.315C155.237 66.0357 160.505 38.2581 162.071 28.86C162.146 28.4096 161.999 28.1569 161.607 28.0643C161.148 28.0016 160.682 28.106 160.294 28.3584C159.906 28.6107 159.622 28.9942 159.494 29.4388C159.043 30.9049 158.071 33.7741 157.528 35.3447C156.969 36.9605 156.057 37.9564 155.089 38.0084C154.677 38.0308 153.903 37.8873 153.332 36.6766C152.98 35.9282 152.617 35.1164 152.232 34.2546C151.848 33.3929 151.452 32.5041 151.064 31.6845C151.004 31.4873 150.874 31.3186 150.7 31.2094C150.525 31.1002 150.316 31.0578 150.113 31.09C149.555 31.2112 148.953 31.9138 148.939 32.9768C148.934 33.4199 148.93 33.901 148.926 34.4008C148.913 36.1367 148.898 38.1047 148.779 39.4771C148.762 40.0374 148.609 40.585 148.333 41.0731C148.057 41.5611 147.667 41.975 147.197 42.2792C146.832 42.5029 146.42 42.6381 145.993 42.6743C145.567 42.7104 145.138 42.6463 144.741 42.4872C143.753 41.986 142.8 41.4208 141.886 40.7955C141.711 40.6821 141.552 40.5786 141.418 40.4912C141.193 40.3084 140.916 40.2025 140.626 40.1891C140.337 40.1757 140.051 40.2555 139.811 40.4168C139.538 40.6771 139.351 41.0146 139.276 41.3841C139.2 41.7535 139.24 42.1371 139.388 42.4836C141.442 48.7332 147.588 67.9527 147.65 68.1461C147.677 68.2321 147.684 68.3233 147.67 68.4124C147.655 68.5015 147.62 68.586 147.567 68.6589C147.514 68.7318 147.444 68.791 147.363 68.8318C147.283 68.8726 147.194 68.8937 147.104 68.8935L147.099 68.8914Z" fill="#FBDE21"/>
</g>
<path style="mix-blend-mode:screen" d="M136.359 52.2263L142.663 67.6904C142.663 68.4606 143.47 69.3488 144.82 70.0671C146.952 71.0351 149.266 71.535 151.608 71.5333C153.949 71.5315 156.263 71.0279 158.393 70.0566C159.741 69.3369 160.546 68.4476 160.545 67.6779L165.203 51.6079L136.359 52.2263Z" fill="url(#paint50_linear_9_36801)"/>
<path d="M199.737 91.3755L193.031 88.0471L197.991 86.2617L204.696 89.5901L199.737 91.3755Z" fill="#FBCB21"/>
<path d="M183.976 131.07L177.27 127.742L175.852 122.593L182.557 125.922L183.976 131.07Z" fill="#EBC400"/>
<path d="M194.11 99.5827C194.474 105.64 190.678 113.239 185.633 116.553C183.126 118.2 180.78 118.48 179.01 117.602L172.305 114.274C174.073 115.152 176.42 114.872 178.928 113.225C183.976 109.91 187.772 102.312 187.405 96.2543C187.221 93.2062 186.018 91.1286 184.225 90.2393L190.931 93.5677C192.724 94.457 193.926 96.5341 194.11 99.5827Z" fill="#FFD226"/>
<path d="M192.088 84.4642L185.383 81.1358L189.475 75.1899L196.18 78.5184L192.088 84.4642Z" fill="#FBD517"/>
<path d="M170.073 130.778L163.367 127.449L165.76 120.642L172.465 123.971L170.073 130.778Z" fill="#FBCB21"/>
<path d="M189.949 84.5806C189.073 84.7114 188.214 84.9349 187.385 85.2473L180.68 81.9189C181.508 81.6065 182.368 81.383 183.244 81.2522C183.951 81.1526 184.665 81.1128 185.379 81.1331L192.085 84.4615C191.371 84.4413 190.657 84.4811 189.949 84.5806Z" fill="#FBCB21"/>
<path d="M171.194 122.127C171.545 122.788 171.971 123.407 172.463 123.971L165.758 120.643C165.266 120.078 164.84 119.46 164.488 118.799C164.094 118.05 163.764 117.269 163.5 116.465L170.206 119.793C170.469 120.597 170.8 121.378 171.194 122.127Z" fill="#EBC400"/>
<path d="M177.935 92.4734C177.21 93.3433 176.522 94.2584 175.87 95.2188L169.164 91.8904C169.816 90.9325 170.504 90.0173 171.23 89.145C172.02 88.1959 172.837 87.3206 173.562 86.5967L180.267 89.9251C179.542 90.6495 178.725 91.5232 177.935 92.4734Z" fill="#FBCB21"/>
<path d="M170.323 107.709C170.044 108.876 169.833 110.058 169.69 111.249L162.984 107.921C163.128 106.73 163.339 105.548 163.618 104.381C163.878 103.276 164.201 102.172 164.498 101.23L171.203 104.559C170.906 105.5 170.583 106.604 170.323 107.709Z" fill="#FBCB21"/>
<path d="M181.089 83.3014L174.383 79.9729L179.257 76.772L185.963 80.1004L181.089 83.3014Z" fill="#FBCB21"/>
<path d="M180.268 89.9256L173.562 86.5972L174.389 79.9731L181.095 83.3015L180.268 89.9256Z" fill="#FBD517"/>
<path d="M164.893 115.729L158.188 112.401L162.985 107.921L169.691 111.249L164.893 115.729Z" fill="#FBCB21"/>
<path d="M165.246 121.58L158.541 118.252L158.188 112.402L164.893 115.731L165.246 121.58Z" fill="#FBD517"/>
<path d="M171.479 94.7391L164.773 91.4106L169.165 91.8912L175.871 95.2196L171.479 94.7391Z" fill="#FBCB21"/>
<path d="M171.206 104.559L164.5 101.231L161.578 97.8091L168.284 101.137L171.206 104.559Z" fill="#EBC400"/>
<path d="M187.392 85.2507L185.973 80.1021L181.099 83.3031L180.272 89.9271C179.548 90.6505 178.731 91.5253 177.941 92.4754C177.216 93.3453 176.527 94.2604 175.875 95.2208L171.483 94.7403L168.287 101.14L171.209 104.561C170.912 105.502 170.591 106.606 170.329 107.712C170.05 108.879 169.839 110.061 169.696 111.252L164.898 115.732L165.252 121.581L170.211 119.796C170.475 120.6 170.806 121.381 171.2 122.13C171.551 122.791 171.977 123.409 172.469 123.974L170.077 130.781L173.773 132.653L177.864 126.707C178.578 126.727 179.293 126.687 180.001 126.588C180.876 126.457 181.735 126.234 182.564 125.921L183.983 131.07L188.857 127.869L189.684 121.245C190.408 120.521 191.225 119.647 192.015 118.697C192.74 117.826 193.428 116.911 194.08 115.952L198.472 116.432L201.669 110.032L198.746 106.611C199.043 105.669 199.364 104.566 199.626 103.461C199.905 102.294 200.117 101.112 200.26 99.9207L205.057 95.4408L204.704 89.5912L199.744 91.3765C199.481 90.5724 199.15 89.7918 198.756 89.043C198.405 88.3821 197.979 87.7633 197.487 87.1989L199.879 80.3917L196.183 78.5195L192.091 84.4654C191.377 84.4452 190.663 84.485 189.956 84.5845C189.08 84.7152 188.22 84.9385 187.392 85.2507ZM194.118 99.5826C194.482 105.64 190.686 113.238 185.641 116.553C180.596 119.868 176.204 117.645 175.838 111.587C175.473 105.529 179.271 97.9314 184.315 94.6165C189.36 91.3016 193.753 93.5249 194.118 99.5826Z" fill="#FFE06A"/>
<path d="M168.284 101.136L161.578 97.8076L164.776 91.4082L171.481 94.7366L168.284 101.136Z" fill="#FBD517"/>
<defs>
<linearGradient id="paint0_linear_9_36801" x1="107.812" y1="231.209" x2="188.091" y2="134.177" gradientUnits="userSpaceOnUse">
<stop stop-color="#333C5E"/>
<stop offset="1" stop-color="#4F5982"/>
</linearGradient>
<linearGradient id="paint1_linear_9_36801" x1="343.285" y1="277.475" x2="299.077" y2="198.606" gradientUnits="userSpaceOnUse">
<stop stop-color="#A0CCE0" stop-opacity="0"/>
<stop offset="1" stop-color="#69A1E3"/>
</linearGradient>
<linearGradient id="paint2_linear_9_36801" x1="264.327" y1="233.065" x2="264.327" y2="335.653" gradientUnits="userSpaceOnUse">
<stop stop-color="#8ABBE1"/>
<stop offset="1" stop-color="#9FD6FF" stop-opacity="0"/>
</linearGradient>
<linearGradient id="paint3_linear_9_36801" x1="272.554" y1="241.97" x2="289.703" y2="191.167" gradientUnits="userSpaceOnUse">
<stop stop-color="#6FA6E3"/>
<stop offset="1" stop-color="#6FA6E3" stop-opacity="0"/>
</linearGradient>
<linearGradient id="paint4_linear_9_36801" x1="232.424" y1="231.217" x2="232.424" y2="235.377" gradientUnits="userSpaceOnUse">
<stop stop-color="#A0CCE0"/>
<stop offset="1" stop-color="#69A1E3"/>
</linearGradient>
<linearGradient id="paint5_linear_9_36801" x1="250.049" y1="221.388" x2="250.049" y2="225.548" gradientUnits="userSpaceOnUse">
<stop stop-color="#A0CCE0"/>
<stop offset="1" stop-color="#69A1E3"/>
</linearGradient>
<linearGradient id="paint6_linear_9_36801" x1="267.783" y1="212.495" x2="267.783" y2="216.655" gradientUnits="userSpaceOnUse">
<stop stop-color="#A0CCE0"/>
<stop offset="1" stop-color="#69A1E3"/>
</linearGradient>
<linearGradient id="paint7_linear_9_36801" x1="87.8429" y1="134.666" x2="130.354" y2="16.9979" gradientUnits="userSpaceOnUse">
<stop stop-color="#A0CCE0"/>
<stop offset="1" stop-color="#69A1E3"/>
</linearGradient>
<linearGradient id="paint8_linear_9_36801" x1="85.3516" y1="51.9668" x2="221.088" y2="51.9668" gradientUnits="userSpaceOnUse">
<stop stop-color="#30508C"/>
<stop offset="1" stop-color="#5080D3"/>
</linearGradient>
<linearGradient id="paint9_linear_9_36801" x1="85.3516" y1="51.9668" x2="221.088" y2="51.9668" gradientUnits="userSpaceOnUse">
<stop stop-color="#A0CCE0"/>
<stop offset="1" stop-color="#69A1E3"/>
</linearGradient>
<linearGradient id="paint10_linear_9_36801" x1="2.20414" y1="143.298" x2="121.416" y2="3.36316" gradientUnits="userSpaceOnUse">
<stop stop-color="#A0CCE0"/>
<stop offset="1" stop-color="#69A1E3"/>
</linearGradient>
<linearGradient id="paint11_linear_9_36801" x1="129.992" y1="102.207" x2="135.768" y2="102.207" gradientUnits="userSpaceOnUse">
<stop stop-color="#A0CCE0"/>
<stop offset="1" stop-color="#69A1E3"/>
</linearGradient>
<linearGradient id="paint12_linear_9_36801" x1="121.484" y1="121.03" x2="125.507" y2="121.03" gradientUnits="userSpaceOnUse">
<stop stop-color="#A0CCE0"/>
<stop offset="1" stop-color="#69A1E3"/>
</linearGradient>
<linearGradient id="paint13_linear_9_36801" x1="94.4741" y1="132.987" x2="133.59" y2="117.536" gradientUnits="userSpaceOnUse">
<stop stop-color="#A0CCE0"/>
<stop offset="1" stop-color="#69A1E3"/>
</linearGradient>
<linearGradient id="paint14_linear_9_36801" x1="126.203" y1="97.755" x2="131.552" y2="97.755" gradientUnits="userSpaceOnUse">
<stop stop-color="#A0CCE0"/>
<stop offset="1" stop-color="#69A1E3"/>
</linearGradient>
<linearGradient id="paint15_linear_9_36801" x1="115.305" y1="120.475" x2="119.809" y2="120.475" gradientUnits="userSpaceOnUse">
<stop stop-color="#A0CCE0"/>
<stop offset="1" stop-color="#69A1E3"/>
</linearGradient>
<linearGradient id="paint16_linear_9_36801" x1="123.875" y1="99.4207" x2="129.522" y2="99.4207" gradientUnits="userSpaceOnUse">
<stop stop-color="#A0CCE0"/>
<stop offset="1" stop-color="#69A1E3"/>
</linearGradient>
<linearGradient id="paint17_linear_9_36801" x1="115.367" y1="117.755" x2="119.805" y2="117.755" gradientUnits="userSpaceOnUse">
<stop stop-color="#A0CCE0"/>
<stop offset="1" stop-color="#69A1E3"/>
</linearGradient>
<linearGradient id="paint18_linear_9_36801" x1="118.172" y1="103.242" x2="123.669" y2="103.242" gradientUnits="userSpaceOnUse">
<stop stop-color="#A0CCE0"/>
<stop offset="1" stop-color="#69A1E3"/>
</linearGradient>
<linearGradient id="paint19_linear_9_36801" x1="115.109" y1="110.833" x2="119.177" y2="110.833" gradientUnits="userSpaceOnUse">
<stop stop-color="#A0CCE0"/>
<stop offset="1" stop-color="#69A1E3"/>
</linearGradient>
<linearGradient id="paint20_linear_9_36801" x1="120.758" y1="97.8588" x2="126.492" y2="97.8588" gradientUnits="userSpaceOnUse">
<stop stop-color="#A0CCE0"/>
<stop offset="1" stop-color="#69A1E3"/>
</linearGradient>
<linearGradient id="paint21_linear_9_36801" x1="120.352" y1="100.292" x2="124.081" y2="100.292" gradientUnits="userSpaceOnUse">
<stop stop-color="#A0CCE0"/>
<stop offset="1" stop-color="#69A1E3"/>
</linearGradient>
<linearGradient id="paint22_linear_9_36801" x1="112.734" y1="113.602" x2="118.43" y2="113.602" gradientUnits="userSpaceOnUse">
<stop stop-color="#A0CCE0"/>
<stop offset="1" stop-color="#69A1E3"/>
</linearGradient>
<linearGradient id="paint23_linear_9_36801" x1="112.734" y1="116.156" x2="116.229" y2="116.156" gradientUnits="userSpaceOnUse">
<stop stop-color="#A0CCE0"/>
<stop offset="1" stop-color="#69A1E3"/>
</linearGradient>
<linearGradient id="paint24_linear_9_36801" x1="115.992" y1="104.433" x2="121.487" y2="104.433" gradientUnits="userSpaceOnUse">
<stop stop-color="#A0CCE0"/>
<stop offset="1" stop-color="#69A1E3"/>
</linearGradient>
<linearGradient id="paint25_linear_9_36801" x1="114.414" y1="108.33" x2="119.181" y2="108.33" gradientUnits="userSpaceOnUse">
<stop stop-color="#A0CCE0"/>
<stop offset="1" stop-color="#69A1E3"/>
</linearGradient>
<linearGradient id="paint26_linear_9_36801" x1="116.055" y1="110.51" x2="135.94" y2="110.51" gradientUnits="userSpaceOnUse">
<stop stop-color="#A0CCE0"/>
<stop offset="1" stop-color="#69A1E3"/>
</linearGradient>
<linearGradient id="paint27_linear_9_36801" x1="114.414" y1="105.899" x2="119.317" y2="105.899" gradientUnits="userSpaceOnUse">
<stop stop-color="#A0CCE0"/>
<stop offset="1" stop-color="#69A1E3"/>
</linearGradient>
<linearGradient id="paint28_linear_9_36801" x1="212.836" y1="35.1914" x2="221.021" y2="35.1914" gradientUnits="userSpaceOnUse">
<stop stop-color="#A0CCE0"/>
<stop offset="1" stop-color="#69A1E3"/>
</linearGradient>
<linearGradient id="paint29_linear_9_36801" x1="200.773" y1="61.8626" x2="206.474" y2="61.8626" gradientUnits="userSpaceOnUse">
<stop stop-color="#A0CCE0"/>
<stop offset="1" stop-color="#69A1E3"/>
</linearGradient>
<linearGradient id="paint30_linear_9_36801" x1="162.504" y1="78.8116" x2="217.936" y2="56.9169" gradientUnits="userSpaceOnUse">
<stop stop-color="#A0CCE0"/>
<stop offset="1" stop-color="#69A1E3"/>
</linearGradient>
<linearGradient id="paint31_linear_9_36801" x1="207.461" y1="28.8824" x2="215.037" y2="28.8824" gradientUnits="userSpaceOnUse">
<stop stop-color="#A0CCE0"/>
<stop offset="1" stop-color="#69A1E3"/>
</linearGradient>
<linearGradient id="paint32_linear_9_36801" x1="192.016" y1="61.0776" x2="198.4" y2="61.0776" gradientUnits="userSpaceOnUse">
<stop stop-color="#A0CCE0"/>
<stop offset="1" stop-color="#69A1E3"/>
</linearGradient>
<linearGradient id="paint33_linear_9_36801" x1="204.164" y1="31.2426" x2="212.167" y2="31.2426" gradientUnits="userSpaceOnUse">
<stop stop-color="#A0CCE0"/>
<stop offset="1" stop-color="#69A1E3"/>
</linearGradient>
<linearGradient id="paint34_linear_9_36801" x1="192.109" y1="57.2234" x2="198.399" y2="57.2234" gradientUnits="userSpaceOnUse">
<stop stop-color="#A0CCE0"/>
<stop offset="1" stop-color="#69A1E3"/>
</linearGradient>
<linearGradient id="paint35_linear_9_36801" x1="196.078" y1="36.6559" x2="203.869" y2="36.6559" gradientUnits="userSpaceOnUse">
<stop stop-color="#A0CCE0"/>
<stop offset="1" stop-color="#69A1E3"/>
</linearGradient>
<linearGradient id="paint36_linear_9_36801" x1="191.742" y1="47.4159" x2="197.509" y2="47.4159" gradientUnits="userSpaceOnUse">
<stop stop-color="#A0CCE0"/>
<stop offset="1" stop-color="#69A1E3"/>
</linearGradient>
<linearGradient id="paint37_linear_9_36801" x1="199.742" y1="29.0293" x2="207.868" y2="29.0293" gradientUnits="userSpaceOnUse">
<stop stop-color="#A0CCE0"/>
<stop offset="1" stop-color="#69A1E3"/>
</linearGradient>
<linearGradient id="paint38_linear_9_36801" x1="199.172" y1="32.4763" x2="204.457" y2="32.4763" gradientUnits="userSpaceOnUse">
<stop stop-color="#A0CCE0"/>
<stop offset="1" stop-color="#69A1E3"/>
</linearGradient>
<linearGradient id="paint39_linear_9_36801" x1="188.383" y1="51.3373" x2="196.454" y2="51.3373" gradientUnits="userSpaceOnUse">
<stop stop-color="#A0CCE0"/>
<stop offset="1" stop-color="#69A1E3"/>
</linearGradient>
<linearGradient id="paint40_linear_9_36801" x1="188.383" y1="54.9585" x2="193.335" y2="54.9585" gradientUnits="userSpaceOnUse">
<stop stop-color="#A0CCE0"/>
<stop offset="1" stop-color="#69A1E3"/>
</linearGradient>
<linearGradient id="paint41_linear_9_36801" x1="193" y1="38.3465" x2="200.786" y2="38.3465" gradientUnits="userSpaceOnUse">
<stop stop-color="#A0CCE0"/>
<stop offset="1" stop-color="#69A1E3"/>
</linearGradient>
<linearGradient id="paint42_linear_9_36801" x1="190.758" y1="43.8678" x2="197.513" y2="43.8678" gradientUnits="userSpaceOnUse">
<stop stop-color="#A0CCE0"/>
<stop offset="1" stop-color="#69A1E3"/>
</linearGradient>
<linearGradient id="paint43_linear_9_36801" x1="193.086" y1="46.9526" x2="221.265" y2="46.9526" gradientUnits="userSpaceOnUse">
<stop stop-color="#A0CCE0"/>
<stop offset="1" stop-color="#69A1E3"/>
</linearGradient>
<linearGradient id="paint44_linear_9_36801" x1="190.758" y1="40.4222" x2="197.706" y2="40.4222" gradientUnits="userSpaceOnUse">
<stop stop-color="#A0CCE0"/>
<stop offset="1" stop-color="#69A1E3"/>
</linearGradient>
<linearGradient id="paint45_linear_9_36801" x1="144.102" y1="86.6495" x2="159.187" y2="86.6495" gradientUnits="userSpaceOnUse">
<stop stop-color="#A0CCE0"/>
<stop offset="1" stop-color="#69A1E3"/>
</linearGradient>
<linearGradient id="paint46_linear_9_36801" x1="141.336" y1="78.3125" x2="144.349" y2="71.2137" gradientUnits="userSpaceOnUse">
<stop stop-color="#A0CCE0"/>
<stop offset="1" stop-color="#69A1E3"/>
</linearGradient>
<linearGradient id="paint47_linear_9_36801" x1="190.434" y1="72.3721" x2="145.328" y2="89.3126" gradientUnits="userSpaceOnUse">
<stop stop-color="#A0CCE0"/>
<stop offset="1" stop-color="#69A1E3"/>
</linearGradient>
<linearGradient id="paint48_linear_9_36801" x1="121.852" y1="41.7185" x2="178.638" y2="41.7185" gradientUnits="userSpaceOnUse">
<stop stop-color="#FFC610"/>
<stop offset="0.227" stop-color="#FFD431"/>
<stop offset="0.574" stop-color="#FFE85D"/>
<stop offset="0.844" stop-color="#FFF479"/>
<stop offset="1" stop-color="#FFF984"/>
</linearGradient>
<linearGradient id="paint49_linear_9_36801" x1="151.502" y1="61.3752" x2="151.525" y2="73.8875" gradientUnits="userSpaceOnUse">
<stop offset="0.392" stop-color="#FBCB21"/>
<stop offset="0.495" stop-color="#8C96BA"/>
</linearGradient>
<linearGradient id="paint50_linear_9_36801" x1="150.781" y1="71.5333" x2="150.781" y2="51.6079" gradientUnits="userSpaceOnUse">
<stop offset="0.056" stop-color="#E6EDF7"/>
<stop offset="0.187" stop-color="#B5BBC3"/>
<stop offset="0.376" stop-color="#75797E"/>
<stop offset="0.546" stop-color="#434548"/>
<stop offset="0.692" stop-color="#1E1F20"/>
<stop offset="0.808" stop-color="#080808"/>
<stop offset="0.88"/>
</linearGradient>
</defs>
</svg>
