<svg xmlns="http://www.w3.org/2000/svg" width="583" height="346" fill="none" viewBox="0 0 583 346"><g opacity=".71"><path fill="#f0f4fc" d="M99.258 191.605h101.944l113.483-65.52c14.614-8.438 40.144-7.379 57.021 2.364l109.389 63.157h101.893v14.008h-.032c.416 5.71-2.769 11.222-9.792 15.277l-205.56 118.678c-14.613 8.438-40.145 7.38-57.022-2.364L113.218 223.259c-8.767-5.062-13.435-11.47-13.885-17.645h-.075z"/><path fill="#fbfdff" d="m367.401 325.784 205.56-118.678c14.614-8.438 12.782-23.178-4.094-32.92L371.503 60.237c-16.877-9.744-42.406-10.802-57.022-2.363l-205.56 118.678c-14.614 8.439-12.782 23.178 4.094 32.92l197.364 113.946c16.877 9.745 42.406 10.803 57.022 2.366"/></g><path fill="url(#a)" d="M.846 181.317s-1.903-3.943 0-11.883 7.614-4.239 7.614-4.239c2.152 12.993 17.442 5.911 30.222 7.69l87.049 50.906 37.985 13.715 121.26-62.576-2.801-1.619c10.362-4.841 16.3-1.564 21.908-11.664l8.161 4.866 4.851 1.367-.356 13.874c0 5.394-3.558 10.788-10.667 14.893l-121.483 70.142c-14.224 8.21-37.37 8.21-51.594 0L11.513 196.648C4.519 192.611.963 187.324.852 182.022a11 11 0 0 1 .014-.712z"/><path fill="#333c5e" d="m184.335 253.877 121.482-70.14c14.224-8.217 14.224-21.576 0-29.786l-121.482-70.14c-14.218-8.21-37.365-8.21-51.59.004L11.263 153.951c-14.225 8.217-14.225 21.576-.005 29.786l121.481 70.14c14.227 8.21 37.373 8.21 51.596 0"/><path fill="url(#b)" d="m250.021 223.929.131-.225 200.155 116.19-.26.449-200.156-116.189z"/><path fill="url(#c)" d="m227.189 335.653-.058-.088-.225-.348 68.759-44.418a12.16 12.16 0 0 0 5.56-10.507 12.16 12.16 0 0 0-6.054-10.231l-62.956-36.546.131-.225.13-.225 62.956 36.545a12.685 12.685 0 0 1 .515 21.626z"/><path fill="url(#d)" d="m427.107 203.297-.283-.436-75.149 48.547a19.55 19.55 0 0 1-20.416.486l-62.896-36.511-.131.225-.13.225 63.171 36.671a19.54 19.54 0 0 0 20.416-.485z"/><path fill="url(#e)" d="M232.424 235.377a2.08 2.08 0 1 0 0-4.16 2.08 2.08 0 0 0 0 4.16"/><path fill="url(#f)" d="M250.049 225.548a2.08 2.08 0 1 0 0-4.16 2.08 2.08 0 0 0 0 4.16"/><path fill="url(#g)" d="M267.783 216.655a2.08 2.08 0 1 0 0-4.161 2.08 2.08 0 0 0 0 4.161"/><path stroke="#6fa6e3" stroke-width="2" d="M158.544 241.142c7.489 0 14.978-1.648 20.684-4.943l94.915-54.797c5.714-3.301 8.864-7.759 8.869-12.557s-3.155-9.257-8.869-12.557l-94.912-54.798c-11.403-6.581-29.959-6.59-41.372 0l-94.912 54.798c-5.72 3.3-8.869 7.759-8.869 12.557s3.15 9.257 8.864 12.561l94.912 54.793c5.705 3.295 13.198 4.943 20.69 4.943Z"/><path fill="#242b43" d="m11.258 183.737 121.482 70.141c14.224 8.209 37.37 8.209 51.593 0l121.483-70.141c6.359-3.674 9.863-8.37 10.541-13.182.832 5.951-2.675 12.065-10.541 16.613l-121.481 70.136c-14.224 8.215-37.37 8.215-51.593 0L11.258 187.169C3.392 182.628-.112 176.512.722 170.561c.673 4.806 4.182 9.508 10.536 13.176"/><path fill="#242b43" d="M221.087 133.703 96.609 205.57c-8.009 4.624-20.025-2.312-12.013-6.937l124.477-71.867c8.009-4.626 20.024 2.312 12.014 6.937" opacity=".56"/><path fill="#f2f5fc" d="m88.799 176.607 120.84-69.9a14.76 14.76 0 0 0 7.377-12.778l-.288-71.474L76.766 94.987v70.412a7.23 7.23 0 0 0 2.844 5.794c2.217 1.703 9.189 5.414 9.189 5.414"/><path fill="url(#h)" d="m219.059 27.248-1.603-22.664s-6.779-2.784-9.229-3.91a7.24 7.24 0 0 0-6.705.318L84.143 68.76a14.75 14.75 0 0 0-7.378 12.778l-.023 13.896 8.61 4.912z"/><path fill="#f7f9fc" d="M85.352 100.244v70.154a7.314 7.314 0 0 0 7.32 7.322c1.285 0 2.547-.34 3.66-.983l117.378-67.77a14.75 14.75 0 0 0 7.375-12.777V21.754z"/><path fill="url(#i)" d="M85.352 85.113v15.234l135.736-78.305V10.905a7.32 7.32 0 0 0-3.66-6.339 7.32 7.32 0 0 0-7.319.002L92.731 72.338a14.75 14.75 0 0 0-7.38 12.775"/><path fill="url(#j)" d="M85.352 85.113v15.234l135.736-78.305V10.905a7.32 7.32 0 0 0-3.66-6.339 7.32 7.32 0 0 0-7.319.002L92.731 72.338a14.75 14.75 0 0 0-7.38 12.775"/><path fill="url(#k)" d="m182.432 38.61-81.639 47.137c-4.922 2.841-4.922-4.541 0-7.383l81.639-47.135c4.922-2.841 4.922 4.541 0 7.381"/><path fill="#fff" d="M199.979 19.841c0 1.29-1.047 2.941-2.338 3.686-1.29.746-2.336.303-2.336-.988s1.046-2.94 2.336-3.686c1.291-.745 2.338-.303 2.338.988m6.703-3.809c0 1.291-1.046 2.941-2.337 3.686s-2.337.303-2.337-.988 1.046-2.94 2.337-3.686c1.291-.745 2.337-.303 2.337.988"/><path fill="#ffe06a" d="M213.385 12.224c0 1.29-1.046 2.94-2.337 3.686-1.291.745-2.337.302-2.337-.988s1.046-2.941 2.337-3.687c1.291-.745 2.337-.302 2.337.989"/><path fill="#dce4f2" d="m178.142 82.647-1.525-5.536-5.24 3.441-.888 7.12a40 40 0 0 0-2.507 2.74q-1.17 1.404-2.221 2.951l-4.721-.517-3.437 6.88 3.142 3.678a49 49 0 0 0-.946 3.386 34 34 0 0 0-.681 3.806l-5.157 4.816.38 6.288 5.331-1.92c.284.864.639 1.704 1.062 2.509.378.711.836 1.376 1.364 1.982l-2.572 7.318 3.973 2.013 4.399-6.392q1.154.031 2.297-.128a13.5 13.5 0 0 0 2.756-.716l1.525 5.535 5.241-3.441.888-7.12c.78-.78 1.658-1.717 2.507-2.74a38 38 0 0 0 2.22-2.95l4.721.516 3.437-6.879-3.14-3.679a50 50 0 0 0 .946-3.386q.45-1.884.681-3.806l5.156-4.816-.379-6.288-5.331 1.919a16.3 16.3 0 0 0-1.062-2.509 10.6 10.6 0 0 0-1.364-1.982l2.572-7.318-3.974-2.013-4.398 6.392a14 14 0 0 0-2.297.128 13.5 13.5 0 0 0-2.758.718m7.229 15.406c.393 6.513-3.688 14.68-9.114 18.244s-10.145 1.173-10.538-5.339 3.688-14.68 9.115-18.243c5.427-3.564 10.146-1.173 10.539 5.338z" style="mix-blend-mode:multiply"/><path fill="#d5deef" d="m121.472 100.365-.702-2.548-2.414 1.585-.409 3.28c-.359.359-.763.792-1.154 1.262q-.538.647-1.023 1.359l-2.175-.238-1.583 3.169 1.447 1.694a23 23 0 0 0-.435 1.561 15 15 0 0 0-.312 1.753l-2.376 2.218.175 2.896 2.456-.884q.196.598.489 1.155.262.493.629.913l-1.185 3.371 1.83.927 2.028-2.945a6.3 6.3 0 0 0 1.058-.058 6.2 6.2 0 0 0 1.27-.331l.702 2.549 2.414-1.585.409-3.28a18 18 0 0 0 2.178-2.621l2.174.238 1.583-3.169-1.447-1.695c.147-.468.306-1.012.436-1.56q.207-.868.312-1.753l2.375-2.218-.175-2.896-2.455.884a7.6 7.6 0 0 0-.49-1.156 5 5 0 0 0-.628-.913l1.185-3.37-1.83-.928-2.029 2.944q-.53-.015-1.057.06-.653.097-1.271.33m3.328 7.097c.181 3-1.698 6.761-4.198 8.403s-4.673.541-4.854-2.458 1.699-6.761 4.199-8.404 4.675-.541 4.856 2.459z" opacity=".42" style="mix-blend-mode:multiply"/><path fill="url(#l)" d="m133.313 103.473-3.321-1.647 2.456-.884 3.32 1.647z"/><path fill="url(#m)" d="m125.507 123.127-3.32-1.647-.703-2.548 3.32 1.647z"/><path fill="url(#n)" d="M130.525 107.536c.181 3-1.699 6.761-4.199 8.403-1.242.816-2.403.955-3.279.52l-3.32-1.647c.876.435 2.037.296 3.279-.52 2.499-1.641 4.379-5.403 4.199-8.403-.091-1.508-.687-2.538-1.575-2.978l3.321 1.647c.887.441 1.483 1.47 1.574 2.978"/><path fill="url(#o)" d="m129.522 100.051-3.319-1.647 2.028-2.944 3.321 1.647z"/><path fill="url(#p)" d="m118.625 122.983-3.32-1.647 1.184-3.37 3.32 1.647z"/><path fill="url(#q)" d="M128.465 100.11a6 6 0 0 0-1.269.33l-3.321-1.647c.41-.155.836-.265 1.269-.33a6.3 6.3 0 0 1 1.058-.059l3.32 1.647q-.53-.015-1.057.059"/><path fill="url(#r)" d="M119.177 118.7q.262.493.628.913l-3.32-1.647a5 5 0 0 1-.628-.913 7.5 7.5 0 0 1-.49-1.156l3.321 1.647q.196.599.489 1.156"/><path fill="url(#s)" d="M122.515 104.017q-.538.647-1.023 1.359l-3.32-1.647a18 18 0 0 1 2.177-2.621l3.32 1.647a19 19 0 0 0-1.154 1.262"/><path fill="url(#t)" d="M118.745 111.561a15 15 0 0 0-.312 1.752l-3.324-1.647q.106-.885.312-1.752c.13-.547.289-1.092.436-1.56l3.32 1.647a25 25 0 0 0-.432 1.56"/><path fill="url(#u)" d="m124.078 99.475-3.32-1.647 2.413-1.585 3.321 1.647z"/><path fill="url(#v)" d="m123.672 102.755-3.32-1.647.409-3.28 3.32 1.647z"/><path fill="url(#w)" d="m116.054 115.535-3.32-1.647 2.376-2.219 3.32 1.647z"/><path fill="url(#x)" d="m116.229 118.428-3.32-1.647-.175-2.896 3.32 1.647z"/><path fill="url(#y)" d="m119.312 105.138-3.32-1.647 2.175.238 3.32 1.647z"/><path fill="url(#z)" d="m119.181 110.001-3.32-1.648-1.447-1.693 3.321 1.647z"/><path fill="url(#A)" d="m127.191 100.44-.702-2.548-2.413 1.585-.41 3.28c-.359.358-.763.791-1.154 1.262q-.538.647-1.023 1.359l-2.175-.238-1.583 3.169 1.447 1.694a23 23 0 0 0-.436 1.56 16 16 0 0 0-.312 1.753l-2.375 2.219.174 2.896 2.456-.884q.196.598.489 1.156.262.492.629.912l-1.185 3.371 1.83.927 2.028-2.944q.532.015 1.058-.059a6 6 0 0 0 1.269-.33l.703 2.548 2.413-1.584.41-3.28c.359-.359.763-.792 1.154-1.262q.538-.647 1.023-1.359l2.175.237 1.583-3.169-1.447-1.694c.147-.468.306-1.013.436-1.56q.206-.868.312-1.753l2.375-2.218-.175-2.897-2.456.885a7.4 7.4 0 0 0-.489-1.156 5 5 0 0 0-.628-.913l1.184-3.37-1.83-.928-2.028 2.944q-.531-.015-1.058.059a6.2 6.2 0 0 0-1.269.33m3.329 7.097c.181 2.999-1.699 6.761-4.199 8.403s-4.673.541-4.854-2.459c-.18-3 1.699-6.761 4.199-8.403s4.675-.541 4.856 2.458z"/><path fill="url(#B)" d="m117.735 108.307-3.321-1.648 1.583-3.168 3.32 1.647z"/><path fill="#d5deef" d="m200.759 32.58-.994-3.613-3.421 2.247-.58 4.647a27 27 0 0 0-1.636 1.788q-.763.916-1.449 1.924l-3.082-.337-2.243 4.49 2.05 2.4c-.208.66-.433 1.435-.617 2.21a22 22 0 0 0-.444 2.484l-3.366 3.144.247 4.104 3.48-1.253q.278.848.694 1.638c.246.463.545.897.89 1.293l-1.679 4.777 2.594 1.314 2.87-4.172a9 9 0 0 0 1.5-.084 9 9 0 0 0 1.799-.468l.995 3.613 3.421-2.245.579-4.648a27 27 0 0 0 1.637-1.788 25 25 0 0 0 1.449-1.924l3.082.337 2.243-4.49-2.051-2.401c.208-.66.434-1.434.618-2.21q.294-1.23.444-2.484l3.366-3.143-.247-4.105-3.481 1.252a10.6 10.6 0 0 0-.693-1.637 7 7 0 0 0-.89-1.294l1.679-4.776-2.594-1.314-2.871 4.172a9 9 0 0 0-1.499.084 8.8 8.8 0 0 0-1.8.469m4.72 10.057c.257 4.25-2.407 9.582-5.95 11.91-3.542 2.327-6.621.766-6.878-3.485s2.407-9.582 5.95-11.91c3.542-2.327 6.621-.765 6.878 3.485" opacity=".42" style="mix-blend-mode:multiply"/><path fill="url(#C)" d="m217.541 36.985-4.705-2.334 3.48-1.253 4.705 2.334z"/><path fill="url(#D)" d="m206.474 64.836-4.705-2.334-.996-3.613 4.705 2.334z"/><path fill="url(#E)" d="M213.591 42.743c.256 4.25-2.408 9.582-5.95 11.91-1.76 1.156-3.405 1.352-4.647.736l-4.705-2.334c1.242.615 2.888.42 4.647-.736 3.542-2.327 6.206-7.658 5.949-11.91-.129-2.138-.973-3.596-2.231-4.22l4.706 2.337c1.258.621 2.102 2.08 2.231 4.217"/><path fill="url(#F)" d="m212.164 32.135-4.703-2.333 2.871-4.173 4.705 2.334z"/><path fill="url(#G)" d="m196.721 64.633-4.705-2.334 1.679-4.776 4.705 2.333z"/><path fill="url(#H)" d="M210.668 32.22a8.8 8.8 0 0 0-1.799.467l-4.705-2.334a8.8 8.8 0 0 1 1.799-.468q.746-.105 1.499-.084l4.705 2.334a9 9 0 0 0-1.499.084"/><path fill="url(#I)" d="M197.508 58.563c.246.463.545.897.891 1.293l-4.706-2.334a7 7 0 0 1-.89-1.294 10.6 10.6 0 0 1-.694-1.637l4.705 2.334q.278.848.694 1.638"/><path fill="url(#J)" d="M202.233 37.755q-.763.916-1.45 1.924l-4.705-2.334q.686-1.008 1.45-1.924a27 27 0 0 1 1.636-1.788l4.705 2.334a27 27 0 0 0-1.636 1.788"/><path fill="url(#K)" d="M196.891 48.446a22 22 0 0 0-.444 2.484l-4.705-2.334q.152-1.255.444-2.484c.184-.775.41-1.55.618-2.21l4.705 2.334c-.207.66-.432 1.435-.618 2.21"/><path fill="url(#L)" d="m204.447 31.32-4.705-2.335 3.421-2.246 4.705 2.334z"/><path fill="url(#M)" d="m203.877 35.967-4.705-2.334.58-4.648 4.705 2.334z"/><path fill="url(#N)" d="m193.088 54.076-4.705-2.334 3.366-3.143 4.705 2.334z"/><path fill="url(#O)" d="m193.335 58.178-4.705-2.334-.247-4.105 4.705 2.334z"/><path fill="url(#P)" d="M197.705 39.345 193 37.01l3.081.337 4.705 2.334z"/><path fill="url(#Q)" d="m197.513 46.235-4.705-2.334-2.05-2.4 4.705 2.334z"/><path fill="url(#R)" d="m208.87 32.687-.996-3.614-3.42 2.247-.58 4.647a27 27 0 0 0-1.636 1.788q-.763.916-1.449 1.924l-3.082-.338-2.243 4.49 2.05 2.401c-.208.66-.433 1.435-.618 2.211a22 22 0 0 0-.444 2.484l-3.366 3.144.248 4.104 3.48-1.253q.278.848.694 1.638c.246.463.545.897.89 1.293l-1.678 4.776 2.593 1.315 2.871-4.173a9 9 0 0 0 1.499-.083 8.8 8.8 0 0 0 1.799-.468l.995 3.613 3.421-2.246.579-4.648a27 27 0 0 0 1.636-1.787q.763-.917 1.449-1.924l3.082.337 2.244-4.49-2.051-2.402c.208-.66.433-1.434.618-2.21a22 22 0 0 0 .444-2.484l3.366-3.143-.248-4.105-3.48 1.253a10.7 10.7 0 0 0-.693-1.638 7 7 0 0 0-.89-1.294l1.679-4.776-2.594-1.315-2.871 4.172a9 9 0 0 0-1.499.084 8.8 8.8 0 0 0-1.799.47m4.72 10.056c.256 4.25-2.407 9.582-5.95 11.91-3.542 2.326-6.622.766-6.878-3.485s2.407-9.582 5.95-11.91c3.542-2.327 6.621-.765 6.878 3.485"/><path fill="url(#S)" d="m195.463 43.835-4.705-2.334 2.243-4.491 4.705 2.334z"/><path fill="#dce4f2" d="m133.722 71.062-.052 3.329c0 1.456.789 2.832 2.251 3.99l.005 4.998c0 1.56 1.081 3.005 3.04 4.09q.62 1.121 1.36 2.166l.146.202a4.55 4.55 0 0 0 1.683 1.551 10.46 10.46 0 0 0 8.848-.007 6 6 0 0 0 2.322-2.275l.954-1.766c1.824-1.075 2.822-2.476 2.821-3.978l-.005-4.982c1.472-1.163 2.266-2.549 2.264-4.01l-.078-3.328a4 4 0 0 0-.276-1.453c1.025-5.791 7.327-11.789 10.003-16.427 2.623-4.544 4.515-9.34 4.571-13.849v-.32a24.5 24.5 0 0 0-.257-3.509l-45.15 26.072c2.513 2.778 4.873 5.636 5.738 8.305a4 4 0 0 0-.183 1.085 1 1 0 0 0-.005.116" style="mix-blend-mode:multiply"/><path fill="url(#T)" d="m144.102 84.08 15.085-.012-1.133 2.098a5.65 5.65 0 0 1-2.169 2.124c-2.345 1.252-6.149 1.255-8.496.006a4.6 4.6 0 0 1-1.705-1.646 28 28 0 0 1-1.582-2.57"/><path fill="url(#U)" d="m161.763 70.577-4.681.008c0-.005-3.207-.002-3.207-.002h-3.421l-9.118.007.011 10.024c0 1.393.999 2.785 2.994 3.848a15.1 15.1 0 0 0 6.129 1.556 19 19 0 0 0 3.421-.117 16 16 0 0 0 3.207-.724q.871-.298 1.687-.728c1.993-1.065 2.988-2.459 2.987-3.852z"/><path fill="url(#V)" d="m164.02 68.28-5.714.01c0-.006-3.916-.003-3.916-.003l-4.178.003-11.134.008.014 3.329c0 1.701 1.22 3.402 3.656 4.698a18.4 18.4 0 0 0 7.483 1.9c1.394.078 2.792.03 4.178-.143a19.5 19.5 0 0 0 3.915-.884q1.065-.361 2.06-.884c2.434-1.3 3.65-3.002 3.648-4.703z"/><path fill="url(#W)" d="M121.852 36.273c-.013-14.477 12.689-26.223 28.37-26.235 15.681-.011 28.404 11.716 28.416 26.193v.32c-.055 4.51-1.948 9.305-4.57 13.85-2.951 5.113-10.308 11.879-10.141 18.201.161 6.151-24.415 6.51-24.61.36-.16-5.09-7.463-11.176-11.419-16.153-3.408-4.288-5.961-10.725-6.04-16.2a9 9 0 0 1-.006-.336"/><path fill="#fbcb21" d="M151.557 74.937c6.887 0 12.47-2.976 12.47-6.647s-5.583-6.648-12.47-6.648-12.471 2.976-12.471 6.648c0 3.67 5.583 6.647 12.471 6.647"/><path fill="url(#X)" d="M151.539 75.247a19.44 19.44 0 0 1-8.945-1.976c-2.462-1.31-3.819-3.076-3.821-4.972-.001-1.895 1.353-3.662 3.813-4.976a21.24 21.24 0 0 1 17.927-.013c2.462 1.31 3.819 3.076 3.821 4.971.001 1.896-1.353 3.663-3.813 4.976a19.44 19.44 0 0 1-8.962 1.99zm.024-13.296c-3.147 0-6.292.64-8.687 1.918-2.249 1.2-3.485 2.774-3.485 4.43s1.242 3.227 3.493 4.425c2.387 1.27 5.522 1.905 8.656 1.905 3.147 0 6.293-.64 8.688-1.918 2.248-1.201 3.485-2.774 3.485-4.43s-1.242-3.227-3.493-4.424c-2.387-1.271-5.522-1.906-8.656-1.906z"/><path fill="#fbda21" d="M151.548 72.438a16.1 16.1 0 0 1-7.302-1.58c-1.456-.775-2.323-1.732-2.324-2.562s.866-1.788 2.319-2.564a17.66 17.66 0 0 1 14.631-.01c1.456.773 2.323 1.73 2.324 2.56s-.866 1.788-2.319 2.564a16.14 16.14 0 0 1-7.328 1.592z"/><path fill="#fbec21" d="M151.546 72.748a16.45 16.45 0 0 1-7.449-1.617c-1.58-.841-2.487-1.872-2.488-2.834 0-.963.905-1.994 2.483-2.837a17.97 17.97 0 0 1 14.922-.011c1.581.84 2.488 1.872 2.488 2.834.001.962-.904 1.995-2.482 2.838a16.46 16.46 0 0 1-7.474 1.627m0-.62c2.483.053 4.944-.48 7.183-1.555 1.33-.71 2.155-1.587 2.155-2.288-.001-.7-.828-1.58-2.16-2.288a17.36 17.36 0 0 0-14.34.01c-1.329.711-2.155 1.588-2.155 2.289.001.7.828 1.58 2.16 2.288a15.8 15.8 0 0 0 7.156 1.544z"/><path fill="#fbde21" d="M147.099 68.891a.57.57 0 0 1-.545-.398c-.062-.194-6.206-19.408-8.258-25.653a2.96 2.96 0 0 1 .808-3.329 2.46 2.46 0 0 1 2.927.014l.477.309q1.297.885 2.691 1.604a1.6 1.6 0 0 0 1.411-.143 2.29 2.29 0 0 0 1.026-1.916c.116-1.327.13-3.27.143-4.986.003-.502.007-.988.013-1.43.022-1.674 1.061-2.772 2.076-2.992a1.97 1.97 0 0 1 2.231 1.226c.391.832.791 1.725 1.178 2.591.381.855.742 1.664 1.092 2.4.098.209.361.69.658.677.377-.02 1.002-.691 1.418-1.894.54-1.564 1.508-4.417 1.953-5.869a3.076 3.076 0 0 1 3.472-2.153 1.72 1.72 0 0 1 1.332 2.1c-1.569 9.412-6.839 37.2-6.892 37.48a.573.573 0 1 1-1.125-.214c.052-.28 5.32-28.057 6.886-37.455.075-.45-.072-.703-.464-.796a1.93 1.93 0 0 0-2.113 1.375c-.451 1.466-1.423 4.335-1.966 5.906-.559 1.616-1.471 2.611-2.439 2.663-.412.023-1.186-.12-1.757-1.331a140 140 0 0 1-1.1-2.422c-.384-.862-.78-1.75-1.168-2.57a.856.856 0 0 0-.951-.595c-.558.121-1.16.824-1.174 1.887l-.013 1.424c-.013 1.736-.028 3.704-.147 5.076a3.46 3.46 0 0 1-1.582 2.802 2.75 2.75 0 0 1-2.456.208 25 25 0 0 1-2.855-1.692l-.468-.304a1.35 1.35 0 0 0-1.607-.074 1.84 1.84 0 0 0-.423 2.067c2.054 6.25 8.2 25.469 8.262 25.662a.58.58 0 0 1-.083.513.57.57 0 0 1-.463.234z" style="mix-blend-mode:multiply"/><path fill="url(#Y)" d="m136.359 52.226 6.304 15.464c0 .77.807 1.659 2.157 2.377a16.4 16.4 0 0 0 13.573-.01c1.348-.72 2.153-1.61 2.152-2.38l4.658-16.07z" style="mix-blend-mode:screen"/><path fill="#fbcb21" d="m199.737 91.376-6.706-3.329 4.96-1.785 6.705 3.328z"/><path fill="#ebc400" d="m183.976 131.07-6.706-3.328-1.418-5.149 6.705 3.329z"/><path fill="#ffd226" d="M194.11 99.583c.364 6.057-3.432 13.656-8.477 16.97-2.507 1.647-4.853 1.927-6.623 1.049l-6.705-3.328c1.768.878 4.115.598 6.623-1.049 5.048-3.315 8.844-10.913 8.477-16.97-.184-3.049-1.387-5.126-3.18-6.016l6.706 3.329c1.793.889 2.995 2.966 3.179 6.015"/><path fill="#fbd517" d="m192.088 84.464-6.705-3.328 4.092-5.946 6.705 3.328z"/><path fill="#fbcb21" d="m170.073 130.778-6.706-3.329 2.393-6.807 6.705 3.329zm19.876-46.198c-.876.131-1.735.355-2.564.667l-6.705-3.328a12.5 12.5 0 0 1 2.564-.667q1.062-.15 2.135-.119l6.706 3.329q-1.073-.03-2.136.119"/><path fill="#ebc400" d="M171.194 122.127c.351.661.777 1.28 1.269 1.844l-6.705-3.328a10 10 0 0 1-1.27-1.844 15 15 0 0 1-.988-2.334l6.706 3.328c.263.804.594 1.585.988 2.334"/><path fill="#fbcb21" d="M177.935 92.473a35 35 0 0 0-2.065 2.746l-6.706-3.329a36 36 0 0 1 2.066-2.745c.79-.95 1.607-1.824 2.332-2.548l6.705 3.328a38 38 0 0 0-2.332 2.548m-7.612 15.236a31 31 0 0 0-.633 3.54l-6.706-3.328q.216-1.788.634-3.54c.26-1.105.583-2.209.88-3.151l6.705 3.329c-.297.941-.62 2.045-.88 3.15m10.766-24.408-6.706-3.328 4.874-3.201 6.706 3.328z"/><path fill="#fbd517" d="m180.268 89.926-6.706-3.329.827-6.624 6.706 3.329z"/><path fill="#fbcb21" d="m164.893 115.729-6.705-3.328 4.797-4.48 6.706 3.328z"/><path fill="#fbd517" d="m165.246 121.58-6.705-3.328-.353-5.85 6.705 3.329z"/><path fill="#fbcb21" d="m171.479 94.74-6.706-3.33 4.392.481 6.706 3.329z"/><path fill="#ebc400" d="m171.206 104.559-6.706-3.328-2.922-3.422 6.706 3.328z"/><path fill="#ffe06a" d="m187.392 85.25-1.419-5.148-4.874 3.201-.827 6.624a38 38 0 0 0-2.331 2.548 35 35 0 0 0-2.066 2.746l-4.392-.48-3.196 6.399 2.922 3.421a46 46 0 0 0-.88 3.151 31 31 0 0 0-.633 3.54l-4.798 4.48.354 5.849 4.959-1.785a15 15 0 0 0 .989 2.334 9.8 9.8 0 0 0 1.269 1.844l-2.392 6.807 3.696 1.872 4.091-5.946q1.073.03 2.137-.119a12.5 12.5 0 0 0 2.563-.667l1.419 5.149 4.874-3.201.827-6.624a38 38 0 0 0 2.331-2.548 35 35 0 0 0 2.065-2.745l4.392.48 3.197-6.4-2.923-3.421a46 46 0 0 0 .88-3.15q.419-1.752.634-3.54l4.797-4.48-.353-5.85-4.96 1.785a15 15 0 0 0-.988-2.333 9.8 9.8 0 0 0-1.269-1.844l2.392-6.807-3.696-1.873-4.092 5.946q-1.073-.03-2.135.12c-.876.13-1.736.354-2.564.666m6.726 14.333c.364 6.057-3.432 13.655-8.477 16.97s-9.437 1.092-9.803-4.966c-.365-6.058 3.433-13.656 8.477-16.97 5.045-3.315 9.438-1.092 9.803 4.966"/><path fill="#fbd517" d="m168.284 101.136-6.706-3.328 3.198-6.4 6.705 3.329z"/><defs><linearGradient id="a" x1="107.812" x2="188.091" y1="231.209" y2="134.177" gradientUnits="userSpaceOnUse"><stop stop-color="#333c5e"/><stop offset="1" stop-color="#4f5982"/></linearGradient><linearGradient id="b" x1="343.285" x2="299.077" y1="277.475" y2="198.606" gradientUnits="userSpaceOnUse"><stop stop-color="#a0cce0" stop-opacity="0"/><stop offset="1" stop-color="#69a1e3"/></linearGradient><linearGradient id="c" x1="264.327" x2="264.327" y1="233.065" y2="335.653" gradientUnits="userSpaceOnUse"><stop stop-color="#8abbe1"/><stop offset="1" stop-color="#9fd6ff" stop-opacity="0"/></linearGradient><linearGradient id="d" x1="272.554" x2="289.703" y1="241.97" y2="191.167" gradientUnits="userSpaceOnUse"><stop stop-color="#6fa6e3"/><stop offset="1" stop-color="#6fa6e3" stop-opacity="0"/></linearGradient><linearGradient id="e" x1="232.424" x2="232.424" y1="231.217" y2="235.377" gradientUnits="userSpaceOnUse"><stop stop-color="#a0cce0"/><stop offset="1" stop-color="#69a1e3"/></linearGradient><linearGradient id="f" x1="250.049" x2="250.049" y1="221.388" y2="225.548" gradientUnits="userSpaceOnUse"><stop stop-color="#a0cce0"/><stop offset="1" stop-color="#69a1e3"/></linearGradient><linearGradient id="g" x1="267.783" x2="267.783" y1="212.495" y2="216.655" gradientUnits="userSpaceOnUse"><stop stop-color="#a0cce0"/><stop offset="1" stop-color="#69a1e3"/></linearGradient><linearGradient id="h" x1="87.843" x2="130.354" y1="134.666" y2="16.998" gradientUnits="userSpaceOnUse"><stop stop-color="#a0cce0"/><stop offset="1" stop-color="#69a1e3"/></linearGradient><linearGradient id="i" x1="85.352" x2="221.088" y1="51.967" y2="51.967" gradientUnits="userSpaceOnUse"><stop stop-color="#30508c"/><stop offset="1" stop-color="#5080d3"/></linearGradient><linearGradient id="j" x1="85.352" x2="221.088" y1="51.967" y2="51.967" gradientUnits="userSpaceOnUse"><stop stop-color="#a0cce0"/><stop offset="1" stop-color="#69a1e3"/></linearGradient><linearGradient id="k" x1="2.204" x2="121.416" y1="143.298" y2="3.363" gradientUnits="userSpaceOnUse"><stop stop-color="#a0cce0"/><stop offset="1" stop-color="#69a1e3"/></linearGradient><linearGradient id="l" x1="129.992" x2="135.768" y1="102.207" y2="102.207" gradientUnits="userSpaceOnUse"><stop stop-color="#a0cce0"/><stop offset="1" stop-color="#69a1e3"/></linearGradient><linearGradient id="m" x1="121.484" x2="125.507" y1="121.03" y2="121.03" gradientUnits="userSpaceOnUse"><stop stop-color="#a0cce0"/><stop offset="1" stop-color="#69a1e3"/></linearGradient><linearGradient id="n" x1="94.474" x2="133.59" y1="132.987" y2="117.536" gradientUnits="userSpaceOnUse"><stop stop-color="#a0cce0"/><stop offset="1" stop-color="#69a1e3"/></linearGradient><linearGradient id="o" x1="126.203" x2="131.552" y1="97.755" y2="97.755" gradientUnits="userSpaceOnUse"><stop stop-color="#a0cce0"/><stop offset="1" stop-color="#69a1e3"/></linearGradient><linearGradient id="p" x1="115.305" x2="119.809" y1="120.475" y2="120.475" gradientUnits="userSpaceOnUse"><stop stop-color="#a0cce0"/><stop offset="1" stop-color="#69a1e3"/></linearGradient><linearGradient id="q" x1="123.875" x2="129.522" y1="99.421" y2="99.421" gradientUnits="userSpaceOnUse"><stop stop-color="#a0cce0"/><stop offset="1" stop-color="#69a1e3"/></linearGradient><linearGradient id="r" x1="115.367" x2="119.805" y1="117.755" y2="117.755" gradientUnits="userSpaceOnUse"><stop stop-color="#a0cce0"/><stop offset="1" stop-color="#69a1e3"/></linearGradient><linearGradient id="s" x1="118.172" x2="123.669" y1="103.242" y2="103.242" gradientUnits="userSpaceOnUse"><stop stop-color="#a0cce0"/><stop offset="1" stop-color="#69a1e3"/></linearGradient><linearGradient id="t" x1="115.109" x2="119.177" y1="110.833" y2="110.833" gradientUnits="userSpaceOnUse"><stop stop-color="#a0cce0"/><stop offset="1" stop-color="#69a1e3"/></linearGradient><linearGradient id="u" x1="120.758" x2="126.492" y1="97.859" y2="97.859" gradientUnits="userSpaceOnUse"><stop stop-color="#a0cce0"/><stop offset="1" stop-color="#69a1e3"/></linearGradient><linearGradient id="v" x1="120.352" x2="124.081" y1="100.292" y2="100.292" gradientUnits="userSpaceOnUse"><stop stop-color="#a0cce0"/><stop offset="1" stop-color="#69a1e3"/></linearGradient><linearGradient id="w" x1="112.734" x2="118.43" y1="113.602" y2="113.602" gradientUnits="userSpaceOnUse"><stop stop-color="#a0cce0"/><stop offset="1" stop-color="#69a1e3"/></linearGradient><linearGradient id="x" x1="112.734" x2="116.229" y1="116.156" y2="116.156" gradientUnits="userSpaceOnUse"><stop stop-color="#a0cce0"/><stop offset="1" stop-color="#69a1e3"/></linearGradient><linearGradient id="y" x1="115.992" x2="121.487" y1="104.433" y2="104.433" gradientUnits="userSpaceOnUse"><stop stop-color="#a0cce0"/><stop offset="1" stop-color="#69a1e3"/></linearGradient><linearGradient id="z" x1="114.414" x2="119.181" y1="108.33" y2="108.33" gradientUnits="userSpaceOnUse"><stop stop-color="#a0cce0"/><stop offset="1" stop-color="#69a1e3"/></linearGradient><linearGradient id="A" x1="116.055" x2="135.94" y1="110.51" y2="110.51" gradientUnits="userSpaceOnUse"><stop stop-color="#a0cce0"/><stop offset="1" stop-color="#69a1e3"/></linearGradient><linearGradient id="B" x1="114.414" x2="119.317" y1="105.899" y2="105.899" gradientUnits="userSpaceOnUse"><stop stop-color="#a0cce0"/><stop offset="1" stop-color="#69a1e3"/></linearGradient><linearGradient id="C" x1="212.836" x2="221.021" y1="35.191" y2="35.191" gradientUnits="userSpaceOnUse"><stop stop-color="#a0cce0"/><stop offset="1" stop-color="#69a1e3"/></linearGradient><linearGradient id="D" x1="200.773" x2="206.474" y1="61.863" y2="61.863" gradientUnits="userSpaceOnUse"><stop stop-color="#a0cce0"/><stop offset="1" stop-color="#69a1e3"/></linearGradient><linearGradient id="E" x1="162.504" x2="217.936" y1="78.812" y2="56.917" gradientUnits="userSpaceOnUse"><stop stop-color="#a0cce0"/><stop offset="1" stop-color="#69a1e3"/></linearGradient><linearGradient id="F" x1="207.461" x2="215.037" y1="28.882" y2="28.882" gradientUnits="userSpaceOnUse"><stop stop-color="#a0cce0"/><stop offset="1" stop-color="#69a1e3"/></linearGradient><linearGradient id="G" x1="192.016" x2="198.4" y1="61.078" y2="61.078" gradientUnits="userSpaceOnUse"><stop stop-color="#a0cce0"/><stop offset="1" stop-color="#69a1e3"/></linearGradient><linearGradient id="H" x1="204.164" x2="212.167" y1="31.243" y2="31.243" gradientUnits="userSpaceOnUse"><stop stop-color="#a0cce0"/><stop offset="1" stop-color="#69a1e3"/></linearGradient><linearGradient id="I" x1="192.109" x2="198.399" y1="57.223" y2="57.223" gradientUnits="userSpaceOnUse"><stop stop-color="#a0cce0"/><stop offset="1" stop-color="#69a1e3"/></linearGradient><linearGradient id="J" x1="196.078" x2="203.869" y1="36.656" y2="36.656" gradientUnits="userSpaceOnUse"><stop stop-color="#a0cce0"/><stop offset="1" stop-color="#69a1e3"/></linearGradient><linearGradient id="K" x1="191.742" x2="197.509" y1="47.416" y2="47.416" gradientUnits="userSpaceOnUse"><stop stop-color="#a0cce0"/><stop offset="1" stop-color="#69a1e3"/></linearGradient><linearGradient id="L" x1="199.742" x2="207.868" y1="29.029" y2="29.029" gradientUnits="userSpaceOnUse"><stop stop-color="#a0cce0"/><stop offset="1" stop-color="#69a1e3"/></linearGradient><linearGradient id="M" x1="199.172" x2="204.457" y1="32.476" y2="32.476" gradientUnits="userSpaceOnUse"><stop stop-color="#a0cce0"/><stop offset="1" stop-color="#69a1e3"/></linearGradient><linearGradient id="N" x1="188.383" x2="196.454" y1="51.337" y2="51.337" gradientUnits="userSpaceOnUse"><stop stop-color="#a0cce0"/><stop offset="1" stop-color="#69a1e3"/></linearGradient><linearGradient id="O" x1="188.383" x2="193.335" y1="54.959" y2="54.959" gradientUnits="userSpaceOnUse"><stop stop-color="#a0cce0"/><stop offset="1" stop-color="#69a1e3"/></linearGradient><linearGradient id="P" x1="193" x2="200.786" y1="38.346" y2="38.346" gradientUnits="userSpaceOnUse"><stop stop-color="#a0cce0"/><stop offset="1" stop-color="#69a1e3"/></linearGradient><linearGradient id="Q" x1="190.758" x2="197.513" y1="43.868" y2="43.868" gradientUnits="userSpaceOnUse"><stop stop-color="#a0cce0"/><stop offset="1" stop-color="#69a1e3"/></linearGradient><linearGradient id="R" x1="193.086" x2="221.265" y1="46.953" y2="46.953" gradientUnits="userSpaceOnUse"><stop stop-color="#a0cce0"/><stop offset="1" stop-color="#69a1e3"/></linearGradient><linearGradient id="S" x1="190.758" x2="197.706" y1="40.422" y2="40.422" gradientUnits="userSpaceOnUse"><stop stop-color="#a0cce0"/><stop offset="1" stop-color="#69a1e3"/></linearGradient><linearGradient id="T" x1="144.102" x2="159.187" y1="86.65" y2="86.65" gradientUnits="userSpaceOnUse"><stop stop-color="#a0cce0"/><stop offset="1" stop-color="#69a1e3"/></linearGradient><linearGradient id="U" x1="141.336" x2="144.349" y1="78.313" y2="71.214" gradientUnits="userSpaceOnUse"><stop stop-color="#a0cce0"/><stop offset="1" stop-color="#69a1e3"/></linearGradient><linearGradient id="V" x1="190.434" x2="145.328" y1="72.372" y2="89.313" gradientUnits="userSpaceOnUse"><stop stop-color="#a0cce0"/><stop offset="1" stop-color="#69a1e3"/></linearGradient><linearGradient id="W" x1="121.852" x2="178.638" y1="41.718" y2="41.718" gradientUnits="userSpaceOnUse"><stop stop-color="#ffc610"/><stop offset=".227" stop-color="#ffd431"/><stop offset=".574" stop-color="#ffe85d"/><stop offset=".844" stop-color="#fff479"/><stop offset="1" stop-color="#fff984"/></linearGradient><linearGradient id="X" x1="151.502" x2="151.525" y1="61.375" y2="73.888" gradientUnits="userSpaceOnUse"><stop offset=".392" stop-color="#fbcb21"/><stop offset=".495" stop-color="#8c96ba"/></linearGradient><linearGradient id="Y" x1="150.781" x2="150.781" y1="71.533" y2="51.608" gradientUnits="userSpaceOnUse"><stop offset=".056" stop-color="#e6edf7"/><stop offset=".187" stop-color="#b5bbc3"/><stop offset=".376" stop-color="#75797e"/><stop offset=".546" stop-color="#434548"/><stop offset=".692" stop-color="#1e1f20"/><stop offset=".808" stop-color="#080808"/><stop offset=".88"/></linearGradient></defs></svg>