<svg xmlns="http://www.w3.org/2000/svg" width="42" height="47" fill="none" viewBox="0 0 42 47"><path fill="#d4e6fc" d="M30.804 36.578c-.034-.107-9.861-5.48-9.861-5.48l-.228-2.74 1.862-.213 8.779 6.57M9.55 35.755l6.06-3.911 15.429 8.992-6.961 3.909"/><path fill="#d4e6fc" d="m20.941 28.562 4.294-2.771 15.43 8.992-6.962 3.909"/><path fill="#2b1f51" d="M41.428 35.627v-.005a1.35 1.35 0 0 0-.6-1.078l-.013-.009-.015-.01-.017-.01-.034-.017-.033-.012h-.01a5741 5741 0 0 0-12.776-7.382l-2.476-1.428a2 2 0 0 1-.27-.21l-2.416-2.287a24 24 0 0 0 1.272-.143q.246-.015.489-.06c.59-.079 1.22-.17 1.839-.31l.3-.065c.2-.042.39-.083.583-.128 2.3-.487 4.51-1.334 6.546-2.51a16 16 0 0 0 1.355-.863l.2-.149c.1-.07.19-.139.278-.209.265-.21.5-.4.714-.588l.017-.018h.005c.048-.045.1-.088.144-.13q.127-.113.243-.227c.077-.077.17-.16.253-.243l.109-.107.013-.013c.162-.173.345-.369.508-.572a5 5 0 0 0 .338-.415q.066-.085.125-.168c.076-.1.147-.207.222-.317l.054-.08c.09-.14.17-.267.24-.4q.238-.39.416-.813.087-.187.157-.37l.07-.19a3 3 0 0 0 .12-.372c0-.01.007-.022.01-.034a1 1 0 0 1 .039-.126l.01-.035c.044-.182.084-.373.116-.547q.077-.419.108-.843a6.7 6.7 0 0 0-.14-1.869.4.4 0 0 0-.017-.109l-.01-.048a3 3 0 0 1-.042-.154q-.031-.12-.07-.243a4 4 0 0 0-.155-.476 6 6 0 0 0-.311-.733l-.021-.044-.1-.207-.03-.058v-.009l-.004-.009v-.01l-.214-.368-.005-.007v-.008c-1.866-2.878-4.261-4.3-7.785-5.8a29.7 29.7 0 0 0-7.12-1.669l-.02-.007-.033-.01-.037-.008h-.021a45 45 0 0 1-.918-.093h-.018l-.42-.028a17 17 0 0 0-.531-.033c-.2-.008-.4-.016-.608-.029a11 11 0 0 0-.52-.009 2.7 2.7 0 0 0-1.4.022.4.4 0 0 0-.122-.02c-.211 0-.422.011-.633.02h-.018q-.33.01-.666.038-.45.03-.9.072c-.681.061-1.367.147-2.043.257-1.492.22-2.964.563-4.4 1.024h-.036l-.035.007h-.014l-.127.043c-.042.015-.057.021-.1.032a20 20 0 0 0-2.03.785q-.517.218-.992.461c-.384.183-.757.381-1.1.587C2.095 5.62.004 8.558.004 11.7s2.09 6.073 5.88 8.262q1.398.805 2.9 1.388H8.8c.4.16.8.3 1.22.435l.04.013.119.04-.01.008a4 4 0 0 1-.215.36l-.111.54v.14c0 .01.007.023.01.035l.01.031.017.031q.007.016.017.03l.019.023.027.032q.246.236.494.47c.165.156.337.32.5.481v2.626a.36.36 0 0 0 .18.312l1.908 1.1v.272c.006.35.082.695.22 1.016l-5.341-5.069h-.006l-.006-.006a.77.77 0 0 0-.811-.216l-.018.007-.028.011-.013.008-.013.006-6.39 3.693a.61.61 0 0 0-.342.44v.007l-.12.548v.151c0 .011.006.021.009.032l.01.034.016.03.018.032.019.024q.012.016.027.031l.005.006 1 .945v2.61a.36.36 0 0 0 .18.312l1.9 1.1v.272a3.07 3.07 0 0 0 1.41 2.438l16.263 9.391c.22.135.472.21.73.216.173.001.342-.04.494-.12l.016-.01a1.16 1.16 0 0 0 .524-.96l1.987 1.147a.35.35 0 0 0 .327.013c.01 0 .022-.008.033-.013l6.439-3.722a.36.36 0 0 0 .18-.312v-.771a1.34 1.34 0 0 0-.6-1.065l-.012-.008-.02-.013h-.005a8333 8333 0 0 0-9.857-5.693v-.156l9.445 5.455c.22.134.473.208.73.215.173.001.342-.041.494-.123a1.17 1.17 0 0 0 .539-.963l1.992 1.145a.36.36 0 0 0 .436-.06l6.35-3.658a.36.36 0 0 0 .18-.312v-.765zM30.212 40.86l-5.718 3.3-2.034-1.174q-6.29-3.63-12.58-7.27l5.715-3.294 2.56 1.478q6.03 3.474 12.057 6.96m-7.6 3.515L9.27 36.666l-4.9-4.652-2.5-2.379-.013-.009-.948-.9.048-.22.016.014 7.6 7.21q.18.17.4.286 6.56 3.8 13.116 7.58l2.207 1.274a.62.62 0 0 1 .285.5v.133zM7.324 24.734q.053.032.1.073l7.534 7.15-5.788 3.336a1 1 0 0 1-.1-.088l-7.365-7-.082-.076-.052-.049zm13.93-1.465q.27-.01.54-.023l2.838 2.685-3.378 1.95zm-2.825 5.614-7.045-6.694.31.081c.165.042.33.085.51.136 2.04.496 4.126.787 6.225.867zm-2.65 2.813a1.4 1.4 0 0 1-.267-.2l-.271-.257 3.193 1.846v.15zm2.65-.515v1.064l-3.631-2.1a2.36 2.36 0 0 1-1.036-1.659zm13.863 7.173-11.038-6.377v-.467l.526.306 1.578.9 10.578 6.107q.022.02.046.034a.61.61 0 0 1 .28.495v.132zm7.582-3.52-5.7 3.3-10.455-6.037-1.576-.9-.886-.516v-1.963l4.012-2.316 2.3 1.328c4.043 2.321 8.209 4.725 12.31 7.103zM37.928 8.16l.208.358.007.012.016.035c.034.064.064.128.1.2l.023.047q.163.325.283.666.082.204.136.415-.001.012.006.022.034.11.062.218.016.064.035.128a.4.4 0 0 0 .015.07v.04a6 6 0 0 1 .033 2.473 12 12 0 0 1-.1.491 2 2 0 0 0-.053.18c0 .012-.007.025-.01.04v.008q-.042.136-.1.28l-.047.133-.015.036c-.046.116-.09.225-.145.343q-.165.39-.382.75c-.066.12-.137.23-.217.356l-.05.074c-.068.1-.132.2-.206.3l-.116.156-.094.125c-.07.095-.151.187-.214.256l-.013.015a10 10 0 0 1-.473.533l-.108.106a6 6 0 0 1-.234.224l-.015.014q-.057.055-.117.11L21.56 2.562V1.371l1.889-.353c2.405.252 4.77.8 7.039 1.635 3.38 1.423 5.68 2.785 7.446 5.505zM16.85.93q.302-.027.594-.047.367-.028.73-.047a1 1 0 0 0-.055.216l-3.7.211q1.23-.217 2.437-.334zm2.17 1.912-.013-.008-.01-.005a.3.3 0 0 1-.067-.05.3.3 0 0 1-.074-.107v-.57l.018.008q.102.045.208.073l.21.063.044.011q.255.048.514.05.129 0 .258-.017.077-.008.143-.019l.085-.012a.4.4 0 0 0 .062-.013l.086-.025q.162-.036.316-.1l.04-.016h.01v.582a.5.5 0 0 1-.236.207 1.85 1.85 0 0 1-1.133.131 1.4 1.4 0 0 1-.455-.18zM20.247.76q.07.038.149.042.117.036.224.094c.1.046.18.128.224.23v.041q.001.007-.005.018a.3.3 0 0 1-.031.051l-.017.021a.7.7 0 0 1-.168.13 1.82 1.82 0 0 1-1.57 0 .7.7 0 0 1-.146-.114.3.3 0 0 1-.037-.053l-.01-.018a.1.1 0 0 1-.015-.037v-.031c0-.06.06-.154.213-.244a1.7 1.7 0 0 1 .793-.18q.203.005.402.05zM.715 11.694c0-2.875 1.964-5.592 5.534-7.655q.5-.294 1.06-.563c.31-.16.62-.3.958-.445a21 21 0 0 1 1.956-.755q.064-.02.128-.043l.044-.015h.012l7.718-.437v.924q0 .042.009.081l.009.04q.007.03.02.06c.04.13.11.25.2.351L8.746 20.558a20 20 0 0 1-2.514-1.223C2.682 17.276.72 14.563.72 11.692zm9.873 11 .046-.225.012.007.124.12.012.01.03.03q.023.03.05.056l7.333 6.958.052.05.007.006.006.006.027.023q.063.055.135.112v.274l-6.88-6.518c-.2-.2-.408-.393-.615-.589zm1.075 2.018 4.63 4.4-4.63-2.674zM1.98 30.735l1.868 1.772 2.763 2.625-.646-.372-3.984-2.306zm19.918 14.9a.57.57 0 0 1-.52-.087l-16.261-9.39a2.38 2.38 0 0 1-1.042-1.66l1.49.858 3.329 1.926 13.176 7.606v.258a.58.58 0 0 1-.167.5zm3.412-.126v-.142a1.34 1.34 0 0 0-.232-.713l5.812-3.352a.6.6 0 0 1 .139.36v.55zm-6.16-11.875v-3.788a.36.36 0 0 0 0-.315v-6.238c.207 0 .412.007.613.007q.395 0 .77-.012v11.146zm12.423 5.98a.57.57 0 0 1-.515-.09l-9.8-5.663v-1.059l10.5 6.065v.26a.55.55 0 0 1-.18.491zm3.423-.143v-.123a.4.4 0 0 0-.022-.12 1.35 1.35 0 0 0-.22-.6l5.815-3.357a.63.63 0 0 1 .133.364v.548z"/></svg>