<svg xmlns="http://www.w3.org/2000/svg" width="93" height="86" fill="none" viewBox="0 0 93 86"><path fill="#f2f5fc" d="M85.329 53.525a7 7 0 0 1-1.456-1.985c-1.11-2.383-.243-4.8 2-6.68a27.3 27.3 0 0 0-5.962-3.436 22.64 22.64 0 0 1-11.555 1.161c-4.121-.644-7.312-2.282-9.01-4.343a49 49 0 0 0-4.161.441c-1.385.214-2.7.5-3.98.817.322 2.275-1.02 4.611-4.034 6.354a15 15 0 0 1-1.786.821c-.273-.047-.536-.108-.815-.148a60 60 0 0 0-5.02-.532 11.5 11.5 0 0 1-2.462 2.171c-.311 0-.618.028-.928.01-.221.3-.414.6-.608.9a22.3 22.3 0 0 1-6.85 2.151 27.3 27.3 0 0 1-13.93-1.4 32.7 32.7 0 0 0-7.182 4.14c2.709 2.271 3.752 5.18 2.416 8.048a8.3 8.3 0 0 1-1.754 2.394 16.75 16.75 0 0 1-7.324 3.88 14.1 14.1 0 0 0 2.625 5.656 25 25 0 0 1 13.28 2.807c3.629 2.1 5.242 4.912 4.855 7.656 1.548.387 3.134.732 4.8.992s3.342.416 5.005.527c2.053-2.488 5.893-4.462 10.859-5.236a27.3 27.3 0 0 1 13.928 1.4 33 33 0 0 0 7.2-4.149c-2.718-2.268-3.761-5.17-2.425-8.046q.378-.77.91-1.444a11.1 11.1 0 0 1 4.074 2.922c1.383-.1 2.77-.228 4.157-.442s2.7-.5 3.985-.824c-.322-2.275 1.017-4.6 4.029-6.35a20.74 20.74 0 0 1 11.019-2.33 11.7 11.7 0 0 0 2.178-4.69 13.9 13.9 0 0 1-6.078-3.213M48.552 72.1c-.057.036-.11.076-.167.115a22 22 0 0 1-.7.45c-.083.046-.166.1-.251.144-.247.142-.49.282-.745.408-.107.058-.218.106-.324.16l-.06.024a16 16 0 0 1-1.794.759 27.5 27.5 0 0 1-13.343 1.19 20.6 20.6 0 0 1-8.53-3.147 6 6 0 0 1-.22-.148c-.067-.048-.132-.108-.2-.156a10 10 0 0 1-.806-.665c-.1-.09-.21-.174-.3-.268-.031-.029-.066-.054-.092-.083 0-.007.006-.007.007-.007-2.195-2.163-2.967-4.81-1.752-7.425 2.418-5.186 11.649-8.27 20.634-6.883.242.04.473.09.714.134.357.418.66.88.9 1.374 1.109 2.383.243 4.8-2.011 6.68a27.6 27.6 0 0 0 5.966 3.44 21.3 21.3 0 0 1 6.815-1.369 6 6 0 0 1-.492 1.64 9.5 9.5 0 0 1-3.25 3.634m26.18-13.208.008.007c-.02.018-.042.033-.062.054a9 9 0 0 1-.794.662c-.1.086-.2.174-.308.253-.084.061-.184.12-.273.177-.118.086-.256.16-.384.242-.217.134-.42.275-.656.405.218-.119.4-.253.6-.376a15.7 15.7 0 0 1-3.27 1.49A15 15 0 0 0 67.5 57.97a24.94 24.94 0 0 1-13.275-2.8 10.6 10.6 0 0 1-4.1-3.895c1.71-2.022 4.865-3.628 8.93-4.26 7.455-1.147 15.119 1.406 17.12 5.711 1.019 2.18.383 4.374-1.444 6.168"/><path fill="#fff" d="M70.135 34.179a14.2 14.2 0 0 0-2.63-5.66c-4.598.31-9.192-.66-13.274-2.8-3.635-2.094-5.251-4.914-4.863-7.653a52 52 0 0 0-4.793-.991 59 59 0 0 0-5.02-.528c-2.044 2.48-5.886 4.46-10.854 5.23a27.23 27.23 0 0 1-13.93-1.4 33 33 0 0 0-7.183 4.14v9.819c.238.2.448.413.662.622a16.74 16.74 0 0 1-7.324 3.884v9.816a14.1 14.1 0 0 0 2.625 5.66c4.6-.31 9.196.66 13.28 2.8 3.629 2.1 5.242 4.915 4.855 7.657 1.548.387 3.134.73 4.8.99 1.666.262 3.342.417 5.005.533 2.053-2.492 5.893-4.46 10.859-5.237a27.3 27.3 0 0 1 13.928 1.4 33 33 0 0 0 7.2-4.15v-9.814c-.243-.2-.452-.416-.667-.626a16.8 16.8 0 0 1 7.324-3.877zm-49.123 7.255c3.734-3.693 11.39-5.653 18.888-4.5 4.444.688 7.993 2.34 10.15 4.467-3.736 3.7-11.391 5.656-18.884 4.5-4.45-.684-8-2.341-10.154-4.467"/><path fill="#f2f5fc" d="M44.47 44.726a15.4 15.4 0 0 0 5.578-3.323c-2.157-2.127-5.706-3.78-10.15-4.467-7.5-1.157-15.155.8-18.888 4.5a13 13 0 0 0 2.984 2.163c-4.367-2.37-6.394-6.011-4.73-9.595 2.419-5.183 11.65-8.267 20.635-6.88 8.985 1.389 14.305 6.71 11.892 11.9-1.147 2.462-3.848 4.447-7.321 5.702m-2.116 6.518c-4.966.774-8.806 2.745-10.86 5.237a61 61 0 0 1-5.004-.532 52 52 0 0 1-4.8-.987c.387-2.75-1.226-5.56-4.855-7.657a24.95 24.95 0 0 0-13.28-2.806A14.14 14.14 0 0 1 .93 38.842v9.816a14.1 14.1 0 0 0 2.625 5.66c4.6-.31 9.196.66 13.28 2.8 3.629 2.1 5.242 4.915 4.855 7.657 1.548.387 3.134.73 4.8.99 1.666.262 3.342.417 5.005.533 2.053-2.492 5.893-4.46 10.859-5.237a27.3 27.3 0 0 1 13.928 1.4 33 33 0 0 0 7.2-4.15v-9.814a33 33 0 0 1-7.2 4.145 27.3 27.3 0 0 0-13.928-1.4zm27.779-17.067c-4.314 1.179-7.745 3.4-9.081 6.275s-.294 5.776 2.425 8.047c-.243-.2-.452-.416-.667-.626a16.8 16.8 0 0 1 7.324-3.877zm-60.13-1.613c1.336-2.868.293-5.776-2.416-8.048v9.819c.238.2.448.413.662.622a8.3 8.3 0 0 0 1.754-2.393"/><path fill="#005bea" d="M31.496 67.227h-.064c-1.951-.136-3.566-.308-5.082-.541a55 55 0 0 1-4.888-1.007.926.926 0 0 1-.692-1.028c.346-2.453-1.258-4.9-4.4-6.725a24.05 24.05 0 0 0-12.773-2.68.96.96 0 0 1-.784-.37 15 15 0 0 1-2.791-6.032 1 1 0 0 1-.018-.182v-9.816a.926.926 0 0 1 .682-.893 16.7 16.7 0 0 0 6.2-3.01.92.92 0 0 1-.224-.6v-9.818a.92.92 0 0 1 .358-.731 33.8 33.8 0 0 1 7.385-4.26c.225-.097.48-.1.708-.01a26.35 26.35 0 0 0 13.444 1.342c4.548-.706 8.3-2.493 10.283-4.9a.94.94 0 0 1 .776-.335c1.948.13 3.567.3 5.1.537a53 53 0 0 1 4.879 1.008.925.925 0 0 1 .691 1.028c-.349 2.456 1.258 4.905 4.408 6.72a24 24 0 0 0 12.769 2.68.94.94 0 0 1 .786.373 15.1 15.1 0 0 1 2.794 6.03q.019.09.019.184v9.819a.93.93 0 0 1-.681.893 16.9 16.9 0 0 0-6.2 3 .92.92 0 0 1 .227.606v9.815a.93.93 0 0 1-.359.732 33.7 33.7 0 0 1-7.4 4.268.9.9 0 0 1-.71.009 26.4 26.4 0 0 0-13.441-1.345c-4.553.713-8.3 2.5-10.287 4.91a.92.92 0 0 1-.715.329m-8.828-3.166c1.407.334 2.71.594 3.965.79a57 57 0 0 0 4.466.49c2.328-2.566 6.34-4.448 11.112-5.2a28.46 28.46 0 0 1 14.05 1.313 32 32 0 0 0 6.289-3.606v-8.944a11 11 0 0 1-.27-.262l-.116-.113a.927.927 0 0 1 0-1.324 17.2 17.2 0 0 1 7.047-3.912v-9.03a13.1 13.1 0 0 0-2.162-4.81 25.7 25.7 0 0 1-13.279-2.945c-3.505-2.02-5.425-4.8-5.382-7.743a48 48 0 0 0-3.952-.787 55 55 0 0 0-4.48-.487c-2.33 2.569-6.344 4.45-11.11 5.189a28.4 28.4 0 0 1-14.051-1.31 32 32 0 0 0-6.277 3.6v8.948q.169.16.332.322l.053.052a.925.925 0 0 1 0 1.32 17.1 17.1 0 0 1-7.048 3.92v9.029a13 13 0 0 0 2.157 4.81c4.612-.228 9.2.79 13.285 2.945 3.495 2.03 5.412 4.815 5.37 7.745M35.45 47.15a29 29 0 0 1-4.427-.336c-4.491-.694-8.277-2.372-10.663-4.726a.93.93 0 0 1 0-1.318c4.012-3.968 12.105-5.922 19.68-4.752 4.489.694 8.274 2.37 10.659 4.722a.925.925 0 0 1 0 1.318c-3.235 3.202-9.121 5.096-15.248 5.096zm-13.055-5.722a18.7 18.7 0 0 0 8.91 3.556c6.588 1.018 13.528-.45 17.358-3.583a18.73 18.73 0 0 0-8.906-3.553c-6.587-1.013-13.532.45-17.362 3.584z"/><path fill="#1b69ff" d="M33.98 23.715a13.9 13.9 0 0 1 6.073 3.219c-.18.17-.352.346-.551.517v8.148a27.5 27.5 0 0 0 5.965 3.439 22.6 22.6 0 0 1 11.56-1.161c4.124.644 7.31 2.274 9.01 4.343 1.382-.1 2.77-.228 4.156-.441s2.7-.5 3.986-.817c-.323-2.28 1.016-4.615 4.028-6.358a20.75 20.75 0 0 1 11.02-2.326 11.8 11.8 0 0 0 2.177-4.694v-8.148a13.9 13.9 0 0 1-6.078-3.223c.178-.174.353-.346.55-.516V7.549a27.5 27.5 0 0 0-5.963-3.436 22.65 22.65 0 0 1-11.554 1.16c-4.121-.64-7.312-2.278-9.01-4.343a49 49 0 0 0-4.161.44c-1.386.214-2.7.5-3.98.818.322 2.279-1.02 4.615-4.035 6.358a20.7 20.7 0 0 1-11.016 2.322 11.7 11.7 0 0 0-2.178 4.7zm32.335 1.576c-6.22.966-12.571-.661-15.674-3.728a15.4 15.4 0 0 1 8.425-3.707c6.221-.962 12.575.665 15.673 3.732a15.4 15.4 0 0 1-8.425 3.7z"/><path fill="#000" d="M49.198 19.58c-2.007-4.3 2.419-8.723 9.868-9.874s15.117 1.407 17.12 5.712c1.382 2.972-.3 5.992-3.923 7.967a11 11 0 0 0 2.475-1.8c-3.1-3.067-9.45-4.695-15.672-3.732a15.4 15.4 0 0 0-8.425 3.707 12.9 12.9 0 0 0 4.63 2.762c-2.882-1.046-5.12-2.691-6.074-4.742m-3.731 11.31a27.5 27.5 0 0 1-5.966-3.44v8.15a27.5 27.5 0 0 0 5.966 3.439 22.6 22.6 0 0 1 11.56-1.161c4.123.644 7.308 2.274 9.008 4.343 1.383-.1 2.772-.228 4.157-.441 1.387-.213 2.7-.5 3.986-.817-.322-2.28 1.017-4.615 4.029-6.358a20.75 20.75 0 0 1 11.019-2.326 11.8 11.8 0 0 0 2.177-4.694v-8.148a11.7 11.7 0 0 1-2.178 4.69 20.7 20.7 0 0 0-11.018 2.332c-3.013 1.744-4.351 4.076-4.03 6.35a45 45 0 0 1-3.985.822c-1.384.214-2.772.343-4.156.445-1.7-2.07-4.886-3.707-9.01-4.35a22.65 22.65 0 0 0-11.556 1.164zm-11.489-7.175a13.9 13.9 0 0 1 6.073 3.219c-.178.17-.352.346-.55.517 2.254-1.884 3.12-4.293 2.01-6.68-1.108-2.387-3.954-4.228-7.532-5.2zm51.35-7.5c.176-.174.352-.346.548-.516V7.55c-2.247 1.884-3.114 4.3-2 6.679a6.9 6.9 0 0 0 1.453 1.983z" opacity=".3" style="mix-blend-mode:overlay"/><path fill="#005bea" d="M66.037 43.145a.93.93 0 0 1-.715-.338c-1.617-1.967-4.693-3.432-8.437-4.016a21.7 21.7 0 0 0-11.074 1.1.92.92 0 0 1-.71-.01 28.4 28.4 0 0 1-6.167-3.556.93.93 0 0 1-.36-.732v-8.148c0-.166.045-.33.13-.472a14 14 0 0 0-4.97-2.371.925.925 0 0 1-.681-.892v-8.148q0-.092.018-.182a12.6 12.6 0 0 1 2.345-5.071.91.91 0 0 1 .784-.37 19.8 19.8 0 0 0 10.512-2.2c2.552-1.476 3.857-3.454 3.579-5.426a.926.926 0 0 1 .69-1.027A42 42 0 0 1 55.05.45 50 50 0 0 1 59.287 0a.94.94 0 0 1 .778.337c1.62 1.97 4.7 3.436 8.437 4.017 3.723.597 7.538.216 11.07-1.106a.93.93 0 0 1 .708.009 28.4 28.4 0 0 1 6.163 3.554.93.93 0 0 1 .36.733v8.148a.9.9 0 0 1-.13.47 13.9 13.9 0 0 0 4.976 2.375.926.926 0 0 1 .682.894v8.148a1 1 0 0 1-.02.185 12.7 12.7 0 0 1-2.343 5.064.97.97 0 0 1-.784.37c-3.64-.25-7.28.511-10.514 2.2-2.55 1.475-3.854 3.454-3.575 5.426a.926.926 0 0 1-.693 1.028c-1.451.36-2.781.632-4.064.834-1.24.19-2.584.333-4.236.45zm-12.623-6.472c1.258 0 2.514.095 3.757.288 3.962.619 7.3 2.176 9.26 4.3a48 48 0 0 0 3.623-.4c1-.157 2.043-.361 3.153-.62.02-2.45 1.635-4.76 4.54-6.442a21.57 21.57 0 0 1 11.022-2.468 10.7 10.7 0 0 0 1.713-3.846v-7.358a14.26 14.26 0 0 1-5.8-3.258.923.923 0 0 1 0-1.321q.138-.137.27-.264v-7.28a26.6 26.6 0 0 0-5.056-2.9A23.8 23.8 0 0 1 68.22 6.179c-3.96-.615-7.3-2.173-9.263-4.3-1.345.1-2.536.232-3.626.4a38 38 0 0 0-3.147.618c-.02 2.449-1.635 4.76-4.544 6.444a21.5 21.5 0 0 1-11.02 2.464 10.6 10.6 0 0 0-1.712 3.848v7.36a14.3 14.3 0 0 1 5.8 3.253.925.925 0 0 1-.012 1.33l-.146.14-.117.114v7.28a26.7 26.7 0 0 0 5.06 2.9 22.9 22.9 0 0 1 7.92-1.357m9.337-10.186c-5.121 0-10.046-1.585-12.762-4.268a.926.926 0 0 1 0-1.32 16.3 16.3 0 0 1 8.933-3.961c6.337-.978 13.105.662 16.466 3.99a.926.926 0 0 1 0 1.318 16.3 16.3 0 0 1-8.931 3.958 24 24 0 0 1-3.706.283m-10.71-4.925c3.18 2.49 8.8 3.64 14.132 2.812a15.6 15.6 0 0 0 7.162-2.79c-3.173-2.491-8.788-3.641-14.13-2.816a15.6 15.6 0 0 0-7.162 2.794z"/></svg>