<svg xmlns="http://www.w3.org/2000/svg" width="418" height="409" fill="none" viewBox="0 0 418 409"><g filter="url(#a)"><path fill="#030c60" d="M208.982 400.48c113.208 0 204.982-52.985 204.982-118.346S322.19 163.787 208.982 163.787 4 216.773 4 282.134 95.774 400.48 208.982 400.48" opacity=".15"/><path fill="#333c5e" d="M336.543 296.376c-70.45 40.672-184.675 40.672-255.126 0-35.118-20.275-52.72-46.829-52.829-73.404h-.01v51.198h.084c.875 25.97 18.43 51.787 52.755 71.605 70.451 40.672 184.676 40.672 255.126 0 34.331-19.817 51.876-45.635 52.754-71.605h.084v-51.443c0 26.656-17.613 53.311-52.838 73.649"/><path fill="#fff" d="M336.543 313.078c-70.452 40.672-184.675 40.672-255.127 0-34.324-19.818-51.876-45.635-52.754-71.605h-.084v33.996-15.075h.01c.11 26.568 17.712 53.128 52.828 73.403 70.452 40.672 184.675 40.672 255.127 0 35.225-20.337 52.838-46.993 52.838-73.649v-18.675h-.084c-.878 25.97-18.428 51.788-52.754 71.605" style="mix-blend-mode:soft-light"/><path fill="#333c5e" d="M389.368 222.426c-.134-26.555-17.734-53.087-52.827-73.348-70.452-40.672-184.676-40.672-255.126 0-35.334 20.4-52.937 47.157-52.829 73.894.11 26.575 17.713 53.129 52.83 73.404 70.45 40.672 184.675 40.672 255.126 0 35.225-20.336 52.838-46.993 52.838-73.649 0-.099-.012-.2-.012-.301"/><path fill="#fff" d="M361.119 222.473c-.109-22.396-14.956-44.771-44.551-61.859-59.417-34.303-155.75-34.304-215.17 0-29.8 17.205-44.646 39.771-44.554 62.321.09 22.413 14.937 44.807 44.555 61.906 59.417 34.305 155.749 34.305 215.17 0 29.708-17.152 44.562-39.633 44.562-62.114-.003-.084-.011-.169-.012-.254M336.357 318.503c-.579.334-1.186.642-1.771.972v11.582c.585-.328 1.192-.637 1.771-.97a134 134 0 0 0 31.425-24.384v-11.618a134.2 134.2 0 0 1-31.425 24.418m-39.56 17.267v11.589a211.4 211.4 0 0 0 33.195-13.776v-11.589a211.4 211.4 0 0 1-33.195 13.776m-37.789 9.126v11.589a268 268 0 0 0 33.195-7.669v-11.59a268 268 0 0 1-33.195 7.67M83.956 319.042c.58.335 1.185.643 1.77.972v11.583c-.585-.328-1.19-.637-1.77-.971a134 134 0 0 1-31.425-24.389v-11.613a134.2 134.2 0 0 0 31.425 24.418m39.559 17.265v11.59A211.5 211.5 0 0 1 90.32 334.12v-11.587a211.3 211.3 0 0 0 33.195 13.774m37.783 9.127v11.59a268 268 0 0 1-33.196-7.67v-11.589a268 268 0 0 0 33.196 7.669" style="mix-blend-mode:overlay"/><path fill="#fff" d="M315.463 222.664v.066c0 15.733-10.398 31.466-31.182 43.471-18.937 10.922-43.231 16.881-68.017 17.854h-.099c-.688.033-1.377.055-2.066.077a202 202 0 0 1-10.212 0 79 79 0 0 1-2.285-.088h-.109c-24.688-1.006-48.916-6.953-67.798-17.854-20.719-11.961-31.117-27.629-31.172-43.318v-.153c0-15.723 10.387-31.456 31.172-43.461 41.579-24.009 108.995-24.009 150.586 0 20.708 11.961 31.094 27.618 31.171 43.297a.4.4 0 0 0 .011.109" style="mix-blend-mode:overlay"/><path fill="url(#b)" d="M304.522 54.21v180.47c0 7.088-9.322 14.175-27.957 19.583-16.978 4.92-38.759 7.605-60.982 8.042h-.088c-.648 0-1.265 0-1.854.02a232 232 0 0 1-9.155 0c-.667-.01-1.353-.02-2.049-.025h-.099c-22.134-.453-43.857-3.133-60.79-8.043-18.575-5.388-27.897-12.446-27.946-19.514V54.21z" opacity=".6" style="mix-blend-mode:lighten"/><path fill="url(#c)" d="M208.989 139.078c-24.059 0-48.118-5.287-66.433-15.862-17.83-10.294-27.65-24.008-27.65-38.615s9.82-28.318 27.65-38.616c36.627-21.148 96.235-21.15 132.866 0 17.83 10.3 27.65 24.015 27.65 38.622s-9.82 28.317-27.65 38.614c-18.316 10.575-42.374 15.857-66.433 15.857m0-108.067c-23.896 0-47.791 5.248-65.982 15.755-17.539 10.125-27.199 23.563-27.199 37.83s9.66 27.708 27.199 37.829c36.384 21.006 95.584 21.006 131.967 0 17.539-10.126 27.199-23.562 27.199-37.83 0-14.266-9.66-27.708-27.199-37.829-18.195-10.497-42.095-15.75-65.986-15.75z" style="mix-blend-mode:overlay"/><path fill="url(#d)" d="M208.981 237.076c-12.599 0-25.197-2.768-34.786-8.309-9.403-5.427-14.578-12.683-14.578-20.416s5.177-14.989 14.577-20.415c19.181-11.074 50.391-11.074 69.571 0 9.403 5.426 14.578 12.683 14.578 20.416s-5.177 14.988-14.577 20.415c-9.591 5.541-22.188 8.309-34.785 8.309m-34.211-48.142c-9.029 5.215-14.002 12.11-14.002 19.419s4.973 14.206 14.002 19.42c18.863 10.889 49.557 10.891 68.42 0 9.029-5.214 14.001-12.11 14.001-19.419s-4.969-14.204-14.001-19.42c-18.862-10.889-49.557-10.889-68.42 0" style="mix-blend-mode:overlay"/><path fill="url(#e)" d="M208.997 228.85c-18.587 0-37.164-4.083-51.31-12.245-13.814-7.981-21.421-18.614-21.421-29.958s7.607-21.976 21.42-29.957c28.293-16.335 74.328-16.335 102.619 0 13.815 7.975 21.422 18.614 21.422 29.957s-7.607 21.977-21.421 29.958c-14.146 8.162-32.728 12.245-51.309 12.245m-50.734-71.165c-13.443 7.763-20.846 18.045-20.846 28.958s7.403 21.199 20.846 28.959c27.975 16.152 73.492 16.152 101.462 0 13.448-7.762 20.845-18.04 20.845-28.957s-7.403-21.197-20.845-28.96c-27.975-16.151-73.493-16.152-101.462 0" style="mix-blend-mode:overlay"/><path fill="url(#f)" d="M208.991 191.297c-30.755 0-61.508-6.759-84.921-20.276-22.792-13.159-35.343-30.689-35.343-49.361s12.551-36.203 35.343-49.361c46.826-27.034 123.015-27.035 169.84 0 22.792 13.16 35.344 30.689 35.344 49.362s-12.552 36.202-35.343 49.36c-23.413 13.517-54.167 20.276-84.92 20.276m0-138.14c-30.546 0-61.091 6.713-84.344 20.139-22.421 12.944-34.768 30.12-34.768 48.364s12.347 35.424 34.768 48.364c46.508 26.851 122.181 26.851 168.689 0 22.42-12.945 34.768-30.119 34.768-48.363 0-18.243-12.348-35.424-34.768-48.365-23.256-13.425-53.801-20.138-84.346-20.138z" style="mix-blend-mode:overlay"/><path fill="url(#g)" d="M267.705 177.955c32.761-32.761 32.761-85.876 0-118.637-32.76-32.76-85.876-32.76-118.637 0-32.76 32.761-32.76 85.876 0 118.637 32.761 32.761 85.877 32.761 118.637 0"/><path fill="url(#h)" d="M142.528 123.224c18.315 10.575 42.374 15.862 66.433 15.862s48.117-5.287 66.433-15.862a70.3 70.3 0 0 0 16.654-12.969c.032-.496.076-.984.099-1.487a68.1 68.1 0 0 1-17.203 13.677c-36.382 21.005-95.583 21.005-131.967 0a66.4 66.4 0 0 1-18.438-15.103c.015.474.014.95.036 1.422a68.3 68.3 0 0 0 17.953 14.46" style="mix-blend-mode:soft-light"/><path fill="url(#i)" d="M153.922 182.442a78 78 0 0 0 2.198 1.815 201.85 201.85 0 0 0 103.833.536 90 90 0 0 0 2.296-1.843c-34.035 9.79-74.526 9.629-108.327-.508"/><g fill="#00ebff" opacity=".68" style="mix-blend-mode:overlay"><path d="M181.643 54.29c-.546.68-1.043.287-1.088.078a1.4 1.4 0 0 1 0-.328c-.262-.125-.342.252-.57.24a.1.1 0 0 1 .023-.042l.031-.04a.3.3 0 0 0 .032-.042l.031-.04.03-.041.032-.04.03-.04.029-.04c-.248-.091-.426.11-.644.153.139-.23.068-.25-.219-.188-.286.06-.358.044-.43.017q.107-.253.264-.479c.398-.036.398-.036.438.007.293-.161.293-.161.311-.16v-.047c-.036-.033-.087-.035-.123-.069.02-.053.047-.076.196-.198-.302.161-.356.137-.418.032a.24.24 0 0 0-.258-.121l.049-.057.051-.06.051-.057.05-.058.05-.058.05-.058.052-.058q.024-.029.051-.058c.283-.014.283-.014.372-.147.034.081.078.102.406.11.546.016.603.119.312.521.199-.085.42-.083.624-.148.029.328.453.391.485.718-.08.077-.187.118-.266.196a.18.18 0 0 0-.045.109c0 .163.14.328.007.488m2.391-.45a1.1 1.1 0 0 0-.286.484 1.9 1.9 0 0 1-.677.153c-.201.002-.396.06-.566.166-.092-.03-.109-.036-.122-.173s-.04-.136-.137-.157a.265.265 0 0 1 .248-.163c-.186-.094-.355-.437.328-1.033.805.176.836.183.788.48.328-.142.413-.027.498.163zm-7.187-.118a2.46 2.46 0 0 1-1.304.11 3.7 3.7 0 0 0-.656-.055 5.4 5.4 0 0 1 1.858-.582c.363.031.369.182.249.47-.045.017-.102.042-.146.057m-.526.417a.58.58 0 0 1-.58.234c.166.17-.305.575-.311.578l-1.108.156c-.297-.011-.335-.138-.35-.28l.056-.06.054-.06.055-.062.057-.06.055-.061.056-.061.056-.062.056-.061a4.1 4.1 0 0 1 1.772-.289q.103-.002.204.007zM171.9 58.17a.28.28 0 0 1-.193.074.17.17 0 0 1-.12-.053.2.2 0 0 1-.034-.056.2.2 0 0 1-.01-.066c.455-.053.383.07.373.084zm4.056-.746q.153-.196.273-.412c-.096-.17-.496-.328-.969.073-.078-.134-.328-.145-.286-.356l.535-1.027-.198.032a3.9 3.9 0 0 0-1.402.796c.048.124.328.11.257.269-.016.035-.076.087-.268.133a.41.41 0 0 0-.271.207c.245.043.31.131.271.36h-1.144c.203-.507.345-1.042-.566-.985.091-.204.259-.582-.608-.235-.322.128-.957.45-.959.453l-1.48 1.203c.271.283.271.283.531.198a3 3 0 0 1-.211.177c1.08.04 1.08.04 1.573-.411-.24.272-.24.272-.167.546a.84.84 0 0 0-.808.344c.13.642.912.403 2.285-.076a5.4 5.4 0 0 1 1.037-.297q.245.018.486.067c.36.006.721-.029 1.08-.038.321-.346.71-.623 1.009-.99m2.324-.401a.15.15 0 0 1-.065.053q-.065.016-.129.027a.15.15 0 0 1 .07-.06q.064-.018.13-.028v.008m.938-.336a.17.17 0 0 1-.091.028c-.192-.014-.241-.335-.029-.515l.051-.038a.4.4 0 0 0-.043.218c.018.11.103.188.124.293l-.012.01m1.093 1.081.025-.027.572-1.431a.3.3 0 0 0 .02-.117.3.3 0 0 0-.098-.21.3.3 0 0 0-.103-.058c-.311.162-.726.303-.663.131a.6.6 0 0 1 .096-.136 1.05 1.05 0 0 0-.513-.062q-.579.138-1.119.384c-.259.166-.31.494-.54.682.306-1.21-.709-.882-.721-.874a.9.9 0 0 0-.156.303 1.2 1.2 0 0 1-.328.554h.351c-.064.268-.124.521.133.656q.595.077 1.193.059a5.6 5.6 0 0 0-.426.8c.52.052 1.045.03 1.558-.069.062-.023.168-.038.202-.096.095-.165.068-.366.163-.531.119-.024.238.15.349.03m1.778.981a1.5 1.5 0 0 1-.936.183 1.8 1.8 0 0 1-.951-.547.9.9 0 0 1 .407-.364c.245-.15.245-.162.248-.256.286-.2.62-.32.969-.347.977.07.328 1.277.263 1.335m-3.739 3.667a1.49 1.49 0 0 1-1.39.705c-.733.663-.902.337-1.14-.296-.196-.524-.387-.865-1.079-.508.242-.35.258-.419.146-.602a.3.3 0 0 1-.059-.122.3.3 0 0 1 .004-.135c.076-.212.076-.212.99-.746-.109.237-.424.867.494.666.096-.191.137-.25.234-.279.019-.194.023-.218-.248-.333-.246-.102-.207-.19-.109-.424a1.07 1.07 0 0 0 .656-.457c.291.043.875-.309.875.102.088-.109.328-.418 1.299-.448h.05c-.115.23-.109.266.061.378a.2.2 0 0 1 .082.072.2.2 0 0 1 .028.104 3.1 3.1 0 0 1-1.164.832.2.2 0 0 1-.011.056c.083.099.214.03.305.09 0 .014.006.033.008.047.437-.328.437-.328.547-.279a11.5 11.5 0 0 1-.59 1.577m6.147 13.063c-.284.43-.964.977-1.581.62a.82.82 0 0 1 .289-.61 1 1 0 0 0 .219-.303.92.92 0 0 0 .642-.008q.123-.045.254-.059a.24.24 0 0 1 .175.36m2.101.429-.01.056q-.002.029-.01.058l-.008.057a.4.4 0 0 0-.01.057c0 .02-.008.038-.011.057l-.009.058c0 .019-.008.038-.011.057a.4.4 0 0 1-.01.058q-.002.029-.01.056l-.008.057a.4.4 0 0 0-.01.058c0 .02-.007.039-.011.058l-.009.058-.01.058c0 .019-.006.038-.008.058-.174.136-.389.042-.743-.11-.064-.248.044-.379.265-.533.116-.078.15-.11.076-.154.013-.094.049-.121.164-.127.131 0 .26.063.393.01 0 .02-.008.04-.01.058m63.926-.049c.202.447.159.605.138.68-.29-.09-.426-.362-.603-.902h.013c.139 0 .244.132.391.093zm-2.365 3.176c.08.264.011.656-.28.694h-.011c-.094-.128-.263-.183-.328-.338a.33.33 0 0 1-.026-.173.33.33 0 0 1 .068-.162c.069-.078.165-.128.218-.219a.3.3 0 0 0 .025-.19.6.6 0 0 1 .334.388m-.149 1.307c.028.145-.095.166-.218.087a.4.4 0 0 1-.125-.139.36.36 0 0 1-.037-.183.2.2 0 0 1 .051-.013c.164 0 .167.218.328.23zm-.023 5.532c.072.252-.062.294-.168.303h-.048a.3.3 0 0 0 .014-.173c-.011-.142-.02-.265.175-.219a1 1 0 0 1 .027.089m2.635-1.622a.4.4 0 0 1 .079-.025 1.58 1.58 0 0 0-1.39-1.254 1.6 1.6 0 0 1-.908-.462c.025.049.056.109.079.164.152.391.09.437-.218.423-.219-.014-.263 0-.328.062.128.314.018.682.227.984-.123.143-.123.143-.971.188h-.012l-.066.006c.074.196.08.218.058.328a.32.32 0 0 0-.01.195c.036.186.218.294.26.478.065.285-.064.582.05.864.091.225.375.037.486.218-.054.19.027.394-.065.58 0 0-.057.11-.266.074.288 1.03.648 1.203 1.604.782.523-.23.783-.328 1.01-.052-.277-.952.706-.684.716-.68a4.47 4.47 0 0 0-.707-2.486c.254.04.224-.286.382-.383m1.003-.14c.081.271-.057.523-.427.456-.209-.502-.159-.74.16-.765.068 0 .068 0 .123.059a.7.7 0 0 1 .144.254m15.494 17.416c.096.499.145 1.004.218 1.506-.353-.045-.612.71-.856.351 0 0-.042-.121-.188-.807a8.6 8.6 0 0 0-.547-1.896c.362.356.599-.167.607-.19-.163-.311-.402-.577-.546-.9a2.2 2.2 0 0 1-.219-.814c.019-.08.137-.133.205-.166.228-.1.25-.148.202-.416.546.428.463 1.699.462 1.713 0 .048-.041.116-.021.161q.306.472.553.978.077.236.125.48m-78.396 27.85a22.6 22.6 0 0 1-3.426.254c.016-.371.392-.535.5-.855-1.673-.343-2.97-1.64-4.701-1.823-.014-.2-.151-.369-.15-.574-1.04-.11-1.64 1.135-2.728.874.38-1.07 1.118-1.5 2.725-1.579 1.1-.046 2.18.3 3.05.976a.24.24 0 0 0 .117.031c.227.013.117-.395.337-.342.054.014.074.019.303.27.356.393.663.675 1.122.459.639 1.238 2.348 1.064 3.026 2.253-.052.019-.118.044-.171.06m3.85 2.028c0 .042 0 .14-.03.147-.031.008-.083-.159-.083-.161a.5.5 0 0 1 .058-.154c.03-.027.052.067.055.168m1.885-.027c0 .043 0 .141-.029.148s-.081-.159-.081-.161a.5.5 0 0 1 .056-.154c.031-.027.053.065.054.167m.656-.328a1.15 1.15 0 0 0-.262-.819c-1.12-.072-1.887-1.14-3.061-1.064a.82.82 0 0 0-.609.405c-1.015-.449-1.254-.555-1.337.163.172.109.423.094.523.32.101.227-.191.426-.193.426-.042.013-.042.013-.438-.183q.138.295.209.614a1 1 0 0 1-.168.377 1.13 1.13 0 0 0 1.462-.301c-.012.362.272.635.307.984.34-.138.718-.152 1.055-.301.246-.109.246-.109.271-.28.165.05.254.219.411.275.029-.389.151-.41.447-.367.271.039.384.013.478-.21v.564c.713-.044.713-.044.807-.012q.065-.291.08-.59m12.699-67.914a1 1 0 0 1-.144.163.6.6 0 0 1 .144-.163"/><path d="M209.099 65.1a.06.06 0 0 1-.009.036.06.06 0 0 1-.028.024 1 1 0 0 1-.146.038.07.07 0 0 1 .007-.042.1.1 0 0 1 .03-.03.7.7 0 0 1 .146-.033zm16.51-1.093c.018.051.057.203.033.219s-.11-.2-.11-.203 0-.076.023-.086.036.02.057.075m2.047-.667c.013.029.038.094.019.1-.018.005-.095-.11-.096-.11s-.018-.096 0-.109c.019-.013.056.053.081.12m2.041-1.094q.017.041-.006.06c-.034.027-.079.021-.117.035-.006-.013-.019-.044 0-.062.018-.019.08-.023.117-.04v.007m-.505-.49a1.5 1.5 0 0 1-.219-.153c.013 0 .219.15.219.152m-2.987-1.623c-.018.188-.137.21-.248.218-.189.006-.377-.031-.567-.025.237-.171.527-.252.818-.228v.035m.634.038a1 1 0 0 1 .027.087c-.109.024-.172-.037-.159-.07.005-.01.024-.015.035-.018-.094-.11-.385-.24-.389-.127a.3.3 0 0 0 .062.143c-.109-.03-.131-.17-.25-.18-.075-.186.006-.19.396-.203a.4.4 0 0 0 .135.19.44.44 0 0 1 .143.178m.928-1.624q.02.038 0 .056c-.012.012-.071.019-.109.032-.011-.021-.02-.044 0-.063.02-.018.069-.02.103-.033v.008m-7.632-10.464c-.016.08-.109.085-.218.084-.21-.005-.253.029-.273.11.108.091.199.203.266.328a.3.3 0 0 0-.109-.041c-.014 0-.02 0-.031.017a.1.1 0 0 1-.08.043.4.4 0 0 1-.063 0 .5.5 0 0 0-.158-.175.5.5 0 0 1-.159-.152.7.7 0 0 0 .288-.11.73.73 0 0 1 .537-.127v.028m5.248.577c-.506-.875-1.495-.385-2.175-.766.042.042.099.099.143.14-.619.36-.619.36-.738.656-.293-.077-.598-.014-.892-.08-.171.132-.171.132-.364.455a2.35 2.35 0 0 0-1.004-1.019.56.56 0 0 1 .116-.328c-.269-.368-.747-.41-1.075-.684-.03.048-.067.11-.094.164-.261 0-.518-.05-.78-.06a3 3 0 0 0-.278-.277c-.05-.026-.06-.025-.07-.025h-.224a14.6 14.6 0 0 0-2.406-.638q0 .017.006.032l.031.188c-2.077.143-2.077.143-2.467.307a2 2 0 0 1-.317-.244c-.11.206-.11.206-.497.335q.112.15.24.286a5.46 5.46 0 0 0-3.221.328v.25l.397.034a.65.65 0 0 0-.049.352q.184.072.348.18l-.139.11c.094.056.219.139.304.203a21 21 0 0 1-2.683-.564c-.024.065-.058.153-.081.218l.192.35c-.574.045-1.077-.328-1.651-.277-1.728.136-2.021.35-2.361.597l-.099-.169c-.261.142-.547.208-.817.328-.014.266.066.525.049.79a20.6 20.6 0 0 0-3.352 1.167c.255.566.255.566.268.582.288.058.585.062.874.012 0 .49 0 .594-.448.853-.562.322-1.252.139-1.816.451l-.05.258c-.451.24-.451.24-.558.617.444-.014.755.426 1.216.346.181.26.328.544.437.843-.923-.083-1.796-.159-1.858.604q.189.007.371.055c.016.057.034.134.05.192l-.219-.014a1.2 1.2 0 0 0-.125.328 1 1 0 0 1-.328-.07c-.018.055-.045.128-.062.184l.143.133c-.006.088-.015.202-.023.289 1.547.493 1.547.493 2.223.054.162.299.185.304.396.343.412-.297 1.043-.052 1.377-.547.679.296 1.55.12 2.064.821l.109-.148q.363.072.701.22c-.076.32.193.569.179.874.465-.006.554.14.656.31a2.4 2.4 0 0 0-.14.316c.031.044.069.1.097.145q.18-.03.363-.023-.106.157-.258.27l.062.182c.173.03.347.009.522.023q-.133.135-.246.288.173.036.338.1c.086.291.086.291.573.71h-.173q.031.207.09.408a5 5 0 0 0-.308.209c0 .06.006.143.009.203l.328.154a7 7 0 0 1-.179 1.214 1.123 1.123 0 0 0 1.843.15c.11.18.065.394.138.581.85.037.85.037.851.303-1.688.026-1.688.026-1.851.116.179.444.179.444.318.586-.359.13-.422.154-.418 1.012a1.876 1.876 0 0 0 2.432.144c-.014-.21-.12-.397-.154-.602q.169.07.351.098c-.027.134-.027.134.306.692-.102.301-.037.637-.199.926a8 8 0 0 1-.934-.092c-1.266 1.813-.574 2.592-.349 2.85-.196.132-.196.131-.248.971.153.02.294.092.399.203l1.759 3.15.233.035c.057.207.072.424.147.627.75.03.759.563.634 1.004.462.206.723.679 1.184.885-.168.755.914.709.925 1.36a2.447 2.447 0 0 1 3.061 1.084c-.008-.05-.016-.12-.023-.17.186-.09.186-.09.547-.07.138.37.138.37 1.22-.171-.119-1.193.418-2.386 0-3.579.195-.046.395-.068.591-.11.124-.498.392-.949.772-1.296-.243-.563.038-1.226-.343-1.761.465-.196.679-.726 1.183-.867a1.38 1.38 0 0 1 1.06.237 1.1 1.1 0 0 1 .062-.408c.732-.15 1.219-.775 1.927-.972.322-.724.715-1.416 1.171-2.065a3 3 0 0 1 .028-.53c2.666.27 4.373-1.34 5.624-2.514.063.09.152.158.255.196a3 3 0 0 0-.135-.908c-1.012.168-1.982-.419-2.998-.158q.302-.135.57-.328a3 3 0 0 0-.118-.438l.192-.052c.388.227.742.507 1.052.832h.091c1.068-.069 1.068-.069 1.326 0 .034-.062.078-.144.11-.207-.029-.065-.029-.065-.378-.7l.152-.096c-.192-.395-.616-.523-.926-.785l.11-.147c-.164-.134-.164-.134-1.977-.732.027.045.064.11.091.15-.309.1-.312.097-.547-.03l.177-.018a.64.64 0 0 0-.151-.377c.488.085.965.227 1.421.42l.032-.164.11-.036h.009a2.5 2.5 0 0 0-.609-.823 6 6 0 0 1-1.085-.036c-.17-.205-.282-.45-.472-.641l.081-.158c2.198.236 2.198.236 2.584.118-.21-.547-.235-.556-.642-.757.218-.13.457-.222.706-.27.11-.588.11-.588-.117-.807h-.037q-.32.02-.637-.04c-.683-1.337-.683-1.337-1.157-1.816-1.075.08-1.075.08-1.363-.102l.141-.091c-.172-.54-1.152-.753-.808-1.461l.171-.034c-.07-.219-.13-.405-.613-.621.16-.437-.244-.727-.3-1.109h.45a.95.95 0 0 1-.23-.334l.123-.206c-.117-.304-.117-.304-.411-.311l-.12-.18c.015-.052.031-.121.043-.172q.218.031.437.026c.101-.265.101-.265-.085-.656l.164-.055q.012-.195 0-.39a5 5 0 0 1-.32-.219c.262-.17.285-.155.518-.007a1.9 1.9 0 0 1-.064-.588q.209-.124.358-.319a2 2 0 0 0-.073-.284m-52.583 6.354c-.286.262-.437.252-.506.246a3 3 0 0 1-.507.672 1 1 0 0 1-.147.048 9 9 0 0 0-.58.277c-.311.157-.663.334-.699.226-.036-.107.211-.391.374-.584-.63.529-1.405.841-2.057 1.34 0-.074-.096-.11-.086-.183s.038-.115.139-.262c-.186.061-.27.25-.431.342.166-.328.015-.375-.621-.202.219-.205.328-.488.547-.691a.1.1 0 0 0-.019.055.34.34 0 0 0 .26-.094v-.039c.833-.293 1.638-.66 2.406-1.099.511-.204.765-.259 1.005-.074.219-.096.361-.334.632-.328.141.017.141.017.364.279l-.075.075M201.431 194c.011.027 0 .028-.006.03a.3.3 0 0 1-.097-.062c.006-.084.06-.028.071-.017a.2.2 0 0 1 .032.049m.168-.613c.006.012.021.052.008.055s-.059-.06-.06-.06-.006-.055.007-.061.032.028.045.066m-2.272-1.038c.01.026-.017.043-.07.044-.052.001-.109-.029-.069-.072l.054-.038c.024.012.075.039.085.066m-6.394-53.702a.1.1 0 0 1-.029.059.1.1 0 0 1-.057.034 1.7 1.7 0 0 1-.3.033.12.12 0 0 1 .027-.068.12.12 0 0 1 .061-.041 1.3 1.3 0 0 1 .299-.032zm-41.421-20.617c-.375-.218-.537-.678-.96-.845.115-.308.115-.308.048-1.284h.012c.109.014.146.051.219.177.073.125.154.218.388.129q-.005.386.067.765c.073.372.226.723.301 1.093-.023-.012-.053-.027-.076-.041m48.168-23.803c0 .038-.005.129-.034.135-.028.007-.071-.146-.071-.147a.5.5 0 0 1 .06-.145c.032-.024.047.063.045.157m-.867-1.283c-.217.064-.446.07-.667.02-.73-.077-.999-.05-1.202.125-.122-.623 1.523-.673 1.593-.674h.053c-.164.209-.109.32.242.514zm-56.46-15.787-.013.022-.013.022-.013.022-.013.022-.014.023-.013.02-.012.022-.013.022-.012.022-.013.022-.012.02-.013.023-.012.021-.012.022-.013.022c-.052-.034-.118.056-.154.11-.008-.023-.006-.042.026-.128.044-.12.064-.188-.06-.12a.54.54 0 0 1 .391-.206l-.012.023m16.515-6.6a.2.2 0 0 1-.103.077.7.7 0 0 1-.17.01.2.2 0 0 1 .1-.081 1 1 0 0 1 .182-.018zm7.454-3.044a.43.43 0 0 1-.179.138c-.071.03-.149.04-.225.03-.153-.01-.198.022-.23.269a1.7 1.7 0 0 0-1.135-.138c.102-.19.29-.314.375-.513.03.11.081.143.226.153q.221-.008.437-.061c.437-.088.637-.1.786.05l-.06.072m1.256-.298c-.129.199-.321.18-.507.141-.322-.066-.451-.047-.585.19 0-.287.226-.305.626-.31a.94.94 0 0 0 .502-.085zm4.46.226c-.089.14-.259.224-.284.41a.4.4 0 0 0-.079-.122l-.03-.03a.8.8 0 0 0-.358-.205.4.4 0 0 0-.134-.009c-.052.008-.096.04-.149.05-.11.016-.033-.101.036-.213.084-.143.142-.237.015-.21a.24.24 0 0 1 .127-.02c.164 0 .328.029.487.032a.9.9 0 0 0 .479-.1 3 3 0 0 1-.254.399q.058-.042.109-.091c.046.025.081.046.038.11m-6.972-.757q-.032.047-.066.093c-.078-.11-.099-.249-.196-.346a.35.35 0 0 0-.233-.083h-.008c.328-.199.647-.1.576.176a.7.7 0 0 1-.073.16m7.912-.962a.4.4 0 0 1-.092.109c-.076.062-.16.11-.238.173-.095-.022-.038-.085.11-.211a.8.8 0 0 0 .184-.194c.047.027.07.054.05.11l-.009.014m16.748-.231c-.011.043-.053.128-.099.133s-.046-.047-.053-.09c.124-.15.153-.134.157-.094a.2.2 0 0 1-.005.05m-24.221-2.261a.2.2 0 0 1-.07.058 1 1 0 0 1-.13.03.2.2 0 0 1 .076-.067 1 1 0 0 1 .129-.03v.009m.346-.087a.2.2 0 0 1-.072.057 1 1 0 0 1-.126.026.17.17 0 0 1 .074-.064 1 1 0 0 1 .13-.028zm24.354-1.514a.13.13 0 0 1-.099.088 2 2 0 0 1-.291 0c.071-.162.188-.219.402-.19a.4.4 0 0 1-.012.101m-23.775-.424c-.162.156-.258.176-.322.175h-.009a.5.5 0 0 1 .335-.185h.007zm18.937.321c-.013.031-.039.084-.074.087s-.051-.089-.053-.162c.136-.13.152-.065.152-.032a.3.3 0 0 1-.025.11m.247-.438c-.01.028-.036.09-.057.094s-.007-.11-.007-.11a.5.5 0 0 1 .077-.1q.022-.017.012.038l-.025.076m-12.494-.246c-.029-.009-.071-.24-.072-.243-.001-.002.012-.024.023-.03.054-.024.07.23.056.267v.005m55.543 96.385c.252-.833.252-.833-.256-2.745-2.777-.765-4.912-3.655-8.28-2.455a3.06 3.06 0 0 0-.962-1.134c-.646.031-.646.014-.646 0v-.33c-.717-.011-1.421-.199-2.141-.153a4.1 4.1 0 0 0-1.282-.835c-.148-.416-.343-.973-.488-1.391-.189-.089-.437-.209-.624-.299-.168-1.193-.937-2.18-1.158-3.354-4.775-.594-4.775-.594-8.596-3.535-.155.138-.362.321-.516.46a2.22 2.22 0 0 0-.714-1.231h-.027l.206-.701-.647-.233c-.127.162-.294.381-.421.547-.328-.307-.328-.307-2.257-1.039-.258.429-.627.78-1.068 1.017a3.5 3.5 0 0 0-2.898-.272l-.303-.815c-2.061-.78-2.061-.78-7.326.304-.346.852-.793 1.66-1.331 2.406l-6.688-2.406a3.44 3.44 0 0 1 1.373-.749c.069-.218.162-.507.234-.723a42 42 0 0 1-1.442-.627c.14-1.047 1.005-1.708 1.415-2.613-1.176-.715-1.176-.715-5.89-.892l.721-.437.076-.729-.63-.415a7 7 0 0 1-.109-1.574c-.01-.571.011-.571.032-.571h.454c.317-1.369.317-1.369-3.461-2.664-2.065 1.976-7.554 7.217-7.13-2.163.015-.307.715-4.552.72-4.555 2.165-1.552 4.763-.091 7.022-.984.514-.179.514-.233.514-.287v-1.125c1.5-.218 2.873 1.02 4.412.38 1.961 1.363.6 5.042 3.717 5.523.703-1.155 1.024-1.682.071-4.534-1.444-4.315 1.62-6.257 4.446-7.126 2.197-5.03 2.197-5.03 2.612-7.361 1.261-.334 2.405-1.005 3.687-1.277.11-.209.255-.491.364-.699-.102-.254-.124-.254-.146-.254h-.458c.015-1.226.02-1.516 2.523-2.733v.398a3.5 3.5 0 0 0 1.306-.558c.176 1.568.176 1.568 6.232-1.049h-.008c.852-.685.852-.685 1.018-2.012a4.2 4.2 0 0 0-1.327-.74c-1.394.962-1.394.962-3.395.241-.095-.205-.219-.48-.319-.688a17 17 0 0 1 1.629-1.64q.71 0 1.411-.109l-.028-.735.534-.468c.418.188.865.299 1.321.328a3.1 3.1 0 0 1 1.968-1.57l-.218.655c1.749-.483 1.749-.483 2.969-2.624-.984-.662-.785-2.296-2.167-2.635l-7.097-8.715c-1.253.582-1.591 2.078-2.779 2.734-.35-.255-.817-.596-1.167-.854.083-.196.193-.458.274-.656l-.452-.596c.049-.206.109-.478.165-.684a30 30 0 0 0-4.316-2.61l-.425-.614c-.109.182-.244.423-.349.605-2.843.11-3.209.118-2.966 2.228l-.592.353q-.003.704.109 1.399h.012c-.178.765-.573 1.471-.678 2.26 1.517.83 1.516 1.74 1.514 1.749-.044.275-.12.545-.226.802-.574 1.217-2.245 1.094-2.842 2.285-.547 1.106.752 2.18.06 3.288l-.766-.064a35 35 0 0 1-.796-4.276c-5.474-.41-5.26-2.536-5.052-4.592a69 69 0 0 1-1.473-.11c-.789 1.53-.789 1.53-1.616 1.9-.048-1.813-.048-1.813-1.136-2.617 4.232-4.138 4.232-4.138 4.365-4.19l.022-.087.024-.085.023-.087.022-.084.024-.085.023-.087.024-.085.022-.085c1.006-.644 2.16-1.024 3.127-1.736l-.232.749.661.19-.023.703c1.542-.285 1.85-.833 2.172-1.703.31.34.724.793 1.036 1.132.231.008.536.019.766.029.049-.21.109-.487.164-.695l-.69-.135c-.199-.83-.199-.83-1.363-1.488.304-.342.495-.769.547-1.223.723-.47 1.348-1.067 2.054-1.558a45 45 0 0 0-.267-1.546l.636-.318a2.1 2.1 0 0 0-.219-1.301l.666-.232c.847.438 1.921.017 2.699.708l.731-.09-.315.481h.012l.628.287c-1.288 1.275-1.288 1.275-1.389 1.59.755.336.755.336 2.706-.633l.536.496c-.082.175-.082.175-1.662 1.935l.063.692a4.9 4.9 0 0 1-2.269.318c-.367.36-.688.764-.956 1.203l.266.636.364-.089h.009l-.11.684c.298-.372.69-.656 1.135-.825l.153.69c2.695.635 5.314 4.857 8.045 2.071a22 22 0 0 0-.827-1.158c1.433.417 1.433.417 2.017.303.109-.408.218-.959.287-1.374a2.05 2.05 0 0 1-.609-1.196c-1.362-.503-1.345-1.013-1.322-1.786l.711-.069c1.216 1.272 1.216 1.272 1.617 1.422a15 15 0 0 0 2.098-1.846 19 19 0 0 0-.721-1.203l-.766.21-.029-.721a23 23 0 0 1-2.943-2.024l.695-.11c-.607-2.037-.607-2.037-3.876-3.04l.118-.678c-2.643-.11-4.328-2.677-7.013-2.67l-.405-.555h-.328c-3.499 1.271-3.499 1.271-4.765 4.164l.753.015c.153.084.131.084.109.084h-.461c-.04.228-.094.534-.133.765.61.47 1.093 1.08 1.749 1.495 0 .226-.01.529-.015.755l-.572.503c-.207.116-.23.116-.255.116h-.497a2.38 2.38 0 0 0-.724-1.406l-.318-.027a2.096 2.096 0 0 1-.692-2.5l-.555-.415c-.128-1.991 2.063-1.945 2.98-3.03.183-.243.181-.243.18-.243h-.018c-3.499-.473-3.499-.473-6.728 5.218-1.203.298-2.077 1.203-3.209 1.631l.311.61-.23.642-.706-.01-.179-.747c.277-.422.485-.887.616-1.376.501.035.516.005.53-.024q.021-.046.044-.088l.042-.088.043-.089.044-.088q.023-.044.043-.088t.044-.088c.014-.031.029-.057.041-.087q-.77-.51-1.449-1.138c1.193-2.859 1.193-2.859 1.827-3.552l-.555-.437c-.693.126-1.219.656-1.908.787-.426.648-.665 1.401-1.142 2.02q.155-.748.202-1.512l-.663-.251-.413.598c-.13-.166-.305-.388-.437-.553h-.701c.116-.463.109-.463.109-.463l-.686-.056c.13-.43.134-.887.009-1.318-.744-.01-1.28-.017-1.622-.547-1.218.138-1.218.138-4.857 3.39.109.5.096 1.02-.037 1.514.495-.091.495-.091 3.63-1.869-.288.36-.689.826-.998 1.168l.53.475-.715.46c.109.197.25.461.356.656.718-.016 1.432-.101 2.149-.11-.939.504-2.054.375-3.011.815.007.237.019.552.027.79-1.158-.018-1.968-1.186-3.197-.96l-.492-.49c-.146.15-.341.347-.486.497a3.65 3.65 0 0 1 .634-1.488 36 36 0 0 0-5.822 1.87c-.11-.179-.267-.42-.38-.6-1.115-.134-1.601-.693-2.778-2.042l.071-.759a7.7 7.7 0 0 0-1.145.752l-.174-.097c-4.831 3.678-4.831 3.678-5.863 6.07-.382.227-.361.2-.339.173l.063-.079.064-.08.063-.077.064-.079.063-.078.064-.08q.031-.036.063-.077c-.924.477-2.077 1.07-3.234 3.908l.437-.547.02.784c-1.591 1.08-1.591 1.08-4.681 7.127l.664.239c-.084.15-.084.15-3.717 4.63 1.101-.484 2.606-1.147 5.845-5.884l-.102.68a5.17 5.17 0 0 0 2.544-1.311l.456.577c2.145.085 1.875 2.907 1.87 2.935a11.3 11.3 0 0 0 .67 5.275c-.093.256-.093.256-.166 5.093 1.894 1.87.747 5.775.61 6.013-.035.06-3.509 6.13.649 14.636-.109.176-.241.412-.345.589l.468.56c.422.014.984.046 1.407.083 1.169 1.71 1.53 3.839 2.87 5.461a2.6 2.6 0 0 0-.386 1.388c2.064 1.87 2.064 1.87 2.121 3.263a21.4 21.4 0 0 1 2.172 2.215l.547-.415a2.05 2.05 0 0 0-1.179-1.763c-.252-1.513-1.196-2.816-1.35-4.361 1.605 2.462 3.616 4.64 5.115 7.178l.005.144c0 .048 0 .095.008.145l.005.143c0 .048.006.095.008.142l.008.143c.002.048 0 .096.006.143.007.047.006.097.008.144s0 .095.008.144c1.385 4.064 7.072 3.4 8.402 7.525l.673-.316c.086-.334.11-.334.136-.334h.538c.093.187.219.437.308.624 3.011.176 4.889 3.623 8.244 2.811.867.915 1.355 2.109 2.242 3.01-.038.219-.088.521-.125.742 1.07.033 1.325.041 3.21 1.298l.564-.511a2.97 2.97 0 0 0 1.979.925c.2-.427.35-.876.447-1.337l.75.04a7.6 7.6 0 0 1 1.704 4.747c-1.344 1.239-1.344 1.239-1.422 2.078-.034.022-3.222 2.267-.558 4.293-.454.413-1.213 1.109-.523 2.944.125.215.307.39.527.507a7.2 7.2 0 0 1 1.407 1.235l10.316 12.246c-.035 15.324-.035 15.324.978 16.856l.263-.752c.428 1.056.428 1.056-.349 2.734l.566.457c-.218 1.651 1.422 3.499 3.062 4.257.386.241.4.241.413.241h.301a2.245 2.245 0 0 0 2.666.08 7.24 7.24 0 0 1-2.321-2.2c.471-.579.63-1.362 1.231-1.859l-.017-.088-.02-.091-.019-.089-.019-.09-.018-.092-.017-.09a1 1 0 0 1-.02-.092l-.02-.089c-.236-.076-.546-.173-.789-.249l-.138-.683c.233-.091.547-.213.774-.306.15-1.203.15-1.203.933-1.799a3.7 3.7 0 0 1-1.033-.913q.766.026 1.53-.026c.11-.464.291-1.077.438-1.53 2.756-.053 3.061-.875 3.389-1.736a5 5 0 0 1-.479-1.444c4.447.476 7.065-5.53 7.093-5.591 1.258-2.952 4.794-2.934 6.693-5.053 2.059-2.296 2.781-7.231 2.811-7.854h.022l.679-.139c.984-1.813 3.035-2.851 3.666-4.927"/><path d="M138.216 80.651a6 6 0 0 1-.161.187q.075-.1.163-.19m47.285-24.232a.14.14 0 0 1-.057.052q-.065.015-.132.025a.12.12 0 0 1 .063-.06 1 1 0 0 1 .129-.025v.008m3.512-.087a.1.1 0 0 1-.051.049 1 1 0 0 1-.13.028.1.1 0 0 1 .021-.036.1.1 0 0 1 .035-.023 1 1 0 0 1 .129-.027v.009m-.328-3.187a.1.1 0 0 1-.053.045 1 1 0 0 1-.119.027.1.1 0 0 1 .057-.055.6.6 0 0 1 .12-.024v.007m.965-.312c-.01.019-.041.078-.059.082s.007-.089.008-.09a1 1 0 0 1 .073-.084q.016-.013.013.007a.3.3 0 0 1-.035.085m.3.089c-.064.059-.085.062-.095.064-.076-.012.109-.362.171-.471.085.044.065.098-.009.206-.064.09-.093.138-.047.18zm4.971.041c-.063.11-.14.019-.189-.04-.07-.086-.109-.124-.126-.05-.021-.02-.041-.039-.042-.11q.007-.137.033-.271c.06-.01.246-.04.317.063a.24.24 0 0 1 .038.136q0 .14-.031.276m2.753-1.483a.07.07 0 0 1-.04.046 1 1 0 0 1-.109.023.1.1 0 0 1 .013-.028.1.1 0 0 1 .024-.02.6.6 0 0 1 .116-.028v.007m-12.422.013c-.032.04-.045.041-.051.042-.029 0-.006-.09-.006-.09l.02-.017.022-.02q.07-.051.064-.01a.3.3 0 0 1-.049.095m7.247-.512q-.443.06-.875.175c-.07.169-.074.239-.017.298-.11.024-.18-.033-.288-.119a.64.64 0 0 0-.529-.175q.466-.138.894-.368c-.101.123-.088.14 0 .141h.009c.083 0 .101.011.066.079.085-.054.195-.062.263-.147.042.045.109.06.383.088a1 1 0 0 1 .101.015l-.016.013m.901-.268a1.25 1.25 0 0 1-.593.243.24.24 0 0 1-.109-.022.5.5 0 0 1 .16-.08l.022-.007c.109-.03.218-.04.328-.068a.6.6 0 0 0 .164-.067l.028-.01-.005.01m.53-.227a.4.4 0 0 1-.098.068c-.072.04-.097.056-.109.084-.096-.043-.058-.076.05-.136.068-.038.096-.056.11-.083.028.012.073.032.048.067m-6.8-.41a.2.2 0 0 1-.056.044 1 1 0 0 1-.11.02.14.14 0 0 1 .055-.044q.057-.016.115-.026l-.006.007m.237 0a.14.14 0 0 1-.058.041 1 1 0 0 1-.109.021.15.15 0 0 1 .057-.045 1 1 0 0 1 .117-.025l-.005.008m13.152-.57a.25.25 0 0 1-.165.071c-.087 0-.098-.045-.075-.065s.086-.042.254-.016zm2.331-1.079a.5.5 0 0 0 .021-.11c-.115-.12-.115-.12-.778-.124-.146-.259-.146-.259-.131-.385-.547.044-1.094-.065-1.64.027l.109-.044a9.4 9.4 0 0 0-2.118-.264 2.14 2.14 0 0 0-.972.286 4.6 4.6 0 0 0-2.908.152.38.38 0 0 0-.439.059.4.4 0 0 0-.089.129l-.045.01c-.472-.065-.425.53-.752.665-.01-.01-.964-.913-1.375-.143-.357-.073-.546.235-.827.349l-.017-.132c-.352-.235-1.081.249-1.112.27-.5-.194-1.194.265-1.395.41.255.235.499-.092.752-.01a.64.64 0 0 0-.437.218.44.44 0 0 0 .208.074c-.085.17-.373.267-.256.508a.7.7 0 0 0 .247 0c.168.688.853.467 1.138.34-.109.141-.08.188.02.291.199-.046.316-.23.503-.295-.094.218-.094.218 0 .37a1.4 1.4 0 0 1-.668 0c-.273.306-.228.848-.744.97.158-.15.219-.368.363-.528l-.141-.02c-.017-.182.054-.356.052-.536-.438.042-.438.042-.783.41a.67.67 0 0 1 .192-.514 1.4 1.4 0 0 0-.571-.012c-.398-1.004-.398-1.004-.547-1.064-.487-.197-.674.375-1.069.411-.676.06-.984.72-1.572.935a1.2 1.2 0 0 1-.109.224h-.115c-.328.408-.308.51-.269.691l.193.062q-.164.132-.282.305c.129.162.129.162 1.53.084-.357.255-.852.212-1.177.538.07.352.07.351.117.438q.144.045.295.044a.53.53 0 0 0-.194.328 1.7 1.7 0 0 0 1.763.138c.014.032.028.074.04.11l.133.052a2.6 2.6 0 0 0 .445-.315c.437.099.585-.372.924-.465-.527.517-.527.517-.617.799.973.378.973.378.632.731.203-.546-.507-.644-.932-.462-.337.145-.656.283-.297.89-.478.277-1.064.272-1.531.574a.5.5 0 0 0-.057-.236c-.205.134-.464.187-.617.4-.421-.234-.796.097-1.203.095-.417-.619-.555-.827-1.949-.533a1.3 1.3 0 0 1-.336.421c.547.667.748.917 1.832.608-.032.151-.032.151.11.782-.258.232-.258.232-.701 1.063h.155c.019.132.019.132-.065.45 1.878.033 1.878.033 2.146-.177a.93.93 0 0 0-.199.45q.993.05 1.98-.07c.546-.156.967-1.15 1.559-.626.015.15-.024.3-.109.423.23.178.23.178 1.858.08.297-.382.558-.79.863-1.164-.96-.991-2.849-.656-4.179-.07a1.75 1.75 0 0 0-1.559-.175c.042-.066.042-.066-.046-.698.258.069.368-.037.559-.39.884.082 1.77.118 2.651.218a.8.8 0 0 1 .448-.34c.342.406.691.336 1.654.077-.089.117-.19.226-.277.346a11.3 11.3 0 0 0 2.268-.528.94.94 0 0 0 .168-.765.78.78 0 0 0-.526.146c-.109-.238-.092-.258.005-.392.642.083.726-.562 1.1-.828.637.151 1.076-.334 1.615-.497.089-.29.337-.474.492-.72a3 3 0 0 0-.188-.237c.311-.266.311-.266.206-.546a.6.6 0 0 1 .208-.082l.048-.099a.7.7 0 0 1-.11-.2c.625-.426 1.329.153 1.962-.155.786-.385 1.278-1.174 2.106-1.502q.133-.045.273-.07a2.8 2.8 0 0 0 1.442-.733c-.015-.033-.035-.075-.049-.11a1 1 0 0 0-.345-.012c.629-.274 1.303-.42 1.943-.656a2 2 0 0 1 .11-.416m57.256 10.931c.036.034.047.048.056.056s.009.025.016.037a1 1 0 0 1-.066-.065c-.008-.01-.008-.024-.015-.035zm-2.234-2.122.06.054.024.035a1 1 0 0 1-.068-.06c-.009-.01-.013-.025-.023-.037zm-.412-.348q.039.03.07.065c.01.01.009.014.008.016v.01a1 1 0 0 1-.077-.07c-.011-.012-.009-.015-.008-.018v-.011l.009.008m-.941-.859.047.037a.03.03 0 0 1 .014.013 2 2 0 0 1-.218-.172c.012 0 .162.121.163.122m-4.005-3.235-1.588-1.07.027.02a22 22 0 0 1 2.056 1.577l-.119-.07c.997.809 1.602 1.295 1.796 1.445-.014-.014-.033-.03-.045-.045.172.11.328.242.497.357l-.052-.038q.063.038.122.083l-.052-.008.016.05a.8.8 0 0 1-.209-.119c1.048.831 1.978 1.799 3.023 2.636a.4.4 0 0 1-.109-.049q.803.871 1.728 1.61a2 2 0 0 0-.177-.166c.156.083.253.239.4.335a1 1 0 0 1-.085-.11c.656.103.926.766 1.473 1.03-.022-.078-.022-.078-.202-.262q.191.179.417.31c-.045-.094-.045-.094-.239-.287l-.053.011c-1.945-1.673-3.827-3.413-5.834-5.017l.048.03a4 4 0 0 0-.465-.393l.046.034a4 4 0 0 0-.152-.125l.203.14c-2.048-1.624-2.048-1.624-2.469-1.911m23.196 107.386.025-.076c-.155.061-.234.308-.314.452-1.106 1.934-3.771 5.603-3.796 5.636a14 14 0 0 1-2.763 3.161c.027-.15 1.754-2.882 1.772-2.906.688-1.009 1.554-1.892 2.172-2.952a13.8 13.8 0 0 1 2.296-3.28 17.6 17.6 0 0 0 2.569-3.95 25.4 25.4 0 0 1-1.962 3.947q-.002-.015.006-.029m-3.43-58.07a2 2 0 0 0-.081-.186l.045.102a1 1 0 0 0 .035.078m-.082-.19-.049-.094.044.089m-.06-.109.012.02a2 2 0 0 0-.28-.413c0 .023.024.053.09.134q.099.121.181.254m-19.072-13.881c.018.098-.041.08-.11.059-.127-.04-.163-.017-.109.193a.1.1 0 0 1-.073-.042l-.008-.012c-.061-.075-.078-.172-.13-.25-.038-.055-.076-.062-.089-.062-.041 0-.109-.087-.109-.095s.034-.008.144.025c.236.071.359.082.438.037a1 1 0 0 1 .049.147m-1.056-1.166c.048.163 0 .284-.138.208l-.015-.009v-.015l-.006-.017v-.014l-.005-.015v-.015l-.006-.017v-.015l-.005-.015v-.017l-.006-.014-.005-.015-.006-.017v-.03l-.005-.016-.006-.015h.03c.045-.009.049-.03.028-.131.077-.025.145.075.175.178m4.901-.4a1.035 1.035 0 0 0-1.321-.94 143 143 0 0 1-1.184-1.798c-.262.118-1.297-.461-1.432-1.518.246.205.169.836.601.727q-.016-.51.034-1.02c-.358-.063-.721.042-1.078-.027a1.5 1.5 0 0 1-.766-.328c.11-1.668.11-1.668-.133-1.95-.14-.163-.656-.083-.822-.058a1.1 1.1 0 0 1-.832-.068c.463-.207.451-.666-.041-1.444-.023.033-.05.076-.072.11-.264.352-.497.48-1.246.34.026.486-.11.962-.086 1.45a.33.33 0 0 0-.358-.078.34.34 0 0 0-.216.297c0 .085 0 .085.893.856-.297.297.088.82.402 1.08-.581-.066-.175.621-.17.628a.3.3 0 0 0 .089.069c.173.099.379-.011.552.085.143.08.08.3.248.364.096.036.179-.042.232-.093.084-.078.095-.075.169-.052q.034.267.024.536a1.34 1.34 0 0 0 1.249.065q.043.17.121.328c.199.31.581.422.793.717.11.152 0 .338.076.495-.274.133-.274.133-1.064.072.044.696.048.766-.382.656q.358.917.598 1.871c.481.124.481.124.576.219l.033.11.035.108.033.11.034.11q.016.055.035.108.014.056.033.11l.033.11.034.109c-.12.218-.386.287-.494.511-.096.206-.08.273-.014.559.184-.063.318.085.484.11.496-.562.572-.648 1.244-.48-.11-1.137 1.53-.505 1.546-.498.423-.407.656-.594.958-.07.041-.218.09-.289.449-.444.219-.094.299-.13.311-.903-.182-.12-.437-.055-.6-.219a1.02 1.02 0 0 0 .387-1.038"/><path d="M263.969 81.613s0 .055-.006.05a.2.2 0 0 1-.018-.05zm23.289 33.616-.007-.01v.033-.024m-2.296-13.961c.361 1.658.408 1.872.267 2.008-.06 0-.116-.049-.306-.374-.191-.324-.189-.328-.244-.413-.043-.065-.109-.109-.139-.184l-.241-.951c-.02-.109.015-.21 0-.315-.047-.318-.129-.629-.187-.945.11-.135.089-.595.278-.438.311.254.1.704.373.971a.13.13 0 0 0 .015-.067c.069.227.103.341.186.71m-8.919-.739a.6.6 0 0 0 .036.366c.104.291.164.597.178.906-.12-.16-.233-.122-.482.008-.319.168-.428.082-.509-.394a.26.26 0 0 0 .179.066c.205-.064.218-.268.283-1.24.143.033.168.352.32.241 0 .014 0 .033-.005.047m8.2-2.311a2 2 0 0 1-.15-.249 5 5 0 0 1-.155-.501c-.026-.099-.036-.116-.053-.126-.016-.01 0-.025 0-.03q.206.452.336.933l-.008-.013m-15.067-1.203.018.089a.2.2 0 0 1-.085.025c-.128 0-.195-.073-.312-.242s-.19-.251-.312-.253c.232-.243.547-.229.691.381m-.777-.656c-.11-.084-.219-.162-.323-.242.01.01.025.022.036.031l.219.162.069.05m13.613-4.593c.086.244.157.492.24.738a.5.5 0 0 0-.132-.14c-.06.072-.067.079.019.556.085.476.081.515.055.649q.022.058.04.116l.04.11c.014.033.025.076.039.115l.038.11.039.109.038.116q.021.056.039.116l.038.109c.099.219.127.225.177.228a38 38 0 0 1 1.464 3.87c-.079.065-.079.065-.067.63-.185-.695-.25-.733-.367-.746a16 16 0 0 0-.161-.471l-.085-.208c-.187-.45-.444-.867-.649-1.312a14 14 0 0 0-.597-1.7 2.63 2.63 0 0 1-.461-1.938 9 9 0 0 1-.156-1.242c.029-.497.238-.277.24-.275a4 4 0 0 1 .174.437m-3.411.547q.053.417.158.824a1.6 1.6 0 0 0-.407-.06.2.2 0 0 0-.152.16c-.2-.68-.128-.78.028-.912a.4.4 0 0 0 .159-.358.5.5 0 0 1 .218.346m-14.435-9.607a.32.32 0 0 1 .006.278.31.31 0 0 0-.006.255c-.079.046-.121-.056-.184-.228-.062-.173-.109-.292-.181-.239 0-.04 0-.094.036-.109a.14.14 0 0 1 .084.012q.048.021.101.017c.046-.006.068-.027.097-.084q.025.047.047.096m2.604-4.306q.056.114.094.236c.042.13.068.265.11.396a2.2 2.2 0 0 0-.488-.527 2 2 0 0 1-.378-.369s-.011-.128.109-.109.328.199.306.056c.108.082.194.19.251.313m-1.501-2.489c.025.047.016.064.014.069-.013.028-.048.027-.067.048a.12.12 0 0 1-.022-.082c0-.015.023-.022.038-.028a.1.1 0 0 0 .031-.017zm1.572-.81c.013.11-.022.119-.033.121-.074 0-.182-.162-.15-.197.032-.034.144.037.182.058zm-.006.598a1 1 0 0 0-.663-.16c-.043-.16-.068-.202-.137-.225-.042-.136-.056-.273.173-.271a.37.37 0 0 1-.015.25q.049.076.128.118.08.04.17.035c.14.007.218.043.344.253m-.977-6.327a3 3 0 0 1-.195-.166c.015.008.195.166.195.166m-5.261-.737c.364.522.247.69.177.793q.161.138.284.313c-.204.384-.242.453.143 1.145h-.036l-.034.005h-.073l-.035.006h-.109a1.14 1.14 0 0 0-.175-.73c-.297-.583-.711-1.093-1.035-1.661a.68.68 0 0 1 .893.11m4.154-1.716a3.6 3.6 0 0 0 1.129 1.38 1.8 1.8 0 0 1-.493-.22c-.576-.291-.674-.302-.759-.254-.031.147.144.396.813 1.159v.012a4 4 0 0 1-.487-.167 7.6 7.6 0 0 1-.843-1.013 4.8 4.8 0 0 0-.943-1.045c.197.004.391.047.571.127.596.198.962.3.984-.06.011.024.027.053.037.076m-5.96-3.092q.087.092.155.2a2 2 0 0 1-.193-.2.4.4 0 0 1-.051-.088s.014 0 .088.09m11.889 6.1c-2.23-2.655-5.309-6.114-7.723-8.605l-.031-.03-.556-.53a25 25 0 0 1 1.53 2.101l-.479-.452-.275-.276a7.3 7.3 0 0 0 1.649 2.843 2.64 2.64 0 0 1-.962-.85c-.366-.167-.38-.182-.395-.2l-.047-.048q-.025-.024-.047-.05l-.046-.05-.046-.049-.047-.048-.046-.049-.046-.048-.467-.532a6.03 6.03 0 0 0 2.133 2.68l-.213.573c-2.126-3.139-8.974-6.123-10.668-5.82-.064.402-.168.935-.259 1.332l-.567.202c-.342 2.384-.342 2.384-.249 2.57-.066.189-.154.437-.219.626.116.154.267.357.379.51l.63-.053c.283.978.616 1.938.908 2.91l.032.284c-.086.669.054 1.345-.059 2.015-.176.075-.406.178-.581.255-.581 6.25 2.211 7.815 3.927 8.193.198.314.46.735.656 1.05a2.97 2.97 0 0 1 .923-2.316 50 50 0 0 0 4.216 3.45l.393.1c.149-.17.348-.396.498-.564-.251-1.893-1.788-3.524-1.149-5.596-2.634-2.063-2.634-2.063-2.317-3.663 3.799 4.263 3.799 4.263 4.165 4.363-.218.47-.586 1.255 1.531 5.55l-.637-.012c-.283.33-.645.583-1.052.737-.065.186-.153.437-.219.62-.972-.849-2.115-1.467-3.112-2.279l-.243.24a9.5 9.5 0 0 1-1.482-2.131 1.695 1.695 0 0 0-1.039 1.985l-.065.226h-.005c.52 1.073 1.242 2.033 1.755 3.109l-.487-.482q-.706.935-1.513 1.784c-.129.404-.151.406-.174.408l-.067.005-.067.006h-.201l-.068.005H258q.186.63.476 1.221c-.288.6-.997.928-1.093 1.654.017.197.038.461.057.656l-.602.179-.096.67a13 13 0 0 0-1.256-.233c-.053.427.029.86.235 1.238-1.796-.182-1.96.116-2.285.705.752 1.876 3.062 2.27 3.922 4.046l-.56.365.599.248q.104.647.089 1.302c-5.629.656-5.629.656-5.965.9.437 1.842.437 1.842.304 2.562l.588.158a2.4 2.4 0 0 0-.438 1.082c.116.142.274.328.393.473-.141 1.312.613 2.472.684 3.751.619-.033 1.236-.081 1.859-.117q.365.503.808.938c4.734-.608 4.837-2.522 5.045-6.336 1.878-.94 1.7-1.345 1.107-2.687.835-.233 1.712.079 2.543-.206l.196-.698a1.77 1.77 0 0 0 .789-.883 2.1 2.1 0 0 1 1.176 1.804c2.624-.25 4.625 4.391 4.637 4.439-.54.523-.596.578-1.674.519l-.167.964c.23.299.23.299 1.8 1.4.46-1.484.609-3.047.438-4.592l.289-.522c-.423-1.325-2.057-1.824-2.283-3.28a6.7 6.7 0 0 1 2.26 1.33c-.04.327-.074.777-.078 1.11.198.437.444 1.035.615 1.486.037-.206.088-.479.124-.683.967 2.019 2.437 3.785 3.1 5.96.134-1.099.424-2.173.862-3.19l.127-.08a5.6 5.6 0 0 1-.211-2.388l.248-.182.051-.781c-.029-1.615-.029-1.615-.328-6.766l.593.126a10 10 0 0 0 1.04 1.71q.503-.44.931-.952 1.09 1.062 2.018 2.268c-.035.42.063.84.28 1.202-.038.176-.089.408-.129.583-.82-.128-.984-.154-1.762-1.058a1.83 1.83 0 0 0-1.367 1.47l-.404-.567c-1.136 1.219-1.136 1.219.466 7.872.138-.131.321-.307.459-.437l.592.336c.035.175.083.409.12.583.092-.418.203-.984.268-1.403.376.24.814.363 1.259.354l.151-.707c.012.018 1.188 1.749.298 3.164.351.527.547.817.238 2.638-1.094-.23-1.094-.23-1.611-.778-.026.393-.08.915-.132 1.305a8.3 8.3 0 0 0-1.796-.469c-.098-.159-.231-.372-.327-.532l-.615-.019c-.219-.264-.219-.264-.855-1.886-.26.403-.26.403-1.401 4.388a2.69 2.69 0 0 0-2.023-1.076 7.8 7.8 0 0 0-.732-1.923l-.53.34-.599-.163a4.3 4.3 0 0 0-.454-1.23l-.596-.134c-2.148-4.008-2.148-4.008-2.997-2.985-.884-.236-1.709.371-2.588.176l-.261.008-.287.03-.025.008-.087.017-.328.084c-.588.207-1.161.454-1.756.644a2.9 2.9 0 0 0-.84.154l-.041.038-8.124 5.794c-.025.668.245 1.312.173 1.984l-.566.228c.049.196.109.457.16.656l.568.267c-.751 1.203-2.282 1.724-2.774 3.147-.376.218-.375.247-.375.276v.631c-1.363 1.415-1.96 2.414-2.829 7.341 2.104 2.021.088 4.982-.772 6.246.656.956.656.956.354 1.72.401.794.401.794.437 2.644.404.178.843.262 1.284.248 1.394 1.438 1.394 1.438 1.454 2.285-.161.127-.376.293-.538.42-.373-.328-.377-.301-.38-.267l-.01.099c0 .034-.008.067-.012.1q-.007.05-.009.101l-.011.099q-.006.05-.01.102c-.002.034-.009.066-.011.1l-.013.101a9.3 9.3 0 0 1 2.472 1.169c0 .206-.01.485-.013.691 4.5 2.799 8.316-.928 12.485-1.286.568.577.547 1.478 1.136 2.043l.609-.04.119.62c.118-.138.271-.321.388-.456l.198.586.607-.06q.062.353.068.713c-.121 1.496-1.458 2.514-1.599 4.007-.161 1.7.934 3.209.758 4.911-.054.511-.31 1.158-.396 1.662-.404 2.332-.793 2.793-1.385 3.491-.06.07-9.194 19.024-9.22 19.133a9.62 9.62 0 0 0 5.77-2.724h.007c4.172-3.092 6.731-7.609 10.177-11.344a36 36 0 0 1-.64 1.446 18.4 18.4 0 0 0 2.393-3.16l.065-.18h.009c5.804-5.605 6.291-13.968 10.695-20.299l.19-.229c.05-.208.119-.483.172-.69-.064.166-.149.387-.21.553l-.035.038c.729-3.142 1.952-6.159 2.405-9.367q-.597.863-1.346 1.601a5.5 5.5 0 0 1-.25-2.336 26 26 0 0 1 .049-3.28l-.521-.41c.006-.401.012-.933.013-1.334l.037-.524c-.022-.044-.022-.044-1.665-10.187 1.593 1.721 1.806 6.287 2.274 16.291l-.035.345c1.773-1.749 2.786-4.733 3.011-8.883l.008-.008.006-.006.006-.009.008-.008v-.008l.006-.007.005-.007v-.007c.268-2.506.2-5.035-.202-7.523a4 4 0 0 1-.314 2.067 5.3 5.3 0 0 0-.037-1.203c-.244-.376-.245-.424-.248-.472s0-.096-.007-.144c-.006-.049 0-.097 0-.145q.001-.072-.006-.144c-.007-.048-.006-.096-.007-.144l-.009-.144q.001-.073-.006-.145l-.009-.143a8 8 0 0 1-.465-2.187 13.7 13.7 0 0 1 1.312 3.702c-.179-3.783-.674-8.818-1.227-12.566-1.93-8.357-1.93-8.357-3.39-12.369-3.193-7.83-3.193-7.83-5.226-11.493-4.014-6.627-4.631-7.646-6.898-10.452"/></g></g><defs><linearGradient id="b" x1="210.207" x2="206.349" y1="85.017" y2="246.119" gradientUnits="userSpaceOnUse"><stop stop-color="#fff" stop-opacity="0"/><stop offset="1" stop-color="#0190ca"/></linearGradient><linearGradient id="c" x1="188.479" x2="167.841" y1="140.821" y2="10.476" gradientUnits="userSpaceOnUse"><stop stop-color="#fff"/><stop offset="1" stop-color="#7cc6e4"/></linearGradient><linearGradient id="d" x1="298.327" x2="287.355" y1="218.521" y2="149.849" gradientUnits="userSpaceOnUse"><stop stop-color="#fff"/><stop offset="1" stop-color="#7cc6e4"/></linearGradient><linearGradient id="e" x1="283.909" x2="267.831" y1="215.176" y2="114.174" gradientUnits="userSpaceOnUse"><stop stop-color="#fff"/><stop offset="1" stop-color="#7cc6e4"/></linearGradient><linearGradient id="f" x1="233.524" x2="207.235" y1="190.183" y2="23.614" gradientUnits="userSpaceOnUse"><stop stop-color="#fff"/><stop offset="1" stop-color="#7cc6e4"/></linearGradient><linearGradient id="g" x1="149.068" x2="267.705" y1="177.955" y2="59.318" gradientUnits="userSpaceOnUse"><stop stop-color="#ffc610"/><stop offset=".227" stop-color="#ffd431"/><stop offset=".574" stop-color="#ffe85d"/><stop offset=".844" stop-color="#fff479"/><stop offset="1" stop-color="#fff984"/></linearGradient><linearGradient id="h" x1="199.628" x2="197.507" y1="135.468" y2="10.2" gradientUnits="userSpaceOnUse"><stop stop-color="#fff"/><stop offset="1" stop-color="#7cc6e4"/></linearGradient><linearGradient id="i" x1="262.574" x2="262.07" y1="176.521" y2="17.381" gradientUnits="userSpaceOnUse"><stop stop-color="#fff"/><stop offset="1" stop-color="#7cc6e4"/></linearGradient><filter id="a" width="417.961" height="378.357" x="0" y="30.123" color-interpolation-filters="sRGB" filterUnits="userSpaceOnUse"><feFlood flood-opacity="0" result="BackgroundImageFix"/><feColorMatrix in="SourceAlpha" result="hardAlpha" values="0 0 0 0 0 0 0 0 0 0 0 0 0 0 0 0 0 0 127 0"/><feOffset dy="4"/><feGaussianBlur stdDeviation="2"/><feComposite in2="hardAlpha" operator="out"/><feColorMatrix values="0 0 0 0 0 0 0 0 0 0 0 0 0 0 0 0 0 0 0.25 0"/><feBlend in2="BackgroundImageFix" result="effect1_dropShadow_9_32815"/><feBlend in="SourceGraphic" in2="effect1_dropShadow_9_32815" result="shape"/></filter></defs></svg>