<svg width="358" height="366" viewBox="0 0 358 366" fill="none" xmlns="http://www.w3.org/2000/svg">
<path opacity="0.15" d="M179 366C277.86 366 358.001 317.576 358.001 257.843C358.001 198.109 277.86 149.686 179 149.686C80.1412 149.686 0 198.109 0 257.843C0 317.576 80.1412 366 179 366Z" fill="#030C60"/>
<path d="M290.395 270.858C228.874 308.029 129.127 308.029 67.6065 270.858C36.9396 252.329 21.5679 228.061 21.4734 203.775H21.4648V248.697V250.565H21.5384C22.3022 274.299 37.6318 297.893 67.6065 316.005C129.127 353.175 228.874 353.175 290.395 316.005C320.375 297.894 335.696 274.299 336.462 250.565H336.536V203.551C336.536 227.911 321.156 252.272 290.395 270.858Z" fill="#333C5E"/>
<g style="mix-blend-mode:soft-light">
<path d="M290.395 286.122C228.873 323.292 129.127 323.292 67.6056 286.122C37.6318 268.01 22.305 244.416 21.5384 220.682H21.4648V249.884V251.751V237.974H21.4734C21.5689 262.255 36.9406 286.527 67.6056 305.057C129.127 342.227 228.873 342.227 290.395 305.057C321.156 286.471 336.536 262.11 336.536 237.749V220.682H336.462C335.696 244.416 320.37 268.011 290.395 286.122Z" fill="white"/>
</g>
<path d="M336.525 203.276C336.409 179.007 321.039 154.759 290.394 136.243C228.872 99.0726 129.126 99.0726 67.6052 136.243C36.7502 154.886 21.3786 179.34 21.4731 203.775C21.5686 228.061 36.9402 252.329 67.6062 270.858C129.127 308.029 228.874 308.029 290.395 270.858C321.155 252.273 336.536 227.911 336.536 203.551C336.536 203.46 336.525 203.368 336.525 203.276Z" fill="#333C5E"/>
<g style="mix-blend-mode:overlay">
<path d="M311.853 203.32C311.757 182.852 298.793 162.403 272.948 146.786C221.063 115.436 136.94 115.435 85.0514 146.786C59.0294 162.51 46.0647 183.133 46.1449 203.741C46.2241 224.225 59.1889 244.691 85.0524 260.317C136.938 291.669 221.06 291.669 272.949 260.317C298.892 244.642 311.863 224.097 311.863 203.551C311.861 203.475 311.854 203.397 311.853 203.32Z" fill="white"/>
</g>
<g style="mix-blend-mode:overlay">
<path d="M290.23 291.081C289.724 291.387 289.194 291.668 288.684 291.969V302.555C289.194 302.255 289.724 301.972 290.23 301.668C300.386 295.71 309.635 288.199 317.672 279.383V268.766C309.635 277.59 300.386 285.111 290.23 291.081Z" fill="white"/>
<path d="M255.688 306.861V317.453C265.674 314.125 275.372 309.913 284.675 304.863V294.271C275.372 299.322 265.674 303.534 255.688 306.861Z" fill="white"/>
<path d="M222.688 315.202V325.793C232.482 324.102 242.164 321.761 251.675 318.784V308.192C242.164 311.169 232.482 313.51 222.688 315.202Z" fill="white"/>
</g>
<g style="mix-blend-mode:overlay">
<path d="M69.8246 291.573C70.3306 291.879 70.8595 292.161 71.3703 292.461V303.047C70.8595 302.747 70.3306 302.465 69.8246 302.16C59.6686 296.2 50.4195 288.688 42.3828 279.87V269.257C50.4193 278.082 59.6682 285.603 69.8246 291.573Z" fill="white"/>
<path d="M104.366 307.352V317.943C94.3801 314.615 84.6826 310.403 75.3789 305.353V294.764C84.6824 299.813 94.38 304.024 104.366 307.352Z" fill="white"/>
<path d="M137.363 315.693V326.285C127.569 324.593 117.886 322.252 108.375 319.275V308.684C117.886 311.66 127.569 314.002 137.363 315.693Z" fill="white"/>
</g>
<g style="mix-blend-mode:overlay">
<path d="M271.98 203.493V203.553C271.98 217.931 262.901 232.31 244.751 243.281C228.214 253.263 206.999 258.709 185.355 259.598H185.269C184.668 259.628 184.066 259.648 183.465 259.668C181.985 259.708 180.495 259.728 179.006 259.728C177.516 259.728 176.027 259.708 174.547 259.668C173.879 259.648 173.22 259.628 172.552 259.588H172.456C150.898 258.669 129.74 253.233 113.251 243.271C95.1587 232.34 86.079 218.021 86.0312 203.683V203.543C86.0312 189.174 95.1015 174.795 113.251 163.824C149.561 141.882 208.432 141.882 244.751 163.824C262.834 174.755 271.904 189.064 271.971 203.393C271.97 203.426 271.973 203.46 271.98 203.493Z" fill="white"/>
</g>
<path style="mix-blend-mode:lighten" opacity="0.6" d="M262.432 49.541V214.473C262.432 220.951 254.292 227.428 238.019 232.37C223.193 236.867 204.173 239.321 184.766 239.72H184.689C184.124 239.72 183.584 239.72 183.071 239.738C181.743 239.765 180.409 239.779 179.073 239.779C177.737 239.779 176.4 239.765 175.075 239.738C174.493 239.729 173.894 239.72 173.286 239.715H173.2C153.871 239.302 134.902 236.853 120.116 232.365C103.894 227.441 95.7539 220.99 95.7109 214.531V49.541H262.432Z" fill="url(#paint0_linear_712_7700)"/>
<g style="mix-blend-mode:overlay">
<path d="M179.006 127.103C157.996 127.103 136.987 122.271 120.993 112.606C105.422 103.199 96.8477 90.6659 96.8477 77.3165C96.8477 63.967 105.422 51.437 120.993 42.0254C152.977 22.6978 205.03 22.6968 237.018 42.0254C252.588 51.439 261.163 63.972 261.163 77.3215C261.163 90.6709 252.588 103.201 237.018 112.611C221.024 122.276 200.015 127.103 179.006 127.103ZM179.006 28.3403C158.139 28.3403 137.272 33.1365 121.387 42.7389C106.071 51.9925 97.6353 64.2728 97.6353 77.3115C97.6353 90.3501 106.071 102.634 121.387 111.884C153.159 131.081 204.855 131.081 236.627 111.884C251.943 102.629 260.378 90.3501 260.378 77.3115C260.378 64.2728 251.943 51.9885 236.627 42.7389C220.738 33.1455 199.867 28.3453 179.005 28.3453L179.006 28.3403Z" fill="url(#paint1_linear_712_7700)"/>
</g>
<g style="mix-blend-mode:overlay">
<path d="M179.005 216.664C168.003 216.664 157.002 214.134 148.628 209.07C140.417 204.11 135.898 197.479 135.898 190.412C135.898 183.345 140.419 176.714 148.627 171.755C165.378 161.634 192.631 161.634 209.381 171.755C217.592 176.714 222.11 183.346 222.11 190.413C222.11 197.48 217.59 204.11 209.382 209.07C201.006 214.134 190.006 216.664 179.005 216.664ZM149.13 172.667C141.246 177.432 136.904 183.734 136.904 190.414C136.904 197.094 141.246 203.397 149.13 208.162C165.603 218.113 192.406 218.115 208.878 208.162C216.763 203.397 221.105 197.095 221.105 190.415C221.105 183.735 216.766 177.433 208.878 172.667C192.407 162.715 165.603 162.715 149.13 172.667Z" fill="url(#paint2_linear_712_7700)"/>
</g>
<g style="mix-blend-mode:overlay">
<path d="M179.005 209.146C162.774 209.146 146.552 205.414 134.199 197.955C122.135 190.66 115.492 180.943 115.492 170.576C115.492 160.21 122.135 150.492 134.198 143.198C158.904 128.27 199.104 128.27 223.81 143.198C235.873 150.486 242.516 160.21 242.516 170.576C242.516 180.943 235.873 190.66 223.811 197.955C211.457 205.414 195.231 209.146 179.005 209.146ZM134.701 144.107C122.962 151.202 116.498 160.599 116.498 170.572C116.498 180.545 122.962 189.946 134.701 197.038C159.13 211.8 198.878 211.8 223.303 197.038C235.046 189.944 241.506 180.551 241.506 170.574C241.506 160.597 235.042 151.202 223.303 144.107C198.874 129.347 159.126 129.346 134.701 144.107Z" fill="url(#paint3_linear_712_7700)"/>
</g>
<g style="mix-blend-mode:overlay">
<path d="M179.005 174.826C152.149 174.826 125.293 168.649 104.848 156.296C84.945 144.269 73.9844 128.249 73.9844 111.184C73.9844 94.1199 84.945 78.0986 104.848 66.0732C145.738 41.3667 212.271 41.3657 253.161 66.0732C273.063 78.0996 284.025 94.1199 284.025 111.185C284.025 128.251 273.063 144.27 253.161 156.296C232.716 168.649 205.861 174.826 179.005 174.826ZM179.005 48.58C152.331 48.58 125.658 54.7141 105.352 66.9844C85.7728 78.8141 74.9907 94.5116 74.9907 111.184C74.9907 127.857 85.7728 143.559 105.352 155.384C145.965 179.924 212.047 179.924 252.659 155.384C272.238 143.554 283.021 127.858 283.021 111.185C283.021 94.5126 272.238 78.8111 252.659 66.9844C232.352 54.7151 205.677 48.58 179.004 48.58H179.005Z" fill="url(#paint4_linear_712_7700)"/>
</g>
<path d="M230.282 162.633C258.89 132.693 258.89 84.1507 230.282 54.2107C201.674 24.2706 155.291 24.2706 126.683 54.2107C98.0744 84.1507 98.0744 132.693 126.683 162.633C155.291 192.573 201.674 192.573 230.282 162.633Z" fill="url(#paint5_linear_712_7700)"/>
<path style="mix-blend-mode:soft-light" d="M120.97 112.614C136.965 122.278 157.974 127.111 178.984 127.111C199.993 127.111 221.002 122.278 236.996 112.614C242.386 109.452 247.289 105.456 251.539 100.762C251.566 100.308 251.606 99.8622 251.626 99.4026C247.297 104.393 242.224 108.614 236.602 111.902C204.832 131.098 153.135 131.098 121.363 111.902C115.244 108.355 109.79 103.679 105.262 98.0996C105.275 98.5323 105.274 98.9679 105.293 99.3986C109.766 104.702 115.067 109.17 120.97 112.614Z" fill="url(#paint6_linear_712_7700)"/>
<path d="M130.926 166.734C131.556 167.299 132.196 167.852 132.845 168.393C162.511 176.829 193.77 176.998 223.518 168.883C224.193 168.331 224.864 167.775 225.523 167.199C195.802 176.146 160.442 175.999 130.926 166.734Z" fill="url(#paint7_linear_712_7700)"/>
<g style="mix-blend-mode:overlay" opacity="0.68">
<path d="M155.128 49.6146C154.65 50.2371 154.217 49.8774 154.178 49.6866C154.166 49.587 154.166 49.4864 154.178 49.3868C153.948 49.2729 153.879 49.6176 153.679 49.6056C153.684 49.5918 153.69 49.5789 153.699 49.5677C153.709 49.5561 153.719 49.5438 153.727 49.5307C153.737 49.519 153.747 49.5063 153.755 49.4927C153.763 49.4797 153.772 49.4677 153.781 49.4557C153.791 49.4438 153.799 49.4308 153.808 49.4188C153.817 49.4063 153.826 49.3943 153.836 49.3828C153.843 49.3708 153.852 49.3588 153.862 49.3458L153.887 49.3099C153.671 49.2259 153.515 49.4098 153.325 49.4488C153.446 49.2389 153.384 49.2209 153.134 49.2769C152.884 49.3328 152.821 49.3179 152.758 49.2929C152.82 49.1389 152.897 48.9922 152.989 48.8552C153.336 48.8222 153.336 48.8222 153.371 48.8612C153.627 48.7143 153.627 48.7143 153.643 48.7153C153.644 48.701 153.644 48.6867 153.643 48.6724C153.611 48.6424 153.566 48.6404 153.535 48.6094C153.553 48.5605 153.576 48.5395 153.707 48.4286C153.442 48.5754 153.396 48.5535 153.341 48.4575C153.32 48.4165 153.286 48.3837 153.246 48.3638C153.205 48.3439 153.16 48.3379 153.116 48.3466L153.159 48.2947L153.204 48.2407C153.218 48.2237 153.232 48.2047 153.248 48.1877L153.292 48.1348L153.335 48.0818L153.379 48.0289L153.424 47.9759C153.439 47.9579 153.453 47.9409 153.469 47.923C153.716 47.91 153.716 47.91 153.794 47.7891C153.823 47.863 153.862 47.882 154.148 47.889C154.625 47.904 154.675 47.9979 154.421 48.3656C154.595 48.2877 154.788 48.2897 154.965 48.2297C154.991 48.5295 155.361 48.5874 155.389 48.8862C155.319 48.9561 155.226 48.9941 155.157 49.0651C155.133 49.0925 155.119 49.1279 155.118 49.165C155.118 49.3139 155.24 49.4647 155.124 49.6106" fill="#00EBFF"/>
<path d="M157.213 49.1995C157.095 49.3218 157.009 49.4744 156.964 49.6422C156.777 49.7263 156.576 49.7737 156.372 49.7821C156.197 49.7839 156.027 49.8365 155.879 49.934C155.798 49.906 155.783 49.901 155.772 49.7761C155.76 49.6512 155.737 49.6512 155.652 49.6322C155.67 49.5876 155.7 49.5495 155.739 49.5229C155.777 49.4964 155.823 49.4826 155.869 49.4833C155.707 49.3974 155.559 49.0836 156.155 48.5391C156.858 48.6999 156.885 48.7069 156.843 48.9787C157.129 48.8478 157.204 48.9527 157.278 49.1266C157.259 49.1476 157.234 49.1776 157.213 49.1995Z" fill="#00EBFF"/>
<path d="M150.942 49.091C150.578 49.2315 150.185 49.266 149.803 49.1909C149.614 49.1562 149.422 49.1395 149.23 49.141C149.736 48.8623 150.286 48.6821 150.854 48.6094C151.171 48.6374 151.175 48.7752 151.07 49.038C151.031 49.054 150.982 49.077 150.943 49.091" fill="#00EBFF"/>
<path d="M150.481 49.4729C150.425 49.5551 150.347 49.6189 150.258 49.6567C150.168 49.6946 150.07 49.705 149.975 49.6867C150.12 49.8416 149.708 50.2123 149.703 50.2153L148.735 50.3572C148.476 50.3472 148.443 50.2313 148.43 50.1024L148.478 50.0474C148.494 50.0285 148.511 50.0105 148.526 49.9915C148.541 49.9725 148.559 49.9545 148.574 49.9355C148.589 49.9165 148.606 49.8986 148.624 49.8806L148.672 49.8246L148.721 49.7687C148.737 49.7507 148.754 49.7317 148.77 49.7127C148.785 49.6937 148.803 49.6757 148.818 49.6567C149.309 49.4512 149.838 49.3612 150.366 49.393C150.426 49.393 150.484 49.393 150.544 49.399L150.481 49.4729Z" fill="#00EBFF"/>
<path d="M146.629 53.1625C146.583 53.2069 146.522 53.2309 146.46 53.2294C146.44 53.2292 146.421 53.2248 146.403 53.2166C146.385 53.2083 146.369 53.1964 146.355 53.1814C146.342 53.1665 146.332 53.1489 146.325 53.1296C146.318 53.1104 146.315 53.09 146.316 53.0695C146.714 53.0206 146.651 53.1325 146.642 53.1465L146.629 53.1625ZM150.171 52.48C150.259 52.361 150.338 52.235 150.408 52.1033C150.324 51.9484 149.976 51.8035 149.563 52.1702C149.495 52.0473 149.276 52.0373 149.312 51.8445L149.78 50.9062L149.607 50.9352C149.155 51.086 148.738 51.3337 148.382 51.6627C148.424 51.7766 148.669 51.7626 148.607 51.9085C148.593 51.9404 148.541 51.9884 148.373 52.0304C148.323 52.0423 148.276 52.0654 148.235 52.098C148.194 52.1305 148.16 52.1719 148.136 52.2192C148.35 52.2592 148.407 52.3391 148.373 52.548H148.246H148.121H147.995H147.869H147.744H147.621H147.496H147.374C147.552 52.0853 147.675 51.5957 146.88 51.6487C146.959 51.4618 147.106 51.1161 146.349 51.4338C146.068 51.5507 145.513 51.8455 145.511 51.8475L144.219 52.9466C144.456 53.2054 144.456 53.2054 144.683 53.1275C144.624 53.1847 144.563 53.2387 144.498 53.2894C145.442 53.3263 145.442 53.3263 145.872 52.9137C145.662 53.1625 145.662 53.1625 145.726 53.4133C145.592 53.3923 145.456 53.4106 145.331 53.466C145.207 53.5213 145.099 53.6117 145.021 53.727C145.134 54.3145 145.817 54.0957 147.016 53.6581C147.309 53.5363 147.612 53.4453 147.921 53.3863C148.064 53.3971 148.206 53.4175 148.346 53.4472C148.66 53.4532 148.975 53.4213 149.289 53.4133C149.569 53.0965 149.909 52.8437 150.171 52.508" fill="#00EBFF"/>
<path d="M152.193 52.1407C152.178 52.1618 152.159 52.1784 152.136 52.1887C152.099 52.199 152.061 52.2073 152.023 52.2136C152.037 52.1892 152.059 52.17 152.084 52.1587C152.121 52.148 152.159 52.1396 152.198 52.1337V52.1407M153.017 51.8339C152.993 51.8502 152.966 51.8589 152.938 51.8589C152.77 51.8459 152.727 51.5532 152.912 51.3883C152.925 51.3763 152.943 51.3633 152.957 51.3533C152.925 51.4144 152.912 51.4841 152.919 51.5532C152.935 51.6531 153.009 51.725 153.027 51.821L153.017 51.8299M153.972 52.8182C153.98 52.8106 153.987 52.8022 153.994 52.7932L154.493 51.4852C154.506 51.4513 154.512 51.415 154.511 51.3786C154.509 51.3422 154.501 51.3064 154.486 51.2735C154.472 51.2405 154.45 51.2111 154.424 51.187C154.398 51.1629 154.368 51.1447 154.334 51.1335C154.063 51.2814 153.7 51.4103 153.756 51.2534C153.778 51.2077 153.806 51.1657 153.84 51.1285C153.697 51.0711 153.543 51.0518 153.391 51.0725C153.055 51.1559 152.728 51.2733 152.414 51.4233C152.188 51.5751 152.143 51.8749 151.943 52.0468C152.21 50.9406 151.324 51.2404 151.314 51.2474C151.252 51.3301 151.206 51.4239 151.177 51.5242C151.128 51.7173 151.029 51.8926 150.891 52.0308H151.158H151.197C151.141 52.2756 151.089 52.5074 151.314 52.6303C151.659 52.6774 152.007 52.6955 152.355 52.6843C152.212 52.9167 152.088 53.161 151.983 53.4147C152.437 53.4631 152.895 53.4422 153.343 53.3527C153.398 53.3317 153.49 53.3178 153.52 53.2648C153.603 53.1139 153.579 52.9301 153.662 52.7792C153.766 52.7572 153.87 52.9171 153.967 52.8072" fill="#00EBFF"/>
<path d="M155.523 53.7053C155.275 53.8536 154.988 53.9123 154.706 53.8722C154.386 53.8006 154.095 53.6258 153.875 53.3726C153.958 53.2265 154.082 53.1104 154.23 53.0398C154.444 52.9029 154.444 52.892 154.447 52.806C154.696 52.6225 154.989 52.5128 155.293 52.4883C156.146 52.5532 155.579 53.6553 155.523 53.7083" fill="#00EBFF"/>
<path d="M152.257 57.0586C152.131 57.2728 151.951 57.4464 151.737 57.5602C151.522 57.6739 151.282 57.7234 151.043 57.7031C150.403 58.3086 150.255 58.0108 150.048 57.4323C149.876 56.9537 149.71 56.6419 149.105 56.9687C149.316 56.6479 149.331 56.586 149.232 56.4181C149.207 56.3857 149.19 56.3475 149.182 56.3067C149.173 56.2659 149.174 56.2236 149.185 56.1833C149.252 55.9894 149.252 55.9894 150.05 55.5018C149.954 55.7187 149.679 56.2942 150.48 56.1103C150.564 55.9355 150.601 55.8815 150.685 55.8555C150.702 55.6777 150.705 55.6557 150.469 55.5508C150.254 55.4579 150.287 55.3779 150.373 55.1631C150.609 55.1069 150.814 54.9572 150.946 54.7454C151.2 54.7854 151.71 54.4636 151.71 54.8394C151.787 54.7394 151.996 54.4567 152.844 54.4297H152.888C152.788 54.6395 152.793 54.6725 152.942 54.7754C152.971 54.7894 152.996 54.8121 153.013 54.8407C153.03 54.8694 153.038 54.9026 153.037 54.9363C152.759 55.2688 152.412 55.5291 152.021 55.6967C152.021 55.7117 152.016 55.7327 152.012 55.7476C152.084 55.8376 152.198 55.7746 152.278 55.8296C152.278 55.8426 152.283 55.8596 152.285 55.8725C152.667 55.5728 152.667 55.5728 152.762 55.6177C152.624 56.1104 152.452 56.592 152.248 57.0586" fill="#00EBFF"/>
<path d="M157.623 68.9967C157.375 69.3894 156.781 69.89 156.242 69.5633C156.243 69.4568 156.267 69.3519 156.31 69.2557C156.354 69.1594 156.416 69.0742 156.494 69.0057C156.575 68.9277 156.64 68.8336 156.685 68.7289C156.867 68.7972 157.066 68.7947 157.247 68.7219C157.318 68.6943 157.392 68.6762 157.468 68.668C157.502 68.6727 157.535 68.6862 157.563 68.7074C157.591 68.7285 157.614 68.7567 157.629 68.7893C157.644 68.8218 157.651 68.8579 157.65 68.8941C157.649 68.9303 157.639 68.9655 157.621 68.9967" fill="#00EBFF"/>
<path d="M159.452 69.389L159.443 69.441C159.443 69.4579 159.437 69.4759 159.434 69.4939C159.431 69.5119 159.429 69.5279 159.427 69.5459C159.423 69.563 159.42 69.5804 159.418 69.5978C159.418 69.6158 159.411 69.6328 159.409 69.6498L159.401 69.7027C159.401 69.7197 159.394 69.7377 159.391 69.7547C159.389 69.7725 159.387 69.7902 159.383 69.8077C159.383 69.8257 159.377 69.8416 159.374 69.8596C159.371 69.8776 159.369 69.8946 159.367 69.9116C159.363 69.9291 159.36 69.9467 159.358 69.9645C159.358 69.9825 159.352 69.9995 159.348 70.0175L159.341 70.0705C159.337 70.0879 159.334 70.1056 159.332 70.1234C159.332 70.1404 159.326 70.1584 159.325 70.1764C159.173 70.3003 158.986 70.2143 158.676 70.0765C158.62 69.8486 158.714 69.7297 158.907 69.5888C159.009 69.5169 159.038 69.4889 158.974 69.448C158.986 69.362 159.017 69.337 159.117 69.332C159.232 69.332 159.345 69.389 159.46 69.341C159.46 69.359 159.453 69.377 159.452 69.394" fill="#00EBFF"/>
<path d="M215.273 69.3493C215.45 69.758 215.412 69.9029 215.394 69.9718C215.14 69.8889 215.022 69.6401 214.867 69.1465H214.879C215 69.1465 215.092 69.2674 215.22 69.2314C215.236 69.2664 215.258 69.3134 215.273 69.3493Z" fill="#00EBFF"/>
<path d="M213.21 72.2512C213.279 72.492 213.219 72.8507 212.965 72.8857H212.956C212.874 72.7688 212.726 72.7178 212.669 72.5769C212.648 72.5272 212.64 72.4723 212.647 72.4183C212.653 72.3643 212.673 72.3131 212.706 72.2702C212.766 72.1993 212.85 72.1533 212.896 72.0704C212.923 72.0167 212.93 71.9552 212.917 71.8965C212.988 71.9292 213.051 71.9782 213.102 72.0397C213.153 72.1013 213.189 72.1729 213.21 72.2512Z" fill="#00EBFF"/>
<path d="M213.072 73.4456C213.096 73.5785 212.989 73.5974 212.881 73.5255C212.834 73.4939 212.796 73.4499 212.772 73.3981C212.747 73.3463 212.735 73.2886 212.739 73.2307C212.753 73.2241 212.768 73.22 212.784 73.2188C212.928 73.2188 212.929 73.4186 213.071 73.4286V73.4456" fill="#00EBFF"/>
<path d="M213.056 78.5032C213.119 78.7341 213.001 78.772 212.909 78.78H212.867C212.886 78.7299 212.89 78.6749 212.879 78.6221C212.87 78.4923 212.862 78.3803 213.032 78.4223C213.041 78.4488 213.049 78.4758 213.056 78.5032ZM215.357 77.0214C215.379 77.0115 215.402 77.0038 215.426 76.9984C215.367 76.6969 215.217 76.4229 214.999 76.2167C214.78 76.0105 214.505 75.8828 214.212 75.8523C213.911 75.806 213.632 75.6576 213.419 75.4297C213.441 75.4747 213.468 75.5296 213.488 75.5796C213.621 75.9373 213.567 75.9792 213.297 75.9662C213.106 75.9533 213.068 75.9663 213.011 76.0232C213.123 76.31 213.027 76.6467 213.21 76.9225C213.102 77.0534 213.102 77.0534 212.362 77.0944H212.351L212.293 77.0994C212.358 77.2792 212.364 77.2992 212.344 77.3991C212.323 77.4564 212.32 77.5188 212.335 77.578C212.366 77.7478 212.526 77.8468 212.562 78.0146C212.619 78.2754 212.507 78.5462 212.606 78.804C212.685 79.0098 212.934 78.838 213.03 79.0039C212.983 79.1767 213.054 79.3636 212.974 79.5334C212.974 79.5334 212.924 79.6333 212.742 79.6014C212.993 80.5416 213.307 80.7005 214.142 80.3158C214.599 80.106 214.826 80.016 215.024 80.2678C214.782 79.3985 215.64 79.6434 215.649 79.6463C215.661 78.8423 215.447 78.0523 215.032 77.3751C215.254 77.4111 215.228 77.1133 215.365 77.0244" fill="#00EBFF"/>
<path d="M216.249 76.8941C216.319 77.1419 216.198 77.3717 215.875 77.3108C215.693 76.8521 215.737 76.6343 216.015 76.6113C216.075 76.6113 216.075 76.6113 216.123 76.6653C216.179 76.7332 216.222 76.8124 216.249 76.8981" fill="#00EBFF"/>
<path d="M229.766 92.8151C229.85 93.2708 229.893 93.7324 229.957 94.191C229.649 94.1501 229.423 94.8405 229.21 94.5118C229.21 94.5118 229.172 94.4019 229.045 93.7744C228.95 93.1796 228.79 92.5982 228.568 92.0417C228.884 92.3675 229.09 91.8888 229.098 91.8679C228.956 91.5841 228.747 91.3413 228.621 91.0465C228.511 90.8137 228.447 90.5609 228.43 90.3021C228.446 90.2282 228.549 90.1802 228.609 90.1502C228.808 90.0583 228.827 90.0153 228.785 89.7695C229.262 90.1612 229.19 91.3223 229.189 91.3353C229.189 91.3793 229.152 91.4412 229.171 91.4822C229.348 91.7699 229.509 92.0685 229.653 92.3765C229.698 92.5201 229.735 92.6667 229.763 92.8151" fill="#00EBFF"/>
<path d="M161.314 118.267C160.324 118.424 159.324 118.502 158.323 118.5C158.336 118.16 158.664 118.01 158.759 117.718C157.298 117.404 156.166 116.219 154.654 116.052C154.642 115.869 154.522 115.715 154.523 115.527C153.615 115.427 153.091 116.564 152.141 116.326C152.473 115.348 153.117 114.955 154.52 114.882C155.481 114.841 156.424 115.157 157.184 115.775C157.215 115.793 157.25 115.803 157.286 115.803C157.484 115.815 157.388 115.442 157.58 115.491C157.628 115.503 157.645 115.508 157.844 115.738C158.156 116.097 158.424 116.354 158.825 116.156C159.382 117.289 160.875 117.13 161.467 118.216C161.422 118.233 161.364 118.256 161.318 118.271" fill="#00EBFF"/>
<path d="M164.676 120.123C164.676 120.162 164.676 120.251 164.649 120.258C164.622 120.265 164.577 120.112 164.577 120.111C164.585 120.061 164.603 120.014 164.627 119.97C164.654 119.945 164.673 120.031 164.676 120.123ZM166.322 120.099C166.322 120.138 166.322 120.228 166.296 120.234C166.27 120.24 166.225 120.089 166.225 120.087C166.233 120.037 166.25 119.99 166.274 119.946C166.302 119.921 166.321 120.005 166.322 120.099ZM166.895 119.799C166.913 119.528 166.831 119.26 166.666 119.051C165.688 118.985 165.018 118.009 163.992 118.078C163.882 118.092 163.777 118.134 163.685 118.198C163.593 118.262 163.516 118.348 163.46 118.448C162.574 118.038 162.365 117.941 162.293 118.597C162.444 118.697 162.662 118.683 162.75 118.89C162.838 119.097 162.583 119.279 162.581 119.279C162.545 119.291 162.545 119.291 162.199 119.112C162.28 119.291 162.341 119.479 162.382 119.672C162.357 119.797 162.307 119.915 162.235 120.017C162.443 120.142 162.687 120.182 162.922 120.132C163.157 120.081 163.367 119.943 163.511 119.742C163.501 120.073 163.749 120.323 163.779 120.642C164.076 120.516 164.407 120.503 164.701 120.367C164.916 120.267 164.915 120.267 164.937 120.111C165.082 120.156 165.159 120.311 165.296 120.362C165.321 120.006 165.428 119.987 165.687 120.026C165.924 120.062 166.022 120.038 166.104 119.834C166.104 119.855 166.104 119.877 166.104 119.9V119.965C166.104 119.986 166.104 120.007 166.104 120.029C166.104 120.051 166.104 120.072 166.104 120.094C166.104 120.116 166.104 120.136 166.104 120.158C166.104 120.18 166.104 120.2 166.104 120.222C166.104 120.244 166.104 120.264 166.104 120.286C166.104 120.308 166.104 120.327 166.104 120.35C166.727 120.31 166.727 120.31 166.809 120.339C166.846 120.162 166.87 119.982 166.879 119.8" fill="#00EBFF"/>
<path d="M177.965 57.7334C177.928 57.7868 177.886 57.8366 177.84 57.8823C177.872 57.8245 177.915 57.7747 177.965 57.7334Z" fill="#00EBFF"/>
<path d="M179.105 59.4948C179.105 59.5063 179.103 59.5176 179.097 59.5274C179.091 59.5372 179.083 59.545 179.073 59.5497C179.031 59.5651 178.988 59.5765 178.945 59.5837C178.943 59.5706 178.945 59.5573 178.951 59.5455C178.957 59.5338 178.966 59.5241 178.977 59.5178C179.018 59.5027 179.061 59.4927 179.105 59.4878V59.4948ZM193.522 58.4956C193.538 58.5425 193.572 58.6814 193.551 58.6954C193.53 58.7094 193.455 58.5136 193.455 58.5106C193.455 58.5076 193.455 58.4406 193.475 58.4316C193.495 58.4226 193.507 58.4496 193.525 58.5006M195.312 57.891C195.324 57.917 195.345 57.977 195.329 57.982C195.313 57.987 195.246 57.8821 195.245 57.8821C195.244 57.8821 195.229 57.7941 195.245 57.7821C195.261 57.7702 195.294 57.8301 195.316 57.891M197.098 56.8918C197.108 56.9168 197.106 56.9358 197.093 56.9468C197.063 56.9708 197.024 56.9658 196.991 56.9788C196.986 56.9668 196.974 56.9388 196.991 56.9218C197.007 56.9048 197.06 56.9008 197.093 56.8849V56.8918M196.652 56.4432C196.584 56.4027 196.52 56.3562 196.461 56.3043C196.472 56.3043 196.652 56.4412 196.652 56.4432ZM194.043 54.9604C194.028 55.1322 193.924 55.1532 193.826 55.1602C193.662 55.1652 193.498 55.1312 193.332 55.1372C193.538 54.9805 193.792 54.9065 194.046 54.9284C194.046 54.9384 194.046 54.9504 194.046 54.9604M194.6 54.9953C194.61 55.0213 194.618 55.0481 194.624 55.0753C194.528 55.0973 194.473 55.0413 194.484 55.0113C194.489 55.0013 194.505 54.9973 194.515 54.9943C194.433 54.8944 194.179 54.7755 194.175 54.8784C194.183 54.9259 194.202 54.9707 194.229 55.0093C194.134 54.9814 194.115 54.8545 194.011 54.8455C193.946 54.6746 194.016 54.6716 194.357 54.6586C194.38 54.7274 194.42 54.7881 194.475 54.8335C194.529 54.8749 194.572 54.9308 194.6 54.9953ZM195.41 53.5115C195.422 53.5345 195.421 53.5515 195.41 53.5625C195.4 53.5735 195.348 53.5795 195.315 53.5915C195.305 53.5725 195.298 53.5515 195.315 53.5345C195.332 53.5175 195.375 53.5165 195.405 53.5035V53.5115M188.74 43.9481C188.726 44.022 188.645 44.026 188.549 44.025C188.366 44.02 188.329 44.051 188.312 44.125C188.406 44.209 188.485 44.3106 188.544 44.4247C188.515 44.405 188.482 44.3924 188.448 44.3878C188.436 44.3878 188.431 44.3877 188.422 44.4037C188.414 44.4158 188.404 44.4257 188.391 44.4325C188.379 44.4393 188.366 44.4428 188.352 44.4427C188.333 44.4444 188.315 44.4444 188.296 44.4427C188.264 44.378 188.217 44.3229 188.159 44.2828C188.103 44.2483 188.055 44.2008 188.02 44.1439C188.11 44.1314 188.196 44.0972 188.272 44.044C188.407 43.942 188.576 43.9 188.74 43.9271C188.741 43.9358 188.741 43.9445 188.74 43.9531M193.323 44.4797C192.881 43.6803 192.017 44.128 191.423 43.7802C191.461 43.8182 191.51 43.8702 191.548 43.9081C191.008 44.2369 191.008 44.2369 190.904 44.5077C190.648 44.4367 190.382 44.4947 190.125 44.4347C189.976 44.5546 189.976 44.5546 189.807 44.8504C189.615 44.452 189.308 44.1264 188.93 43.9191C188.933 43.8106 188.969 43.7057 189.032 43.6194C188.797 43.2826 188.38 43.2437 188.093 42.9939C188.067 43.0378 188.035 43.0938 188.011 43.1437C187.783 43.1437 187.558 43.0988 187.33 43.0898C187.255 42.9993 187.174 42.9145 187.087 42.836C187.044 42.812 187.034 42.813 187.026 42.813H186.997H186.942H186.914H186.859H186.83C186.147 42.5565 185.444 42.3616 184.729 42.2305C184.73 42.2403 184.731 42.2501 184.734 42.2594L184.762 42.4313C182.948 42.5622 182.948 42.5622 182.607 42.7121C182.508 42.6466 182.416 42.5717 182.33 42.4883C182.235 42.6771 182.235 42.6771 181.897 42.795C181.962 42.8858 182.032 42.9728 182.106 43.0558C181.161 42.8558 180.18 42.9603 179.293 43.3556C179.293 43.4245 179.293 43.5154 179.293 43.5844L179.64 43.6154C179.598 43.7165 179.583 43.8279 179.598 43.9371C179.704 43.981 179.806 44.0362 179.901 44.102L179.78 44.2019C179.862 44.2539 179.971 44.3288 180.045 44.3878C179.255 44.2691 178.472 44.0969 177.702 43.8722C177.681 43.9321 177.652 44.012 177.632 44.072L177.799 44.3918C177.298 44.4327 176.858 44.092 176.357 44.138C174.849 44.2629 174.593 44.4587 174.296 44.6835L174.209 44.5296C173.982 44.6595 173.732 44.7195 173.496 44.8294C173.483 45.0722 173.553 45.309 173.539 45.5518C172.535 45.8184 171.556 46.1751 170.611 46.618C170.834 47.1346 170.834 47.1346 170.845 47.1496C171.097 47.2024 171.356 47.2061 171.609 47.1606C171.609 47.6092 171.609 47.7031 171.218 47.9399C170.727 48.2347 170.124 48.0668 169.632 48.3526L169.588 48.5884C169.195 48.8082 169.195 48.8082 169.101 49.152C169.489 49.139 169.76 49.5417 170.163 49.4677C170.321 49.7065 170.449 49.9653 170.545 50.2381C169.738 50.1632 168.976 50.0932 168.922 50.7907C169.031 50.7952 169.14 50.8119 169.246 50.8406C169.259 50.8926 169.276 50.9635 169.289 51.0165L169.098 51.0035C169.048 51.0971 169.011 51.1982 168.989 51.3033C168.891 51.2993 168.794 51.2776 168.703 51.2393C168.687 51.2893 168.664 51.3562 168.648 51.4072L168.774 51.5291C168.768 51.609 168.76 51.7139 168.753 51.7929C170.104 52.2435 170.104 52.2435 170.694 51.8428C170.836 52.1156 170.856 52.1206 171.04 52.1556C171.4 51.8848 171.951 52.1086 172.243 51.656C172.836 51.9268 173.596 51.7649 174.045 52.4064L174.14 52.2715C174.351 52.3147 174.556 52.3817 174.752 52.4713C174.686 52.7641 174.921 52.9919 174.909 53.2707C175.315 53.2657 175.393 53.3996 175.482 53.5535C175.434 53.6468 175.393 53.7436 175.359 53.8433C175.386 53.8832 175.42 53.9352 175.444 53.9752C175.549 53.9577 175.655 53.9506 175.761 53.9542C175.7 54.0491 175.624 54.1328 175.536 54.202C175.552 54.2529 175.574 54.3189 175.59 54.3678C175.741 54.3948 175.893 54.3758 176.046 54.3888C175.968 54.4705 175.896 54.5584 175.831 54.6516C175.932 54.674 176.03 54.7044 176.126 54.7425C176.202 55.0093 176.202 55.0093 176.626 55.392H176.476C176.494 55.5179 176.52 55.6424 176.554 55.7647C176.471 55.8187 176.363 55.8956 176.285 55.9556C176.285 56.0115 176.29 56.0865 176.293 56.1414L176.58 56.2823C176.558 56.6561 176.506 57.0271 176.423 57.3914C176.502 57.5357 176.614 57.6576 176.748 57.7467C176.882 57.8358 177.035 57.8895 177.193 57.903C177.352 57.9166 177.511 57.8897 177.657 57.8246C177.803 57.7595 177.932 57.6582 178.033 57.5293C178.128 57.6932 178.089 57.8891 178.153 58.0599C178.895 58.0939 178.895 58.0939 178.896 58.3367C177.422 58.3607 177.422 58.3607 177.279 58.4426C177.436 58.8483 177.436 58.8483 177.557 58.9782C177.244 59.0971 177.189 59.1191 177.193 59.9035C177.474 60.1863 177.842 60.3549 178.231 60.3789C178.62 60.4029 179.005 60.2807 179.316 60.0344C179.304 59.8425 179.211 59.6716 179.181 59.4848C179.28 59.5277 179.383 59.5576 179.488 59.5737C179.465 59.6966 179.465 59.6966 179.755 60.2062C179.666 60.482 179.723 60.7888 179.581 61.0525C179.308 61.0407 179.036 61.0126 178.766 60.9686C177.66 62.6253 178.265 63.3377 178.461 63.5725C178.29 63.6935 178.29 63.6934 178.245 64.4608C178.378 64.4791 178.501 64.5447 178.593 64.6467L180.129 67.5244L180.333 67.5574C180.382 67.7463 180.396 67.9441 180.461 68.1299C181.116 68.1579 181.123 68.6445 181.014 69.0472C181.418 69.2361 181.646 69.6677 182.049 69.8566C181.901 70.546 182.847 70.5041 182.856 71.0996C183.34 70.8942 183.88 70.8815 184.372 71.064C184.865 71.2464 185.277 71.6114 185.53 72.0898C185.522 72.0438 185.515 71.9809 185.51 71.9339C185.672 71.853 185.672 71.853 185.987 71.87C186.107 72.2087 186.107 72.2087 187.052 71.7141C186.948 70.624 187.417 69.5338 187.052 68.4437C187.222 68.4017 187.397 68.3817 187.568 68.3438C187.676 67.8879 187.911 67.4757 188.242 67.1587C188.03 66.6441 188.275 66.0386 187.943 65.549C188.349 65.3701 188.536 64.8855 188.976 64.7566C189.136 64.7252 189.301 64.7282 189.46 64.7655C189.619 64.8027 189.769 64.8735 189.901 64.9734C189.898 64.8468 189.916 64.7204 189.956 64.6007C190.595 64.4639 191.02 63.8923 191.638 63.7124C191.92 63.0503 192.263 62.4182 192.661 61.8249C192.654 61.6633 192.662 61.5013 192.686 61.3413C195.013 61.5881 196.505 60.1163 197.597 59.0431C197.652 59.1251 197.729 59.1875 197.819 59.222C197.82 58.9409 197.781 58.6613 197.702 58.3926C196.818 58.5455 195.971 58.01 195.084 58.2478C195.259 58.1666 195.426 58.0661 195.581 57.948C195.556 57.8124 195.522 57.6788 195.478 57.5483L195.646 57.5004C195.985 57.7079 196.294 57.9639 196.565 58.2608H196.644C197.577 58.1978 197.577 58.1978 197.802 58.2608C197.832 58.2038 197.87 58.1289 197.898 58.0719C197.873 58.012 197.873 58.012 197.568 57.4324L197.701 57.3445C197.533 56.9828 197.162 56.8659 196.892 56.6271L196.988 56.4922C196.844 56.3703 196.844 56.3703 195.261 55.8237C195.285 55.8647 195.318 55.9236 195.341 55.9606C195.071 56.0515 195.069 56.0495 194.863 55.9326L195.018 55.9166C195.011 55.7898 194.965 55.6688 194.886 55.5719C195.313 55.6502 195.729 55.7793 196.127 55.9566C196.136 55.9116 196.147 55.8507 196.155 55.8057L196.251 55.7727H196.259C196.134 55.4862 195.953 55.2302 195.727 55.0213C195.411 55.0406 195.094 55.0295 194.779 54.9883C194.631 54.8005 194.533 54.5767 194.368 54.4018C194.389 54.3579 194.417 54.3019 194.438 54.2579C196.358 54.4738 196.358 54.4738 196.695 54.3658C196.511 53.8662 196.489 53.8572 196.134 53.6744C196.324 53.5549 196.533 53.4711 196.751 53.4266C196.846 52.89 196.846 52.89 196.649 52.6892H196.616C196.43 52.7014 196.243 52.6893 196.06 52.6532C195.463 51.4312 195.463 51.4312 195.049 50.9935C194.111 51.0665 194.111 51.0665 193.859 50.9006L193.982 50.8167C193.832 50.324 192.977 50.1292 193.277 49.4817L193.426 49.4507C193.365 49.2509 193.313 49.081 192.891 48.8832C193.03 48.4835 192.678 48.2187 192.629 47.87H192.678H192.727C192.744 47.87 192.76 47.87 192.776 47.87H192.826C192.842 47.87 192.858 47.87 192.875 47.87H192.923H192.973H193.022C192.934 47.7844 192.866 47.6801 192.821 47.5642L192.928 47.3764C192.826 47.0986 192.826 47.0986 192.569 47.0916L192.465 46.9267C192.477 46.8798 192.492 46.8168 192.502 46.7699C192.629 46.789 192.756 46.797 192.884 46.7938C192.972 46.552 192.972 46.552 192.81 46.1943L192.953 46.1444C192.96 46.0256 192.96 45.9065 192.953 45.7876C192.867 45.7307 192.755 45.6528 192.673 45.5878C192.902 45.4319 192.922 45.4459 193.126 45.5818C193.08 45.4068 193.061 45.2254 193.069 45.0442C193.19 44.9687 193.297 44.8697 193.382 44.7525C193.368 44.6641 193.347 44.5772 193.319 44.4927" fill="#333C5E"/>
<path d="M147.406 50.3003C147.156 50.5402 147.024 50.5302 146.964 50.5252C146.843 50.7501 146.694 50.9569 146.521 51.1397C146.479 51.1586 146.437 51.1734 146.393 51.1836C146.284 51.2286 146.128 51.3095 145.886 51.4364C145.615 51.5793 145.307 51.7412 145.276 51.6433C145.244 51.5454 145.46 51.2856 145.602 51.1087C145.052 51.5923 144.375 51.8781 143.806 52.3337C143.806 52.2658 143.722 52.2338 143.731 52.1669C143.739 52.0999 143.764 52.0609 143.852 51.927C143.69 51.983 143.616 52.1549 143.476 52.2398C143.621 51.94 143.489 51.8971 142.934 52.055C143.125 51.8681 143.22 51.6093 143.411 51.4234C143.401 51.4383 143.396 51.4555 143.395 51.4734C143.436 51.4764 143.478 51.4704 143.517 51.4556C143.556 51.4408 143.592 51.4176 143.622 51.3875V51.3525C144.35 51.0846 145.053 50.7485 145.722 50.3483C146.169 50.1614 146.391 50.1115 146.601 50.2804C146.792 50.1924 146.916 49.9746 147.153 49.9806C147.276 49.9956 147.276 49.9956 147.471 50.2354L147.405 50.3043" fill="#00EBFF"/>
<path d="M172.412 177.297C172.421 177.322 172.412 177.323 172.407 177.324C172.375 177.312 172.346 177.293 172.322 177.268C172.328 177.191 172.374 177.242 172.384 177.252C172.396 177.265 172.405 177.28 172.412 177.297ZM172.559 176.736C172.563 176.747 172.577 176.784 172.565 176.787C172.554 176.79 172.514 176.732 172.513 176.732C172.512 176.732 172.508 176.681 172.52 176.676C172.531 176.671 172.547 176.702 172.559 176.736ZM170.575 175.788C170.583 175.812 170.559 175.827 170.514 175.828C170.468 175.829 170.418 175.802 170.453 175.762C170.468 175.75 170.484 175.738 170.5 175.728C170.521 175.739 170.566 175.763 170.575 175.788ZM164.991 126.71C164.988 126.73 164.979 126.749 164.965 126.764C164.952 126.779 164.935 126.79 164.916 126.795C164.83 126.813 164.742 126.823 164.654 126.825C164.656 126.802 164.664 126.78 164.677 126.762C164.691 126.744 164.71 126.731 164.731 126.725C164.816 126.705 164.904 126.695 164.992 126.696L164.991 126.71ZM128.82 107.868C128.493 107.668 128.351 107.248 127.982 107.095C128.082 106.814 128.082 106.814 128.024 105.922H128.034C128.13 105.934 128.161 105.968 128.225 106.083C128.289 106.198 128.36 106.283 128.564 106.201C128.561 106.436 128.581 106.67 128.623 106.901C128.686 107.24 128.82 107.561 128.886 107.9C128.866 107.889 128.839 107.875 128.819 107.862M170.882 86.108C170.882 86.143 170.877 86.2259 170.853 86.2319C170.828 86.2379 170.79 86.098 170.79 86.097C170.8 86.0502 170.818 86.0055 170.843 85.9652C170.871 85.9432 170.884 86.0221 170.882 86.108ZM170.125 84.936C169.936 84.9942 169.735 85.0007 169.543 84.955C168.905 84.884 168.67 84.909 168.492 85.0689C168.386 84.4993 169.822 84.4533 169.883 84.4523H169.93C169.787 84.6432 169.835 84.7441 170.141 84.922L170.126 84.936M120.822 70.5084L120.811 70.5284L120.799 70.5484L120.788 70.5684L120.776 70.5883L120.765 70.6093L120.753 70.6283L120.743 70.6483L120.731 70.6683L120.721 70.6883L120.709 70.7082L120.699 70.7272L120.687 70.7472L120.677 70.7672L120.666 70.7872L120.655 70.8072C120.61 70.7762 120.552 70.8581 120.52 70.9071C120.514 70.8861 120.516 70.8691 120.543 70.7902C120.582 70.6813 120.6 70.6183 120.491 70.6803C120.532 70.6255 120.584 70.5804 120.643 70.5481C120.701 70.5157 120.766 70.4967 120.833 70.4924L120.822 70.5134M135.244 64.4822C135.222 64.5154 135.191 64.54 135.154 64.5521C135.105 64.5611 135.055 64.5641 135.005 64.5611C135.026 64.5272 135.057 64.5012 135.093 64.4872C135.145 64.4758 135.198 64.4705 135.251 64.4712L135.244 64.4822ZM141.753 61.7004C141.712 61.7561 141.658 61.7996 141.596 61.8264C141.534 61.8532 141.467 61.8625 141.4 61.8533C141.266 61.8443 141.227 61.8732 141.2 62.0991C140.893 61.9393 140.543 61.8948 140.209 61.9732C140.297 61.8003 140.462 61.6864 140.536 61.5045C140.562 61.6044 140.607 61.6354 140.733 61.6444C140.861 61.6395 140.989 61.6207 141.115 61.5885C141.497 61.5085 141.671 61.4965 141.801 61.6334L141.749 61.7004M142.846 61.4276C142.733 61.6094 142.565 61.5915 142.403 61.5565C142.122 61.4965 142.009 61.5135 141.892 61.7304C141.892 61.4676 142.089 61.4516 142.439 61.4476C142.589 61.4643 142.741 61.4373 142.877 61.3696C142.869 61.3866 142.856 61.4106 142.846 61.4276ZM146.74 61.6344C146.663 61.7623 146.514 61.8393 146.492 62.0081C146.475 61.9672 146.452 61.9297 146.423 61.8972L146.397 61.8692C146.311 61.7789 146.203 61.7144 146.084 61.6824C146.046 61.6732 146.007 61.6705 145.968 61.6744C145.922 61.6814 145.884 61.7114 145.837 61.7194C145.741 61.7344 145.808 61.6274 145.868 61.5255C145.942 61.3946 145.992 61.3087 145.882 61.3327C145.916 61.3165 145.955 61.3106 145.992 61.3157C146.136 61.3157 146.279 61.3417 146.418 61.3447C146.563 61.3562 146.708 61.3247 146.836 61.2537C146.771 61.3805 146.697 61.502 146.614 61.6174C146.648 61.5922 146.68 61.5645 146.71 61.5345C146.75 61.5575 146.78 61.5765 146.743 61.6344M140.654 60.943C140.636 60.9729 140.616 60.9999 140.597 61.0279C140.528 60.928 140.51 60.8011 140.425 60.7122C140.369 60.6615 140.296 60.6345 140.222 60.6362H140.215C140.502 60.4544 140.78 60.5443 140.718 60.7971C140.703 60.8483 140.681 60.8973 140.654 60.943ZM147.564 60.0637C147.543 60.1017 147.515 60.1356 147.483 60.1636C147.417 60.2205 147.343 60.2635 147.276 60.3215C147.193 60.3015 147.242 60.2445 147.371 60.1286C147.435 60.0802 147.489 60.0203 147.533 59.9518C147.574 59.9767 147.594 60.0007 147.575 60.0517L147.568 60.0647M162.193 59.8538C162.183 59.8928 162.147 59.9707 162.107 59.9757C162.067 59.9807 162.067 59.9328 162.06 59.8928C162.169 59.7569 162.194 59.7709 162.198 59.8069C162.199 59.8227 162.197 59.8386 162.193 59.8538ZM141.042 57.7875C141.026 57.8102 141.005 57.8285 140.981 57.8404C140.944 57.8514 140.906 57.8604 140.867 57.8674C140.884 57.8411 140.907 57.82 140.934 57.8065C140.971 57.7943 141.009 57.7852 141.047 57.7795V57.7875M141.349 57.7075C141.332 57.7304 141.31 57.7486 141.286 57.7605C141.25 57.7711 141.213 57.7788 141.176 57.7835C141.191 57.7579 141.214 57.7377 141.241 57.7255C141.278 57.7133 141.316 57.7046 141.354 57.6995L141.349 57.7075ZM162.616 56.3246C162.609 56.3448 162.598 56.3628 162.583 56.3768C162.567 56.3908 162.549 56.4004 162.529 56.4046C162.444 56.4111 162.36 56.4111 162.275 56.4046C162.337 56.2567 162.439 56.2047 162.626 56.2307C162.627 56.262 162.624 56.2933 162.616 56.3236M141.855 55.9359C141.713 56.0788 141.629 56.0968 141.573 56.0958H141.565C141.601 56.0487 141.645 56.0095 141.695 55.9805C141.745 55.9516 141.8 55.9333 141.857 55.927H141.864L141.855 55.9359ZM158.391 56.2297C158.38 56.2577 158.357 56.3056 158.326 56.3086C158.296 56.3116 158.282 56.2277 158.28 56.1608C158.399 56.0429 158.413 56.1018 158.413 56.1318C158.413 56.1664 158.405 56.2004 158.391 56.2317M158.607 55.832C158.598 55.857 158.575 55.914 158.557 55.918C158.539 55.922 158.55 55.818 158.55 55.818C158.569 55.7841 158.592 55.7529 158.618 55.7251C158.631 55.7161 158.634 55.7251 158.629 55.7601C158.623 55.7839 158.616 55.8072 158.607 55.83M147.697 55.6052C147.671 55.5972 147.635 55.3854 147.634 55.3834C147.633 55.3814 147.644 55.3614 147.654 55.3564C147.701 55.3334 147.715 55.5662 147.702 55.5992V55.6042M196.205 143.69C196.426 142.929 196.426 142.929 195.982 141.182C193.557 140.483 191.692 137.842 188.751 138.938C188.557 138.526 188.268 138.17 187.911 137.902C187.347 137.93 187.347 137.915 187.347 137.902C187.347 137.889 187.347 137.873 187.347 137.858C187.348 137.844 187.348 137.83 187.347 137.816C187.347 137.801 187.347 137.787 187.347 137.772V137.729C187.348 137.715 187.348 137.701 187.347 137.687C187.347 137.672 187.347 137.657 187.347 137.643C187.347 137.629 187.347 137.615 187.347 137.6C186.721 137.59 186.106 137.418 185.478 137.46C185.153 137.135 184.773 136.877 184.358 136.698C184.229 136.317 184.059 135.809 183.932 135.426C183.767 135.345 183.55 135.235 183.387 135.153C183.241 134.063 182.568 133.161 182.376 132.088C178.206 131.545 178.206 131.545 174.869 128.857C174.734 128.983 174.553 129.151 174.419 129.278C174.334 128.841 174.115 128.446 173.795 128.153H173.785H173.771C173.826 127.961 173.897 127.704 173.952 127.512L173.386 127.299C173.276 127.447 173.13 127.647 173.019 127.799C172.732 127.518 172.732 127.518 171.048 126.85C170.822 127.241 170.5 127.562 170.115 127.779C169.735 127.55 169.312 127.41 168.876 127.367C168.439 127.324 167.999 127.38 167.584 127.53C167.505 127.308 167.399 127.011 167.32 126.786C165.52 126.072 165.52 126.072 160.923 127.064C160.62 127.842 160.23 128.58 159.76 129.262L153.92 127.064C154.264 126.742 154.674 126.508 155.119 126.379C155.179 126.179 155.26 125.915 155.323 125.718C154.941 125.555 154.438 125.325 154.064 125.145C154.186 124.188 154.941 123.584 155.3 122.757C154.273 122.104 154.273 122.104 150.156 121.942C150.347 121.82 150.596 121.662 150.786 121.542C150.806 121.342 150.833 121.076 150.852 120.876L150.302 120.497C150.218 120.023 150.186 119.54 150.207 119.058C150.198 118.536 150.216 118.536 150.234 118.536H150.573C150.593 118.536 150.613 118.536 150.632 118.536C150.909 117.285 150.909 117.285 147.609 116.102C145.805 117.908 141.012 122.697 141.383 114.125C141.396 113.844 142.007 109.965 142.011 109.962C143.903 108.544 146.171 109.879 148.144 109.063C148.592 108.899 148.592 108.85 148.592 108.801C148.592 108.752 148.592 108.701 148.592 108.654V108.36C148.592 108.31 148.592 108.26 148.592 108.214V107.919C148.592 107.87 148.592 107.819 148.592 107.773C149.902 107.573 151.101 108.705 152.445 108.12C154.158 109.366 152.969 112.728 155.691 113.168C156.305 112.111 156.586 111.63 155.753 109.024C154.492 105.08 157.168 103.305 159.635 102.511C161.554 97.9147 161.554 97.9147 161.916 95.7844C163.018 95.4786 164.016 94.8651 165.136 94.6173C165.232 94.4254 165.359 94.1686 165.454 93.9778C165.365 93.746 165.345 93.746 165.326 93.746H165.269H164.983H164.926C164.94 92.6259 164.944 92.3601 167.13 91.248V91.2939C167.13 91.3089 167.13 91.3229 167.13 91.3389C167.13 91.3549 167.13 91.3689 167.13 91.3849V91.4298C167.13 91.4458 167.13 91.4598 167.13 91.4758C167.131 91.4908 167.131 91.5058 167.13 91.5207V91.5667C167.13 91.5817 167.13 91.5977 167.13 91.6117C167.539 91.5259 167.928 91.3524 168.27 91.1021C168.424 92.5349 168.424 92.5349 173.712 90.1438H173.705C174.449 89.5173 174.449 89.5173 174.594 88.3043C174.25 88.008 173.857 87.7792 173.435 87.6288C172.218 88.5071 172.218 88.5071 170.471 87.8487C170.388 87.6608 170.28 87.409 170.192 87.2202C170.633 86.687 171.108 86.1862 171.614 85.7213C172.027 85.721 172.439 85.6876 172.847 85.6214C172.84 85.4216 172.83 85.1508 172.822 84.9499L173.289 84.5223C173.653 84.6935 174.044 84.7951 174.442 84.8221C174.617 84.47 174.86 84.1602 175.156 83.9129C175.452 83.6655 175.794 83.4861 176.161 83.3862C176.104 83.564 176.029 83.8019 175.97 83.9857C177.498 83.5441 177.498 83.5441 178.563 81.5876C177.704 80.9821 177.878 79.4893 176.671 79.1795L170.474 71.2148C169.379 71.7464 169.084 73.1133 168.047 73.7129C167.741 73.48 167.333 73.1683 167.028 72.9325C167.1 72.7536 167.196 72.5138 167.266 72.3329L166.872 71.7884C166.915 71.6005 166.968 71.3517 167.016 71.1639C165.826 70.2596 164.565 69.4614 163.247 68.7778L162.876 68.2172C162.781 68.3831 162.663 68.6039 162.571 68.7698C160.089 68.8697 159.769 68.8777 159.982 70.8062L159.464 71.1289C159.462 71.5569 159.494 71.9844 159.56 72.4069H159.57C159.415 73.1063 159.07 73.7518 158.978 74.4723C160.302 75.2307 160.301 76.063 160.3 76.071C160.261 76.3226 160.195 76.5688 160.103 76.8044C159.602 77.9165 158.142 77.8036 157.621 78.8928C157.143 79.903 158.277 80.8842 157.673 81.8974L157.005 81.8384C156.694 80.5525 156.462 79.2473 156.31 77.9305C151.529 77.5558 151.716 75.6134 151.898 73.7338C151.516 73.7079 150.996 73.6699 150.612 73.6339C149.922 75.0328 149.922 75.0328 149.2 75.3705C149.158 73.7129 149.158 73.7129 148.208 72.9784C151.903 69.1964 151.903 69.1964 152.02 69.1495L152.039 69.0695C152.047 69.0436 152.052 69.0176 152.06 68.9916L152.08 68.9127C152.086 68.8867 152.092 68.8607 152.099 68.8357C152.106 68.8107 152.112 68.7828 152.12 68.7578C152.128 68.7328 152.133 68.7058 152.14 68.6788C152.148 68.6519 152.154 68.6269 152.161 68.6009C152.169 68.5749 152.174 68.5489 152.18 68.523C153.059 67.9344 154.067 67.5877 154.911 66.9362C154.851 67.1421 154.769 67.4158 154.708 67.6207L155.286 67.7955C155.28 67.9874 155.272 68.2452 155.266 68.437C156.612 68.1772 156.882 67.6756 157.162 66.8813C157.433 67.192 157.794 67.6057 158.067 67.9154C158.269 67.9224 158.535 67.9324 158.736 67.9414C158.779 67.7506 158.831 67.4968 158.879 67.3069L158.276 67.183C158.103 66.4246 158.103 66.4246 157.087 65.8231C157.352 65.511 157.519 65.1209 157.564 64.706C158.195 64.2763 158.741 63.7308 159.358 63.2821C159.296 62.8565 159.203 62.2919 159.124 61.8692L159.68 61.5785C159.74 61.1709 159.673 60.7538 159.489 60.3894L160.07 60.1776C160.81 60.5773 161.748 60.1926 162.427 60.8241L163.066 60.7421L162.791 61.1818H162.801L163.349 61.4436C162.224 62.6097 162.224 62.6097 162.137 62.8974C162.795 63.2042 162.795 63.2042 164.5 62.3189L164.967 62.7715C164.896 62.9324 164.896 62.9324 163.516 64.5401C163.532 64.73 163.555 64.9838 163.572 65.1726C162.942 65.4315 162.263 65.5311 161.589 65.4634C161.269 65.7924 160.989 66.1615 160.755 66.5625L160.987 67.1441L161.305 67.0631H161.313L161.217 67.6876C161.477 67.3483 161.819 67.0881 162.208 66.9342L162.342 67.5637C164.695 68.1453 166.982 72.0032 169.367 69.4572C169.162 69.1315 168.872 68.7088 168.645 68.3991C169.896 68.7798 169.896 68.7798 170.406 68.6758C170.501 68.3031 170.597 67.7995 170.657 67.4198C170.367 67.1284 170.18 66.7433 170.125 66.3267C168.935 65.8671 168.951 65.4014 168.971 64.695L169.591 64.632C170.653 65.7941 170.653 65.7941 171.003 65.931C171.663 65.4302 172.277 64.8655 172.836 64.2444C172.659 63.9056 172.407 63.465 172.205 63.1452L171.537 63.3371C171.529 63.1372 171.519 62.8754 171.511 62.6776C170.61 62.1319 169.751 61.5136 168.942 60.8281L169.548 60.7281C169.018 58.8656 169.018 58.8656 166.164 57.9493C166.194 57.7635 166.235 57.5157 166.267 57.3298C163.959 57.2299 162.488 54.8828 160.143 54.8898C160.037 54.7369 159.896 54.5351 159.789 54.3822H159.502C156.447 55.5443 156.447 55.5442 155.341 58.1881L155.999 58.2011C156.133 58.2781 156.114 58.2781 156.095 58.2781H155.692C155.657 58.4869 155.61 58.7667 155.575 58.9775C156.108 59.4062 156.53 59.9648 157.103 60.3435C157.103 60.5503 157.094 60.8271 157.09 61.0339C156.939 61.1718 156.74 61.3567 156.59 61.4935C156.41 61.5995 156.39 61.5994 156.368 61.5994H155.933C155.869 61.1081 155.646 60.6545 155.301 60.3145L155.024 60.2895C154.693 60.0345 154.454 59.6708 154.344 59.2567C154.235 58.8425 154.261 58.4019 154.419 58.0053C154.274 57.8914 154.08 57.7405 153.935 57.6256C153.823 55.806 155.737 55.848 156.537 54.8568C156.697 54.635 156.695 54.635 156.694 54.635H156.678C153.623 54.2023 153.623 54.2023 150.804 59.4032C149.753 59.676 148.989 60.5023 148.001 60.894C148.082 61.0619 148.192 61.2847 148.272 61.4516L148.072 62.0381L147.455 62.0291C147.408 61.8243 147.346 61.5515 147.299 61.3467C147.541 60.9601 147.723 60.5354 147.837 60.0887C148.274 60.1206 148.288 60.0936 148.3 60.0667C148.313 60.0397 148.324 60.0127 148.338 59.9867L148.375 59.9058C148.388 59.8788 148.399 59.8518 148.413 59.8249C148.426 59.7979 148.438 59.7709 148.451 59.7439C148.464 59.7169 148.477 59.691 148.488 59.664C148.5 59.637 148.514 59.611 148.526 59.5831C148.539 59.5551 148.552 59.5311 148.563 59.5041C148.115 59.1932 147.692 58.8454 147.298 58.4639C148.339 55.851 148.339 55.851 148.893 55.2175L148.408 54.8178C147.803 54.9337 147.343 55.4173 146.742 55.5372C146.37 56.1298 146.161 56.8182 145.744 57.3838C145.835 56.9282 145.894 56.4664 145.921 56.0019L145.342 55.7721L144.981 56.3186C144.868 56.1668 144.715 55.9639 144.599 55.813H143.987C144.089 55.3904 144.083 55.3904 144.083 55.3904L143.483 55.3394C143.597 54.947 143.6 54.5285 143.492 54.1344C142.842 54.1254 142.374 54.1194 142.075 53.6348C141.011 53.7607 141.012 53.7607 137.834 56.7323C137.929 57.1897 137.918 57.6642 137.802 58.1162C138.234 58.0333 138.234 58.0333 140.971 56.4086C140.72 56.7373 140.37 57.163 140.1 57.4757L140.563 57.9104L139.938 58.3301C140.034 58.5109 140.157 58.7517 140.25 58.9296C140.876 58.9156 141.499 58.8376 142.126 58.8297C141.306 59.2903 140.333 59.1724 139.496 59.5741C139.503 59.7909 139.513 60.0787 139.52 60.2955C138.509 60.2795 137.802 59.2123 136.728 59.4182C136.6 59.2853 136.427 59.1054 136.299 58.9705C136.171 59.1074 136.001 59.2883 135.874 59.4252C135.959 58.9343 136.149 58.4697 136.428 58.0653C134.69 58.4825 132.989 59.0545 131.344 59.7749C131.248 59.611 131.111 59.3912 131.012 59.2263C130.038 59.1034 129.614 58.5928 128.586 57.3598C128.605 57.152 128.63 56.8742 128.648 56.6664C128.296 56.8634 127.961 57.0935 127.649 57.3538L127.496 57.2649C123.278 60.6262 123.278 60.6262 122.376 62.8125C122.043 63.0193 122.061 62.9954 122.081 62.9704L122.136 62.8984L122.191 62.8255L122.247 62.7545C122.265 62.7296 122.284 62.7066 122.302 62.6826L122.357 62.6107L122.413 62.5387C122.432 62.5157 122.45 62.4917 122.468 62.4678C121.661 62.9034 120.654 63.445 119.644 66.0389L120.026 65.5393C120.031 65.7542 120.038 66.0389 120.043 66.2558C118.654 67.242 118.654 67.242 115.956 72.7696L116.535 72.9874C116.462 73.1253 116.462 73.1253 113.289 77.2181C114.251 76.7764 115.565 76.1709 118.393 71.8413L118.304 72.4638C119.138 72.2911 119.908 71.8754 120.526 71.2648L120.924 71.7924C122.798 71.8703 122.562 74.4493 122.557 74.4743C122.384 76.1072 122.584 77.7598 123.142 79.2954C123.061 79.5292 123.061 79.5293 122.997 83.9497C124.652 85.6584 123.65 89.2276 123.53 89.4454C123.499 89.5004 120.466 95.0469 124.097 102.821C124.001 102.982 123.886 103.197 123.795 103.359L124.204 103.871C124.572 103.884 125.063 103.913 125.433 103.947C126.453 105.51 126.769 107.455 127.939 108.938C127.714 109.318 127.597 109.758 127.602 110.206C129.404 111.916 129.404 111.916 129.454 113.189C130.132 113.815 130.766 114.491 131.351 115.213L131.829 114.833C131.814 114.492 131.71 114.162 131.528 113.878C131.347 113.594 131.095 113.367 130.799 113.223C130.579 111.84 129.755 110.649 129.62 109.237C131.022 111.487 132.778 113.477 134.087 115.797L134.091 115.928C134.091 115.972 134.091 116.015 134.098 116.06L134.103 116.191C134.103 116.235 134.108 116.278 134.11 116.321C134.111 116.364 134.114 116.408 134.116 116.452C134.118 116.496 134.116 116.54 134.122 116.583C134.128 116.626 134.127 116.671 134.129 116.714C134.131 116.757 134.129 116.801 134.135 116.846C135.345 120.56 140.312 119.953 141.473 123.723L142.061 123.434C142.135 123.129 142.156 123.129 142.179 123.129H142.383C142.404 123.129 142.427 123.129 142.448 123.129H142.649C142.73 123.3 142.84 123.528 142.918 123.699C145.548 123.86 147.187 127.011 150.117 126.268C150.874 127.105 151.3 128.196 152.075 129.019C152.042 129.219 151.998 129.495 151.965 129.697C152.9 129.727 153.123 129.734 154.769 130.884L155.261 130.416C155.714 130.918 156.332 131.22 156.989 131.261C157.164 130.871 157.295 130.462 157.38 130.04L158.035 130.076C158.988 131.303 159.512 132.834 159.522 134.415C158.349 135.547 158.349 135.547 158.281 136.313C158.252 136.334 155.468 138.386 157.793 140.237C157.397 140.615 156.735 141.25 157.337 142.928C157.446 143.124 157.605 143.284 157.797 143.391C158.252 143.71 158.665 144.089 159.026 144.52L168.034 155.711C168.004 169.716 168.004 169.716 168.889 171.116C168.957 170.91 169.048 170.636 169.118 170.429C169.492 171.393 169.492 171.393 168.813 172.927L169.308 173.345C169.117 174.854 170.549 176.542 171.981 177.236C172.318 177.456 172.331 177.456 172.342 177.456H172.605C172.934 177.726 173.338 177.879 173.757 177.892C174.176 177.906 174.588 177.778 174.933 177.529C174.123 177.025 173.43 176.338 172.906 175.518C173.318 174.99 173.456 174.273 173.981 173.82C173.977 173.794 173.972 173.766 173.966 173.739C173.96 173.712 173.956 173.684 173.949 173.656C173.942 173.628 173.938 173.602 173.933 173.575C173.927 173.548 173.921 173.519 173.915 173.492C173.91 173.465 173.906 173.437 173.9 173.408C173.894 173.379 173.89 173.353 173.885 173.326C173.878 173.298 173.872 173.27 173.868 173.242C173.862 173.215 173.857 173.187 173.851 173.16C173.644 173.091 173.373 173.002 173.161 172.933C173.126 172.746 173.076 172.498 173.041 172.309C173.244 172.226 173.518 172.114 173.717 172.029C173.848 170.93 173.848 170.93 174.531 170.385C174.184 170.168 173.878 169.885 173.629 169.551C174.075 169.566 174.521 169.558 174.966 169.527C175.061 169.102 175.22 168.543 175.348 168.128C177.755 168.08 178.021 167.329 178.307 166.542C178.103 166.128 177.962 165.682 177.889 165.222C181.772 165.657 184.059 160.168 184.083 160.112C185.182 157.415 188.269 157.432 189.928 155.495C191.726 153.397 192.356 148.886 192.382 148.317H192.401L192.994 148.19C193.854 146.533 195.645 145.584 196.196 143.687" fill="#333C5E"/>
<path d="M117.212 73.7051C117.203 73.7161 117.087 73.86 117.07 73.876C117.114 73.8151 117.162 73.7573 117.213 73.7031" fill="#00EBFF"/>
<path d="M158.498 51.5581C158.487 51.5784 158.469 51.5947 158.449 51.6051C158.411 51.6151 158.372 51.6228 158.333 51.6281C158.345 51.6037 158.365 51.5846 158.389 51.5741C158.426 51.5635 158.463 51.5558 158.501 51.5511V51.5581M161.568 51.4782C161.559 51.4985 161.543 51.5145 161.523 51.5231C161.486 51.5348 161.448 51.5435 161.41 51.5491C161.413 51.5368 161.42 51.5255 161.428 51.5162C161.437 51.5068 161.448 51.4996 161.459 51.4952C161.496 51.4832 161.534 51.4748 161.572 51.4702V51.4782M161.285 48.5655C161.274 48.5841 161.258 48.5988 161.239 48.6074C161.205 48.6178 161.17 48.6258 161.135 48.6314C161.145 48.6089 161.162 48.5911 161.184 48.5815C161.218 48.5705 161.254 48.5631 161.289 48.5595V48.5655M162.132 48.2807C162.124 48.2977 162.096 48.3516 162.081 48.3556C162.065 48.3596 162.086 48.2747 162.087 48.2737C162.106 48.246 162.128 48.2203 162.151 48.1968C162.161 48.1898 162.164 48.1908 162.163 48.2028C162.156 48.23 162.146 48.2562 162.132 48.2807ZM162.394 48.3616C162.339 48.4156 162.319 48.4186 162.311 48.4206C162.245 48.4096 162.406 48.0899 162.461 47.9899C162.534 48.0299 162.517 48.0799 162.452 48.1788C162.397 48.2607 162.371 48.3047 162.411 48.3427L162.394 48.3616ZM166.735 48.3996C166.68 48.4995 166.613 48.4166 166.57 48.3626C166.509 48.2847 166.475 48.2497 166.46 48.3167C166.441 48.2987 166.424 48.2817 166.423 48.2168C166.427 48.1336 166.437 48.0508 166.452 47.969C166.504 47.96 166.666 47.932 166.729 48.0269C166.752 48.0636 166.763 48.1069 166.762 48.1508C166.762 48.2358 166.753 48.3206 166.735 48.4036M169.139 47.0477C169.137 47.0569 169.132 47.0654 169.126 47.0726C169.12 47.0799 169.112 47.0857 169.104 47.0896C169.073 47.099 169.041 47.106 169.008 47.1106C169.011 47.1015 169.015 47.0931 169.021 47.0857C169.026 47.0783 169.033 47.0722 169.041 47.0677C169.074 47.0555 169.108 47.0468 169.142 47.0417V47.0477M158.295 47.0597C158.267 47.0966 158.256 47.0976 158.25 47.0986C158.225 47.0986 158.245 47.0157 158.245 47.0157C158.245 47.0157 158.258 47.0047 158.263 47.0007L158.282 46.9827C158.322 46.9508 158.341 46.9478 158.338 46.9737C158.329 47.0051 158.315 47.0343 158.295 47.0597ZM164.623 46.592C164.366 46.6287 164.111 46.6821 163.859 46.7519C163.798 46.9058 163.795 46.9697 163.844 47.0237C163.749 47.0457 163.688 46.9937 163.593 46.9158C163.533 46.8543 163.46 46.808 163.38 46.7803C163.3 46.7526 163.215 46.7443 163.131 46.7559C163.401 46.6715 163.663 46.5587 163.912 46.4192C163.823 46.5311 163.835 46.5471 163.912 46.5481H163.92C163.992 46.5481 164.007 46.5581 163.977 46.62C164.051 46.5711 164.148 46.5631 164.207 46.4861C164.243 46.5271 164.302 46.5411 164.541 46.5661C164.571 46.5685 164.601 46.5732 164.63 46.5801C164.626 46.5848 164.621 46.5889 164.616 46.592M165.402 46.3472C165.251 46.4667 165.073 46.5431 164.885 46.5691C164.852 46.5703 164.819 46.5635 164.789 46.5491C164.831 46.5165 164.879 46.4918 164.929 46.4761L164.948 46.4691C165.043 46.4422 165.139 46.4332 165.234 46.4072C165.285 46.3949 165.333 46.3743 165.378 46.3462C165.386 46.3425 165.394 46.3395 165.402 46.3373L165.398 46.3452M165.861 46.1384C165.836 46.1636 165.807 46.1845 165.776 46.2004C165.713 46.2373 165.691 46.2523 165.68 46.2773C165.596 46.2383 165.63 46.2084 165.724 46.1534C165.783 46.1184 165.807 46.1024 165.82 46.0775C165.844 46.0884 165.884 46.1064 165.862 46.1384M159.924 45.7647C159.91 45.7814 159.893 45.7948 159.874 45.8037C159.843 45.8116 159.811 45.8176 159.779 45.8217C159.791 45.8044 159.808 45.7907 159.827 45.7817C159.86 45.7722 159.893 45.7646 159.927 45.7587L159.922 45.7647M160.129 45.7647C160.115 45.7813 160.098 45.7943 160.079 45.8027C160.047 45.8109 160.015 45.8172 159.983 45.8217C159.996 45.8038 160.013 45.7897 160.033 45.7807C160.066 45.7704 160.1 45.7628 160.135 45.7577L160.13 45.7647M171.616 45.2441C171.577 45.2839 171.526 45.3071 171.472 45.3091C171.395 45.3091 171.386 45.2681 171.406 45.2491C171.426 45.2301 171.481 45.2111 171.627 45.2351L171.616 45.2441ZM173.652 44.2579C173.66 44.2252 173.666 44.1918 173.67 44.158C173.569 44.0481 173.569 44.0481 172.99 44.0441C172.863 43.8072 172.863 43.8073 172.875 43.6923C172.398 43.7323 171.921 43.6324 171.443 43.7163L171.539 43.6764C170.933 43.5232 170.312 43.4424 169.689 43.4355C169.39 43.4501 169.099 43.5395 168.84 43.6963C168.002 43.4547 167.111 43.5034 166.301 43.8352C166.26 43.8126 166.215 43.799 166.169 43.7955C166.124 43.792 166.077 43.7985 166.034 43.8147C165.991 43.8308 165.951 43.8563 165.917 43.8894C165.884 43.9226 165.857 43.9626 165.84 44.0071L165.801 44.0171C165.388 43.9571 165.429 44.5007 165.144 44.6246C165.135 44.6156 164.302 43.7903 163.943 44.4937C163.631 44.4268 163.466 44.7085 163.221 44.8125C163.216 44.7765 163.211 44.7285 163.206 44.6916C162.899 44.4767 162.262 44.9194 162.235 44.9384C161.798 44.7615 161.193 45.1812 161.017 45.3141C161.24 45.5279 161.453 45.2291 161.674 45.3041C161.601 45.3095 161.53 45.3299 161.464 45.3642C161.399 45.3985 161.34 45.446 161.292 45.5039C161.346 45.542 161.409 45.5651 161.474 45.5708C161.399 45.7257 161.148 45.8147 161.25 46.0355C161.321 46.0495 161.395 46.0495 161.466 46.0355C161.613 46.664 162.211 46.4621 162.46 46.3462C162.364 46.4751 162.39 46.5181 162.477 46.612C162.651 46.5701 162.753 46.4022 162.916 46.3422C162.834 46.5421 162.834 46.5421 162.916 46.68C162.725 46.73 162.524 46.73 162.333 46.68C162.094 46.9597 162.134 47.4554 161.684 47.5673C161.821 47.4294 161.875 47.2305 162.001 47.0846L161.877 47.0667C161.862 46.8998 161.924 46.7409 161.922 46.5761C161.54 46.615 161.54 46.615 161.239 46.9508C161.234 46.8646 161.246 46.7782 161.275 46.6974C161.304 46.6165 161.349 46.5428 161.407 46.4811C161.243 46.4404 161.073 46.4367 160.907 46.4701C160.56 45.5529 160.56 45.5529 160.43 45.4979C160.005 45.3181 159.842 45.8406 159.496 45.8736C158.906 45.9286 158.637 46.5321 158.124 46.7279C158.099 46.7996 158.067 46.8683 158.029 46.9328H157.929C157.642 47.3055 157.659 47.3984 157.694 47.5643L157.862 47.6212C157.767 47.7008 157.684 47.7947 157.615 47.9C157.728 48.0479 157.728 48.0479 158.952 47.976C158.64 48.2098 158.207 48.1698 157.924 48.4686C157.985 48.7893 157.985 48.7893 158.026 48.8682C158.109 48.8958 158.196 48.9093 158.284 48.9082C158.194 48.9829 158.134 49.0897 158.115 49.208C158.335 49.3751 158.596 49.4754 158.867 49.4978C159.139 49.5201 159.411 49.4638 159.654 49.3349C159.666 49.3639 159.679 49.4018 159.689 49.4348L159.805 49.4828C159.944 49.4016 160.074 49.3051 160.193 49.195C160.575 49.2849 160.704 48.8543 161 48.7693C160.54 49.2419 160.54 49.2419 160.461 49.4997C161.311 49.8455 161.311 49.8455 161.013 50.1682C161.191 49.6686 160.57 49.5797 160.2 49.7455C159.905 49.8784 159.627 50.0043 159.94 50.5599C159.523 50.8127 159.011 50.8077 158.604 51.0835C158.604 51.0084 158.587 50.9343 158.554 50.8677C158.374 50.9906 158.148 51.0385 158.014 51.2344C157.647 51.0195 157.319 51.3223 156.964 51.3203C156.6 50.7548 156.479 50.5649 155.262 50.8337C155.191 50.9819 155.091 51.113 154.969 51.2184C155.446 51.8279 155.622 52.0557 156.569 51.7739C156.54 51.9118 156.54 51.9118 156.664 52.4884C156.439 52.7002 156.439 52.7002 156.052 53.4596H156.188C156.204 53.5805 156.204 53.5805 156.131 53.8713C157.771 53.9013 157.771 53.9013 158.005 53.7094C157.913 53.8279 157.853 53.9701 157.831 54.1211C158.408 54.1504 158.987 54.129 159.56 54.0571C160.038 53.9142 160.405 53.006 160.922 53.4846C160.935 53.6213 160.901 53.7584 160.826 53.8713C161.028 54.0341 161.028 54.0341 162.449 53.9442C162.708 53.5955 162.936 53.2228 163.203 52.8801C162.364 51.9748 160.715 52.2805 159.554 52.8161C159.354 52.6804 159.127 52.5952 158.891 52.5675C158.654 52.5397 158.415 52.5701 158.192 52.6562C158.228 52.5963 158.228 52.5963 158.152 52.0187C158.377 52.0817 158.473 51.9848 158.64 51.662C159.412 51.737 160.186 51.7699 160.955 51.8619C161.044 51.7112 161.184 51.6005 161.347 51.5511C161.644 51.9218 161.95 51.8579 162.79 51.6211C162.713 51.728 162.625 51.8279 162.549 51.9368C163.223 51.8481 163.886 51.6867 164.529 51.4552C164.6 51.3568 164.65 51.2432 164.676 51.1224C164.701 51.0016 164.701 50.8765 164.676 50.7558C164.512 50.7406 164.349 50.7878 164.217 50.8886C164.121 50.6718 164.136 50.6528 164.221 50.5309C164.782 50.6069 164.855 50.0173 165.182 49.7745C165.737 49.9124 166.121 49.4688 166.592 49.3199C166.669 49.0551 166.886 48.8862 167.022 48.6614C166.971 48.5862 166.916 48.5141 166.857 48.4456C167.129 48.2018 167.129 48.2018 167.037 47.946C167.092 47.909 167.154 47.8836 167.218 47.871C167.232 47.844 167.248 47.8081 167.26 47.7811C167.219 47.7261 167.187 47.6643 167.165 47.5982C167.71 47.2086 168.325 47.7381 168.878 47.4564C169.564 47.1046 169.994 46.3832 170.717 46.0834C170.795 46.0566 170.874 46.0356 170.955 46.0205C171.429 45.9314 171.867 45.6981 172.215 45.35C172.201 45.3201 172.184 45.2811 172.172 45.2501C172.073 45.2276 171.971 45.2236 171.871 45.2381C172.42 44.9883 173.008 44.8544 173.567 44.6386C173.586 44.5087 173.618 44.3814 173.663 44.2589" fill="#00EBFF"/>
<path d="M223.67 54.248C223.701 54.2789 223.711 54.2919 223.718 54.2989C223.726 54.3059 223.726 54.3219 223.733 54.3329C223.712 54.3142 223.693 54.2941 223.674 54.2729C223.668 54.2639 223.668 54.251 223.662 54.241L223.67 54.248ZM221.719 52.3085C221.737 52.3235 221.755 52.3399 221.771 52.3575C221.779 52.3674 221.784 52.3794 221.792 52.3894C221.771 52.3724 221.751 52.3541 221.732 52.3345C221.725 52.3255 221.721 52.3125 221.712 52.3015L221.719 52.3085ZM221.359 51.9908C221.381 52.0081 221.402 52.0278 221.42 52.0497C221.429 52.0597 221.428 52.0627 221.427 52.0647V52.0737C221.403 52.0535 221.381 52.0318 221.36 52.0087C221.351 51.9987 221.351 51.9957 221.352 51.9927V51.9827L221.361 51.9908M220.539 51.2054L220.58 51.2393C220.585 51.2422 220.589 51.2463 220.592 51.2513C220.525 51.2044 220.461 51.1516 220.402 51.0935C220.412 51.0935 220.543 51.2044 220.544 51.2054M217.046 48.2487L215.66 47.2715L215.684 47.2885C216.309 47.7323 216.908 48.2138 217.479 48.7303L217.375 48.6664C218.246 49.4058 218.774 49.8504 218.944 49.9873C218.931 49.9743 218.915 49.9594 218.904 49.9464C219.054 50.0463 219.191 50.1672 219.338 50.2721L219.293 50.2371C219.33 50.2605 219.365 50.2858 219.399 50.3131L219.354 50.3061L219.368 50.3521C219.302 50.3252 219.241 50.2885 219.185 50.2431C220.101 51.0025 220.912 51.8868 221.825 52.6522C221.791 52.6428 221.759 52.6276 221.73 52.6073C222.196 53.1372 222.701 53.6292 223.239 54.0791C223.19 54.0253 223.139 53.9746 223.084 53.9272C223.221 54.0032 223.305 54.145 223.434 54.233C223.407 54.2011 223.382 54.1677 223.359 54.1331C223.932 54.227 224.168 54.8325 224.645 55.0733C224.626 55.0024 224.626 55.0024 224.47 54.8345C224.58 54.943 224.702 55.0379 224.833 55.1173C224.794 55.0313 224.794 55.0313 224.624 54.8555L224.579 54.8655C222.88 53.3367 221.237 51.7459 219.484 50.2801L219.526 50.3081C219.4 50.1775 219.264 50.0572 219.12 49.9484L219.16 49.9793C219.117 49.9404 219.073 49.9034 219.028 49.8654C219.088 49.9074 219.146 49.9514 219.204 49.9943C217.416 48.5095 217.416 48.5095 217.048 48.2467" fill="#00EBFF"/>
<path d="M237.301 146.389C237.307 146.365 237.314 146.342 237.323 146.32C237.187 146.375 237.119 146.601 237.048 146.732C236.083 148.5 233.755 151.853 233.733 151.883C233.072 152.968 232.259 153.941 231.32 154.772C231.344 154.635 232.853 152.138 232.868 152.116C233.469 151.194 234.225 150.388 234.765 149.418C235.291 148.322 235.966 147.313 236.77 146.421C237.67 145.328 238.424 144.114 239.013 142.811C238.543 144.063 237.97 145.27 237.3 146.418C237.3 146.41 237.3 146.399 237.305 146.392" fill="#00EBFF"/>
<path d="M234.308 93.3222C234.288 93.2639 234.265 93.2071 234.237 93.1523C234.252 93.1823 234.263 93.2143 234.277 93.2452C234.284 93.2699 234.295 93.2937 234.307 93.3162M234.236 93.1433C234.222 93.1143 234.208 93.0854 234.193 93.0574L234.232 93.1383M234.179 93.0384L234.19 93.0574C234.123 92.9214 234.041 92.7946 233.945 92.6797C233.945 92.7007 233.966 92.7277 234.024 92.8016C234.081 92.8755 234.134 92.9533 234.181 93.0344" fill="#00EBFF"/>
<path d="M217.528 80.3476C217.544 80.4375 217.492 80.4215 217.432 80.4015C217.322 80.3655 217.29 80.3865 217.337 80.5784C217.324 80.5767 217.312 80.5723 217.301 80.5657C217.29 80.559 217.28 80.55 217.273 80.5394L217.266 80.5284C217.213 80.4605 217.198 80.3715 217.153 80.3006C217.119 80.2496 217.087 80.2437 217.075 80.2437C217.039 80.2437 216.98 80.1637 216.98 80.1567C216.98 80.1497 217.009 80.1497 217.106 80.1797C217.312 80.2446 217.419 80.2546 217.488 80.2137C217.506 80.2567 217.52 80.3016 217.531 80.3476M216.608 79.2824C216.65 79.4313 216.608 79.5422 216.488 79.4723L216.475 79.4643V79.4503L216.47 79.4353V79.4223L216.465 79.4083V79.3943L216.46 79.3793V79.3653L216.456 79.3514V79.3364L216.451 79.3234L216.446 79.3094L216.441 79.2944V79.2804V79.2664L216.436 79.2524L216.432 79.2384C216.44 79.2395 216.449 79.2395 216.457 79.2384C216.497 79.2304 216.5 79.2105 216.482 79.1185C216.549 79.0956 216.608 79.1875 216.635 79.2814M220.914 78.9157C220.907 78.7733 220.87 78.6344 220.804 78.5094C220.739 78.3843 220.647 78.2764 220.536 78.1938C220.425 78.1111 220.298 78.0558 220.164 78.032C220.029 78.0082 219.892 78.0165 219.761 78.0564C219.632 77.8565 219.497 77.6467 218.727 76.4137C218.499 76.5216 217.595 75.992 217.476 75.0258C217.691 75.2136 217.624 75.7902 218.001 75.6903C217.992 75.3795 218.002 75.0684 218.031 74.759C217.719 74.701 217.402 74.797 217.09 74.734C216.844 74.7028 216.612 74.5988 216.421 74.4342C216.517 72.9095 216.517 72.9095 216.305 72.6517C216.182 72.5028 215.732 72.5757 215.587 72.5987C215.346 72.678 215.085 72.6558 214.86 72.5368C215.265 72.3479 215.254 71.9282 214.825 71.2168C214.805 71.2468 214.781 71.2867 214.762 71.3167C214.531 71.6395 214.327 71.7554 213.673 71.6275C213.696 72.0721 213.578 72.5078 213.599 72.9534C213.559 72.9111 213.508 72.8819 213.453 72.8692C213.397 72.8566 213.339 72.8612 213.286 72.8823C213.233 72.9035 213.187 72.9404 213.153 72.9885C213.12 73.0366 213.101 73.0939 213.098 73.1533C213.098 73.2312 213.098 73.2312 213.877 73.9357C213.618 74.2074 213.954 74.685 214.228 74.9229C213.721 74.8629 214.075 75.4904 214.08 75.4964C214.102 75.5222 214.128 75.5435 214.157 75.5594C214.308 75.6503 214.489 75.5494 214.64 75.6373C214.765 75.7112 214.709 75.9121 214.856 75.97C214.939 76.003 215.012 75.9321 215.059 75.8851C215.132 75.8142 215.142 75.8172 215.206 75.8381C215.226 76.0004 215.233 76.1642 215.227 76.3278C215.391 76.4292 215.575 76.4876 215.765 76.4979C215.956 76.5082 216.145 76.47 216.318 76.3867C216.343 76.4901 216.378 76.5906 216.423 76.6865C216.597 76.9692 216.931 77.0722 217.116 77.3419C217.212 77.4808 217.116 77.6507 217.182 77.7946C216.943 77.9155 216.943 77.9155 216.253 77.8605C216.291 78.496 216.295 78.56 215.92 78.4601C216.128 79.018 216.302 79.589 216.442 80.1697C216.862 80.2826 216.862 80.2826 216.944 80.3695C216.954 80.4025 216.964 80.4365 216.974 80.4695C216.984 80.5024 216.994 80.5364 217.005 80.5694L217.033 80.6693L217.063 80.7692C217.072 80.8032 217.082 80.8372 217.093 80.8692C217.101 80.9029 217.111 80.9363 217.122 80.9691C217.132 81.0021 217.14 81.035 217.151 81.069C217.161 81.103 217.17 81.1359 217.18 81.1689C217.076 81.3688 216.843 81.4317 216.75 81.6365C216.666 81.8244 216.679 81.8864 216.737 82.1471C216.898 82.0892 217.015 82.2251 217.159 82.2471C217.593 81.7345 217.66 81.6555 218.246 81.8094C218.15 80.7702 219.582 81.3478 219.596 81.3538C219.965 80.9821 220.169 80.8112 220.432 81.2908C220.468 81.091 220.511 81.026 220.825 80.8841C221.015 80.7982 221.086 80.7652 221.097 80.0588C220.937 79.9499 220.715 80.0088 220.572 79.859C220.709 79.7511 220.814 79.6045 220.874 79.4365C220.934 79.2685 220.946 79.086 220.91 78.9107" fill="#00EBFF"/>
<path d="M227.022 74.5866C227.022 74.5866 227.022 74.6366 227.016 74.6316C227.01 74.6172 227.004 74.6021 227.001 74.5866H227.014H227.022ZM247.358 105.308L247.353 105.299V105.322V105.329C247.353 105.322 247.353 105.315 247.353 105.307M245.348 92.5484C245.663 94.0642 245.704 94.259 245.581 94.3839C245.528 94.3839 245.479 94.339 245.313 94.0422C245.147 93.7454 245.148 93.7424 245.1 93.6645C245.063 93.6045 245.005 93.5646 244.979 93.4966L244.769 92.6273C244.751 92.5274 244.781 92.4355 244.769 92.3395C244.728 92.0488 244.656 91.764 244.606 91.4752C244.701 91.3523 244.683 90.9317 244.848 91.0755C245.119 91.3074 244.935 91.719 245.174 91.9628C245.183 91.944 245.188 91.9231 245.187 91.9019C245.247 92.1087 245.277 92.2126 245.349 92.5504M237.561 91.8749C237.539 91.9873 237.55 92.1039 237.592 92.2096C237.683 92.4758 237.735 92.7547 237.748 93.037C237.643 92.8911 237.544 92.9261 237.327 93.045C237.048 93.1979 236.953 93.1199 236.883 92.6843C236.925 92.7246 236.981 92.7464 237.038 92.7452C237.218 92.6863 237.229 92.5004 237.286 91.6121C237.411 91.6421 237.433 91.9339 237.565 91.832C237.565 91.8449 237.565 91.8619 237.561 91.8749ZM244.721 89.7626C244.672 89.6905 244.629 89.6147 244.59 89.5358C244.538 89.3854 244.492 89.2324 244.455 89.0771C244.432 88.9872 244.423 88.9712 244.409 88.9622C244.395 88.9532 244.409 88.9392 244.409 88.9342C244.528 89.21 244.626 89.4954 244.702 89.7876L244.695 89.7756M231.538 88.6764C231.543 88.6994 231.549 88.7324 231.554 88.7574C231.531 88.77 231.506 88.7778 231.48 88.7804C231.368 88.7804 231.309 88.7134 231.207 88.5595C231.104 88.4057 231.041 88.3297 230.934 88.3277C231.137 88.1059 231.412 88.1189 231.538 88.6764ZM230.859 88.0769C230.764 88 230.668 87.929 230.577 87.8561C230.586 87.8651 230.599 87.8761 230.609 87.8841L230.8 88.032C230.821 88.0479 230.839 88.0639 230.86 88.0769M242.748 83.8802C242.823 84.1031 242.885 84.3299 242.958 84.5547C242.928 84.5044 242.889 84.4609 242.842 84.4268C242.79 84.4928 242.784 84.4988 242.858 84.9344C242.933 85.3701 242.929 85.405 242.907 85.5279C242.92 85.5629 242.93 85.5989 242.942 85.6339C242.953 85.6688 242.964 85.7028 242.977 85.7338C242.989 85.7647 242.999 85.8037 243.01 85.8397C243.022 85.8757 243.033 85.9086 243.044 85.9396L243.078 86.0395C243.089 86.0745 243.099 86.1105 243.112 86.1454C243.124 86.1804 243.133 86.2154 243.145 86.2514C243.156 86.2873 243.168 86.3213 243.178 86.3513C243.265 86.5511 243.289 86.5571 243.333 86.5601C243.821 87.7138 244.248 88.8946 244.611 90.0973C244.543 90.1563 244.543 90.1563 244.553 90.6729C244.391 90.0374 244.335 90.0024 244.232 89.9904C244.192 89.8605 244.137 89.6906 244.092 89.5597C244.07 89.5038 244.041 89.4269 244.018 89.3699C243.854 88.9582 243.63 88.5775 243.45 88.1709C243.31 87.6416 243.136 87.1228 242.929 86.6181C242.579 86.1053 242.435 85.4693 242.527 84.8465C242.457 84.4719 242.411 84.0926 242.391 83.7114C242.416 83.2567 242.599 83.4576 242.601 83.4596C242.603 83.4616 242.679 83.6364 242.753 83.8593M239.774 84.3589C239.805 84.6127 239.851 84.8643 239.911 85.1123C239.796 85.0775 239.676 85.0591 239.556 85.0573C239.522 85.0653 239.492 85.0835 239.468 85.1097C239.445 85.1358 239.429 85.1687 239.423 85.2042C239.249 84.5827 239.312 84.4908 239.448 84.3699C239.495 84.3319 239.533 84.2821 239.557 84.225C239.581 84.1679 239.591 84.1054 239.587 84.0431C239.638 84.0782 239.682 84.1246 239.715 84.1791C239.748 84.2336 239.769 84.295 239.777 84.3589M227.172 75.5788C227.191 75.6181 227.202 75.6615 227.202 75.7056C227.203 75.7498 227.194 75.7936 227.177 75.8336C227.16 75.8698 227.151 75.9093 227.15 75.9495C227.149 75.9897 227.157 76.0295 227.172 76.0664C227.103 76.1084 227.066 76.0155 227.011 75.8576C226.957 75.6997 226.916 75.5908 226.853 75.6398C226.853 75.6028 226.853 75.5538 226.884 75.5399C226.909 75.5354 226.935 75.5393 226.958 75.5508C226.985 75.5639 227.016 75.5694 227.046 75.5668C227.086 75.5608 227.105 75.5418 227.131 75.4899C227.145 75.5189 227.159 75.5469 227.172 75.5768M229.446 71.6419C229.478 71.7118 229.506 71.7839 229.528 71.8578C229.564 71.9767 229.587 72.0996 229.624 72.2195C229.508 72.0351 229.364 71.8723 229.198 71.7379C229.073 71.6424 228.962 71.529 228.867 71.4011C228.867 71.4011 228.858 71.2842 228.963 71.3012C229.068 71.3182 229.249 71.4831 229.23 71.3522C229.324 71.4276 229.399 71.5256 229.449 71.6379M228.138 69.3637C228.16 69.4067 228.152 69.4217 228.15 69.4267C228.139 69.4527 228.108 69.4517 228.092 69.4707C228.077 69.4489 228.071 69.4223 228.073 69.3957C228.073 69.3817 228.093 69.3757 228.106 69.3697C228.116 69.3673 228.126 69.3621 228.133 69.3548L228.138 69.3637ZM229.511 68.6233C229.522 68.7233 229.492 68.7322 229.482 68.7342C229.417 68.7342 229.324 68.5864 229.352 68.5544C229.379 68.5224 229.478 68.5874 229.51 68.6073V68.6233M229.505 69.1699C229.334 69.0522 229.129 69.0003 228.926 69.023C228.888 68.8781 228.866 68.8392 228.806 68.8182C228.77 68.6943 228.758 68.5684 228.957 68.5704C228.978 68.6459 228.974 68.7267 228.945 68.7992C228.972 68.8447 229.011 68.8818 229.056 68.9064C229.102 68.931 229.153 68.9423 229.204 68.9391C229.327 68.9451 229.395 68.9781 229.505 69.1699ZM228.652 63.3875C228.593 63.3399 228.536 63.2893 228.482 63.2356C228.495 63.2436 228.652 63.3875 228.652 63.3875ZM224.057 62.714C224.375 63.1916 224.273 63.3455 224.212 63.4385C224.306 63.5227 224.389 63.6191 224.46 63.7252C224.282 64.0759 224.249 64.1389 224.585 64.7714H224.554L224.524 64.7764C224.513 64.7758 224.503 64.7758 224.492 64.7764H224.46L224.43 64.7814H224.398H224.367H224.334C224.357 64.5475 224.303 64.3125 224.181 64.1149C223.923 63.5813 223.561 63.1157 223.278 62.5961C223.398 62.5107 223.542 62.4738 223.686 62.4922C223.829 62.5106 223.961 62.583 224.057 62.696M227.685 61.1283C227.908 61.628 228.247 62.0616 228.671 62.3893C228.518 62.3459 228.373 62.2785 228.24 62.1894C227.738 61.9227 227.652 61.9127 227.578 61.9566C227.551 62.0905 227.704 62.3183 228.288 63.0158V63.0268C228.143 62.9863 228 62.9352 227.862 62.8739C227.592 62.5878 227.346 62.2783 227.126 61.9486C226.898 61.5894 226.621 61.2674 226.303 60.9934C226.475 60.9969 226.644 61.0363 226.801 61.1093C227.322 61.2901 227.642 61.3841 227.661 61.0543C227.67 61.0763 227.685 61.1033 227.693 61.1243M222.489 58.2985C222.54 58.3543 222.585 58.4152 222.624 58.4804C222.565 58.4233 222.508 58.3626 222.455 58.2985C222.437 58.2736 222.422 58.2464 222.41 58.2176C222.41 58.2176 222.423 58.2176 222.488 58.2995M232.87 63.8741C230.922 61.448 228.233 58.2875 226.125 56.0103L226.099 55.9834L225.613 55.4997C226.09 56.1147 226.536 56.7554 226.949 57.4192C226.825 57.2953 226.657 57.1294 226.531 57.0055L226.291 56.7537C226.576 57.7228 227.068 58.6112 227.73 59.3517C227.393 59.1688 227.105 58.9018 226.89 58.5743C226.571 58.4224 226.559 58.4084 226.545 58.3924C226.532 58.3765 226.519 58.3625 226.504 58.3485C226.49 58.3345 226.477 58.3175 226.463 58.3025C226.45 58.2875 226.436 58.2725 226.423 58.2575L226.383 58.2126L226.342 58.1686C226.329 58.1536 226.316 58.1386 226.302 58.1237L226.262 58.0797L225.854 57.5931C226.236 58.5811 226.883 59.4321 227.717 60.0431C227.662 60.2 227.586 60.4098 227.531 60.5667C225.674 57.698 219.694 54.9712 218.215 55.2479C218.159 55.6146 218.068 56.1023 217.989 56.465L217.493 56.6498C217.195 58.8281 217.195 58.8281 217.276 58.998C217.218 59.1708 217.142 59.3977 217.085 59.5705C217.186 59.7114 217.318 59.8963 217.416 60.0371L217.966 59.9882C218.213 60.8815 218.504 61.7588 218.758 62.6481L218.787 62.9069C218.712 63.5184 218.834 64.1359 218.736 64.7484C218.582 64.8173 218.38 64.9113 218.228 64.9812C217.721 70.6927 220.159 72.1236 221.657 72.4693C221.83 72.7561 222.059 73.1408 222.23 73.4295C222.21 73.0367 222.271 72.644 222.41 72.2786C222.549 71.9131 222.763 71.5837 223.036 71.3132C224.207 72.4336 225.436 73.486 226.717 74.4657C227.062 74.5576 227.062 74.5566 227.061 74.5556C227.191 74.4008 227.365 74.1949 227.495 74.041C227.277 72.3114 225.934 70.8206 226.492 68.9271C224.192 67.0416 224.192 67.0416 224.469 65.5788C227.787 69.4757 227.787 69.4757 228.106 69.5666C227.916 69.9963 227.595 70.7137 229.443 74.6386L228.887 74.6276C228.639 74.9293 228.323 75.1609 227.968 75.301C227.912 75.4709 227.834 75.7007 227.777 75.8686C226.928 75.0922 225.93 74.5277 225.059 73.7852C224.995 73.8512 224.911 73.9391 224.847 74.0041C224.333 73.4197 223.898 72.7645 223.553 72.0566C223.217 72.1919 222.939 72.4507 222.772 72.7847C222.605 73.1187 222.56 73.5049 222.645 73.8712L222.589 74.078H222.584C223.039 75.0582 223.669 75.9355 224.117 76.9188L223.692 76.4781C223.281 77.0476 222.84 77.5921 222.37 78.1088C222.258 78.4785 222.239 78.4795 222.218 78.4815L222.16 78.4865L222.102 78.4915H222.044H221.985C221.965 78.4915 221.945 78.4915 221.926 78.4915L221.867 78.4965H221.809C221.917 78.8801 222.057 79.2535 222.225 79.6126C221.973 80.1612 221.354 80.46 221.27 81.1234C221.285 81.3043 221.304 81.5451 221.32 81.723L220.794 81.8868C220.769 82.0707 220.735 82.3155 220.711 82.4993C220.384 82.4184 219.947 82.3305 219.614 82.2865C219.567 82.6767 219.639 83.0724 219.819 83.4176C218.251 83.2517 218.107 83.5235 217.824 84.0621C218.481 85.7768 220.497 86.1365 221.248 87.7592L220.76 88.0929L221.283 88.3197C221.343 88.7131 221.369 89.1115 221.36 89.5098C216.445 90.1093 216.445 90.1093 216.151 90.3331C216.533 92.0158 216.533 92.0158 216.416 92.6733L216.93 92.8182C216.727 93.1099 216.596 93.4497 216.548 93.8074C216.649 93.9363 216.787 94.1071 216.891 94.239C216.768 95.4381 217.427 96.4982 217.489 97.6673C218.029 97.6373 218.567 97.5934 219.112 97.5604C219.324 97.8661 219.56 98.1528 219.817 98.4177C223.951 97.8622 224.041 96.1125 224.223 92.6273C225.863 91.768 225.707 91.3983 225.19 90.1713C225.918 89.9584 226.685 90.2432 227.41 89.9834C227.462 89.7926 227.53 89.5358 227.581 89.3449C227.893 89.1667 228.136 88.882 228.271 88.5386C228.568 88.6911 228.82 88.9248 229.001 89.2151C229.181 89.5053 229.284 89.8412 229.297 90.1872C231.589 89.9584 233.336 94.2001 233.346 94.244C232.875 94.7217 232.826 94.7716 231.884 94.7177C231.841 94.9815 231.782 95.3342 231.738 95.599C231.94 95.8727 231.94 95.8727 233.311 96.8789C233.713 95.5224 233.843 94.0938 233.693 92.6823L233.946 92.2047C233.576 90.9936 232.149 90.538 231.952 89.207C232.68 89.4714 233.351 89.8844 233.926 90.4221C233.89 90.7218 233.861 91.1325 233.857 91.4373C234.03 91.8369 234.245 92.3835 234.395 92.7952C234.427 92.6073 234.471 92.3575 234.502 92.1707C235.347 94.0162 236.631 95.6299 237.21 97.6184C237.327 96.6139 237.58 95.632 237.962 94.7027L238.073 94.6297C237.861 93.925 237.798 93.1802 237.889 92.4475L238.106 92.2806L238.151 91.5672C238.125 90.0913 238.125 90.0913 237.864 85.3831L238.382 85.499C238.634 86.0499 238.938 86.5731 239.29 87.0607C239.582 86.7936 239.854 86.503 240.103 86.1914C240.737 86.8376 241.325 87.5301 241.865 88.2638C241.834 88.648 241.92 89.0325 242.11 89.3629C242.077 89.5238 242.032 89.7356 241.997 89.8955C241.281 89.7786 241.138 89.7546 240.458 88.9282C240.156 89.0057 239.882 89.1741 239.669 89.4127C239.457 89.6514 239.317 89.9498 239.265 90.2712C239.16 90.1163 239.018 89.9095 238.912 89.7536C237.92 90.8677 237.92 90.8677 239.318 96.9479C239.44 96.828 239.599 96.6671 239.719 96.5482L240.237 96.856C240.267 97.0158 240.309 97.2297 240.341 97.3886C240.422 97.0069 240.518 96.4892 240.576 96.1065C240.903 96.3258 241.286 96.4385 241.675 96.4303L241.806 95.7838C241.817 95.7998 242.844 97.3826 242.067 98.6755C242.373 99.1571 242.544 99.4219 242.274 101.087C241.319 100.876 241.319 100.876 240.868 100.375C240.845 100.734 240.798 101.212 240.752 101.568C240.247 101.364 239.721 101.22 239.185 101.14C239.099 100.994 238.982 100.799 238.898 100.653L238.362 100.636C238.171 100.394 238.171 100.394 237.615 98.9123C237.388 99.28 237.388 99.28 236.392 102.922C236.185 102.632 235.919 102.394 235.613 102.224C235.308 102.054 234.97 101.956 234.625 101.939C234.487 101.326 234.272 100.735 233.986 100.181L233.523 100.492L233 100.343C232.923 99.9495 232.79 99.5704 232.603 99.2191L232.083 99.0962C230.207 95.4341 230.207 95.4341 229.466 96.3684C228.694 96.1525 227.974 96.7081 227.206 96.5292L226.978 96.5372L226.727 96.5642L226.706 96.5712L226.629 96.5872L226.343 96.6641C225.829 96.853 225.329 97.0788 224.81 97.2526C224.56 97.2607 224.313 97.3082 224.076 97.3935L224.04 97.4275L216.946 102.723C216.924 103.334 217.16 103.922 217.097 104.536L216.603 104.745C216.646 104.924 216.698 105.162 216.743 105.344L217.238 105.588C216.583 106.687 215.246 107.164 214.816 108.464C214.488 108.664 214.489 108.69 214.489 108.717V108.799V108.881C214.489 108.908 214.489 108.936 214.489 108.964V109.046V109.129C214.489 109.156 214.489 109.184 214.489 109.211V109.293C213.298 110.586 212.777 111.499 212.018 116.002C213.856 117.849 212.095 120.555 211.344 121.71C211.917 122.584 211.917 122.584 211.653 123.282C212.003 124.007 212.003 124.007 212.035 125.698C212.388 125.861 212.771 125.938 213.156 125.925C214.373 127.239 214.373 127.239 214.426 128.013C214.285 128.129 214.097 128.281 213.956 128.397C213.63 128.097 213.627 128.122 213.624 128.153L213.615 128.244C213.615 128.275 213.608 128.305 213.605 128.335C213.601 128.365 213.599 128.397 213.597 128.427C213.595 128.457 213.59 128.488 213.587 128.518C213.585 128.548 213.581 128.58 213.579 128.611C213.577 128.642 213.571 128.672 213.569 128.703L213.558 128.795C214.324 129.037 215.051 129.397 215.717 129.863C215.717 130.052 215.708 130.306 215.705 130.494C219.635 133.052 222.967 129.647 226.608 129.319C227.104 129.847 227.085 130.67 227.6 131.187L228.131 131.15C228.163 131.32 228.205 131.549 228.235 131.716C228.339 131.59 228.472 131.424 228.574 131.3C228.626 131.46 228.696 131.674 228.747 131.835L229.277 131.78C229.313 131.995 229.333 132.213 229.336 132.432C229.231 133.8 228.064 134.73 227.94 136.094C227.8 137.648 228.756 139.027 228.602 140.582C228.555 141.049 228.332 141.64 228.256 142.101C227.903 144.232 227.564 144.654 227.047 145.292C226.994 145.356 219.018 162.678 218.995 162.778C220.897 162.572 222.674 161.693 224.034 160.288H224.04C227.684 157.462 229.918 153.334 232.927 149.921C232.77 150.321 232.545 150.851 232.369 151.242C233.163 150.361 233.863 149.393 234.459 148.354L234.515 148.189H234.522C239.591 143.067 240.016 135.424 243.862 129.638L244.028 129.429C244.072 129.239 244.132 128.988 244.178 128.799C244.123 128.951 244.048 129.152 243.995 129.304L243.964 129.338C244.601 126.467 245.669 123.71 246.065 120.778C245.718 121.303 245.324 121.793 244.889 122.241C244.67 121.554 244.595 120.826 244.671 120.107C244.625 119.107 244.639 118.106 244.714 117.109L244.258 116.734C244.264 116.368 244.269 115.881 244.27 115.515C244.303 115.036 244.303 115.036 244.302 115.036C244.283 114.996 244.283 114.996 242.848 105.726C244.239 107.299 244.425 111.471 244.834 120.614L244.803 120.93C246.352 119.331 247.236 116.604 247.433 112.811L247.439 112.804L247.445 112.798L247.45 112.79L247.458 112.783V112.776L247.462 112.769L247.467 112.763V112.756C247.701 110.467 247.641 108.155 247.29 105.882C247.36 106.526 247.265 107.177 247.016 107.77C247.046 107.404 247.035 107.035 246.984 106.671C246.771 106.327 246.77 106.284 246.767 106.24C246.764 106.196 246.767 106.152 246.762 106.108C246.756 106.064 246.762 106.02 246.762 105.976C246.762 105.932 246.762 105.888 246.756 105.844C246.75 105.8 246.751 105.756 246.75 105.712L246.742 105.581C246.742 105.536 246.742 105.493 246.737 105.448L246.729 105.317C246.505 104.674 246.368 104.002 246.323 103.319C246.859 104.383 247.244 105.523 247.469 106.702C247.312 103.245 246.88 98.6436 246.397 95.2183C244.712 87.5803 244.712 87.5803 243.437 83.9142C240.648 76.7589 240.648 76.7589 238.873 73.4105C235.368 67.3543 234.829 66.4231 232.85 63.8581" fill="#333C5E"/>
</g>
<defs>
<linearGradient id="paint0_linear_712_7700" x1="180.072" y1="77.6963" x2="176.382" y2="224.919" gradientUnits="userSpaceOnUse">
<stop stop-color="white" stop-opacity="0"/>
<stop offset="1" stop-color="#0190CA"/>
</linearGradient>
<linearGradient id="paint1_linear_712_7700" x1="161.095" y1="128.696" x2="141.402" y2="9.85076" gradientUnits="userSpaceOnUse">
<stop stop-color="white"/>
<stop offset="1" stop-color="#7CC6E4"/>
</linearGradient>
<linearGradient id="paint2_linear_712_7700" x1="257.026" y1="199.707" x2="246.558" y2="137.095" gradientUnits="userSpaceOnUse">
<stop stop-color="white"/>
<stop offset="1" stop-color="#7CC6E4"/>
</linearGradient>
<linearGradient id="paint3_linear_712_7700" x1="244.422" y1="196.649" x2="229.08" y2="104.56" gradientUnits="userSpaceOnUse">
<stop stop-color="white"/>
<stop offset="1" stop-color="#7CC6E4"/>
</linearGradient>
<linearGradient id="paint4_linear_712_7700" x1="200.429" y1="173.808" x2="175.343" y2="21.9317" gradientUnits="userSpaceOnUse">
<stop stop-color="white"/>
<stop offset="1" stop-color="#7CC6E4"/>
</linearGradient>
<linearGradient id="paint5_linear_712_7700" x1="126.683" y1="162.633" x2="234.993" y2="59.1407" gradientUnits="userSpaceOnUse">
<stop stop-color="#1B69FF"/>
<stop offset="0.0001" stop-color="#E0E7FD"/>
<stop offset="0.227" stop-color="#5E98F7"/>
<stop offset="0.639" stop-color="#69A1E3"/>
<stop offset="0.844" stop-color="#4670BA"/>
</linearGradient>
<linearGradient id="paint6_linear_712_7700" x1="170.833" y1="123.803" x2="168.805" y2="9.32465" gradientUnits="userSpaceOnUse">
<stop stop-color="white"/>
<stop offset="1" stop-color="#7CC6E4"/>
</linearGradient>
<linearGradient id="paint7_linear_712_7700" x1="225.806" y1="161.323" x2="225.324" y2="15.8848" gradientUnits="userSpaceOnUse">
<stop stop-color="white"/>
<stop offset="1" stop-color="#7CC6E4"/>
</linearGradient>
</defs>
</svg>
