<svg xmlns="http://www.w3.org/2000/svg" width="358" height="366" fill="none" viewBox="0 0 358 366"><path fill="#030c60" d="M179 366c98.86 0 179.001-48.424 179.001-108.157 0-59.734-80.141-108.157-179.001-108.157-98.859 0-179 48.423-179 108.157S80.141 366 179 366" opacity=".15"/><path fill="#333c5e" d="M290.395 270.858c-61.521 37.171-161.268 37.171-222.788 0-30.667-18.529-46.04-42.797-46.134-67.083h-.008v46.79h.073c.764 23.734 16.094 47.328 46.069 65.44 61.52 37.17 161.267 37.17 222.788 0 29.98-18.111 45.301-41.706 46.067-65.44h.074v-47.014c0 24.36-15.38 48.721-46.141 67.307"/><path fill="#fff" d="M290.395 286.122c-61.522 37.17-161.268 37.17-222.79 0-29.973-18.112-45.3-41.706-46.067-65.44h-.073v31.069-13.777h.008c.096 24.281 15.468 48.553 46.133 67.083 61.521 37.17 161.267 37.17 222.789 0 30.761-18.586 46.141-42.947 46.141-67.308v-17.067h-.074c-.766 23.734-16.092 47.329-46.067 65.44" style="mix-blend-mode:soft-light"/><path fill="#333c5e" d="M336.525 203.276c-.116-24.269-15.486-48.517-46.131-67.033-61.522-37.17-161.268-37.17-222.789 0-30.855 18.643-46.226 43.097-46.132 67.532.096 24.286 15.467 48.554 46.133 67.083 61.521 37.171 161.268 37.171 222.789 0 30.76-18.585 46.141-42.947 46.141-67.307 0-.091-.011-.183-.011-.275"/><path fill="#fff" d="M311.853 203.32c-.096-20.468-13.06-40.917-38.905-56.534-51.885-31.35-136.008-31.351-187.897 0-26.022 15.724-38.986 36.347-38.906 56.955.08 20.484 13.044 40.95 38.907 56.576 51.886 31.352 136.008 31.352 187.897 0 25.943-15.675 38.914-36.22 38.914-56.766-.002-.076-.009-.154-.01-.231" style="mix-blend-mode:overlay"/><g fill="#fff" style="mix-blend-mode:overlay"><path d="M290.23 291.081c-.506.306-1.036.587-1.546.888v10.586c.51-.3 1.04-.583 1.546-.887 10.156-5.958 19.405-13.469 27.442-22.285v-10.617c-8.037 8.824-17.286 16.345-27.442 22.315M255.688 306.861v10.592a180 180 0 0 0 28.987-12.59v-10.592a180 180 0 0 1-28.987 12.59M222.688 315.202v10.591a225 225 0 0 0 28.987-7.009v-10.592a226 226 0 0 1-28.987 7.01"/></g><g fill="#fff" style="mix-blend-mode:overlay"><path d="M69.825 291.573c.506.306 1.034.588 1.545.888v10.586c-.51-.3-1.04-.582-1.545-.887-10.156-5.96-19.406-13.472-27.442-22.29v-10.613c8.036 8.825 17.285 16.346 27.442 22.316M104.366 307.352v10.591a180 180 0 0 1-28.987-12.59v-10.589a180 180 0 0 0 28.987 12.588M137.363 315.693v10.592a226 226 0 0 1-28.988-7.01v-10.591a226 226 0 0 0 28.988 7.009"/></g><path fill="#fff" d="M271.98 203.493v.06c0 14.378-9.079 28.757-27.229 39.728-16.537 9.982-37.752 15.428-59.396 16.317h-.086c-.601.03-1.203.05-1.804.07a165 165 0 0 1-8.918 0c-.668-.02-1.327-.04-1.995-.08h-.096c-21.558-.919-42.716-6.355-59.205-16.317-18.092-10.931-27.172-25.25-27.22-39.588v-.14c0-14.369 9.07-28.748 27.22-39.719 36.31-21.942 95.181-21.942 131.5 0 18.083 10.931 27.153 25.24 27.22 39.569a.4.4 0 0 0 .009.1" style="mix-blend-mode:overlay"/><path fill="url(#a)" d="M262.432 49.541v164.932c0 6.478-8.14 12.955-24.413 17.897-14.826 4.497-33.846 6.951-53.253 7.35h-.077c-.565 0-1.105 0-1.618.018a197 197 0 0 1-7.996 0c-.582-.009-1.181-.018-1.789-.023h-.086c-19.329-.413-38.298-2.862-53.084-7.35-16.222-4.924-24.362-11.375-24.405-17.834V49.541z" opacity=".6" style="mix-blend-mode:lighten"/><path fill="url(#b)" d="M179.006 127.103c-21.01 0-42.019-4.832-58.013-14.497-15.571-9.407-24.145-21.94-24.145-35.29s8.574-25.879 24.145-35.29c31.984-19.328 84.037-19.33 116.025 0 15.57 9.413 24.145 21.946 24.145 35.296s-8.575 25.879-24.145 35.289c-15.994 9.665-37.003 14.492-58.012 14.492m0-98.763c-20.867 0-41.734 4.796-57.619 14.399-15.316 9.254-23.752 21.534-23.752 34.573 0 13.038 8.436 25.322 23.752 34.572 31.772 19.197 83.468 19.197 115.24 0 15.316-9.255 23.751-21.534 23.751-34.573 0-13.038-8.435-25.323-23.751-34.572-15.889-9.593-36.76-14.394-57.622-14.394z" style="mix-blend-mode:overlay"/><path fill="url(#c)" d="M179.005 216.664c-11.002 0-22.003-2.53-30.377-7.594-8.211-4.96-12.73-11.591-12.73-18.658s4.521-13.698 12.729-18.657c16.751-10.121 44.004-10.121 60.754 0 8.211 4.959 12.729 11.591 12.729 18.658s-4.52 13.697-12.728 18.657c-8.376 5.064-19.376 7.594-30.377 7.594m-29.875-43.997c-7.884 4.765-12.226 11.067-12.226 17.747s4.342 12.983 12.226 17.748c16.473 9.951 43.276 9.953 59.748 0 7.885-4.765 12.227-11.067 12.227-17.747s-4.339-12.982-12.227-17.748c-16.471-9.952-43.275-9.952-59.748 0" style="mix-blend-mode:overlay"/><path fill="url(#d)" d="M179.005 209.146c-16.231 0-32.453-3.732-44.806-11.191-12.064-7.295-18.707-17.012-18.707-27.379 0-10.366 6.643-20.084 18.706-27.378 24.706-14.928 64.906-14.928 89.612 0 12.063 7.288 18.706 17.012 18.706 27.378 0 10.367-6.643 20.084-18.705 27.379-12.354 7.459-28.58 11.191-44.806 11.191m-44.304-65.039c-11.739 7.095-18.203 16.492-18.203 26.465s6.464 19.374 18.203 26.466c24.429 14.762 64.177 14.762 88.602 0 11.743-7.094 18.203-16.487 18.203-26.464s-6.464-19.372-18.203-26.467c-24.429-14.76-64.177-14.761-88.602 0" style="mix-blend-mode:overlay"/><path fill="url(#e)" d="M179.005 174.826c-26.856 0-53.712-6.177-74.157-18.53-19.903-12.027-30.864-28.047-30.864-45.112 0-17.064 10.961-33.085 30.864-45.11 40.89-24.707 107.423-24.708 148.313 0 19.902 12.026 30.864 28.046 30.864 45.111 0 17.066-10.962 33.085-30.864 45.111-20.445 12.353-47.3 18.53-74.156 18.53m0-126.246c-26.674 0-53.347 6.134-73.653 18.404-19.58 11.83-30.361 27.528-30.361 44.2s10.782 32.375 30.361 44.2c40.613 24.54 106.695 24.54 147.307 0 19.579-11.83 30.362-27.526 30.362-44.199s-10.783-32.374-30.362-44.2c-20.307-12.27-46.982-18.405-73.655-18.405z" style="mix-blend-mode:overlay"/><path fill="url(#f)" d="M230.282 162.633c28.608-29.94 28.608-78.482 0-108.422s-74.991-29.94-103.599 0-28.609 78.482 0 108.422c28.608 29.94 74.991 29.94 103.599 0"/><path fill="url(#g)" d="M120.97 112.614c15.995 9.664 37.004 14.497 58.014 14.497 21.009 0 42.018-4.833 58.012-14.497a61.9 61.9 0 0 0 14.543-11.852c.027-.454.067-.9.087-1.36a60 60 0 0 1-15.024 12.5c-31.77 19.196-83.467 19.196-115.239 0-6.119-3.547-11.573-8.223-16.101-13.802.013.432.012.868.031 1.299a60.2 60.2 0 0 0 15.677 13.215" style="mix-blend-mode:soft-light"/><path fill="url(#h)" d="M130.926 166.734q.945.847 1.919 1.659a168.7 168.7 0 0 0 90.673.49 80 80 0 0 0 2.005-1.684c-29.721 8.947-65.081 8.8-94.597-.465"/><g opacity=".68" style="mix-blend-mode:overlay"><path fill="#00ebff" d="M155.128 49.615c-.478.622-.911.262-.95.072q-.018-.15 0-.3c-.23-.114-.299.23-.499.219a.1.1 0 0 1 .02-.038l.028-.037a.3.3 0 0 0 .028-.038l.026-.037q.014-.019.027-.037l.028-.036.026-.037.025-.036c-.216-.084-.372.1-.562.139.121-.21.059-.228-.191-.172s-.313.04-.376.016q.093-.231.231-.438c.347-.033.347-.033.382.006.256-.147.256-.147.272-.146v-.043c-.032-.03-.077-.032-.108-.063.018-.049.041-.07.172-.18-.265.146-.311.124-.366.029a.2.2 0 0 0-.095-.094.2.2 0 0 0-.13-.017l.043-.052.045-.054q.02-.027.044-.053l.044-.053.043-.053.044-.053.045-.053.045-.053c.247-.013.247-.013.325-.134.029.074.068.093.354.1.477.015.527.109.273.477.174-.078.367-.076.544-.136.026.3.396.357.424.656-.07.07-.163.108-.232.18a.16.16 0 0 0-.039.099c0 .149.122.3.006.446M157.213 49.2a1 1 0 0 0-.249.442 1.6 1.6 0 0 1-.592.14.9.9 0 0 0-.493.152c-.081-.028-.096-.033-.107-.158-.012-.125-.035-.125-.12-.144a.24.24 0 0 1 .087-.11.22.22 0 0 1 .13-.039c-.162-.086-.31-.4.286-.944.703.16.73.168.688.44.286-.131.361-.026.435.148zM150.942 49.091c-.364.14-.757.175-1.139.1a3 3 0 0 0-.573-.05 4.6 4.6 0 0 1 1.624-.532c.317.028.321.166.216.429-.039.016-.088.039-.127.053M150.481 49.473a.5.5 0 0 1-.223.184.5.5 0 0 1-.283.03c.145.155-.267.525-.272.528l-.968.142c-.259-.01-.292-.126-.305-.255l.048-.055q.025-.027.048-.055.024-.029.048-.056a1 1 0 0 1 .05-.055l.048-.056.049-.056.049-.056q.024-.029.048-.056a3.5 3.5 0 0 1 1.548-.264q.089-.002.178.006zM146.629 53.163a.24.24 0 0 1-.169.066.14.14 0 0 1-.057-.012.2.2 0 0 1-.048-.036.16.16 0 0 1-.039-.111c.398-.05.335.063.326.077zm3.542-.683q.132-.179.237-.377c-.084-.155-.432-.3-.845.067-.068-.123-.287-.133-.251-.326l.468-.938-.173.03c-.452.15-.869.398-1.225.727.042.114.287.1.225.245-.014.032-.066.08-.234.122a.367.367 0 0 0-.237.189c.214.04.271.12.237.329h-.999c.178-.463.301-.952-.494-.9.079-.186.226-.532-.531-.214-.281.117-.836.412-.838.413l-1.292 1.1c.237.258.237.258.464.18a2 2 0 0 1-.185.162c.944.037.944.037 1.374-.375-.21.248-.21.248-.146.5a.7.7 0 0 0-.395.052.74.74 0 0 0-.31.261c.113.588.796.369 1.995-.069q.44-.183.905-.272.215.016.425.061c.314.006.629-.026.943-.034.28-.316.62-.57.882-.905M152.193 52.14a.14.14 0 0 1-.057.049q-.056.015-.113.025a.14.14 0 0 1 .061-.055 1 1 0 0 1 .114-.025v.007m.819-.307a.14.14 0 0 1-.079.025c-.168-.013-.211-.306-.026-.47l.045-.036a.35.35 0 0 0-.038.2c.016.1.09.172.108.268l-.01.009m.955.988.022-.025.499-1.308a.28.28 0 0 0-.069-.298.24.24 0 0 0-.09-.053c-.271.147-.634.276-.578.12a.5.5 0 0 1 .084-.125.9.9 0 0 0-.449-.056q-.505.125-.977.35c-.226.152-.271.452-.471.624.267-1.106-.619-.807-.629-.8a.9.9 0 0 0-.137.277 1.1 1.1 0 0 1-.286.507h.306c-.056.245-.108.476.117.6q.518.07 1.041.053a5 5 0 0 0-.372.73c.454.05.912.028 1.36-.061.055-.021.147-.035.177-.088.083-.151.059-.335.142-.486.104-.022.208.138.305.028M155.523 53.705a1.25 1.25 0 0 1-.817.167 1.55 1.55 0 0 1-.831-.5.8.8 0 0 1 .355-.332c.214-.137.214-.148.217-.234a1.65 1.65 0 0 1 .846-.318c.853.065.286 1.167.23 1.22M152.257 57.059a1.33 1.33 0 0 1-.52.501 1.25 1.25 0 0 1-.694.143c-.64.606-.788.308-.995-.27-.172-.48-.338-.791-.943-.464.211-.321.226-.383.127-.55a.3.3 0 0 1-.05-.112.26.26 0 0 1 .003-.124c.067-.194.067-.194.865-.681-.096.217-.371.792.43.608.084-.175.121-.228.205-.255.017-.177.02-.2-.216-.304-.215-.093-.182-.173-.096-.388a.93.93 0 0 0 .573-.418c.254.04.764-.281.764.094.077-.1.286-.382 1.134-.41h.044c-.1.21-.095.243.054.346a.17.17 0 0 1 .095.161 2.7 2.7 0 0 1-1.016.76.2.2 0 0 1-.009.052c.072.09.186.027.266.082 0 .013.005.03.007.043.382-.3.382-.3.477-.255q-.208.74-.514 1.44M157.623 68.997c-.248.392-.842.893-1.381.566a.8.8 0 0 1 .068-.307.7.7 0 0 1 .184-.25.9.9 0 0 0 .191-.277.77.77 0 0 0 .562-.007.9.9 0 0 1 .221-.054.2.2 0 0 1 .095.04q.043.032.066.081a.24.24 0 0 1 .021.105.2.2 0 0 1-.029.103M159.452 69.389l-.009.052c0 .017-.006.035-.009.053l-.007.052-.009.052c0 .018-.007.035-.009.052l-.008.053c0 .017-.007.035-.01.052l-.008.053c0 .018-.006.034-.009.052l-.007.052-.009.052q-.002.027-.01.053l-.007.053-.009.053c0 .017-.006.035-.007.053-.152.124-.339.038-.649-.1-.056-.227.038-.346.231-.487.102-.072.131-.1.067-.141.012-.086.043-.111.143-.116.115 0 .228.057.343.009 0 .018-.007.036-.008.053M215.273 69.35c.177.408.139.553.121.622-.254-.083-.372-.332-.527-.825h.012c.121 0 .213.12.341.084.016.035.038.082.053.118M213.21 72.251c.069.241.009.6-.245.635h-.009c-.082-.117-.23-.168-.287-.31a.31.31 0 0 1 .037-.306c.06-.07.144-.117.19-.2a.26.26 0 0 0 .021-.173.53.53 0 0 1 .293.354M213.072 73.446c.024.133-.083.151-.191.08a.333.333 0 0 1-.142-.295.1.1 0 0 1 .045-.012c.144 0 .145.2.287.21v.017M213.056 78.503c.063.231-.055.269-.147.277h-.042a.3.3 0 0 0 .012-.158c-.009-.13-.017-.242.153-.2zm2.301-1.482a.4.4 0 0 1 .069-.023 1.46 1.46 0 0 0-.427-.781 1.35 1.35 0 0 0-.787-.365 1.37 1.37 0 0 1-.793-.422c.022.045.049.1.069.15.133.357.079.4-.191.386-.191-.013-.229 0-.286.057.112.287.016.624.199.9-.108.13-.108.13-.848.171h-.011l-.058.005c.065.18.071.2.051.3a.3.3 0 0 0-.009.179c.031.17.191.269.227.437.057.26-.055.531.044.789.079.206.328.034.424.2-.047.173.024.36-.056.53 0 0-.05.1-.232.067.251.94.565 1.1 1.4.715.457-.21.684-.3.882-.048-.242-.87.616-.625.625-.622a4.23 4.23 0 0 0-.617-2.27c.222.035.196-.263.333-.352M216.249 76.894c.07.248-.051.478-.374.417-.182-.459-.138-.677.14-.7.06 0 .06 0 .108.054a.7.7 0 0 1 .126.233M229.766 92.815c.084.456.127.917.191 1.376-.308-.04-.534.65-.747.32 0 0-.038-.11-.165-.737a8 8 0 0 0-.477-1.732c.316.326.522-.153.53-.174-.142-.284-.351-.527-.477-.822a2.1 2.1 0 0 1-.191-.744c.016-.074.119-.122.179-.152.199-.092.218-.135.176-.38.477.391.405 1.552.404 1.565 0 .044-.037.106-.018.147q.266.433.482.894.068.216.11.44M161.314 118.267c-.99.157-1.99.235-2.991.233.013-.34.341-.49.436-.782-1.461-.314-2.593-1.499-4.105-1.666-.012-.183-.132-.337-.131-.525-.908-.1-1.432 1.037-2.382.799.332-.978.976-1.371 2.379-1.444a3.95 3.95 0 0 1 2.664.893.2.2 0 0 0 .102.028c.198.012.102-.361.294-.312.048.012.065.017.264.247.312.359.58.616.981.418.557 1.133 2.05.974 2.642 2.06-.045.017-.103.04-.149.055M164.676 120.123c0 .039 0 .128-.027.135s-.072-.146-.072-.147a.4.4 0 0 1 .05-.141c.027-.025.046.061.049.153m1.646-.024c0 .039 0 .129-.026.135s-.071-.145-.071-.147a.4.4 0 0 1 .049-.141c.028-.025.047.059.048.153m.573-.3a1.1 1.1 0 0 0-.229-.748c-.978-.066-1.648-1.042-2.674-.973a.7.7 0 0 0-.307.12.75.75 0 0 0-.225.25c-.886-.41-1.095-.507-1.167.149.151.1.369.086.457.293s-.167.389-.169.389c-.036.012-.036.012-.382-.167q.121.27.183.56a.9.9 0 0 1-.147.345.95.95 0 0 0 .687.115.98.98 0 0 0 .589-.39c-.01.331.238.581.268.9.297-.126.628-.139.922-.275.215-.1.214-.1.236-.256.145.045.222.2.359.251.025-.356.132-.375.391-.336.237.036.335.012.417-.192v.516c.623-.04.623-.04.705-.011q.056-.266.07-.539M177.965 57.733a1 1 0 0 1-.125.15.5.5 0 0 1 .125-.15"/><path fill="#333c5e" d="M179.105 59.495a.1.1 0 0 1-.008.032.06.06 0 0 1-.024.023 1 1 0 0 1-.128.034.06.06 0 0 1 .006-.039.1.1 0 0 1 .026-.027.6.6 0 0 1 .128-.03zm14.417-1c.016.047.05.186.029.2s-.096-.181-.096-.184 0-.07.02-.08c.02-.008.032.019.05.07m1.787-.61c.012.026.033.086.017.091s-.083-.1-.084-.1-.016-.088 0-.1.049.048.071.109m1.782-1q.015.04-.005.056c-.03.024-.069.019-.102.032-.005-.012-.017-.04 0-.057.016-.017.069-.021.102-.037v.007m-.441-.449a1.3 1.3 0 0 1-.191-.139c.011 0 .191.137.191.14m-2.609-1.483c-.015.172-.119.193-.217.2-.164.005-.328-.029-.494-.023.206-.157.46-.23.714-.209v.032m.554.035q.015.04.024.08c-.096.022-.151-.034-.14-.064.005-.01.021-.014.031-.017-.082-.1-.336-.218-.34-.116a.3.3 0 0 0 .054.131c-.095-.028-.114-.154-.218-.163-.065-.171.005-.174.346-.187.023.068.063.13.118.175a.4.4 0 0 1 .125.161m.81-1.483q.017.035 0 .05c-.01.012-.062.018-.095.03-.01-.02-.017-.04 0-.057s.06-.018.09-.031v.008m-6.665-9.564c-.014.074-.095.078-.191.077-.183-.005-.22.026-.237.1q.142.127.232.3a.2.2 0 0 0-.096-.037c-.012 0-.017 0-.026.016a.08.08 0 0 1-.07.039.3.3 0 0 1-.056 0 .4.4 0 0 0-.137-.16.4.4 0 0 1-.139-.14.6.6 0 0 0 .252-.099.6.6 0 0 1 .468-.117v.026m4.583.527c-.442-.8-1.306-.352-1.9-.7l.125.128c-.54.329-.54.329-.644.6-.256-.071-.522-.013-.779-.073-.149.12-.149.12-.318.415a2.1 2.1 0 0 0-.877-.93.53.53 0 0 1 .102-.3c-.235-.337-.652-.376-.939-.626-.026.044-.058.1-.082.15-.228 0-.453-.045-.681-.054a2.4 2.4 0 0 0-.243-.254c-.043-.024-.053-.023-.061-.023h-.196a12.3 12.3 0 0 0-2.101-.583l.005.03.028.171c-1.814.131-1.814.131-2.155.281a2 2 0 0 1-.277-.224c-.095.19-.095.19-.433.307q.098.136.209.26a4.57 4.57 0 0 0-2.813.3v.23l.347.03a.6.6 0 0 0-.042.322q.16.067.303.165l-.121.1c.082.052.191.127.265.186q-1.186-.178-2.343-.516l-.07.2.167.32c-.501.04-.941-.3-1.442-.254-1.508.125-1.764.32-2.061.546l-.087-.154c-.227.13-.477.19-.713.3-.013.242.057.479.043.722a17.5 17.5 0 0 0-2.928 1.066c.223.517.223.517.234.532.252.052.511.056.764.01 0 .45 0 .543-.391.78-.491.295-1.094.127-1.586.413l-.044.235c-.393.22-.393.22-.487.564.388-.013.659.39 1.062.316q.237.359.382.77c-.807-.075-1.569-.145-1.623.553q.164.005.324.05l.043.175-.191-.012q-.075.14-.109.3a.8.8 0 0 1-.286-.065l-.055.168.126.122-.021.264c1.351.45 1.351.45 1.941.05.142.273.162.278.346.313.36-.271.911-.047 1.203-.5.593.27 1.353.109 1.802.75l.095-.134q.317.065.612.2c-.066.292.169.52.157.799.406-.005.484.129.573.282a2 2 0 0 0-.123.29c.027.04.061.092.085.132q.158-.026.317-.02a1 1 0 0 1-.225.247l.054.166c.151.027.303.008.456.02q-.117.124-.215.264.151.033.295.09c.076.267.076.267.5.65h-.15q.027.189.078.373a5 5 0 0 0-.269.19c0 .056.005.132.008.186l.287.141a7 7 0 0 1-.157 1.11c.079.144.191.266.325.355a.95.95 0 0 0 .909.078 1 1 0 0 0 .376-.296c.095.164.056.36.12.53.742.035.742.035.743.278-1.474.024-1.474.024-1.617.106.157.405.157.405.278.535-.313.12-.368.141-.364.925.281.283.649.452 1.038.476s.774-.098 1.085-.345c-.012-.191-.105-.362-.135-.55q.149.066.307.09c-.023.123-.023.123.267.632-.089.276-.032.583-.174.846a7 7 0 0 1-.815-.083c-1.106 1.656-.501 2.369-.305 2.603-.171.121-.171.121-.216.889a.57.57 0 0 1 .348.186l1.536 2.877.204.033c.049.19.063.387.128.573.655.028.662.514.553.917.404.19.632.62 1.035.81-.148.689.798.647.807 1.243a2.05 2.05 0 0 1 1.516-.036c.493.182.905.547 1.158 1.026a3 3 0 0 1-.02-.156c.162-.081.162-.081.477-.064.12.339.12.339 1.065-.156-.104-1.09.365-2.18 0-3.27.17-.042.345-.062.516-.1a2.4 2.4 0 0 1 .674-1.185c-.212-.515.033-1.12-.299-1.61.406-.179.593-.664 1.033-.792a1.15 1.15 0 0 1 .925.216 1.1 1.1 0 0 1 .055-.372c.639-.137 1.064-.709 1.682-.889.282-.662.625-1.294 1.023-1.887a2.5 2.5 0 0 1 .025-.484c2.327.247 3.819-1.225 4.911-2.298a.47.47 0 0 0 .222.179 3 3 0 0 0-.117-.83c-.884.153-1.731-.382-2.618-.144q.264-.122.497-.3a3 3 0 0 0-.103-.4l.168-.048q.51.314.919.76h.079c.933-.062.933-.062 1.158 0 .03-.056.068-.131.096-.188-.025-.06-.025-.06-.33-.64l.133-.088c-.168-.361-.539-.478-.809-.717l.096-.135c-.144-.122-.144-.122-1.727-.668.024.04.057.1.08.137-.27.09-.272.089-.478-.028l.155-.016a.6.6 0 0 0-.132-.345q.642.118 1.241.385l.028-.151.096-.033h.008a2.2 2.2 0 0 0-.532-.752q-.475.03-.948-.033c-.148-.187-.246-.411-.411-.586l.07-.144c1.92.216 1.92.216 2.257.108-.184-.5-.206-.509-.561-.692.19-.12.399-.203.617-.247.095-.537.095-.537-.102-.738h-.033q-.28.018-.556-.036c-.597-1.222-.597-1.222-1.011-1.66-.938.073-.938.073-1.19-.092l.123-.084c-.15-.493-1.005-.688-.705-1.335l.149-.031c-.061-.2-.113-.37-.535-.568.139-.4-.213-.664-.262-1.013h.393a.9.9 0 0 1-.201-.306l.107-.188c-.102-.277-.102-.277-.359-.284l-.104-.165c.012-.047.027-.11.037-.157q.19.028.382.024c.088-.242.088-.242-.074-.6l.143-.05a3 3 0 0 0 0-.356 4 4 0 0 1-.28-.2c.229-.156.249-.142.453-.006a1.8 1.8 0 0 1-.057-.538c.121-.075.228-.174.313-.291a2 2 0 0 0-.063-.26"/><path fill="#00ebff" d="M147.406 50.3c-.25.24-.382.23-.442.225q-.183.339-.443.615a.7.7 0 0 1-.128.044 7 7 0 0 0-.507.252c-.271.143-.579.305-.61.207s.184-.357.326-.534c-.55.483-1.227.77-1.796 1.225 0-.068-.084-.1-.075-.167.008-.067.033-.106.121-.24-.162.056-.236.228-.376.313.145-.3.013-.343-.542-.185.191-.187.286-.446.477-.632a.1.1 0 0 0-.016.05.29.29 0 0 0 .227-.085v-.035a12.5 12.5 0 0 0 2.1-1.005c.447-.187.669-.236.879-.068.191-.088.315-.305.552-.3.123.016.123.016.318.255l-.066.07"/><path fill="#333c5e" d="M172.412 177.297c.009.025 0 .026-.005.027a.2.2 0 0 1-.085-.056c.006-.077.052-.026.062-.016a.2.2 0 0 1 .028.045m.147-.561c.004.011.018.048.006.051s-.051-.055-.052-.055-.005-.051.007-.056c.011-.005.027.026.039.06m-1.984-.948c.008.024-.016.039-.061.04-.046.001-.096-.026-.061-.066l.047-.034c.021.011.066.035.075.06m-5.584-49.078a.1.1 0 0 1-.026.054.1.1 0 0 1-.049.031 1.4 1.4 0 0 1-.262.03.13.13 0 0 1 .023-.063.1.1 0 0 1 .054-.037q.128-.03.261-.029zm-36.171-18.842c-.327-.2-.469-.62-.838-.773.1-.281.1-.281.042-1.173h.01c.096.012.127.046.191.161s.135.2.339.118a3.7 3.7 0 0 0 .059.7c.063.339.197.66.263.999-.02-.011-.047-.025-.067-.038m42.063-21.754c0 .035-.005.118-.029.124-.025.006-.063-.134-.063-.135a.4.4 0 0 1 .053-.132c.028-.022.041.057.039.143m-.757-1.172c-.189.058-.39.065-.582.019-.638-.071-.873-.046-1.051.114-.106-.57 1.33-.616 1.391-.617h.047c-.143.191-.095.292.211.47l-.015.014m-49.304-14.428-.011.02-.012.02-.011.02-.012.02-.011.021-.012.02-.01.02-.012.02-.01.02-.012.02-.01.018-.012.02-.01.02-.011.02-.011.02c-.045-.03-.103.051-.135.1-.006-.02-.004-.038.023-.117.039-.109.057-.172-.052-.11a.48.48 0 0 1 .342-.188l-.011.021m14.422-6.03a.17.17 0 0 1-.09.07q-.074.012-.149.008a.2.2 0 0 1 .088-.074.7.7 0 0 1 .158-.016zm6.509-2.783a.4.4 0 0 1-.157.126.37.37 0 0 1-.196.027c-.134-.009-.173.02-.2.246a1.43 1.43 0 0 0-.991-.126c.088-.173.253-.287.327-.468.026.1.071.13.197.14q.192-.008.382-.056c.382-.08.556-.093.686.044l-.052.067m1.097-.272c-.113.181-.281.164-.443.129-.281-.06-.394-.044-.511.173 0-.262.197-.278.547-.282.15.016.302-.01.438-.078zm3.894.206c-.077.128-.226.205-.248.374a.4.4 0 0 0-.069-.11l-.026-.029a.7.7 0 0 0-.313-.187.4.4 0 0 0-.116-.008c-.046.007-.084.037-.131.045-.096.015-.029-.092.031-.194.074-.13.124-.216.014-.192a.2.2 0 0 1 .11-.017c.144 0 .287.026.426.029a.74.74 0 0 0 .418-.091 3 3 0 0 1-.222.363 1 1 0 0 0 .096-.082c.04.023.07.042.033.1m-6.089-.692q-.028.044-.057.085c-.069-.1-.087-.227-.172-.316a.3.3 0 0 0-.203-.076h-.007c.287-.182.565-.092.503.161a.6.6 0 0 1-.064.146m6.91-.88a.4.4 0 0 1-.081.1c-.066.058-.14.1-.207.159-.083-.02-.034-.078.095-.193a.7.7 0 0 0 .162-.177c.041.025.061.049.042.1l-.007.013m14.625-.211c-.01.039-.046.117-.086.122s-.04-.043-.047-.083c.109-.136.134-.122.138-.086a.2.2 0 0 1-.005.047m-21.151-2.066a.2.2 0 0 1-.061.052q-.055.017-.114.027a.2.2 0 0 1 .067-.06 1 1 0 0 1 .113-.028v.008m.302-.08a.2.2 0 0 1-.063.053 1 1 0 0 1-.11.023.14.14 0 0 1 .065-.058 1 1 0 0 1 .113-.026zm21.267-1.382a.13.13 0 0 1-.033.052.1.1 0 0 1-.054.028 2 2 0 0 1-.254 0c.062-.148.164-.2.351-.174a.3.3 0 0 1-.01.093m-20.761-.388c-.142.143-.226.16-.282.16h-.008a.415.415 0 0 1 .292-.169h.007zm16.536.294c-.011.028-.034.076-.065.079-.03.003-.044-.081-.046-.148.119-.118.133-.06.133-.03a.25.25 0 0 1-.022.1m.216-.399c-.009.025-.032.082-.05.086s-.007-.1-.007-.1a.5.5 0 0 1 .068-.093c.013-.009.016 0 .011.035a1 1 0 0 1-.022.07m-10.91-.225c-.026-.008-.062-.22-.063-.222s.01-.022.02-.027c.047-.023.061.21.048.243v.005m48.503 88.086c.221-.761.221-.761-.223-2.508-2.425-.699-4.29-3.34-7.231-2.244a2.8 2.8 0 0 0-.84-1.036c-.564.028-.564.013-.564 0v-.302c-.626-.01-1.241-.182-1.869-.14a3.6 3.6 0 0 0-1.12-.762c-.129-.381-.299-.889-.426-1.272-.165-.081-.382-.191-.545-.273-.146-1.09-.819-1.992-1.011-3.065-4.17-.543-4.17-.543-7.507-3.231-.135.126-.316.294-.45.421a2.06 2.06 0 0 0-.624-1.125h-.024l.181-.641-.566-.213c-.11.148-.256.348-.367.5-.287-.281-.287-.281-1.971-.949a2.5 2.5 0 0 1-.933.929 2.947 2.947 0 0 0-2.531-.249l-.264-.744c-1.8-.714-1.8-.714-6.397.278a10.7 10.7 0 0 1-1.163 2.198l-5.84-2.198a2.96 2.96 0 0 1 1.199-.685c.06-.2.141-.464.204-.661a34 34 0 0 1-1.259-.573c.122-.957.877-1.561 1.236-2.388-1.027-.653-1.027-.653-5.144-.815l.63-.4.066-.666-.55-.379a6.6 6.6 0 0 1-.095-1.439c-.009-.522.009-.522.027-.522h.398c.277-1.251.277-1.251-3.023-2.434-1.804 1.806-6.597 6.595-6.226-1.977.013-.281.624-4.16.628-4.163 1.892-1.418 4.16-.083 6.133-.899.448-.164.448-.213.448-.262v-1.028c1.31-.2 2.509.932 3.853.347 1.713 1.246.524 4.608 3.246 5.048.614-1.057.895-1.538.062-4.144-1.261-3.944 1.415-5.719 3.882-6.513 1.919-4.596 1.919-4.596 2.281-6.727 1.102-.305 2.1-.919 3.22-1.167l.318-.64c-.089-.231-.109-.231-.128-.231h-.4c.014-1.12.018-1.386 2.204-2.498v.364c.409-.086.798-.26 1.14-.51.154 1.433.154 1.433 5.442-.958h-.007c.744-.627.744-.627.889-1.84a3.7 3.7 0 0 0-1.159-.675c-1.217.878-1.217.878-2.964.22-.083-.188-.191-.44-.279-.629q.662-.8 1.422-1.499a8 8 0 0 0 1.233-.1l-.025-.671.467-.428c.364.171.755.273 1.153.3.175-.352.418-.662.714-.91a2.65 2.65 0 0 1 1.005-.526l-.191.6c1.528-.442 1.528-.442 2.593-2.398-.859-.606-.685-2.099-1.892-2.408l-6.197-7.965c-1.095.531-1.39 1.898-2.427 2.498a189 189 0 0 1-1.019-.78c.072-.18.168-.42.238-.6l-.394-.545c.043-.187.096-.436.144-.624a26 26 0 0 0-3.769-2.386l-.371-.56c-.095.165-.213.386-.305.552-2.482.1-2.802.108-2.589 2.036l-.518.323q-.003.643.096 1.278h.01c-.155.7-.5 1.345-.592 2.065 1.324.759 1.323 1.591 1.322 1.599a3.5 3.5 0 0 1-.197.733c-.501 1.112-1.961 1-2.482 2.089-.478 1.01.656 1.991.052 3.004l-.668-.059a32.5 32.5 0 0 1-.695-3.907c-4.781-.375-4.594-2.318-4.412-4.197a56 56 0 0 1-1.286-.1c-.69 1.399-.69 1.399-1.412 1.737-.042-1.658-.042-1.658-.992-2.393 3.695-3.782 3.695-3.782 3.812-3.828l.019-.08.021-.078.02-.08.019-.076q.01-.039.021-.078.01-.038.02-.08l.021-.077q.011-.039.019-.078c.879-.589 1.887-.935 2.731-1.587-.06.206-.142.48-.203.685l.578.175-.02.641c1.346-.26 1.616-.761 1.896-1.556.271.311.632.725.905 1.034.202.007.468.017.669.026.043-.19.095-.444.143-.634l-.603-.124c-.173-.758-.173-.758-1.189-1.36.265-.312.432-.702.477-1.117.631-.43 1.177-.975 1.794-1.424-.062-.425-.155-.99-.234-1.413l.556-.29a2 2 0 0 0-.191-1.19l.581-.211c.74.4 1.678.015 2.357.646l.639-.082-.275.44h.01l.548.262c-1.125 1.166-1.125 1.166-1.212 1.453.658.307.658.307 2.363-.578l.467.453c-.071.16-.071.16-1.451 1.768l.056.633a4.1 4.1 0 0 1-1.983.29q-.481.497-.834 1.1l.232.581.318-.08h.008l-.096.624c.26-.34.602-.6.991-.754l.134.63c2.353.581 4.64 4.44 7.025 1.893a20 20 0 0 0-.722-1.058c1.251.38 1.251.38 1.761.277.095-.373.191-.877.251-1.256a1.9 1.9 0 0 1-.532-1.093c-1.19-.46-1.174-.926-1.154-1.632l.62-.063c1.062 1.162 1.062 1.162 1.412 1.299a13 13 0 0 0 1.833-1.687 17 17 0 0 0-.631-1.099l-.668.192-.026-.66a20 20 0 0 1-2.569-1.849l.606-.1c-.53-1.862-.53-1.862-3.384-2.779l.103-.62c-2.308-.1-3.779-2.446-6.124-2.44l-.354-.507h-.287c-3.055 1.162-3.055 1.162-4.161 3.806l.658.013c.134.077.115.077.096.077h-.403l-.117.7c.533.428.955.987 1.528 1.365 0 .207-.009.484-.013.69-.151.139-.35.324-.5.46-.18.106-.2.106-.222.106h-.435a2.2 2.2 0 0 0-.632-1.284l-.277-.026a1.92 1.92 0 0 1-.68-1.032 2 2 0 0 1 .075-1.252l-.484-.38c-.112-1.819 1.802-1.777 2.602-2.768.16-.222.158-.222.157-.222h-.016c-3.055-.433-3.055-.433-5.874 4.768-1.051.273-1.815 1.1-2.803 1.491.081.168.191.39.271.558l-.2.586-.617-.009-.156-.682c.242-.387.424-.812.538-1.258.437.032.451.005.463-.022q.018-.04.038-.08l.037-.081q.018-.04.038-.081l.038-.081q.02-.04.037-.08l.038-.08c.013-.029.026-.053.037-.08q-.673-.467-1.265-1.04c1.041-2.613 1.041-2.613 1.595-3.246l-.485-.4c-.605.116-1.065.6-1.666.72-.372.592-.581 1.28-.998 1.846q.136-.685.177-1.382l-.579-.23-.361.547a46 46 0 0 0-.382-.506h-.612c.102-.423.096-.423.096-.423l-.6-.05c.114-.393.117-.812.009-1.206-.65-.009-1.118-.015-1.417-.5-1.064.127-1.063.127-4.241 3.098.095.458.084.932-.032 1.384.432-.083.432-.083 3.169-1.707-.251.328-.601.754-.871 1.067l.463.434-.625.42c.096.18.219.422.312.6.626-.014 1.249-.092 1.876-.1-.82.46-1.793.342-2.63.744l.024.721c-1.011-.016-1.718-1.083-2.792-.877l-.429-.447-.425.454c.085-.49.275-.955.554-1.36-1.738.418-3.439.99-5.084 1.71-.096-.164-.233-.384-.332-.549-.974-.123-1.398-.633-2.426-1.866l.062-.694a6.6 6.6 0 0 0-.999.688l-.153-.09c-4.218 3.362-4.218 3.362-5.12 5.548-.333.207-.315.183-.295.158l.055-.072.055-.073.056-.07.055-.072.055-.072.056-.072.055-.071c-.807.435-1.814.977-2.824 3.57l.382-.499.017.717c-1.389.986-1.389.986-4.087 6.514l.579.217c-.073.138-.073.138-3.246 4.231.962-.442 2.276-1.047 5.104-5.377l-.089.623a4.45 4.45 0 0 0 2.222-1.2l.398.528c1.874.078 1.638 2.657 1.633 2.682a10.8 10.8 0 0 0 .585 4.821c-.081.234-.081.234-.145 4.655 1.655 1.708.653 5.278.533 5.495-.031.055-3.064 5.602.567 13.376-.096.161-.211.376-.302.538l.409.512c.368.013.859.042 1.229.076 1.02 1.563 1.336 3.508 2.506 4.991-.225.38-.342.82-.337 1.268 1.802 1.71 1.802 1.71 1.852 2.983a19 19 0 0 1 1.897 2.024l.478-.38a1.93 1.93 0 0 0-.301-.955 1.8 1.8 0 0 0-.729-.655c-.22-1.383-1.044-2.574-1.179-3.986 1.402 2.25 3.158 4.24 4.467 6.56l.004.131q-.002.065.007.132l.005.131q.002.066.007.13l.006.131c.002.044 0 .088.006.131s.005.088.007.131 0 .087.006.132c1.21 3.714 6.177 3.107 7.338 6.877l.588-.289c.074-.305.095-.305.118-.305h.47c.081.171.191.399.269.57 2.63.161 4.269 3.312 7.199 2.569.757.837 1.183 1.928 1.958 2.751l-.11.678c.935.03 1.158.037 2.804 1.187l.492-.468a2.54 2.54 0 0 0 1.728.845q.263-.586.391-1.221l.655.036a7.15 7.15 0 0 1 1.487 4.339c-1.173 1.132-1.173 1.132-1.241 1.898-.029.021-2.813 2.073-.488 3.924-.396.378-1.058 1.013-.456 2.691.109.196.268.356.46.463.455.319.868.698 1.229 1.129l9.008 11.191c-.03 14.005-.03 14.005.855 15.405l.229-.687c.374.964.374.964-.305 2.498l.495.418c-.191 1.509 1.241 3.197 2.673 3.891.337.22.35.22.361.22h.263a1.9 1.9 0 0 0 2.328.073 6.5 6.5 0 0 1-2.027-2.011c.412-.528.55-1.245 1.075-1.698l-.015-.081q-.008-.04-.017-.083-.01-.041-.016-.081l-.018-.083-.015-.084-.015-.082a1 1 0 0 1-.017-.084l-.017-.082-.69-.227c-.035-.187-.085-.435-.12-.624.203-.083.477-.195.676-.28.131-1.099.131-1.099.814-1.644a3.3 3.3 0 0 1-.902-.834q.67.022 1.337-.024c.095-.425.254-.984.382-1.399 2.407-.048 2.673-.799 2.959-1.586a4.6 4.6 0 0 1-.418-1.32c3.883.435 6.17-5.054 6.194-5.11 1.099-2.697 4.186-2.68 5.845-4.617 1.798-2.098 2.428-6.609 2.454-7.178h.019l.593-.127c.86-1.657 2.651-2.606 3.202-4.503"/><path fill="#00ebff" d="M117.212 73.705c-.009.011-.125.155-.142.171q.066-.091.143-.173M158.498 51.558a.1.1 0 0 1-.049.047 1 1 0 0 1-.116.023.1.1 0 0 1 .056-.054 1 1 0 0 1 .112-.023v.007m3.067-.08a.1.1 0 0 1-.045.045 1 1 0 0 1-.113.026.1.1 0 0 1 .018-.033.1.1 0 0 1 .031-.02.6.6 0 0 1 .113-.026v.008m-.287-2.913a.1.1 0 0 1-.046.042 1 1 0 0 1-.104.024.1.1 0 0 1 .049-.05.5.5 0 0 1 .105-.022v.007m.843-.285c-.008.017-.036.07-.051.075-.016.004.005-.081.006-.082a1 1 0 0 1 .064-.077q.014-.011.012.006a.3.3 0 0 1-.031.078m.262.08c-.055.055-.075.058-.083.06-.066-.011.095-.331.15-.431.073.04.056.09-.009.189-.055.082-.081.126-.041.164zm4.341.039c-.055.1-.122.017-.165-.037-.061-.078-.095-.113-.11-.046-.019-.018-.036-.035-.037-.1q.006-.125.029-.248c.052-.009.214-.037.277.058q.035.057.033.124 0 .128-.027.253m2.404-1.356a.067.067 0 0 1-.035.042 1 1 0 0 1-.096.02.1.1 0 0 1 .013-.024.1.1 0 0 1 .02-.018.5.5 0 0 1 .101-.026v.006m-10.847.012c-.028.037-.039.038-.045.039-.025 0-.005-.083-.005-.083l.018-.015.019-.018q.06-.048.056-.01a.3.3 0 0 1-.043.087m6.328-.468q-.386.055-.764.16c-.061.154-.064.218-.015.272-.095.022-.156-.03-.251-.108a.55.55 0 0 0-.462-.16q.406-.127.781-.337c-.089.112-.077.128 0 .13h.008c.072 0 .087.01.057.071.074-.049.171-.057.23-.134.036.041.095.055.334.08q.045.003.089.014l-.014.012m.786-.245c-.151.12-.329.196-.517.222a.2.2 0 0 1-.096-.02.5.5 0 0 1 .14-.073l.019-.007c.095-.027.191-.036.286-.062a.5.5 0 0 0 .144-.06l.024-.01-.004.008m.463-.207a.3.3 0 0 1-.085.062c-.063.037-.085.052-.096.077-.084-.039-.05-.069.044-.124.059-.035.083-.05.096-.075.024.01.064.028.042.06m-5.938-.373a.2.2 0 0 1-.05.039 1 1 0 0 1-.095.018.1.1 0 0 1 .048-.04 1 1 0 0 1 .1-.023l-.005.006m.207 0a.14.14 0 0 1-.05.038 1 1 0 0 1-.096.019.13.13 0 0 1 .05-.041 1 1 0 0 1 .102-.023l-.005.007m11.486-.52a.2.2 0 0 1-.144.064c-.077 0-.086-.04-.066-.06s.075-.038.221-.014zm2.036-.987a1 1 0 0 0 .018-.1c-.101-.11-.101-.11-.68-.114-.127-.237-.127-.237-.115-.352-.477.04-.954-.06-1.432.024l.096-.04a8 8 0 0 0-1.85-.24c-.299.014-.59.103-.849.26a3.86 3.86 0 0 0-2.539.14.33.33 0 0 0-.267-.021.34.34 0 0 0-.194.192l-.039.01c-.413-.06-.372.484-.657.608-.009-.01-.842-.835-1.201-.131-.312-.067-.477.215-.722.319l-.015-.121c-.307-.215-.944.227-.971.246-.437-.177-1.042.243-1.218.376.223.214.436-.085.657-.01a.54.54 0 0 0-.382.2.4.4 0 0 0 .182.067c-.075.155-.326.244-.224.465a.6.6 0 0 0 .216 0c.147.628.745.426.994.31-.096.13-.07.172.017.266.174-.042.276-.21.439-.27-.082.2-.082.2 0 .338-.191.05-.392.05-.583 0-.239.28-.199.775-.649.887.137-.138.191-.337.317-.482l-.124-.018c-.015-.167.047-.326.045-.49-.382.038-.382.038-.683.374a.64.64 0 0 1 .168-.47 1.14 1.14 0 0 0-.5-.01c-.347-.918-.347-.918-.477-.973-.425-.18-.588.343-.934.376-.59.055-.859.658-1.372.854a1 1 0 0 1-.095.205h-.1c-.287.373-.27.465-.235.631l.168.057q-.143.12-.247.279c.113.148.113.148 1.337.076-.312.234-.745.194-1.028.493.061.32.061.32.102.4q.125.04.258.04a.5.5 0 0 0-.169.299 1.427 1.427 0 0 0 1.539.127c.012.029.025.067.035.1l.116.048q.209-.122.388-.288c.382.09.511-.34.807-.426-.46.473-.46.473-.539.73.85.346.85.346.552.67.178-.5-.443-.59-.813-.423-.295.132-.573.258-.26.814-.417.253-.929.248-1.336.523a.5.5 0 0 0-.05-.215c-.18.123-.406.17-.54.366-.367-.215-.695.088-1.05.086-.364-.565-.485-.755-1.702-.486-.071.148-.171.279-.293.384.477.61.653.838 1.6.556-.029.138-.029.138.095.714-.225.212-.225.212-.612.972h.136c.016.12.016.12-.057.411 1.64.03 1.64.03 1.874-.162a.9.9 0 0 0-.174.412c.577.03 1.156.008 1.729-.064.478-.143.845-1.051 1.362-.572a.6.6 0 0 1-.096.386c.202.163.202.163 1.623.073.259-.349.487-.721.754-1.064-.839-.905-2.488-.6-3.649-.064a1.464 1.464 0 0 0-1.362-.16c.036-.06.036-.06-.04-.637.225.063.321-.034.488-.357.772.075 1.546.108 2.315.2a.7.7 0 0 1 .392-.31c.297.37.603.306 1.443.07-.077.106-.165.206-.241.315a9.5 9.5 0 0 0 1.98-.482.89.89 0 0 0 .147-.7.66.66 0 0 0-.459.134c-.096-.217-.081-.236.004-.358.561.076.634-.514.961-.756.555.137.939-.306 1.41-.455.077-.265.294-.434.43-.659a2 2 0 0 0-.165-.215c.272-.244.272-.244.18-.5a.5.5 0 0 1 .181-.075c.014-.027.03-.063.042-.09a.7.7 0 0 1-.095-.183c.545-.39 1.16.14 1.713-.142.686-.351 1.116-1.073 1.839-1.373q.117-.04.238-.062c.474-.09.912-.323 1.26-.671l-.043-.1a.8.8 0 0 0-.301-.012c.549-.25 1.137-.384 1.696-.6q.029-.195.096-.38M223.67 54.248c.031.03.041.044.048.05.008.008.008.024.015.035a1 1 0 0 1-.059-.06c-.006-.01-.006-.022-.012-.032zm-1.951-1.94a1 1 0 0 1 .052.05q.01.016.021.031a1 1 0 0 1-.06-.055c-.007-.009-.011-.022-.02-.033zm-.36-.317a.4.4 0 0 1 .061.059c.009.01.008.013.007.015v.009a1 1 0 0 1-.067-.065c-.009-.01-.009-.013-.008-.016v-.01l.009.008m-.822-.786.041.034a.03.03 0 0 1 .012.012 1.5 1.5 0 0 1-.19-.157c.01 0 .141.11.142.111m-3.498-2.956-1.386-.977.024.017q.938.666 1.795 1.441l-.104-.064a132 132 0 0 0 1.569 1.321l-.04-.04c.15.1.287.22.434.325l-.045-.035q.055.035.106.076l-.045-.007.014.046a.7.7 0 0 1-.183-.109c.916.76 1.727 1.644 2.64 2.41a.3.3 0 0 1-.095-.046q.7.796 1.509 1.472a2 2 0 0 0-.155-.152c.137.076.221.218.35.306a1 1 0 0 1-.075-.1c.573.094.809.7 1.286.94-.019-.07-.019-.07-.175-.239q.166.164.363.283c-.039-.086-.039-.086-.209-.261l-.045.01c-1.699-1.53-3.342-3.12-5.095-4.586l.042.028a3.5 3.5 0 0 0-.406-.36l.04.031q-.064-.058-.132-.114.09.063.176.13c-1.788-1.485-1.788-1.485-2.156-1.748M237.301 146.389a1 1 0 0 1 .022-.069c-.136.055-.204.281-.275.412-.965 1.768-3.293 5.121-3.315 5.151a12.6 12.6 0 0 1-2.413 2.889c.024-.137 1.533-2.634 1.548-2.656.601-.922 1.357-1.728 1.897-2.698a12.7 12.7 0 0 1 2.005-2.997 16.1 16.1 0 0 0 2.243-3.61 23.6 23.6 0 0 1-1.713 3.607q-.001-.014.005-.026M234.308 93.322a1 1 0 0 0-.071-.17q.02.046.04.093a.4.4 0 0 0 .03.071m-.071-.173-.043-.086.039.081m-.053-.1.011.02a2 2 0 0 0-.245-.378c0 .02.021.048.079.122q.086.11.157.232M217.528 80.348c.016.09-.036.073-.096.053-.11-.035-.142-.014-.095.177a.1.1 0 0 1-.064-.039l-.007-.01c-.053-.069-.068-.157-.113-.228-.034-.051-.066-.057-.078-.057-.036 0-.095-.08-.095-.087s.029-.007.126.023c.206.065.313.075.382.034a1 1 0 0 1 .043.134m-.923-1.066c.042.15 0 .26-.12.19l-.013-.008v-.014l-.005-.015v-.013l-.005-.014v-.014l-.005-.015v-.014l-.004-.014v-.015l-.005-.013-.005-.014-.005-.015v-.028l-.005-.014-.004-.014h.025c.04-.008.043-.028.025-.12.067-.022.126.07.153.163m4.279-.365a1 1 0 0 0-.11-.407.9.9 0 0 0-.268-.315.863.863 0 0 0-.775-.137c-.129-.2-.264-.41-1.034-1.643-.228.108-1.132-.422-1.251-1.388.215.188.148.764.525.664q-.013-.466.03-.931c-.312-.058-.629.038-.941-.025a1.27 1.27 0 0 1-.669-.3c.096-1.525.096-1.525-.116-1.782-.123-.15-.573-.076-.718-.053a.93.93 0 0 1-.727-.062c.405-.19.394-.609-.035-1.32l-.063.1c-.231.323-.435.438-1.089.31.023.445-.095.88-.074 1.326a.283.283 0 0 0-.313-.071.3.3 0 0 0-.188.271c0 .078 0 .078.779.783-.259.271.077.749.351.987-.507-.06-.153.567-.148.573a.3.3 0 0 0 .077.063c.151.091.332-.01.483.078.125.074.069.275.216.333.083.033.156-.038.203-.085.073-.07.083-.068.147-.047q.03.244.021.49a1.14 1.14 0 0 0 1.091.059q.037.155.105.3c.174.282.508.385.693.655.096.139 0 .309.066.453-.239.12-.239.12-.929.066.038.635.042.699-.333.6q.312.837.522 1.709c.42.113.42.113.502.2l.03.1.031.1.028.1.03.1q.013.05.03.1.012.05.029.1l.029.099.029.1c-.104.2-.337.263-.43.468-.084.187-.071.25-.013.51.161-.058.278.078.422.1.434-.513.501-.591 1.087-.438-.096-1.039 1.336-.461 1.35-.455.369-.372.573-.543.836-.063.036-.2.079-.265.393-.407.19-.086.261-.119.272-.825-.16-.11-.382-.05-.525-.2a.94.94 0 0 0 .302-.422 1 1 0 0 0 .036-.526"/><path fill="#333c5e" d="M227.022 74.587s0 .05-.006.045a.2.2 0 0 1-.015-.045h.021m20.336 30.721-.005-.009v.03-.022m-2.005-12.759c.315 1.516.356 1.711.233 1.836-.053 0-.102-.045-.268-.342s-.165-.3-.213-.377c-.037-.06-.095-.1-.121-.168l-.21-.87c-.018-.1.012-.191 0-.287-.041-.291-.113-.576-.163-.865.095-.123.077-.543.242-.4.271.232.087.644.326.888a.13.13 0 0 0 .013-.061c.06.207.09.31.162.648m-7.788-.675a.6.6 0 0 0 .031.335c.091.266.143.545.156.827-.105-.146-.204-.11-.421.008-.279.153-.374.075-.444-.36.042.04.098.061.155.06.18-.059.191-.245.248-1.133.125.03.147.322.279.22 0 .013 0 .03-.004.043m7.16-2.112a2 2 0 0 1-.131-.227 5 5 0 0 1-.135-.459c-.023-.09-.032-.106-.046-.115s0-.023 0-.028q.179.414.293.854l-.007-.012m-13.157-1.1.016.081a.2.2 0 0 1-.074.023c-.112 0-.171-.067-.273-.22-.103-.154-.166-.23-.273-.232.203-.222.478-.21.604.348m-.679-.6q-.144-.112-.282-.22.015.016.032.028l.191.148q.03.025.06.045m11.888-4.197c.075.223.137.45.21.675a.4.4 0 0 0-.116-.128c-.052.066-.058.072.016.507.075.436.071.471.049.594q.018.052.035.106.016.053.035.1c.012.03.022.07.033.106l.034.1.034.1q.016.052.034.105.016.052.033.106l.033.1c.087.2.111.206.155.21a35 35 0 0 1 1.278 3.536c-.068.06-.068.06-.058.576-.162-.636-.218-.67-.321-.683-.04-.13-.095-.3-.14-.43l-.074-.19c-.164-.412-.388-.793-.568-1.2q-.21-.793-.521-1.552a2.5 2.5 0 0 1-.402-1.771 9 9 0 0 1-.136-1.136c.025-.454.208-.253.21-.251s.078.176.152.4m-2.979.499q.047.381.137.753a1.3 1.3 0 0 0-.355-.055.17.17 0 0 0-.088.053.2.2 0 0 0-.045.094c-.174-.621-.111-.713.025-.834a.4.4 0 0 0 .109-.145.4.4 0 0 0 .03-.182.45.45 0 0 1 .19.316m-12.605-8.78q.03.06.03.127a.3.3 0 0 1-.025.128.3.3 0 0 0-.005.232c-.069.042-.106-.05-.161-.208-.054-.158-.095-.267-.158-.218 0-.037 0-.086.031-.1a.12.12 0 0 1 .074.01.2.2 0 0 0 .088.017c.04-.006.059-.025.085-.077q.021.043.041.087m2.274-3.935q.048.105.082.216c.036.119.059.242.096.361a2 2 0 0 0-.426-.481 1.7 1.7 0 0 1-.331-.337s-.009-.117.096-.1.286.182.267.051a.8.8 0 0 1 .219.286m-1.311-2.274c.022.043.014.058.012.063-.011.026-.042.025-.058.044a.12.12 0 0 1-.019-.075c0-.014.02-.02.033-.026a.1.1 0 0 0 .027-.015zm1.373-.74c.011.1-.019.108-.029.11-.065 0-.158-.148-.13-.18s.126.033.158.053v.016m-.005.547a.85.85 0 0 0-.579-.147c-.038-.145-.06-.184-.12-.205-.036-.124-.048-.25.151-.248a.36.36 0 0 1-.012.23.3.3 0 0 0 .111.106.3.3 0 0 0 .148.033c.123.006.191.04.301.23m-.853-5.782a2 2 0 0 1-.17-.152c.013.008.17.152.17.152m-4.595-.674c.318.478.216.632.155.724q.141.128.248.287c-.178.35-.211.414.125 1.046h-.031l-.03.005h-.064l-.03.005h-.096a1.07 1.07 0 0 0-.153-.666c-.258-.534-.62-1-.903-1.519a.575.575 0 0 1 .779.1m3.628-1.568c.223.5.562.934.986 1.261a1.5 1.5 0 0 1-.431-.2c-.502-.266-.588-.276-.662-.232-.027.133.126.361.71 1.059v.01a3 3 0 0 1-.426-.152 7 7 0 0 1-.736-.925 4.3 4.3 0 0 0-.823-.956c.172.004.341.043.498.116.521.181.841.275.86-.055.009.022.024.05.032.07m-5.204-2.826q.076.084.135.182a2 2 0 0 1-.169-.181.4.4 0 0 1-.045-.081s.013 0 .078.081m10.382 5.575c-1.948-2.426-4.637-5.587-6.745-7.864l-.026-.027-.486-.483q.716.922 1.336 1.92c-.124-.125-.292-.29-.418-.415l-.24-.251c.285.969.777 1.857 1.439 2.598a2.35 2.35 0 0 1-.84-.778c-.319-.152-.331-.166-.345-.182a.4.4 0 0 0-.041-.044l-.041-.045-.04-.045-.04-.045-.041-.044-.04-.045-.04-.044-.408-.487a5.5 5.5 0 0 0 1.863 2.45l-.186.524c-1.857-2.869-7.837-5.596-9.316-5.32-.056.368-.147.855-.226 1.218l-.496.185c-.298 2.178-.298 2.178-.217 2.348l-.191.573c.101.14.233.325.331.466l.55-.049c.247.894.538 1.77.792 2.66l.029.259c-.075.611.047 1.229-.051 1.841l-.508.233c-.507 5.712 1.931 7.143 3.429 7.488.173.287.402.672.573.96-.02-.392.041-.785.18-1.15a2.7 2.7 0 0 1 .626-.966 44 44 0 0 0 3.681 3.153c.345.092.345.09.344.09l.434-.515c-.218-1.73-1.561-3.22-1.003-5.114-2.3-1.885-2.3-1.885-2.023-3.348 3.318 3.897 3.318 3.897 3.637 3.988-.19.43-.511 1.147 1.337 5.072l-.556-.011a2.3 2.3 0 0 1-.919.673c-.056.17-.134.4-.191.568-.849-.777-1.847-1.341-2.718-2.084l-.212.22a8.8 8.8 0 0 1-1.294-1.948 1.5 1.5 0 0 0-.781.728c-.167.334-.212.72-.127 1.086l-.056.207h-.005c.455.98 1.085 1.858 1.533 2.84l-.425-.44a19 19 0 0 1-1.322 1.63c-.112.37-.131.371-.152.373l-.058.006-.058.005h-.176l-.059.004h-.058q.163.577.416 1.117c-.252.548-.871.847-.955 1.51.015.181.034.422.05.6l-.526.164-.083.612c-.327-.08-.764-.168-1.097-.212-.047.39.025.785.205 1.13-1.568-.165-1.712.106-1.995.645.657 1.715 2.673 2.075 3.424 3.697l-.488.334.523.227q.09.591.077 1.19c-4.915.6-4.915.6-5.209.823.382 1.683.382 1.683.265 2.34l.514.145a2.26 2.26 0 0 0-.382.99l.343.431c-.123 1.2.536 2.26.598 3.428.54-.03 1.078-.074 1.623-.107q.319.46.705.858c4.134-.556 4.224-2.306 4.406-5.79 1.64-.86 1.484-1.23.967-2.457.728-.213 1.495.072 2.22-.188.052-.19.12-.447.171-.638.312-.178.555-.463.69-.806.297.152.549.386.73.676s.283.626.296.972c2.292-.229 4.039 4.013 4.049 4.057-.471.478-.52.528-1.462.474l-.146.881c.202.274.202.274 1.573 1.28.402-1.357.532-2.785.382-4.197l.253-.477c-.37-1.211-1.797-1.667-1.994-2.998a5.8 5.8 0 0 1 1.974 1.215c-.036.3-.065.71-.069 1.015.173.4.388.947.538 1.358.032-.188.076-.437.107-.624.845 1.845 2.129 3.459 2.708 5.447.117-1.004.37-1.986.752-2.915l.111-.073a5.3 5.3 0 0 1-.184-2.182l.217-.167.045-.714c-.026-1.476-.026-1.476-.287-6.184l.518.116a9.2 9.2 0 0 0 .908 1.562q.439-.401.813-.87a19 19 0 0 1 1.762 2.073c-.031.384.055.769.245 1.099-.033.16-.078.373-.113.532-.716-.116-.859-.14-1.539-.967a1.6 1.6 0 0 0-.789.485 1.7 1.7 0 0 0-.404.858l-.353-.517c-.992 1.114-.992 1.114.406 7.194.122-.12.281-.28.401-.4l.518.308c.03.16.072.374.104.533.081-.382.177-.9.235-1.282a1.9 1.9 0 0 0 1.099.323l.131-.646c.011.016 1.038 1.599.261 2.891.306.482.477.747.207 2.412-.955-.211-.955-.211-1.406-.712-.023.359-.07.837-.116 1.193a7 7 0 0 0-1.567-.428c-.086-.146-.203-.341-.287-.487l-.536-.017c-.191-.242-.191-.242-.747-1.724-.227.368-.227.368-1.223 4.01a2.4 2.4 0 0 0-.779-.698 2.26 2.26 0 0 0-.988-.285 7.4 7.4 0 0 0-.639-1.758l-.463.311-.523-.149a4 4 0 0 0-.397-1.124l-.52-.123c-1.876-3.662-1.876-3.662-2.617-2.728-.772-.215-1.492.34-2.26.161l-.228.008-.251.027-.021.007-.077.016-.286.077c-.514.189-1.014.415-1.533.589q-.377.012-.734.14l-.036.034-7.094 5.296c-.022.611.214 1.199.151 1.813l-.494.209c.043.179.095.417.14.599l.495.244c-.655 1.099-1.992 1.576-2.422 2.876-.328.2-.327.226-.327.253v.576c-1.191 1.293-1.712 2.206-2.471 6.709 1.838 1.847.077 4.553-.674 5.708.573.874.573.874.309 1.572.35.725.35.725.382 2.416.353.163.736.24 1.121.227 1.217 1.314 1.217 1.314 1.27 2.088l-.47.384c-.326-.3-.329-.275-.332-.244l-.009.091c0 .031-.007.061-.01.091q-.005.046-.008.092-.004.046-.01.091l-.008.093c-.002.031-.008.061-.01.092l-.011.092a8 8 0 0 1 2.159 1.068c0 .189-.009.443-.012.631 3.93 2.558 7.262-.847 10.903-1.175.496.528.477 1.351.992 1.868l.531-.037.104.566c.104-.126.237-.292.339-.416.052.16.122.374.173.535l.53-.055q.054.323.059.652c-.105 1.368-1.272 2.298-1.396 3.662-.14 1.554.816 2.933.662 4.488-.047.467-.27 1.058-.346 1.519-.353 2.131-.692 2.553-1.209 3.191-.053.064-8.029 17.386-8.052 17.486a8.25 8.25 0 0 0 5.039-2.49h.006c3.644-2.826 5.878-6.954 8.887-10.367-.157.4-.382.93-.558 1.321a16.8 16.8 0 0 0 2.09-2.888l.056-.165h.007c5.069-5.122 5.494-12.765 9.34-18.551l.166-.209c.044-.19.104-.441.15-.63-.055.152-.13.353-.183.505l-.031.034c.637-2.871 1.705-5.628 2.101-8.56a10 10 0 0 1-1.176 1.463 5.2 5.2 0 0 1-.218-2.134q-.07-1.501.043-2.998l-.456-.375c.006-.366.011-.853.012-1.219l.032-.479c-.019-.04-.019-.04-1.454-9.31 1.391 1.573 1.577 5.745 1.986 14.888l-.031.316c1.549-1.599 2.433-4.326 2.63-8.119l.006-.007.006-.006.005-.008.008-.007v-.007l.004-.007.005-.006v-.007a27 27 0 0 0-.177-6.874 3.8 3.8 0 0 1-.274 1.888q.045-.551-.032-1.099c-.213-.344-.214-.387-.217-.431s0-.088-.005-.132c-.006-.044 0-.088 0-.132q.002-.066-.006-.132c-.006-.044-.005-.088-.006-.132l-.008-.131q.001-.067-.005-.133l-.008-.131a7.6 7.6 0 0 1-.406-1.998 12.9 12.9 0 0 1 1.146 3.383c-.157-3.457-.589-8.058-1.072-11.484-1.685-7.638-1.685-7.638-2.96-11.304-2.789-7.155-2.789-7.155-4.564-10.504-3.505-6.056-4.044-6.987-6.023-9.552"/></g><defs><linearGradient id="a" x1="180.072" x2="176.382" y1="77.696" y2="224.919" gradientUnits="userSpaceOnUse"><stop stop-color="#fff" stop-opacity="0"/><stop offset="1" stop-color="#0190ca"/></linearGradient><linearGradient id="b" x1="161.095" x2="141.402" y1="128.696" y2="9.851" gradientUnits="userSpaceOnUse"><stop stop-color="#fff"/><stop offset="1" stop-color="#7cc6e4"/></linearGradient><linearGradient id="c" x1="257.026" x2="246.558" y1="199.707" y2="137.095" gradientUnits="userSpaceOnUse"><stop stop-color="#fff"/><stop offset="1" stop-color="#7cc6e4"/></linearGradient><linearGradient id="d" x1="244.422" x2="229.08" y1="196.649" y2="104.56" gradientUnits="userSpaceOnUse"><stop stop-color="#fff"/><stop offset="1" stop-color="#7cc6e4"/></linearGradient><linearGradient id="e" x1="200.429" x2="175.343" y1="173.808" y2="21.932" gradientUnits="userSpaceOnUse"><stop stop-color="#fff"/><stop offset="1" stop-color="#7cc6e4"/></linearGradient><linearGradient id="f" x1="126.683" x2="234.993" y1="162.633" y2="59.141" gradientUnits="userSpaceOnUse"><stop stop-color="#1b69ff"/><stop offset="0" stop-color="#e0e7fd"/><stop offset=".227" stop-color="#5e98f7"/><stop offset=".639" stop-color="#69a1e3"/><stop offset=".844" stop-color="#4670ba"/></linearGradient><linearGradient id="g" x1="170.833" x2="168.805" y1="123.803" y2="9.325" gradientUnits="userSpaceOnUse"><stop stop-color="#fff"/><stop offset="1" stop-color="#7cc6e4"/></linearGradient><linearGradient id="h" x1="225.806" x2="225.324" y1="161.323" y2="15.885" gradientUnits="userSpaceOnUse"><stop stop-color="#fff"/><stop offset="1" stop-color="#7cc6e4"/></linearGradient></defs></svg>