<svg xmlns="http://www.w3.org/2000/svg" width="51" height="51" fill="none" viewBox="0 0 51 51"><path fill="#092346" fill-rule="evenodd" d="M25.502 1.04a24.494 24.494 0 1 0 17.294 7.162A24.34 24.34 0 0 0 25.502 1.04m0 49.685a25.235 25.235 0 0 1-9.65-48.545 25.48 25.48 0 0 1 19.302 0 25.2 25.2 0 0 1 8.186 5.48 25.209 25.209 0 0 1-17.838 43.065" clip-rule="evenodd"/><path fill="#092346" fill-rule="evenodd" d="M25.503.766A24.734 24.734 0 1 0 50.233 25.5 24.76 24.76 0 0 0 25.503.766m0 50.234A25.5 25.5 0 1 1 51 25.5 25.53 25.53 0 0 1 25.503 51" clip-rule="evenodd"/><path fill="#092346" fill-rule="evenodd" d="M25.502 6.906c-13.416 0-24.329 9.208-24.329 20.526s10.913 20.524 24.33 20.524 24.326-9.204 24.326-20.524S38.917 6.906 25.502 6.906m0 41.82c-13.84 0-25.096-9.554-25.096-21.294S11.66 6.14 25.502 6.14s25.093 9.55 25.093 21.29c0 11.742-11.254 21.294-25.093 21.294" clip-rule="evenodd"/><path fill="#092346" fill-rule="evenodd" d="M25.504 40.523c-14.063 0-25.5-7.59-25.5-16.91a.383.383 0 1 1 .766 0c0 8.898 11.092 16.138 24.734 16.138s24.73-7.24 24.73-16.137a.383.383 0 1 1 .767 0c0 9.324-11.437 16.909-25.497 16.909" clip-rule="evenodd"/><path fill="#092346" fill-rule="evenodd" d="M25.503 26.492c-11.682 0-21.183-5.54-21.183-12.348a9.6 9.6 0 0 1 2.263-5.741.384.384 0 0 1 .59.49 8.8 8.8 0 0 0-2.086 5.251c0 6.384 9.16 11.582 20.417 11.582s20.412-5.197 20.412-11.582a8.71 8.71 0 0 0-3.508-6.7.383.383 0 1 1 .486-.594 9.46 9.46 0 0 1 3.791 7.294c-.001 6.809-9.502 12.348-21.182 12.348" clip-rule="evenodd"/><path fill="#092346" fill-rule="evenodd" d="M25.502 50.999a.385.385 0 0 1-.385-.385V.384a.383.383 0 1 1 .767 0v50.23a.385.385 0 0 1-.382.385" clip-rule="evenodd"/><path fill="#092346" fill-rule="evenodd" d="M12.76 47.531a.4.4 0 0 1-.218-.065c-4.34-2.993-6.394-7.307-6.1-12.817.57-10.786 10.57-24.046 19.126-28.699 8.06-4.375 15.425-2.765 20.208 4.425a.383.383 0 0 1-.636.424c-4.536-6.822-11.538-8.34-19.207-4.174-8.38 4.551-18.167 17.522-18.725 28.062C6.928 39.914 8.871 44 12.98 46.83a.383.383 0 0 1-.219.698z" clip-rule="evenodd"/><path fill="#092346" fill-rule="evenodd" d="M38.24 47.532a.382.382 0 0 1-.216-.698c4.105-2.83 6.045-6.915 5.767-12.141-.557-10.541-10.345-23.511-18.728-28.063-7.668-4.167-14.669-2.647-19.204 4.173a.383.383 0 0 1-.64-.423c4.787-7.193 12.153-8.8 20.21-4.425 8.558 4.65 18.559 17.91 19.13 28.699.289 5.51-1.761 9.823-6.1 12.816a.4.4 0 0 1-.22.062" clip-rule="evenodd"/></svg>