<svg width="241" height="290" viewBox="0 0 241 290" fill="none" xmlns="http://www.w3.org/2000/svg">
<g clip-path="url(#clip0_9_80751)">
<mask id="mask0_9_80751" style="mask-type:luminance" maskUnits="userSpaceOnUse" x="0" y="0" width="241" height="290">
<path d="M241 0H0V290H241V0Z" fill="white"/>
</mask>
<g mask="url(#mask0_9_80751)">
<path d="M239.413 169.775H189.183L133.27 135.909C126.07 131.548 113.491 132.094 105.175 137.135L51.2753 169.776H1.07529V343.811H1.09226C0.885262 346.761 2.45726 349.611 5.91526 351.705L107.194 413.053C114.394 417.413 126.974 416.868 135.294 411.827L232.536 352.927C236.853 350.313 239.154 347.001 239.378 343.809H239.415L239.413 169.775Z" fill="url(#paint0_linear_9_80751)"/>
<path d="M236.379 191.458L128.523 254.129C126.265 255.47 123.688 256.177 121.062 256.177C118.436 256.177 115.859 255.47 113.601 254.129L4.10073 190.519C3.14786 189.914 2.36823 189.073 1.83815 188.077C1.30808 187.081 1.04568 185.964 1.07668 184.836V151.91L112.528 104.91C114.693 103.918 117.043 103.392 119.424 103.364C121.806 103.337 124.167 103.809 126.355 104.75L239.4 152.85V185.787C239.428 186.912 239.165 188.026 238.635 189.02C238.106 190.014 237.329 190.853 236.379 191.458Z" fill="#D9DDE8"/>
<path d="M238.214 154.573L128.251 218.48C126.003 219.814 123.438 220.518 120.824 220.518C118.21 220.518 115.645 219.814 113.397 218.48L2.26812 153.914C1.7379 153.562 1.34961 153.033 1.17254 152.422C0.995471 151.811 1.04106 151.157 1.30108 150.576C1.49325 150.106 1.83259 149.711 2.26812 149.451L112.261 85.5337C114.502 84.205 117.059 83.5039 119.664 83.5039C122.269 83.5039 124.825 84.205 127.066 85.5337L238.217 150.114C238.747 150.468 239.134 150.998 239.309 151.611C239.485 152.224 239.437 152.879 239.175 153.46C238.983 153.923 238.647 154.313 238.217 154.573H238.214Z" fill="#F2F5FC"/>
<path d="M211.351 156.311L132.121 202.364C129.416 203.969 126.329 204.816 123.184 204.816C120.039 204.816 116.952 203.969 114.248 202.364L29.1326 152.908C28.5155 152.498 28.0638 151.882 27.8578 151.17C27.6518 150.458 27.7049 149.697 28.0076 149.021C28.2314 148.474 28.626 148.014 29.1326 147.711L109.74 100.863C112.027 99.5053 114.638 98.7891 117.299 98.7891C119.959 98.7891 122.57 99.5053 124.858 100.863L211.358 151.118C211.974 151.529 212.426 152.146 212.631 152.859C212.836 153.572 212.782 154.334 212.479 155.011C212.254 155.553 211.861 156.009 211.358 156.311H211.351Z" fill="#3A456E"/>
<path d="M211.353 156.309L203.266 161.017L124.862 115.46C122.574 114.103 119.962 113.386 117.302 113.386C114.642 113.386 112.03 114.103 109.743 115.46L37.2235 157.605L29.1326 152.905C28.5156 152.496 28.0638 151.88 27.8578 151.169C27.6518 150.457 27.7049 149.696 28.0076 149.019C28.2313 148.473 28.626 148.013 29.1326 147.709L109.744 100.859C112.031 99.5017 114.643 98.7852 117.303 98.7852C119.963 98.7852 122.575 99.5017 124.863 100.859L211.363 151.115C211.977 151.531 212.424 152.151 212.626 152.864C212.827 153.578 212.769 154.34 212.463 155.015C212.238 155.551 211.849 156.001 211.352 156.301L211.353 156.309Z" fill="#E0E3ED"/>
<path d="M222.453 182.312C222.453 184.892 224.253 185.935 226.473 184.647C227.645 183.878 228.62 182.843 229.318 181.627C230.016 180.411 230.418 179.048 230.491 177.647C230.491 175.067 228.691 174.025 226.473 175.314C225.3 176.083 224.325 177.118 223.626 178.334C222.928 179.55 222.526 180.914 222.453 182.314V182.312Z" fill="#FFE06A"/>
<path d="M225.439 183.445C226.612 182.676 227.587 181.642 228.285 180.426C228.984 179.209 229.386 177.846 229.46 176.445C229.465 175.946 229.376 175.451 229.198 174.984C229.644 175.26 230.003 175.656 230.233 176.127C230.463 176.599 230.555 177.125 230.498 177.646C230.424 179.047 230.023 180.41 229.324 181.626C228.626 182.842 227.652 183.877 226.48 184.646C224.748 185.653 223.29 185.228 222.723 183.775C223.167 183.954 223.65 184.017 224.125 183.959C224.601 183.901 225.054 183.725 225.444 183.445H225.439Z" fill="#FCFCFC"/>
<path d="M208.992 189.928C208.992 192.508 210.792 193.554 213.01 192.264C214.181 191.493 215.155 190.458 215.853 189.243C216.551 188.027 216.954 186.664 217.028 185.264C217.028 182.684 215.228 181.638 213.01 182.927C211.838 183.696 210.863 184.73 210.165 185.947C209.466 187.163 209.065 188.527 208.992 189.928Z" fill="url(#paint1_linear_9_80751)"/>
<path d="M211.979 191.063C213.152 190.292 214.126 189.256 214.824 188.039C215.522 186.822 215.924 185.457 215.997 184.056C216.003 183.556 215.915 183.06 215.737 182.594C216.182 182.871 216.539 183.268 216.768 183.74C216.997 184.212 217.088 184.739 217.03 185.26C216.956 186.66 216.553 188.023 215.855 189.239C215.157 190.455 214.183 191.489 213.012 192.26C211.283 193.26 209.821 192.836 209.254 191.385C209.699 191.564 210.181 191.628 210.657 191.572C211.134 191.515 211.588 191.34 211.979 191.063Z" fill="white"/>
<path d="M150.523 191.848L171.39 179.719L176.999 188.319L156.367 200.871" fill="#F2F5FC"/>
<path d="M124.901 178.28C113.618 178.28 102.337 175.802 93.7474 170.843C85.3804 166.013 80.7734 159.575 80.7734 152.717C80.7734 145.859 85.3804 139.417 93.7474 134.593C110.924 124.677 138.877 124.677 156.047 134.593C164.412 139.424 169.021 145.861 169.021 152.72C169.021 159.579 164.419 166.012 156.051 170.843C147.465 175.801 136.181 178.28 124.901 178.28ZM124.901 127.63C113.707 127.63 102.513 130.09 93.9904 135.011C85.7794 139.752 81.2574 146.04 81.2574 152.718C81.2574 159.396 85.7804 165.686 93.9904 170.426C111.036 180.267 138.77 180.267 155.814 170.426C164.025 165.685 168.546 159.397 168.546 152.726C168.546 146.055 164.026 139.758 155.813 135.016C147.288 130.095 136.092 127.635 124.898 127.635L124.901 127.63Z" fill="url(#paint2_linear_9_80751)"/>
<path d="M168.783 139.919V125.581H161.015C159.425 124.253 157.724 123.065 155.93 122.03C138.792 112.13 111.003 112.13 93.8647 122.03C92.0698 123.064 90.3684 124.252 88.7797 125.581H81.0117V139.941C81.0117 146.426 85.2957 152.91 93.8657 157.858C111.004 167.752 138.793 167.752 155.931 157.858C164.51 152.904 168.793 146.41 168.783 139.919Z" fill="url(#paint3_linear_9_80751)"/>
<path d="M81.4156 139.571V125.578H81.0156V139.942C81.0156 145.748 84.4766 151.542 91.3436 156.242C84.7336 151.355 81.4156 145.466 81.4156 139.571Z" fill="white"/>
<path d="M168.087 125.578V139.458C168.097 145.951 163.814 152.445 155.236 157.398C138.098 167.292 110.311 167.292 93.1708 157.398C92.2998 156.898 91.5027 156.366 90.7188 155.832C91.6957 156.532 92.7368 157.21 93.8628 157.86C111.001 167.754 138.79 167.754 155.928 157.86C164.506 152.906 168.789 146.412 168.779 139.921V125.578H168.087Z" fill="url(#paint4_linear_9_80751)"/>
<path d="M124.898 150.914C149.135 150.914 168.784 139.57 168.784 125.576C168.784 111.582 149.135 100.238 124.898 100.238C100.66 100.238 81.0117 111.582 81.0117 125.576C81.0117 139.57 100.66 150.914 124.898 150.914Z" fill="#F2F5FC"/>
<path d="M95.0516 107.921C103.757 102.894 115.128 100.356 126.539 100.283C114.766 100.03 102.853 102.47 93.8657 107.658C80.5137 115.367 77.4456 126.95 85.0656 136.158C78.5066 126.735 81.8306 115.554 95.0516 107.921Z" fill="white"/>
<path d="M155.929 107.661C151.079 104.955 145.844 103.009 140.405 101.891C145.299 103.029 150.008 104.855 154.391 107.314C171.529 117.214 171.529 133.252 154.391 143.147C141.806 150.414 123.491 152.323 107.852 148.917C123.811 152.798 142.93 151 155.931 143.494C173.069 133.599 173.067 117.555 155.929 107.661Z" fill="url(#paint5_linear_9_80751)"/>
<path d="M124.687 141.767C140.176 141.767 152.733 134.517 152.733 125.575C152.733 116.632 140.176 109.383 124.687 109.383C109.197 109.383 96.6406 116.632 96.6406 125.575C96.6406 134.517 109.197 141.767 124.687 141.767Z" fill="url(#paint6_linear_9_80751)"/>
<path d="M104.854 122.803C115.808 116.48 133.565 116.48 144.518 122.803C147.569 124.4 150.069 126.878 151.693 129.915C154.306 124.475 151.926 118.403 144.518 114.126C133.566 107.802 115.808 107.802 104.854 114.126C97.447 118.403 95.069 124.475 97.681 129.915C99.3046 126.878 101.804 124.4 104.854 122.803Z" fill="#18D0F7"/>
<path d="M104.854 119.739C115.808 113.415 133.565 113.415 144.517 119.739C148.752 122.183 151.329 125.217 152.289 128.382C153.813 123.361 151.235 118.004 144.517 114.126C133.565 107.802 115.807 107.802 104.854 114.126C98.1365 118.006 95.5535 123.361 97.0825 128.382C98.0425 125.217 100.62 122.186 104.854 119.739Z" fill="url(#paint7_linear_9_80751)"/>
<path d="M104.852 117.009C115.806 110.685 133.563 110.685 144.515 117.009C149.356 119.803 152.048 123.366 152.615 127.017C153.325 122.406 150.631 117.654 144.515 114.126C133.563 107.802 115.805 107.802 104.852 114.126C98.7408 117.656 96.0518 122.408 96.7588 127.018C97.3198 123.365 100.012 119.803 104.852 117.009Z" fill="#267FE5"/>
<path d="M147.61 106.007C147.183 105.85 146.723 105.8 146.272 105.862C145.821 105.923 145.392 106.095 145.022 106.361C144.476 106.872 144.753 107.541 145.637 107.861C146.065 108.018 146.525 108.067 146.977 108.005C147.428 107.943 147.858 107.771 148.227 107.505C148.77 106.993 148.495 106.323 147.61 106.007Z" fill="url(#paint8_linear_9_80751)"/>
<path opacity="0.8" d="M153.803 109.016C153.393 108.819 152.943 108.722 152.489 108.731C152.035 108.741 151.589 108.857 151.189 109.072C150.495 109.505 150.538 110.179 151.289 110.581C151.698 110.778 152.148 110.876 152.602 110.866C153.056 110.857 153.502 110.74 153.903 110.525C154.597 110.088 154.553 109.417 153.803 109.016Z" fill="url(#paint9_linear_9_80751)"/>
<path opacity="0.6" d="M158.88 112.65C158.5 112.406 158.067 112.257 157.618 112.215C157.168 112.173 156.715 112.24 156.297 112.41C155.469 112.755 155.284 113.423 155.882 113.901C156.262 114.145 156.695 114.294 157.144 114.336C157.594 114.378 158.047 114.311 158.465 114.141C159.298 113.795 159.48 113.127 158.88 112.65Z" fill="url(#paint10_linear_9_80751)"/>
<path opacity="0.4" d="M162.645 116.782C162.316 116.49 161.918 116.289 161.488 116.197C161.058 116.105 160.612 116.126 160.193 116.257C159.264 116.503 158.856 117.137 159.282 117.672C159.611 117.963 160.009 118.165 160.439 118.257C160.868 118.349 161.315 118.329 161.734 118.199C162.664 117.956 163.075 117.319 162.645 116.782Z" fill="url(#paint11_linear_9_80751)"/>
<path opacity="0.2" d="M164.935 121.264C164.681 120.929 164.335 120.675 163.94 120.535C163.544 120.394 163.116 120.372 162.708 120.472C161.713 120.609 161.1 121.185 161.336 121.759C161.589 122.093 161.935 122.346 162.331 122.487C162.727 122.628 163.155 122.65 163.563 122.551C164.553 122.412 165.167 121.836 164.935 121.264Z" fill="url(#paint12_linear_9_80751)"/>
<path opacity="0.1" d="M165.475 126.421C165.923 125.891 165.543 125.251 164.624 124.993C164.203 124.857 163.755 124.831 163.322 124.917C162.889 125.003 162.485 125.198 162.149 125.484C161.701 126.014 162.083 126.653 163 126.912C163.42 127.047 163.868 127.072 164.301 126.986C164.734 126.901 165.138 126.706 165.475 126.421Z" fill="url(#paint13_linear_9_80751)"/>
<path d="M168.784 107.409L155.196 107.255C138.668 98.1371 112.851 97.9091 95.8662 106.578L80.9922 106.408V124.879H81.0412C80.7242 131.593 84.9912 138.365 93.8662 143.488C111.004 153.388 138.793 153.388 155.929 143.488C164.806 138.363 169.071 131.588 168.754 124.877H168.783L168.784 107.409Z" fill="url(#paint14_linear_9_80751)"/>
<path d="M168.783 109.053V94.7075H161.015C159.426 93.3784 157.724 92.1899 155.93 91.1555C138.792 81.2555 111.003 81.2555 93.8647 91.1555C92.0701 92.1904 90.3687 93.3792 88.7797 94.7084H81.0117V109.072C81.0117 115.557 85.2957 122.041 93.8657 126.989C111.004 136.883 138.793 136.883 155.931 126.989C164.51 122.034 168.793 115.541 168.783 109.053Z" fill="url(#paint15_linear_9_80751)"/>
<path d="M81.4156 108.707V94.707H81.0156V109.071C81.0156 114.871 84.4766 120.671 91.3436 125.371C84.7336 120.487 81.4156 114.596 81.4156 108.707Z" fill="white"/>
<path d="M168.087 94.707V108.587C168.097 115.08 163.814 121.573 155.236 126.526C138.098 136.426 110.311 136.426 93.1708 126.526C92.2998 126.026 91.5027 125.494 90.7188 124.96C91.6957 125.66 92.7368 126.338 93.8628 126.988C111.001 136.882 138.79 136.882 155.928 126.988C164.506 122.034 168.789 115.54 168.779 109.048V94.707H168.087Z" fill="url(#paint16_linear_9_80751)"/>
<path d="M124.898 120.047C149.135 120.047 168.784 108.703 168.784 94.7091C168.784 80.7153 149.135 69.3711 124.898 69.3711C100.66 69.3711 81.0117 80.7153 81.0117 94.7091C81.0117 108.703 100.66 120.047 124.898 120.047Z" fill="#F2F5FC"/>
<path d="M95.0516 77.0533C103.757 72.0273 115.128 69.4893 126.539 69.4163C114.766 69.1633 102.853 71.6033 93.8657 76.7913C80.5137 84.5003 77.4456 96.0833 85.0656 105.291C78.5066 95.8693 81.8306 84.6883 95.0516 77.0533Z" fill="white"/>
<path d="M155.929 76.7935C151.079 74.0875 145.844 72.1415 140.405 71.0234C145.299 72.1611 150.008 73.987 154.391 76.4464C171.529 86.3464 171.529 102.385 154.391 112.279C141.806 119.546 123.491 121.453 107.852 118.047C123.811 121.93 142.93 120.13 155.931 112.626C173.069 102.73 173.067 86.6875 155.929 76.7935Z" fill="url(#paint17_linear_9_80751)"/>
<path d="M124.687 110.904C140.176 110.904 152.733 103.654 152.733 94.7115C152.733 85.7689 140.176 78.5195 124.687 78.5195C109.197 78.5195 96.6406 85.7689 96.6406 94.7115C96.6406 103.654 109.197 110.904 124.687 110.904Z" fill="url(#paint18_linear_9_80751)"/>
<path d="M104.854 91.9405C115.808 85.6165 133.565 85.6175 144.518 91.9405C147.568 93.5375 150.068 96.0147 151.693 99.0505C154.306 93.6105 151.926 87.5395 144.518 83.2625C133.566 76.9385 115.808 76.9385 104.854 83.2625C97.447 87.5395 95.069 93.6115 97.681 99.0515C99.3047 96.0155 101.804 93.5378 104.854 91.9405Z" fill="url(#paint19_linear_9_80751)"/>
<path d="M104.854 88.8755C115.808 82.5515 133.565 82.5515 144.517 88.8755C148.752 91.3195 151.329 94.3535 152.289 97.5185C153.813 92.4955 151.235 87.1405 144.517 83.2625C133.565 76.9385 115.807 76.9385 104.854 83.2625C98.1365 87.1425 95.5535 92.4975 97.0825 97.5185C98.0425 94.3535 100.62 91.3205 104.854 88.8755Z" fill="url(#paint20_linear_9_80751)"/>
<path d="M104.852 86.1426C115.806 79.8196 133.563 79.8196 144.515 86.1426C149.356 88.9366 152.048 92.4996 152.615 96.1506C153.325 91.5396 150.631 86.7876 144.515 83.2586C133.563 76.9346 115.805 76.9346 104.852 83.2586C98.7408 86.7866 96.0518 91.5396 96.7588 96.1506C97.3198 92.5006 100.012 88.9376 104.852 86.1426Z" fill="#267FE5"/>
<path d="M147.61 75.1391C147.183 74.9823 146.723 74.9327 146.272 74.9946C145.821 75.0565 145.392 75.228 145.022 75.4941C144.476 76.0051 144.753 76.6751 145.637 76.9881C146.065 77.1451 146.525 77.1949 146.976 77.1332C147.428 77.0715 147.857 76.9001 148.227 76.6341C148.77 76.1241 148.495 75.4541 147.61 75.1391Z" fill="url(#paint21_linear_9_80751)"/>
<path opacity="0.8" d="M153.803 78.1443C153.393 77.9477 152.943 77.8503 152.489 77.86C152.035 77.8698 151.589 77.9863 151.189 78.2003C150.495 78.6323 150.538 79.3083 151.289 79.7103C151.698 79.9069 152.148 80.0043 152.602 79.9946C153.056 79.9849 153.502 79.8683 153.903 79.6543C154.597 79.2223 154.553 78.5463 153.803 78.1443Z" fill="url(#paint22_linear_9_80751)"/>
<path opacity="0.6" d="M158.88 81.7789C158.5 81.535 158.067 81.3859 157.618 81.3441C157.168 81.3024 156.715 81.3691 156.297 81.5389C155.469 81.8849 155.284 82.5519 155.882 83.0299C156.262 83.2738 156.695 83.4229 157.144 83.4647C157.594 83.5064 158.047 83.4396 158.465 83.2699C159.298 82.9219 159.48 82.2569 158.88 81.7789Z" fill="url(#paint23_linear_9_80751)"/>
<path opacity="0.4" d="M162.645 85.9144C162.316 85.6233 161.918 85.422 161.488 85.33C161.058 85.238 160.612 85.2585 160.193 85.3894C159.264 85.6344 158.856 86.2694 159.282 86.8044C159.611 87.0958 160.009 87.2974 160.439 87.3898C160.868 87.4821 161.315 87.462 161.734 87.3314C162.664 87.0854 163.075 86.4514 162.645 85.9144Z" fill="url(#paint24_linear_9_80751)"/>
<path opacity="0.2" d="M164.935 90.3924C164.681 90.0576 164.335 89.8043 163.94 89.6635C163.544 89.5228 163.116 89.5009 162.708 89.6005C161.713 89.7375 161.1 90.3135 161.336 90.8865C161.589 91.2214 161.935 91.4749 162.331 91.6158C162.726 91.7567 163.155 91.7788 163.563 91.6795C164.553 91.5425 165.167 90.9664 164.935 90.3924Z" fill="url(#paint25_linear_9_80751)"/>
<path opacity="0.1" d="M165.475 95.5496C165.923 95.0186 165.543 94.3797 164.624 94.1207C164.203 93.9857 163.756 93.9599 163.323 94.0458C162.89 94.1317 162.485 94.3264 162.149 94.6117C161.701 95.1427 162.083 95.7816 163 96.0416C163.42 96.1765 163.868 96.2021 164.301 96.116C164.734 96.03 165.138 95.835 165.475 95.5496Z" fill="url(#paint26_linear_9_80751)"/>
<path d="M128.282 127.019C128.281 127.564 128.12 128.096 127.817 128.549C127.514 129.003 127.083 129.356 126.58 129.564C126.076 129.773 125.522 129.827 124.988 129.721C124.453 129.614 123.962 129.352 123.577 128.967C123.191 128.581 122.929 128.09 122.823 127.556C122.716 127.021 122.771 126.467 122.979 125.964C123.188 125.46 123.541 125.03 123.994 124.727C124.447 124.424 124.98 124.262 125.525 124.262C125.887 124.262 126.245 124.333 126.58 124.471C126.914 124.61 127.218 124.813 127.474 125.069C127.73 125.325 127.933 125.629 128.072 125.964C128.21 126.298 128.282 126.657 128.282 127.019Z" fill="url(#paint27_linear_9_80751)"/>
<path d="M125.525 128.74C124.885 128.739 124.265 128.514 123.773 128.106C123.28 127.697 122.945 127.129 122.825 126.5C122.747 126.899 122.757 127.311 122.857 127.706C122.956 128.101 123.142 128.469 123.401 128.783C123.659 129.098 123.984 129.351 124.352 129.525C124.72 129.699 125.122 129.789 125.529 129.789C125.937 129.789 126.339 129.699 126.707 129.525C127.075 129.351 127.4 129.098 127.658 128.783C127.917 128.469 128.102 128.101 128.202 127.706C128.301 127.311 128.312 126.899 128.233 126.5C128.114 127.13 127.778 127.699 127.283 128.108C126.789 128.517 126.167 128.741 125.525 128.74Z" fill="#267FE5"/>
</g>
</g>
<defs>
<linearGradient id="paint0_linear_9_80751" x1="136.214" y1="451.375" x2="149.651" y2="116.706" gradientUnits="userSpaceOnUse">
<stop stop-color="white"/>
<stop offset="1" stop-color="#C8CEDE"/>
</linearGradient>
<linearGradient id="paint1_linear_9_80751" x1="-1026.78" y1="501.128" x2="-1026.78" y2="501.18" gradientUnits="userSpaceOnUse">
<stop stop-color="#5E98F7"/>
<stop offset="1" stop-color="#4670BA"/>
</linearGradient>
<linearGradient id="paint2_linear_9_80751" x1="80.7734" y1="152.718" x2="169.021" y2="152.718" gradientUnits="userSpaceOnUse">
<stop stop-color="#FFE06A"/>
<stop offset="1" stop-color="#FFCC00"/>
</linearGradient>
<linearGradient id="paint3_linear_9_80751" x1="-283.677" y1="139.942" x2="-195.906" y2="139.942" gradientUnits="userSpaceOnUse">
<stop stop-color="white"/>
<stop offset="0.506" stop-color="#CAD1E0"/>
<stop offset="1" stop-color="#C8CEDE"/>
</linearGradient>
<linearGradient id="paint4_linear_9_80751" x1="90.7188" y1="145.429" x2="168.779" y2="145.429" gradientUnits="userSpaceOnUse">
<stop stop-color="#A0CCE0"/>
<stop offset="1" stop-color="#69A1E3"/>
</linearGradient>
<linearGradient id="paint5_linear_9_80751" x1="107.852" y1="126.398" x2="168.783" y2="126.398" gradientUnits="userSpaceOnUse">
<stop stop-color="#A0CCE0"/>
<stop offset="1" stop-color="#69A1E3"/>
</linearGradient>
<linearGradient id="paint6_linear_9_80751" x1="96.6406" y1="125.575" x2="152.733" y2="125.575" gradientUnits="userSpaceOnUse">
<stop stop-color="#A0CCE0"/>
<stop offset="1" stop-color="#69A1E3"/>
</linearGradient>
<linearGradient id="paint7_linear_9_80751" x1="96.6562" y1="118.882" x2="152.713" y2="118.882" gradientUnits="userSpaceOnUse">
<stop stop-color="#A0CCE0"/>
<stop offset="1" stop-color="#69A1E3"/>
</linearGradient>
<linearGradient id="paint8_linear_9_80751" x1="144.742" y1="106.934" x2="148.506" y2="106.934" gradientUnits="userSpaceOnUse">
<stop stop-color="#A0CCE0"/>
<stop offset="1" stop-color="#69A1E3"/>
</linearGradient>
<linearGradient id="paint9_linear_9_80751" x1="150.695" y1="109.799" x2="154.395" y2="109.799" gradientUnits="userSpaceOnUse">
<stop stop-color="#A0CCE0"/>
<stop offset="1" stop-color="#69A1E3"/>
</linearGradient>
<linearGradient id="paint10_linear_9_80751" x1="155.531" y1="113.275" x2="159.233" y2="113.275" gradientUnits="userSpaceOnUse">
<stop stop-color="#A0CCE0"/>
<stop offset="1" stop-color="#69A1E3"/>
</linearGradient>
<linearGradient id="paint11_linear_9_80751" x1="159.113" y1="117.227" x2="162.816" y2="117.227" gradientUnits="userSpaceOnUse">
<stop stop-color="#A0CCE0"/>
<stop offset="1" stop-color="#69A1E3"/>
</linearGradient>
<linearGradient id="paint12_linear_9_80751" x1="161.285" y1="121.511" x2="164.984" y2="121.511" gradientUnits="userSpaceOnUse">
<stop stop-color="#A0CCE0"/>
<stop offset="1" stop-color="#69A1E3"/>
</linearGradient>
<linearGradient id="paint13_linear_9_80751" x1="161.961" y1="125.952" x2="165.663" y2="125.952" gradientUnits="userSpaceOnUse">
<stop stop-color="#A0CCE0"/>
<stop offset="1" stop-color="#69A1E3"/>
</linearGradient>
<linearGradient id="paint14_linear_9_80751" x1="80.9922" y1="125.578" x2="168.784" y2="125.578" gradientUnits="userSpaceOnUse">
<stop stop-color="#A0CCE0"/>
<stop offset="1" stop-color="#69A1E3"/>
</linearGradient>
<linearGradient id="paint15_linear_9_80751" x1="-283.677" y1="109.07" x2="-195.906" y2="109.07" gradientUnits="userSpaceOnUse">
<stop stop-color="white"/>
<stop offset="0.506" stop-color="#CAD1E0"/>
<stop offset="1" stop-color="#C8CEDE"/>
</linearGradient>
<linearGradient id="paint16_linear_9_80751" x1="90.7188" y1="114.558" x2="168.779" y2="114.558" gradientUnits="userSpaceOnUse">
<stop stop-color="#A0CCE0"/>
<stop offset="1" stop-color="#69A1E3"/>
</linearGradient>
<linearGradient id="paint17_linear_9_80751" x1="107.852" y1="95.5299" x2="168.783" y2="95.5299" gradientUnits="userSpaceOnUse">
<stop stop-color="#A0CCE0"/>
<stop offset="1" stop-color="#69A1E3"/>
</linearGradient>
<linearGradient id="paint18_linear_9_80751" x1="96.6406" y1="94.7115" x2="152.733" y2="94.7115" gradientUnits="userSpaceOnUse">
<stop stop-color="#A0CCE0"/>
<stop offset="1" stop-color="#69A1E3"/>
</linearGradient>
<linearGradient id="paint19_linear_9_80751" x1="96.6562" y1="88.7855" x2="152.718" y2="88.7855" gradientUnits="userSpaceOnUse">
<stop stop-color="#FFE06A"/>
<stop offset="1" stop-color="#FFCC00"/>
</linearGradient>
<linearGradient id="paint20_linear_9_80751" x1="96.6562" y1="88.019" x2="152.713" y2="88.019" gradientUnits="userSpaceOnUse">
<stop stop-color="#A0CCE0"/>
<stop offset="1" stop-color="#69A1E3"/>
</linearGradient>
<linearGradient id="paint21_linear_9_80751" x1="144.742" y1="76.0638" x2="148.506" y2="76.0638" gradientUnits="userSpaceOnUse">
<stop stop-color="#A0CCE0"/>
<stop offset="1" stop-color="#69A1E3"/>
</linearGradient>
<linearGradient id="paint22_linear_9_80751" x1="150.695" y1="78.9273" x2="154.395" y2="78.9273" gradientUnits="userSpaceOnUse">
<stop stop-color="#A0CCE0"/>
<stop offset="1" stop-color="#69A1E3"/>
</linearGradient>
<linearGradient id="paint23_linear_9_80751" x1="155.531" y1="82.4044" x2="159.233" y2="82.4044" gradientUnits="userSpaceOnUse">
<stop stop-color="#A0CCE0"/>
<stop offset="1" stop-color="#69A1E3"/>
</linearGradient>
<linearGradient id="paint24_linear_9_80751" x1="159.113" y1="86.3601" x2="162.816" y2="86.3601" gradientUnits="userSpaceOnUse">
<stop stop-color="#A0CCE0"/>
<stop offset="1" stop-color="#69A1E3"/>
</linearGradient>
<linearGradient id="paint25_linear_9_80751" x1="161.285" y1="90.6398" x2="164.984" y2="90.6398" gradientUnits="userSpaceOnUse">
<stop stop-color="#A0CCE0"/>
<stop offset="1" stop-color="#69A1E3"/>
</linearGradient>
<linearGradient id="paint26_linear_9_80751" x1="161.961" y1="95.081" x2="165.663" y2="95.081" gradientUnits="userSpaceOnUse">
<stop stop-color="#A0CCE0"/>
<stop offset="1" stop-color="#69A1E3"/>
</linearGradient>
<linearGradient id="paint27_linear_9_80751" x1="122.77" y1="127.018" x2="128.282" y2="127.018" gradientUnits="userSpaceOnUse">
<stop stop-color="#A0CCE0"/>
<stop offset="1" stop-color="#69A1E3"/>
</linearGradient>
<clipPath id="clip0_9_80751">
<rect width="241" height="290" fill="white"/>
</clipPath>
</defs>
</svg>
