<svg xmlns="http://www.w3.org/2000/svg" width="241" height="290" fill="none" viewBox="0 0 241 290"><g clip-path="url(#a)"><mask id="b" width="241" height="290" x="0" y="0" maskUnits="userSpaceOnUse" style="mask-type:luminance"><path fill="#fff" d="M241 0H0v290h241z"/></mask><g mask="url(#b)"><path fill="url(#c)" d="M239.413 169.775h-50.23l-55.913-33.866c-7.2-4.361-19.779-3.815-28.095 1.226l-53.9 32.641h-50.2v174.035h.017c-.207 2.95 1.365 5.8 4.823 7.894l101.279 61.348c7.2 4.36 19.78 3.815 28.1-1.226l97.242-58.9c4.317-2.614 6.618-5.926 6.842-9.118h.037z"/><path fill="#d9dde8" d="m236.379 191.458-107.856 62.671a14.61 14.61 0 0 1-14.922 0l-109.5-63.61a6.52 6.52 0 0 1-3.024-5.683V151.91l111.451-47a17.04 17.04 0 0 1 13.827-.16l113.045 48.1v32.937a6.53 6.53 0 0 1-3.021 5.671"/><path fill="#f2f5fc" d="M238.214 154.573 128.251 218.48a14.55 14.55 0 0 1-14.854 0L2.268 153.914a2.69 2.69 0 0 1-.967-3.338c.192-.47.532-.865.967-1.125l109.993-63.917a14.52 14.52 0 0 1 14.805 0l111.151 64.58a2.69 2.69 0 0 1 .958 3.346 2.36 2.36 0 0 1-.958 1.113z"/><path fill="#3a456e" d="m211.351 156.311-79.23 46.053a17.51 17.51 0 0 1-17.873 0l-85.115-49.456a3.13 3.13 0 0 1-1.125-3.887 2.73 2.73 0 0 1 1.125-1.31l80.607-46.848a14.81 14.81 0 0 1 15.118 0l86.5 50.255a3.136 3.136 0 0 1 1.121 3.893 2.74 2.74 0 0 1-1.121 1.3z"/><path fill="#e0e3ed" d="m211.353 156.309-8.087 4.708-78.404-45.557a14.82 14.82 0 0 0-15.119 0l-72.52 42.145-8.09-4.7a3.13 3.13 0 0 1-1.125-3.886 2.74 2.74 0 0 1 1.125-1.31l80.611-46.85a14.81 14.81 0 0 1 15.119 0l86.5 50.256a3.146 3.146 0 0 1 1.1 3.9 2.74 2.74 0 0 1-1.111 1.286z"/><path fill="#ffe06a" d="M222.453 182.312c0 2.58 1.8 3.623 4.02 2.335a8.93 8.93 0 0 0 4.018-7c0-2.58-1.8-3.622-4.018-2.333a8.94 8.94 0 0 0-4.02 7z"/><path fill="#fcfcfc" d="M225.439 183.445a8.94 8.94 0 0 0 4.021-7 4 4 0 0 0-.262-1.461 2.78 2.78 0 0 1 1.3 2.662 8.93 8.93 0 0 1-4.018 7c-1.732 1.007-3.19.582-3.757-.871a2.85 2.85 0 0 0 2.721-.33z"/><path fill="url(#d)" d="M208.992 189.928c0 2.58 1.8 3.626 4.018 2.336a8.94 8.94 0 0 0 4.018-7c0-2.58-1.8-3.626-4.018-2.337a8.92 8.92 0 0 0-4.018 7.001"/><path fill="#fff" d="M211.979 191.063a8.94 8.94 0 0 0 4.018-7.007c.006-.5-.082-.996-.26-1.462a2.78 2.78 0 0 1 1.293 2.666 8.94 8.94 0 0 1-4.018 7c-1.729 1-3.191.576-3.758-.875a2.86 2.86 0 0 0 2.725-.322"/><path fill="#f2f5fc" d="m150.523 191.848 20.867-12.129 5.609 8.6-20.632 12.552"/><path fill="url(#e)" d="M124.901 178.28c-11.283 0-22.564-2.478-31.154-7.437-8.367-4.83-12.974-11.268-12.974-18.126s4.607-13.3 12.974-18.124c17.177-9.916 45.13-9.916 62.3 0 8.365 4.831 12.974 11.268 12.974 18.127s-4.602 13.292-12.97 18.123c-8.586 4.958-19.87 7.437-31.15 7.437m0-50.65c-11.194 0-22.388 2.46-30.91 7.381-8.212 4.741-12.734 11.029-12.734 17.707s4.523 12.968 12.733 17.708c17.046 9.841 44.78 9.841 61.824 0 8.211-4.741 12.732-11.029 12.732-17.7s-4.52-12.968-12.733-17.71c-8.525-4.921-19.721-7.381-30.915-7.381z"/><path fill="url(#f)" d="M168.783 139.919v-14.338h-7.768a36 36 0 0 0-5.085-3.551c-17.138-9.9-44.927-9.9-62.065 0a35.7 35.7 0 0 0-5.085 3.551h-7.768v14.36c0 6.485 4.284 12.969 12.854 17.917 17.138 9.894 44.927 9.894 62.065 0 8.579-4.954 12.862-11.448 12.852-17.939"/><path fill="#fff" d="M81.416 139.571v-13.993h-.4v14.364c0 5.806 3.46 11.6 10.328 16.3-6.61-4.887-9.928-10.776-9.928-16.671"/><path fill="url(#g)" d="M168.087 125.578v13.88c.01 6.493-4.273 12.987-12.851 17.94-17.138 9.894-44.925 9.894-62.065 0a37 37 0 0 1-2.452-1.566c.977.7 2.018 1.378 3.144 2.028 17.138 9.894 44.927 9.894 62.065 0 8.578-4.954 12.861-11.448 12.851-17.939v-14.343z"/><path fill="#f2f5fc" d="M124.898 150.914c24.237 0 43.886-11.344 43.886-25.338s-19.649-25.338-43.886-25.338-43.886 11.344-43.886 25.338 19.648 25.338 43.886 25.338"/><path fill="#fff" d="M95.052 107.921c8.705-5.027 20.076-7.565 31.487-7.638-11.773-.253-23.686 2.187-32.673 7.375-13.352 7.709-16.42 19.292-8.8 28.5-6.56-9.423-3.235-20.604 9.986-28.237"/><path fill="url(#h)" d="M155.929 107.661a54.3 54.3 0 0 0-15.524-5.77 53.2 53.2 0 0 1 13.986 5.423c17.138 9.9 17.138 25.938 0 35.833-12.585 7.267-30.9 9.176-46.539 5.77 15.959 3.881 35.078 2.083 48.079-5.423 17.138-9.895 17.136-25.939-.002-35.833"/><path fill="url(#i)" d="M124.687 141.767c15.489 0 28.046-7.25 28.046-16.192s-12.557-16.192-28.046-16.192c-15.49 0-28.046 7.249-28.046 16.192 0 8.942 12.556 16.192 28.046 16.192"/><path fill="#18d0f7" d="M104.854 122.803c10.954-6.323 28.711-6.323 39.664 0a17.16 17.16 0 0 1 7.175 7.112c2.613-5.44.233-11.512-7.175-15.789-10.952-6.324-28.71-6.324-39.664 0-7.407 4.277-9.785 10.349-7.173 15.789a17.16 17.16 0 0 1 7.173-7.112"/><path fill="url(#j)" d="M104.854 119.739c10.954-6.324 28.711-6.324 39.663 0 4.235 2.444 6.812 5.478 7.772 8.643 1.524-5.021-1.054-10.378-7.772-14.256-10.952-6.324-28.71-6.324-39.663 0-6.718 3.88-9.3 9.235-7.772 14.256.96-3.165 3.538-6.196 7.772-8.643"/><path fill="#267fe5" d="M104.852 117.009c10.954-6.324 28.711-6.324 39.663 0 4.841 2.794 7.533 6.357 8.1 10.008.71-4.611-1.984-9.363-8.1-12.891-10.952-6.324-28.71-6.324-39.663 0-6.111 3.53-8.8 8.282-8.093 12.892.56-3.653 3.253-7.215 8.093-10.009"/><path fill="url(#k)" d="M147.61 106.007a2.78 2.78 0 0 0-2.588.354c-.546.511-.269 1.18.615 1.5a2.79 2.79 0 0 0 2.59-.356c.543-.512.268-1.182-.617-1.498"/><path fill="url(#l)" d="M153.803 109.016a2.88 2.88 0 0 0-2.614.056c-.694.433-.651 1.107.1 1.509a2.88 2.88 0 0 0 2.614-.056c.694-.437.65-1.108-.1-1.509" opacity=".8"/><path fill="url(#m)" d="M158.88 112.65a2.82 2.82 0 0 0-2.583-.24c-.828.345-1.013 1.013-.415 1.491a2.82 2.82 0 0 0 2.583.24c.833-.346 1.015-1.014.415-1.491" opacity=".6"/><path fill="url(#n)" d="M162.645 116.782a2.54 2.54 0 0 0-2.452-.525c-.929.246-1.337.88-.911 1.415a2.55 2.55 0 0 0 2.452.527c.93-.243 1.341-.88.911-1.417" opacity=".4"/><path fill="url(#o)" d="M164.935 121.264a2.15 2.15 0 0 0-2.227-.792c-.995.137-1.608.713-1.372 1.287a2.15 2.15 0 0 0 2.227.792c.99-.139 1.604-.715 1.372-1.287" opacity=".2"/><path fill="url(#p)" d="M165.475 126.421c.448-.53.068-1.17-.851-1.428a2.59 2.59 0 0 0-2.475.491c-.448.53-.066 1.169.851 1.428a2.6 2.6 0 0 0 2.475-.491" opacity=".1"/><path fill="url(#q)" d="m168.784 107.409-13.588-.154c-16.528-9.118-42.345-9.346-59.33-.677l-14.874-.17v18.471h.05c-.318 6.714 3.95 13.486 12.824 18.609 17.138 9.9 44.927 9.9 62.063 0 8.877-5.125 13.142-11.9 12.825-18.611h.029z"/><path fill="url(#r)" d="M168.783 109.053V94.707h-7.768a36 36 0 0 0-5.085-3.551c-17.138-9.9-44.927-9.9-62.065 0a36 36 0 0 0-5.085 3.552h-7.768v14.364c0 6.485 4.284 12.969 12.854 17.917 17.138 9.894 44.927 9.894 62.065 0 8.579-4.955 12.862-11.448 12.852-17.936"/><path fill="#fff" d="M81.416 108.707v-14h-.4v14.364c0 5.8 3.46 11.6 10.328 16.3-6.61-4.884-9.928-10.775-9.928-16.664"/><path fill="url(#s)" d="M168.087 94.707v13.88c.01 6.493-4.273 12.986-12.851 17.939-17.138 9.9-44.925 9.9-62.065 0a37 37 0 0 1-2.452-1.566c.977.7 2.018 1.378 3.144 2.028 17.138 9.894 44.927 9.894 62.065 0 8.578-4.954 12.861-11.448 12.851-17.94V94.707z"/><path fill="#f2f5fc" d="M124.898 120.047c24.237 0 43.886-11.344 43.886-25.338s-19.649-25.338-43.886-25.338S81.012 80.715 81.012 94.71s19.648 25.338 43.886 25.338"/><path fill="#fff" d="M95.052 77.053c8.705-5.026 20.076-7.564 31.487-7.637-11.773-.253-23.686 2.187-32.673 7.375-13.352 7.71-16.42 19.292-8.8 28.5-6.56-9.422-3.235-20.603 9.986-28.238"/><path fill="url(#t)" d="M155.929 76.794a54.3 54.3 0 0 0-15.524-5.77 53.2 53.2 0 0 1 13.986 5.422c17.138 9.9 17.138 25.939 0 35.833-12.585 7.267-30.9 9.174-46.539 5.768 15.959 3.883 35.078 2.083 48.079-5.421 17.138-9.896 17.136-25.939-.002-35.833"/><path fill="url(#u)" d="M124.687 110.904c15.489 0 28.046-7.25 28.046-16.192s-12.557-16.193-28.046-16.193c-15.49 0-28.046 7.25-28.046 16.192s12.556 16.193 28.046 16.193"/><path fill="url(#v)" d="M104.854 91.94c10.954-6.323 28.711-6.322 39.664 0a17.2 17.2 0 0 1 7.175 7.11c2.613-5.44.233-11.51-7.175-15.787-10.952-6.324-28.71-6.324-39.664 0-7.407 4.276-9.785 10.349-7.173 15.789a17.17 17.17 0 0 1 7.173-7.112"/><path fill="url(#w)" d="M104.854 88.876c10.954-6.324 28.711-6.324 39.663 0 4.235 2.444 6.812 5.477 7.772 8.642 1.524-5.022-1.054-10.377-7.772-14.255-10.952-6.324-28.71-6.324-39.663 0-6.718 3.88-9.3 9.234-7.772 14.255.96-3.165 3.538-6.198 7.772-8.642"/><path fill="#267fe5" d="M104.852 86.143c10.954-6.323 28.711-6.323 39.663 0 4.841 2.794 7.533 6.357 8.1 10.008.71-4.611-1.984-9.363-8.1-12.892-10.952-6.324-28.71-6.324-39.663 0-6.111 3.528-8.8 8.28-8.093 12.892.56-3.65 3.253-7.213 8.093-10.008"/><path fill="url(#x)" d="M147.61 75.14a2.79 2.79 0 0 0-2.588.354c-.546.511-.269 1.181.615 1.494a2.79 2.79 0 0 0 2.59-.354c.543-.51.268-1.18-.617-1.495"/><path fill="url(#y)" d="M153.803 78.144a2.9 2.9 0 0 0-2.614.056c-.694.432-.651 1.108.1 1.51a2.89 2.89 0 0 0 2.614-.056c.694-.432.65-1.108-.1-1.51" opacity=".8"/><path fill="url(#z)" d="M158.88 81.779a2.82 2.82 0 0 0-2.583-.24c-.828.346-1.013 1.013-.415 1.49a2.82 2.82 0 0 0 2.583.24c.833-.347 1.015-1.012.415-1.49" opacity=".6"/><path fill="url(#A)" d="M162.645 85.914a2.55 2.55 0 0 0-2.452-.525c-.929.245-1.337.88-.911 1.415a2.55 2.55 0 0 0 2.452.527c.93-.246 1.341-.88.911-1.417" opacity=".4"/><path fill="url(#B)" d="M164.935 90.392a2.16 2.16 0 0 0-2.227-.791c-.995.136-1.608.713-1.372 1.285a2.15 2.15 0 0 0 2.227.794c.99-.138 1.604-.714 1.372-1.288" opacity=".2"/><path fill="url(#C)" d="M165.475 95.55c.448-.531.068-1.17-.851-1.43a2.6 2.6 0 0 0-2.475.492c-.448.53-.066 1.17.851 1.43a2.6 2.6 0 0 0 2.475-.492" opacity=".1"/><path fill="url(#D)" d="M128.282 127.019a2.76 2.76 0 0 1-3.294 2.702 2.76 2.76 0 0 1-2.165-2.165 2.753 2.753 0 0 1 2.702-3.294c.362 0 .72.071 1.055.209a2.77 2.77 0 0 1 1.492 1.493c.138.334.21.693.21 1.055"/><path fill="#267fe5" d="M125.525 128.74a2.75 2.75 0 0 1-2.7-2.24 2.758 2.758 0 0 0 3.882 3.025 2.75 2.75 0 0 0 1.526-3.025 2.75 2.75 0 0 1-2.708 2.24"/></g></g><defs><linearGradient id="c" x1="136.214" x2="149.651" y1="451.375" y2="116.706" gradientUnits="userSpaceOnUse"><stop stop-color="#fff"/><stop offset="1" stop-color="#c8cede"/></linearGradient><linearGradient id="d" x1="-1026.78" x2="-1026.78" y1="501.128" y2="501.18" gradientUnits="userSpaceOnUse"><stop stop-color="#5e98f7"/><stop offset="1" stop-color="#4670ba"/></linearGradient><linearGradient id="e" x1="80.773" x2="169.021" y1="152.718" y2="152.718" gradientUnits="userSpaceOnUse"><stop stop-color="#ffe06a"/><stop offset="1" stop-color="#fc0"/></linearGradient><linearGradient id="f" x1="-283.677" x2="-195.906" y1="139.942" y2="139.942" gradientUnits="userSpaceOnUse"><stop stop-color="#fff"/><stop offset=".506" stop-color="#cad1e0"/><stop offset="1" stop-color="#c8cede"/></linearGradient><linearGradient id="g" x1="90.719" x2="168.779" y1="145.429" y2="145.429" gradientUnits="userSpaceOnUse"><stop stop-color="#a0cce0"/><stop offset="1" stop-color="#69a1e3"/></linearGradient><linearGradient id="h" x1="107.852" x2="168.783" y1="126.398" y2="126.398" gradientUnits="userSpaceOnUse"><stop stop-color="#a0cce0"/><stop offset="1" stop-color="#69a1e3"/></linearGradient><linearGradient id="i" x1="96.641" x2="152.733" y1="125.575" y2="125.575" gradientUnits="userSpaceOnUse"><stop stop-color="#a0cce0"/><stop offset="1" stop-color="#69a1e3"/></linearGradient><linearGradient id="j" x1="96.656" x2="152.713" y1="118.882" y2="118.882" gradientUnits="userSpaceOnUse"><stop stop-color="#a0cce0"/><stop offset="1" stop-color="#69a1e3"/></linearGradient><linearGradient id="k" x1="144.742" x2="148.506" y1="106.934" y2="106.934" gradientUnits="userSpaceOnUse"><stop stop-color="#a0cce0"/><stop offset="1" stop-color="#69a1e3"/></linearGradient><linearGradient id="l" x1="150.695" x2="154.395" y1="109.799" y2="109.799" gradientUnits="userSpaceOnUse"><stop stop-color="#a0cce0"/><stop offset="1" stop-color="#69a1e3"/></linearGradient><linearGradient id="m" x1="155.531" x2="159.233" y1="113.275" y2="113.275" gradientUnits="userSpaceOnUse"><stop stop-color="#a0cce0"/><stop offset="1" stop-color="#69a1e3"/></linearGradient><linearGradient id="n" x1="159.113" x2="162.816" y1="117.227" y2="117.227" gradientUnits="userSpaceOnUse"><stop stop-color="#a0cce0"/><stop offset="1" stop-color="#69a1e3"/></linearGradient><linearGradient id="o" x1="161.285" x2="164.984" y1="121.511" y2="121.511" gradientUnits="userSpaceOnUse"><stop stop-color="#a0cce0"/><stop offset="1" stop-color="#69a1e3"/></linearGradient><linearGradient id="p" x1="161.961" x2="165.663" y1="125.952" y2="125.952" gradientUnits="userSpaceOnUse"><stop stop-color="#a0cce0"/><stop offset="1" stop-color="#69a1e3"/></linearGradient><linearGradient id="q" x1="80.992" x2="168.784" y1="125.578" y2="125.578" gradientUnits="userSpaceOnUse"><stop stop-color="#a0cce0"/><stop offset="1" stop-color="#69a1e3"/></linearGradient><linearGradient id="r" x1="-283.677" x2="-195.906" y1="109.07" y2="109.07" gradientUnits="userSpaceOnUse"><stop stop-color="#fff"/><stop offset=".506" stop-color="#cad1e0"/><stop offset="1" stop-color="#c8cede"/></linearGradient><linearGradient id="s" x1="90.719" x2="168.779" y1="114.558" y2="114.558" gradientUnits="userSpaceOnUse"><stop stop-color="#a0cce0"/><stop offset="1" stop-color="#69a1e3"/></linearGradient><linearGradient id="t" x1="107.852" x2="168.783" y1="95.53" y2="95.53" gradientUnits="userSpaceOnUse"><stop stop-color="#a0cce0"/><stop offset="1" stop-color="#69a1e3"/></linearGradient><linearGradient id="u" x1="96.641" x2="152.733" y1="94.712" y2="94.712" gradientUnits="userSpaceOnUse"><stop stop-color="#a0cce0"/><stop offset="1" stop-color="#69a1e3"/></linearGradient><linearGradient id="v" x1="96.656" x2="152.718" y1="88.785" y2="88.785" gradientUnits="userSpaceOnUse"><stop stop-color="#ffe06a"/><stop offset="1" stop-color="#fc0"/></linearGradient><linearGradient id="w" x1="96.656" x2="152.713" y1="88.019" y2="88.019" gradientUnits="userSpaceOnUse"><stop stop-color="#a0cce0"/><stop offset="1" stop-color="#69a1e3"/></linearGradient><linearGradient id="x" x1="144.742" x2="148.506" y1="76.064" y2="76.064" gradientUnits="userSpaceOnUse"><stop stop-color="#a0cce0"/><stop offset="1" stop-color="#69a1e3"/></linearGradient><linearGradient id="y" x1="150.695" x2="154.395" y1="78.927" y2="78.927" gradientUnits="userSpaceOnUse"><stop stop-color="#a0cce0"/><stop offset="1" stop-color="#69a1e3"/></linearGradient><linearGradient id="z" x1="155.531" x2="159.233" y1="82.404" y2="82.404" gradientUnits="userSpaceOnUse"><stop stop-color="#a0cce0"/><stop offset="1" stop-color="#69a1e3"/></linearGradient><linearGradient id="A" x1="159.113" x2="162.816" y1="86.36" y2="86.36" gradientUnits="userSpaceOnUse"><stop stop-color="#a0cce0"/><stop offset="1" stop-color="#69a1e3"/></linearGradient><linearGradient id="B" x1="161.285" x2="164.984" y1="90.64" y2="90.64" gradientUnits="userSpaceOnUse"><stop stop-color="#a0cce0"/><stop offset="1" stop-color="#69a1e3"/></linearGradient><linearGradient id="C" x1="161.961" x2="165.663" y1="95.081" y2="95.081" gradientUnits="userSpaceOnUse"><stop stop-color="#a0cce0"/><stop offset="1" stop-color="#69a1e3"/></linearGradient><linearGradient id="D" x1="122.77" x2="128.282" y1="127.018" y2="127.018" gradientUnits="userSpaceOnUse"><stop stop-color="#a0cce0"/><stop offset="1" stop-color="#69a1e3"/></linearGradient><clipPath id="a"><path fill="#fff" d="M0 0h241v290H0z"/></clipPath></defs></svg>